<svg width="24" height="24" fill="none" xmlns="http://www.w3.org/2000/svg"><path d="M16.42 3.26a2.274 2.274 0 0 1-.149.037c-.147.032-.39.251-.457.411a.742.742 0 0 0 .139.786c.152.161.287.221.554.248.526.052.87.196 1.193.502.568.537.703 1.364.34 2.076a2.012 2.012 0 0 1-.632.669c-.39.229-.389.229-2.068.251-1.351.017-1.576.029-1.68.086a.89.89 0 0 0-.342.354c-.072.14-.064.514.014.665.08.153.277.325.421.365.059.017.8.029 1.647.028 1.798-.002 1.901-.016 2.56-.345.37-.184.468-.257.822-.611.354-.354.427-.452.611-.822.255-.51.336-.863.336-1.46s-.081-.95-.336-1.46c-.184-.371-.256-.467-.611-.822-.347-.346-.457-.429-.806-.606a3.184 3.184 0 0 0-.7-.265c-.3-.063-.783-.112-.856-.087M4.805 8.279c-.382.092-.618.496-.526.898.071.31.317.522.653.563.114.014 1.351.019 2.748.012 2.765-.013 2.653-.004 2.865-.238.142-.157.188-.283.188-.514a.713.713 0 0 0-.393-.674c-.108-.059-.386-.067-2.76-.073-1.452-.003-2.701.008-2.775.026m3 3c-.381.092-.618.496-.526.898.071.31.317.522.653.563.114.013 1.576.019 3.248.012 2.739-.011 3.052-.019 3.16-.078a.713.713 0 0 0 .393-.674.713.713 0 0 0-.393-.674c-.109-.06-.421-.067-3.26-.072-1.727-.004-3.201.008-3.275.025m-4 3c-.615.15-.744.984-.209 1.348.187.128.385.14 2.084.126 1.628-.014 1.618-.013 1.834-.208.15-.136.219-.308.219-.545 0-.237-.069-.409-.219-.545-.217-.197-.196-.195-1.934-.202-.902-.004-1.701.008-1.775.026m7 0c-.734.179-.72 1.272.018 1.443.087.02 1.552.037 3.285.037 3.045.001 3.135.003 3.346.082.29.109.596.415.705.705.173.462.068.971-.27 1.315-.233.237-.452.337-.841.385-.326.041-.462.096-.593.24-.142.157-.188.283-.188.514 0 .308.13.531.393.672.154.082.683.077 1.03-.01.938-.235 1.736-1.037 1.975-1.982.087-.343.087-1.017 0-1.36a2.81 2.81 0 0 0-1.445-1.781c-.585-.288-.399-.274-4.02-.284-1.793-.005-3.321.006-3.395.024" fill-rule="evenodd" fill="#000"/></svg>