<svg width="24" height="24" fill="none" xmlns="http://www.w3.org/2000/svg"><path d="M5.9 2.259a1.795 1.795 0 0 1-.16.04c-.089.019-.542.446-1.733 1.634-.887.884-1.641 1.661-1.676 1.727-.077.145-.084.522-.013.66a.849.849 0 0 0 .342.35c.156.082.526.081.68-.001.066-.035.843-.789 1.727-1.676C6.194 3.862 6.684 3.344 6.706 3.26c.132-.502-.127-.926-.606-.993a.725.725 0 0 0-.2-.008m12 0a1.438 1.438 0 0 1-.147.037c-.138.031-.339.201-.419.355-.069.135-.089.425-.04.609.022.084.512.602 1.639 1.733.884.887 1.661 1.641 1.727 1.676.145.077.522.084.66.013a.847.847 0 0 0 .348-.338c.068-.13.086-.422.038-.604-.022-.084-.512-.602-1.639-1.733-.884-.887-1.652-1.636-1.707-1.665-.106-.055-.392-.107-.46-.083M11.34 4.28a8.697 8.697 0 0 0-5.52 2.54c-1.357 1.357-2.19 3.022-2.482 4.96-.089.593-.09 1.842-.001 2.44.321 2.158 1.412 4.127 3.03 5.469a8.859 8.859 0 0 0 4.413 1.973c.597.089 1.848.088 2.44 0 1.909-.286 3.585-1.117 4.923-2.442.501-.496.587-.631.59-.919.005-.428-.301-.741-.723-.741a.896.896 0 0 0-.334.062c-.067.034-.304.247-.528.472-1.051 1.055-2.298 1.724-3.788 2.031-.404.083-.569.095-1.36.095-.792 0-.955-.011-1.36-.095-1.474-.304-2.721-.97-3.758-2.007a7.287 7.287 0 0 1-2.01-3.765c-.08-.393-.092-.573-.092-1.353s.012-.96.092-1.353a7.287 7.287 0 0 1 2.01-3.765c1.037-1.037 2.284-1.703 3.758-2.007.404-.084.569-.095 1.36-.095.791 0 .956.011 1.36.095 1.472.304 2.723.972 3.758 2.007a7.17 7.17 0 0 1 2.119 4.755c.035.615.07.746.249.908.157.142.283.188.514.188.237 0 .409-.07.545-.219.178-.196.194-.269.183-.814-.047-2.412-1.221-4.835-3.095-6.389A8.79 8.79 0 0 0 11.34 4.28m.465 3.999c-.291.071-.506.328-.545.653-.014.114-.019 1.126-.013 2.248.01 1.633.024 2.06.068 2.14.08.147 2.204 2.275 2.345 2.349.145.077.522.084.66.013a.849.849 0 0 0 .35-.342c.076-.145.083-.522.012-.66-.028-.055-.471-.523-.985-1.04l-.934-.94-.012-1.96c-.012-2.081-.008-2.035-.206-2.254-.167-.185-.476-.271-.74-.207" fill-rule="evenodd" fill="#000"/></svg>