<svg width="24" height="24" fill="none" xmlns="http://www.w3.org/2000/svg"><path d="M11.72 1.805c-.129.051-.309.223-.394.375-.058.106-.067.342-.078 2.074-.011 1.821-.016 1.951-.08 1.927-1.365-.524-1.952-.626-2.781-.481-.443.077-.636.143-1.135.386-.717.349-1.508.918-1.628 1.171-.083.175-.082.513.003.692.083.176.328.356.53.39.248.042.439-.038.864-.361.435-.331 1.141-.699 1.499-.782.121-.028.373-.05.56-.05.355.001.374.007 1.6.448a3.772 3.772 0 0 0 2.64 0c1.226-.441 1.245-.447 1.6-.448.459-.001.7.061 1.22.316.542.266 1.02.621 1.467 1.091.436.459.669.791.973 1.387.424.831.616 1.58.649 2.526.031.876-.089 1.564-.491 2.813-.106.328-.178.627-.178.738 0 .705.903.99 1.329.418.157-.21.637-1.829.753-2.54a8.277 8.277 0 0 0-.04-2.656 7.298 7.298 0 0 0-2.02-3.823 6.559 6.559 0 0 0-1.786-1.304c-.547-.269-.732-.334-1.183-.412-.829-.145-1.416-.043-2.781.481-.064.024-.069-.106-.08-1.927-.011-1.732-.02-1.968-.078-2.074-.088-.159-.267-.325-.407-.377a.952.952 0 0 0-.547.002M3.766 11.52a.813.813 0 0 0-.413.373c-.077.151-.085.229-.082.807.003.727.064 1.185.267 2.01.579 2.348 1.707 4.439 3.147 5.831.675.652 1.016.891 1.509 1.057.598.201 1.106.184 2.287-.08 1.35-.301 1.647-.304 2.924-.023 1.312.288 1.791.309 2.401.103.315-.106.728-.345.922-.534a.744.744 0 0 0-.069-1.128c-.123-.093-.199-.117-.415-.129-.253-.014-.274-.008-.509.149-.505.338-.739.354-1.789.127l-.966-.21c-.149-.032-.521-.052-.98-.052-.459 0-.831.02-.98.052l-.966.21c-1.09.236-1.358.208-1.866-.197-.301-.239-.937-.893-1.195-1.229-.862-1.122-1.565-2.618-1.973-4.197-.206-.798-.26-1.176-.26-1.817 0-.669-.052-.838-.317-1.021-.171-.119-.516-.17-.677-.102" fill-rule="evenodd" fill="#000"/></svg>