<svg width="24" height="24" viewBox="0 0 24 24" fill="none" xmlns="http://www.w3.org/2000/svg">
<path d="M12 7.0991C10.5637 7.0991 9.89343 5.97974 8.05631 6.53939C7.39409 6.79477 6.80071 7.15851 6.28549 7.60297M12 7.0991C13.4363 7.0991 14.1066 5.97973 15.9437 6.53939C18.8464 7.65878 20.4263 10.8601 19.8997 13.8152C19.7516 14.5581 19.547 15.2931 19.2867 16M12 7.0991V2.5M16.2132 20.5314C14.8927 21.5857 13.7787 20.5314 12 20.5314C10.2213 20.5314 9.10727 21.5857 7.78685 20.5314C5.86853 18.9998 4.62699 16.4569 4.10035 13.8152C4.00674 13.29 3.97968 12.7571 4.01475 12.2294" stroke="#001A72" stroke-width="1.5" stroke-linecap="round"/>
</svg>
