<svg width="24" height="24" fill="none" xmlns="http://www.w3.org/2000/svg"><path d="M10.9 7.259a1.795 1.795 0 0 1-.16.04c-.087.019-.426.331-1.233 1.134-.612.609-1.141 1.161-1.176 1.227-.077.145-.084.522-.013.66a.849.849 0 0 0 .342.35c.156.082.526.081.68-.001.146-.077 2.271-2.208 2.342-2.349.066-.129.066-.512 0-.64a.852.852 0 0 0-.322-.339c-.106-.055-.393-.106-.46-.082m-4 4a1.438 1.438 0 0 1-.147.037c-.139.031-.339.201-.421.359-.078.15-.086.525-.014.665.072.141 4.196 4.272 4.342 4.349.145.077.522.084.66.013a.849.849 0 0 0 .35-.342c.082-.156.081-.526-.001-.68-.035-.066-.686-.741-1.447-1.5L8.84 12.78l4.19-.02c4.476-.021 4.259-.011 4.484-.215.15-.136.219-.308.219-.545 0-.237-.069-.409-.219-.545-.227-.206.07-.194-5.434-.202a524.173 524.173 0 0 0-5.18.006" fill-rule="evenodd" fill="#000"/></svg>