<svg width="24" height="24" fill="none" xmlns="http://www.w3.org/2000/svg"><path d="M11.805 3.279c-.292.071-.506.328-.544.653-.014.114-.019 3.826-.013 8.248.013 8.624 0 8.105.207 8.334a.888.888 0 0 0 .205.156c.145.076.522.083.66.012.141-.072 6.271-6.196 6.349-6.342.082-.154.083-.524.001-.68a.849.849 0 0 0-.35-.342c-.139-.072-.515-.064-.66.013-.066.035-1.191 1.136-2.5 2.447l-2.38 2.382-.02-7.19c-.021-7.705-.009-7.256-.215-7.484-.167-.185-.476-.271-.74-.207M5.9 13.259a1.438 1.438 0 0 1-.147.037c-.138.031-.339.201-.419.355-.069.135-.089.425-.04.609.022.084.512.602 1.639 1.733.884.887 1.661 1.641 1.727 1.676.145.077.522.084.66.013a.847.847 0 0 0 .348-.338c.068-.13.086-.422.038-.604-.022-.084-.512-.602-1.639-1.733-.884-.887-1.652-1.636-1.707-1.665-.106-.055-.392-.107-.46-.083" fill-rule="evenodd" fill="#000"/></svg>