<svg width="24" height="24" fill="none" xmlns="http://www.w3.org/2000/svg"><path d="M9.9 5.259a1.795 1.795 0 0 1-.16.04c-.089.019-.542.446-1.733 1.634-.887.884-1.641 1.661-1.676 1.727-.077.145-.084.522-.013.66a.849.849 0 0 0 .342.35c.156.082.526.081.68-.001.066-.035.843-.789 1.727-1.676 1.127-1.131 1.617-1.649 1.639-1.733.132-.502-.127-.926-.606-.993a.725.725 0 0 0-.2-.008m-6 6a1.438 1.438 0 0 1-.147.037c-.139.031-.339.201-.421.359-.078.15-.086.525-.014.665.072.141 6.196 6.271 6.342 6.349.145.077.521.084.66.013a.849.849 0 0 0 .35-.342c.082-.156.081-.526-.001-.68-.035-.066-1.136-1.191-2.447-2.5L5.84 12.78l7.19-.02c7.705-.021 7.256-.009 7.484-.215.15-.136.219-.308.219-.545 0-.237-.069-.409-.219-.545-.229-.207.3-.194-8.434-.202-4.477-.004-8.158-.001-8.18.006" fill-rule="evenodd" fill="#000"/></svg>