<svg width="24" height="24" fill="none" xmlns="http://www.w3.org/2000/svg"><path d="M11.32 2.28c-1.879.127-3.672.802-5.236 1.972-.493.368-1.464 1.339-1.832 1.832a9.794 9.794 0 0 0-1.895 4.524 10.9 10.9 0 0 0 0 2.784 9.794 9.794 0 0 0 1.895 4.524c.368.493 1.339 1.464 1.832 1.832a9.768 9.768 0 0 0 4.524 1.894 10.32 10.32 0 0 0 3.804-.2 9.913 9.913 0 0 0 3.504-1.694c.493-.369 1.463-1.339 1.832-1.832a9.763 9.763 0 0 0 1.894-4.524 10.9 10.9 0 0 0 0-2.784 9.763 9.763 0 0 0-1.894-4.524c-.369-.493-1.339-1.463-1.832-1.832-1.13-.846-2.524-1.495-3.796-1.766a10.872 10.872 0 0 0-2.8-.206m1.86 1.558a8.233 8.233 0 0 1 3.829 1.607c.425.321 1.225 1.121 1.546 1.546a8.266 8.266 0 0 1 .444 9.375 8.679 8.679 0 0 1-2.633 2.633 8.27 8.27 0 0 1-8.732 0 8.679 8.679 0 0 1-2.633-2.633c-1.51-2.435-1.659-5.493-.392-8.023.433-.864.868-1.465 1.568-2.166.879-.878 1.824-1.491 2.948-1.911a8.455 8.455 0 0 1 4.055-.428m-1.375 2.441c-.291.071-.506.328-.544.653-.014.114-.02 2.476-.013 5.248.01 4.184.021 5.057.067 5.14a.88.88 0 0 0 .345.35c.145.076.522.083.66.012.141-.072 4.272-4.196 4.349-4.342.082-.154.083-.524.001-.68a.849.849 0 0 0-.35-.342c-.139-.072-.515-.064-.66.013-.066.035-.741.686-1.5 1.447l-1.38 1.382-.02-4.19c-.021-4.476-.011-4.259-.215-4.484-.167-.185-.476-.271-.74-.207M7.9 12.259a1.438 1.438 0 0 1-.147.037c-.139.031-.339.201-.421.359-.078.15-.086.525-.014.665.071.141 2.196 2.272 2.342 2.349.154.082.524.083.68.001a.849.849 0 0 0 .342-.35c.066-.128.066-.511 0-.64-.066-.13-2.191-2.269-2.322-2.338-.105-.055-.392-.107-.46-.083" fill-rule="evenodd" fill="#000"/></svg>