<svg width="24" height="24" fill="none" xmlns="http://www.w3.org/2000/svg"><path d="M13.9 5.259a1.438 1.438 0 0 1-.147.037c-.138.031-.339.201-.419.355-.069.135-.089.425-.04.609.022.084.512.602 1.639 1.733.884.887 1.661 1.641 1.727 1.676.145.077.522.084.66.013a.847.847 0 0 0 .348-.338c.068-.13.086-.422.038-.604-.022-.084-.512-.602-1.639-1.733-.884-.887-1.652-1.636-1.707-1.665-.106-.055-.392-.107-.46-.083M3.805 11.28c-.733.174-.72 1.271.018 1.442.091.021 3.138.036 7.257.037l7.099.001-2.427 2.43c-1.73 1.732-2.436 2.464-2.459 2.55-.142.546.177.994.707.993a.872.872 0 0 0 .34-.064c.146-.078 6.27-6.208 6.342-6.349.071-.138.064-.515-.012-.66a.888.888 0 0 0-.156-.205c-.229-.207.3-.195-8.434-.201-4.477-.004-8.201.008-8.275.026" fill-rule="evenodd" fill="#000"/></svg>