<svg width="24" height="24" fill="none" xmlns="http://www.w3.org/2000/svg"><path d="M11.805 6.279c-.291.071-.506.328-.544.653-.014.114-.02 2.476-.013 5.248.013 5.395.002 5.107.207 5.334.136.15.308.219.545.219.237 0 .409-.069.545-.219.204-.225.194-.008.215-4.484l.02-4.19 1.38 1.382c.759.761 1.434 1.412 1.5 1.447.145.077.521.085.66.013a.849.849 0 0 0 .35-.342c.082-.156.081-.526-.001-.68-.071-.134-4.204-4.269-4.329-4.331a.982.982 0 0 0-.535-.05M9.9 8.259a1.795 1.795 0 0 1-.16.04c-.087.019-.426.331-1.233 1.134-.612.609-1.141 1.161-1.176 1.227-.077.145-.084.522-.013.66a.849.849 0 0 0 .342.35c.156.082.526.081.68-.001.146-.077 2.271-2.208 2.342-2.349.066-.129.066-.512 0-.64a.852.852 0 0 0-.322-.339c-.106-.055-.393-.106-.46-.082" fill-rule="evenodd" fill="#000"/></svg>