<svg width="24" height="24" fill="none" xmlns="http://www.w3.org/2000/svg"><path d="M11.32 2.28c-1.879.127-3.672.802-5.236 1.972-.493.368-1.464 1.339-1.832 1.832a9.794 9.794 0 0 0-1.895 4.524 10.9 10.9 0 0 0 0 2.784 9.794 9.794 0 0 0 1.895 4.524c.368.493 1.339 1.464 1.832 1.832a9.768 9.768 0 0 0 4.524 1.894 10.32 10.32 0 0 0 3.804-.2 9.913 9.913 0 0 0 3.504-1.694c.493-.369 1.463-1.339 1.832-1.832a9.763 9.763 0 0 0 1.894-4.524 10.9 10.9 0 0 0 0-2.784 9.763 9.763 0 0 0-1.894-4.524c-.369-.493-1.339-1.463-1.832-1.832-1.13-.846-2.524-1.495-3.796-1.766a10.872 10.872 0 0 0-2.8-.206m1.86 1.558a8.233 8.233 0 0 1 3.829 1.607c.425.321 1.225 1.121 1.546 1.546a8.266 8.266 0 0 1 .444 9.375 8.679 8.679 0 0 1-2.633 2.633 8.27 8.27 0 0 1-8.732 0 8.679 8.679 0 0 1-2.633-2.633c-1.51-2.435-1.659-5.493-.392-8.023.433-.864.868-1.465 1.568-2.166.879-.878 1.824-1.491 2.948-1.911a8.455 8.455 0 0 1 4.055-.428m-1.375 2.441c-.291.071-.506.328-.544.653-.014.114-.02 2.476-.013 5.248.013 5.395.002 5.107.207 5.334.136.15.308.219.545.219.237 0 .409-.069.545-.219.204-.225.194-.008.215-4.484l.02-4.19 1.38 1.382c.759.761 1.434 1.412 1.5 1.447.145.077.521.085.66.013a.849.849 0 0 0 .35-.342c.082-.156.081-.526-.001-.68-.071-.134-4.204-4.269-4.329-4.331a.982.982 0 0 0-.535-.05M9.9 8.259a1.795 1.795 0 0 1-.16.04c-.087.019-.426.331-1.233 1.134-.612.609-1.141 1.161-1.176 1.227-.077.145-.084.522-.013.66a.849.849 0 0 0 .342.35c.156.082.526.081.68-.001.146-.077 2.271-2.208 2.342-2.349.066-.129.066-.512 0-.64a.852.852 0 0 0-.322-.339c-.106-.055-.393-.106-.46-.082" fill-rule="evenodd" fill="#000"/></svg>