<svg width="24" height="24" fill="none" xmlns="http://www.w3.org/2000/svg"><path d="M11.805 3.279c-.292.071-.506.328-.544.653-.014.114-.019 3.826-.013 8.248.013 8.624 0 8.105.207 8.334.136.15.308.219.545.219.237 0 .409-.069.545-.219.206-.228.194.221.215-7.484l.02-7.19 2.38 2.382c1.309 1.311 2.434 2.412 2.5 2.447.145.077.521.085.66.013a.849.849 0 0 0 .35-.342c.082-.156.081-.526-.001-.68-.071-.135-6.204-6.269-6.329-6.331a.982.982 0 0 0-.535-.05M8.9 6.259a1.795 1.795 0 0 1-.16.04c-.089.019-.542.446-1.733 1.634-.887.884-1.641 1.661-1.676 1.727-.077.145-.084.522-.013.66a.849.849 0 0 0 .342.35c.156.082.526.081.68-.001.066-.035.843-.789 1.727-1.676C9.194 7.862 9.684 7.344 9.706 7.26c.132-.502-.127-.926-.606-.993a.725.725 0 0 0-.2-.008" fill-rule="evenodd" fill="#000"/></svg>