<svg width="24" height="24" fill="none" xmlns="http://www.w3.org/2000/svg"><path d="M11.32 2.279c-1.887.131-3.672.804-5.236 1.973-.493.368-1.464 1.339-1.832 1.832a9.794 9.794 0 0 0-1.895 4.524 10.9 10.9 0 0 0 0 2.784 9.794 9.794 0 0 0 1.895 4.524c.368.493 1.339 1.464 1.832 1.832 1.76 1.316 3.713 1.976 5.856 1.98 1.28.002 2.186-.144 3.32-.538.884-.307 2.247-1.061 2.488-1.376.217-.286.153-.786-.129-1.008-.304-.239-.615-.217-1.07.076-1.388.894-2.694 1.302-4.31 1.347-1.693.048-3.188-.352-4.605-1.23a8.679 8.679 0 0 1-2.633-2.633c-1.51-2.435-1.659-5.493-.392-8.023.433-.864.868-1.465 1.568-2.166 1.502-1.501 3.309-2.3 5.464-2.415.61-.032.741-.069.904-.248.142-.157.188-.283.188-.514 0-.231-.046-.357-.188-.514-.198-.218-.449-.261-1.225-.207m6.312 2.363c-.28.148-.431.546-.339.893.018.068.233.324.521.622.773.799 1.198 1.4 1.63 2.303.399.835.65 1.714.759 2.66.025.219.038.856.03 1.5l-.013 1.12-.128.27c-.17.359-.306.531-.582.734a1.845 1.845 0 0 1-1.86.19c-.26-.123-.601-.431-.77-.694-.232-.362-.25-.471-.282-1.76-.03-1.24-.064-1.493-.279-2.07a4.678 4.678 0 0 0-3.299-2.898c-.52-.13-1.52-.13-2.04 0-.858.215-1.534.578-2.137 1.148-.661.624-1.096 1.384-1.331 2.32-.13.52-.13 1.52 0 2.04.235.936.67 1.696 1.331 2.32.603.57 1.279.933 2.137 1.148.52.13 1.52.13 2.04 0 .887-.222 1.546-.583 2.184-1.197l.345-.332.112.171c.28.424.853.918 1.339 1.153.576.279 1.351.381 2.008.264a3.337 3.337 0 0 0 2.557-2.201c.078-.227.131-.491.161-.793.054-.559.018-2.151-.062-2.796a9.8 9.8 0 0 0-2.046-4.841c-.335-.421-1.007-1.108-1.216-1.242a.799.799 0 0 0-.77-.032m-4.872 4.34c.143.033.431.144.64.247.327.162.436.243.782.589.346.346.427.455.589.782.248.503.322.826.322 1.4s-.074.897-.322 1.4c-.162.327-.243.436-.589.782-.346.346-.455.427-.782.589-.503.248-.826.322-1.4.322s-.897-.074-1.4-.322c-.327-.162-.436-.243-.782-.589-.346-.346-.427-.455-.589-.782-.248-.503-.322-.826-.322-1.4s.074-.897.323-1.4c.158-.321.246-.439.569-.763.528-.531 1.056-.811 1.721-.913a4.041 4.041 0 0 1 1.24.058" fill-rule="evenodd" fill="#000"/></svg>