<svg width="24" height="24" fill="none" xmlns="http://www.w3.org/2000/svg"><path d="M8.9 3.259a1.795 1.795 0 0 1-.16.04c-.09.019-.889.794-3.233 3.133-1.712 1.71-3.136 3.153-3.164 3.208-.125.242-.114.321.423 3.01.402 2.014.547 2.667.612 2.764.127.187.4.324.643.32a.662.662 0 0 0 .561-.273c.217-.285.218-.273-.224-2.494a357.373 357.373 0 0 0-.425-2.117l-.022-.09h16.178l-.022.09c-.012.05-.394 1.957-.85 4.239l-.829 4.15-6.804.01c-6.244.01-6.814.016-6.924.077a.89.89 0 0 0-.342.354c-.072.14-.064.514.014.665.08.153.277.325.421.365.059.017 3.339.03 7.29.03h7.183l.162-.107a.962.962 0 0 0 .244-.24c.059-.097.357-1.514 1.106-5.259.903-4.52 1.02-5.147.986-5.297a.714.714 0 0 0-.547-.559c-.092-.021-3.538-.036-8.257-.037L4.821 9.24l2.427-2.43c1.73-1.732 2.436-2.464 2.459-2.55.131-.502-.128-.926-.607-.993a.725.725 0 0 0-.2-.008m6 0a1.438 1.438 0 0 1-.147.037c-.138.031-.339.201-.419.355-.069.135-.089.425-.04.609.022.084.512.602 1.639 1.733.884.887 1.661 1.641 1.727 1.676.145.077.522.084.66.013a.847.847 0 0 0 .348-.338c.068-.13.086-.422.038-.604-.022-.084-.512-.602-1.639-1.733-.884-.887-1.652-1.636-1.707-1.665-.106-.055-.392-.107-.46-.083" fill-rule="evenodd" fill="#000"/></svg>