<svg width="24" height="24" viewBox="0 0 24 24" fill="none" xmlns="http://www.w3.org/2000/svg">
<path d="M3 12C3 10.0017 3.65127 8.15549 4.75313 6.66208M3 12C3 13.9931 3.64785 15.8348 4.74444 17.3261M3 12L8 12M4.75313 6.66208C6.39201 4.4408 9.02775 3 12 3M4.75313 6.66208C5.97869 7.42812 6.97956 8.34295 7.54328 9.7039C7.84481 10.4319 8 11.2121 8 12M12 3C14.9786 3 17.6192 4.44695 19.2573 6.6763M12 3V17M4.74444 17.3261C6.38269 19.5541 9.02249 21 12 21C14.9665 21 17.5977 19.5648 19.2373 17.3509M4.74444 17.3261C5.96869 16.5246 6.96816 15.6846 7.54328 14.2961C7.84481 13.5681 8 12.7879 8 12M19.2573 6.6763C20.3529 8.1672 21 10.008 21 12M19.2573 6.6763C18.0306 7.47481 17.0319 8.31524 16.4567 9.7039C16.1552 10.4319 16 11.2121 16 12C16 12.7879 16.1552 13.5682 16.4567 14.2961C17.0356 15.6937 18.0451 16.4972 19.2373 17.3509M21 12C21 14.0041 20.345 15.8552 19.2373 17.3509M21 12H12" stroke="#001A72" stroke-width="1.5" stroke-linecap="round" stroke-linejoin="round"/>
</svg>
