<svg width="24" height="24" viewBox="0 0 24 24" fill="none" xmlns="http://www.w3.org/2000/svg">
<path d="M8.68335 4C9.65929 3.35265 10.8115 3 12 3C13.5913 3 15.1174 3.63214 16.2427 4.75736C17.3679 5.88258 18 7.4087 18 9C18 10.7834 18.7068 13.2736 19.2801 15M3 3L21 21M5.96047 10C5.67984 13.6403 4 17 4 17H12.5M14.7716 19.1481C14.6209 19.512 14.3999 19.8427 14.1213 20.1213C13.8427 20.3999 13.512 20.6209 13.1481 20.7716C12.7841 20.9224 12.394 21 12 21C11.606 21 11.2159 20.9224 10.8519 20.7716C10.488 20.6209 10.1573 20.3999 9.87868 20.1213C9.6001 19.8427 9.37913 19.512 9.22836 19.1481C9.0776 18.7841 9 18.394 9 18V17" stroke="#001A72" stroke-width="1.5" stroke-linecap="round" stroke-linejoin="round"/>
</svg>
