<svg width="24" height="24" viewBox="0 0 24 24" fill="none" xmlns="http://www.w3.org/2000/svg">
<path d="M15 17V18C15 18.394 14.9224 18.7841 14.7716 19.1481C14.6209 19.512 14.3999 19.8427 14.1213 20.1213C13.8427 20.3999 13.512 20.6209 13.1481 20.7716C12.7841 20.9224 12.394 21 12 21C11.606 21 11.2159 20.9224 10.8519 20.7716C10.488 20.6209 10.1573 20.3999 9.87868 20.1213C9.6001 19.8427 9.37913 19.512 9.22836 19.1481C9.0776 18.7841 9 18.394 9 18V17H20C20 17 18 12 18 9M15 3.82461C14.1129 3.30174 13.0861 3 12 3C8.732 3 6 5.732 6 9C6 13 4 17 4 17H6" stroke="#001A72" stroke-width="1.5" stroke-linecap="round" stroke-linejoin="round"/>
</svg>
