<svg width="24" height="24" fill="none" xmlns="http://www.w3.org/2000/svg"><path d="M11.32 2.281c-1.873.124-3.671.801-5.236 1.971-.493.368-1.464 1.339-1.832 1.832a9.794 9.794 0 0 0-1.895 4.524 10.9 10.9 0 0 0 0 2.784 9.794 9.794 0 0 0 1.895 4.524c.368.493 1.339 1.464 1.832 1.832 1.926 1.44 4.141 2.11 6.512 1.968 1.78-.106 3.254-.596 4.764-1.585a9.603 9.603 0 0 0 3.234-3.543c.237-.451.262-.647.122-.936-.14-.29-.518-.458-.836-.372-.231.062-.407.243-.623.64-.195.36-.623 1.012-.807 1.231l-.11.13-2.64-2.64L13.06 12l2.64-2.641 2.64-2.64.113.13c.394.458.943 1.422 1.246 2.191.22.558.407.726.806.726.256 0 .412-.079.587-.296.188-.232.193-.478.017-.931-.905-2.333-2.588-4.182-4.804-5.275a9.843 9.843 0 0 0-4.985-.983m1.766 1.543a8.11 8.11 0 0 1 2.569.78c.373.186 1.256.749 1.514.966l.109.092-5.812 5.812-5.813 5.813-.262-.354A8.105 8.105 0 0 1 3.76 12c0-1.817.547-3.47 1.631-4.933l.262-.353 1.983 1.98c1.404 1.402 2.019 1.99 2.104 2.012.525.138.98-.166.993-.662a1.289 1.289 0 0 0-.027-.304c-.022-.085-.61-.7-2.012-2.104l-1.98-1.983.353-.262a8.208 8.208 0 0 1 3.713-1.55c.621-.096 1.64-.103 2.306-.017m1.568 11.89 2.633 2.633-.273.202c-1.282.944-2.612 1.482-4.074 1.649-.525.06-1.466.051-2.008-.019a8.233 8.233 0 0 1-3.865-1.57l-.354-.262 2.634-2.634A250.173 250.173 0 0 1 12 13.08c.011 0 1.205 1.185 2.654 2.634" fill-rule="evenodd" fill="#000"/></svg>