<svg width="24" height="24" fill="none" xmlns="http://www.w3.org/2000/svg"><path d="M11.32 2.279c-1.887.131-3.672.804-5.236 1.973-.493.368-1.464 1.339-1.832 1.832a9.794 9.794 0 0 0-1.895 4.524 10.9 10.9 0 0 0 0 2.784 9.794 9.794 0 0 0 1.895 4.524c.368.493 1.339 1.464 1.832 1.832a9.768 9.768 0 0 0 4.524 1.894 10.32 10.32 0 0 0 3.804-.2 9.913 9.913 0 0 0 3.504-1.694c.493-.369 1.463-1.339 1.832-1.832a9.767 9.767 0 0 0 1.894-4.524c.105-.705.116-1.926.024-2.635a9.841 9.841 0 0 0-2.048-4.841c-.335-.421-1.007-1.108-1.216-1.242a.783.783 0 0 0-.762-.034c-.288.147-.441.542-.347.895.018.068.233.324.521.622.773.799 1.198 1.4 1.63 2.303a7.964 7.964 0 0 1 .796 3.547c0 1.803-.552 3.47-1.631 4.926l-.262.354-5.814-5.814A4204.816 4204.816 0 0 1 6.72 5.654c0-.022.75-.555.971-.689 1.214-.739 2.482-1.125 3.95-1.203.61-.032.741-.069.904-.248.142-.157.188-.283.188-.514 0-.231-.046-.357-.188-.514-.198-.218-.449-.261-1.225-.207m.153 10.254 5.814 5.814-.354.262a8.255 8.255 0 0 1-9.299.39 8.679 8.679 0 0 1-2.633-2.633A8.12 8.12 0 0 1 3.76 12a8.1 8.1 0 0 1 1.629-4.93c.142-.192.262-.35.265-.35.003 0 2.622 2.616 5.819 5.813" fill-rule="evenodd" fill="#000"/></svg>