<svg width="24" height="24" fill="none" xmlns="http://www.w3.org/2000/svg"><path d="M11.5 2.718c-.476.103-.795.283-1.419.803-.946.788-2.385 2.257-2.575 2.629-.152.296-.109.597.119.85.167.186.356.256.617.231.254-.025.329-.079.719-.519.847-.957 2.119-2.15 2.572-2.412a.968.968 0 0 1 .895-.029c.411.216 1.897 1.608 2.612 2.446.79.926 1.462 1.919 2.002 2.958.279.536.386.65.679.728a.734.734 0 0 0 .844-.421c.119-.263.097-.406-.139-.886-.959-1.952-2.612-3.998-4.502-5.571-.79-.657-1.116-.805-1.824-.828a3.696 3.696 0 0 0-.6.021M5.41 9.844c-.224.111-.3.226-.495.744-.667 1.774-.826 3.643-.452 5.292.254 1.121.897 2.362 1.69 3.263.843.957 2.195 1.827 3.467 2.232.241.076.969.245 1.22.283a8.7 8.7 0 0 0 2.739-.077c.736-.149 1.718-.511 1.934-.713.345-.322.28-.928-.126-1.166-.26-.152-.482-.138-.969.061a6.275 6.275 0 0 1-4.393.155c-1.04-.348-1.718-.766-2.488-1.535-.564-.563-.81-.895-1.129-1.523-.414-.815-.602-1.579-.636-2.586-.036-1.054.074-1.736.475-2.934.202-.605.238-.753.224-.927-.042-.508-.591-.802-1.061-.569m13.31 2.961c-.129.051-.309.223-.394.375-.057.103-.068.294-.079 1.35l-.012 1.23H17.04c-.747 0-1.237.016-1.307.043a.75.75 0 0 0-.464.697.75.75 0 0 0 .464.697c.07.027.56.043 1.307.043h1.195l.012 1.23c.014 1.342.015 1.346.259 1.577a.72.72 0 0 0 .988 0c.244-.231.245-.235.259-1.577l.012-1.23h1.195c.747 0 1.237-.016 1.307-.043a.75.75 0 0 0 .464-.697.75.75 0 0 0-.464-.697c-.07-.027-.56-.043-1.307-.043h-1.195l-.012-1.23c-.011-1.056-.022-1.247-.079-1.35-.088-.159-.267-.325-.407-.377a.952.952 0 0 0-.547.002m-9.915.474a.73.73 0 0 0-.526.544c-.047.209.016.807.123 1.159.238.781.849 1.507 1.594 1.893.433.224.798.326 1.265.353.418.024.556-.009.753-.183.21-.184.289-.604.161-.857-.151-.299-.304-.385-.798-.449-.955-.124-1.554-.75-1.632-1.709-.023-.285-.062-.392-.2-.544-.167-.185-.476-.271-.74-.207" fill-rule="evenodd" fill="#000"/></svg>