<svg width="24" height="24" fill="none" xmlns="http://www.w3.org/2000/svg"><path d="M2.805 2.28c-.291.069-.506.327-.545.652-.013.114-.019 1.909-.012 3.988.013 4.164-.005 3.879.258 4.127a.72.72 0 0 0 .988 0c.262-.248.245.004.257-3.817l.011-3.47H10.229l.025.242c.05.482.304.731.746.731.254 0 .425-.076.575-.255.15-.178.165-.265.165-.978s-.015-.8-.165-.978c-.236-.281.098-.261-4.495-.268-2.277-.004-4.201.008-4.275.026m4 3.999a.73.73 0 0 0-.527.544c-.02.086-.037.439-.037.783l-.001.626-.73.015c-.778.016-.872.037-1.055.239-.142.157-.188.283-.188.514 0 .231.046.357.188.514.183.202.277.223 1.051.239l.726.015.015.726c.015.753.029.822.208 1.02.136.149.308.219.545.219.231 0 .357-.046.514-.188.202-.183.223-.277.239-1.051l.015-.726.726-.015c.774-.016.868-.037 1.051-.239.142-.157.188-.283.188-.514 0-.231-.046-.357-.188-.514-.183-.202-.277-.223-1.051-.239l-.726-.015-.015-.726c-.015-.753-.029-.822-.208-1.02-.167-.185-.476-.271-.74-.207m3.915.526c-.129.051-.309.223-.394.375-.06.109-.067.444-.077 3.59l-.011 3.47H3.771l-.025-.241c-.05-.483-.305-.733-.746-.732-.254 0-.425.076-.575.255-.15.178-.165.265-.165.978s.015.8.165.978c.224.267.176.261 2.085.274l1.73.012.001.588c.002 1.092.087 1.615.359 2.196.399.855.94 1.406 1.78 1.813.619.301 1.135.398 2.12.398.985 0 1.501-.097 2.12-.398.84-.407 1.381-.958 1.78-1.813.31-.664.358-1.057.36-2.948.001-1.491.01-1.566.225-1.963.129-.237.455-.555.693-.676.714-.364 1.541-.23 2.078.339.306.323.45.667.502 1.193.027.267.087.402.248.554.416.394 1.088.172 1.217-.401.046-.201-.027-.791-.141-1.151-.258-.813-.923-1.567-1.706-1.934-.834-.39-1.916-.391-2.745-.003a3.298 3.298 0 0 0-1.776 2.142c-.081.296-.089.448-.114 2.06-.019 1.223-.043 1.788-.078 1.9-.159.502-.643 1.085-1.103 1.327-.412.217-.635.253-1.56.253-1.183 0-1.531-.11-2.08-.66-.544-.543-.66-.902-.66-2.034v-.782l1.73-.012c1.544-.011 1.743-.019 1.855-.081.155-.084.325-.282.365-.424.04-.141.039-7.835-.001-7.976-.042-.152-.262-.392-.417-.457a.932.932 0 0 0-.572-.009m8.053 9.476c-.248.05-.384.134-.7.43a4.54 4.54 0 0 0-.953 1.303c-.246.499-.321.775-.347 1.266-.058 1.093.533 2.006 1.523 2.351.228.08.363.099.684.099.676.001 1.106-.176 1.581-.65.502-.501.706-1.053.666-1.8-.026-.491-.101-.767-.347-1.266a4.552 4.552 0 0 0-.959-1.309c-.409-.384-.739-.506-1.148-.424m.446 1.869c.225.286.439.718.504 1.02.124.574-.211 1.07-.723 1.07-.359 0-.638-.239-.723-.617-.063-.281-.008-.564.186-.963.141-.289.468-.74.537-.74.021 0 .12.103.219.23" fill-rule="evenodd" fill="#000"/></svg>