<svg width="24" height="24" viewBox="0 0 24 24" fill="none" xmlns="http://www.w3.org/2000/svg">
<path d="M12 20.9999C8.58172 20.9999 5 18.4182 5 13.9999C5 12.9205 5.25745 11.725 5.74889 10.5M12 20.9999C12.3329 20.9999 12.6674 20.9754 13 20.9272M12 20.9999C13.0185 20.9999 14.0515 20.7708 15 20.3321M11.5 16.4999C10.1193 16.4999 9 15.3807 9 13.9999M19 13.4999V16.4999M19 16.4999V19.4999M19 16.4999H16M19 16.4999H22M17.8904 9.68261C16.8961 7.61714 15.2608 5.52239 13.0945 3.80397C12.4523 3.29451 11.5477 3.29451 10.9055 3.80397C9.86337 4.63062 8.94414 5.54434 8.16004 6.5" stroke="#001A72" stroke-width="1.5" stroke-linecap="round" stroke-linejoin="round"/>
</svg>
