<svg width="24" height="24" fill="none" xmlns="http://www.w3.org/2000/svg"><path d="M15.096 2.28c-.397.043-.698.138-1.116.352-.297.151-.431.254-.762.586-.334.334-.434.464-.591.771-.325.632-.358.822-.351 2.022.006 1.017.004 1.035-.1 1.336-.075.218-.099.355-.085.48.073.647.928.882 1.324.363.144-.189.3-.691.34-1.097.019-.194.026-.681.015-1.082-.015-.528-.006-.782.031-.92.216-.797.897-1.33 1.699-1.33.786 0 1.455.508 1.684 1.279.044.148.057.35.048.754-.012.55-.012.551.1.699a.967.967 0 0 0 .273.23c.146.074.204.079.636.054.343-.02.53-.014.668.024.797.216 1.33.897 1.33 1.699 0 .787-.508 1.455-1.282 1.685-.145.043-.431.055-1.184.051-.895-.005-1.024.002-1.307.079-.705.189-1.833.893-2.644 1.651-.441.411-.545.678-.4 1.025.129.309.361.462.701.462a.561.561 0 0 0 .4-.122c.097-.067.222-.171.277-.231.295-.319 1.148-.922 1.697-1.2l.316-.16 1.063-.005c1.279-.006 1.477-.039 2.084-.342.37-.184.468-.257.822-.611.354-.354.427-.452.611-.822.255-.51.336-.863.336-1.46s-.081-.95-.336-1.46c-.185-.371-.255-.466-.611-.82-.327-.326-.469-.435-.762-.587-.395-.205-.679-.298-1.04-.343l-.237-.03-.047-.306c-.063-.406-.11-.546-.33-.974-.152-.295-.257-.432-.586-.76-.327-.328-.466-.435-.766-.591a3.342 3.342 0 0 0-1.918-.349m-4.813 7.623c-.075.032-.408.325-.74.65-.823.807-1.317 1.181-2.04 1.547l-.316.16-1.103.006c-1.281.008-1.471.04-2.095.361-.307.157-.437.257-.771.591-.334.334-.434.464-.591.771-.273.532-.353.875-.353 1.511 0 .639.082.988.355 1.514.156.3.263.439.591.766.328.329.465.434.76.586.428.22.568.267.974.33l.306.047.03.237c.045.361.138.645.343 1.04.152.293.261.435.587.762.354.356.449.426.82.611.51.255.863.336 1.46.336s.95-.081 1.46-.336c.37-.184.468-.257.822-.611.354-.354.427-.452.611-.822.303-.607.336-.805.342-2.084l.005-1.063.159-.317c.088-.174.279-.496.425-.716.35-.53.356-.542.356-.784 0-.235-.128-.5-.295-.609a.768.768 0 0 0-.922.055c-.167.147-.63.854-.878 1.338-.318.624-.356.839-.349 1.993.006 1.052-.011 1.185-.196 1.548a2.093 2.093 0 0 1-.284.379 1.726 1.726 0 0 1-2.512 0c-.39-.411-.507-.779-.467-1.459.025-.432.02-.49-.054-.636a.967.967 0 0 0-.23-.273c-.148-.112-.149-.112-.699-.1-.404.009-.606-.004-.754-.048-.771-.229-1.279-.898-1.279-1.684 0-.787.508-1.455 1.283-1.685.145-.043.43-.055 1.183-.051.893.005 1.025-.003 1.307-.079.511-.136 1.222-.526 1.94-1.064.501-.374 1.712-1.544 1.791-1.73.115-.27.035-.672-.172-.859a.81.81 0 0 0-.81-.129" fill-rule="evenodd" fill="#000"/></svg>