<svg width="24" height="24" viewBox="0 0 24 24" fill="none" xmlns="http://www.w3.org/2000/svg">
<path d="M14.1073 12.7213C14.7401 12.0884 15.4685 11.567 16.2614 11.1734C16.9411 10.836 17.7411 11 18.5 11C19.8807 11 21 9.88071 21 8.5C21 7.11929 19.8807 6 18.5 6C18.3061 6 18.1174 6.02207 17.9361 6.06385C17.9779 5.88264 18 5.6939 18 5.5C18 4.11929 16.8807 3 15.5 3C14.1193 3 13 4.11929 13 5.5C13 6.25898 13.1641 7.05919 12.8266 7.739M11.9487 15C11.6523 15.3969 11.3929 15.8192 11.1734 16.2615C10.836 16.9412 11 17.7412 11 18.5C11 19.8807 9.88071 21 8.5 21C7.11929 21 6 19.8807 6 18.5C6 18.3061 6.02207 18.1174 6.06385 17.9362C5.88264 17.9779 5.6939 18 5.5 18C4.11929 18 3 16.8807 3 15.5C3 14.1193 4.11929 13 5.5 13C6.25893 13 7.05907 13.1641 7.73885 12.8267C8.53173 12.4331 9.2601 11.9116 9.89295 11.2788L10.5859 10.5858" stroke="#001A72" stroke-width="1.5" stroke-linecap="round" stroke-linejoin="round"/>
</svg>
