<svg width="24" height="24" viewBox="0 0 24 24" fill="none" xmlns="http://www.w3.org/2000/svg">
<path d="M21 8.5C21 7.11929 19.8807 6 18.5 6C18.3061 6 18.1174 6.02207 17.9361 6.06385C17.9779 5.88264 18 5.6939 18 5.5C18 4.11929 16.8807 3 15.5 3C14.1193 3 13 4.11929 13 5.5C13 6.25898 13.1641 7.05918 12.8266 7.739C12.5834 8.22895 12.2913 8.69428 11.9543 9.12765L12.6847 11.4214L14 11L14.876 12.0431C15.3084 11.7072 15.7726 11.416 16.2614 11.1734C16.9411 10.836 17.7411 11 18.5 11C18.6712 11 18.8384 10.9828 18.9999 10.95M3 15.5C3 16.8807 4.11929 18 5.5 18C5.6939 18 5.88264 17.9779 6.06385 17.9362C6.02207 18.1174 6 18.3061 6 18.5C6 19.8807 7.11929 21 8.5 21C9.88071 21 11 19.8807 11 18.5C11 17.7412 10.836 16.9412 11.1734 16.2615C11.4172 15.7703 11.7102 15.3037 12.0483 14.8694L10 14V13L9.12601 11.9556C8.69306 12.2921 8.22824 12.5837 7.73884 12.8267C7.05907 13.1641 6.25893 13 5.5 13C5.32877 13 5.16156 13.0172 5 13.05" stroke="#001A72" stroke-width="1.5" stroke-linecap="round" stroke-linejoin="round"/>
</svg>
