<svg width="24" height="24" fill="none" xmlns="http://www.w3.org/2000/svg"><path d="M15.096 2.28c-.397.043-.698.138-1.116.352-.297.151-.431.254-.762.586-.334.334-.434.464-.591.771-.321.624-.353.814-.361 2.093l-.006 1.102-.157.318c-.086.174-.32.558-.519.853-.353.522-.363.543-.36.761.003.211.089.505.703 2.398.137.423.397.646.752.646.09 0 .364-.065.611-.145l.448-.145.221.255c.412.477.534.585.718.634.28.076.421.023 1.023-.38.308-.206.686-.435.84-.507l.28-.132 1-.003c1.113-.004 1.33-.025 1.554-.15.412-.23.486-.858.14-1.172-.203-.184-.229-.187-1.513-.184-1.107.002-1.251.011-1.541.087-.321.084-.858.336-1.246.584l-.207.133-.252-.301c-.41-.49-.677-.565-1.272-.358a1.965 1.965 0 0 1-.307.093 22.03 22.03 0 0 1-.376-1.188c0-.021.097-.187.215-.37.318-.488.572-1.009.669-1.371.078-.29.085-.413.08-1.313-.004-.771.008-1.038.054-1.191A1.744 1.744 0 0 1 15.5 3.761c.786 0 1.455.508 1.684 1.279.044.148.057.35.048.754-.012.55-.012.551.1.699a.967.967 0 0 0 .273.23c.146.074.204.079.636.054.536-.032.717.001 1.088.194.535.279.859.809.929 1.522.027.267.087.402.248.554A.667.667 0 0 0 21 9.24a.667.667 0 0 0 .494-.193c.196-.186.242-.316.236-.668-.008-.497-.101-.867-.337-1.339-.185-.371-.255-.466-.611-.82-.327-.326-.469-.435-.762-.587-.395-.205-.679-.298-1.04-.343l-.237-.03-.047-.306c-.063-.406-.11-.546-.33-.974-.152-.295-.257-.432-.586-.76-.327-.328-.466-.435-.766-.591a3.342 3.342 0 0 0-1.918-.349M8.92 11.235c-.055.018-.325.185-.6.372-.275.186-.643.41-.818.496l-.318.157-1.002.003c-1.09.004-1.323.025-1.549.141-.413.21-.494.866-.147 1.181.204.184.229.187 1.513.184 1.104-.003 1.252-.011 1.541-.087.321-.084.858-.336 1.247-.585l.209-.133.117.148c.11.14.118.173.135.608.021.537.099.741.343.893.082.052.405.2.718.33.314.13.57.25.57.267.001.016-.089.193-.2.391-.399.72-.483 1.165-.449 2.388.015.528.006.782-.031.92-.216.797-.897 1.33-1.699 1.33-.789 0-1.455-.508-1.686-1.287-.041-.139-.054-.351-.046-.746.012-.55.012-.551-.1-.699a.967.967 0 0 0-.273-.23c-.146-.074-.204-.079-.636-.054-.681.04-1.048-.077-1.461-.468-.328-.311-.503-.702-.556-1.248-.027-.267-.087-.402-.248-.554A.667.667 0 0 0 3 14.76a.667.667 0 0 0-.494.193c-.203.192-.243.312-.235.707.009.473.122.901.358 1.354.156.3.263.439.591.766.328.329.465.434.76.586.428.22.568.267.974.33l.306.047.03.237c.045.361.138.645.343 1.04.152.293.261.435.587.762.354.356.449.426.82.611.51.255.863.336 1.46.336s.95-.081 1.46-.336c.37-.184.468-.257.822-.611.354-.354.427-.452.611-.822.303-.607.336-.806.342-2.08l.005-1.06.132-.28c.072-.154.301-.532.507-.84.408-.61.461-.754.381-1.042-.081-.288-.248-.401-1.166-.794l-.824-.353-.019-.371c-.015-.286-.039-.403-.104-.506-.16-.254-1.027-1.25-1.15-1.322-.146-.084-.435-.123-.577-.077" fill-rule="evenodd" fill="#000"/></svg>