<svg width="24" height="24" fill="none" xmlns="http://www.w3.org/2000/svg"><path d="M7.617 3.283c-.586.07-1.099.328-1.552.782-.483.482-.715.968-.787 1.648-.027.245-.037 1.691-.03 3.947.013 3.802.004 3.629.207 3.854.136.15.308.219.545.219.237 0 .409-.069.545-.219.203-.225.194-.039.215-4.074.02-3.728.021-3.782.104-3.96.119-.257.424-.542.683-.639.212-.079.302-.081 4.453-.081 4.151 0 4.241.002 4.453.081.259.097.564.382.683.639.078.167.085.27.104 1.46.015.981.033 1.303.075 1.38a.88.88 0 0 0 .345.35c.157.082.525.081.685-.002.153-.08.325-.277.365-.421.017-.059.029-.683.029-1.387-.001-1.083-.012-1.32-.071-1.54a2.828 2.828 0 0 0-1.448-1.781c-.597-.294-.278-.276-5.04-.283-2.354-.004-4.408.008-4.563.027m10.188 8.996a.73.73 0 0 0-.527.544c-.02.087-.037 1.541-.037 3.257l-.001 3.099-2.43-2.427c-1.747-1.745-2.464-2.436-2.55-2.458a1.333 1.333 0 0 0-.26-.03c-.077 0-.194.014-.26.03-.086.022-.802.712-2.547 2.455l-2.428 2.425-.012-1.197c-.011-1.023-.023-1.214-.079-1.317a.89.89 0 0 0-.354-.342c-.14-.072-.514-.064-.665.014-.153.08-.325.277-.365.421-.017.059-.03 1.091-.03 2.294v2.186l.121.172c.066.094.179.205.25.247.139.081.431.106.629.055.086-.023.919-.83 2.93-2.839L12 16.061l2.79 2.785c1.534 1.532 2.835 2.808 2.89 2.836.14.072.515.064.665-.014.153-.08.325-.277.365-.421.039-.14.039-8.354 0-8.494a.833.833 0 0 0-.345-.41.949.949 0 0 0-.56-.064" fill-rule="evenodd" fill="#000"/></svg>