<svg width="24" height="24" fill="none" xmlns="http://www.w3.org/2000/svg"><path d="M11.004 2.284c-1.128.101-2.114.583-2.945 1.442-.415.428-.684.799-.906 1.249l-.128.261-.223.021c-.782.075-1.332.209-1.526.372-.141.119-.274.376-.275.531a.781.781 0 0 0 .586.756c.166.04.235.035.493-.038.224-.062.478-.091 1-.112.393-.016.735-.048.78-.073.159-.09.266-.249.439-.646.231-.532.484-.921.835-1.282.705-.725 1.493-1.037 2.521-.994a3.84 3.84 0 0 1 3.122 1.781c.26.41.396.519.693.554.162.019.243.003.477-.1.402-.177.703-.246 1.066-.246.623 0 1.114.207 1.567.66.453.453.66.944.66 1.567 0 .734-.305 1.349-.903 1.818-.145.114-.295.273-.339.358a.782.782 0 0 0 .117.851c.036.041.246.161.466.267.494.236.796.519 1.001.939.453.923.101 1.978-.843 2.529-.394.23-.554.538-.46.886a.75.75 0 0 0 .778.555c.372-.035 1.046-.494 1.453-.991.258-.313.582-.957.677-1.339.097-.397.096-1.261-.004-1.64a3.6 3.6 0 0 0-.953-1.625l-.278-.275.139-.21a3.782 3.782 0 0 0 .625-2.483 3.19 3.19 0 0 0-.355-1.247c-.407-.84-.958-1.381-1.813-1.78a3.254 3.254 0 0 0-1.175-.316c-.387-.04-.967 0-1.311.09l-.215.057-.278-.328c-.651-.77-1.717-1.422-2.748-1.684-.32-.081-1.186-.19-1.381-.173l-.436.038m.336 3.982c-.784.095-1.512.5-1.918 1.069-.314.44-.366.661-.227.967.149.328.508.509.837.423.239-.064.355-.148.505-.372.349-.518.953-.723 1.511-.514.407.152.664.446.777.889.075.294.055.459-.107.863-.14.349-.148.523-.035.756.099.203.238.312.483.378.476.127.791-.128 1.055-.852.312-.86.069-2.026-.567-2.712-.596-.644-1.498-.993-2.314-.895M2.96 8.277c-.338.103-.481.259-.578.634-.233.901-.127 2.093.266 2.988.449 1.023 1.416 2.008 2.37 2.415l.278.118.053.234c.197.874.787 1.729 1.515 2.195.308.197.494.286.844.403.298.1.368.106 1.532.138 1.83.05 2.408.109 3.08.317.615.19.911.428.997.802.023.1.041.679.042 1.31.001 1.241.012 1.31.235 1.497.36.304.861.231 1.128-.163l.098-.145.012-1.259c.008-.826-.004-1.353-.034-1.534-.091-.541-.476-1.115-.973-1.452-.246-.166-.857-.44-1.185-.53-.789-.218-1.875-.325-3.313-.325-1.195-.001-1.448-.076-1.947-.578-.428-.431-.619-.881-.62-1.465 0-.53.172-.93.556-1.29a2 2 0 0 1 1.295-.506c.205-.001.438-.081.562-.193.299-.27.3-.817.002-1.095-.162-.152-.297-.193-.63-.193-.894 0-1.702.347-2.366 1.016-.306.31-.393.428-.576.791l-.216.427-.224-.152a4.036 4.036 0 0 1-.901-.937c-.457-.714-.598-1.499-.436-2.432.063-.365.063-.398-.002-.568-.137-.359-.528-.57-.864-.468m9.02 4.19c-.407.214-.536.655-.314 1.073.36.68 1.009 1.169 1.807 1.36.222.053.403.066.756.052l.464-.018.302.317c.415.434.677.557 1 .47a.774.774 0 0 0 .49-.419c.155-.342.075-.592-.321-1.001a4.4 4.4 0 0 1-.453-.563c-.199-.312-.299-.394-.559-.459-.157-.04-.214-.031-.554.082-.304.102-.422.123-.603.107-.437-.038-.737-.234-1.043-.682-.112-.163-.21-.256-.326-.309-.202-.091-.484-.096-.646-.01" fill-rule="evenodd" fill="#000"/></svg>