<svg width="24" height="24" fill="none" xmlns="http://www.w3.org/2000/svg"><path d="M8.805 2.279c-.291.071-.506.328-.545.653-.014.114-.019 1.126-.013 2.248.014 2.166.009 2.114.208 2.334.136.149.308.219.545.219.231 0 .357-.046.514-.188.202-.183.223-.277.239-1.052l.015-.728 1.226-.012c1.291-.014 1.308-.016 1.52-.208.15-.136.219-.308.219-.545 0-.237-.069-.409-.219-.545-.212-.192-.229-.194-1.52-.208l-1.226-.012-.015-.728c-.015-.754-.029-.823-.208-1.021-.167-.185-.476-.271-.74-.207m6 0c-.291.071-.506.328-.545.653-.014.114-.019 1.126-.013 2.248.014 2.166.009 2.114.208 2.334.136.149.308.219.545.219.231 0 .357-.046.514-.188.202-.183.223-.277.239-1.055l.015-.73h1.234c1.434 0 1.518.016 1.859.351.352.347.356.365.379 1.829.017 1.091.03 1.298.086 1.4a.89.89 0 0 0 .354.342c.14.072.514.064.665-.014.153-.08.325-.277.365-.421.017-.059.029-.683.029-1.387-.001-1.083-.012-1.32-.071-1.54a2.829 2.829 0 0 0-1.448-1.781c-.516-.254-.62-.268-2.106-.289l-1.347-.019-.014-.725c-.015-.753-.029-.822-.208-1.02-.167-.185-.476-.271-.74-.207M5.617 4.282c-.587.072-1.099.33-1.552.783-.483.482-.715.968-.787 1.648-.028.255-.037 2.498-.029 6.567.012 5.74.017 6.197.082 6.42a2.853 2.853 0 0 0 1.989 1.969c.229.062.47.07 2.04.071.979 0 1.828-.013 1.887-.03.144-.04.341-.212.421-.365.078-.151.086-.525.014-.665a.89.89 0 0 0-.342-.354c-.105-.058-.343-.069-1.9-.086-1.698-.019-1.788-.024-1.96-.104a1.412 1.412 0 0 1-.639-.683c-.079-.211-.081-.304-.081-3.953v-3.737l2.23-.011c2.371-.013 2.303-.007 2.524-.207.15-.136.219-.308.219-.545 0-.237-.069-.409-.219-.545-.221-.2-.153-.194-2.524-.207l-2.23-.011V8.5c0-2 .001-2.005.351-2.361.233-.237.452-.337.841-.385.326-.041.462-.096.593-.24.142-.157.188-.283.188-.514 0-.231-.046-.357-.188-.514-.184-.203-.452-.262-.928-.204m11 8.001c-.585.069-1.099.328-1.552.782-.501.5-.721.977-.794 1.719l-.044.446-.234.024a1.29 1.29 0 0 0-.349.084c-.144.074-.315.275-.354.415-.039.14-.039 5.354 0 5.494.04.142.21.34.365.424.115.064.379.069 3.345.069s3.23-.005 3.345-.069c.155-.084.325-.282.365-.424.039-.14.039-5.354 0-5.494-.039-.14-.21-.341-.354-.415a1.297 1.297 0 0 0-.351-.084l-.237-.025-.029-.364c-.037-.466-.106-.735-.278-1.085-.518-1.053-1.635-1.641-2.844-1.497m.837 1.558c.459.172.786.655.786 1.161v.238h-2.48v-.238c0-.344.12-.63.366-.876a1.236 1.236 0 0 1 1.328-.285M19.24 18.5v1.74h-4.48v-3.48h4.48v1.74" fill-rule="evenodd" fill="#000"/></svg>