<svg width="24" height="24" fill="none" xmlns="http://www.w3.org/2000/svg"><path d="M8.805 2.279c-.291.071-.506.328-.545.653-.014.114-.019 1.126-.013 2.248.014 2.166.009 2.114.208 2.334.136.149.308.219.545.219.231 0 .357-.046.514-.188.202-.183.223-.277.239-1.052l.015-.728 1.226-.012c1.291-.014 1.308-.016 1.52-.208.15-.136.219-.308.219-.545 0-.237-.069-.409-.219-.545-.212-.192-.229-.194-1.52-.208l-1.226-.012-.015-.728c-.015-.754-.029-.823-.208-1.021-.167-.185-.476-.271-.74-.207M5.617 4.282c-.587.072-1.099.33-1.552.783-.483.482-.715.968-.787 1.648-.028.255-.037 2.498-.029 6.567.012 5.74.017 6.197.082 6.42a2.851 2.851 0 0 0 1.989 1.968c.22.059.457.07 1.54.071.704 0 1.328-.012 1.387-.029.144-.04.341-.212.421-.365.078-.151.086-.525.014-.665a.89.89 0 0 0-.342-.354c-.102-.056-.309-.069-1.4-.086-1.19-.019-1.293-.026-1.46-.104a1.412 1.412 0 0 1-.639-.683c-.079-.211-.081-.304-.081-3.954v-3.738l5.23-.01c5.6-.012 5.297 0 5.524-.206.149-.136.219-.308.219-.545a.713.713 0 0 0-.393-.674c-.11-.06-.571-.067-5.35-.077l-5.23-.01V8.501c0-2.001.001-2.006.351-2.362.233-.237.452-.337.841-.385.326-.041.462-.096.593-.24.142-.157.188-.283.188-.514 0-.231-.046-.357-.188-.514-.184-.203-.452-.262-.928-.204m9.188-.004c-.734.183-.72 1.273.018 1.444.086.02.89.037 1.785.037 1.878.001 1.9.005 2.253.352.352.347.356.365.379 1.829.017 1.091.03 1.298.086 1.4a.89.89 0 0 0 .354.342c.14.072.514.064.665-.014.153-.08.325-.277.365-.421.017-.059.029-.683.029-1.387-.001-1.083-.012-1.32-.071-1.54a2.829 2.829 0 0 0-1.448-1.781c-.544-.268-.572-.271-2.52-.283-.968-.006-1.821.004-1.895.022m4.895 9.999a1.217 1.217 0 0 0-.22.08c-.055.029-1.392 1.341-2.97 2.917l-2.87 2.865-1.13-1.127c-.622-.621-1.181-1.147-1.243-1.17a.74.74 0 0 0-.998.698c0 .113.031.263.07.341.093.184 2.712 2.816 2.934 2.948.205.121.52.139.708.039.065-.034 1.571-1.517 3.346-3.295 3.517-3.523 3.316-3.294 3.261-3.7-.052-.385-.503-.688-.888-.596" fill-rule="evenodd" fill="#000"/></svg>