<svg width="24" height="24" fill="none" xmlns="http://www.w3.org/2000/svg"><path d="M8.805 2.279c-.291.071-.506.328-.545.653-.014.114-.019 1.126-.013 2.248.014 2.166.009 2.114.208 2.334.136.149.308.219.545.219.231 0 .357-.046.514-.188.202-.183.223-.277.239-1.052l.015-.728 1.226-.012c1.291-.014 1.308-.016 1.52-.208.15-.136.219-.308.219-.545 0-.237-.069-.409-.219-.545-.212-.192-.229-.194-1.52-.208l-1.226-.012-.015-.728c-.015-.754-.029-.823-.208-1.021-.167-.185-.476-.271-.74-.207m6 0c-.291.071-.506.328-.545.653-.014.114-.019 1.126-.013 2.248.014 2.166.009 2.114.208 2.334.136.149.308.219.545.219.231 0 .357-.046.514-.188.202-.183.223-.277.239-1.055l.015-.73h1.234c1.434 0 1.518.016 1.859.351.352.347.356.365.379 1.829.017 1.091.03 1.298.086 1.4a.89.89 0 0 0 .354.342c.14.072.514.064.665-.014.153-.08.325-.277.365-.421.017-.059.029-.683.029-1.387-.001-1.083-.012-1.32-.071-1.54a2.829 2.829 0 0 0-1.448-1.781c-.516-.254-.62-.268-2.106-.289l-1.347-.019-.014-.725c-.015-.753-.029-.822-.208-1.02-.167-.185-.476-.271-.74-.207M5.617 4.282c-.587.072-1.099.33-1.552.783-.483.482-.715.968-.787 1.648-.028.255-.037 2.498-.029 6.567.012 5.74.017 6.197.082 6.42a2.853 2.853 0 0 0 1.989 1.969c.229.062.47.07 2.04.071.979 0 1.828-.013 1.887-.03.144-.04.341-.212.421-.365.078-.151.086-.525.014-.665a.89.89 0 0 0-.342-.354c-.105-.058-.343-.069-1.9-.086-1.698-.019-1.788-.024-1.96-.104a1.412 1.412 0 0 1-.639-.683c-.079-.211-.081-.304-.081-3.953v-3.737l2.23-.011c2.371-.013 2.303-.007 2.524-.207.15-.136.219-.308.219-.545 0-.237-.069-.409-.219-.545-.221-.2-.153-.194-2.524-.207l-2.23-.011V8.5c0-2 .001-2.005.351-2.361.233-.237.452-.337.841-.385.326-.041.462-.096.593-.24.142-.157.188-.283.188-.514 0-.231-.046-.357-.188-.514-.184-.203-.452-.262-.928-.204m7.283 8.977a1.438 1.438 0 0 1-.147.037c-.138.031-.339.201-.419.355-.069.135-.089.425-.04.609.022.084.497.587 1.588 1.68l1.558 1.561-1.523 1.519c-.837.836-1.551 1.574-1.586 1.64-.082.154-.083.524-.001.68a.849.849 0 0 0 .35.342c.139.072.515.064.66-.013.066-.035.804-.749 1.64-1.586l1.519-1.523 1.561 1.558c1.093 1.091 1.596 1.566 1.68 1.588.182.048.474.03.604-.038a.847.847 0 0 0 .338-.348c.072-.139.064-.515-.013-.66-.035-.066-.749-.804-1.586-1.64l-1.523-1.519 1.558-1.561c1.091-1.093 1.566-1.596 1.588-1.68.138-.525-.166-.98-.662-.993a1.289 1.289 0 0 0-.304.027c-.084.022-.587.497-1.68 1.588l-1.561 1.558-1.519-1.523c-.836-.837-1.565-1.546-1.62-1.575-.105-.055-.392-.107-.46-.083" fill-rule="evenodd" fill="#000"/></svg>