<svg width="24" height="24" fill="none" xmlns="http://www.w3.org/2000/svg"><path d="M8.805 2.279c-.291.071-.506.328-.545.653-.014.114-.019 1.126-.013 2.248.014 2.166.009 2.114.208 2.334.136.149.308.219.545.219.231 0 .357-.046.514-.188.202-.183.223-.277.239-1.052l.015-.728 1.226-.012c1.291-.014 1.308-.016 1.52-.208.15-.136.219-.308.219-.545 0-.237-.069-.409-.219-.545-.212-.192-.229-.194-1.52-.208l-1.226-.012-.015-.728c-.015-.754-.029-.823-.208-1.021-.167-.185-.476-.271-.74-.207m6 0c-.291.071-.506.328-.545.653-.014.114-.019 1.126-.013 2.248.014 2.166.009 2.114.208 2.334.136.149.308.219.545.219.231 0 .357-.046.514-.188.202-.183.223-.277.239-1.055l.015-.73h1.234c1.434 0 1.518.016 1.859.351.352.347.356.365.379 1.829.017 1.091.03 1.298.086 1.4a.89.89 0 0 0 .354.342c.14.072.514.064.665-.014.153-.08.325-.277.365-.421.017-.059.029-.683.029-1.387-.001-1.083-.012-1.32-.071-1.54a2.829 2.829 0 0 0-1.448-1.781c-.516-.254-.62-.268-2.106-.289l-1.347-.019-.014-.725c-.015-.753-.029-.822-.208-1.02-.167-.185-.476-.271-.74-.207M5.617 4.282c-.587.072-1.099.33-1.552.783-.483.482-.715.968-.787 1.648-.028.255-.037 2.498-.029 6.567.012 5.74.017 6.197.082 6.42a2.853 2.853 0 0 0 1.989 1.969c.229.062.47.07 2.04.071.979 0 1.828-.013 1.887-.03.144-.04.341-.212.421-.365.078-.151.086-.525.014-.665a.89.89 0 0 0-.342-.354c-.105-.058-.343-.069-1.9-.086-1.698-.019-1.788-.024-1.96-.104a1.412 1.412 0 0 1-.639-.683c-.079-.211-.081-.304-.081-3.953v-3.737l2.23-.011c2.371-.013 2.303-.007 2.524-.207.15-.136.219-.308.219-.545 0-.237-.069-.409-.219-.545-.221-.2-.153-.194-2.524-.207l-2.23-.011V8.5c0-2 .001-2.005.351-2.361.233-.237.452-.337.841-.385.326-.041.462-.096.593-.24.142-.157.188-.283.188-.514 0-.231-.046-.357-.188-.514-.184-.203-.452-.262-.928-.204m10 6.001c-.585.069-1.099.328-1.552.782-.469.469-.711.961-.783 1.596a2.824 2.824 0 0 0 .363 1.764c.173.29.64.757.93.93.852.51 1.998.51 2.85 0 .29-.173.757-.64.93-.93.495-.827.51-1.982.035-2.792-.569-.971-1.629-1.487-2.773-1.35m.837 1.558c.29.109.596.415.705.705.176.471.068.975-.285 1.328-.781.781-2.114.23-2.114-.874 0-.342.12-.629.366-.874a1.236 1.236 0 0 1 1.328-.285m-2.837 5.441c-.587.072-1.099.33-1.552.783-.486.485-.714.966-.79 1.665-.056.511-.031 1.454.042 1.59.148.279.37.413.683.413.237 0 .409-.069.545-.219.177-.195.191-.268.214-1.074.026-.902.057-1.011.38-1.329.365-.36.296-.351 2.861-.351 2.565 0 2.496-.009 2.861.351.323.318.354.427.38 1.329.015.538.039.811.075.88.08.148.209.28.344.35.157.082.525.081.685-.002.153-.08.325-.277.365-.421.017-.059.029-.458.027-.887-.002-.593-.019-.842-.071-1.04a2.816 2.816 0 0 0-1.446-1.781c-.564-.277-.513-.273-3.04-.283-1.254-.004-2.408.007-2.563.026" fill-rule="evenodd" fill="#000"/></svg>