<svg width="24" height="24" fill="none" xmlns="http://www.w3.org/2000/svg"><path d="M8.805 2.279c-.291.071-.506.328-.545.653-.014.114-.019 1.126-.013 2.248.014 2.166.009 2.114.208 2.334.136.149.308.219.545.219.231 0 .357-.046.514-.188.202-.183.223-.277.239-1.052l.015-.728 1.226-.012c1.291-.014 1.308-.016 1.52-.208.15-.136.219-.308.219-.545 0-.237-.069-.409-.219-.545-.212-.192-.229-.194-1.52-.208l-1.226-.012-.015-.728c-.015-.754-.029-.823-.208-1.021-.167-.185-.476-.271-.74-.207m6 0c-.291.071-.506.328-.545.653-.014.114-.019 1.126-.013 2.248.014 2.166.009 2.114.208 2.334.136.149.308.219.545.219.231 0 .357-.046.514-.188.202-.183.223-.277.239-1.055l.015-.73h1.234c1.434 0 1.518.016 1.859.351.352.347.356.365.379 1.829.017 1.091.03 1.298.086 1.4a.89.89 0 0 0 .354.342c.14.072.514.064.665-.014.153-.08.325-.277.365-.421.017-.059.029-.683.029-1.387-.001-1.083-.012-1.32-.071-1.54a2.829 2.829 0 0 0-1.448-1.781c-.516-.254-.62-.268-2.106-.289l-1.347-.019-.014-.725c-.015-.753-.029-.822-.208-1.02-.167-.185-.476-.271-.74-.207M5.617 4.282c-.587.072-1.099.33-1.552.783-.483.482-.715.968-.787 1.648-.028.255-.037 2.498-.029 6.567.012 5.74.017 6.197.082 6.42a2.853 2.853 0 0 0 1.989 1.969c.229.062.47.07 2.04.071.979 0 1.828-.013 1.887-.03.144-.04.341-.212.421-.365.078-.151.086-.525.014-.665a.89.89 0 0 0-.342-.354c-.105-.058-.343-.069-1.9-.086-1.698-.019-1.788-.024-1.96-.104a1.412 1.412 0 0 1-.639-.683c-.079-.211-.081-.304-.081-3.953v-3.737l2.73-.012c2.909-.012 2.801-.004 3.024-.206.15-.136.219-.308.219-.545 0-.237-.069-.409-.219-.545-.223-.202-.115-.194-3.024-.206l-2.73-.012V8.5c0-2 .001-2.005.351-2.361.233-.237.452-.337.841-.385.326-.041.462-.096.593-.24.142-.157.188-.283.188-.514 0-.231-.046-.357-.188-.514-.184-.203-.452-.262-.928-.204m11.188 7.997a.73.73 0 0 0-.527.544c-.02.086-.037.89-.037 1.785l-.001 1.628-1.73.012c-1.875.013-1.848.01-2.055.238-.142.157-.188.283-.188.514 0 .237.07.409.219.545.218.197.191.194 2.022.207l1.728.012.012 1.728c.013 1.872.01 1.846.238 2.053.157.142.283.188.514.188.231 0 .357-.046.514-.188.228-.207.225-.181.238-2.053l.012-1.728 1.728-.012c1.831-.013 1.804-.01 2.022-.207.15-.136.219-.308.219-.545 0-.237-.069-.409-.219-.545-.218-.197-.191-.194-2.022-.207l-1.728-.012-.012-1.728c-.013-1.831-.01-1.804-.207-2.022-.167-.185-.476-.271-.74-.207" fill-rule="evenodd" fill="#000"/></svg>