<svg width="24" height="24" fill="none" xmlns="http://www.w3.org/2000/svg"><path d="M2.9 2.259a1.438 1.438 0 0 1-.147.037c-.138.031-.339.201-.419.355-.069.134-.089.424-.041.609.023.087 2.508 2.598 9.139 9.233 5.009 5.012 9.162 9.141 9.228 9.176.154.082.524.083.68.001a.847.847 0 0 0 .339-.345c.058-.112.072-.414.028-.585-.023-.087-2.508-2.598-9.139-9.233C7.559 6.495 3.415 2.371 3.36 2.342c-.105-.055-.392-.107-.46-.083M9.805 4.28c-.733.173-.719 1.271.018 1.442.086.02 1.197.037 2.467.037 2.256.001 2.312.003 2.39.081.052.052.08.133.08.232 0 .794.686 1.544 1.51 1.651.149.019.877.035 1.618.036 1.562.001 1.628.013 1.973.352.237.233.337.452.385.841.051.41.156.586.434.73.129.066.511.066.64 0 .313-.162.418-.364.41-.792-.02-1.181-.853-2.229-2.03-2.555-.198-.055-.506-.07-1.774-.085-1.44-.017-1.539-.023-1.61-.094-.048-.048-.076-.132-.076-.228 0-.794-.686-1.544-1.51-1.651-.336-.043-4.74-.041-4.925.003m-7 3.999c-.291.071-.506.328-.545.653-.014.114-.019 2.08-.011 4.368.015 4.625-.002 4.326.29 4.92a2.812 2.812 0 0 0 1.771 1.442c.347.087.876.092 1.03.01.263-.141.393-.364.393-.672 0-.237-.07-.409-.219-.545-.148-.134-.241-.169-.562-.208a2.138 2.138 0 0 1-.476-.116 1.454 1.454 0 0 1-.612-.611c-.083-.178-.084-.22-.104-4.46-.021-4.573-.011-4.348-.215-4.574-.167-.185-.476-.271-.74-.207m18 4c-.291.071-.505.327-.545.653-.014.114-.02.901-.013 1.748.01 1.213.025 1.561.068 1.64a.88.88 0 0 0 .345.35c.157.082.525.081.685-.002.153-.08.325-.277.365-.421.039-.14.039-3.354 0-3.494a.833.833 0 0 0-.345-.41.949.949 0 0 0-.56-.064m-12.04.37c-.181.061-.395.288-.453.482-.062.208.005.674.163 1.134.331.961 1.186 1.848 2.136 2.216.329.128.828.239 1.069.239a.822.822 0 0 0 .528-.227.809.809 0 0 0 .113-.851c-.136-.266-.23-.318-.841-.462a2.16 2.16 0 0 1-1.039-.58c-.386-.382-.541-.675-.665-1.26a1.519 1.519 0 0 0-.154-.424c-.162-.246-.555-.368-.857-.267m.04 5.63c-.382.092-.618.496-.526.898.071.31.317.522.653.563.114.014 1.351.019 2.748.012 2.765-.013 2.653-.004 2.865-.238.142-.157.188-.283.188-.514a.713.713 0 0 0-.393-.674c-.108-.059-.386-.067-2.76-.073-1.452-.003-2.701.008-2.775.026" fill-rule="evenodd" fill="#000"/></svg>