<svg width="24" height="24" fill="none" xmlns="http://www.w3.org/2000/svg"><path d="M9.234 4.28c-.476.061-.989.411-1.247.852a1.915 1.915 0 0 0-.227.796c0 .096-.028.18-.076.228-.071.071-.17.077-1.61.094-1.695.02-1.765.029-2.294.289A2.838 2.838 0 0 0 2.33 8.32c-.065.241-.07.586-.07 4.68 0 4.928-.016 4.621.279 5.22a2.81 2.81 0 0 0 1.771 1.442c.347.087.876.092 1.03.01.263-.141.393-.364.393-.672 0-.231-.046-.357-.188-.514-.131-.144-.267-.199-.593-.24a2.075 2.075 0 0 1-.476-.115 1.387 1.387 0 0 1-.635-.678c-.079-.212-.081-.302-.081-4.453 0-4.16.001-4.241.081-4.454.109-.29.415-.596.705-.705.202-.075.31-.081 1.566-.082.741-.001 1.469-.017 1.618-.036a1.751 1.751 0 0 0 1.51-1.651c0-.099.028-.18.08-.232.078-.078.133-.08 2.68-.08s2.602.002 2.68.08c.052.052.08.133.08.232 0 .794.686 1.544 1.51 1.651.149.019.877.035 1.618.036 1.562.001 1.628.013 1.973.352.237.233.337.452.385.841.051.41.156.586.434.73.129.066.511.066.64 0 .313-.162.418-.364.41-.792-.02-1.181-.853-2.229-2.03-2.555-.198-.055-.506-.07-1.774-.085-1.44-.017-1.539-.023-1.61-.094-.048-.048-.076-.132-.076-.228 0-.794-.686-1.544-1.51-1.651-.322-.041-5.171-.039-5.496.003M11.9 9.26a1.87 1.87 0 0 1-.147.036c-.139.031-.339.201-.421.359-.078.151-.086.525-.014.665.153.295.331.391.812.439.451.045.619.092.93.255.309.162.764.616.927.926a2.325 2.325 0 0 1 0 2.12c-.163.309-.618.764-.927.927a2.325 2.325 0 0 1-2.12 0c-.31-.163-.764-.618-.926-.927-.164-.311-.21-.479-.255-.931-.048-.477-.14-.654-.419-.799-.157-.082-.525-.081-.685.002-.158.082-.328.282-.358.421-.013.059-.031.13-.04.159-.026.084.058.797.125 1.063.086.338.411.993.649 1.306.366.482.817.837 1.421 1.119a3.648 3.648 0 0 0 1.913.317 3.277 3.277 0 0 0 1.183-.317c.855-.399 1.406-.94 1.813-1.78a3.21 3.21 0 0 0 .356-1.255 3.648 3.648 0 0 0-.317-1.913c-.44-.942-1.128-1.585-2.107-1.967-.323-.127-1.243-.275-1.393-.225m8.905 3.019a.73.73 0 0 0-.527.544c-.02.086-.037 1.115-.037 2.285-.001 2.036-.005 2.138-.082 2.345a1.412 1.412 0 0 1-.639.683c-.179.084-.211.084-5.46.104-4.377.017-5.297.029-5.38.075a.88.88 0 0 0-.35.345c-.082.157-.081.525.002.685.08.153.277.325.421.365.059.017 2.483.03 5.387.03 4.915 0 5.298-.005 5.54-.07a2.838 2.838 0 0 0 1.99-1.99c.063-.234.07-.489.07-2.54 0-1.254-.013-2.328-.03-2.387a.833.833 0 0 0-.345-.41.949.949 0 0 0-.56-.064" fill-rule="evenodd" fill="#000"/></svg>