<svg width="24" height="24" fill="none" xmlns="http://www.w3.org/2000/svg"><path d="M14.78 2.869a5.896 5.896 0 0 0-3.129 1.441c-.335.294-.417.433-.417.711 0 .424.306.742.716.745.261.001.357-.044.653-.305.79-.695 1.69-1.074 2.68-1.129 2.05-.113 3.899 1.297 4.366 3.328.109.474.116 1.298.015 1.76-.177.804-.51 1.432-1.11 2.094-.659.728-7.278 7.303-7.574 7.523-.354.265-.975.571-1.44.71-.331.099-.418.108-1.08.11-.669.002-.749-.005-1.12-.109a4.257 4.257 0 0 1-2.432-6.484c.131-.199.681-.781 1.848-1.955l1.661-1.67 1.982 1.976c1.089 1.087 2.044 2.008 2.12 2.046.173.087.503.091.662.008a.89.89 0 0 0 .376-.402.892.892 0 0 0 .001-.534c-.023-.062-.95-1.022-2.06-2.134l-2.019-2.02.304-.3c.166-.164.338-.366.38-.447.14-.271.07-.685-.149-.877a.78.78 0 0 0-.846-.118c-.176.092-5.034 4.955-5.296 5.303a5.776 5.776 0 0 0-1.067 4.64 5.725 5.725 0 0 0 6.1 4.578 5.732 5.732 0 0 0 3.033-1.169c.325-.244 6.876-6.74 7.683-7.617.455-.496.77-.943 1.019-1.448a5.748 5.748 0 0 0-.593-6.063 7.073 7.073 0 0 0-.528-.581c-.885-.871-1.961-1.402-3.239-1.599-.249-.039-1.25-.047-1.5-.012" fill-rule="evenodd" fill="#000"/></svg>