<svg width="24" height="24" viewBox="0 0 24 24" fill="none" xmlns="http://www.w3.org/2000/svg">
<path d="M14 7L14 4L4 4V7V10M10 20H4L4 17V14M13.3916 13.5418L18.8564 15.6514M13.3916 13.5418L12.3368 16.2743C11.7543 17.7833 12.5054 19.4789 14.0144 20.0614C15.5235 20.644 17.2191 19.8929 17.8016 18.3838L18.8564 15.6514M13.3916 13.5418L14.4463 10.8094C15.0289 9.30035 16.7245 8.54925 18.2335 9.13178C19.7426 9.71432 20.4937 11.4099 19.9112 12.919L18.8564 15.6514M7 8V8.00999M11 8V8.00999M11 12V12.01M7 12V12.01M7 16V16.01" stroke="#001A72" stroke-width="1.5" stroke-linecap="round" stroke-linejoin="round"/>
</svg>
