<svg width="24" height="24" viewBox="0 0 24 24" fill="none" xmlns="http://www.w3.org/2000/svg">
<path d="M12 20L4.76786 12.5M4.76786 12.5L4.3314 12.0474C3.47892 11.1633 3 9.96429 3 8.71405C3 6.11055 5.03517 4 7.54569 4C8.75128 4 9.90749 4.49666 10.76 5.38071L12 6.66667L13.24 5.38071C14.0925 4.49666 15.2487 4 16.4543 4C18.9648 4 21 6.11055 21 8.71405C21 9.96429 20.5211 11.1633 19.6686 12.0474L19.2321 12.5M4.76786 12.5H7.99997L8.99997 10.5L11 14.5L11.75 12.875M19.2321 12.5L16 15.8519M19.2321 12.5H16L14 8L13.25 9.625" stroke="#001A72" stroke-width="1.5" stroke-linecap="round" stroke-linejoin="round"/>
</svg>
