<svg width="24" height="24" fill="none" xmlns="http://www.w3.org/2000/svg"><path d="M7.12 3.281C5.023 3.459 3.268 4.852 2.558 6.9c-.391 1.129-.388 2.521.01 3.66a6.49 6.49 0 0 0 .765 1.452c.257.346.369.465 4.737 4.993 1.897 1.968 3.507 3.611 3.577 3.653.197.116.547.103.746-.029a.697.697 0 0 0 .34-.632c0-.184-.021-.265-.103-.385-.056-.084-1.45-1.547-3.096-3.252l-2.993-3.1.839-.02c.504-.012.881-.039.942-.066.158-.071.322-.285.496-.646.087-.18.168-.328.18-.328.013 0 .329.613.702 1.362.419.838.726 1.406.8 1.477a.72.72 0 0 0 1.03-.027c.061-.064.3-.525.53-1.024.358-.773.42-.937.42-1.109a.727.727 0 0 0-.311-.617c-.409-.27-.88-.12-1.12.357l-.08.159-.68-1.359C9.611 10.066 9.5 9.89 9.267 9.803c-.27-.103-.672-.004-.822.203-.036.049-.254.459-.485.911l-.42.823-1.225.011-1.226.01-.21-.23c-.404-.441-.617-.773-.817-1.271-.238-.59-.282-.845-.279-1.6.003-.62.013-.712.112-1.04.413-1.369 1.344-2.325 2.654-2.728.318-.097.412-.108.991-.109.7-.002.874.031 1.465.278.509.213.852.485 1.714 1.364.441.449.859.852.931.895.177.108.523.108.7 0 .072-.043.49-.446.931-.895.862-.879 1.205-1.151 1.714-1.364.591-.247.765-.28 1.465-.278.579.001.673.012.991.109 1.315.404 2.233 1.351 2.656 2.737.097.319.107.413.11 1.031.003.755-.041 1.01-.279 1.6-.2.498-.413.83-.816 1.27l-.21.23h-2.423l-.909-2.05c-.501-1.128-.954-2.109-1.007-2.18-.274-.367-.9-.355-1.167.023-.042.059-.258.504-.481.989-.433.943-.473 1.102-.35 1.389.229.535.988.582 1.306.08l.118-.184.057.136c.032.076.338.766.68 1.534.614 1.378.726 1.577.944 1.677.06.027.437.054.94.066l.84.02-1 1.033c-.55.568-1.043 1.105-1.096 1.193a.746.746 0 0 0 .123.902.892.892 0 0 0 .511.212c.304 0 .391-.075 1.973-1.714 2.78-2.881 2.723-2.816 3.108-3.536 1.115-2.087.79-4.682-.802-6.404-1.019-1.102-2.335-1.675-3.837-1.672-1.009.002-1.806.225-2.7.758-.364.217-.549.373-1.17.985l-.57.562-.57-.562c-.749-.739-.981-.914-1.65-1.248-.76-.378-1.771-.564-2.66-.488" fill-rule="evenodd" fill="#000"/></svg>