<svg width="24" height="24" viewBox="0 0 24 24" fill="none" xmlns="http://www.w3.org/2000/svg">
<path d="M8 11.01V11M16 11.01V11M16 8V7C16 5.93913 15.5786 4.92172 14.8284 4.17157C14.0783 3.42143 13.0609 3 12 3C10.9391 3 9.92172 3.42143 9.17157 4.17157C8.42143 4.92172 8 5.93913 8 7V8H6.84027C5.80009 8 4.93356 8.79732 4.84718 9.83391L4.18051 17.8339C4.08334 18.9999 5.00352 20 6.1736 20H17.8264C18.9965 20 19.9167 18.9999 19.8195 17.8339M16 8H17.1597C18.1999 8 19.0664 8.79732 19.1528 9.83391L19.5 14M16 8H12" stroke="#001A72" stroke-width="1.5" stroke-linecap="round" stroke-linejoin="round"/>
</svg>
