<svg width="24" height="24" fill="none" xmlns="http://www.w3.org/2000/svg"><path d="M1.9 2.258a1.38 1.38 0 0 1-.147.038c-.139.031-.339.201-.421.359-.078.151-.086.525-.014.665a.89.89 0 0 0 .342.354c.1.055.293.069 1.159.086l1.038.02.948 6.634c.521 3.649.959 6.696.973 6.771.044.231.366.534.57.536.162.001.172.051.071.331-.273.75-.183 1.69.226 2.373.173.29.64.757.93.93.852.51 1.998.51 2.85 0 .29-.173.757-.64.93-.93.453-.757.506-1.704.145-2.595-.027-.066.125-.07 2.854-.07 2.799 0 2.889.002 3.1.081.29.109.596.415.705.705A1.246 1.246 0 0 1 17 20.24c-.332 0-.626-.12-.861-.351-.237-.233-.337-.452-.386-.841-.039-.321-.074-.414-.208-.562-.136-.15-.308-.219-.545-.219a.716.716 0 0 0-.683.413c-.071.133-.06.689.021 1.01.235.938 1.037 1.736 1.982 1.975.343.087 1.017.087 1.36 0a2.804 2.804 0 0 0 1.985-1.985c.087-.343.087-1.017 0-1.36a2.81 2.81 0 0 0-1.445-1.781c-.601-.296-.18-.275-5.919-.298l-5.159-.021-.104-.729-.103-.73 5.642-.01c6.044-.012 5.71 0 5.937-.206.15-.136.219-.308.219-.545 0-.237-.069-.409-.219-.545-.227-.206.115-.194-6.041-.206l-5.747-.01-.022-.11c-.012-.06-.347-2.395-.745-5.189-.397-2.794-.74-5.135-.761-5.203-.042-.13-.231-.331-.398-.422-.078-.043-.399-.057-1.48-.063a37.738 37.738 0 0 0-1.42.006M8.805 4.28c-.733.175-.72 1.271.018 1.442.09.021 2.494.036 5.643.037l5.487.001-.856 2.57c-.471 1.414-.857 2.604-.857 2.645 0 .17.107.412.243.548.29.29.745.289 1.038-.004.14-.14.203-.313 1.181-3.243 1.093-3.275 1.111-3.341.967-3.617a.9.9 0 0 0-.155-.204c-.228-.206.147-.195-6.434-.201-3.377-.004-6.201.008-6.275.026m.649 13.561c.29.109.596.415.705.705.176.471.068.975-.285 1.328-.781.781-2.114.23-2.114-.874 0-.342.12-.629.366-.874a1.236 1.236 0 0 1 1.328-.285" fill-rule="evenodd" fill="#000"/></svg>