<svg width="24" height="24" fill="none" xmlns="http://www.w3.org/2000/svg"><path d="M11.544 2.283c-1.969.174-3.645 1.614-4.145 3.561a8.588 8.588 0 0 0-.159 1.3c0 .079-.028.086-.44.112-.536.034-.813.101-1.182.286a2.903 2.903 0 0 0-1.242 1.225c-.221.437-.238.58-.595 4.86-.188 2.248-.341 4.235-.341 4.417 0 1.22.851 2.294 2.08 2.626.239.064.557.07 3.94.07 2.024 0 3.728-.013 3.787-.03.144-.04.341-.212.421-.365.078-.151.086-.525.014-.665a.89.89 0 0 0-.342-.354c-.108-.06-.476-.068-3.82-.086l-3.7-.02-.193-.098c-.346-.177-.632-.562-.686-.923-.017-.11.106-1.768.318-4.314.387-4.626.354-4.405.701-4.758.26-.264.53-.367.96-.367h.316l.012 1.73c.013 1.833.01 1.806.207 2.024.136.15.308.219.545.219.237 0 .409-.069.545-.219.202-.223.194-.105.215-3.214l.02-2.92.132-.38c.186-.535.404-.883.804-1.284.402-.401.75-.619 1.284-.803.366-.126.403-.131 1-.131s.634.005 1 .131c.534.184.882.402 1.284.803.598.599.908 1.282.947 2.092l.02.428-1.735.012c-1.881.013-1.854.01-2.061.238-.142.157-.188.283-.188.514 0 .237.07.409.219.545.218.197.191.194 2.022.207l1.728.012.012 1.728c.013 1.831.01 1.804.207 2.022.136.15.308.219.545.219.237 0 .409-.069.545-.219.197-.218.194-.191.207-2.024l.012-1.73h.313c.512 0 .848.164 1.097.534.076.113.158.269.182.346.065.213.733 8.306.704 8.536-.03.243-.14.462-.34.68-.208.225-.463.345-.833.391-.352.043-.488.11-.663.327-.112.138-.124.181-.124.426s.012.288.124.426c.203.252.343.312.706.304a2.694 2.694 0 0 0 1.704-.674c.598-.542.876-1.118.912-1.896.025-.522-.631-8.472-.73-8.855a2.749 2.749 0 0 0-1.434-1.763c-.369-.185-.646-.252-1.182-.286-.412-.026-.44-.033-.44-.112a8.415 8.415 0 0 0-.16-1.3 4.768 4.768 0 0 0-3.444-3.445c-.244-.062-1.152-.175-1.236-.153-.011.003-.18.019-.376.037" fill-rule="evenodd" fill="#000"/></svg>