<svg width="24" height="24" fill="none" xmlns="http://www.w3.org/2000/svg"><path d="M11.544 2.283c-1.969.174-3.645 1.614-4.145 3.561a8.588 8.588 0 0 0-.159 1.3c0 .079-.028.086-.44.112-.536.034-.813.101-1.182.286a2.903 2.903 0 0 0-1.242 1.225c-.221.437-.238.58-.595 4.86-.188 2.248-.341 4.235-.341 4.417 0 1.22.851 2.294 2.08 2.626.243.065.675.07 6.48.07 5.805 0 6.237-.005 6.48-.07.402-.109.872-.358 1.154-.614.605-.548.875-1.116.915-1.922.02-.407.014-.463-.068-.633-.241-.498-.968-.551-1.271-.093-.085.128-.108.225-.134.55-.034.444-.107.627-.356.898a1.52 1.52 0 0 1-.347.266l-.193.098H5.82l-.193-.098c-.346-.177-.632-.562-.686-.923-.017-.11.106-1.768.318-4.314.384-4.591.356-4.399.684-4.742.316-.33.424-.359 1.417-.384.893-.022.954-.033 1.154-.214.205-.186.221-.265.247-1.245.025-.9.028-.928.154-1.3a3.02 3.02 0 0 1 .801-1.284c.402-.401.75-.619 1.284-.803.366-.126.403-.131 1-.131s.634.005 1 .131c.534.184.882.402 1.284.803.598.599.908 1.282.947 2.092l.02.428-1.735.012c-1.881.013-1.854.01-2.061.238-.142.157-.188.283-.188.514 0 .237.07.409.219.545.222.201.109.194 3.154.215 3.054.021 2.938.013 3.248.226.168.116.403.445.467.654.024.077.125 1.121.225 2.32.1 1.199.2 2.237.223 2.307.092.282.524.532.81.471.298-.064.563-.309.611-.565.038-.201-.328-4.564-.409-4.872a2.749 2.749 0 0 0-1.433-1.759c-.369-.185-.646-.252-1.182-.286-.412-.026-.44-.033-.44-.112a8.415 8.415 0 0 0-.16-1.3 4.768 4.768 0 0 0-3.444-3.445c-.244-.062-1.152-.175-1.236-.153-.011.003-.18.019-.376.037M7.9 10.259a1.438 1.438 0 0 1-.147.037c-.139.031-.339.201-.421.359-.083.16-.084.528-.002.685.124.239.414.42.67.42.256 0 .546-.181.67-.42.076-.146.083-.523.012-.66a.852.852 0 0 0-.322-.339c-.106-.055-.393-.106-.46-.082m8 0a1.438 1.438 0 0 1-.147.037c-.139.031-.339.201-.421.359-.083.16-.084.528-.002.685.124.239.414.42.67.42.256 0 .546-.181.67-.42.076-.146.083-.523.012-.66a.852.852 0 0 0-.322-.339c-.106-.055-.393-.106-.46-.082" fill-rule="evenodd" fill="#000"/></svg>