<svg width="24" height="24" fill="none" xmlns="http://www.w3.org/2000/svg"><path d="M2.805 4.28c-.29.069-.505.326-.545.652-.014.114-.02.901-.013 1.748.014 1.628.013 1.618.208 1.834.136.15.308.219.545.219.237 0 .409-.069.545-.219.192-.212.194-.229.208-1.524l.012-1.23h16.47l.012 1.23c.011 1.054.022 1.247.079 1.35a.89.89 0 0 0 .354.342c.14.072.514.064.665-.014.153-.08.325-.277.365-.421.039-.14.039-3.354 0-3.494-.04-.142-.21-.34-.365-.424-.117-.065-.715-.069-9.265-.075-5.027-.003-9.201.008-9.275.026m.095 5.979a1.438 1.438 0 0 1-.147.037c-.139.031-.339.201-.421.359-.078.151-.086.525-.014.665a.848.848 0 0 0 .34.349c.078.041.311.072.705.094a7.17 7.17 0 0 1 4.755 2.119 7.17 7.17 0 0 1 2.119 4.755c.035.615.07.746.249.908.157.142.283.188.514.188.237 0 .409-.07.545-.219.178-.196.194-.269.183-.814-.047-2.412-1.221-4.835-3.095-6.389-1.289-1.069-2.831-1.756-4.413-1.967-.44-.059-1.244-.11-1.32-.085m17.905 1.02a.73.73 0 0 0-.527.544c-.02.087-.037 1.552-.037 3.286l-.001 3.129-3.23.011c-2.917.01-3.242.017-3.35.077a.89.89 0 0 0-.342.354c-.072.14-.064.514.014.665.08.153.277.325.421.365.14.039 7.354.039 7.494 0 .142-.04.34-.21.424-.365.064-.115.069-.405.069-3.805 0-2.024-.013-3.728-.03-3.787a.833.833 0 0 0-.345-.41.949.949 0 0 0-.56-.064M2.9 14.259a1.438 1.438 0 0 1-.147.037c-.139.031-.339.201-.421.359-.078.151-.086.525-.014.665.158.305.333.394.873.441.236.021.537.066.669.1.865.224 1.705.94 2.101 1.79.159.341.233.652.278 1.159.047.537.131.709.421.86.157.082.525.081.685-.002.158-.082.328-.282.358-.421.013-.059.031-.129.039-.156.031-.101-.066-.954-.142-1.247a4.769 4.769 0 0 0-3.44-3.443 4.37 4.37 0 0 0-.56-.1c-.514-.047-.661-.056-.7-.042m-.18 4.045c-.301.13-.453.363-.453.696-.001.446.287.733.733.733a.712.712 0 0 0 .682-.413c.071-.137.064-.514-.012-.66-.182-.348-.603-.507-.95-.356" fill-rule="evenodd" fill="#000"/></svg>