<svg width="24" height="24" fill="none" xmlns="http://www.w3.org/2000/svg"><path d="M11.9 8.259a1.438 1.438 0 0 1-.147.037c-.138.031-.339.201-.419.355-.069.134-.089.424-.041.609.023.086.778.868 2.639 2.733 1.435 1.437 2.662 2.641 2.728 2.676.154.082.524.083.68.001a.847.847 0 0 0 .339-.345c.058-.112.072-.414.028-.585-.023-.086-.778-.868-2.639-2.733-1.435-1.437-2.653-2.636-2.708-2.665-.106-.055-.392-.107-.46-.083m-2.72 2.567c-.156.081-2.765 2.677-2.849 2.834-.077.145-.084.521-.013.66a.849.849 0 0 0 .342.35c.156.082.526.081.68-.001.166-.088 2.757-2.699 2.836-2.857.127-.254.048-.673-.162-.857-.222-.195-.596-.253-.834-.129" fill-rule="evenodd" fill="#000"/></svg>