<svg width="24" height="24" fill="none" xmlns="http://www.w3.org/2000/svg"><path d="M11.32 2.28c-1.879.127-3.672.802-5.236 1.972-.493.368-1.464 1.339-1.832 1.832a9.794 9.794 0 0 0-1.895 4.524 10.9 10.9 0 0 0 0 2.784 9.794 9.794 0 0 0 1.895 4.524c.368.493 1.339 1.464 1.832 1.832a9.768 9.768 0 0 0 4.524 1.894 10.32 10.32 0 0 0 3.804-.2 9.913 9.913 0 0 0 3.504-1.694c.493-.369 1.463-1.339 1.832-1.832a9.763 9.763 0 0 0 1.894-4.524 10.9 10.9 0 0 0 0-2.784 9.763 9.763 0 0 0-1.894-4.524c-.369-.493-1.339-1.463-1.832-1.832-1.13-.846-2.524-1.495-3.796-1.766a10.872 10.872 0 0 0-2.8-.206m1.86 1.558a8.233 8.233 0 0 1 3.829 1.607c.425.321 1.225 1.121 1.546 1.546a8.266 8.266 0 0 1 .444 9.375 8.679 8.679 0 0 1-2.633 2.633 8.27 8.27 0 0 1-8.732 0 8.679 8.679 0 0 1-2.633-2.633c-1.51-2.435-1.659-5.493-.392-8.023.433-.864.868-1.465 1.568-2.166.879-.878 1.824-1.491 2.948-1.911a8.455 8.455 0 0 1 4.055-.428M6.9 9.259a1.438 1.438 0 0 1-.147.037c-.139.031-.339.201-.421.359-.084.161-.084.529-.001.685.088.166 2.699 2.757 2.857 2.836.244.122.603.065.826-.131.21-.184.289-.603.162-.857-.073-.147-2.665-2.766-2.816-2.846-.105-.055-.392-.107-.46-.083m10 0a1.795 1.795 0 0 1-.16.04c-.09.019-.773.678-2.733 2.633-1.437 1.435-2.641 2.662-2.676 2.728-.082.154-.083.524-.001.68a.849.849 0 0 0 .35.342c.139.071.515.064.66-.013.066-.035 1.293-1.239 2.728-2.676 1.861-1.865 2.616-2.647 2.639-2.733.131-.502-.128-.926-.607-.993a.725.725 0 0 0-.2-.008" fill-rule="evenodd" fill="#000"/></svg>