<svg width="24" height="24" fill="none" xmlns="http://www.w3.org/2000/svg"><path d="M13.9 6.259a1.795 1.795 0 0 1-.16.04c-.088.019-.482.386-1.473 1.374-.744.741-1.388 1.414-1.43 1.495-.14.271-.07.685.149.877.223.196.582.253.826.131.158-.079 2.769-2.67 2.857-2.836.077-.145.084-.521.013-.66a.852.852 0 0 0-.322-.339c-.106-.055-.393-.106-.46-.082m-5 5a1.438 1.438 0 0 1-.147.037c-.138.031-.339.201-.419.355-.069.134-.089.424-.041.609.023.086.778.868 2.639 2.733 1.435 1.437 2.662 2.641 2.728 2.676.154.082.524.083.68.001a.847.847 0 0 0 .339-.345c.058-.112.072-.414.028-.585-.023-.086-.778-.868-2.639-2.733-1.435-1.437-2.653-2.636-2.708-2.665-.106-.055-.392-.107-.46-.083" fill-rule="evenodd" fill="#000"/></svg>