<svg width="24" height="24" fill="none" xmlns="http://www.w3.org/2000/svg"><path d="M3.9 8.259a1.438 1.438 0 0 1-.147.037c-.138.031-.339.201-.419.355-.069.134-.089.424-.041.609.023.086.778.868 2.639 2.733 1.435 1.437 2.662 2.641 2.728 2.676.154.082.524.083.68.001a.847.847 0 0 0 .339-.345c.058-.112.072-.414.028-.585-.023-.086-.778-.868-2.639-2.733C5.633 9.57 4.415 8.371 4.36 8.342c-.106-.055-.392-.107-.46-.083m16 0a1.795 1.795 0 0 1-.16.04c-.091.019-1.121 1.025-4.233 4.133-2.262 2.26-4.141 4.162-4.176 4.228-.082.154-.083.524-.001.68a.849.849 0 0 0 .35.342c.139.071.515.064.66-.013.066-.035 1.968-1.914 4.228-4.176 2.962-2.966 4.116-4.146 4.139-4.233.13-.503-.128-.926-.607-.993a.725.725 0 0 0-.2-.008" fill-rule="evenodd" fill="#000"/></svg>