<svg width="24" height="24" fill="none" xmlns="http://www.w3.org/2000/svg"><path d="M14.9 3.259a1.795 1.795 0 0 1-.16.04c-.09.019-.773.678-2.733 2.633C10.57 7.367 9.366 8.594 9.331 8.66c-.082.154-.083.524-.001.68a.849.849 0 0 0 .35.342c.139.071.515.064.66-.013.066-.035 1.293-1.239 2.728-2.676 1.861-1.865 2.616-2.647 2.639-2.733.131-.502-.128-.926-.607-.993a.725.725 0 0 0-.2-.008m-8 8a1.438 1.438 0 0 1-.147.037c-.138.031-.339.201-.419.355-.069.134-.089.424-.041.609.023.087 1.177 1.267 4.139 4.233 2.26 2.262 4.162 4.141 4.228 4.176.154.082.524.083.68.001a.847.847 0 0 0 .339-.345c.058-.112.072-.414.028-.585-.023-.087-1.177-1.267-4.139-4.233-2.26-2.262-4.153-4.136-4.208-4.165-.105-.055-.392-.107-.46-.083" fill-rule="evenodd" fill="#000"/></svg>