<svg width="24" height="24" fill="none" xmlns="http://www.w3.org/2000/svg"><path d="M6.9 9.259a1.438 1.438 0 0 1-.147.037c-.139.031-.339.201-.421.359-.084.161-.084.529-.001.685.088.166 2.699 2.757 2.857 2.836.244.122.603.065.826-.131.21-.184.289-.603.162-.857-.073-.147-2.665-2.766-2.816-2.846-.105-.055-.392-.107-.46-.083m10 0a1.795 1.795 0 0 1-.16.04c-.09.019-.773.678-2.733 2.633-1.437 1.435-2.641 2.662-2.676 2.728-.082.154-.083.524-.001.68a.849.849 0 0 0 .35.342c.139.071.515.064.66-.013.066-.035 1.293-1.239 2.728-2.676 1.861-1.865 2.616-2.647 2.639-2.733.131-.502-.128-.926-.607-.993a.725.725 0 0 0-.2-.008" fill-rule="evenodd" fill="#000"/></svg>