<svg width="24" height="24" fill="none" xmlns="http://www.w3.org/2000/svg"><path d="M11.32 2.28c-1.876.126-3.672.802-5.236 1.972-.493.368-1.464 1.339-1.832 1.832a9.794 9.794 0 0 0-1.895 4.524 10.9 10.9 0 0 0 0 2.784 9.794 9.794 0 0 0 1.895 4.524c.368.493 1.339 1.464 1.832 1.832a9.768 9.768 0 0 0 4.524 1.894 10.32 10.32 0 0 0 3.804-.2 9.913 9.913 0 0 0 3.504-1.694c.493-.369 1.463-1.339 1.832-1.832 1.247-1.665 1.944-3.634 1.98-5.596.011-.58-.015-.684-.214-.865-.157-.142-.283-.188-.514-.188a.713.713 0 0 0-.68.41c-.027.053-.064.358-.082.681-.085 1.511-.476 2.777-1.239 4.008a8.679 8.679 0 0 1-2.633 2.633 8.27 8.27 0 0 1-8.732 0 8.679 8.679 0 0 1-2.633-2.633A8.12 8.12 0 0 1 3.76 12a8.12 8.12 0 0 1 1.241-4.366 8.679 8.679 0 0 1 2.633-2.633c2.431-1.507 5.463-1.659 7.999-.399.986.489 1.635.976 2.451 1.837.312.331.576.574.647.599.3.104.611.024.818-.212.246-.28.259-.598.037-.936-.197-.301-1.244-1.324-1.712-1.672A9.854 9.854 0 0 0 11.32 2.28" fill-rule="evenodd" fill="#000"/></svg>