<svg width="24" height="24" fill="none" xmlns="http://www.w3.org/2000/svg"><path d="M11.32 2.279c-1.887.131-3.672.804-5.236 1.973-.493.368-1.464 1.339-1.832 1.832a9.794 9.794 0 0 0-1.895 4.524 10.9 10.9 0 0 0 0 2.784 9.794 9.794 0 0 0 1.895 4.524c.368.493 1.339 1.464 1.832 1.832a9.768 9.768 0 0 0 4.524 1.894 10.32 10.32 0 0 0 3.804-.2 9.913 9.913 0 0 0 3.504-1.694c.493-.369 1.463-1.339 1.832-1.832 1.439-1.922 2.109-4.137 1.969-6.516a9.412 9.412 0 0 0-1.386-4.456c-.282-.46-.316-.499-.511-.589a.769.769 0 0 0-.64 0 .61.61 0 0 0-.358.375c-.128.304-.076.516.247 1.022.234.365.632 1.232.785 1.71.271.845.385 1.602.386 2.546a8.17 8.17 0 0 1-1.685 5.001c-.321.425-1.121 1.225-1.546 1.546a8.266 8.266 0 0 1-9.375.444 8.679 8.679 0 0 1-2.633-2.633c-1.51-2.435-1.659-5.493-.392-8.023.433-.864.868-1.465 1.568-2.166 1.502-1.501 3.309-2.3 5.464-2.415.61-.032.741-.069.904-.248.142-.157.188-.283.188-.514 0-.231-.046-.357-.188-.514-.198-.218-.449-.261-1.225-.207m.485 5c-.291.071-.506.328-.545.653-.014.114-.019 1.126-.013 2.248.01 1.633.024 2.06.068 2.14.08.147 2.204 2.275 2.345 2.349.145.077.522.084.66.013a.849.849 0 0 0 .35-.342c.076-.145.083-.522.012-.66-.028-.055-.471-.523-.985-1.04l-.934-.94-.012-1.96c-.012-2.081-.008-2.035-.206-2.254-.167-.185-.476-.271-.74-.207" fill-rule="evenodd" fill="#000"/></svg>