<svg width="24" height="24" fill="none" xmlns="http://www.w3.org/2000/svg"><path d="M11.805 4.281c-.379.087-.618.493-.526.896.089.391.389.58.927.582.254.001.797.096 1.071.188 1.341.448 2.357 1.47 2.777 2.793.135.424.154.589.181 1.52.03 1.023.045 1.098.251 1.285.157.142.283.188.514.188.308 0 .532-.131.671-.393.132-.248.099-1.812-.053-2.54-.485-2.31-2.422-4.131-4.758-4.474-.405-.06-.899-.081-1.055-.045m-3.99 1.996c-.208.051-.361.19-.591.536-.599.899-.863 1.699-.95 2.872l-.046.625-.224.049a4.795 4.795 0 0 0-3.605 3.486c-.172.672-.172 1.638 0 2.31A4.77 4.77 0 0 0 5.844 19.6c.293.076 1.146.173 1.247.142.027-.008.097-.026.156-.039.139-.03.339-.2.421-.358.078-.151.086-.525.014-.665-.158-.305-.333-.394-.873-.441-.713-.063-1.169-.221-1.669-.577-.306-.219-.756-.698-.934-.996-.602-1.005-.602-2.31 0-3.337.173-.295.828-.95 1.123-1.123.576-.338 1.121-.467 1.831-.434.738.034 1.236.215 1.832.666.183.138.399.267.48.285a.744.744 0 0 0 .887-.928c-.134-.505-1.445-1.287-2.435-1.454l-.175-.03.022-.525c.036-.833.228-1.421.707-2.16.239-.368.255-.409.255-.624 0-.171-.024-.27-.091-.379a.785.785 0 0 0-.827-.346m11.626 5.009c-.326.096-.521.361-.521.71 0 .287.043.367.396.742.596.633.88 1.286.914 2.102.04.959-.216 1.669-.846 2.348-.449.482-.97.808-1.524.951a5.34 5.34 0 0 1-.669.1c-.54.047-.715.136-.873.441-.072.14-.064.514.014.665.082.158.282.328.421.358.059.013.129.031.156.039.101.031.953-.066 1.247-.141a4.797 4.797 0 0 0 3.284-2.928c.331-.861.384-1.937.142-2.889a5.489 5.489 0 0 0-.656-1.455c-.198-.292-.779-.913-.923-.987a.886.886 0 0 0-.562-.056" fill-rule="evenodd" fill="#000"/></svg>