<svg width="24" height="24" fill="none" xmlns="http://www.w3.org/2000/svg"><path d="M5.595 2.282a3.765 3.765 0 0 0-2.564 1.437c-.238.313-.563.968-.649 1.306a4.242 4.242 0 0 0-.099 1.34c.053.514.133.796.356 1.255.407.84.958 1.381 1.813 1.78.642.3 1.076.358 2.678.359l1.11.001v4.48l-1.11.001c-1.658.001-2.049.057-2.75.398-.84.407-1.381.958-1.78 1.813a3.648 3.648 0 0 0-.317 1.913c.049.481.131.785.317 1.183.399.855.94 1.406 1.78 1.813a3.564 3.564 0 0 0 1.985.356 3.21 3.21 0 0 0 1.255-.356c.84-.407 1.381-.958 1.78-1.813.3-.642.358-1.076.359-2.675l.001-1.108 1.23-.012c1.326-.014 1.355-.018 1.555-.239.142-.157.188-.283.188-.514 0-.231-.046-.357-.188-.514-.2-.221-.229-.225-1.555-.239l-1.23-.012V9.76h4.48l.001 4.11c0 2.419.017 4.264.04 4.485.052.493.132.794.319 1.193.399.855.94 1.406 1.78 1.813a3.564 3.564 0 0 0 1.985.356 3.21 3.21 0 0 0 1.255-.356c.84-.407 1.381-.958 1.78-1.813.186-.398.268-.702.317-1.183a3.648 3.648 0 0 0-.317-1.913c-.399-.855-.94-1.406-1.78-1.813-.701-.341-1.092-.397-2.75-.398l-1.11-.001V9.956c0-4.728-.011-4.515.253-5.016.163-.309.618-.764.927-.927a2.325 2.325 0 0 1 2.12 0c.309.163.764.618.927.927a2.325 2.325 0 0 1 0 2.12c-.163.31-.618.764-.927.926-.311.164-.479.21-.931.255-.477.048-.654.14-.799.419-.082.157-.081.525.002.685.082.158.282.328.421.358.059.013.13.031.159.04.084.026.797-.058 1.063-.125.338-.086.993-.411 1.306-.649.482-.366.837-.817 1.119-1.421a3.648 3.648 0 0 0 .317-1.913 3.277 3.277 0 0 0-.317-1.183c-.399-.855-.94-1.406-1.78-1.813a3.21 3.21 0 0 0-1.255-.356 3.648 3.648 0 0 0-1.913.317c-.855.399-1.406.94-1.813 1.78-.341.701-.397 1.092-.398 2.75l-.001 1.11H9.956c-4.728 0-4.515.011-5.016-.253-.309-.163-.764-.618-.927-.927a2.325 2.325 0 0 1 0-2.12c.163-.309.618-.764.927-.927a2.325 2.325 0 0 1 2.12 0c.31.163.764.618.926.927.164.311.21.479.255.931.048.477.14.654.419.799.157.082.525.081.685-.002.158-.082.328-.282.358-.421.013-.059.031-.13.04-.159.026-.085-.059-.799-.126-1.063-.078-.301-.319-.824-.52-1.126-.52-.784-1.414-1.382-2.324-1.555a3.993 3.993 0 0 0-1.178-.062M8.24 17.044c0 1.421-.019 1.571-.253 2.016a2.716 2.716 0 0 1-.407.52c-.456.456-.944.66-1.58.66-.636 0-1.124-.204-1.58-.66-.456-.456-.66-.944-.66-1.58 0-.636.204-1.124.66-1.58.306-.306.59-.479.96-.585.204-.059.435-.07 1.55-.072l1.31-.003v1.284m10.334-1.221c.376.097.697.287 1.006.597.456.456.66.944.66 1.58 0 .636-.204 1.124-.66 1.58-.456.456-.944.66-1.58.66-.636 0-1.124-.204-1.58-.66a2.716 2.716 0 0 1-.407-.52c-.234-.445-.253-.595-.253-2.016V15.76h1.284c1.042 0 1.331.012 1.53.063" fill-rule="evenodd" fill="#000"/></svg>