<svg width="24" height="24" fill="none" xmlns="http://www.w3.org/2000/svg"><path d="M4.617 5.283c-.585.069-1.099.328-1.552.782-.482.482-.714.967-.788 1.648-.027.252-.037 1.851-.028 4.567.015 4.647-.003 4.345.29 4.94a2.828 2.828 0 0 0 1.781 1.448c.22.059.457.07 1.54.071.704 0 1.328-.012 1.387-.029.144-.04.341-.212.421-.365.078-.151.086-.525.014-.665a.89.89 0 0 0-.342-.354c-.102-.056-.309-.069-1.4-.086-1.19-.019-1.293-.026-1.46-.104a1.412 1.412 0 0 1-.639-.683c-.078-.209-.081-.306-.081-2.955V10.76h16.48v2.738c0 2.649-.003 2.746-.081 2.955a1.412 1.412 0 0 1-.639.683c-.178.083-.232.084-3.96.104-3.419.018-3.791.026-3.9.086a.89.89 0 0 0-.342.354c-.072.14-.064.514.014.665.08.153.277.325.421.365.059.017 1.808.03 3.887.03 3.483 0 3.8-.006 4.04-.07a2.838 2.838 0 0 0 1.99-1.99c.065-.241.07-.586.07-4.68 0-4.094-.005-4.439-.07-4.68a2.837 2.837 0 0 0-1.45-1.781c-.526-.259-.653-.276-2.08-.278-.704 0-1.328.012-1.387.029-.144.04-.341.212-.421.365-.083.16-.084.528-.002.685.07.134.2.263.35.345.077.042.399.06 1.38.075 1.464.023 1.482.027 1.829.379.307.312.351.483.351 1.363v.738H3.76v-.738c0-.643.01-.767.081-.955.097-.259.382-.564.639-.683.178-.083.232-.084 3.96-.104 3.419-.018 3.791-.026 3.9-.086A.713.713 0 0 0 12.733 6a.713.713 0 0 0-.393-.674c-.109-.06-.456-.066-3.78-.071-2.013-.003-3.788.009-3.943.028m1.188 8.996c-.382.093-.618.496-.526.898.071.31.317.522.653.563.114.014 1.126.019 2.248.013 2.166-.014 2.114-.009 2.334-.208.15-.136.219-.308.219-.545 0-.237-.069-.409-.219-.545-.221-.2-.158-.195-2.434-.202-1.177-.003-2.201.008-2.275.026" fill-rule="evenodd" fill="#000"/></svg>