<svg width="24" height="24" fill="none" xmlns="http://www.w3.org/2000/svg"><path d="M11.66 3.281c-.697.094-1.342.567-1.663 1.219a2.18 2.18 0 0 0 0 2c.149.302.455.664.713.842.05.035.09.082.09.105 0 .023-.654 1.071-1.454 2.328-.8 1.257-1.484 2.343-1.52 2.413-.124.241-.068.602.129.826.276.315.881.283 1.133-.06.055-.074.725-1.119 1.49-2.324.765-1.205 1.404-2.19 1.421-2.19.016 0 .32.458.676 1.017.356.56.702 1.064.768 1.119.467.393 1.197.044 1.197-.572a.876.876 0 0 0-.057-.319c-.032-.06-.363-.59-.737-1.175l-.679-1.066.174-.143c.325-.266.501-.48.661-.801.52-1.048.18-2.255-.82-2.907-.405-.264-.991-.384-1.522-.312m-9 1c-.697.094-1.342.567-1.663 1.219a2.05 2.05 0 0 0-.237 1c0 .903.535 1.708 1.383 2.083.119.053.217.105.217.117 0 .012.433 2.617.962 5.791 1.056 6.341.973 5.947 1.305 6.154l.153.095h3.68c2.024 0 3.728-.013 3.787-.03.144-.04.341-.212.421-.365.078-.151.086-.525.014-.665a.89.89 0 0 0-.342-.354c-.108-.06-.437-.067-3.41-.077l-3.289-.011-.021-.089c-.056-.246-1.54-9.243-1.526-9.256.009-.009.328.24.71.553.382.313.767.61.855.661.399.228.939-.013 1.063-.474.058-.214-.013-.514-.156-.664a31.087 31.087 0 0 0-1.074-.901c-.533-.435-.98-.809-.994-.831-.013-.022.059-.125.161-.229.217-.221.485-.736.541-1.043a2.271 2.271 0 0 0-1.018-2.372c-.405-.264-.991-.384-1.522-.312m18 0c-.697.094-1.342.567-1.663 1.219a2.173 2.173 0 0 0 .001 2c.089.179.24.403.343.508.102.104.174.207.161.229-.014.022-1.051.879-2.304 1.905-1.747 1.429-2.298 1.901-2.359 2.02-.142.279-.074.685.148.886.194.176.575.243.801.142.061-.028 1.009-.784 2.107-1.681 1.098-.898 2.003-1.625 2.011-1.616.014.013-1.47 9.012-1.526 9.253-.019.085-.039.087-.81.101-.638.011-.813.027-.91.08a.88.88 0 0 0-.342.353c-.072.14-.064.514.014.665.08.153.277.325.421.365.059.017.639.03 1.29.03h1.183l.162-.107a.964.964 0 0 0 .246-.243c.067-.109.269-1.247 1.045-5.902.528-3.172.961-5.776.961-5.788 0-.012.098-.064.217-.117A2.33 2.33 0 0 0 23.003 7.5c.518-1.052.178-2.256-.821-2.907-.405-.264-.991-.384-1.522-.312m-8.393.522c.249.093.491.438.491.697 0 .161-.122.416-.263.547-.375.351-.954.22-1.179-.267a.6.6 0 0 1 0-.564c.171-.377.579-.554.951-.413m-9 1c.249.093.491.438.491.697a.823.823 0 0 1-.074.28c-.286.619-1.082.619-1.368 0a.6.6 0 0 1 0-.564c.171-.377.579-.554.951-.413m18 0c.249.093.491.438.491.697 0 .161-.122.416-.263.547-.375.351-.954.22-1.179-.267a.6.6 0 0 1 0-.564c.171-.377.579-.554.951-.413" fill-rule="evenodd" fill="#000"/></svg>