<svg width="24" height="24" viewBox="0 0 24 24" fill="none" xmlns="http://www.w3.org/2000/svg">
<path d="M21 8L19 20H17M21 8L15.5 12.5M21 8C21.8284 8 22.5 7.32843 22.5 6.5C22.5 5.67157 21.8284 5 21 5C20.1716 5 19.5 5.67157 19.5 6.5C19.5 7.32843 20.1716 8 21 8ZM12 7L8.5 12.5M12 7L13.9091 10M12 7C12.8284 7 13.5 6.32843 13.5 5.5C13.5 4.67157 12.8284 4 12 4C11.1716 4 10.5 4.67157 10.5 5.5C10.5 6.32843 11.1716 7 12 7ZM3 8L5 20H12M3 8L6 10.4545M3 8C3.82843 8 4.5 7.32843 4.5 6.5C4.5 5.67157 3.82843 5 3 5C2.17157 5 1.5 5.67157 1.5 6.5C1.5 7.32843 2.17157 8 3 8Z" stroke="#001A72" stroke-width="1.5" stroke-linecap="round" stroke-linejoin="round"/>
</svg>
