<svg width="24" height="24" fill="none" xmlns="http://www.w3.org/2000/svg"><path d="M7.805 5.28c-.733.173-.719 1.271.018 1.442.09.021 2.525.036 5.721.037 5.338.001 5.566.004 5.63.074.061.067.066.484.066 5.174 0 4.891-.003 5.103-.073 5.167-.067.061-.504.066-5.47.066H8.3l-2.62-2.62-2.619-2.619 1.307-1.311c.907-.909 1.316-1.347 1.338-1.43.138-.525-.166-.98-.662-.993a1.289 1.289 0 0 0-.304.027c-.084.022-.602.512-1.733 1.639-.887.884-1.641 1.661-1.676 1.727-.083.156-.083.525 0 .68.075.142 6.203 6.266 6.349 6.346.083.045 1.067.056 5.66.066 3.722.007 5.666-.003 5.88-.031.414-.054.695-.195 1-.501.292-.291.445-.587.498-.96.055-.38.055-10.14 0-10.52-.053-.373-.206-.669-.498-.96-.291-.292-.587-.445-.96-.498-.337-.049-11.251-.05-11.455-.002M9.9 8.259a1.438 1.438 0 0 1-.147.037c-.138.031-.339.201-.419.355-.069.135-.089.425-.04.609.022.083.431.521 1.338 1.43L11.938 12l-1.306 1.31c-.907.909-1.316 1.347-1.338 1.43-.138.524.166.98.661.993.102.003.239-.009.305-.027.083-.022.521-.431 1.43-1.338L13 13.062l1.31 1.306c.909.907 1.347 1.316 1.43 1.338.525.138.98-.166.993-.662a1.289 1.289 0 0 0-.027-.304c-.022-.083-.431-.521-1.338-1.43L14.062 12l1.306-1.31c.907-.909 1.316-1.347 1.338-1.43.138-.525-.166-.98-.662-.993a1.289 1.289 0 0 0-.304.027c-.083.022-.521.431-1.43 1.338l-1.311 1.307-1.289-1.285c-.71-.707-1.326-1.303-1.37-1.325-.092-.045-.38-.091-.44-.07" fill-rule="evenodd" fill="#000"/></svg>