<svg width="24" height="24" fill="none" xmlns="http://www.w3.org/2000/svg"><path d="M3.805 3.28c-.291.069-.506.327-.544.652-.014.114-.02 2.476-.013 5.248.013 5.395.002 5.107.207 5.334.209.23.159.225 2.268.238l1.943.012 2.563 2.99c1.555 1.814 2.647 3.055 2.777 3.155.516.397 1.07.582 1.734.579.792-.004 1.375-.246 1.941-.808.63-.625.905-1.403.799-2.258-.075-.602-.174-.797-1.165-2.288l-.909-1.368 1.787-.017c1.983-.019 2.049-.026 2.577-.291a2.77 2.77 0 0 0 1.455-1.804c.145-.598.122-.765-.58-4.262-.497-2.469-.668-3.254-.763-3.48-.313-.749-1.04-1.37-1.843-1.575-.318-.082-.864-.093-.999-.021-.28.15-.413.371-.413.684 0 .237.069.409.219.545.148.134.241.169.562.208.164.021.381.074.482.118.231.102.495.366.596.593.106.239 1.314 6.291 1.314 6.582 0 .295-.107.54-.349.8-.366.394-.183.371-3.118.394l-2.566.02-.172.121c-.24.168-.328.337-.328.624v.235l1.263 1.894c.694 1.042 1.303 1.973 1.352 2.069.182.358.145.882-.09 1.249-.391.612-1.351.733-1.899.238-.091-.082-1.346-1.529-2.788-3.215-1.947-2.275-2.661-3.084-2.774-3.14-.139-.069-.281-.076-1.861-.087l-1.71-.011V4.76H7.237l.012 2.73c.01 2.452.018 2.742.077 2.85a.713.713 0 0 0 .674.393c.231 0 .357-.046.514-.188.235-.213.225-.081.237-3.053l.012-2.728 1.728-.012c1.874-.013 1.847-.01 2.054-.238.142-.157.188-.283.188-.514a.713.713 0 0 0-.393-.674c-.109-.06-.49-.067-4.26-.072-2.277-.004-4.201.008-4.275.026" fill-rule="evenodd" fill="#000"/></svg>