<svg width="24" height="24" viewBox="0 0 24 24" fill="none" xmlns="http://www.w3.org/2000/svg">
<path d="M20.6777 15.0208L19.2635 16.4351M20.6777 15.0208L17.8492 12.1924M20.6777 15.0208L21.3848 15.7279M16.435 19.2635L15.0208 20.6777M15.0208 20.6777L12.1924 17.8492C10.6303 16.2871 10.6303 13.7545 12.1924 12.1924M15.0208 20.6777L15.7279 21.3848M15.0208 15.0208L17.8492 12.1924M17.8492 12.1924C16.2871 10.6303 13.7545 10.6303 12.1924 12.1924M12.1924 6.53555L10.7782 7.94976M12.1924 6.53555C13.7545 8.09765 13.7545 10.6303 12.1924 12.1924M12.1924 6.53555L8.65685 3M7.94986 10.7782L6.53564 12.1924M6.53564 12.1924C8.09774 13.7545 10.6303 13.7545 12.1924 12.1924M6.53564 12.1924L3.70709 9.36395M6.53552 6.53552L3.70709 9.36395M3.70709 9.36395L3 8.65685" stroke="#001A72" stroke-width="1.5" stroke-linecap="round" stroke-linejoin="round"/>
</svg>
