<svg width="24" height="24" fill="none" xmlns="http://www.w3.org/2000/svg"><path d="M4.805 2.28c-.29.069-.505.326-.546.652-.014.114-.019.676-.012 1.248.014 1.118.023 1.169.239 1.365.157.142.283.188.514.188.231 0 .357-.046.514-.188.202-.183.223-.277.239-1.055l.015-.73h6.472v1.617c0 1.69.027 2.077.17 2.46a3.115 3.115 0 0 0 1.753 1.753c.383.143.77.17 2.457.17h1.615l.012 1.23c.011 1.054.022 1.247.079 1.35a.89.89 0 0 0 .354.342c.14.072.514.064.665-.014.153-.08.325-.277.365-.421.041-.145.038-4.356-.003-4.507-.023-.085-.798-.887-2.62-2.712-1.423-1.426-2.65-2.632-2.727-2.68l-.14-.088-4.64-.006c-2.552-.004-4.701.008-4.775.026m11.67 5.95-1.686.011-.207-.095c-.262-.12-.604-.46-.727-.723l-.094-.203-.001-1.7v-1.7l2.2 2.2 2.2 2.2-1.685.01M4.805 9.279c-.291.071-.506.328-.544.653-.014.114-.02 2.701-.013 5.748.011 5.143.017 5.549.081 5.665.084.155.282.325.424.365.14.039 14.354.039 14.494 0 .142-.04.34-.21.424-.365.063-.115.069-.349.069-2.805 0-1.474-.013-2.728-.03-2.787-.04-.144-.212-.341-.365-.421-.151-.078-.525-.086-.665-.014a.89.89 0 0 0-.354.342c-.059.107-.067.364-.078 2.35l-.011 2.23H5.761l-.01-5.23c-.012-5.6 0-5.297-.206-5.524-.167-.185-.476-.271-.74-.207m7 1a.73.73 0 0 0-.527.544c-.02.086-.037.664-.037 1.284l-.001 1.128-1.23.012c-1.326.014-1.355.018-1.555.239-.142.157-.188.283-.188.514 0 .231.046.357.188.514.2.22.229.225 1.552.239l1.228.012.012 1.228c.014 1.323.019 1.352.239 1.552.157.142.283.188.514.188.231 0 .357-.046.514-.188.22-.2.225-.229.239-1.552l.012-1.228 1.228-.012c1.292-.014 1.309-.016 1.521-.208.15-.136.219-.308.219-.545 0-.237-.069-.409-.219-.545-.212-.192-.229-.194-1.521-.208l-1.228-.012-.012-1.228c-.014-1.292-.016-1.309-.208-1.521-.167-.185-.476-.271-.74-.207" fill-rule="evenodd" fill="#000"/></svg>