<svg width="24" height="24" fill="none" xmlns="http://www.w3.org/2000/svg"><path d="M11.805 2.279a.73.73 0 0 0-.527.544c-.021.09-.036 2.339-.037 5.256l-.001 5.1-1.43-1.427c-.998-.995-1.466-1.436-1.55-1.458-.545-.143-.993.175-.993.706 0 .124.028.272.064.34.035.066 1.014 1.068 2.176 2.228 1.498 1.494 2.148 2.116 2.233 2.138.198.052.49.027.629-.054.071-.042.184-.153.25-.247l.121-.172V9.047c0-3.403-.013-6.235-.03-6.294a.833.833 0 0 0-.345-.41.949.949 0 0 0-.56-.064m4.095 7.98a2.108 2.108 0 0 1-.16.041c-.136.03-1.302 1.155-1.41 1.36-.081.154-.081.525 0 .68a.849.849 0 0 0 .35.342c.128.066.511.066.64 0 .141-.072 1.272-1.197 1.349-1.342.077-.145.084-.522.013-.66a.852.852 0 0 0-.322-.339c-.106-.055-.393-.106-.46-.082m-12.095 4.02c-.292.071-.505.327-.546.656-.015.117-.019.957-.009 1.868.019 1.831.025 1.881.289 2.417a2.812 2.812 0 0 0 1.771 1.442c.321.081.877.092 1.01.021A.716.716 0 0 0 6.733 20c0-.231-.046-.357-.188-.514-.131-.144-.267-.199-.593-.24-.38-.047-.606-.148-.828-.37-.35-.349-.341-.296-.364-2.316-.021-1.883-.018-1.857-.215-2.074-.167-.185-.476-.271-.74-.207m16 0a.73.73 0 0 0-.527.544c-.02.086-.037.89-.037 1.785-.001 1.534-.006 1.642-.082 1.845a1.412 1.412 0 0 1-.639.683c-.178.083-.225.084-4.46.104-3.528.016-4.298.03-4.38.075a.88.88 0 0 0-.35.345c-.082.157-.081.525.002.685.08.153.277.325.421.365.059.017 2.033.03 4.387.03 3.96 0 4.299-.005 4.54-.07a2.835 2.835 0 0 0 1.989-1.99c.062-.229.07-.47.071-2.04 0-.979-.013-1.828-.03-1.887a.833.833 0 0 0-.345-.41.949.949 0 0 0-.56-.064" fill-rule="evenodd" fill="#000"/></svg>