<svg width="24" height="24" fill="none" xmlns="http://www.w3.org/2000/svg"><path d="M16.82 2.276c-.066.017-.156.05-.2.074-.044.025-2.153 2.121-4.688 4.657-3.289 3.293-4.616 4.647-4.64 4.733-.04.151-.043 4.362-.002 4.507.04.142.21.34.365.424.114.063.322.069 2.305.069 1.199 0 2.234-.015 2.3-.033.15-.041 2.789-2.656 2.903-2.875.14-.271.07-.685-.149-.877a.78.78 0 0 0-.846-.118c-.081.043-.67.601-1.308 1.24l-1.159 1.163H8.76V12.3l2.62-2.62L14 7.06l1.469 1.47 1.47 1.469-.285.291c-.346.352-.387.428-.387.71 0 .314.136.539.413.682.138.071.515.064.66-.013.066-.035 1.068-1.014 2.228-2.176 1.507-1.511 2.116-2.147 2.138-2.233.016-.066.03-.183.03-.26 0-.077-.014-.194-.03-.26-.022-.086-.631-.722-2.138-2.233-1.16-1.162-2.153-2.136-2.208-2.165a.936.936 0 0 0-.54-.066M3.805 3.279c-.291.07-.506.328-.544.653-.014.114-.019 3.826-.013 8.248.011 7.504.017 8.048.081 8.165.084.155.282.325.424.365.14.039 3.354.039 3.494 0 .144-.04.341-.212.421-.365.078-.151.086-.525.014-.665a.89.89 0 0 0-.342-.354c-.103-.057-.296-.068-1.35-.079l-1.23-.012V4.763l2.73-.012c2.452-.01 2.742-.018 2.85-.077A.713.713 0 0 0 10.733 4a.713.713 0 0 0-.393-.674c-.109-.06-.421-.067-3.26-.072-1.727-.004-3.201.008-3.275.025M18.48 5.54 19.94 7l-.97.97-.97.97-1.47-1.47L15.06 6l.96-.96c.528-.528.969-.96.98-.96.011 0 .677.657 1.48 1.46m1.325 7.739a.73.73 0 0 0-.527.544c-.02.086-.037 1.34-.037 2.786l-.001 2.629-3.73.011c-3.383.01-3.741.017-3.85.077a.89.89 0 0 0-.342.354c-.072.14-.064.514.014.665.08.153.277.325.421.365.14.039 8.354.039 8.494 0 .142-.04.34-.21.424-.365.064-.115.069-.377.069-3.305 0-1.749-.013-3.228-.03-3.287a.833.833 0 0 0-.345-.41.949.949 0 0 0-.56-.064" fill-rule="evenodd" fill="#000"/></svg>