<svg width="24" height="24" fill="none" xmlns="http://www.w3.org/2000/svg"><path d="M3.805 3.28c-.291.069-.506.327-.545.652-.013.114-.019 1.576-.012 3.248.011 2.739.019 3.052.078 3.16a.713.713 0 0 0 .674.393.713.713 0 0 0 .674-.393c.059-.108.067-.398.077-2.849l.012-2.729 3.728-.011c3.382-.01 3.74-.017 3.849-.077A.713.713 0 0 0 12.733 4a.713.713 0 0 0-.393-.674c-.109-.06-.49-.067-4.26-.072-2.277-.004-4.201.008-4.275.026m13-.001c-.597.146-.743.956-.239 1.331.171.128.377.148 1.544.149l1.13.001v14.477l-2.73.012c-2.452.01-2.742.018-2.85.077a.89.89 0 0 0-.342.354c-.072.14-.064.514.014.665.08.153.277.325.421.365.059.017 1.538.03 3.287.03 2.928 0 3.19-.005 3.305-.069.155-.084.325-.282.365-.424.039-.14.039-16.354 0-16.494-.04-.142-.21-.34-.365-.424-.112-.062-.3-.07-1.765-.076-.902-.004-1.701.008-1.775.026M12.82 6.276c-.066.017-.156.05-.2.074-.044.025-2.153 2.121-4.688 4.657-3.289 3.293-4.616 4.647-4.64 4.733-.04.151-.043 4.362-.002 4.507.04.142.21.34.365.424.114.063.322.069 2.305.069 1.199 0 2.234-.015 2.3-.033.15-.041 2.789-2.656 2.903-2.875.14-.271.07-.685-.149-.877a.78.78 0 0 0-.846-.118c-.081.043-.67.601-1.308 1.24L7.701 19.24H4.76V16.3l2.62-2.62L10 11.06l1.469 1.47 1.47 1.469-.285.291c-.346.352-.387.428-.387.71 0 .314.136.539.413.682.138.071.515.064.66-.013.066-.035 1.068-1.014 2.228-2.176 1.507-1.511 2.116-2.147 2.138-2.233.016-.066.03-.183.03-.26 0-.077-.014-.194-.03-.26-.022-.086-.631-.722-2.138-2.233-1.16-1.162-2.153-2.136-2.208-2.165a.936.936 0 0 0-.54-.066m1.66 3.264L15.94 11l-.97.97-.97.97-1.47-1.47L11.06 10l.96-.96c.528-.528.969-.96.98-.96.011 0 .677.657 1.48 1.46" fill-rule="evenodd" fill="#000"/></svg>