<svg width="24" height="24" fill="none" xmlns="http://www.w3.org/2000/svg"><path d="M11.34 2.282c-2.324.154-4.441 1.098-6.136 2.736-.53.512-.644.685-.644.974 0 .514.46.851.975.715.068-.018.324-.233.622-.521.799-.773 1.379-1.185 2.263-1.609 1.192-.572 2.276-.817 3.612-.817 1.808.001 3.51.577 4.977 1.685.425.321 1.225 1.121 1.546 1.546a8.266 8.266 0 0 1 .444 9.375 8.679 8.679 0 0 1-2.633 2.633 8.27 8.27 0 0 1-8.732 0 8.679 8.679 0 0 1-2.633-2.633c-.762-1.23-1.159-2.513-1.239-4.007-.032-.61-.069-.741-.248-.904-.157-.142-.283-.188-.514-.188-.313 0-.531.132-.685.413-.078.143-.054 1.041.047 1.732.239 1.638.867 3.136 1.89 4.504.368.493 1.339 1.464 1.832 1.832a9.768 9.768 0 0 0 4.524 1.894 10.9 10.9 0 0 0 2.784 0 9.763 9.763 0 0 0 4.524-1.894c.493-.369 1.463-1.339 1.832-1.832a9.763 9.763 0 0 0 1.894-4.524 10.32 10.32 0 0 0-.2-3.804 9.913 9.913 0 0 0-1.694-3.504c-.369-.493-1.339-1.463-1.832-1.832A9.892 9.892 0 0 0 15.1 2.766a9.764 9.764 0 0 0-3.76-.484M8.9 8.259a1.438 1.438 0 0 1-.147.037c-.139.031-.339.201-.421.359-.078.151-.086.525-.014.665A.712.712 0 0 0 9 9.733c.236 0 .407-.068.548-.22A.886.886 0 0 0 9.76 9a.82.82 0 0 0-.4-.659c-.106-.055-.393-.106-.46-.082m6 0a1.438 1.438 0 0 1-.147.037c-.139.031-.339.201-.421.359-.078.151-.086.525-.014.665a.712.712 0 0 0 .682.413c.236 0 .407-.068.548-.22A.886.886 0 0 0 15.76 9a.82.82 0 0 0-.4-.659c-.106-.055-.393-.106-.46-.082m-7.085 5.018c-.476.117-.712.712-.443 1.118.52.785 1.847 1.725 2.94 2.082 1.033.338 2.344.337 3.377 0 .896-.293 1.926-.953 2.583-1.655.389-.416.461-.544.461-.822 0-.432-.301-.733-.733-.733-.288 0-.415.076-.755.454-.48.535-1.257 1.06-1.911 1.293a4.082 4.082 0 0 1-3.388-.333 5.707 5.707 0 0 1-1.194-.963 2.658 2.658 0 0 0-.372-.355.835.835 0 0 0-.565-.086" fill-rule="evenodd" fill="#000"/></svg>