<svg width="24" height="24" fill="none" xmlns="http://www.w3.org/2000/svg"><path d="M11.32 2.28c-1.879.127-3.672.802-5.236 1.972-.493.368-1.464 1.339-1.832 1.832a9.794 9.794 0 0 0-1.895 4.524 10.9 10.9 0 0 0 0 2.784 9.667 9.667 0 0 0 .9 2.906c.499 1.017 1.025 1.746 1.862 2.583.837.837 1.566 1.363 2.583 1.862a9.336 9.336 0 0 0 4.258.984c1.123 0 1.958-.122 2.959-.433.376-.117.485-.169.606-.29.46-.459.142-1.241-.505-1.243a2.172 2.172 0 0 0-.52.099 8.297 8.297 0 0 1-6.866-.861 8.679 8.679 0 0 1-2.633-2.633A8.12 8.12 0 0 1 3.76 12c0-1.842.568-3.531 1.685-5.009.321-.425 1.121-1.225 1.546-1.546A8.145 8.145 0 0 1 12 3.76a8.12 8.12 0 0 1 4.366 1.241 8.679 8.679 0 0 1 2.633 2.633 8.318 8.318 0 0 1 .855 6.904c-.153.478-.551 1.345-.785 1.71-.323.506-.375.718-.247 1.022a.61.61 0 0 0 .358.375.769.769 0 0 0 .64 0c.195-.09.229-.129.511-.589a9.625 9.625 0 0 0 1.246-3.236c.18-.985.205-2.261.065-3.212a9.77 9.77 0 0 0-1.894-4.524c-.369-.493-1.339-1.463-1.832-1.832-1.13-.846-2.524-1.495-3.796-1.766a10.872 10.872 0 0 0-2.8-.206m3.233 5.658c-.454.116-.886.245-.96.287a.72.72 0 0 0-.245.296c-.094.183-.108.249-.086.398.071.489.45.746.952.644.129-.026.244-.038.256-.027.011.012-.202.909-.475 1.993L13.5 13.5l-1.971.495c-1.084.273-1.982.485-1.995.472-.013-.013.231-1.047.543-2.297.504-2.021.563-2.291.53-2.438a.772.772 0 0 0-.594-.59c-.275-.058-.682.143-.795.392-.032.069-.383 1.431-.781 3.026-.554 2.219-.719 2.94-.705 3.071.037.345.372.651.711.648.075-.001 1.456-.332 3.068-.736 3.148-.789 3.123-.781 3.261-1.072.035-.073.39-1.438.789-3.032.556-2.221.721-2.939.707-3.07a.733.733 0 0 0-.728-.644c-.088.001-.532.097-.987.213" fill-rule="evenodd" fill="#000"/></svg>