<svg width="24" height="24" fill="none" xmlns="http://www.w3.org/2000/svg"><path d="M11.6 4.268c-2.224.103-4.298.951-6.28 2.569-1.364 1.113-2.844 2.858-3.773 4.446-.37.633-.37.801 0 1.434.722 1.235 1.817 2.618 2.899 3.664 1.736 1.676 3.705 2.774 5.694 3.176.625.126 1.103.169 1.86.169 1.547 0 2.751-.278 4.19-.968 2.093-1.003 3.944-2.66 5.598-5.013.425-.605.868-1.352.934-1.573.149-.506-.376-1.028-.893-.889-.264.071-.37.173-.613.589a15.856 15.856 0 0 1-2.553 3.268c-1.225 1.22-2.383 2.016-3.683 2.531-1.448.574-3.071.725-4.54.422-1.423-.293-2.744-.942-4.068-1.997-.466-.373-1.555-1.45-1.977-1.956-.603-.724-1.515-2.012-1.515-2.14 0-.128.912-1.416 1.515-2.14.422-.506 1.511-1.583 1.977-1.956 2.349-1.873 4.825-2.524 7.41-1.948 1.451.323 2.861 1.087 4.258 2.305.231.202.465.39.52.42a.9.9 0 0 0 .324.052c.418 0 .717-.29.722-.702.003-.305-.081-.457-.418-.759-1.771-1.584-3.608-2.537-5.543-2.873-.388-.067-1.622-.174-1.745-.151a5.42 5.42 0 0 1-.3.02m.3 3.992a1.87 1.87 0 0 1-.147.036c-.139.031-.339.201-.421.359-.078.151-.086.525-.014.665.153.295.331.391.812.439.451.045.619.092.93.255.309.162.764.616.927.926a2.325 2.325 0 0 1 0 2.12c-.163.309-.618.764-.927.927a2.325 2.325 0 0 1-2.12 0c-.31-.163-.764-.618-.926-.927-.164-.311-.21-.479-.255-.931-.048-.477-.14-.654-.419-.799-.157-.082-.525-.081-.685.002-.158.082-.328.282-.358.421-.013.059-.031.13-.04.159-.026.084.058.797.125 1.063.086.338.411.993.649 1.306.366.482.817.837 1.421 1.119a3.648 3.648 0 0 0 1.913.317 3.277 3.277 0 0 0 1.183-.317c.855-.399 1.406-.94 1.813-1.78a3.21 3.21 0 0 0 .356-1.255 3.648 3.648 0 0 0-.317-1.913c-.44-.942-1.128-1.585-2.107-1.967-.323-.127-1.243-.275-1.393-.225" fill-rule="evenodd" fill="#000"/></svg>