<svg width="24" height="24" fill="none" xmlns="http://www.w3.org/2000/svg"><path d="M11.52 2.282a5.677 5.677 0 0 0-3.576 1.662 5.729 5.729 0 0 0 .001 8.112c.813.812 1.848 1.367 2.924 1.571l.369.069.011 3.762c.012 4.02.002 3.831.206 4.056.136.15.308.219.545.219.237 0 .409-.069.545-.219.192-.212.194-.229.208-1.521l.012-1.228 1.228-.012c1.323-.014 1.352-.019 1.552-.239.142-.157.188-.283.188-.514 0-.231-.046-.357-.188-.514-.2-.221-.229-.225-1.555-.239l-1.23-.012v-3.538l.37-.07a5.676 5.676 0 0 0 2.925-1.572A5.731 5.731 0 0 0 17.62 9.18c.088-.427.142-1.173.1-1.362-.138-.608-.949-.763-1.33-.252-.096.127-.148.352-.149.64-.003.647-.286 1.505-.708 2.144A4.245 4.245 0 0 1 12 12.24c-1.852 0-3.455-1.172-4.053-2.963-.245-.732-.245-1.822 0-2.554a4.326 4.326 0 0 1 2.778-2.777c.426-.142.876-.196 1.455-.174.865.033 1.441.218 2.194.706.368.239.409.255.624.255.434 0 .735-.3.735-.733 0-.324-.117-.491-.542-.774a5.726 5.726 0 0 0-1.989-.847c-.259-.053-1.15-.147-1.262-.133-.022.003-.211.019-.42.036M8.805 17.278c-.383.096-.618.497-.526.899.071.313.317.522.663.565.375.047 1.262.002 1.398-.07.263-.141.393-.364.393-.672 0-.313-.133-.533-.413-.684-.117-.063-1.297-.093-1.515-.038" fill-rule="evenodd" fill="#000"/></svg>