<svg width="24" height="24" fill="none" xmlns="http://www.w3.org/2000/svg"><path d="M4.617 3.283a2.79 2.79 0 0 0-1.042.362c-.29.173-.757.64-.93.93a2.846 2.846 0 0 0 0 2.85c.173.29.64.757.93.93.852.51 1.998.51 2.85 0 .29-.173.757-.64.93-.93.495-.827.51-1.982.035-2.792-.569-.971-1.629-1.487-2.773-1.35m7.188-.004c-.291.071-.505.327-.545.653-.014.114-.02.901-.013 1.748.01 1.213.025 1.561.068 1.64a.88.88 0 0 0 .345.35c.157.082.525.081.685-.002.153-.08.325-.277.365-.421.039-.14.039-3.354 0-3.494a.833.833 0 0 0-.345-.41.949.949 0 0 0-.56-.064m7 0c-.291.071-.505.327-.545.653-.014.114-.02.901-.013 1.748.01 1.213.025 1.561.068 1.64a.88.88 0 0 0 .345.35c.157.082.525.081.685-.002.153-.08.325-.277.365-.421.039-.14.039-3.354 0-3.494a.833.833 0 0 0-.345-.41.949.949 0 0 0-.56-.064M5.454 4.841c.29.109.596.415.705.705.176.471.068.975-.285 1.328a1.216 1.216 0 0 1-1.748 0 1.216 1.216 0 0 1 0-1.748 1.236 1.236 0 0 1 1.328-.285m6.351 4.438a.73.73 0 0 0-.527.544c-.02.086-.037 1.365-.037 2.842l-.001 2.684-.233.085c-.688.251-1.331.908-1.592 1.627-.269.741-.177 1.685.23 2.364.173.29.64.757.93.93.852.51 1.998.51 2.85 0 .29-.173.757-.64.93-.93.51-.852.51-2.002 0-2.849-.285-.474-.866-.961-1.36-1.141l-.232-.085-.012-2.785c-.012-2.968-.004-2.856-.206-3.079-.167-.185-.476-.271-.74-.207m6.812.004c-.585.069-1.099.328-1.552.782-.469.469-.711.961-.783 1.596a2.822 2.822 0 0 0 .363 1.763c.285.474.866.961 1.36 1.141l.232.085.012 2.785c.012 2.968.004 2.856.206 3.079.136.15.308.219.545.219.237 0 .409-.069.545-.219.202-.223.194-.111.206-3.079l.012-2.785.232-.085c.327-.119.684-.361.975-.66a2.56 2.56 0 0 0 .748-1.566c.207-1.824-1.265-3.275-3.101-3.056m-13.812.996c-.291.071-.506.328-.544.653-.014.114-.02 2.251-.013 4.748.01 3.76.021 4.557.067 4.64a.88.88 0 0 0 .345.35c.157.082.525.081.685-.002.153-.08.325-.277.365-.421.039-.14.039-9.354 0-9.494a.833.833 0 0 0-.345-.41.949.949 0 0 0-.56-.064m14.649.562c.29.109.596.415.705.705.176.471.068.975-.285 1.328-.781.781-2.114.23-2.114-.874 0-.342.12-.629.366-.874a1.236 1.236 0 0 1 1.328-.285m-7 6c.29.109.596.415.705.705.176.471.068.975-.285 1.328-.781.781-2.114.23-2.114-.874 0-.342.12-.629.366-.874a1.236 1.236 0 0 1 1.328-.285" fill-rule="evenodd" fill="#000"/></svg>