<svg width="24" height="24" fill="none" xmlns="http://www.w3.org/2000/svg"><path d="M3.811 3.279c-.166.039-.395.214-.466.353a.842.842 0 0 0-.069.534c.04.172 5.041 8.195 5.224 8.38.299.303.849.246 1.106-.114a.803.803 0 0 0 .127-.562c-.016-.105-.679-1.2-2.192-3.62L5.373 4.78l4.923-.02c5.266-.021 4.992-.01 5.218-.215.15-.136.219-.308.219-.545 0-.237-.069-.409-.219-.545-.227-.206.109-.195-5.934-.201-3.102-.004-5.698.007-5.769.025m15.929.019a.777.777 0 0 0-.263.173c-.188.209-5.167 8.214-5.201 8.363-.019.08-.035 1.896-.035 4.036-.001 2.139-.01 3.89-.021 3.89-.011 0-1.017-.499-2.237-1.108l-2.217-1.108-.013-.882c-.014-.922-.022-.971-.208-1.176-.136-.15-.308-.219-.545-.219-.313 0-.53.131-.685.413-.073.132-.103 2.142-.037 2.45.087.405-.041.327 3.375 2.037 2.975 1.489 3.138 1.565 3.347 1.566.237 0 .409-.069.545-.219.205-.226.194.021.206-4.809l.011-4.516 2.486-3.977 2.485-3.978v-.238c0-.199-.019-.266-.116-.404-.2-.283-.569-.406-.877-.294" fill-rule="evenodd" fill="#000"/></svg>