<svg width="24" height="24" fill="none" xmlns="http://www.w3.org/2000/svg"><path d="M11.617 2.283a2.79 2.79 0 0 0-1.042.362c-.29.173-.757.64-.93.93a2.846 2.846 0 0 0 0 2.85c.173.29.64.757.93.93.679.407 1.623.499 2.364.23.718-.261 1.376-.904 1.626-1.59l.085-.232 2.785-.012c2.503-.01 2.797-.018 2.905-.077A.713.713 0 0 0 20.733 5a.713.713 0 0 0-.393-.674c-.108-.059-.402-.067-2.905-.077l-2.785-.012-.085-.232c-.238-.654-.899-1.32-1.552-1.564a3.025 3.025 0 0 0-1.396-.158m.837 1.558c.29.109.596.415.705.705.176.471.068.975-.285 1.328a1.216 1.216 0 0 1-1.748 0 1.216 1.216 0 0 1 0-1.748 1.236 1.236 0 0 1 1.328-.285m-8.649.438c-.615.15-.744.984-.209 1.348.187.128.385.14 2.084.126 1.628-.014 1.618-.013 1.834-.208.15-.136.219-.308.219-.545 0-.237-.069-.409-.219-.545-.217-.197-.196-.195-1.934-.202-.902-.004-1.701.008-1.775.026m13.812 5.004c-.34.04-.735.178-1.041.362-.474.285-.961.866-1.141 1.36l-.085.232-2.785.012c-2.503.01-2.797.018-2.905.077a.713.713 0 0 0-.393.674c0 .307.128.528.393.674.108.059.402.067 2.905.077l2.785.012.085.232c.18.494.667 1.075 1.141 1.36.847.51 1.997.51 2.849 0 .29-.173.757-.64.93-.93.495-.827.51-1.982.035-2.792-.569-.971-1.629-1.487-2.773-1.35m.837 1.558c.29.109.596.415.705.705.176.471.068.975-.285 1.328-.781.781-2.114.23-2.114-.874 0-.342.12-.629.366-.874a1.236 1.236 0 0 1 1.328-.285m-14.649.438c-.615.15-.744.984-.209 1.348.187.128.385.14 2.084.126 1.628-.014 1.618-.013 1.834-.208.15-.136.219-.308.219-.545 0-.237-.069-.409-.219-.545-.217-.197-.196-.195-1.934-.202-.902-.004-1.701.008-1.775.026m1.812 5.004a2.79 2.79 0 0 0-1.042.362c-.29.173-.757.64-.93.93a2.846 2.846 0 0 0 0 2.85c.173.29.64.757.93.93a2.824 2.824 0 0 0 1.764.363c.635-.072 1.127-.314 1.596-.783.469-.469.711-.961.783-1.596.207-1.824-1.265-3.275-3.101-3.056m.837 1.558c.29.109.596.415.705.705.176.471.068.975-.285 1.328a1.216 1.216 0 0 1-1.748 0 1.216 1.216 0 0 1 0-1.748 1.236 1.236 0 0 1 1.328-.285m4.351.439c-.381.091-.618.495-.526.897.071.31.318.523.653.562.114.014 2.251.02 4.748.013 4.135-.011 4.551-.018 4.66-.078a.713.713 0 0 0 .393-.674.713.713 0 0 0-.393-.674c-.11-.06-.525-.067-4.76-.072-2.552-.004-4.701.008-4.775.026" fill-rule="evenodd" fill="#000"/></svg>