<svg width="24" height="24" fill="none" xmlns="http://www.w3.org/2000/svg"><path d="M3.805 3.28c-.291.069-.506.326-.545.652-.014.114-.019 1.351-.012 2.748.013 2.765.004 2.653.238 2.865.157.142.283.188.514.188.231 0 .357-.046.514-.188.232-.211.225-.131.238-2.555l.011-2.23h13.416l-1.927 1.93c-1.363 1.365-1.936 1.965-1.958 2.05-.048.184-.029.475.039.604.034.064.909.962 1.945 1.996l1.882 1.88-7.19.02c-6.692.019-7.199.025-7.315.089-.155.084-.325.282-.365.424-.039.14-.039 7.354 0 7.494.04.144.212.341.365.421.16.083.528.084.685.002a.88.88 0 0 0 .345-.35c.045-.082.057-.68.066-3.33l.011-3.229 7.736-.011 7.735-.01.172-.121c.094-.066.205-.179.247-.25.081-.139.106-.431.054-.629-.022-.085-.696-.786-2.338-2.43L16.061 9l2.285-2.29c1.257-1.259 2.308-2.335 2.336-2.39.071-.138.064-.515-.012-.66a.888.888 0 0 0-.156-.205c-.229-.207.3-.195-8.434-.201-4.477-.004-8.201.008-8.275.026" fill-rule="evenodd" fill="#000"/></svg>