<svg width="24" height="24" fill="none" xmlns="http://www.w3.org/2000/svg"><path d="M4.805 2.278c-.292.073-.506.329-.544.654-.014.114-.02 2.251-.013 4.748.013 4.856.002 4.608.207 4.834.136.15.308.219.545.219.237 0 .409-.069.545-.219.204-.226.194-.017.206-4.308.01-3.738.015-4.012.078-3.988.2.077 12.369 5.765 12.369 5.782 0 .011-3.028 1.431-6.729 3.155-3.701 1.724-6.796 3.178-6.878 3.23a.84.84 0 0 0-.24.265l-.091.17v2.16c0 1.188.013 2.208.03 2.267.04.144.212.341.365.421.16.083.528.084.685.002a.88.88 0 0 0 .345-.35c.044-.079.059-.489.075-1.979l.02-1.88 7.3-3.404c5.715-2.665 7.331-3.435 7.444-3.544a.733.733 0 0 0 .059-.972 1.088 1.088 0 0 0-.358-.259C17.642 8.05 5.183 2.273 5.081 2.261a.942.942 0 0 0-.276.017" fill-rule="evenodd" fill="#000"/></svg>