<svg width="24" height="24" fill="none" xmlns="http://www.w3.org/2000/svg"><path d="M7.874 2.283c-.504.074-.997.36-1.46.848-.572.602-.774 1.261-.581 1.896.133.436.462.876.9 1.204l.112.085-1.532.012c-1.358.011-1.547.02-1.658.081-.155.084-.325.282-.365.424-.039.14-.039 3.354 0 3.494.039.14.21.341.354.415.063.032.222.07.354.084l.24.025.011 4.725c.01 4.374.016 4.733.08 4.849.084.155.282.325.424.365.14.039 14.354.039 14.494 0 .142-.04.34-.21.424-.365.064-.115.069-.379.069-3.345 0-1.771-.013-3.268-.03-3.327-.04-.144-.212-.341-.365-.421-.16-.083-.528-.084-.685-.002a.88.88 0 0 0-.345.35c-.045.082-.057.611-.066 2.87l-.012 2.77H5.76v-8.479l7.23-.01c6.741-.01 7.238-.016 7.355-.08.155-.084.325-.282.365-.424.039-.14.039-3.354 0-3.494-.04-.142-.21-.34-.365-.424-.111-.061-.3-.07-1.656-.081l-1.531-.012.191-.151c.626-.495.933-1.119.877-1.785-.06-.725-.815-1.633-1.633-1.966-.792-.322-1.683-.146-2.538.499-.585.442-1.273 1.245-1.796 2.096-.132.213-.248.389-.259.389-.011.001-.125-.171-.253-.381-.928-1.52-2.087-2.539-3.092-2.718-.35-.062-.451-.064-.781-.016m.851 1.624c.5.248 1.214 1.033 1.765 1.94.082.136.15.26.15.276 0 .039-.728-.136-1.28-.307-1.075-.333-1.874-.776-2.064-1.144-.052-.101-.052-.129.004-.245.083-.175.401-.485.6-.584.25-.125.481-.107.825.064m7.368-.066c.189.089.509.394.601.573.08.155.025.3-.189.497-.328.303-.941.607-1.744.867-.442.143-1.406.39-1.43.366a2.974 2.974 0 0 1 .212-.368c.561-.895 1.232-1.618 1.732-1.868.345-.173.557-.19.818-.067M19.24 8.58v.74H4.76V7.84h14.48v.74" fill-rule="evenodd" fill="#000"/></svg>