<svg width="24" height="24" fill="none" xmlns="http://www.w3.org/2000/svg"><path d="M3.18 2.827a.696.696 0 0 0-.344.341c-.073.144-.076.32-.076 5.068 0 3.378.013 4.954.043 5.031a.75.75 0 0 0 .697.464.75.75 0 0 0 .697-.464c.03-.077.043-1.518.043-4.57V4.24h5.52v15.52H4.24v-.957c0-1.016-.014-1.107-.193-1.297a.69.69 0 0 0-.547-.237.75.75 0 0 0-.697.464c-.028.071-.043.626-.043 1.531 0 1.314.006 1.43.076 1.568.086.169.17.251.352.343.115.059.495.065 3.812.065 3.317 0 3.697-.006 3.812-.065a.682.682 0 0 0 .352-.343c.074-.145.076-.39.076-8.832s-.002-8.687-.076-8.832a.682.682 0 0 0-.352-.343c-.115-.059-.493-.065-3.82-.063-3.291.001-3.705.008-3.812.065m10 0a.696.696 0 0 0-.344.341c-.074.145-.076.39-.076 8.832s.002 8.687.076 8.832c.086.169.17.251.352.343.115.059.495.065 3.812.065 3.317 0 3.697-.006 3.812-.065a.682.682 0 0 0 .352-.343c.073-.144.076-.32.076-5.068 0-3.378-.013-4.954-.043-5.031a.75.75 0 0 0-.697-.464.75.75 0 0 0-.697.464c-.03.077-.043 1.518-.043 4.57v4.457h-5.52V4.24h5.52v.957c0 1.016.014 1.107.193 1.297a.69.69 0 0 0 .547.237.75.75 0 0 0 .697-.464c.028-.071.043-.626.043-1.531 0-1.314-.006-1.43-.076-1.568a.682.682 0 0 0-.352-.343c-.115-.059-.493-.065-3.82-.063-3.291.001-3.705.008-3.812.065" fill-rule="evenodd" fill="#000"/></svg>