<svg width="24" height="24" fill="none" xmlns="http://www.w3.org/2000/svg"><path d="M11.32 2.28c-1.879.127-3.672.802-5.236 1.972-.493.368-1.464 1.339-1.832 1.832C3.179 7.518 2.553 9.075 2.313 10.9c-.041.312-.053 1.484-.053 5.32 0 2.706.013 4.968.03 5.027.04.142.21.34.365.424.113.062.302.069 1.945.069 1.612 0 1.85-.008 2.08-.07a2.838 2.838 0 0 0 1.99-1.99c.062-.231.07-.472.07-2.18 0-2.137-.002-2.159-.279-2.72a2.81 2.81 0 0 0-1.771-1.442c-.347-.087-.876-.092-1.03-.01-.263.141-.393.364-.393.672 0 .231.046.357.188.514.131.144.267.199.593.24.389.048.608.148.841.385.35.356.351.361.351 2.361 0 2.014.001 2.008-.366 2.374-.351.352-.424.366-1.876.366H3.76v-4.45c0-4.194.005-4.48.078-4.97a8.216 8.216 0 0 1 1.163-3.186 8.679 8.679 0 0 1 2.633-2.633c2.435-1.51 5.493-1.659 8.023-.392.864.433 1.465.868 2.166 1.568a8.037 8.037 0 0 1 1.914 2.958c.367.98.503 1.844.503 3.183v.913l-1.35.019c-1.491.021-1.594.035-2.11.289a2.838 2.838 0 0 0-1.45 1.781c-.062.231-.07.472-.07 2.18 0 2.137.002 2.159.279 2.72a2.81 2.81 0 0 0 1.771 1.442c.347.087.876.092 1.03.01.263-.141.393-.364.393-.672 0-.231-.046-.357-.188-.514-.131-.144-.267-.199-.593-.24-.389-.048-.608-.148-.841-.385-.35-.356-.351-.361-.351-2.361 0-2.014-.001-2.008.366-2.374.351-.352.424-.366 1.874-.366h1.238l.011 3.23c.009 2.65.021 3.248.066 3.33a.88.88 0 0 0 .345.35c.157.082.525.081.685-.002.153-.08.325-.277.365-.421.017-.059.03-2.321.03-5.027 0-3.836-.012-5.008-.053-5.32-.24-1.825-.868-3.386-1.939-4.816-.369-.493-1.339-1.463-1.832-1.832-1.13-.846-2.524-1.495-3.796-1.766a10.872 10.872 0 0 0-2.8-.206" fill-rule="evenodd" fill="#000"/></svg>