<svg width="24" height="24" fill="none" xmlns="http://www.w3.org/2000/svg"><path d="M11.815 2.277a.8.8 0 0 0-.462.354c-.118.191-.122.533-.009.725.042.072 1.835 1.67 3.986 3.552l3.91 3.422v8.907l-2.23.011c-1.986.011-2.243.019-2.35.078a.89.89 0 0 0-.342.354c-.072.14-.064.514.014.665.08.153.277.325.421.365.059.017 1.313.03 2.787.03 2.456 0 2.69-.006 2.805-.069.155-.084.325-.282.365-.424.017-.059.03-2.429.03-5.267 0-4.937-.003-5.166-.074-5.309-.053-.106-1.21-1.142-4.132-3.699-2.233-1.953-4.108-3.581-4.167-3.618a.85.85 0 0 0-.552-.077M7.7 5.816c-.066.03-1.059.876-2.206 1.88-1.467 1.285-2.108 1.871-2.16 1.975-.071.143-.074.372-.074 5.309 0 2.838.013 5.208.03 5.267.04.142.21.34.365.424.115.063.349.069 2.805.069 1.474 0 2.728-.013 2.787-.03.142-.04.34-.21.424-.365.062-.113.071-.357.091-2.485.016-1.777.035-2.399.074-2.52.165-.508.645-1.085 1.104-1.327a2.325 2.325 0 0 1 2.12 0c.31.163.764.618.926.927.164.311.21.479.255.931.048.477.14.654.419.799.157.082.525.081.685-.002.158-.082.328-.282.358-.421.013-.059.031-.13.04-.159.026-.085-.059-.799-.126-1.063a4.09 4.09 0 0 0-.217-.573c-.399-.855-.94-1.406-1.78-1.813a3.21 3.21 0 0 0-1.255-.356 3.648 3.648 0 0 0-1.913.317c-.855.399-1.406.94-1.813 1.78-.359.738-.397 1.053-.398 3.25l-.001 1.61H4.76V10.331l1.889-1.656c1.039-.91 1.928-1.713 1.976-1.784.183-.274.153-.617-.076-.877a.886.886 0 0 0-.257-.2.878.878 0 0 0-.592.002" fill-rule="evenodd" fill="#000"/></svg>