<svg width="24" height="24" fill="none" xmlns="http://www.w3.org/2000/svg"><path d="M11.82 2.276c-.066.017-.156.05-.2.074-.044.025-1.703 1.67-3.688 3.657C5.37 8.574 4.316 9.655 4.292 9.74c-.04.151-.043 10.362-.002 10.507.04.144.212.341.365.421.16.083.528.084.685.002a.88.88 0 0 0 .345-.35c.046-.083.057-.942.066-5.061l.011-4.961 3.119-3.119L12 4.06l1.53 1.526c.841.84 1.588 1.555 1.658 1.59.254.127.673.048.857-.162.196-.223.253-.582.131-.826-.073-.147-3.664-3.766-3.816-3.846a.936.936 0 0 0-.54-.066m6.985 7.003a.73.73 0 0 0-.527.544c-.02.089-.037 2.152-.037 4.786l-.001 4.629-4.73.011c-3.923.009-4.747.02-4.83.066a.88.88 0 0 0-.35.345c-.082.157-.081.525.002.685.08.153.277.325.421.365.059.017 2.438.03 5.287.03 4.817 0 5.189-.005 5.305-.069.155-.084.325-.282.365-.424.039-.14.039-10.354 0-10.494a.833.833 0 0 0-.345-.41.949.949 0 0 0-.56-.064" fill-rule="evenodd" fill="#000"/></svg>