<svg width="24" height="24" viewBox="0 0 24 24" fill="none" xmlns="http://www.w3.org/2000/svg">
<path d="M19 10L19 20H9M5 20L5 10L12 3L15.5 6.5M12 17.6111L8.59173 14.0766C8.21285 13.6837 8 13.1508 8 12.5951C8 11.438 8.90452 10.5 10.0203 10.5C10.5561 10.5 11.07 10.7207 11.4489 11.1137L12 11.6852L12.5511 11.1136C12.93 10.7207 13.4439 10.5 13.9797 10.5C15.0955 10.5 16 11.438 16 12.5951C16 13.1508 15.7871 13.6837 15.4083 14.0766L12 17.6111Z" stroke="#001A72" stroke-width="1.5" stroke-linecap="round" stroke-linejoin="round"/>
</svg>
