<svg width="24" height="24" fill="none" xmlns="http://www.w3.org/2000/svg"><path d="M11.82 2.276c-.066.017-.156.05-.2.074-.044.025-1.703 1.67-3.688 3.657C5.37 8.574 4.316 9.655 4.292 9.74c-.04.151-.043 6.362-.002 6.507.04.144.212.341.365.421.16.083.528.084.685.002a.88.88 0 0 0 .345-.35c.045-.082.057-.64.066-3.061l.011-2.962 3.119-3.118L12 4.06l1.53 1.526c.841.84 1.588 1.555 1.658 1.59.254.127.673.048.857-.162.196-.223.253-.582.131-.826-.073-.147-3.664-3.766-3.816-3.846a.936.936 0 0 0-.54-.066m6.985 7.003a.73.73 0 0 0-.527.544c-.02.089-.037 2.152-.037 4.786l-.001 4.63-6.73.01c-7.214.012-6.796 0-7.024.206a.888.888 0 0 0-.156.205c-.082.157-.081.525.002.685.08.153.277.325.421.365.14.039 14.354.039 14.494 0 .142-.04.34-.21.424-.365.064-.116.069-.488.069-5.305 0-2.849-.013-5.228-.03-5.287a.833.833 0 0 0-.345-.41.949.949 0 0 0-.56-.064m-7 1a.73.73 0 0 0-.527.544c-.02.086-.037.664-.037 1.284l-.001 1.128-1.23.012c-1.326.014-1.355.018-1.555.239-.142.157-.188.283-.188.514 0 .231.046.357.188.514.2.22.229.225 1.552.239l1.228.012.012 1.228c.014 1.323.019 1.352.239 1.552.157.142.283.188.514.188.231 0 .357-.046.514-.188.22-.2.225-.229.239-1.552l.012-1.228 1.228-.012c1.292-.014 1.309-.016 1.521-.208.15-.136.219-.308.219-.545 0-.237-.069-.409-.219-.545-.212-.192-.229-.194-1.521-.208l-1.228-.012-.012-1.228c-.014-1.292-.016-1.309-.208-1.521-.167-.185-.476-.271-.74-.207" fill-rule="evenodd" fill="#000"/></svg>