<svg width="24" height="24" fill="none" xmlns="http://www.w3.org/2000/svg"><path d="M11.82 2.276c-.066.017-.156.05-.2.074-.044.025-1.703 1.67-3.688 3.657C5.37 8.574 4.316 9.655 4.292 9.74c-.04.151-.043 10.362-.002 10.507.04.144.212.341.365.421.16.083.528.084.685.002a.88.88 0 0 0 .345-.35c.046-.083.057-.942.066-5.061l.011-4.961 3.119-3.119L12 4.06l1.53 1.526c.841.84 1.588 1.555 1.658 1.59.254.127.673.048.857-.162.196-.223.253-.582.131-.826-.073-.147-3.664-3.766-3.816-3.846a.936.936 0 0 0-.54-.066m6.985 7.003a.73.73 0 0 0-.527.544c-.02.089-.037 2.152-.037 4.786l-.001 4.629-4.73.011c-3.923.009-4.747.02-4.83.066a.88.88 0 0 0-.35.345c-.082.157-.081.525.002.685.08.153.277.325.421.365.059.017 2.438.03 5.287.03 4.817 0 5.189-.005 5.305-.069.155-.084.325-.282.365-.424.039-.14.039-10.354 0-10.494a.833.833 0 0 0-.345-.41.949.949 0 0 0-.56-.064M9.4 9.822c-.462.099-.891.345-1.282.734-.598.595-.842 1.173-.846 2.004-.003.697.145 1.194.505 1.699.078.109.955 1.043 1.951 2.075 1.873 1.945 1.963 2.024 2.272 2.024.308 0 .398-.08 2.274-2.026.997-1.035 1.875-1.969 1.952-2.077.357-.501.505-1 .502-1.695-.004-.831-.248-1.409-.846-2.004-.547-.545-1.146-.795-1.902-.795-.653 0-1.299.236-1.75.64l-.23.205-.23-.205a2.849 2.849 0 0 0-1.15-.581 3.403 3.403 0 0 0-1.22.002m1.117 1.541c.119.053.345.241.643.535.545.537.682.602 1.06.497.122-.033.269-.151.62-.497.546-.539.717-.634 1.14-.633.378.001.639.117.898.4a1.3 1.3 0 0 1 .362.909c0 .341-.091.623-.276.853-.199.248-2.924 3.073-2.964 3.073-.04 0-2.765-2.825-2.964-3.073-.398-.496-.367-1.259.072-1.747.376-.419.908-.538 1.409-.317" fill-rule="evenodd" fill="#000"/></svg>