<svg width="24" height="24" viewBox="0 0 24 24" fill="none" xmlns="http://www.w3.org/2000/svg">
<path d="M17 17.1056C17 16.7107 16.8831 16.3247 16.6641 15.9962L14.7396 13.1094C14.2917 12.4376 14.2917 11.5624 14.7396 10.8906L16.6641 8.00385C16.8831 7.67531 17 7.2893 17 6.89445V4M17 4H19M17 4H5M7 6.89444C7 7.28929 7.11688 7.67531 7.3359 8.00384L9.2604 10.8906C9.70827 11.5624 9.70827 12.4376 9.2604 13.1094L7.3359 15.9961C7.11688 16.3247 7 16.7107 7 17.1055V20M7 20L5 20M7 20L19 20" stroke="#001A72" stroke-width="1.5" stroke-linecap="round" stroke-linejoin="round"/>
</svg>
