<svg width="24" height="24" viewBox="0 0 24 24" fill="none" xmlns="http://www.w3.org/2000/svg">
<path d="M12 17L9 20M12 17L15 20M12 17V12M12 17V21M9 4L12 7L15 4M12 12L16.3301 9.5M12 12L7.66985 9.50001M12 12L16.3301 14.5M12 3V9M16.3301 9.5L19.7942 7.5M16.3301 9.5L20.4283 10.598M16.3301 9.5L17.4283 5.40187M4.20581 16.5L9.40196 13.5M16.3301 14.5L17.4282 18.5981M16.3301 14.5L20.4282 13.4019M16.3301 14.5L19.7943 16.5M7.66985 9.50001L3.57178 10.5981M7.66985 9.50001L6.57178 5.40193M7.66985 9.50001L4.20581 7.5M6.57178 18.598L7.66985 14.4999L3.57178 13.4019" stroke="#001A72" stroke-width="1.5" stroke-linecap="round" stroke-linejoin="round"/>
</svg>
