<svg width="24" height="24" fill="none" xmlns="http://www.w3.org/2000/svg"><path d="M11.805 2.279a.73.73 0 0 0-.527.544c-.02.086-.037.652-.037 1.257l-.001 1.099-.91-.905c-.5-.498-.955-.928-1.01-.956-.138-.071-.515-.064-.66.012a.847.847 0 0 0-.339.345c-.058.112-.072.415-.027.585.022.084.471.561 1.486 1.58l1.455 1.46.013.96c.013 1.03.024 1.091.238 1.285.157.142.283.188.514.188.231 0 .357-.046.514-.188.214-.194.225-.255.238-1.285l.013-.96 1.455-1.46c1.015-1.019 1.464-1.496 1.486-1.58.048-.182.03-.474-.038-.604a.847.847 0 0 0-.348-.338c-.128-.066-.511-.066-.64 0-.055.028-.508.457-1.007.953l-.908.903-.012-1.197c-.014-1.26-.016-1.279-.208-1.491-.167-.185-.476-.271-.74-.207M6.4 4.676c-.358.113-.561.369-.559.708.001.116.128.667.314 1.356.172.638.307 1.167.301 1.175-.007.008-.458-.244-1.004-.56L4.46 6.78h-.263c-.228 0-.283.015-.414.115-.224.171-.303.326-.303.597 0 .258.057.397.226.551.063.057.533.344 1.044.638.511.294.93.544.93.556 0 .013-.526.163-1.169.335-.642.172-1.229.341-1.305.377a.747.747 0 0 0-.251.246c-.313.494.022 1.132.596 1.136.119 0 .887-.187 2.081-.508 1.041-.279 1.916-.502 1.946-.496.029.007.865.481 1.857 1.053l1.803 1.04.001 2.14.001 2.14-1.423 1.42c-.782.781-1.451 1.474-1.486 1.54-.077.145-.085.521-.013.66a.849.849 0 0 0 .342.35c.145.076.522.083.66.012.055-.028.508-.457 1.007-.953l.908-.903.012 1.197c.014 1.26.016 1.279.208 1.491.136.15.308.219.545.219.237 0 .409-.069.545-.219.192-.212.194-.231.208-1.491l.012-1.197.908.903c.499.496.952.925 1.007.953.138.071.515.064.66-.012a.849.849 0 0 0 .342-.35c.072-.139.064-.515-.013-.66-.035-.066-.704-.759-1.486-1.54L12.76 16.7v-1.69c0-.929.007-1.69.015-1.69.013 0 2.859 1.633 2.898 1.663.007.005.245.876.529 1.935.284 1.059.537 1.965.562 2.014a.712.712 0 0 0 .655.401c.421.004.742-.307.74-.717 0-.117-.127-.662-.314-1.356a24.808 24.808 0 0 1-.302-1.175c.007-.008.459.244 1.005.56l.992.575h.263c.228 0 .283-.015.414-.115.224-.171.303-.326.303-.597 0-.258-.057-.397-.226-.551-.063-.057-.532-.344-1.044-.638-.512-.294-.93-.544-.93-.556 0-.013.526-.163 1.169-.335.642-.172 1.229-.341 1.305-.377a.747.747 0 0 0 .251-.246c.313-.494-.022-1.132-.596-1.136-.119 0-.887.187-2.081.508-1.041.279-1.916.502-1.944.496-.073-.018-2.902-1.649-2.902-1.673 0-.025 2.828-1.655 2.901-1.673.029-.006.904.217 1.945.496 1.194.321 1.962.508 2.081.508.574-.004.909-.642.596-1.136a.747.747 0 0 0-.251-.246c-.076-.036-.663-.205-1.305-.377-.643-.172-1.169-.322-1.169-.335 0-.012.419-.262.93-.556.512-.294.981-.581 1.044-.638.169-.154.226-.293.226-.551 0-.271-.079-.426-.303-.597-.131-.1-.186-.115-.414-.115h-.263l-.992.575c-.545.316-.997.568-1.004.56-.007-.008.128-.537.301-1.175.187-.694.314-1.239.314-1.356.003-.749-1.037-1-1.384-.334-.031.06-.289.976-.573 2.034a103.613 103.613 0 0 1-.529 1.933c-.134.1-3.63 2.083-3.673 2.083-.043 0-3.559-1.993-3.673-2.082-.007-.006-.246-.877-.53-1.937-.285-1.06-.538-1.966-.562-2.014a.853.853 0 0 0-.315-.326c-.136-.07-.398-.103-.52-.065m-2.986 8.002a.715.715 0 0 0-.574.733c0 .264.159.541.366.64.076.036.663.205 1.305.377.643.172 1.169.322 1.169.334 0 .013-.419.263-.93.557-.511.293-.981.58-1.044.637-.169.155-.226.294-.226.552 0 .271.079.426.303.597.131.1.186.115.414.115h.263l.992-.575c.546-.316.997-.568 1.004-.56.006.008-.129.537-.301 1.175-.186.689-.313 1.24-.314 1.356-.003.49.455.826.934.687a.746.746 0 0 0 .46-.37c.024-.048.277-.954.562-2.014.284-1.06.523-1.931.53-1.936.007-.006.366-.213.797-.461.856-.492.966-.594 1.019-.948.021-.141.007-.214-.077-.384-.128-.259-.318-.395-.587-.421-.252-.024-.304-.002-1.172.499-.392.227-.733.412-.757.412-.025 0-.883-.224-1.907-.497-2.071-.552-2.053-.548-2.229-.505" fill-rule="evenodd" fill="#000"/></svg>