<svg width="24" height="24" fill="none" xmlns="http://www.w3.org/2000/svg"><path d="M6.412 3.28a1.8 1.8 0 0 0-1.199.806c-.071.117-.764 1.906-1.54 3.974L2.26 11.82v3.3c0 3.025.006 3.322.07 3.56a2.832 2.832 0 0 0 1.99 1.988c.22.059.457.07 1.54.071.704 0 1.328-.012 1.387-.029.144-.04.341-.212.421-.365.078-.151.086-.525.014-.665a.89.89 0 0 0-.342-.354c-.102-.056-.309-.069-1.4-.086-1.19-.019-1.293-.026-1.46-.104a1.412 1.412 0 0 1-.639-.683c-.078-.209-.081-.306-.081-2.955V12.76h4.279l.681 1.358c.744 1.484.771 1.522 1.145 1.602.132.029.898.039 2.258.032 1.98-.012 2.063-.015 2.217-.094.139-.071.285-.268 1.1-1.486l.94-1.405.92-.013c.684-.011.946-.028 1.02-.069a.88.88 0 0 0 .35-.345c.082-.157.081-.525-.002-.685-.08-.153-.277-.325-.421-.365-.059-.017-.629-.03-1.267-.03-1.089 0-1.17.005-1.32.082-.139.071-.284.267-1.1 1.488l-.94 1.408-1.58.001-1.581.001-.645-1.292c-.355-.711-.695-1.351-.755-1.422-.233-.277-.113-.264-2.663-.286l-2.304-.02 1.189-3.17c.654-1.744 1.212-3.197 1.239-3.23.044-.053.705-.06 5.484-.06h5.434l.058.09c.032.049.662 1.702 1.401 3.673l1.343 3.584v3.065c0 2.975-.002 3.071-.081 3.281a1.412 1.412 0 0 1-.639.683c-.178.083-.232.084-3.96.104-3.419.018-3.791.026-3.9.086a.89.89 0 0 0-.342.354c-.072.14-.064.514.014.665.08.153.277.325.421.365.059.017 1.808.03 3.887.03 3.483 0 3.8-.006 4.04-.07a2.838 2.838 0 0 0 1.99-1.99c.064-.238.07-.535.07-3.56v-3.3l-1.413-3.76c-.776-2.068-1.469-3.857-1.54-3.974-.248-.419-.732-.735-1.235-.808-.303-.044-10.839-.042-11.14.002" fill-rule="evenodd" fill="#000"/></svg>