<svg width="24" height="24" fill="none" xmlns="http://www.w3.org/2000/svg"><path d="M20.9 2.259a1.795 1.795 0 0 1-.16.04c-.091.019-1.206 1.111-4.606 4.509l-4.486 4.484-.254-.168a5.581 5.581 0 0 0-1.987-.787c-.456-.081-1.362-.082-1.814 0a5.247 5.247 0 0 0-4.256 4.256c-.082.455-.082 1.359 0 1.814a5.244 5.244 0 0 0 4.25 4.253c.493.086 1.082.091 1.233.011.454-.242.564-.808.227-1.165-.172-.182-.302-.227-.778-.268-.932-.081-1.68-.402-2.322-.996a3.992 3.992 0 0 1-1.075-1.782c-.077-.273-.091-.414-.091-.96s.014-.686.091-.956c.315-1.093 1.005-1.929 1.988-2.406.606-.294.895-.357 1.64-.357.745 0 1.034.063 1.64.357.983.477 1.673 1.312 1.988 2.406.079.273.091.405.089.976-.001.601-.011.691-.11 1.012-.114.374-.227.62-.458 1.004-.121.2-.141.27-.14.469.003.274.091.451.289.585.282.19.636.198.879.02.224-.165.679-1.009.841-1.561.214-.726.274-1.738.145-2.456a5.593 5.593 0 0 0-.787-1.987l-.168-.254 1.146-1.145 1.145-1.146.81.807c.829.824.889.868 1.191.868.316 0 .334-.015 1.993-1.669.887-.884 1.641-1.661 1.676-1.727.077-.145.084-.521.013-.66-.028-.055-.404-.455-.836-.89L19.061 6l1.307-1.31c.907-.909 1.316-1.347 1.338-1.43.132-.502-.127-.926-.606-.993a.725.725 0 0 0-.2-.008M18.48 7.54l.459.461-.969.969-.97.97-.47-.47-.469-.47.959-.96c.528-.528.969-.96.98-.96.012 0 .228.207.48.46" fill-rule="evenodd" fill="#000"/></svg>