<svg width="24" height="24" fill="none" xmlns="http://www.w3.org/2000/svg"><path d="M4.527 4.822c-.667.18-1.167.774-1.253 1.489-.021.178-.032 2.25-.025 4.899l.011 4.59-.14.045c-.412.131-.884.523-1.113.922-.317.555-.33 1.316-.031 1.905.228.45.729.86 1.213.993.246.068.437.075 2.111.075 1.012 0 1.888-.013 1.947-.03.144-.04.341-.212.421-.365.078-.151.086-.525.014-.665a.89.89 0 0 0-.342-.354c-.105-.058-.348-.068-1.973-.086l-1.854-.02-.114-.128c-.231-.258-.174-.62.122-.778.133-.071.453-.074 8.479-.074s8.346.003 8.479.074c.296.158.353.52.122.778l-.114.128-4.354.02c-3.952.018-4.364.026-4.473.086a.89.89 0 0 0-.342.354c-.072.14-.064.514.014.665.08.153.277.325.421.365.059.017 2.06.03 4.447.03 4.876 0 4.629.014 5.111-.298.715-.462 1.05-1.263.889-2.127-.115-.62-.702-1.273-1.32-1.47l-.14-.045.011-4.59c.007-2.649-.004-4.721-.025-4.899-.087-.724-.589-1.313-1.271-1.491-.189-.049-.543-.06-1.921-.06-1.096 0-1.728.015-1.801.043a.75.75 0 0 0-.464.697.75.75 0 0 0 .464.697c.072.028.684.043 1.73.043 1.564 0 1.62.003 1.697.08.079.079.08.133.08 4.68s-.001 4.601-.08 4.68c-.079.079-.133.08-7.16.08s-7.081-.001-7.16-.08c-.079-.079-.08-.133-.08-4.68s.001-4.601.08-4.68c.079-.079.133-.08 3.697-.08 2.459 0 3.654-.014 3.73-.043a.75.75 0 0 0 .464-.697.75.75 0 0 0-.464-.697c-.076-.029-1.291-.042-3.82-.04-3.083.002-3.743.012-3.92.059" fill-rule="evenodd" fill="#000"/></svg>