<svg width="24" height="24" viewBox="0 0 24 24" fill="none" xmlns="http://www.w3.org/2000/svg">
<path d="M19 16.5H5M19 16.5C19.5523 16.5 20 16.0523 20 15.5V6.5C20 5.94772 19.5523 5.5 19 5.5H16M19 16.5H20.25C20.9404 16.5 21.5 17.0596 21.5 17.75C21.5 18.4404 20.9404 19 20.25 19H12M5 16.5C4.44772 16.5 4 16.0523 4 15.5V6.5C4 5.94771 4.44772 5.5 5 5.5H12M5 16.5H3.75C3.05964 16.5 2.5 17.0596 2.5 17.75C2.5 18.4404 3.05964 19 3.75 19H7" stroke="#001A72" stroke-width="1.5" stroke-linecap="round" stroke-linejoin="round"/>
</svg>
