<svg width="24" height="24" fill="none" xmlns="http://www.w3.org/2000/svg"><path d="M14.36 2.521a2.885 2.885 0 0 0-1.422.622c-.093.077-1.317 1.479-2.72 3.116L7.666 9.236l-1.943.012c-1.746.011-1.956.019-2.068.081-.155.084-.325.282-.365.424-.039.14-.039 10.354 0 10.494.04.142.21.34.365.424.116.064.433.069 4.305.069 2.299 0 4.228-.013 4.287-.03.144-.04.341-.212.421-.365.078-.151.086-.525.014-.665a.89.89 0 0 0-.342-.354c-.105-.058-.33-.067-1.849-.078l-1.728-.012-.012-2.728c-.012-2.907-.004-2.799-.206-3.022-.136-.15-.308-.219-.545-.219-.237 0-.409.069-.545.219-.202.223-.194.115-.206 3.024l-.012 2.73H4.76v-8.477l1.71-.011c1.581-.011 1.721-.018 1.862-.087.112-.056.851-.892 2.87-3.248 2.552-2.977 2.733-3.179 2.948-3.284.574-.281 1.317-.093 1.642.415.235.367.272.891.09 1.249-.049.096-.658 1.027-1.352 2.069L13.267 9.76v.235c0 .287.088.456.328.624l.172.121 2.566.02c2.935.023 2.752 0 3.118.394.242.26.349.505.349.8 0 .291-1.208 6.343-1.314 6.582-.172.389-.562.646-1.072.71-.332.041-.468.096-.599.24-.142.157-.188.283-.188.514 0 .308.13.531.393.672.154.082.685.077 1.026-.01.796-.204 1.524-.828 1.836-1.574.095-.226.266-1.011.763-3.48.702-3.497.725-3.664.58-4.262a2.77 2.77 0 0 0-1.455-1.804c-.528-.265-.594-.272-2.577-.291l-1.787-.017.909-1.368c.991-1.491 1.09-1.686 1.165-2.288.071-.569-.035-1.11-.326-1.669-.181-.347-.727-.882-1.101-1.08a3.052 3.052 0 0 0-1.693-.308" fill-rule="evenodd" fill="#000"/></svg>