<svg width="24" height="24" fill="none" xmlns="http://www.w3.org/2000/svg"><path d="M6.68 7.265a4.685 4.685 0 0 0-1.86.527c-.305.162-.375.218-.459.369-.261.474.033 1.059.558 1.11.175.017.254-.004.611-.164.71-.317.718-.318 2.29-.344 1.508-.025 1.524-.027 1.725-.249.142-.157.188-.283.188-.514 0-.231-.046-.357-.188-.514-.2-.221-.231-.226-1.505-.23a41.05 41.05 0 0 0-1.36.009m8.125.015c-.596.141-.742.955-.239 1.33.172.129.378.148 1.6.149 1.52.001 1.844.059 2.505.447.295.173.95.828 1.123 1.123.6 1.023.6 2.336 0 3.337-.297.497-.908 1.045-1.438 1.292-.518.241-.611.253-2.156.278-1.494.025-1.501.026-1.714.219-.15.136-.219.308-.219.545 0 .313.131.53.413.685.132.073 1.933.099 2.652.038 1.252-.104 2.25-.573 3.092-1.452a4.602 4.602 0 0 0 1.292-2.846 4.677 4.677 0 0 0-1.445-3.849c-.802-.769-1.749-1.195-2.875-1.295-.531-.047-2.393-.048-2.591-.001m-12 3.999a.724.724 0 0 0-.525.543c-.047.205.02.946.119 1.334a4.797 4.797 0 0 0 2.928 3.284c.666.256 1.371.333 2.873.313 1.096-.014 1.15-.024 1.345-.239.142-.157.188-.283.188-.514 0-.231-.046-.357-.188-.514-.201-.222-.215-.224-1.745-.249-1.542-.026-1.639-.039-2.149-.276-.85-.395-1.562-1.231-1.791-2.101a4.86 4.86 0 0 1-.099-.668c-.037-.441-.069-.544-.216-.706-.167-.185-.476-.271-.74-.207m5 .001c-.381.091-.618.495-.526.897.071.31.318.523.653.563.114.013 2.026.019 4.248.012 3.67-.011 4.051-.018 4.16-.078a.713.713 0 0 0 .393-.674.713.713 0 0 0-.393-.674c-.109-.06-.49-.067-4.26-.072-2.277-.004-4.201.008-4.275.026" fill-rule="evenodd" fill="#000"/></svg>