<svg width="24" height="24" fill="none" xmlns="http://www.w3.org/2000/svg"><path d="M4.9 7.259a1.438 1.438 0 0 1-.147.037c-.139.031-.339.201-.421.359-.083.16-.084.528-.002.685.124.239.414.42.67.42.256 0 .546-.181.67-.42.076-.146.083-.523.012-.66a.852.852 0 0 0-.322-.339c-.106-.055-.393-.106-.46-.082m2.905.02c-.382.092-.618.496-.526.898.071.31.317.522.653.563.114.014 1.351.019 2.748.012 2.765-.013 2.653-.004 2.865-.238.142-.157.188-.283.188-.514a.713.713 0 0 0-.393-.674c-.108-.059-.386-.067-2.76-.073-1.452-.003-2.701.008-2.775.026m8 0c-.615.15-.744.984-.209 1.348.187.128.385.14 2.084.126 1.628-.014 1.618-.013 1.834-.208.15-.136.219-.308.219-.545 0-.237-.069-.409-.219-.545-.217-.197-.196-.195-1.934-.202-.902-.004-1.701.008-1.775.026M4.9 11.259a1.438 1.438 0 0 1-.147.037c-.139.031-.339.201-.421.359-.083.16-.084.528-.002.685.124.239.414.42.67.42.256 0 .546-.181.67-.42.076-.146.083-.523.012-.66a.852.852 0 0 0-.322-.339c-.106-.055-.393-.106-.46-.082m2.905.021c-.381.091-.618.495-.526.897.071.31.318.523.653.562.114.014 2.701.02 5.748.013 5.933-.013 5.607-.001 5.834-.207.15-.136.219-.308.219-.545 0-.237-.069-.409-.219-.545-.227-.206.109-.195-5.934-.201-3.102-.004-5.701.008-5.775.026M4.9 15.259a1.438 1.438 0 0 1-.147.037c-.139.031-.339.201-.421.359-.083.16-.084.528-.002.685.124.239.414.42.67.42.256 0 .546-.181.67-.42.076-.146.083-.523.012-.66a.852.852 0 0 0-.322-.339c-.106-.055-.393-.106-.46-.082m2.905.02c-.615.151-.744.984-.209 1.348.181.124.404.141 1.584.126 1.118-.014 1.169-.023 1.365-.239.142-.157.188-.283.188-.514 0-.231-.046-.357-.188-.514-.199-.22-.236-.225-1.465-.233-.627-.004-1.201.007-1.275.026m5 0c-.381.092-.618.496-.526.898.071.31.317.522.653.563.114.013 1.576.019 3.248.012 2.739-.011 3.052-.019 3.16-.078a.713.713 0 0 0 .393-.674.713.713 0 0 0-.393-.674c-.109-.06-.421-.067-3.26-.072-1.727-.004-3.201.008-3.275.025" fill-rule="evenodd" fill="#000"/></svg>