<svg width="24" height="24" fill="none" xmlns="http://www.w3.org/2000/svg"><path d="M3.805 3.28c-.29.069-.505.326-.545.652-.014.114-.02.901-.013 1.748.014 1.628.013 1.618.208 1.834.136.15.308.219.545.219.237 0 .409-.069.545-.219.192-.212.194-.229.208-1.524l.012-1.23H19.24v14.48H4.762l-.011-3.73c-.01-3.383-.017-3.741-.077-3.85a.89.89 0 0 0-.354-.342c-.14-.072-.514-.064-.665.014-.153.08-.325.277-.365.421-.039.14-.039 8.354 0 8.494.04.142.21.34.365.424.117.065.657.069 8.345.069 7.688 0 8.228-.004 8.345-.069.155-.084.325-.282.365-.424.039-.14.039-16.354 0-16.494-.04-.142-.21-.34-.365-.424-.117-.064-.66-.069-8.265-.075-4.477-.004-8.201.008-8.275.026m3 4c-.381.091-.618.495-.526.897.071.31.318.523.653.562.114.014 2.476.02 5.248.013 5.395-.013 5.107-.002 5.334-.207.15-.136.219-.308.219-.545 0-.237-.069-.409-.219-.545-.227-.206.071-.195-5.434-.201-2.827-.004-5.201.008-5.275.026m0 4c-.381.091-.618.495-.526.897.071.31.318.523.653.562.114.014 2.476.02 5.248.013 5.395-.013 5.107-.002 5.334-.207.15-.136.219-.308.219-.545 0-.237-.069-.409-.219-.545-.227-.206.071-.195-5.434-.201-2.827-.004-5.201.008-5.275.026m4 3.999c-.381.092-.618.496-.526.898.071.31.317.522.653.563.114.013 1.576.019 3.248.012 2.739-.011 3.052-.019 3.16-.078a.713.713 0 0 0 .393-.674.713.713 0 0 0-.393-.674c-.109-.06-.421-.067-3.26-.072-1.727-.004-3.201.008-3.275.025" fill-rule="evenodd" fill="#000"/></svg>