<svg width="24" height="24" fill="none" xmlns="http://www.w3.org/2000/svg"><path d="M11.34 2.281a8.757 8.757 0 0 0-6.804 4.162A8.942 8.942 0 0 0 3.337 9.78c-.078.526-.089 1.796-.021 2.3.233 1.705.818 3.123 1.898 4.6.689.943 1.783 2.044 2.826 2.843a18.682 18.682 0 0 0 3.279 1.978c.423.201.531.236.713.233.565-.008.908-.682.583-1.145-.1-.142-.221-.218-.915-.568-1.823-.92-3.009-1.764-4.222-3.007-1.565-1.601-2.434-3.274-2.68-5.16-.071-.54-.03-1.683.08-2.229a7.276 7.276 0 0 1 2.004-3.743c1.037-1.037 2.284-1.703 3.758-2.007.404-.084.569-.095 1.36-.095.791 0 .956.011 1.36.095 1.472.304 2.723.972 3.758 2.007 1.035 1.035 1.703 2.286 2.007 3.758.084.405.095.568.095 1.36 0 .788-.012.957-.094 1.36a8.693 8.693 0 0 1-1.292 3.059c-.481.72-.904 1.21-1.727 2.002-.674.648-.753.744-.809.984-.062.269.203.703.489.797a.852.852 0 0 0 .702-.106c.278-.19 1.636-1.563 1.994-2.016.978-1.239 1.709-2.696 2.016-4.02.138-.595.179-.876.219-1.508A8.683 8.683 0 0 0 15.86 3.16a8.713 8.713 0 0 0-4.52-.879m.56 4.979a1.87 1.87 0 0 1-.147.036c-.139.031-.339.201-.421.359-.078.151-.086.525-.014.665.153.295.331.391.812.439.451.045.619.092.93.255.309.162.764.616.927.926a2.325 2.325 0 0 1 0 2.12c-.163.309-.618.764-.927.927a2.325 2.325 0 0 1-2.12 0c-.31-.163-.764-.618-.926-.927-.164-.311-.21-.479-.255-.931-.048-.477-.14-.654-.419-.799-.157-.082-.525-.081-.685.002-.158.082-.328.282-.358.421-.013.059-.031.13-.04.159-.026.084.058.797.125 1.063.086.338.411.993.649 1.306.366.482.817.837 1.421 1.119a3.648 3.648 0 0 0 1.913.317 3.277 3.277 0 0 0 1.183-.317c.855-.399 1.406-.94 1.813-1.78a3.21 3.21 0 0 0 .356-1.255 3.648 3.648 0 0 0-.317-1.913c-.44-.942-1.128-1.585-2.107-1.967-.323-.127-1.243-.275-1.393-.225" fill-rule="evenodd" fill="#000"/></svg>