<svg width="24" height="24" viewBox="0 0 24 24" fill="none" xmlns="http://www.w3.org/2000/svg">
<path d="M4.20404 15C3.43827 15.5883 3 16.2714 3 17C3 18.5705 5.03656 19.9297 8 20.5842M12 21C16.9706 21 21 19.2091 21 17C21 16.2714 20.5617 15.5883 19.796 15M12 17C8.68629 15.4444 6 12.6587 6 9.22222C6 5.78578 8.68629 3 12 3C15.3137 3 18 5.78578 18 9.22222C18 11.4856 16.8347 13.4667 15.0922 15M12 6.5V11.5M9.5 9H10M12 9H14.5" stroke="#001A72" stroke-width="1.5" stroke-linecap="round" stroke-linejoin="round"/>
</svg>
