<svg width="24" height="24" fill="none" xmlns="http://www.w3.org/2000/svg"><path d="M11.5 2.282c-1.639.117-3.096.814-4.287 2.05A6.967 6.967 0 0 0 5.338 8.16c-.077.506-.086 1.559-.018 2.04.258 1.808 1.093 3.378 2.597 4.884.976.976 2.27 1.881 3.582 2.502.411.195.664.203.91.029.341-.24.433-.703.205-1.027-.097-.139-.222-.221-.755-.5-1.2-.627-2.034-1.224-2.861-2.048-1.178-1.172-1.833-2.301-2.137-3.68-.091-.413-.124-1.39-.063-1.851a5.435 5.435 0 0 1 1.689-3.331c.693-.662 1.426-1.061 2.393-1.301.331-.083.476-.095 1.12-.095.793 0 1.152.058 1.751.284 1.857.698 3.182 2.404 3.451 4.443.061.459.028 1.437-.062 1.851-.304 1.391-1.07 2.685-2.253 3.805-.218.206-.426.433-.462.503a.913.913 0 0 0-.065.342c0 .422.313.728.741.723.27-.002.376-.065.817-.479 1.25-1.175 2.208-2.717 2.583-4.16a7.628 7.628 0 0 0-.003-3.732c-.554-2.091-2.106-3.859-4.075-4.641a6.737 6.737 0 0 0-2.923-.439m.199 3.534c-.149.065-.367.308-.408.455-.04.142-.04 5.316 0 5.458.042.152.262.392.417.457a.742.742 0 0 0 .786-.139c.237-.225.245-.262.259-1.314l.013-.967.967-.013c1.052-.014 1.089-.022 1.314-.259A.667.667 0 0 0 15.24 9a.667.667 0 0 0-.193-.494c-.225-.237-.262-.245-1.314-.259l-.967-.013-.013-.967c-.014-1.052-.022-1.089-.259-1.314a.756.756 0 0 0-.795-.137M9.42 8.257a1.281 1.281 0 0 1-.149.04c-.147.032-.39.251-.457.411a.736.736 0 0 0 .201.842c.188.166.284.19.745.19.446 0 .551-.024.718-.165.179-.15.255-.321.255-.575a.713.713 0 0 0-.413-.682c-.092-.047-.811-.096-.9-.061m-5.41 6.022c-.17.04-.501.299-.842.658-.64.673-.893 1.258-.893 2.063 0 .468.062.759.247 1.156.479 1.029 1.783 2.009 3.518 2.644.603.22 1.729.52 1.956.52.259 0 .505-.132.62-.334.201-.353.163-.663-.112-.928-.156-.149-.212-.173-.707-.295-1.929-.478-3.446-1.335-3.901-2.203-.1-.192-.115-.263-.115-.56 0-.473.1-.655.66-1.202.352-.345.44-.455.479-.597a.748.748 0 0 0-.511-.919c-.167-.047-.214-.047-.399-.003m15.536.018a.742.742 0 0 0-.466.904c.039.142.127.252.479.597.552.539.658.73.66 1.182.001.273-.016.354-.114.555-.294.599-1.192 1.268-2.294 1.71-1.489.597-3.159.916-5.191.991-.89.032-.986.053-1.165.25a1.146 1.146 0 0 0-.137.194c-.072.14-.064.514.014.665.082.158.282.328.421.358.059.013.128.03.153.038.096.028 1.854-.063 2.374-.123 4.034-.47 6.86-1.985 7.382-3.958.084-.316.083-1.002-.001-1.32a3.327 3.327 0 0 0-.514-1.043c-.21-.278-.71-.766-.935-.913a.791.791 0 0 0-.666-.087" fill-rule="evenodd" fill="#000"/></svg>