<svg width="24" height="24" fill="none" xmlns="http://www.w3.org/2000/svg"><path d="M14.805 3.278c-.734.183-.72 1.273.018 1.444.086.02.89.037 1.785.037 1.534.001 1.642.006 1.845.082.259.097.564.382.683.639.083.178.084.225.104 4.46.016 3.528.03 4.298.075 4.38a.88.88 0 0 0 .345.35c.157.082.525.081.685-.002.153-.08.325-.277.365-.421.017-.059.03-2.033.03-4.387 0-3.96-.005-4.299-.07-4.54a2.838 2.838 0 0 0-1.45-1.781c-.544-.268-.572-.271-2.52-.283-.968-.006-1.821.004-1.895.022M6.9 7.259a1.795 1.795 0 0 1-.16.04c-.089.019-.658.562-2.233 2.133-1.162 1.16-2.141 2.162-2.176 2.228-.091.172-.084.536.014.704.043.074.156.189.25.255l.172.121h6.186c3.403 0 6.235-.013 6.294-.03.144-.04.341-.212.421-.365.078-.151.086-.525.014-.665a.89.89 0 0 0-.342-.354c-.109-.06-.579-.068-5.31-.086l-5.19-.02 1.382-1.38c.761-.759 1.412-1.434 1.447-1.5.077-.145.085-.521.013-.66a.852.852 0 0 0-.322-.339c-.106-.055-.393-.106-.46-.082m-1 7a1.438 1.438 0 0 1-.147.037c-.139.031-.339.201-.421.359-.084.161-.084.528-.001.685.077.145 1.208 1.27 1.349 1.342.129.066.512.066.64 0a.849.849 0 0 0 .35-.342c.082-.156.081-.526-.001-.68-.071-.135-1.204-1.269-1.329-1.331-.092-.045-.38-.091-.44-.07m14 3a1.438 1.438 0 0 1-.147.037c-.134.03-.338.199-.413.343a1.74 1.74 0 0 0-.094.409c-.047.38-.148.606-.37.828-.349.35-.296.341-2.316.364-1.557.017-1.795.028-1.9.086a.89.89 0 0 0-.342.354c-.072.14-.064.514.014.665.08.153.277.325.421.365.059.017.908.03 1.887.03 1.57-.001 1.811-.009 2.04-.071.962-.259 1.747-1.043 1.982-1.979.081-.321.092-.877.021-1.01a.861.861 0 0 0-.323-.339c-.106-.055-.393-.106-.46-.082" fill-rule="evenodd" fill="#000"/></svg>