<svg width="24" height="24" viewBox="0 0 24 24" fill="none" xmlns="http://www.w3.org/2000/svg">
<path d="M12 4V9M12 9L8.99994 10.5M12 9L14.9999 10.5M3.22365 16.8368C3.0748 17.9977 4.00416 19 5.17461 19H6.99999C8.10456 19 8.99999 18.1046 8.99999 17V7.09523C8.99999 6.49035 8.50964 6 7.90476 6C7.52061 6 7.1634 6.20162 6.96854 6.53268C5.48747 9.04905 4.58362 11.0159 3.99994 13M17.3582 7.09523C17.2525 6.9107 17.1436 6.72327 17.0314 6.53268C16.8366 6.20162 16.4794 6 16.0952 6C15.4903 6 15 6.49035 15 7.09523V17C15 18.1046 15.8954 19 17 19H18.8254C19.9958 19 20.9252 17.9977 20.7763 16.8368C20.4818 14.5399 20.0142 12.6362 19.0907 10.5" stroke="#001A72" stroke-width="1.5" stroke-linecap="round" stroke-linejoin="round"/>
</svg>
