<svg width="24" height="24" fill="none" xmlns="http://www.w3.org/2000/svg"><path d="M11.805 3.279a.73.73 0 0 0-.527.544c-.02.086-.037 1.183-.037 2.438l-.001 2.28-.74.369-.74.37V8.17c0-.611-.019-1.227-.041-1.37a1.842 1.842 0 0 0-2.065-1.522c-.358.051-.798.27-1.045.52-.408.415-1.789 3.013-2.499 4.702-.359.855-.77 2.018-.849 2.407-.063.309.2.707.534.807a.73.73 0 0 0 .721-.19c.115-.115.174-.233.28-.565.464-1.455 1.209-3.148 2.102-4.778.547-1 .77-1.368.844-1.396a.384.384 0 0 1 .4.073l.098.098v5.141c0 5.067-.001 5.143-.081 5.357-.11.292-.415.596-.709.706-.209.079-.29.083-1.426.072-1.193-.012-1.206-.013-1.399-.112-.265-.135-.529-.437-.605-.691a2.219 2.219 0 0 1-.06-.508c0-.267-.014-.328-.115-.486-.25-.395-.753-.459-1.114-.141-.203.178-.251.323-.251.763 0 .503.051.729.268 1.18.334.696.981 1.219 1.772 1.433.223.06.447.07 1.58.07 1.135 0 1.356-.01 1.58-.07a2.838 2.838 0 0 0 1.781-1.45c.287-.583.274-.402.289-4.011l.014-3.251 1.118-.559L12 9.84l1.118.559 1.118.559.014 3.251c.015 3.608.002 3.428.289 4.011a2.838 2.838 0 0 0 1.781 1.45c.224.06.445.07 1.58.07 1.133 0 1.357-.01 1.58-.07.791-.214 1.437-.736 1.773-1.433.233-.484.285-.756.256-1.35-.042-.836-.416-2.805-.751-3.947-.326-1.109-.896-2.644-1.076-2.898-.108-.151-.385-.282-.596-.282-.285 0-.588.201-.683.453-.09.236-.051.447.199 1.071a21.433 21.433 0 0 1 1.116 3.725c.134.661.322 1.878.322 2.082 0 .398-.282.834-.665 1.029-.193.099-.206.1-1.399.112-1.136.011-1.217.007-1.426-.072a1.338 1.338 0 0 1-.709-.706c-.08-.214-.081-.29-.081-5.357V6.956l.098-.098c.102-.102.307-.131.42-.06.031.02.157.202.28.406.277.461.443.603.735.627a.72.72 0 0 0 .798-.731c0-.219-.036-.305-.338-.809-.255-.426-.488-.655-.846-.832-1.113-.55-2.435.125-2.626 1.341-.022.143-.041.759-.041 1.37v1.11l-.739-.369-.738-.369-.012-2.381c-.012-2.533-.006-2.454-.206-2.675-.167-.185-.476-.271-.74-.207" fill-rule="evenodd" fill="#000"/></svg>