<svg width="24" height="24" viewBox="0 0 24 24" fill="none" xmlns="http://www.w3.org/2000/svg">
<path d="M3.29289 5.29289C3.47386 5.11193 3.72386 5 4 5H20C20.2761 5 20.5261 5.11193 20.7071 5.29289M3.29289 5.29289C3.11193 5.47386 3 5.72386 3 6V18C3 18.5523 3.44772 19 4 19H14M3.29289 5.29289L5 7.00006M20.7071 5.29289C20.8881 5.47386 21 5.72386 21 6V18C21 18.5523 20.5523 19 20 19H18M20.7071 5.29289L13.4142 12.5857C12.6331 13.3668 11.3668 13.3668 10.5857 12.5857L8 10" stroke="#001A72" stroke-width="1.5" stroke-linecap="round" stroke-linejoin="round"/>
</svg>
