<svg width="24" height="24" fill="none" xmlns="http://www.w3.org/2000/svg"><path d="M11.805 2.279a.73.73 0 0 0-.527.544c-.02.088-.037 1.765-.037 3.819l-.001 3.661-.37.07a5.695 5.695 0 0 0-2.926 1.571 5.729 5.729 0 0 0 .001 8.112 5.724 5.724 0 0 0 8.11-.001 5.731 5.731 0 0 0 1.565-2.875c.088-.427.142-1.173.1-1.362-.138-.608-.949-.763-1.33-.252-.096.127-.148.352-.149.64-.003.647-.286 1.505-.708 2.144A4.245 4.245 0 0 1 12 20.24c-1.852 0-3.455-1.172-4.053-2.963-.245-.732-.245-1.822 0-2.554a4.326 4.326 0 0 1 2.778-2.777c.426-.142.876-.196 1.455-.174.865.033 1.441.218 2.194.706.368.239.409.255.624.255.434 0 .735-.3.735-.733 0-.324-.117-.491-.542-.774a5.562 5.562 0 0 0-2.059-.857l-.372-.068v-5.48l1.43 1.427c.998.995 1.466 1.436 1.55 1.458.545.143.993-.175.993-.706a.872.872 0 0 0-.064-.34c-.071-.134-4.204-4.269-4.329-4.331a.982.982 0 0 0-.535-.05M9.9 4.259a1.795 1.795 0 0 1-.16.04c-.087.019-.426.331-1.233 1.134-.612.609-1.141 1.161-1.176 1.227-.077.145-.084.522-.013.66a.849.849 0 0 0 .342.35c.156.082.526.081.68-.001.146-.077 2.271-2.208 2.342-2.349.066-.129.066-.512 0-.64a.852.852 0 0 0-.322-.339c-.106-.055-.393-.106-.46-.082" fill-rule="evenodd" fill="#000"/></svg>