<svg width="24" height="24" fill="none" xmlns="http://www.w3.org/2000/svg"><path d="M7.701 3.284c-.334.05-.641.215-.921.496-.426.425-.538.784-.538 1.72 0 .626.054.99.189 1.257.138.274.407.575.634.708l.175.103V8.837l-.916 1.837c-.719 1.441-.933 1.905-.99 2.152-.069.291-.074.545-.074 3.454 0 3.497-.01 3.353.279 3.94a2.81 2.81 0 0 0 1.771 1.442c.347.087.876.092 1.03.01.263-.141.393-.364.393-.672 0-.231-.046-.357-.188-.514-.131-.144-.267-.199-.593-.24a2.075 2.075 0 0 1-.476-.115c-.251-.111-.538-.418-.636-.68-.08-.213-.081-.285-.071-3.272l.011-3.055.978-1.952.979-1.952.015-.73.016-.73h6.466l.014.73.013.73.98 1.952.979 1.952.011 3.055c.01 2.987.009 3.059-.071 3.272a1.41 1.41 0 0 1-.64.685c-.174.081-.254.085-2.46.104-2.022.018-2.294.027-2.4.086a.89.89 0 0 0-.342.354c-.072.14-.064.514.014.665.08.153.277.325.421.365.059.017 1.133.03 2.387.03 2.051 0 2.306-.007 2.54-.07a2.838 2.838 0 0 0 1.99-1.99c.064-.238.07-.528.07-3.4 0-2.909-.005-3.163-.074-3.454-.057-.247-.271-.711-.99-2.152l-.916-1.837V7.568l.175-.103c.227-.133.496-.434.634-.708.135-.267.189-.631.189-1.257 0-.936-.112-1.295-.538-1.72-.445-.446-.864-.563-1.894-.532-.578.017-.701.051-.871.238-.142.157-.188.283-.188.514 0 .231.046.357.188.514.179.197.283.222.985.238.526.013.674.028.73.078.061.054.07.142.07.67 0 .538-.008.615-.073.674-.067.06-.414.066-4.174.066-3.922 0-4.103-.003-4.167-.073-.055-.061-.066-.171-.066-.674 0-.524.009-.609.071-.665.062-.056.275-.065 1.73-.076 1.757-.013 1.736-.011 1.953-.207.15-.136.219-.308.219-.545 0-.237-.069-.409-.219-.545-.218-.197-.195-.195-1.934-.201-.902-.004-1.747.01-1.879.03m4.104 6.995c-.291.071-.506.328-.545.653-.013.114-.019 1.576-.012 3.248.011 2.739.019 3.052.078 3.16a.713.713 0 0 0 .674.393c.231 0 .357-.046.514-.188.22-.2.225-.229.239-1.552l.012-1.228 1.228-.012c1.292-.014 1.309-.016 1.521-.208.15-.136.219-.308.219-.545 0-.237-.069-.409-.219-.545-.212-.192-.229-.194-1.521-.208l-1.228-.012-.012-1.228c-.014-1.292-.016-1.309-.208-1.521-.167-.185-.476-.271-.74-.207m-3 2.999c-.383.096-.618.497-.526.899.071.313.317.522.663.565.375.047 1.262.002 1.398-.07.263-.141.393-.364.393-.672 0-.313-.133-.533-.413-.684-.117-.063-1.297-.093-1.515-.038" fill-rule="evenodd" fill="#000"/></svg>