<svg width="24" height="24" viewBox="0 0 24 24" fill="none" xmlns="http://www.w3.org/2000/svg">
<path d="M9 14H10M12 14H15M12 11V17M8 7V9L6.21115 12.5777C6.07229 12.8554 6 13.1616 6 13.4721V19C6 20.1046 6.89543 21 8 21M8 7H16M8 7C7.44772 7 7 6.55228 7 6V5C7 4.44772 7.44772 4 8 4H11M16 7V9L17.7889 12.5777C17.9277 12.8554 18 13.1616 18 13.4721V19C18 20.1046 17.1046 21 16 21H12M16 7C16.5523 7 17 6.55228 17 6V5C17 4.44772 16.5523 4 16 4H15" stroke="#001A72" stroke-width="1.5" stroke-linecap="round" stroke-linejoin="round"/>
</svg>
