<svg width="24" height="24" fill="none" xmlns="http://www.w3.org/2000/svg"><path d="M3.805 6.28c-.381.091-.618.495-.526.897.071.31.318.523.653.563.114.013 2.026.019 4.248.012 3.67-.011 4.051-.018 4.16-.078A.713.713 0 0 0 12.733 7a.713.713 0 0 0-.393-.674c-.109-.06-.49-.067-4.26-.072-2.277-.004-4.201.008-4.275.026m12-.001c-.382.093-.618.496-.526.898.071.31.317.522.653.563.114.014 1.126.019 2.248.013 2.166-.014 2.114-.009 2.334-.208.15-.136.219-.308.219-.545 0-.237-.069-.409-.219-.545-.221-.2-.158-.195-2.434-.202-1.177-.003-2.201.008-2.275.026m-12 5.001c-.381.09-.618.495-.526.897.071.31.318.523.653.562.114.014 3.826.019 8.248.013 8.624-.013 8.105 0 8.334-.207.15-.136.219-.308.219-.545 0-.237-.069-.409-.219-.545-.229-.207.3-.195-8.434-.201-4.477-.004-8.201.008-8.275.026m0 4.999c-.382.093-.618.496-.526.898.071.31.317.522.653.563.114.014 1.126.019 2.248.013 2.166-.014 2.114-.009 2.334-.208.15-.136.219-.308.219-.545 0-.237-.069-.409-.219-.545-.221-.2-.158-.195-2.434-.202-1.177-.003-2.201.008-2.275.026m8 .001c-.381.091-.618.495-.526.897.071.31.318.523.653.563.114.013 2.026.019 4.248.012 3.67-.011 4.051-.018 4.16-.078a.713.713 0 0 0 .393-.674.713.713 0 0 0-.393-.674c-.109-.06-.49-.067-4.26-.072-2.277-.004-4.201.008-4.275.026" fill-rule="evenodd" fill="#000"/></svg>