<svg width="24" height="24" fill="none" xmlns="http://www.w3.org/2000/svg"><path d="M3.805 3.28c-.291.069-.506.327-.544.652-.014.114-.02 2.926-.013 6.248.011 5.615.017 6.049.081 6.165.084.155.282.325.424.365.14.039 3.354.039 3.494 0 .144-.04.341-.212.421-.365.078-.151.086-.525.014-.665a.89.89 0 0 0-.342-.354c-.103-.057-.296-.068-1.35-.079l-1.23-.012V4.76h14.472l.015.73c.012.579.028.755.08.85a.88.88 0 0 0 .353.342c.14.072.514.064.665-.014.153-.08.325-.277.365-.421.039-.139.039-2.355 0-2.494-.04-.142-.21-.34-.365-.424-.117-.064-.66-.069-8.265-.075-4.477-.004-8.201.008-8.275.026m16 5.999a.73.73 0 0 0-.527.544c-.02.086-.037 1.34-.037 2.786l-.001 2.629-3.73.011c-3.057.009-3.748.021-3.83.065-.055.03-.957.91-2.005 1.955l-1.904 1.899-.019-.434c-.02-.468-.062-.596-.258-.781a.742.742 0 0 0-.786-.139c-.155.065-.375.305-.417.457-.04.141-.04 2.835-.001 2.976.04.144.212.341.365.421.15.078.525.086.665.014.055-.028 1.198-1.146 2.54-2.486l2.44-2.434 3.96-.011c3.652-.01 3.97-.016 4.085-.08.155-.084.325-.282.365-.424.039-.14.039-6.354 0-6.494a.833.833 0 0 0-.345-.41.949.949 0 0 0-.56-.064" fill-rule="evenodd" fill="#000"/></svg>