<svg width="24" height="24" fill="none" xmlns="http://www.w3.org/2000/svg"><path d="M10.84 2.28a9.244 9.244 0 0 0-7.062 4.14 9.325 9.325 0 0 0-1.438 3.82c-.092.663-.093 1.848-.003 2.5a9.375 9.375 0 0 0 1.441 3.84c1.408 2.141 3.69 3.629 6.197 4.041 1.331.219 3.047.121 4.245-.242.958-.291 1.571-.623 1.73-.937a.752.752 0 0 0 .014-.674.635.635 0 0 0-.374-.346c-.262-.11-.439-.081-.843.136-1.293.695-3.413.887-5.107.463-1.441-.361-2.636-1.052-3.683-2.127-.644-.662-1.049-1.232-1.418-1.994a7.78 7.78 0 0 1-.56-5.26 7.568 7.568 0 0 1 2.107-3.667c.65-.638 1.251-1.065 2.014-1.434a7.626 7.626 0 0 1 3.042-.777c.601-.034.716-.068.905-.268A.667.667 0 0 0 12.24 3a.667.667 0 0 0-.193-.494c-.227-.24-.441-.28-1.207-.226m5.859 2.056c-.164.071-.366.31-.417.493-.052.187-.052.195.003.391.034.125.169.287.612.74.794.81 1.169 1.324 1.564 2.14.54 1.116.777 2.157.778 3.423.002 1.231-.222 2.288-.681 3.219-.137.277-.198.45-.198.56 0 .098.275.982.719 2.316.396 1.186.714 2.163.707 2.169-.006.007-.361-.106-.789-.251-.51-.172-.846-.264-.977-.267a.728.728 0 0 0-.537 1.254c.132.132.278.189 1.721.667a70.95 70.95 0 0 0 1.686.547c.187.041.469-.056.63-.217.161-.161.258-.443.217-.63-.013-.061-.428-1.326-.921-2.813l-.898-2.702.137-.298c.756-1.648.897-4.124.346-6.087a9.795 9.795 0 0 0-1.756-3.363c-.344-.419-1.178-1.22-1.341-1.288a.88.88 0 0 0-.605-.003" fill-rule="evenodd" fill="#000"/></svg>