<svg width="24" height="24" fill="none" xmlns="http://www.w3.org/2000/svg"><path d="M2.9 2.259a1.438 1.438 0 0 1-.147.037c-.138.031-.339.201-.419.355-.069.134-.089.424-.041.609.023.087 2.508 2.598 9.139 9.233 5.009 5.012 9.162 9.141 9.228 9.176.154.082.524.083.68.001a.847.847 0 0 0 .339-.345c.058-.112.072-.414.028-.585-.023-.087-2.508-2.598-9.139-9.233C7.559 6.495 3.415 2.371 3.36 2.342c-.105-.055-.392-.107-.46-.083m8.86.007a3.748 3.748 0 0 0-2.405 1.092c-.308.306-.654.816-.692 1.019-.06.32.179.718.493.822.207.068.491.034.654-.078a1.48 1.48 0 0 0 .29-.329c.657-.984 1.933-1.32 2.96-.779.31.163.764.618.926.927.164.311.21.479.255.931.048.477.14.654.419.799.157.082.525.081.685-.002.158-.082.328-.282.358-.421.013-.059.031-.13.04-.159.026-.085-.059-.799-.126-1.063-.078-.301-.319-.824-.52-1.126-.41-.619-1.048-1.119-1.804-1.414-.376-.148-1.087-.249-1.533-.219m3.045 6.013c-.294.072-.505.327-.547.663-.047.375-.002 1.262.07 1.398.141.263.364.393.672.393.254 0 .425-.076.575-.255.15-.178.165-.265.165-.978s-.015-.8-.165-.978a.774.774 0 0 0-.77-.243m-9 3a.73.73 0 0 0-.527.544c-.044.192.013 1.022.104 1.497.194 1.017.731 2.144 1.42 2.98.57.692 1.406 1.368 1.778 1.437.466.088.914-.368.836-.852-.04-.248-.139-.371-.547-.678a5.322 5.322 0 0 1-2.011-3.133 7.18 7.18 0 0 1-.096-.8c-.035-.512-.064-.619-.217-.788-.167-.185-.476-.271-.74-.207m12 0c-.373.091-.562.401-.564.928-.001.125-.02.363-.043.529-.049.354-.009.557.148.744.151.18.32.253.585.253.192 0 .26-.02.397-.116.209-.148.299-.323.35-.684.065-.455.067-1.136.005-1.253a.774.774 0 0 0-.878-.401m-4.93 5.899c-.01.01-.263.036-.563.057-.551.039-.657.067-.826.22-.22.2-.225.229-.239 1.552l-.012 1.228-1.228.012c-.947.01-1.25.026-1.327.068a.88.88 0 0 0-.35.345c-.082.157-.081.525.002.685.08.153.277.325.421.365.14.039 6.354.039 6.494 0 .144-.04.341-.212.421-.365.078-.151.086-.525.014-.665a.89.89 0 0 0-.342-.354c-.103-.057-.296-.068-1.35-.079l-1.23-.012v-1.544l.222-.023c.292-.03.491-.137.635-.34.096-.137.116-.205.116-.397 0-.264-.073-.434-.253-.585-.159-.133-.535-.238-.605-.168" fill-rule="evenodd" fill="#000"/></svg>