<svg width="24" height="24" fill="none" xmlns="http://www.w3.org/2000/svg"><path d="M11.595 2.282a3.396 3.396 0 0 0-1.143.318c-.855.399-1.406.94-1.813 1.78-.224.46-.303.739-.358 1.265-.052.492-.052 6.218 0 6.71.052.493.132.794.319 1.193.399.855.94 1.406 1.78 1.813a3.21 3.21 0 0 0 1.255.356 3.564 3.564 0 0 0 1.985-.356c.84-.407 1.381-.958 1.78-1.813.322-.688.369-1.116.352-3.21-.013-1.686-.012-1.678-.238-1.883-.157-.142-.283-.188-.514-.188-.231 0-.357.046-.514.188-.228.207-.224.171-.248 2.185-.017 1.354-.037 1.903-.074 2.02-.163.506-.645 1.085-1.104 1.327a2.325 2.325 0 0 1-2.12 0c-.309-.163-.764-.618-.927-.927-.26-.493-.253-.388-.253-4.06 0-3.672-.007-3.567.253-4.06.163-.309.618-.764.927-.927a2.325 2.325 0 0 1 2.12 0c.31.163.764.618.926.927.164.311.21.479.255.931.048.477.14.654.419.799.157.082.525.081.685-.002.158-.082.328-.282.358-.421.013-.059.031-.13.04-.159.026-.085-.059-.799-.126-1.063-.078-.301-.319-.824-.52-1.126-.52-.784-1.414-1.382-2.324-1.555a3.993 3.993 0 0 0-1.178-.062m-5.79 8.997a.73.73 0 0 0-.527.544c-.044.192.013 1.022.104 1.497.194 1.017.731 2.144 1.42 2.98.57.692 1.406 1.368 1.778 1.437.466.088.914-.368.836-.852-.04-.248-.139-.371-.547-.678a5.322 5.322 0 0 1-2.011-3.133 7.18 7.18 0 0 1-.096-.8c-.035-.512-.064-.619-.217-.788-.167-.185-.476-.271-.74-.207m12.095-.02a1.438 1.438 0 0 1-.147.037c-.138.031-.339.201-.418.353-.038.074-.075.309-.096.607-.099 1.393-.594 2.501-1.538 3.445-.944.944-2.052 1.439-3.445 1.538-.505.036-.65.08-.801.247-.192.212-.194.229-.208 1.521l-.012 1.228-1.228.012c-1.051.011-1.244.023-1.347.079a.89.89 0 0 0-.342.354c-.072.14-.064.514.014.665.08.153.277.325.421.365.14.039 6.354.039 6.494 0 .144-.04.341-.212.421-.365.083-.16.084-.528.002-.685a.88.88 0 0 0-.35-.345c-.077-.042-.381-.058-1.33-.068l-1.23-.012V18.69l.25-.027c.138-.016.421-.071.63-.124 2.661-.674 4.664-2.899 5.036-5.599.067-.486.071-1.141.007-1.26a.855.855 0 0 0-.323-.339c-.106-.055-.393-.106-.46-.082" fill-rule="evenodd" fill="#000"/></svg>