<svg width="24" height="24" fill="none" xmlns="http://www.w3.org/2000/svg"><path d="M11.32 2.28c-1.879.127-3.672.802-5.236 1.972-.493.368-1.464 1.339-1.832 1.832a9.794 9.794 0 0 0-1.895 4.524 10.9 10.9 0 0 0 0 2.784 9.794 9.794 0 0 0 1.895 4.524c.368.493 1.339 1.464 1.832 1.832a9.768 9.768 0 0 0 4.524 1.894 10.32 10.32 0 0 0 3.804-.2 9.913 9.913 0 0 0 3.504-1.694c.493-.369 1.463-1.339 1.832-1.832a9.763 9.763 0 0 0 1.894-4.524 10.9 10.9 0 0 0 0-2.784 9.763 9.763 0 0 0-1.894-4.524c-.369-.493-1.339-1.463-1.832-1.832-1.13-.846-2.524-1.495-3.796-1.766a10.872 10.872 0 0 0-2.8-.206m1.86 1.558a8.233 8.233 0 0 1 3.829 1.607c.425.321 1.225 1.121 1.546 1.546a8.266 8.266 0 0 1 .444 9.375 8.679 8.679 0 0 1-2.633 2.633 8.27 8.27 0 0 1-8.732 0 8.679 8.679 0 0 1-2.633-2.633c-1.51-2.435-1.659-5.493-.392-8.023.433-.864.868-1.465 1.568-2.166.879-.878 1.824-1.491 2.948-1.911a8.455 8.455 0 0 1 4.055-.428m-6.375 7.441c-.382.092-.618.496-.526.898.071.31.317.522.653.563.114.014 1.351.019 2.748.012 2.765-.013 2.653-.004 2.865-.238.142-.157.188-.283.188-.514a.713.713 0 0 0-.393-.674c-.108-.059-.386-.067-2.76-.073-1.452-.003-2.701.008-2.775.026m7.615-.021a1.597 1.597 0 0 1-.149.039c-.147.032-.39.251-.457.411a.736.736 0 0 0 .201.842c.08.071.196.143.256.159.141.04 2.835.04 2.976.001.144-.04.341-.212.421-.365.078-.151.086-.525.014-.665a.89.89 0 0 0-.342-.354c-.104-.057-.301-.067-1.5-.074a37.738 37.738 0 0 0-1.42.006" fill-rule="evenodd" fill="#000"/></svg>