<svg width="24" height="24" fill="none" xmlns="http://www.w3.org/2000/svg"><path d="M3.805 11.28c-.381.091-.618.495-.526.897.071.31.318.523.653.563.114.013 2.026.019 4.248.012 3.67-.011 4.051-.018 4.16-.078a.713.713 0 0 0 .393-.674.713.713 0 0 0-.393-.674c-.109-.06-.49-.067-4.26-.072-2.277-.004-4.201.008-4.275.026m11-.001c-.382.092-.618.496-.526.898.071.31.317.522.653.563.114.014 1.351.019 2.748.012 2.765-.013 2.653-.004 2.865-.238.142-.157.188-.283.188-.514a.713.713 0 0 0-.393-.674c-.108-.059-.386-.067-2.76-.073-1.452-.003-2.701.008-2.775.026" fill-rule="evenodd" fill="#000"/></svg>