<svg width="24" height="24" fill="none" xmlns="http://www.w3.org/2000/svg"><path d="M2.701 5.284c-.333.049-.64.214-.921.496-.292.291-.445.587-.498.96-.055.38-.055 10.14 0 10.52.022.154.089.379.148.5.14.282.528.67.81.81.343.17.688.196 2.42.182 1.688-.013 1.68-.012 1.885-.238.142-.157.188-.283.188-.514 0-.231-.046-.357-.188-.514-.206-.227-.187-.225-1.984-.238-1.455-.011-1.668-.02-1.73-.076-.067-.061-.071-.335-.071-5.172 0-4.876.003-5.111.072-5.173.066-.06.52-.066 5.23-.076 5.522-.012 5.225-.001 5.452-.206.15-.136.219-.308.219-.545 0-.237-.069-.409-.219-.545-.227-.206.071-.195-5.434-.2-2.827-.004-5.247.01-5.379.029m15.104-.004c-.733.173-.719 1.271.018 1.442.086.02.861.037 1.721.037 1.463.001 1.568.006 1.63.074.061.067.066.484.066 5.174 0 4.871-.003 5.104-.072 5.166-.067.06-.555.067-5.73.076-5.177.01-5.668.017-5.778.077a.713.713 0 0 0-.393.674c0 .307.128.528.393.674.11.06.595.067 5.68.078 3.722.007 5.666-.003 5.88-.031.414-.054.695-.195 1-.501.292-.291.445-.587.498-.96.055-.38.055-10.14 0-10.52-.053-.373-.206-.669-.498-.96-.291-.292-.587-.445-.96-.498-.328-.047-3.257-.049-3.455-.002M5.699 8.816c-.149.065-.367.308-.408.455-.04.142-.04 5.316 0 5.458.042.152.262.392.417.457a.85.85 0 0 0 .584 0c.155-.065.375-.305.417-.457.04-.142.04-5.316 0-5.458-.042-.152-.262-.392-.417-.457a.881.881 0 0 0-.593.002m5.734-.018a3.113 3.113 0 0 0-1.775.967c-.412.433-.635.813-.787 1.343-.129.45-.129 1.334 0 1.784a3.325 3.325 0 0 0 2.237 2.237c.45.129 1.334.129 1.784 0 .53-.152.91-.375 1.343-.787.446-.425.733-.89.894-1.45.129-.45.129-1.334 0-1.784-.302-1.052-1.178-1.933-2.215-2.23-.329-.093-1.16-.138-1.481-.08m6.266.018c-.149.065-.367.308-.408.455-.04.142-.04 5.316 0 5.458.042.152.262.392.417.457a.85.85 0 0 0 .584 0c.155-.065.375-.305.417-.457.04-.142.04-5.316 0-5.458-.042-.152-.262-.392-.417-.457a.881.881 0 0 0-.593.002m-5.333 1.482c.368.078.571.192.864.485.412.412.586.938.492 1.487-.069.401-.204.66-.498.954-.419.418-.942.593-1.494.498a1.597 1.597 0 0 1-.954-.498 1.597 1.597 0 0 1-.498-.954c-.094-.549.08-1.075.492-1.487.287-.288.497-.408.846-.483.318-.07.43-.07.75-.002" fill-rule="evenodd" fill="#000"/></svg>