<svg width="24" height="24" fill="none" xmlns="http://www.w3.org/2000/svg"><path d="M3.805 3.279c-.291.07-.506.328-.544.653-.014.114-.019 3.826-.013 8.248.011 7.504.017 8.048.081 8.165.084.155.282.325.424.365.14.039 3.354.039 3.494 0 .144-.04.341-.212.421-.365.078-.151.086-.525.014-.665a.89.89 0 0 0-.342-.354c-.103-.057-.296-.068-1.35-.079l-1.23-.012V4.763l2.73-.012c2.452-.01 2.742-.018 2.85-.077A.713.713 0 0 0 10.733 4a.713.713 0 0 0-.393-.674c-.109-.06-.421-.067-3.26-.072-1.727-.004-3.201.008-3.275.025m10 0c-.615.15-.744.984-.209 1.348.187.128.385.14 2.084.126 1.628-.014 1.618-.013 1.834-.208.15-.136.219-.308.219-.545 0-.237-.069-.409-.219-.545-.217-.197-.196-.195-1.934-.202-.902-.004-1.701.008-1.775.026m6.095-.02a1.795 1.795 0 0 1-.16.04c-.091.019-1.353 1.257-5.233 5.133-2.812 2.81-5.141 5.162-5.176 5.228-.082.154-.083.524-.001.68a.849.849 0 0 0 .35.342c.139.072.515.064.66-.013.066-.035 2.091-2.036 4.5-4.447l4.38-4.382.02 2.19c.018 1.938.028 2.204.086 2.31a.89.89 0 0 0 .354.342c.14.072.514.064.665-.014.153-.08.325-.277.365-.421.017-.059.03-1.541.03-3.294V3.767l-.121-.172a.947.947 0 0 0-.24-.239c-.118-.067-.401-.125-.479-.097m-.095 10.02a.73.73 0 0 0-.527.544c-.02.086-.037 1.34-.037 2.786l-.001 2.629-3.73.011c-3.383.01-3.741.017-3.85.077a.89.89 0 0 0-.342.354c-.072.14-.064.514.014.665.08.153.277.325.421.365.14.039 8.354.039 8.494 0 .142-.04.34-.21.424-.365.064-.115.069-.377.069-3.305 0-1.749-.013-3.228-.03-3.287a.833.833 0 0 0-.345-.41.949.949 0 0 0-.56-.064" fill-rule="evenodd" fill="#000"/></svg>