<svg width="24" height="24" fill="none" xmlns="http://www.w3.org/2000/svg"><path d="M4.805 5.279c-.291.071-.506.328-.544.653-.014.114-.02 2.926-.013 6.248.013 6.471.001 6.106.207 6.334.136.15.308.219.545.219.237 0 .409-.069.545-.219.206-.227.194.091.206-5.727.007-3.521.024-5.429.05-5.42.074.025 7.716 4.613 7.716 4.633 0 .011-1.217.749-2.706 1.64a324.374 324.374 0 0 0-2.88 1.735c-.677.447-.235 1.526.552 1.349.245-.055 6.977-4.103 7.106-4.272a.746.746 0 0 0-.044-.948c-.069-.072-2.411-1.5-5.205-3.174C6.476 6.015 5.222 5.281 5.1 5.266a.987.987 0 0 0-.295.013m14 0c-.291.071-.506.328-.544.653-.014.114-.02 2.926-.013 6.248.01 5.033.021 6.057.067 6.14a.88.88 0 0 0 .345.35c.157.082.525.081.685-.002.153-.08.325-.277.365-.421.039-.14.039-12.354 0-12.494a.833.833 0 0 0-.345-.41.949.949 0 0 0-.56-.064" fill-rule="evenodd" fill="#000"/></svg>