<svg width="24" height="24" fill="none" xmlns="http://www.w3.org/2000/svg"><path d="M10.9 2.279a2.487 2.487 0 0 0-1.794 1.277 2.897 2.897 0 0 0-.183.424c-.024.088-.279 1.995-.566 4.239a576.03 576.03 0 0 1-.529 4.083c-.004.002-.134.037-.288.076-.376.096-1.023.407-1.329.638a4.447 4.447 0 0 0-1.371 1.798c-.26.649-.295.85-.295 1.706-.001.735.006.8.108 1.132.35 1.139 1.073 1.94 2.247 2.49.662.31 1.499.518 2.278.566.386.024.403.029.56.17.271.242.446.358.791.523.508.243.879.325 1.471.325.592 0 .963-.082 1.471-.325.345-.165.52-.281.791-.523.157-.141.174-.146.56-.17 1.36-.084 2.653-.589 3.486-1.364a3.82 3.82 0 0 0 1.06-1.764c.077-.279.088-.417.087-1.08-.001-.833-.038-1.044-.295-1.686a4.447 4.447 0 0 0-1.371-1.798c-.306-.231-.953-.542-1.329-.638a7.843 7.843 0 0 1-.288-.076 36.414 36.414 0 0 1-.131-.983c-.127-1.004-.155-1.13-.29-1.302-.239-.303-.785-.336-1.084-.065a.824.824 0 0 0-.227.507c0 .211.317 2.661.362 2.804.041.128.235.335.385.412.049.025.26.063.471.085.636.066 1.015.237 1.458.657.577.548.884 1.275.884 2.095 0 .945-.486 1.732-1.341 2.173-.35.181-.822.354-1.173.43l-.174.038.023-.126.067-.393c.04-.24.055-.267.151-.287.181-.036.383-.199.48-.387a.737.737 0 0 0-.323-.995c-.241-.117-.965-.122-1.215-.008-.309.14-.365.264-.52 1.15-.17.978-.278 1.235-.67 1.603-.395.369-.788.528-1.305.528-.517 0-.91-.159-1.305-.528-.387-.363-.503-.635-.656-1.533-.132-.783-.195-.973-.368-1.118-.178-.15-.369-.188-.879-.173-.451.014-.469.018-.618.138-.22.178-.305.344-.305.594 0 .354.236.661.559.726.119.023.127.038.17.29l.067.393.023.126-.174-.038a5.275 5.275 0 0 1-1.173-.43C6.486 18.244 6 17.457 6 16.512c0-.82.307-1.547.884-2.095.443-.42.822-.591 1.458-.657.211-.022.422-.06.471-.085.15-.077.344-.284.385-.412.022-.068.284-2.049.583-4.403.299-2.354.56-4.345.581-4.424a.97.97 0 0 1 .392-.535l.173-.121.973-.013c1.069-.013 1.199.004 1.431.196.268.221.301.334.471 1.628.175 1.332.2 1.405.528 1.564.298.145.62.104.844-.108.167-.158.226-.298.226-.537 0-.325-.272-2.363-.344-2.58a2.475 2.475 0 0 0-1.558-1.554c-.31-.107-.345-.11-1.338-.12-.561-.006-1.128.005-1.26.023" fill-rule="evenodd" fill="#000"/></svg>