<svg width="24" height="24" fill="none" xmlns="http://www.w3.org/2000/svg"><path d="M4.701 3.283c-.334.051-.641.216-.921.497-.292.291-.445.587-.498.96-.052.364-.052 3.156 0 3.52.068.48.39.975.782 1.204l.175.103.01 5.326c.01 4.943.016 5.336.08 5.452.084.155.282.325.424.365.14.039 14.354.039 14.494 0 .142-.04.34-.21.424-.365.064-.115.069-.405.069-3.805 0-2.024-.013-3.728-.03-3.787-.04-.144-.212-.341-.365-.421-.151-.078-.525-.086-.665-.014a.89.89 0 0 0-.354.342c-.06.108-.067.433-.077 3.35l-.011 3.23H5.76V9.76l6.61-.001c4.192 0 6.712-.015 6.89-.041.373-.053.669-.206.96-.498.292-.291.445-.587.498-.96.052-.364.052-3.156 0-3.52-.053-.373-.206-.669-.498-.96-.305-.306-.586-.447-1-.501-.21-.028-1.543-.039-3.88-.031-3.224.011-3.571.018-3.68.078a.713.713 0 0 0-.393.674c0 .307.128.528.393.674.109.06.462.067 3.778.077 3.315.01 3.665.017 3.73.076.067.061.072.176.072 1.673 0 1.507-.005 1.612-.073 1.674-.068.061-.623.066-7.174.066-6.828 0-7.103-.003-7.167-.073-.059-.066-.066-.241-.066-1.674 0-1.474.006-1.606.07-1.664.06-.054.24-.065 1.23-.076 1.249-.014 1.286-.02 1.485-.239.142-.157.188-.283.188-.514 0-.231-.046-.357-.188-.514-.199-.22-.236-.225-1.465-.232-.627-.004-1.247.009-1.379.029m5.104 8.996c-.382.093-.618.496-.526.898.071.31.317.522.653.563.114.014 1.126.019 2.248.013 2.166-.014 2.114-.009 2.334-.208.15-.136.219-.308.219-.545 0-.237-.069-.409-.219-.545-.221-.2-.158-.195-2.434-.202-1.177-.003-2.201.008-2.275.026" fill-rule="evenodd" fill="#000"/></svg>