<svg width="24" height="24" fill="none" xmlns="http://www.w3.org/2000/svg"><path d="M11.2 6.943a24.56 24.56 0 0 0-1.44.162c-2.637.412-5.11 1.567-7.213 3.368C1.261 11.575.979 11.988.931 12.848c-.028.484.03.799.219 1.192.133.277.229.385 1.267 1.423.974.974 1.16 1.142 1.403 1.267.738.379 1.537.341 2.579-.124.831-.371 1.725-.968 2.259-1.509.661-.669.855-1.312.801-2.657-.022-.542-.041-.691-.108-.833-.25-.532-1.041-.535-1.312-.005-.071.139-.079.238-.079.959 0 .467-.019.879-.045.984-.13.514-1.452 1.486-2.501 1.838-.381.128-.661.136-.875.026-.089-.046-.576-.502-1.105-1.036-.826-.832-.952-.976-.994-1.131a.935.935 0 0 1 .067-.631c.11-.233 1.099-1.116 1.916-1.712a12.787 12.787 0 0 1 7.517-2.462c1.907 0 3.53.338 5.26 1.096.502.22.754.255.981.136a.742.742 0 0 0 .343-.969c-.111-.24-.219-.318-.806-.575a14.036 14.036 0 0 0-4.153-1.103c-.53-.059-2.019-.108-2.365-.079m1.395 3.972a.727.727 0 0 0-.153 1.101c.149.169.339.246.698.281a14.4 14.4 0 0 1 1.213.185l.207.045v.426c.001 1.013.201 1.522.86 2.187.62.625 1.856 1.378 2.733 1.665.309.101.477.13.83.145.527.023.764-.02 1.176-.216.28-.133.379-.222 1.423-1.269 1.218-1.221 1.296-1.323 1.443-1.905.092-.367.058-1.005-.072-1.361-.196-.531-.627-1.028-.968-1.114a.729.729 0 0 0-.883.444c-.12.287-.055.543.215.852.259.296.329.551.239.879-.037.131-.215.332-.99 1.115-.988.997-1.125 1.103-1.434 1.104-.386.002-1.207-.345-1.874-.792-.59-.395-.953-.728-1.084-.995l-.114-.232v-.88c0-.849-.003-.885-.092-1.028a.852.852 0 0 0-.22-.227c-.306-.189-2.062-.525-2.742-.525a.63.63 0 0 0-.411.115" fill-rule="evenodd" fill="#000"/></svg>