<svg width="24" height="24" viewBox="0 0 24 24" fill="none" xmlns="http://www.w3.org/2000/svg">
<path d="M19.0265 20.9929C20.0723 21.0873 21.0037 20.2223 20.9995 19.1864V16.4767C21.0105 16.0337 20.858 15.6021 20.5709 15.264C19.7615 14.3106 16.9855 13.7008 15.8851 13.935C15.0274 14.1176 14.4272 14.9788 13.8405 15.5644C12.8062 14.9774 11.8531 14.2682 11.0001 13.4556M8.41019 10.1448C8.9969 9.55929 9.85987 8.96036 10.0428 8.10428C10.2771 7.00777 9.66813 4.24949 8.72131 3.43684C8.38828 3.151 7.96247 2.99577 7.52325 3.00009H4.80811C3.77358 3.00106 2.91287 3.92895 3.00706 4.96919C3.00109 12.5476 8.00134 18.7679 15 20.5073" stroke="#001A72" stroke-width="1.5" stroke-linecap="round" stroke-linejoin="round"/>
</svg>
