<svg width="24" height="24" fill="none" xmlns="http://www.w3.org/2000/svg"><path d="M15.81 3.284c-.243.072-9.224 5.084-9.356 5.222a.766.766 0 0 0-.173.699c.041.156.24.37 1.852 1.985l1.806 1.811-3.307 3.309c-2.376 2.378-3.316 3.344-3.339 3.43-.136.526.167.98.663.993a1.35 1.35 0 0 0 .304-.026c.086-.023 1.052-.963 3.43-3.339L11 14.061l1.81 1.807c1.277 1.274 1.845 1.816 1.93 1.838.186.049.475.029.612-.042a.784.784 0 0 0 .221-.194c.148-.199 2.087-3.709 2.144-3.882.04-.12.04-.193.001-.355-.132-.554-.812-.763-1.216-.375-.071.068-.472.743-.9 1.516l-.773 1.395-3.294-3.294c-1.811-1.811-3.28-3.305-3.264-3.319.016-.014 1.676-.94 3.689-2.056a999.724 999.724 0 0 0 3.782-2.103l.122-.074 1.604 1.609 1.605 1.608-.394.7c-.216.385-.404.757-.417.827-.04.209.053.488.219.654a.721.721 0 0 0 1.017.021c.07-.067.376-.572.681-1.121.525-.946.554-1.012.554-1.221a.91.91 0 0 0-.051-.32c-.065-.128-4.142-4.219-4.302-4.318a.794.794 0 0 0-.57-.078" fill-rule="evenodd" fill="#000"/></svg>