<svg width="24" height="24" fill="none" xmlns="http://www.w3.org/2000/svg"><path d="M11.52 2.282a5.68 5.68 0 0 0-3.576 1.662 5.729 5.729 0 0 0 .001 8.112 5.724 5.724 0 0 0 8.11-.001 5.723 5.723 0 0 0 0-8.11 5.681 5.681 0 0 0-4.535-1.663m1.243 1.541a4.226 4.226 0 0 1 2.235 1.179 4.233 4.233 0 0 1 .535 5.348A4.245 4.245 0 0 1 12 12.24a4.244 4.244 0 0 1-4.177-3.477c-.255-1.344.194-2.775 1.179-3.761.465-.464.922-.75 1.661-1.038.491-.191 1.483-.258 2.1-.141m-.958 11.456c-.291.071-.506.328-.545.653-.014.114-.019 1.351-.012 2.748.011 2.274.019 2.553.078 2.66a.89.89 0 0 0 .354.342c.14.072.514.064.665-.014.153-.08.325-.277.365-.421.039-.14.039-5.354 0-5.494a.833.833 0 0 0-.345-.41.949.949 0 0 0-.56-.064" fill-rule="evenodd" fill="#000"/></svg>