<svg width="24" height="24" fill="none" xmlns="http://www.w3.org/2000/svg"><path d="M8.805 2.279a.73.73 0 0 0-.527.544c-.02.086-.037.332-.037.547l-.001.39H6.539c-1.339 0-1.729.012-1.831.054-.155.065-.375.305-.417.457-.04.141-.041 9.835-.001 9.976.04.144.212.341.365.421.16.083.528.084.685.002a.88.88 0 0 0 .345-.35c.046-.083.057-.871.066-4.59l.011-4.49H8.23l.018.49c.019.539.06.665.274.845a.753.753 0 0 0 .231.135c.14.039 6.354.039 6.494 0a.753.753 0 0 0 .231-.135c.214-.18.255-.306.274-.845l.018-.49h2.466l.012 1.49c.009 1.171.024 1.511.067 1.59a.88.88 0 0 0 .345.35c.157.082.525.081.685-.002.153-.08.325-.277.365-.421.04-.141.039-3.835-.001-3.976-.042-.152-.262-.392-.417-.457-.102-.042-.492-.054-1.826-.054H15.77l-.017-.49c-.018-.499-.046-.605-.208-.784-.215-.237-.037-.225-3.465-.232-1.727-.004-3.201.008-3.275.025M14.24 4.5v.74H9.76V3.76h4.48v.74m-2.435 5.779a.73.73 0 0 0-.527.544c-.02.086-.037.664-.037 1.284l-.001 1.128-1.23.012c-1.326.014-1.355.018-1.555.239-.142.157-.188.283-.188.514 0 .231.046.357.188.514.2.22.229.225 1.552.239l1.228.012.012 1.228c.014 1.323.019 1.352.239 1.552.157.142.283.188.514.188.231 0 .357-.046.514-.188.22-.2.225-.229.239-1.552l.012-1.228 1.228-.012c1.292-.014 1.309-.016 1.521-.208.15-.136.219-.308.219-.545 0-.237-.069-.409-.219-.545-.212-.192-.229-.194-1.521-.208l-1.228-.012-.012-1.228c-.014-1.292-.016-1.309-.208-1.521-.167-.185-.476-.271-.74-.207m7 2a.73.73 0 0 0-.527.544c-.02.088-.037 1.753-.037 3.787l-.001 3.63H5.765l-.012-1.23c-.011-1.054-.022-1.247-.079-1.35a.89.89 0 0 0-.354-.342c-.14-.072-.514-.064-.665.014-.153.08-.325.277-.365.421-.017.059-.03.863-.03 1.787 0 1.511.007 1.693.069 1.805.084.155.282.325.424.365.14.039 14.354.039 14.494 0 .142-.04.34-.21.424-.365.064-.116.069-.433.069-4.305 0-2.299-.013-4.228-.03-4.287a.833.833 0 0 0-.345-.41.949.949 0 0 0-.56-.064" fill-rule="evenodd" fill="#000"/></svg>