<svg width="24" height="24" fill="none" xmlns="http://www.w3.org/2000/svg"><path d="M11.805 6.279c-.291.071-.506.328-.544.653-.014.114-.02 2.476-.013 5.248.013 5.395.002 5.107.207 5.334.136.15.308.219.545.219.237 0 .409-.069.545-.219.2-.221.194-.153.207-2.522l.011-2.229 2.229-.011c2.422-.013 2.342-.006 2.553-.238.142-.157.188-.283.188-.514 0-.231-.046-.357-.188-.514-.211-.232-.131-.225-2.553-.238l-2.229-.011-.011-2.229c-.013-2.369-.007-2.301-.207-2.522-.167-.185-.476-.271-.74-.207m-5 5c-.615.15-.744.984-.209 1.348.184.126.394.14 1.824.126 1.397-.014 1.395-.014 1.627-.259A.667.667 0 0 0 10.24 12a.667.667 0 0 0-.193-.494c-.234-.248-.218-.245-1.727-.253-.759-.004-1.441.008-1.515.026" fill-rule="evenodd" fill="#000"/></svg>