<svg width="24" height="24" fill="none" xmlns="http://www.w3.org/2000/svg"><path d="M11.805 3.279c-.291.071-.506.328-.545.653-.013.114-.019 2.026-.012 4.248.011 3.67.018 4.051.078 4.16a.89.89 0 0 0 .354.342c.14.072.514.064.665-.014.153-.08.325-.277.365-.421.039-.14.039-8.354 0-8.494a.833.833 0 0 0-.345-.41.949.949 0 0 0-.56-.064M7.64 7.606c-.202.123-.583.42-.86.67-1.12 1.013-1.997 2.515-2.335 4.004-.175.768-.236 1.843-.118 2.06.144.264.365.393.673.393.231 0 .357-.046.514-.188.174-.158.213-.294.249-.868.101-1.612.733-3.022 1.841-4.105a9.97 9.97 0 0 1 .654-.58c.175-.139.353-.312.396-.385.193-.332.039-.836-.306-1.003-.23-.112-.523-.111-.708.002m8.009-.001c-.343.17-.495.671-.303 1.002.043.073.221.247.396.387 1.291 1.033 2.045 2.22 2.387 3.752.075.336.088.518.088 1.234.001.727-.011.896-.09 1.254-.202.924-.598 1.809-1.122 2.506-.266.354-.82.914-1.185 1.197a6.34 6.34 0 0 1-2.565 1.184c-.507.109-1.512.149-2.027.081a6.402 6.402 0 0 1-3.388-1.543c-.372-.331-.485-.39-.74-.39a.722.722 0 0 0-.74.735c0 .247.085.394.398.689 2.289 2.155 5.802 2.662 8.662 1.249.869-.429 1.464-.866 2.161-1.587 1.28-1.326 2.005-2.96 2.138-4.818a7.687 7.687 0 0 0-1.315-4.883c-.543-.807-1.377-1.642-2.044-2.048-.186-.114-.483-.114-.711-.001" fill-rule="evenodd" fill="#000"/></svg>