<svg width="24" height="24" viewBox="0 0 24 24" fill="none" xmlns="http://www.w3.org/2000/svg">
<path d="M19 17C20.1046 17 21 17.8954 21 19C21 20.1046 20.1046 21 19 21C17.8954 21 17 20.1046 17 19C17 17.8954 17.8954 17 19 17ZM19 17V15.5C19 14.837 18.7366 14.2011 18.2678 13.7322C17.7989 13.2634 17.163 13 16.5 13C15.837 13 15.2011 13.2634 14.7322 13.7322C14.2634 14.2011 14 14.837 14 15.5V17C14 17.7956 13.6839 18.5587 13.1213 19.1213C12.5587 19.6839 11.7956 20 11 20C10.2044 20 9.44129 19.6839 8.87868 19.1213C8.31607 18.5587 8 17.7956 8 17V13M8 5.5V8L9.25 9.25M8 13C10.7614 13 13 10.7614 13 8C13 7.4774 12.9198 6.97352 12.7711 6.5M8 13C5.23858 13 3 10.7614 3 8C3 5.23858 5.23858 3 8 3C8.64034 3 9.25257 3.12037 9.81529 3.33973" stroke="#001A72" stroke-width="1.5" stroke-linecap="round" stroke-linejoin="round"/>
</svg>
