<svg width="24" height="24" fill="none" xmlns="http://www.w3.org/2000/svg"><path d="M7.52 2.282a5.677 5.677 0 0 0-3.576 1.662 5.729 5.729 0 0 0 .001 8.112c.814.812 1.848 1.367 2.925 1.571l.37.07.001 1.641c.001 2.17.041 2.529.359 3.21.399.855.94 1.406 1.78 1.813a3.564 3.564 0 0 0 1.985.356 3.21 3.21 0 0 0 1.255-.356c.84-.407 1.381-.958 1.78-1.813.289-.618.358-1.088.36-2.448.001-.925.021-1.07.201-1.422.048-.095.176-.265.283-.378a1.726 1.726 0 0 1 2.512 0c.382.404.483.713.484 1.485v.564l-.233.085c-.496.181-1.076.668-1.362 1.142-.51.847-.51 1.997 0 2.849.173.29.64.757.93.93.852.51 1.998.51 2.85 0 .29-.173.757-.64.93-.93.51-.852.51-2.002 0-2.849-.286-.474-.866-.961-1.362-1.142l-.233-.085-.001-.404c-.001-.583-.063-1.09-.177-1.45-.258-.813-.923-1.567-1.706-1.934-.834-.39-1.916-.391-2.745-.003a3.286 3.286 0 0 0-1.774 2.142c-.075.278-.09.482-.116 1.56-.019.79-.048 1.298-.079 1.4-.154.497-.642 1.084-1.102 1.327a2.325 2.325 0 0 1-2.12 0c-.309-.163-.764-.618-.927-.927-.245-.466-.253-.543-.253-2.547v-1.816l.37-.07a5.676 5.676 0 0 0 2.925-1.572 5.74 5.74 0 0 0 1.523-5.415c-.119-.494-.228-.679-.468-.795a.745.745 0 0 0-.938.221c-.097.127-.112.184-.112.411.001.145.041.446.09.669.302 1.37-.136 2.835-1.152 3.852A4.186 4.186 0 0 1 8 12.24a4.244 4.244 0 0 1-4.177-3.477c-.255-1.344.194-2.775 1.179-3.761A4.171 4.171 0 0 1 7.994 3.76c.521.001.823.047 1.305.202.203.065.439.118.525.117a.743.743 0 0 0 .678-1.018c-.12-.315-.37-.453-1.166-.645-.316-.076-1.311-.195-1.416-.169-.011.002-.191.018-.4.035m.179 2.534c-.149.065-.367.308-.408.455-.017.06-.031.748-.031 1.529 0 1.392.002 1.423.088 1.56.048.077.408.458.8.846.782.776.869.831 1.233.776.154-.023.225-.064.381-.22s.197-.227.22-.381c.053-.352-.011-.461-.644-1.101l-.573-.58-.013-1.2c-.013-1.309-.014-1.317-.258-1.547a.756.756 0 0 0-.795-.137m11.755 13.025c.29.109.596.415.705.705.176.471.068.975-.285 1.328-.781.781-2.114.23-2.114-.874 0-.342.12-.629.366-.874a1.236 1.236 0 0 1 1.328-.285" fill-rule="evenodd" fill="#000"/></svg>