<svg width="24" height="24" fill="none" xmlns="http://www.w3.org/2000/svg"><path d="M4.805 5.279c-.291.071-.506.328-.544.653-.014.114-.02 2.926-.013 6.248.01 5.033.021 6.057.067 6.14a.88.88 0 0 0 .345.35c.157.082.525.081.685-.002.153-.08.325-.277.365-.421.039-.14.039-12.354 0-12.494a.833.833 0 0 0-.345-.41.949.949 0 0 0-.56-.064m14.031-.012c-.057.009-2.405 1.399-5.219 3.087-5.711 3.427-5.347 3.179-5.353 3.641-.006.455-.167.338 3.456 2.515 3.993 2.398 3.679 2.221 3.934 2.223.756.007 1.034-.944.401-1.367-.088-.058-1.377-.835-2.866-1.726-1.488-.891-2.706-1.629-2.706-1.64 0-.02 7.642-4.608 7.716-4.633.026-.009.043 1.899.05 5.42.009 4.52.02 5.45.066 5.533a.88.88 0 0 0 .345.35c.157.082.525.081.685-.002.153-.08.325-.277.365-.421.039-.14.039-12.354 0-12.494a.833.833 0 0 0-.345-.41 1.078 1.078 0 0 0-.529-.076" fill-rule="evenodd" fill="#000"/></svg>