<svg width="24" height="24" fill="none" xmlns="http://www.w3.org/2000/svg"><path d="M11.514 4.281a4.659 4.659 0 0 0-2.107.744c-.415.274-1.123.968-1.361 1.335-.354.544-.646 1.286-.646 1.639 0 .52.439.848.938.703.287-.083.425-.247.561-.666.187-.58.417-.948.846-1.358.485-.464.903-.695 1.527-.843.287-.069.432-.08.828-.064.555.023.807.084 1.357.331.445.2.623.22.86.1.295-.151.476-.484.422-.775-.055-.293-.179-.433-.56-.636a4.757 4.757 0 0 0-2.665-.51m4.111 3.016a.767.767 0 0 0-.451.453c-.063.164-.063.2 0 .563.124.717.07 1.312-.163 1.8-.149.311-.652.805-1.371 1.346-1.433 1.079-2.044 1.982-2.282 3.375-.105.609-.119 1.343-.031 1.506.144.264.365.393.673.393.231 0 .357-.046.514-.188.172-.156.213-.296.249-.841.056-.854.237-1.434.612-1.96.238-.333.563-.629 1.329-1.212.645-.491 1.164-.986 1.411-1.345.19-.275.425-.8.505-1.127.2-.814.123-2.131-.147-2.509-.165-.233-.573-.355-.848-.254M11.72 18.304c-.301.13-.453.363-.453.696-.001.446.287.733.733.733a.712.712 0 0 0 .682-.413c.071-.137.064-.514-.012-.66-.182-.348-.603-.507-.95-.356" fill-rule="evenodd" fill="#000"/></svg>