<svg width="24" height="24" fill="none" xmlns="http://www.w3.org/2000/svg"><path d="M11.56 6.279c-1.336.14-2.556 1.046-3.042 2.259-.102.255-.123.358-.109.527a.71.71 0 0 0 .732.669c.358-.005.575-.182.756-.618.43-1.033 1.588-1.571 2.749-1.275.352.09.532.078.743-.049.566-.341.428-1.159-.229-1.359a4.262 4.262 0 0 0-1.6-.154m3.065 2.018c-.292.107-.505.396-.505.683 0 .082.029.259.064.394.079.299.057.85-.042 1.08-.103.24-.386.512-1.04 1.002-1.038.777-1.48 1.354-1.701 2.218-.095.376-.171 1.104-.134 1.298.106.558.745.819 1.168.477.233-.189.283-.312.327-.807.086-.98.283-1.277 1.398-2.108 1.07-.798 1.453-1.365 1.558-2.311.065-.578-.044-1.324-.24-1.645-.153-.25-.566-.387-.853-.281m-2.905 8.007c-.301.13-.453.363-.453.696-.001.446.287.733.733.733a.712.712 0 0 0 .682-.413c.071-.137.064-.514-.012-.66-.182-.348-.603-.507-.95-.356" fill-rule="evenodd" fill="#000"/></svg>