<svg width="24" height="24" fill="none" xmlns="http://www.w3.org/2000/svg"><path d="M11.32 2.28c-1.879.127-3.672.802-5.236 1.972-.493.368-1.464 1.339-1.832 1.832a9.794 9.794 0 0 0-1.895 4.524 10.9 10.9 0 0 0 0 2.784 9.794 9.794 0 0 0 1.895 4.524c.368.493 1.339 1.464 1.832 1.832a9.768 9.768 0 0 0 4.524 1.894 10.32 10.32 0 0 0 3.804-.2 9.913 9.913 0 0 0 3.504-1.694c.493-.369 1.463-1.339 1.832-1.832a9.763 9.763 0 0 0 1.894-4.524 10.9 10.9 0 0 0 0-2.784 9.763 9.763 0 0 0-1.894-4.524c-.369-.493-1.339-1.463-1.832-1.832-1.13-.846-2.524-1.495-3.796-1.766a10.872 10.872 0 0 0-2.8-.206m1.86 1.558a8.233 8.233 0 0 1 3.829 1.607c.425.321 1.225 1.121 1.546 1.546a8.266 8.266 0 0 1 .444 9.375 8.679 8.679 0 0 1-2.633 2.633 8.27 8.27 0 0 1-8.732 0 8.679 8.679 0 0 1-2.633-2.633c-1.51-2.435-1.659-5.493-.392-8.023.433-.864.868-1.465 1.568-2.166.879-.878 1.824-1.491 2.948-1.911a8.455 8.455 0 0 1 4.055-.428m-1.62 2.441c-1.336.14-2.556 1.046-3.042 2.259-.102.255-.123.358-.109.527a.71.71 0 0 0 .732.669c.357-.005.575-.182.755-.614.434-1.041 1.584-1.576 2.75-1.279.352.09.532.078.743-.049.566-.341.428-1.159-.229-1.359a4.262 4.262 0 0 0-1.6-.154m3.065 2.018c-.292.107-.505.396-.505.683 0 .082.029.259.064.394.079.299.057.85-.042 1.08-.103.24-.386.512-1.04 1.002-1.038.777-1.48 1.354-1.701 2.218-.095.376-.171 1.104-.134 1.298.106.558.745.819 1.168.477.233-.189.283-.312.327-.807.086-.98.283-1.277 1.398-2.108 1.07-.798 1.453-1.365 1.558-2.311.065-.578-.044-1.324-.24-1.645-.153-.25-.566-.387-.853-.281m-2.905 8.007c-.301.13-.453.363-.453.696-.001.446.287.733.733.733a.712.712 0 0 0 .682-.413c.071-.137.064-.514-.012-.66-.182-.348-.603-.507-.95-.356" fill-rule="evenodd" fill="#000"/></svg>