<svg width="24" height="24" fill="none" xmlns="http://www.w3.org/2000/svg"><path d="M6.06 6.284c-1.683.15-3.161 1.391-3.639 3.054-.266.924-.179 2.076.223 2.94.594 1.28 1.916 2.264 3.256 2.422l.24.028 1.7 1.694c1.15 1.146 1.748 1.714 1.849 1.756a.742.742 0 0 0 .805-.131c.262-.248.245.007.258-3.847.013-3.783-.004-4.276-.173-4.861-.389-1.354-1.453-2.459-2.765-2.873a4.435 4.435 0 0 0-1.754-.182m10 0c-1.681.15-3.161 1.391-3.638 3.049-.268.934-.182 2.075.222 2.945.594 1.28 1.916 2.264 3.256 2.422l.24.028 1.7 1.694c1.15 1.146 1.748 1.714 1.849 1.756a.742.742 0 0 0 .805-.131c.262-.248.245.007.258-3.847.013-3.783-.004-4.276-.173-4.861-.389-1.354-1.453-2.459-2.765-2.873a4.435 4.435 0 0 0-1.754-.182M7.38 7.893c.776.254 1.462.939 1.731 1.727l.109.32.011 2.86.012 2.859-1.132-1.124c-.622-.619-1.189-1.155-1.261-1.191-.071-.036-.306-.083-.523-.103-.737-.071-1.285-.319-1.767-.801-.515-.515-.757-1.073-.79-1.822-.022-.495.062-.936.251-1.324.239-.489.783-1.033 1.27-1.271.401-.196.759-.265 1.289-.249.382.012.545.036.8.119m10 0c.776.254 1.462.939 1.731 1.727l.109.32.011 2.86.012 2.859-1.132-1.124c-.622-.619-1.189-1.155-1.261-1.191-.071-.036-.306-.083-.523-.103-.737-.071-1.285-.319-1.767-.801-.515-.515-.757-1.073-.79-1.822-.022-.495.062-.936.251-1.324.239-.489.783-1.033 1.27-1.271.401-.196.759-.265 1.289-.249.382.012.545.036.8.119" fill-rule="evenodd" fill="#000"/></svg>