<svg width="24" height="24" fill="none" xmlns="http://www.w3.org/2000/svg"><path d="M19.805 8.279a.73.73 0 0 0-.527.544c-.02.086-.037 1.126-.037 2.31l-.001 2.153-.53-.475c-2.169-1.945-3.799-2.908-5.639-3.33-1.253-.287-2.842-.286-4.151.002a9.778 9.778 0 0 0-5.806 3.797c-.529.728-1.075 1.763-1.073 2.036a.79.79 0 0 0 .564.725c.195.053.359.023.58-.104.144-.082.2-.162.429-.606 1.309-2.535 3.521-4.105 6.36-4.513.571-.082 1.808-.063 2.338.037 1.775.332 3.175 1.112 5.2 2.896l.532.469-2.132.02c-1.884.018-2.146.028-2.252.086a.89.89 0 0 0-.342.354c-.072.14-.064.514.014.665.08.153.277.325.421.365.14.039 6.354.039 6.494 0 .142-.04.34-.21.424-.365.064-.115.069-.377.069-3.305 0-1.749-.013-3.228-.03-3.287a.833.833 0 0 0-.345-.41.949.949 0 0 0-.56-.064" fill-rule="evenodd" fill="#000"/></svg>