<svg width="24" height="24" fill="none" xmlns="http://www.w3.org/2000/svg"><path d="M9.9 8.259a1.795 1.795 0 0 1-.16.04c-.147.033-1.785 1.641-1.903 1.869-.14.271-.07.685.149.877.223.196.582.253.826.131.159-.079 1.77-1.672 1.857-1.836.077-.145.084-.521.013-.66a.852.852 0 0 0-.322-.339c-.106-.055-.393-.106-.46-.082m4 0a1.438 1.438 0 0 1-.147.037c-.138.031-.339.201-.419.355-.069.135-.089.425-.04.609.022.083.431.521 1.338 1.43L15.938 12l-1.306 1.31c-.907.909-1.316 1.347-1.338 1.43-.048.182-.03.474.038.604a.847.847 0 0 0 .348.338c.138.071.515.064.66-.013.066-.035.843-.789 1.727-1.676 1.654-1.659 1.669-1.677 1.669-1.993 0-.316-.015-.334-1.669-1.993-.884-.887-1.652-1.636-1.707-1.665-.106-.055-.392-.107-.46-.083m-7 3a1.438 1.438 0 0 1-.147.037c-.138.031-.339.201-.419.355-.069.135-.089.425-.04.609.022.084.512.602 1.639 1.733.884.887 1.661 1.641 1.727 1.676.145.077.522.084.66.013a.847.847 0 0 0 .348-.338c.068-.13.086-.422.038-.604-.022-.084-.512-.602-1.639-1.733-.884-.887-1.652-1.636-1.707-1.665-.106-.055-.392-.107-.46-.083" fill-rule="evenodd" fill="#000"/></svg>