<svg width="24" height="24" fill="none" xmlns="http://www.w3.org/2000/svg"><path d="M11.9 6.259a1.438 1.438 0 0 1-.147.037c-.138.031-.339.201-.419.355-.069.135-.089.425-.04.609.022.084.512.602 1.639 1.733.884.887 1.661 1.641 1.727 1.676.145.077.522.084.66.013a.847.847 0 0 0 .348-.338c.068-.13.086-.422.038-.604-.022-.084-.512-.602-1.639-1.733-.884-.887-1.652-1.636-1.707-1.665-.106-.055-.392-.107-.46-.083m-1.72 1.567c-.157.081-1.766 1.678-1.849 1.834-.077.145-.084.521-.013.66a.849.849 0 0 0 .342.35c.156.082.526.081.68-.001.164-.087 1.757-1.698 1.836-1.857.127-.254.048-.673-.162-.857-.222-.195-.597-.253-.834-.129M8.9 13.259a1.438 1.438 0 0 1-.147.037c-.139.031-.339.201-.421.359-.084.161-.084.528-.001.685.035.066.789.843 1.676 1.727 1.659 1.654 1.677 1.669 1.993 1.669.316 0 .334-.015 1.993-1.669.887-.884 1.641-1.661 1.676-1.727.077-.145.084-.522.013-.66a.847.847 0 0 0-.338-.348c-.13-.068-.422-.086-.604-.038-.083.022-.521.431-1.43 1.338l-1.311 1.307-1.289-1.285c-.71-.707-1.326-1.303-1.37-1.325-.092-.045-.38-.091-.44-.07" fill-rule="evenodd" fill="#000"/></svg>