<svg width="24" height="24" viewBox="0 0 24 24" fill="none" xmlns="http://www.w3.org/2000/svg">
<path d="M8.22673 13.3292C8.51492 14.1471 9.06116 14.8493 9.78313 15.3298C10.5051 15.8103 11.3637 16.0432 12.2296 15.9934C13.0954 15.9436 13.9216 15.6137 14.5837 15.0535C15.2458 14.4933 15.7078 13.7332 15.9003 12.8876C16.0927 12.042 16.0051 11.1567 15.6507 10.3652C15.2962 9.57374 14.6941 8.91887 13.9351 8.4993C13.176 8.07974 12.3012 7.91819 11.4424 8.03902C10.0777 8.23101 9.0827 9.23345 8 10M8 10V7M8 10H11M21 12C21 16.9706 16.9706 21 12 21C7.02944 21 3 16.9706 3 12C3 7.02944 7.02944 3 12 3C16.9706 3 21 7.02944 21 12Z" stroke="#001A72" stroke-width="1.5" stroke-linecap="round" stroke-linejoin="round"/>
</svg>
