<svg width="24" height="24" fill="none" xmlns="http://www.w3.org/2000/svg"><path d="M5.617 3.283c-.586.07-1.099.328-1.552.782-.483.482-.714.966-.789 1.652-.061.563-.032 2.473.039 2.603.155.282.372.413.685.413.231 0 .357-.046.514-.188.22-.2.224-.227.246-1.605.019-1.19.026-1.293.104-1.46a1.41 1.41 0 0 1 .685-.64c.215-.08.278-.081 4.604-.071l4.387.011.18.094c.258.135 4.234 4.107 4.387 4.383l.113.203.02 1.38c.017 1.184.029 1.397.086 1.5a.89.89 0 0 0 .354.342c.14.072.514.064.665-.014.153-.08.325-.277.365-.421.056-.198.034-2.763-.025-3.027a3.076 3.076 0 0 0-.407-.927c-.176-.264-4.197-4.296-4.504-4.517a3.134 3.134 0 0 0-.954-.458c-.157-.041-1.137-.054-4.56-.061-2.398-.004-4.488.007-4.643.026m-1.812 8.996c-.291.071-.505.327-.545.653-.014.114-.019 1.405-.011 2.868.017 2.948.009 2.848.29 3.42a2.838 2.838 0 0 0 1.781 1.45c.243.065.677.07 6.68.07s6.437-.005 6.68-.07a2.832 2.832 0 0 0 1.988-1.99c.059-.22.07-.457.071-1.54 0-.704-.012-1.328-.029-1.387-.04-.144-.212-.341-.365-.421-.151-.078-.525-.086-.665-.014a.89.89 0 0 0-.354.342c-.056.102-.069.309-.086 1.4-.023 1.464-.027 1.482-.379 1.829-.341.335-.424.351-1.861.351h-1.237l-.011-2.23c-.011-2.017-.019-2.242-.081-2.355-.084-.155-.282-.325-.424-.365-.14-.039-6.354-.039-6.494 0-.142.04-.34.21-.424.365-.062.113-.07.338-.081 2.355l-.011 2.23H7c-1.437 0-1.52-.016-1.861-.351-.38-.374-.356-.163-.379-3.329-.021-2.959-.014-2.852-.215-3.074-.167-.185-.476-.271-.74-.207M14.24 17.5v1.74H9.76v-3.48h4.48v1.74" fill-rule="evenodd" fill="#000"/></svg>