<svg width="24" height="24" fill="none" xmlns="http://www.w3.org/2000/svg"><path d="M4.701 4.285c-.333.048-.64.213-.921.495-.292.291-.445.587-.498.96-.055.379-.055 9.141 0 9.52.053.373.206.669.498.96.291.292.587.445.96.498.167.024 1.533.041 3.39.041l3.11.001v2.476l-1.73.012c-1.52.011-1.745.02-1.85.078a.89.89 0 0 0-.342.354c-.072.14-.064.514.014.665.08.153.277.325.421.365.14.039 8.354.039 8.494 0 .144-.04.341-.212.421-.365.078-.151.086-.525.014-.665a.89.89 0 0 0-.342-.354c-.105-.058-.33-.067-1.85-.078l-1.73-.012V16.76l3.11-.001c1.857 0 3.223-.017 3.39-.041.373-.053.669-.206.96-.498.306-.305.447-.586.502-1 .027-.202.038-1.08.03-2.38-.013-2.237-.007-2.175-.238-2.385-.157-.142-.283-.188-.514-.188-.231 0-.357.046-.514.188-.232.21-.225.138-.238 2.484-.01 1.919-.018 2.166-.076 2.23-.061.068-.403.071-7.172.071-6.835 0-7.11-.003-7.174-.073-.061-.067-.066-.449-.066-4.674 0-4.406.003-4.603.073-4.667.068-.061.623-.066 7.174-.066 6.712 0 7.104.004 7.163.07.05.056.065.204.078.73.016.702.041.806.238.985.157.142.283.188.514.188.231 0 .357-.046.514-.188.187-.17.221-.293.238-.871.031-1.03-.086-1.449-.532-1.894-.291-.292-.587-.445-.96-.498-.35-.05-14.214-.048-14.559.003m8.019 2.518a.941.941 0 0 0-.389.376c-.084.16-.079.49.008.662.04.076.469.539.954 1.029l.883.89h-3.165c-2.14 0-3.202.014-3.278.043a.75.75 0 0 0-.464.697.75.75 0 0 0 .464.697c.076.029 1.138.043 3.278.043h3.165l-.883.89c-.485.49-.914.953-.954 1.029-.088.174-.092.502-.007.666a.757.757 0 0 0 1.101.28c.236-.164 3.151-3.111 3.228-3.264a.886.886 0 0 0 0-.682c-.079-.155-2.994-3.102-3.234-3.268-.171-.118-.528-.163-.707-.088" fill-rule="evenodd" fill="#000"/></svg>