<svg width="24" height="24" fill="none" xmlns="http://www.w3.org/2000/svg"><path d="M11.811 2.278c-.188.046-.317.142-.441.33l-.11.166v6.183c0 3.401.013 6.231.03 6.29.04.144.212.341.365.421.16.083.528.084.685.002a.88.88 0 0 0 .345-.35c.046-.083.058-.99.075-5.29l.02-5.19 1.38 1.382c.759.761 1.434 1.412 1.5 1.447.145.077.521.085.66.013a.847.847 0 0 0 .348-.338c.067-.13.086-.422.038-.604-.022-.085-.644-.735-2.138-2.233-1.16-1.162-2.153-2.136-2.208-2.165a.935.935 0 0 0-.549-.064M8.9 5.259a2.108 2.108 0 0 1-.16.041c-.136.03-1.302 1.155-1.41 1.36-.081.154-.081.525 0 .68a.849.849 0 0 0 .35.342c.128.066.511.066.64 0 .141-.072 1.272-1.197 1.349-1.342.077-.145.084-.522.013-.66a.852.852 0 0 0-.322-.339c-.106-.055-.393-.106-.46-.082m-5.095 7.02c-.291.071-.505.327-.545.653-.014.114-.019 1.405-.011 2.868.017 2.948.009 2.848.29 3.42a2.813 2.813 0 0 0 1.771 1.442c.321.081.877.092 1.01.021A.716.716 0 0 0 6.733 20c0-.231-.046-.357-.188-.514-.131-.144-.267-.199-.593-.24a2.075 2.075 0 0 1-.476-.115 1.454 1.454 0 0 1-.612-.611c-.082-.176-.084-.243-.104-2.96-.021-2.959-.014-2.852-.215-3.074-.167-.185-.476-.271-.74-.207m16 0a.73.73 0 0 0-.527.544c-.02.086-.037 1.34-.037 2.785-.001 2.537-.004 2.637-.082 2.845a1.412 1.412 0 0 1-.639.683c-.178.083-.225.084-4.46.104-3.528.016-4.298.03-4.38.075a.88.88 0 0 0-.35.345c-.082.157-.081.525.002.685.08.153.277.325.421.365.059.017 2.033.03 4.387.03 3.96 0 4.299-.005 4.54-.07a2.838 2.838 0 0 0 1.99-1.99c.064-.236.07-.511.07-3.04 0-1.529-.013-2.828-.03-2.887a.833.833 0 0 0-.345-.41.949.949 0 0 0-.56-.064" fill-rule="evenodd" fill="#000"/></svg>