<svg width="24" height="24" fill="none" xmlns="http://www.w3.org/2000/svg"><path d="M11.819 2.276c-.39.097-.65.527-.541.894.11.375-.048.284 4.105 2.361L19.24 7.46v.18c0 .272-.108 1.29-.199 1.874-.329 2.115-1.09 4.369-2.066 6.114-1.184 2.118-2.721 3.639-4.425 4.382-.488.213-.622.213-1.1.002-1.45-.64-2.8-1.85-3.865-3.463-1.266-1.919-2.217-4.457-2.622-6.994-.088-.548-.203-1.635-.203-1.915v-.18l1.858-.93c1.977-.989 1.99-.998 2.101-1.342.038-.119.038-.195-.001-.355-.096-.4-.505-.654-.888-.55-.092.024-1.098.511-2.236 1.081C3.372 6.476 3.365 6.48 3.288 6.823c-.041.183.003 1.42.072 2.037a20.227 20.227 0 0 0 1.98 6.76c1.519 3.074 3.551 5.072 6.08 5.98.472.17.688.17 1.16 0 1.1-.395 1.968-.907 2.927-1.727 2.436-2.085 4.353-5.953 5.01-10.113.161-1.019.267-2.616.195-2.937-.081-.358.079-.267-4.365-2.484-2.301-1.148-4.189-2.067-4.267-2.076a.833.833 0 0 0-.261.013" fill-rule="evenodd" fill="#000"/></svg>