<svg width="24" height="24" viewBox="0 0 24 24" fill="none" xmlns="http://www.w3.org/2000/svg">
<path d="M21 7L20.5 12L18 10.5V20H6V15.25M18 4H15C15 4.39397 14.9224 4.78407 14.7716 5.14805C14.6209 5.51203 14.3999 5.84274 14.1213 6.12132C13.8427 6.3999 13.512 6.62087 13.1481 6.77164C12.7841 6.9224 12.394 7 12 7C11.606 7 11.2159 6.9224 10.8519 6.77164C10.488 6.62087 10.1573 6.3999 9.87868 6.12132C9.6001 5.84274 9.37913 5.51203 9.22836 5.14805C9.0776 4.78407 9 4.39397 9 4H6L3 7L3.5 12L6 10.5" stroke="#001A72" stroke-width="1.5" stroke-linecap="round" stroke-linejoin="round"/>
</svg>
