<svg width="24" height="24" fill="none" xmlns="http://www.w3.org/2000/svg"><path d="M5.9 3.259a1.795 1.795 0 0 1-.16.04c-.088.02-.536.441-1.693 1.594-.865.862-1.61 1.618-1.655 1.68a.835.835 0 0 0-.114.258c-.037.16.451 5.21.525 5.436.093.287.514.527.821.47.155-.029 2.682-1.52 2.87-1.692a.71.71 0 0 0 .055-1.031.69.69 0 0 0-.55-.254c-.202 0-.292.043-1.15.558-.38.227-.699.405-.709.395-.01-.01-.095-.787-.189-1.726l-.17-1.708 1.26-1.26L6.3 4.759l1.018.01 1.017.011.054.22c.078.313.409.975.642 1.281.47.619 1.257 1.146 1.994 1.336a4.2 4.2 0 0 0 1.95 0c.737-.19 1.524-.717 1.994-1.336.233-.306.564-.968.641-1.281l.055-.22 1.277-.02c.979-.015 1.301-.033 1.378-.075a.88.88 0 0 0 .35-.345c.082-.157.081-.525-.002-.685-.08-.153-.277-.325-.421-.365-.14-.039-3.354-.039-3.494 0-.14.039-.341.21-.415.353-.032.062-.076.284-.097.492-.068.651-.311 1.151-.748 1.541a2.258 2.258 0 0 1-2.986 0c-.437-.39-.68-.89-.748-1.541-.041-.4-.092-.541-.245-.68-.217-.197-.196-.195-1.934-.203a50.79 50.79 0 0 0-1.68.007m14.915 3.018a.798.798 0 0 0-.455.343c-.075.122-.109.373-.284 2.108-.11 1.082-.207 1.976-.217 1.986-.009.01-.328-.169-.708-.396-.925-.554-.96-.57-1.216-.549a.71.71 0 0 0-.583.37l-.092.161-.011 4.47-.01 4.47H6.763l-.011-2.09-.012-2.09-.106-.18c-.281-.478-.984-.483-1.279-.011l-.095.151v2.6c0 2.38.006 2.611.069 2.725.084.155.282.325.424.365.14.039 12.354.039 12.494 0 .142-.04.34-.21.424-.365.064-.115.071-.456.089-4.314l.02-4.189.728.434c.401.239.792.446.87.461.305.057.726-.184.819-.47.077-.235.566-5.318.525-5.459a.768.768 0 0 0-.907-.531" fill-rule="evenodd" fill="#000"/></svg>