<svg width="24" height="24" viewBox="0 0 24 24" fill="none" xmlns="http://www.w3.org/2000/svg">
<path d="M9 7L9 4L9 3L15 3V4V7M9 7L15 7M9 7H7L7 8M15 7L17 7L17 17H15M15 17V21H14H9L9 20L9 17M15 17H9M9 17H7L7 11.5M7 12.9514H8.97011C9.10328 12.9514 9.22502 12.868 9.28457 12.7361L9.57609 12.0901C9.70565 11.8029 10.0754 11.8029 10.205 12.0901L10.9697 13.7847C11.1016 14.0768 11.4799 14.0703 11.6034 13.7737L13.081 10.2263C13.2077 9.9222 13.5988 9.92528 13.7215 10.2313L14.7198 12.7201C14.7762 12.8607 14.9021 12.9514 15.0411 12.9514H17" stroke="#001A72" stroke-width="1.5" stroke-linecap="round" stroke-linejoin="round"/>
</svg>
