<svg width="24" height="24" fill="none" xmlns="http://www.w3.org/2000/svg"><path d="M2.9 2.259a1.438 1.438 0 0 1-.147.037c-.138.031-.339.201-.419.355-.069.134-.089.424-.041.609.023.087 2.508 2.598 9.139 9.233 5.009 5.012 9.162 9.141 9.228 9.176.154.082.524.083.68.001a.847.847 0 0 0 .339-.345c.058-.112.072-.414.028-.585-.023-.087-2.508-2.598-9.139-9.233C7.559 6.495 3.415 2.371 3.36 2.342c-.105-.055-.392-.107-.46-.083m9.91.019c-.157.039-.012-.074-1.53 1.187-.693.576-1.294 1.106-1.336 1.178a.776.776 0 0 0 .024.746.698.698 0 0 0 .628.344.885.885 0 0 0 .316-.049c.051-.027.361-.273.689-.546.329-.274.606-.498.616-.498.011 0 .025.806.031 1.79.011 1.576.02 1.804.078 1.91a.89.89 0 0 0 .354.342c.14.072.514.064.665-.014.153-.08.325-.277.365-.421.017-.059.03-1.313.03-2.787V2.78l-.095-.153a.786.786 0 0 0-.835-.349M3.026 8.297c-.216.079-.333.201-.491.513-.276.546-.275.538-.275 3.21 0 2.166.007 2.425.07 2.66a2.837 2.837 0 0 0 1.45 1.781c.526.259.653.276 2.08.278.704 0 1.328-.012 1.387-.029.144-.04.341-.212.421-.365.083-.16.084-.528.002-.685a.88.88 0 0 0-.35-.345c-.077-.042-.399-.06-1.38-.075-1.464-.023-1.482-.027-1.829-.379-.36-.366-.351-.294-.35-2.873l.001-2.248.105-.24c.144-.328.165-.641.056-.853-.15-.295-.583-.463-.897-.35m9.779 8.982a.73.73 0 0 0-.527.544c-.02.086-.037.468-.037.847-.001.38-.01.69-.022.69-.011 0-.421-.335-.91-.744-.489-.41-.947-.77-1.018-.8a.73.73 0 0 0-.84.198c-.229.26-.259.603-.076.877.086.128 3 2.592 3.261 2.757.167.106.524.116.709.02.153-.08.325-.277.365-.421.039-.14.039-3.354 0-3.494a.833.833 0 0 0-.345-.41.949.949 0 0 0-.56-.064" fill-rule="evenodd" fill="#000"/></svg>