<svg width="24" height="24" fill="none" xmlns="http://www.w3.org/2000/svg"><path d="M12.811 2.278c-.17.041.022-.113-3.223 2.592L6.756 7.23l-1.108.021c-1.224.022-1.374.045-1.868.288A2.838 2.838 0 0 0 2.33 9.32c-.063.235-.07.495-.07 2.68s.007 2.445.07 2.68a2.832 2.832 0 0 0 1.99 1.988c.22.059.457.07 1.54.071.704 0 1.328-.012 1.387-.029.144-.04.341-.212.421-.365.078-.151.086-.525.014-.665a.89.89 0 0 0-.342-.354c-.102-.056-.309-.069-1.4-.086-1.464-.023-1.482-.027-1.829-.379-.36-.365-.351-.296-.351-2.861 0-2.565-.009-2.496.351-2.861.347-.352.365-.356 1.829-.379.965-.015 1.303-.033 1.374-.074.052-.029 1.172-.951 2.49-2.05A194.276 194.276 0 0 1 12.22 4.64c.011 0 .02 3.312.02 7.36s-.009 7.36-.021 7.36c-.011 0-.421-.335-.91-.744-.489-.41-.947-.77-1.018-.8a.73.73 0 0 0-.84.198c-.229.26-.259.603-.076.877.086.128 3 2.592 3.261 2.757.167.106.524.116.709.02.153-.08.325-.277.365-.421.017-.059.03-4.239.03-9.29V2.774l-.107-.162a.77.77 0 0 0-.822-.334M15.9 8.259a1.438 1.438 0 0 1-.147.037c-.138.031-.339.201-.419.355-.069.135-.089.425-.04.609.022.083.431.521 1.338 1.43L17.938 12l-1.306 1.31c-.907.909-1.316 1.347-1.338 1.43-.138.524.166.98.661.993.102.003.239-.009.305-.027.083-.022.521-.431 1.43-1.338L19 13.062l1.31 1.306c.909.907 1.347 1.316 1.43 1.338.525.138.98-.166.993-.662a1.289 1.289 0 0 0-.027-.304c-.022-.083-.431-.521-1.338-1.43L20.062 12l1.306-1.31c.907-.909 1.316-1.347 1.338-1.43.138-.525-.166-.98-.662-.993a1.289 1.289 0 0 0-.304.027c-.083.022-.521.431-1.43 1.338l-1.311 1.307-1.289-1.285c-.71-.707-1.326-1.303-1.37-1.325-.092-.045-.38-.091-.44-.07" fill-rule="evenodd" fill="#000"/></svg>