<svg width="24" height="24" fill="none" xmlns="http://www.w3.org/2000/svg"><path d="M11.801 2.286a.7.7 0 0 0-.532.71c.002.207.099.438 1.301 3.075.715 1.568 1.333 2.889 1.375 2.936.185.209.258.219 2.857.415 1.352.102 2.489.197 2.527.211.055.022-.29.427-1.695 1.987-.971 1.078-1.79 2.018-1.82 2.089a.827.827 0 0 0-.054.27c0 .106.973 4.118 1.105 4.552.015.051-.218-.048-.825-.35-.706-.351-.877-.421-1.031-.421-.485 0-.853.461-.73.916.091.337.19.402 1.915 1.262 1.417.705 1.624.797 1.794.797a.747.747 0 0 0 .611-.3c.212-.293.224-.218-.54-3.283a911.333 911.333 0 0 0-.721-2.876c-.013-.044.668-.828 2.085-2.4 1.157-1.285 2.151-2.404 2.207-2.488.222-.328.105-.808-.25-1.028-.137-.084-.323-.103-3.173-.324a495.415 495.415 0 0 1-3.121-.245c-.083-.01-.227-.305-1.248-2.551a171.635 171.635 0 0 0-1.219-2.652c-.144-.244-.528-.387-.818-.302M10.46 5.277a.67.67 0 0 0-.368.21c-.049.052-.314.589-.588 1.194-.429.942-.513 1.101-.592 1.11-.051.007-1.456.117-3.123.246-2.998.231-3.033.235-3.185.336a.696.696 0 0 0-.337.63c0 .184.021.265.103.385.056.084 1.05 1.203 2.207 2.488 1.417 1.572 2.098 2.356 2.085 2.4-.01.035-.336 1.333-.722 2.883-.684 2.739-.702 2.825-.657 3.015.095.393.507.646.887.543.091-.024 1.547-.735 3.235-1.58 3.279-1.64 3.2-1.594 3.314-1.949.038-.119.038-.195-.001-.355-.095-.399-.505-.653-.887-.551-.091.025-1.189.557-2.441 1.183-1.58.79-2.27 1.116-2.255 1.067.131-.434 1.105-4.447 1.105-4.553a.827.827 0 0 0-.054-.27c-.03-.071-.849-1.011-1.82-2.089-1.405-1.56-1.75-1.965-1.695-1.987.038-.014 1.172-.109 2.521-.211 2.636-.198 2.686-.206 2.868-.437.055-.069.373-.727.707-1.463.668-1.469.687-1.54.519-1.871a.684.684 0 0 0-.466-.366c-.177-.049-.188-.049-.36-.008" fill-rule="evenodd" fill="#000"/></svg>