<svg width="24" height="24" viewBox="0 0 24 24" fill="none" xmlns="http://www.w3.org/2000/svg">
<path d="M11.6893 3L12.9999 5C12.5879 7.94606 11.0988 11.6561 8.68148 12.8414C8.46543 12.9473 8.23208 13.0002 7.99876 13M4.31065 3L2.99994 5C3.12016 5.85952 3.3516 7.13885 3.64891 8M19 17C20.1045 17 21 17.8954 21 19C21 20.1046 20.1045 21 19 21C17.8954 21 17 20.1046 17 19C17 17.8954 17.8954 17 19 17ZM19 17V15.5C19 14.837 18.7366 14.2011 18.2677 13.7322C17.7989 13.2634 17.163 13 16.5 13C15.8369 13 15.2011 13.2634 14.7322 13.7322C14.2634 14.2011 14 14.837 14 15.5V17C14 17.7956 13.6839 18.5587 13.1213 19.1213C12.5587 19.6839 11.7956 20 11 20C10.2043 20 9.44127 19.6839 8.87866 19.1213C8.31605 18.5587 7.99998 17.7956 7.99998 17L7.99876 13M7.99876 13C7.76625 12.9998 7.53377 12.9469 7.31847 12.8414C6.63576 12.5066 6.02878 12.0014 5.49994 11.3824" stroke="#001A72" stroke-width="1.5" stroke-linecap="round" stroke-linejoin="round"/>
</svg>
