<svg width="24" height="24" fill="none" xmlns="http://www.w3.org/2000/svg"><path d="M4.066 2.297a.874.874 0 0 0-.247.144c-.166.156-1.506 2.233-1.542 2.389-.089.39.462 3.054.734 3.547.095.172.315.32.536.362.297.055.642-.138.778-.437.103-.228.095-.315-.084-.933-.157-.545-.377-1.569-.426-1.989l-.026-.218.581-.891c.319-.49.601-.93.625-.978.072-.141.054-.478-.035-.653-.147-.288-.583-.455-.894-.343m7.468-.019c-.358.086-.572.352-.573.715a.87.87 0 0 0 .043.3c.025.048.304.485.62.971.317.485.576.923.576.973 0 .194-.293 1.435-.465 1.973-.766 2.388-1.888 4.103-3.161 4.831-.379.217-.627.25-.915.123-.373-.165-.867-.534-1.296-.969-.549-.554-.775-.651-1.153-.493a.708.708 0 0 0-.45.678c0 .274.119.461.594.933.491.49 1.033.891 1.534 1.137l.349.17.002 1.68c.003 2.214.042 2.566.361 3.248.399.855.94 1.406 1.78 1.813a3.564 3.564 0 0 0 1.985.356 3.21 3.21 0 0 0 1.255-.356c.84-.407 1.381-.958 1.78-1.813.289-.618.358-1.088.36-2.448.001-.925.021-1.07.201-1.422.048-.095.176-.265.283-.378a1.726 1.726 0 0 1 2.512 0c.382.404.483.713.484 1.485v.564l-.233.085c-.496.181-1.076.668-1.362 1.142-.51.847-.51 1.997 0 2.849.173.29.64.757.93.93.852.51 1.998.51 2.85 0 .29-.173.757-.64.93-.93.51-.852.51-2.002 0-2.849-.284-.472-.866-.961-1.355-1.139l-.228-.083-.024-.667c-.027-.738-.104-1.123-.309-1.563a3.363 3.363 0 0 0-1.57-1.566c-.827-.386-1.911-.386-2.738 0a3.286 3.286 0 0 0-1.774 2.142c-.075.278-.09.482-.116 1.56-.019.79-.048 1.298-.079 1.4a2.323 2.323 0 0 1-.582.92c-.456.456-.944.66-1.58.66-.636 0-1.124-.204-1.58-.66a2.716 2.716 0 0 1-.407-.52c-.246-.468-.253-.539-.252-2.586l.002-1.854.326-.16c.81-.397 1.607-1.119 2.295-2.08.649-.905 1.336-2.315 1.735-3.56.344-1.074.673-2.697.605-2.986-.041-.178-1.408-2.276-1.571-2.414a.822.822 0 0 0-.264-.138c-.166-.046-.177-.046-.355-.004m7.92 15.563c.29.109.596.415.705.705.176.471.068.975-.285 1.328-.781.781-2.114.23-2.114-.874 0-.342.12-.629.366-.874a1.236 1.236 0 0 1 1.328-.285" fill-rule="evenodd" fill="#000"/></svg>