<svg width="24" height="24" fill="none" xmlns="http://www.w3.org/2000/svg"><path d="M9.805 2.279c-.382.093-.618.496-.526.898.071.31.317.522.653.563.114.014 1.126.019 2.248.013 2.166-.014 2.114-.009 2.334-.208.15-.136.219-.308.219-.545 0-.237-.069-.409-.219-.545-.221-.2-.158-.195-2.434-.202-1.177-.003-2.201.008-2.275.026M11.34 4.28a8.697 8.697 0 0 0-5.52 2.54c-1.357 1.357-2.19 3.022-2.482 4.96-.089.594-.089 1.842 0 2.44.286 1.91 1.117 3.585 2.442 4.923.496.501.631.587.919.59.428.005.741-.301.741-.723a.89.89 0 0 0-.063-.336c-.035-.067-.248-.305-.473-.528a7.3 7.3 0 0 1-2.032-3.793c-.078-.391-.091-.576-.091-1.353-.001-.782.011-.96.091-1.353a7.287 7.287 0 0 1 2.01-3.765c1.037-1.037 2.284-1.703 3.758-2.007.404-.084.569-.095 1.36-.095.791 0 .956.011 1.36.095 1.472.304 2.723.972 3.758 2.007 1.035 1.035 1.703 2.286 2.007 3.758.084.404.095.569.095 1.36 0 .791-.011.956-.095 1.36-.304 1.475-.974 2.728-2.011 3.761a7.165 7.165 0 0 1-4.751 2.116c-.615.035-.746.07-.908.249-.142.157-.188.283-.188.514 0 .231.046.357.188.514.18.199.286.226.843.215 1.902-.037 3.79-.759 5.335-2.04 1.388-1.151 2.419-2.813 2.862-4.611.174-.71.232-1.229.232-2.078 0-.849-.058-1.368-.232-2.078-.443-1.798-1.474-3.46-2.862-4.611A8.79 8.79 0 0 0 11.34 4.28m.465 3.999c-.291.071-.506.328-.545.653-.014.114-.019 1.126-.013 2.248.01 1.633.024 2.06.068 2.14.08.147 2.204 2.275 2.345 2.349.145.077.522.084.66.013a.849.849 0 0 0 .35-.342c.076-.145.083-.522.012-.66-.028-.055-.471-.523-.985-1.04l-.934-.94-.012-1.96c-.012-2.081-.008-2.035-.206-2.254-.167-.185-.476-.271-.74-.207" fill-rule="evenodd" fill="#000"/></svg>