<svg width="24" height="24" fill="none" xmlns="http://www.w3.org/2000/svg"><path d="M5.805 5.279c-.292.071-.506.328-.544.653-.014.114-.02 2.926-.013 6.248.011 5.615.017 6.049.081 6.165.084.155.282.325.424.365.14.039 12.354.039 12.494 0 .142-.04.34-.21.424-.365.062-.112.069-.294.069-1.805 0-.924-.013-1.728-.03-1.787-.04-.144-.212-.341-.365-.421-.151-.078-.525-.086-.665-.014a.89.89 0 0 0-.354.342c-.057.103-.068.296-.079 1.35l-.012 1.23H6.76V6.765l1.23-.012c1.295-.014 1.312-.016 1.524-.208.15-.136.219-.308.219-.545 0-.237-.069-.409-.219-.545-.217-.197-.196-.195-1.934-.202-.902-.004-1.701.008-1.775.026m7 0c-.733.177-.72 1.272.018 1.443.086.02 1.115.037 2.285.037l2.129.001.011 2.23c.011 1.986.019 2.243.078 2.35a.89.89 0 0 0 .354.342c.14.072.514.064.665-.014.153-.08.325-.277.365-.421.039-.14.039-5.354 0-5.494-.04-.142-.21-.34-.365-.424-.114-.063-.355-.07-2.765-.076-1.452-.003-2.701.008-2.775.026" fill-rule="evenodd" fill="#000"/></svg>