<svg width="24" height="24" fill="none" xmlns="http://www.w3.org/2000/svg"><path d="M10.617 2.283c-.583.069-1.098.328-1.552.782-.501.501-.721.977-.794 1.72l-.044.447-1.343.018c-1.484.021-1.588.035-2.104.289A2.838 2.838 0 0 0 3.33 7.32c-.063.235-.07.495-.07 2.68s.007 2.445.07 2.68c.209.769.755 1.44 1.45 1.781.576.283.45.273 3.606.289l2.846.015.015.727c.015.755.029.824.208 1.022.136.15.308.219.545.219.237 0 .409-.069.545-.219.179-.198.193-.266.208-1.024l.015-.73h2.606c1.442-.001 2.759-.018 2.949-.04.293-.034.554-.101.847-.22.066-.027.07.077.07 1.854 0 1.794-.004 1.893-.081 2.1-.109.29-.415.596-.705.705-.215.08-.285.081-6.454.081-6.156 0-6.24-.001-6.453-.081a1.412 1.412 0 0 1-.683-.639c-.071-.156-.086-.285-.105-.96-.015-.538-.039-.811-.075-.88a.872.872 0 0 0-.344-.35c-.157-.082-.525-.081-.685.002-.153.08-.325.277-.365.421-.017.059-.029.458-.027.887.004.878.044 1.109.276 1.58a2.837 2.837 0 0 0 1.781 1.45c.243.065.677.07 6.68.07s6.437-.005 6.68-.07a2.838 2.838 0 0 0 1.99-1.99c.064-.24.07-.557.07-4.04 0-2.079-.013-3.828-.03-3.887-.04-.144-.212-.341-.365-.421-.16-.083-.528-.084-.685-.002a.872.872 0 0 0-.344.35c-.036.069-.06.342-.075.88-.019.675-.034.804-.105.96a1.412 1.412 0 0 1-.683.639c-.209.078-.307.081-2.951.081h-2.734l-.015-.73c-.016-.778-.037-.872-.239-1.055-.157-.142-.283-.188-.514-.188-.231 0-.357.046-.514.188-.202.183-.223.277-.239 1.055l-.015.73H8.498c-3.146 0-2.99.017-3.372-.366-.377-.376-.366-.293-.366-2.874 0-2.15.003-2.245.081-2.454.109-.29.415-.596.705-.705.215-.08.285-.081 6.454-.081 6.156 0 6.24.001 6.453.081.26.097.567.385.678.635.043.097.095.312.116.476.039.321.074.414.208.562.136.15.308.219.545.219a.716.716 0 0 0 .683-.413c.071-.133.06-.689-.021-1.01a2.813 2.813 0 0 0-1.442-1.771c-.516-.254-.62-.268-2.104-.289l-1.343-.018-.044-.447c-.073-.743-.293-1.219-.794-1.72-.471-.472-.96-.71-1.606-.784-.41-.047-2.303-.045-2.712.002m2.837 1.558c.459.172.786.655.786 1.161v.238H9.76v-.238c0-.344.12-.63.366-.876.35-.35.408-.361 1.862-.364 1.16-.002 1.264.004 1.466.079" fill-rule="evenodd" fill="#000"/></svg>