<svg width="24" height="24" fill="none" xmlns="http://www.w3.org/2000/svg"><path d="M16.34 2.427a.696.696 0 0 0-.344.341.787.787 0 0 0 .001.664c.043.081.448.517.9.968l.823.819-.529.53-.529.53-.841-.837c-.535-.533-.895-.86-.99-.9a.762.762 0 0 0-.623.015c-.184.096-4.856 4.774-4.944 4.951-.127.255-.049.669.163.86a.79.79 0 0 0 .833.115c.107-.05.836-.753 2.22-2.139l2.06-2.064 1.589 1.589 1.589 1.589-.553.561c-.305.309-.577.604-.604.656a.951.951 0 0 0-.049.329.68.68 0 0 0 .335.625c.188.125.538.144.733.04.164-.087 1.797-1.738 1.876-1.897a.782.782 0 0 0 .002-.603c-.04-.095-.367-.455-.9-.99l-.837-.841.53-.529.53-.529.819.823c.451.452.887.857.968.9a.847.847 0 0 0 .332.077c.537 0 .886-.53.679-1.031-.085-.206-4.373-4.506-4.599-4.612-.195-.092-.478-.096-.64-.01m-9.68 9.832a1.795 1.795 0 0 1-.16.04c-.161.036-1.717 1.573-1.824 1.801-.139.299-.084.592.165.875l.132.15-.822.827c-.452.456-.851.886-.886.956-.089.176-.083.5.012.684.043.081.286.355.54.608l.463.459-.838.841c-.866.867-.963.997-.961 1.289.001.173.112.439.225.539a.918.918 0 0 0 .514.192c.283 0 .419-.102 1.28-.962l.841-.838.459.463c.253.254.527.497.608.54.184.095.508.101.684.012.07-.035.5-.434.956-.886l.827-.822.15.132c.274.241.554.3.846.18.104-.043.991-.902 2.942-2.85 1.535-1.534 2.821-2.843 2.856-2.909.104-.195.085-.545-.04-.733a.68.68 0 0 0-.625-.335.98.98 0 0 0-.329.048c-.052.027-1.22 1.172-2.595 2.544L9.579 17.6l-1.59-1.591-1.589-1.59.462-.459c.575-.572.626-.651.626-.96 0-.282-.101-.476-.323-.619-.135-.087-.414-.155-.505-.122m.28 4.821.879.88-.529.53-.53.53-.89-.89-.889-.89.519-.52a9.5 9.5 0 0 1 .54-.52c.011 0 .416.396.9.88" fill-rule="evenodd" fill="#000"/></svg>