<svg width="24" height="24" fill="none" xmlns="http://www.w3.org/2000/svg"><path d="M7.9 5.259a1.795 1.795 0 0 1-.16.04c-.09.02-.893.797-3.233 3.134-1.712 1.709-3.141 3.161-3.176 3.227-.083.155-.083.525 0 .68.035.066.789.843 1.676 1.727 1.131 1.127 1.649 1.617 1.733 1.639.524.138.98-.166.993-.661a1.293 1.293 0 0 0-.027-.305c-.022-.083-.431-.521-1.338-1.43l-1.307-1.311 2.618-2.618 2.618-2.618 2.461-.012c2.68-.012 2.575-.003 2.787-.237.142-.157.188-.283.188-.514a.713.713 0 0 0-.393-.674c-.108-.059-.387-.067-2.76-.074a127.792 127.792 0 0 0-2.68.007m9.905.02c-.597.146-.743.956-.239 1.331.171.128.377.148 1.544.149l1.13.001v10.479l-6.23.01c-6.676.012-6.296 0-6.524.206a.888.888 0 0 0-.156.205c-.082.157-.081.525.002.685.08.153.277.325.421.365.14.039 13.354.039 13.494 0 .142-.04.34-.21.424-.365.064-.117.069-.544.069-6.305 0-3.399-.013-6.228-.03-6.287-.04-.142-.21-.34-.365-.424-.112-.062-.3-.07-1.765-.076-.902-.004-1.701.008-1.775.026M9.617 9.283a2.79 2.79 0 0 0-1.042.362c-.29.173-.757.64-.93.93a2.846 2.846 0 0 0 0 2.85c.173.29.64.757.93.93.852.51 1.998.51 2.85 0 .29-.173.757-.64.93-.93.495-.827.51-1.982.035-2.792-.569-.971-1.629-1.487-2.773-1.35m.837 1.558c.29.109.596.415.705.705.176.471.068.975-.285 1.328-.781.781-2.114.23-2.114-.874 0-.342.12-.629.366-.874a1.236 1.236 0 0 1 1.328-.285" fill-rule="evenodd" fill="#000"/></svg>