<svg width="24" height="24" fill="none" xmlns="http://www.w3.org/2000/svg"><path d="M16.9 2.259a1.795 1.795 0 0 1-.16.04c-.089.019-.597.502-1.973 1.873-1.019 1.017-1.887 1.915-1.93 1.996-.14.27-.07.685.149.877.223.196.582.253.826.131.07-.035.817-.75 1.658-1.59L17 4.06l1.47 1.47L19.94 7l-.72.72-.719.72-.781-.776c-.429-.427-.838-.805-.908-.84-.244-.122-.603-.065-.826.131-.21.184-.289.603-.162.857.035.07.413.479.84.908l.776.781-.72.719-.72.719-.79-.785c-.435-.432-.835-.808-.89-.836-.129-.066-.512-.066-.64 0a.849.849 0 0 0-.35.342c-.076.145-.083.522-.012.66.028.055.404.455.836.89l.785.79-.719.72-.719.72-.781-.776c-.429-.427-.838-.805-.908-.84-.254-.127-.673-.048-.857.162-.196.223-.253.582-.131.826.035.07.413.479.84.908l.776.781-.72.719-.72.719-.79-.785c-.435-.432-.835-.808-.89-.836-.138-.071-.515-.064-.66.012a.849.849 0 0 0-.342.35c-.066.128-.066.511 0 .64.028.055.404.456.836.89l.785.79-.64.641-.641.64-1.819.175c-1 .096-1.822.172-1.826.169a74.66 74.66 0 0 1 .331-1.626l.338-1.619 2.555-2.56c1.406-1.408 2.584-2.618 2.619-2.688.127-.254.048-.673-.162-.857a.78.78 0 0 0-.846-.118c-.152.08-5.447 5.359-5.519 5.503-.022.044-.243 1.052-.491 2.24l-.451 2.16-.509.52c-.28.286-.532.564-.559.618-.07.136-.063.48.012.623a.756.756 0 0 0 .973.36c.077-.032.355-.269.617-.525l.476-.467 2.392-.23c1.315-.126 2.445-.251 2.511-.276.139-.054 12.271-12.159 12.367-12.339.068-.129.087-.42.039-.604-.022-.085-.644-.735-2.138-2.233-1.16-1.162-2.153-2.136-2.208-2.165-.106-.055-.392-.107-.46-.083" fill-rule="evenodd" fill="#000"/></svg>