<svg width="24" height="24" fill="none" xmlns="http://www.w3.org/2000/svg"><path d="M6.634 3.28c-1.571.151-2.746 1.389-3.188 3.36-.105.468-.123.605-.165 1.265-.038.596 0 1.513.082 2.007.118.707.246 1.119.758 2.428.496 1.269.66 1.793.756 2.427.087.57.103.612.301.786.327.287.755.25 1.054-.09.165-.187.191-.36.13-.863-.087-.729-.317-1.503-.797-2.684-.707-1.743-.837-2.353-.793-3.725.032-.996.151-1.555.472-2.205.273-.551.658-.95 1.076-1.113.307-.12.952-.145 1.44-.055.199.036.726.191 1.171.342 1.404.478 1.882.567 3.069.567s1.665-.089 3.069-.567c.993-.338 1.387-.417 1.965-.391.5.023.744.103 1.047.344.695.553 1.075 1.539 1.156 2.996.035.636.067.747.269.938a.72.72 0 0 0 .988 0c.217-.206.245-.302.236-.827-.038-2.206-.87-3.924-2.232-4.611-.567-.286-1.216-.391-2.01-.326-.607.049-.969.138-2.028.498-1.097.372-1.563.459-2.46.459s-1.363-.087-2.46-.459a18.843 18.843 0 0 0-1.223-.38c-.285-.067-1.195-.172-1.337-.155l-.346.034m12.246 8.144c-.252.109-.35.245-.563.789-.578 1.467-.664 1.892-.837 4.147-.179 2.34-.389 3.393-.75 3.77-.352.368-.6-.107-1.272-2.433a41.636 41.636 0 0 0-.459-1.513c-.512-1.452-1.122-2.296-1.933-2.68A2.186 2.186 0 0 0 12 13.27c-.432 0-.693.058-1.066.234-.943.446-1.596 1.484-2.176 3.456-.547 1.865-.642 2.17-.798 2.565-.186.475-.355.715-.5.715-.159 0-.356-.278-.496-.699a3.57 3.57 0 0 1-.124-.431c0-.135-.131-.477-.226-.59a.744.744 0 0 0-1.198.103c-.125.213-.125.453 0 .945.328 1.293.944 2.031 1.794 2.149.695.096 1.25-.159 1.691-.777.354-.495.581-1.088 1.06-2.76.468-1.634.74-2.338 1.095-2.837.289-.404.578-.583.944-.583s.655.179.944.583c.356.499.599 1.127 1.08 2.79.529 1.828.774 2.444 1.164 2.927.218.271.613.556.864.624.235.063.736.054.98-.018.73-.217 1.255-.926 1.552-2.097.15-.592.245-1.35.376-2.986.066-.834.148-1.704.182-1.932.066-.445.313-1.26.577-1.91.194-.474.226-.643.162-.838-.139-.423-.611-.648-1.001-.479" fill-rule="evenodd" fill="#000"/></svg>