<svg width="24" height="24" viewBox="0 0 24 24" fill="none" xmlns="http://www.w3.org/2000/svg">
<path d="M20 8.5C20 6 19 4 17 4C16.0557 4 15.4458 4.22291 14.8019 4.45825C14.082 4.72136 13.3197 5 12 5C10.6803 5 9.91796 4.72136 9.19807 4.45825C8.55418 4.22291 7.94427 4 7 4C5 4 4 6 4 8.5C4 10.0985 4.40885 11.0838 4.83441 12.1093C5.0744 12.6877 5.31971 13.2788 5.5 14C5.57034 14.2814 5.6209 14.6221 5.6614 15M19.1656 12.1093C18.9256 12.6877 18.6803 13.2788 18.5 14C18.351 14.596 18.2908 15.4584 18.2268 16.3755C18.076 18.536 17.904 21 16.5 21C15.601 21 15.2072 19.5857 14.7735 18.0285C14.2424 16.1214 13.6516 14 12 14C10.3485 14 9.75768 16.1214 9.22655 18.0285C8.79288 19.5857 8.39901 21 7.50003 21C6.67282 21 6.27328 20.1446 6.05377 19" stroke="#001A72" stroke-width="1.5" stroke-linecap="round" stroke-linejoin="round"/>
</svg>
