<svg width="24" height="24" fill="none" xmlns="http://www.w3.org/2000/svg"><path d="M10.617 2.283c-.583.069-1.098.328-1.552.782-.502.501-.721.977-.794 1.722l-.044.45-2.224.011c-2.417.013-2.337.006-2.548.238-.142.157-.188.283-.188.514 0 .231.046.357.188.514.183.202.277.223 1.052.239l.728.015.012 1.226c.014 1.321.019 1.351.239 1.551.157.142.283.188.514.188.231 0 .357-.046.514-.188.221-.2.225-.229.239-1.555l.012-1.23H17.238l.011 3.73c.012 3.985.002 3.799.206 4.024.136.15.308.219.545.219.237 0 .409-.069.545-.219.204-.225.194-.039.206-4.02l.011-3.726.729-.015c.777-.016.871-.037 1.054-.239.142-.157.188-.283.188-.514 0-.231-.046-.357-.188-.514-.211-.232-.131-.225-2.548-.238l-2.224-.011-.044-.45c-.073-.745-.292-1.221-.794-1.722-.471-.472-.96-.71-1.606-.784-.41-.047-2.303-.045-2.712.002m2.837 1.558c.459.172.786.655.786 1.161v.238H9.76v-.238c0-.344.12-.63.366-.876.35-.35.408-.361 1.862-.364 1.16-.002 1.264.004 1.466.079m-7.649 8.438c-.291.071-.505.327-.545.653-.014.114-.019 1.405-.011 2.868.017 2.948.009 2.848.29 3.42a2.838 2.838 0 0 0 1.781 1.45c.241.065.586.07 4.68.07 4.928 0 4.621.016 5.22-.279a2.81 2.81 0 0 0 1.442-1.771c.087-.347.092-.876.01-1.03-.141-.263-.364-.393-.672-.393-.231 0-.357.046-.514.188-.144.131-.199.267-.24.593-.02.165-.072.379-.115.476-.111.25-.418.538-.678.635-.212.079-.302.081-4.453.081-4.151 0-4.241-.002-4.453-.081a1.412 1.412 0 0 1-.683-.639c-.082-.176-.084-.247-.104-2.96-.022-3.026-.011-2.892-.246-3.105a.794.794 0 0 0-.709-.176" fill-rule="evenodd" fill="#000"/></svg>