<svg width="24" height="24" fill="none" xmlns="http://www.w3.org/2000/svg"><path d="M14.805 6.279c-.615.15-.744.984-.209 1.348.187.128.385.14 2.084.126 1.628-.014 1.618-.013 1.834-.208.15-.136.219-.308.219-.545 0-.237-.069-.409-.219-.545-.217-.197-.196-.195-1.934-.202-.902-.004-1.701.008-1.775.026m6.095-.02a1.795 1.795 0 0 1-.16.04c-.091.019-1.05.955-3.93 3.833L13 13.939l-1.81-1.807c-1.288-1.286-1.845-1.816-1.93-1.838a1.2 1.2 0 0 0-.52 0c-.087.022-.981.891-3.233 3.138-1.712 1.71-3.141 3.162-3.176 3.228-.082.154-.083.524-.001.68.07.135.204.266.345.339.112.058.414.072.585.028.086-.023.919-.83 2.93-2.839L9 12.061l1.81 1.807c1.288 1.286 1.845 1.816 1.93 1.838a1.2 1.2 0 0 0 .52 0c.087-.022 1.062-.972 3.548-3.456l3.429-3.426.011 2.198c.011 1.956.019 2.211.078 2.318a.89.89 0 0 0 .354.342c.14.072.514.064.665-.014.153-.08.325-.277.365-.421.017-.059.03-1.541.03-3.294V6.767l-.121-.172a.947.947 0 0 0-.24-.239c-.118-.067-.401-.125-.479-.097" fill-rule="evenodd" fill="#000"/></svg>