<svg width="24" height="24" fill="none" xmlns="http://www.w3.org/2000/svg"><path d="M2.9 6.259a1.438 1.438 0 0 1-.147.037c-.139.031-.339.201-.421.359-.084.161-.084.528-.001.685.035.066 1.464 1.518 3.176 3.228 2.252 2.247 3.146 3.116 3.233 3.138a1.2 1.2 0 0 0 .52 0c.085-.022.642-.552 1.93-1.838L13 10.061l3.08 3.079 3.08 3.08-2.19.02c-1.754.016-2.21.031-2.29.075a.88.88 0 0 0-.35.345c-.082.157-.081.525.002.685.08.153.277.325.421.365.059.017 1.541.03 3.294.03h3.186l.172-.121c.094-.066.207-.181.25-.255.098-.168.105-.533.014-.704-.035-.066-1.914-1.968-4.176-4.228-2.991-2.987-4.146-4.116-4.233-4.138a1.2 1.2 0 0 0-.52 0c-.085.022-.642.552-1.93 1.838L9 11.939 6.21 9.154C4.675 7.622 3.384 6.351 3.34 6.329c-.092-.045-.38-.091-.44-.07m17.905 4.02c-.291.071-.505.327-.545.653-.014.114-.02.901-.013 1.748.01 1.213.025 1.561.068 1.64a.88.88 0 0 0 .345.35c.157.082.525.081.685-.002.153-.08.325-.277.365-.421.039-.14.039-3.354 0-3.494a.833.833 0 0 0-.345-.41.949.949 0 0 0-.56-.064" fill-rule="evenodd" fill="#000"/></svg>