<svg width="24" height="24" fill="none" xmlns="http://www.w3.org/2000/svg"><path d="M11.9 2.259a1.438 1.438 0 0 1-.147.037c-.137.031-.339.2-.416.35a1.319 1.319 0 0 0-.084.374c-.028.294.039.255-.593.343-.424.059-.896.172-1.051.253-.136.07-.314.337-.352.529-.063.316.2.717.537.818.151.045.229.041.619-.035.713-.14.97-.166 1.598-.167a7.245 7.245 0 0 1 6.315 3.717c.338.606.696 1.567.78 2.089l.025.155-.469-.229c-.678-.331-.649-.334-1.762.218l-.9.447-.9-.447c-.785-.39-.924-.446-1.1-.446-.176 0-.315.056-1.1.446l-.9.447-.893-.443c-1.18-.587-1.034-.586-2.208-.004L8 11.158l-.893-.443c-1.114-.553-1.095-.551-1.764-.224-.376.183-.463.213-.463.157 0-.121.194-.795.344-1.197.331-.885.78-1.62 1.434-2.343.346-.384.418-.514.42-.76a.701.701 0 0 0-.448-.686c-.336-.141-.662-.034-.989.325-1.496 1.636-2.326 3.641-2.37 5.719l-.011.526.12.171a.753.753 0 0 0 .628.332c.165 0 .321-.063 1.092-.446l.9-.447.893.444c1.178.584 1.036.584 2.214 0l.893-.444.893.444c1.178.584 1.036.584 2.214 0l.893-.444.893.444c1.178.584 1.036.584 2.215-.001l.894-.444.889.445c.808.405.909.446 1.109.446.313.001.53-.13.685-.412.072-.131.057-.981-.028-1.558A8.73 8.73 0 0 0 15.9 4.179c-.965-.476-1.787-.721-2.944-.877l-.185-.025-.024-.258c-.033-.35-.15-.556-.387-.678-.106-.055-.393-.106-.46-.082m-.095 12.02c-.291.071-.506.328-.545.653-.013.114-.019 1.576-.012 3.248.011 2.739.019 3.052.078 3.16a.89.89 0 0 0 .354.342c.14.072.514.064.665-.014.153-.08.325-.277.365-.421.039-.14.039-6.354 0-6.494a.833.833 0 0 0-.345-.41.949.949 0 0 0-.56-.064" fill-rule="evenodd" fill="#000"/></svg>