<svg width="24" height="24" fill="none" xmlns="http://www.w3.org/2000/svg"><path d="M11.9 2.259a1.438 1.438 0 0 1-.147.037c-.137.031-.339.2-.416.35a1.319 1.319 0 0 0-.084.374l-.024.257-.185.025c-1.158.156-1.991.404-2.944.877A8.587 8.587 0 0 0 4.161 8.14c-.575 1.176-.866 2.34-.89 3.562-.008.425.002.54.058.643.084.155.282.325.424.365.059.017 3.77.03 8.247.03s8.188-.013 8.247-.03c.142-.04.34-.21.424-.365.056-.103.066-.218.058-.643-.04-2.064-.877-4.081-2.37-5.715-.327-.359-.653-.466-.989-.325a.707.707 0 0 0-.45.687c0 .244.073.377.413.751a7.37 7.37 0 0 1 1.646 2.959c.089.31.22.979.221 1.131 0 .04-1.467.05-7.204.05H4.792l.028-.21a7.758 7.758 0 0 1 .967-2.763c.582-.964 1.524-1.907 2.473-2.475a7.268 7.268 0 0 1 3.718-1.032c.88 0 1.567.117 2.46.419.23.077.489.141.577.141.463 0 .826-.47.706-.915a.793.793 0 0 0-.396-.482c-.419-.213-1.353-.473-2.09-.581a21.292 21.292 0 0 0-.444-.062c-.011 0-.03-.117-.044-.26-.033-.351-.15-.557-.387-.679-.106-.055-.393-.106-.46-.082m-.095 12.02c-.291.071-.506.328-.545.653-.013.114-.019 1.576-.012 3.248.011 2.739.019 3.052.078 3.16a.89.89 0 0 0 .354.342c.14.072.514.064.665-.014.153-.08.325-.277.365-.421.039-.14.039-6.354 0-6.494a.833.833 0 0 0-.345-.41.949.949 0 0 0-.56-.064" fill-rule="evenodd" fill="#000"/></svg>