<svg width="24" height="24" fill="none" xmlns="http://www.w3.org/2000/svg"><path d="M11.32 2.28c-1.879.127-3.672.802-5.236 1.972-.493.368-1.464 1.339-1.832 1.832a9.794 9.794 0 0 0-1.895 4.524 10.9 10.9 0 0 0 0 2.784 9.794 9.794 0 0 0 1.895 4.524c.368.493 1.339 1.464 1.832 1.832a9.768 9.768 0 0 0 4.524 1.894 10.32 10.32 0 0 0 3.804-.2 9.913 9.913 0 0 0 3.504-1.694c.493-.369 1.463-1.339 1.832-1.832a9.763 9.763 0 0 0 1.894-4.524 10.9 10.9 0 0 0 0-2.784 9.763 9.763 0 0 0-1.894-4.524c-.369-.493-1.339-1.463-1.832-1.832-1.13-.846-2.524-1.495-3.796-1.766a10.872 10.872 0 0 0-2.8-.206m1.86 1.558a8.233 8.233 0 0 1 3.829 1.607c.425.321 1.225 1.121 1.546 1.546a8.266 8.266 0 0 1 .444 9.375 8.679 8.679 0 0 1-2.633 2.633 8.27 8.27 0 0 1-8.732 0 8.679 8.679 0 0 1-2.633-2.633c-1.51-2.435-1.659-5.493-.392-8.023.433-.864.868-1.465 1.568-2.166.879-.878 1.824-1.491 2.948-1.911a8.455 8.455 0 0 1 4.055-.428M6.805 9.279c-.291.071-.505.327-.545.653-.014.114-.02.901-.013 1.748.012 1.364.021 1.554.082 1.665.084.155.282.325.424.365.14.039 3.354.039 3.494 0 .144-.04.341-.212.421-.365.083-.16.084-.528.002-.685a.866.866 0 0 0-.35-.344c-.068-.036-.325-.061-.795-.075l-.694-.021.351-.279c1.03-.815 1.969-1.179 3.044-1.18a4.442 4.442 0 0 1 2.063.483c.869.437 1.447 1.002 1.94 1.896.249.451.421.589.739.594.429.006.76-.297.766-.701.009-.632-1.065-2.051-2.051-2.707-1.214-.81-2.532-1.163-3.91-1.048-1.308.109-2.354.561-3.608 1.56l-.397.316-.015-.687c-.015-.711-.031-.785-.208-.981-.167-.185-.476-.271-.74-.207" fill-rule="evenodd" fill="#000"/></svg>