<svg width="24" height="24" fill="none" xmlns="http://www.w3.org/2000/svg"><path d="M11.805 3.281c-.379.087-.618.493-.526.896.089.391.389.58.927.582.254.001.797.096 1.071.188 1.341.448 2.357 1.47 2.777 2.793.135.424.154.589.181 1.52.03 1.023.045 1.098.251 1.285.162.146.262.177.704.216.714.063 1.17.22 1.67.577.306.219.756.698.934.996.698 1.165.57 2.728-.31 3.775-.217.258-.423.44-.827.731-.452.326-.533.774-.206 1.146.209.238.547.323.817.205.231-.1.661-.407.959-.684a4.776 4.776 0 0 0 1.49-3.922 4.752 4.752 0 0 0-3.727-4.228c-.219-.047-.23-.056-.231-.173a10.533 10.533 0 0 0-.139-1.364c-.475-2.319-2.415-4.15-4.76-4.494-.405-.06-.899-.081-1.055-.045m-3.99 1.996c-.208.051-.361.19-.591.536-.599.899-.863 1.699-.95 2.872l-.046.625-.224.049a4.796 4.796 0 0 0-3.605 3.485c-.174.678-.175 1.649-.002 2.325a4.913 4.913 0 0 0 1.803 2.7c.605.453 1.023.489 1.349.117.327-.372.246-.82-.206-1.146-.81-.583-1.185-1.072-1.444-1.88a3.682 3.682 0 0 1-.084-1.614c.138-.666.379-1.1.905-1.626.391-.391.659-.576 1.08-.746.521-.211 1.307-.274 1.86-.15.531.12.583.126.765.087.35-.075.615-.474.555-.834a.833.833 0 0 0-.433-.557 3.368 3.368 0 0 0-.482-.141l-.316-.069.022-.525c.036-.832.228-1.421.707-2.159.241-.372.255-.406.253-.628-.002-.17-.027-.275-.092-.379a.785.785 0 0 0-.824-.342m4.085 5.982a1.795 1.795 0 0 1-.16.04c-.089.019-.542.446-1.733 1.634-.887.884-1.641 1.661-1.676 1.727-.077.145-.084.522-.013.66a.849.849 0 0 0 .342.35c.156.082.526.081.68-.001.066-.035.516-.461 1-.947l.88-.883.02 3.691c.021 3.938.012 3.759.215 3.984.136.15.308.219.545.219.237 0 .409-.069.545-.219.203-.225.194-.046.215-3.984l.02-3.691.88.883c.484.486.934.912 1 .947.145.077.521.084.66.013a.847.847 0 0 0 .348-.338c.068-.13.086-.422.038-.604-.022-.084-.512-.602-1.639-1.733-.884-.887-1.652-1.636-1.707-1.665-.106-.055-.392-.107-.46-.083" fill-rule="evenodd" fill="#000"/></svg>