<svg width="24" height="24" viewBox="0 0 24 24" fill="none" xmlns="http://www.w3.org/2000/svg">
<path d="M20.9531 13V12.995M19 7.4C19.2608 6.58858 20.0366 6 20.9531 6C22.0836 6 23 6.89543 23 8C23 9.60675 21.2825 8.81678 21 10.5M8 15C5.79086 15 4 16.7909 4 19V21H20V19C20 16.7909 18.2091 15 16 15H12M12 3C9.79086 3 8 4.79086 8 7C8 9.20914 9.79086 11 12 11C14.2091 11 16 9.20914 16 7C16 6.27143 15.8052 5.58835 15.4649 5" stroke="#001A72" stroke-width="1.5" stroke-linecap="round" stroke-linejoin="round"/>
</svg>
