<svg width="24" height="24" viewBox="0 0 24 24" fill="none" xmlns="http://www.w3.org/2000/svg">
<path d="M8 15C5.79086 15 4 16.7909 4 19V21H20V19C20 16.7909 18.2091 15 16 15H12M12 3C9.79086 3 8 4.79086 8 7C8 9.20914 9.79086 11 12 11C14.2091 11 16 9.20914 16 7C16 6.27143 15.8052 5.58835 15.4649 5M20.2171 8.94124L20.3658 9.08574C20.4781 9.19498 20.6647 9.19498 20.7771 9.08574L20.9257 8.94124C21.1693 8.70444 21.4996 8.57141 21.8441 8.57141C22.5614 8.57141 23.1429 9.10713 23.1429 10.102C23.1429 11.7857 20.5714 12.8571 20.5714 12.8571C20.5714 12.8571 18 11.7857 18 10.102C18 9.10713 18.5714 8.57141 19.2988 8.57141C19.6432 8.57141 19.9736 8.70444 20.2171 8.94124Z" stroke="#001A72" stroke-width="1.5" stroke-linecap="round" stroke-linejoin="round"/>
</svg>
