<svg width="24" height="24" fill="none" xmlns="http://www.w3.org/2000/svg"><path d="M11.544 2.281c-1.979.184-3.645 1.616-4.145 3.564-.222.868-.158 1.997.161 2.828a4.796 4.796 0 0 0 3.285 2.928c.672.172 1.638.172 2.31 0a4.796 4.796 0 0 0 3.285-2.928c.406-1.057.391-2.416-.039-3.442-.223-.534-.371-.762-.564-.87a.736.736 0 0 0-1.103.563c-.02.195-.004.256.16.616.245.538.311.799.335 1.32.032.69-.101 1.242-.435 1.811-.173.295-.828.95-1.123 1.123a3.323 3.323 0 0 1-3.342 0c-.295-.173-.95-.828-1.123-1.123-.502-.856-.592-1.98-.23-2.878.294-.725.953-1.418 1.668-1.751.348-.162.656-.236 1.165-.281.445-.039.592-.089.736-.247.142-.157.188-.283.188-.514 0-.231-.046-.357-.188-.514-.188-.208-.431-.258-1.001-.205M17.9 8.259a1.438 1.438 0 0 1-.147.037c-.139.031-.339.201-.421.359-.078.15-.086.525-.014.665.028.055.404.455.836.89l.785.79-.785.79c-.432.435-.808.835-.836.89-.066.129-.066.512 0 .64a.849.849 0 0 0 .342.35c.145.076.522.083.66.012.055-.028.456-.404.89-.836l.79-.785.79.785c.434.432.835.808.89.836.129.066.512.066.64 0a.849.849 0 0 0 .35-.342c.076-.145.083-.522.012-.66-.028-.055-.404-.455-.836-.89l-.785-.79.785-.79c.432-.435.808-.835.836-.89.071-.138.064-.515-.012-.66a.849.849 0 0 0-.35-.342c-.128-.066-.511-.066-.64 0-.055.028-.456.404-.89.836l-.79.785-.79-.785c-.434-.432-.826-.803-.87-.825-.092-.045-.38-.091-.44-.07M7.544 14.281c-1.98.184-3.645 1.616-4.146 3.567-.117.459-.166 1.212-.151 2.352.011.871.023 1.038.082 1.145.084.155.282.325.424.365.14.039 16.354.039 16.494 0 .142-.04.34-.21.424-.365.059-.107.071-.274.082-1.145.02-1.502-.057-2.207-.313-2.873a4.796 4.796 0 0 0-3.288-2.929c-.517-.132-1.213-.164-3.352-.15-2.193.013-2.136.007-2.345.238-.142.157-.188.283-.188.514 0 .231.046.357.188.514.211.233.115.224 2.745.248 2.655.024 2.594.019 3.156.28a3.487 3.487 0 0 1 1.67 1.758c.167.412.214.776.214 1.644v.796H4.76v-.817c0-.88.042-1.198.216-1.63.294-.725.953-1.418 1.668-1.751.348-.162.656-.236 1.165-.281.445-.039.592-.089.736-.247.142-.157.188-.283.188-.514 0-.231-.046-.357-.188-.514-.188-.208-.431-.258-1.001-.205" fill-rule="evenodd" fill="#000"/></svg>