<svg width="24" height="24" fill="none" xmlns="http://www.w3.org/2000/svg"><path d="M11.544 2.281c-1.979.184-3.645 1.616-4.145 3.564-.222.868-.158 1.997.161 2.828a4.796 4.796 0 0 0 3.285 2.928c.672.172 1.638.172 2.31 0a4.796 4.796 0 0 0 3.285-2.928c.406-1.057.391-2.416-.039-3.442-.223-.534-.371-.762-.564-.87a.736.736 0 0 0-1.103.563c-.02.195-.004.256.16.616.245.538.311.799.335 1.32.032.69-.101 1.242-.435 1.811-.173.295-.828.95-1.123 1.123a3.323 3.323 0 0 1-3.342 0c-.295-.173-.95-.828-1.123-1.123-.502-.856-.592-1.98-.23-2.878.294-.725.953-1.418 1.668-1.751.348-.162.656-.236 1.165-.281.445-.039.592-.089.736-.247.142-.157.188-.283.188-.514 0-.231-.046-.357-.188-.514-.188-.208-.431-.258-1.001-.205M19.9 6.259a1.438 1.438 0 0 1-.147.037c-.139.031-.339.201-.421.359-.083.16-.084.528-.002.685.124.239.414.42.67.42.256 0 .546-.181.67-.42.076-.146.083-.523.012-.66a.852.852 0 0 0-.322-.339c-.106-.055-.393-.106-.46-.082m-.202 2.576c-.181.083-.363.278-.408.438-.039.14-.039 3.834 0 3.974.073.262.42.511.71.511s.637-.249.71-.511c.039-.14.039-3.834 0-3.974-.073-.262-.42-.511-.71-.511a.897.897 0 0 0-.302.073M7.544 14.281c-1.98.184-3.645 1.616-4.146 3.567-.117.459-.166 1.212-.151 2.352.011.871.023 1.038.082 1.145.084.155.282.325.424.365.14.039 16.354.039 16.494 0 .142-.04.34-.21.424-.365.059-.107.071-.274.082-1.145.02-1.502-.057-2.207-.313-2.873a4.796 4.796 0 0 0-3.288-2.929c-.517-.132-1.213-.164-3.352-.15-2.193.013-2.136.007-2.345.238-.142.157-.188.283-.188.514 0 .231.046.357.188.514.211.233.115.224 2.745.248 2.655.024 2.594.019 3.156.28a3.487 3.487 0 0 1 1.67 1.758c.167.412.214.776.214 1.644v.796H4.76v-.817c0-.88.042-1.198.216-1.63.294-.725.953-1.418 1.668-1.751.348-.162.656-.236 1.165-.281.445-.039.592-.089.736-.247.142-.157.188-.283.188-.514 0-.231-.046-.357-.188-.514-.188-.208-.431-.258-1.001-.205" fill-rule="evenodd" fill="#000"/></svg>