<svg width="24" height="24" fill="none" xmlns="http://www.w3.org/2000/svg"><path d="M11.72 1.805c-.129.051-.309.223-.394.375-.055.101-.068.279-.079 1.11-.013.98-.014.99-.1 1.006l-.575.1c-1.108.19-2.25.689-3.212 1.401A9.776 9.776 0 0 0 5.988 7.12l-.272.336c-.017.019-.343-.145-.724-.365-.935-.54-1-.571-1.208-.571a.747.747 0 0 0-.688.408c-.083.159-.071.487.026.675.091.179.187.247 1.098.771.33.19.625.361.656.381.046.03.026.115-.109.476-.357.953-.496 1.728-.496 2.769 0 1.04.139 1.817.495 2.767.09.24.157.443.149.451-.008.008-.348.208-.755.444-.407.236-.79.464-.851.507-.16.113-.269.351-.269.591 0 .424.306.72.744.72.208 0 .273-.031 1.208-.571.381-.22.707-.384.724-.365l.272.336c.312.387.989 1.04 1.372 1.323.962.712 2.104 1.211 3.212 1.401l.575.1c.086.016.087.026.1 1.006.014 1.077.021 1.112.259 1.337a.667.667 0 0 0 .494.193.667.667 0 0 0 .494-.193c.238-.225.245-.26.259-1.337.013-.979.014-.99.1-1.007.048-.01.231-.039.407-.064a7.785 7.785 0 0 0 1.507-.405c.24-.09.443-.157.451-.149.008.008.208.348.444.755.236.407.464.79.507.851.108.154.352.269.571.269.439 0 .74-.302.74-.744 0-.208-.031-.273-.571-1.208-.22-.381-.384-.707-.365-.724l.336-.274c.338-.274.939-.879 1.201-1.21.095-.121.187-.236.204-.256.017-.019.342.145.723.365.935.54 1 .571 1.208.571a.747.747 0 0 0 .688-.408c.083-.159.071-.487-.026-.675-.091-.179-.187-.247-1.098-.771-.33-.19-.625-.361-.656-.381-.046-.03-.026-.115.109-.476.193-.516.34-1.062.406-1.509.025-.176.054-.359.064-.407.017-.086.028-.087 1.007-.1 1.077-.014 1.112-.021 1.337-.259a.72.72 0 0 0 0-.988c-.225-.238-.26-.245-1.337-.259-.98-.013-.99-.014-1.006-.1l-.1-.575c-.19-1.108-.689-2.25-1.401-3.212a9.776 9.776 0 0 0-1.323-1.372 52.014 52.014 0 0 1-.336-.272c-.019-.017.145-.343.365-.724.22-.38.438-.768.486-.86.202-.399.026-.901-.368-1.049-.289-.11-.698-.002-.858.226a26.38 26.38 0 0 0-.507.851c-.236.407-.436.747-.444.755-.008.008-.211-.059-.451-.149a7.785 7.785 0 0 0-1.507-.405 10.557 10.557 0 0 1-.407-.064c-.086-.017-.087-.028-.1-1.007-.011-.831-.024-1.009-.079-1.11-.088-.159-.267-.325-.407-.377a.952.952 0 0 0-.547.002M6.94 3.097a.823.823 0 0 0-.377.396c-.098.258-.056.463.187.905.267.486.411.646.643.715a.739.739 0 0 0 .905-.442c.097-.233.077-.398-.09-.719-.268-.516-.433-.743-.605-.83a.868.868 0 0 0-.663-.025m6.315 2.781a6.364 6.364 0 0 1 2.565 1.185c.365.283.919.843 1.185 1.197.524.697.921 1.583 1.122 2.506.078.355.091.531.091 1.234s-.013.879-.091 1.234a6.211 6.211 0 0 1-.471 1.399c-.328.704-.624 1.132-1.174 1.701-.891.924-1.956 1.511-3.248 1.793-.355.078-.531.091-1.234.091s-.879-.013-1.234-.091c-1.292-.282-2.357-.869-3.248-1.793-.55-.569-.846-.997-1.174-1.701a6.211 6.211 0 0 1-.471-1.399c-.078-.355-.091-.531-.091-1.234s.013-.879.091-1.234a6.87 6.87 0 0 1 .793-2.019c.471-.783 1.305-1.618 2.074-2.075a6.358 6.358 0 0 1 2.24-.836c.558-.103 1.704-.082 2.275.042m6.326.885c-.585.326-.658.381-.745.573-.194.429.046.968.468 1.047.293.055.471-.001.983-.308.57-.342.671-.466.672-.827a.64.64 0 0 0-.225-.535c-.147-.139-.294-.193-.528-.193-.155 0-.263.042-.625.243m-6.964.52c-.585.069-1.099.328-1.552.782-.474.473-.711.961-.785 1.613-.022.195-.033.379-.023.409.009.029.027.101.04.16.03.139.2.339.358.421.151.078.525.086.665.014.278-.144.383-.32.434-.73.048-.389.148-.608.385-.841.776-.764 2.101-.203 2.101.889 0 .332-.12.626-.351.861-.233.237-.452.337-.841.385-.326.041-.462.096-.593.24-.142.157-.188.283-.188.514 0 .308.13.531.393.672.154.082.683.077 1.03-.01.938-.235 1.736-1.037 1.975-1.982.087-.343.087-1.017 0-1.36a2.956 2.956 0 0 0-.523-1.04c-.626-.76-1.528-1.116-2.525-.997M7.9 10.259a1.438 1.438 0 0 1-.147.037c-.139.031-.339.201-.421.359-.083.16-.084.528-.002.685.124.239.414.42.67.42.256 0 .546-.181.67-.42.076-.146.083-.523.012-.66a.852.852 0 0 0-.322-.339c-.106-.055-.393-.106-.46-.082m-5.48.998a1.281 1.281 0 0 1-.149.04.747.747 0 0 0-.256.153.713.713 0 0 0 0 1.1c.188.166.284.19.745.19.446 0 .551-.024.718-.165.179-.15.255-.321.255-.575a.713.713 0 0 0-.413-.682c-.092-.047-.811-.096-.9-.061m7.281 2.027c-.334.05-.64.214-.921.496-.415.414-.578.905-.496 1.49.051.363.206.661.496.95.289.29.587.445.95.496.353.05.747-.007 1.03-.146.282-.14.67-.528.81-.81.129-.262.202-.713.151-.937a.735.735 0 0 0-.886-.547l-.144.033.033-.144c.075-.323-.082-.679-.364-.824-.148-.076-.39-.097-.659-.057m5.199.975a1.438 1.438 0 0 1-.147.037c-.139.031-.339.201-.421.359-.083.16-.084.528-.002.685.124.239.414.42.67.42.256 0 .546-.181.67-.42.076-.146.083-.523.012-.66a.852.852 0 0 0-.322-.339c-.106-.055-.393-.106-.46-.082m-4.631.631a.793.793 0 0 1-.101.28c-.133.153-.408.038-.408-.171 0-.142.084-.209.335-.265.113-.025.207-.047.209-.05a2.353 2.353 0 0 1-.035.206m-2.938 3.948c-.184.084-.297.236-.626.845-.144.267-.185.385-.185.528 0 .451.299.75.749.748.337-.001.47-.111.806-.672.307-.512.363-.69.308-.983-.079-.424-.618-.662-1.052-.466" fill-rule="evenodd" fill="#000"/></svg>