<svg width="24" height="24" fill="none" xmlns="http://www.w3.org/2000/svg"><path d="M4.256 4.282c-.625.082-1.092.316-1.558.777-.493.489-.791 1.055-.895 1.701-.058.359-.058 10.121 0 10.48.146.906.766 1.786 1.543 2.19.587.306.615.309 2.834.309 1.078.001 2.008-.012 2.067-.029.144-.04.341-.212.421-.365.078-.151.086-.525.014-.665a.89.89 0 0 0-.342-.354c-.106-.058-.356-.068-2.08-.086l-1.96-.02-.229-.112c-.393-.193-.67-.573-.773-1.062-.084-.395-.084-9.697 0-10.092.103-.489.38-.869.773-1.062L4.3 5.78l3.96-.02c3.586-.018 3.971-.026 4.08-.086A.713.713 0 0 0 12.733 5a.713.713 0 0 0-.393-.674c-.109-.06-.47-.066-3.98-.071-2.123-.003-3.97.009-4.104.027m12.549-.004c-.734.184-.72 1.272.018 1.444.086.02.746.037 1.465.037 1.241.001 1.321.005 1.539.087.266.099.593.4.732.671.135.266.2.655.2 1.213l.001.51-3.37.001c-3.354 0-3.88.018-4.365.142-.737.19-1.524.717-1.994 1.336-.238.313-.563.968-.649 1.306-.152.6-.151 1.357.001 1.95.19.737.717 1.524 1.336 1.994.313.238.968.563 1.306.649.49.123 1.018.141 4.365.141l3.37.001-.001.51c0 .547-.065.947-.192 1.196a1.584 1.584 0 0 1-.638.642l-.229.112-3.96.02c-3.586.018-3.971.026-4.08.086a.89.89 0 0 0-.342.354c-.072.14-.064.514.014.665.08.153.277.325.421.365.059.017 1.889.03 4.067.03 3.653 0 3.981-.005 4.235-.071 1.068-.274 1.957-1.282 2.142-2.429.058-.359.058-10.121 0-10.48-.146-.905-.767-1.786-1.542-2.19-.55-.286-.645-.299-2.275-.313-.792-.007-1.501.003-1.575.021M20.76 12v2.24h-3.544c-3.91 0-3.781.008-4.276-.253a2.716 2.716 0 0 1-.52-.407c-.456-.456-.66-.944-.66-1.58 0-.636.204-1.124.66-1.58.306-.306.59-.479.96-.585.219-.063.555-.07 3.81-.072l3.57-.003V12m-6.86-.741a1.438 1.438 0 0 1-.147.037c-.139.031-.339.201-.421.359-.083.16-.084.528-.002.685.124.239.414.42.67.42.256 0 .546-.181.67-.42.076-.146.083-.523.012-.66a.852.852 0 0 0-.322-.339c-.106-.055-.393-.106-.46-.082" fill-rule="evenodd" fill="#000"/></svg>