<svg width="24" height="24" viewBox="0 0 24 24" fill="none" xmlns="http://www.w3.org/2000/svg">
<path d="M13.5 16C13.5 15.0753 13.2211 14.2157 12.7428 13.5008C12.625 13.3247 12.495 13.1574 12.3542 13M9 11.5C6.51472 11.5 4.5 13.5147 4.5 16C4.5 18.4853 6.51472 20.5 9 20.5C9.78801 20.5 10.5287 20.2974 11.1729 19.9416M9 11.5L9 9M9 11.5C10.3328 11.5 11.5302 12.0794 12.3542 13M18 17.5C17.1716 17.5 16.5 18.1716 16.5 19C16.5 19.8284 17.1716 20.5 18 20.5C18.8284 20.5 19.5 19.8284 19.5 19C19.5 18.1716 18.8284 17.5 18 17.5ZM18 17.5V13H15M6 3H9L9 9M15 13V9H9M15 13H12.3542" stroke="#001A72" stroke-width="1.5" stroke-linecap="round" stroke-linejoin="round"/>
</svg>
