<svg width="24" height="24" fill="none" xmlns="http://www.w3.org/2000/svg"><path d="M11.225 4.283a12.743 12.743 0 0 0-7.942 3.371c-.417.385-.892.892-.967 1.034a.897.897 0 0 0-.049.32c0 .425.304.725.735.725.298 0 .344-.031.958-.644A11.13 11.13 0 0 1 8.3 6.367c1.22-.419 2.376-.607 3.734-.607 1.187 0 2.189.15 3.348.501.251.077.539.139.639.139.648 0 .966-.783.504-1.244-.121-.122-.235-.175-.652-.309-1.405-.449-3.076-.652-4.648-.564M18.66 6.56a.746.746 0 0 0-.385.797c.052.23.132.338.415.555a12.8 12.8 0 0 1 1.375 1.208c.545.554.636.613.938.613.431 0 .73-.302.73-.736 0-.298-.068-.401-.635-.97-.642-.644-1.567-1.404-1.831-1.504a.826.826 0 0 0-.607.037m-7.34 1.722c-1.955.119-3.858.856-5.46 2.115-.401.315-1.092.992-1.226 1.201-.308.481.024 1.129.582 1.137.299.004.381-.046.913-.56.285-.276.701-.637.925-.802a8.359 8.359 0 0 1 7.66-1.166c1.218.419 2.168 1.011 3.16 1.97.529.512.611.562.91.558.558-.008.89-.656.582-1.137-.133-.207-.82-.881-1.226-1.203a10.042 10.042 0 0 0-4.546-2.014c-.343-.056-1.484-.147-1.694-.134l-.58.035m.129 4a3.48 3.48 0 0 0-.548.078.731.731 0 0 0-.439.99c.079.19.163.281.345.374.135.068.213.073.88.05.787-.027 1.051-.001 1.696.166.894.232 1.636.663 2.422 1.407.37.35.546.436.8.387.384-.073.635-.365.635-.738 0-.317-.2-.591-.809-1.106a6.796 6.796 0 0 0-4.982-1.608m-3.65 1.436c-.215.114-.906.8-.977.971-.194.465.072.95.573 1.045.266.051.42-.032.91-.486.254-.235.488-.477.519-.536.067-.129.074-.522.011-.645a1.066 1.066 0 0 0-.363-.371c-.152-.079-.503-.068-.673.022m3.902 2.567c-.333.048-.64.213-.921.495-.415.414-.578.905-.496 1.49.051.363.206.661.496.95.289.29.587.445.95.496.353.05.747-.007 1.03-.146.282-.14.67-.528.81-.81.217-.44.217-1.085-.001-1.517-.354-.703-1.076-1.074-1.868-.958m.466 1.541c.152.138.045.414-.16.414a.243.243 0 0 1-.181-.407c.083-.091.244-.094.341-.007" fill-rule="evenodd" fill="#000"/></svg>