<svg width="24" height="24" viewBox="0 0 24 24" fill="none" xmlns="http://www.w3.org/2000/svg">
<path d="M16.5 15C15.4006 13.7735 13.792 13 12 13C11.7078 13 11.4204 13.0206 11.1394 13.0603M7.5 15C7.70171 14.775 7.92055 14.5652 8.15452 14.3727M18.75 12C17.1009 10.1603 14.6881 9 12 9C9.31194 9 6.89912 10.1603 5.25 12M21 9C20.4039 8.33497 19.7329 7.73652 19 7.21743M3 9C5.19883 6.54708 8.41592 5 12 5C13.4025 5 14.7489 5.23691 16 5.67231M13 18C13 18.5523 12.5523 19 12 19C11.4477 19 11 18.5523 11 18C11 17.4477 11.4477 17 12 17C12.5523 17 13 17.4477 13 18Z" stroke="#001A72" stroke-width="1.5" stroke-linecap="round"/>
</svg>
