<svg width="24" height="24" fill="none" xmlns="http://www.w3.org/2000/svg"><path d="M10.701 2.284c-.334.05-.64.214-.921.496-.292.291-.445.587-.498.96-.023.158-.041 1.2-.041 2.39L9.24 8.24l-2.61.001c-1.523 0-2.727.017-2.89.041-.373.053-.669.206-.96.498-.292.291-.445.587-.498.96-.055.379-.055 9.141 0 9.52.022.154.089.379.148.5.14.282.528.67.81.81.262.129.713.202.937.151.399-.091.638-.485.544-.898a.732.732 0 0 0-.63-.562c-.362-.053-.331.261-.331-3.327V12.76h12.48v3.174c0 3.006-.004 3.177-.072 3.239-.065.059-.415.066-3.73.076-3.316.01-3.669.017-3.778.077a.713.713 0 0 0-.393.674c0 .307.128.528.393.674.109.06.456.067 3.68.078 2.337.008 3.67-.003 3.88-.031.414-.054.695-.195 1-.501.292-.291.445-.587.498-.96.055-.379.055-9.141 0-9.52-.053-.373-.206-.669-.498-.96-.291-.292-.587-.445-.96-.498-.163-.024-1.367-.041-2.89-.041l-2.61-.001V6.76h9.48v2.174c0 2.459.026 2.274-.331 2.327a.749.749 0 0 0-.343 1.349c.155.116.38.151.694.107.373-.052.669-.205.96-.497.292-.291.445-.587.498-.96.054-.376.054-7.144 0-7.52-.053-.373-.206-.669-.498-.96-.305-.306-.586-.447-1-.502-.206-.027-1.235-.038-2.88-.03-2.787.013-2.672.004-2.885.238-.142.157-.188.283-.188.514 0 .231.046.357.188.514.213.235.088.225 2.983.237 2.385.011 2.666.018 2.73.077.064.057.072.141.072.738v.674h-9.48v-.674c0-.766.004-.775.32-.826.425-.069.653-.327.653-.74 0-.231-.046-.357-.188-.514-.18-.198-.445-.262-.844-.202m5.466 7.542c.065.059.073.138.073.74v.674H3.76v-.667c0-.564.01-.678.066-.74.064-.07.308-.073 6.167-.073 5.621 0 6.106.005 6.174.066" fill-rule="evenodd" fill="#000"/></svg>