<svg width="24" height="24" fill="none" xmlns="http://www.w3.org/2000/svg"><path d="M9.369 2.283c-2.332.179-4.496 1.456-5.827 3.437-.509.758-.964 1.866-1.138 2.771-.096.496-.175 1.426-.139 1.629.07.388.34.613.735.613.231 0 .357-.046.514-.188.172-.156.213-.295.247-.841.083-1.324.511-2.492 1.283-3.504A8.16 8.16 0 0 1 6.26 4.993a6.608 6.608 0 0 1 2.506-1.12c.355-.078.531-.091 1.234-.091s.879.013 1.234.091c1.292.282 2.357.869 3.248 1.793.55.569.846.997 1.174 1.701.222.475.357.877.471 1.399.078.355.091.531.091 1.234s-.013.879-.091 1.234c-.201.923-.598 1.809-1.122 2.506-.266.354-.82.914-1.185 1.197a6.34 6.34 0 0 1-2.565 1.184c-.507.109-1.512.149-2.027.081a6.402 6.402 0 0 1-3.388-1.543c-.372-.331-.485-.39-.74-.39a.69.69 0 0 0-.547.237.74.74 0 0 0-.139.785c.108.256.902.923 1.603 1.347 2.67 1.613 6.106 1.441 8.616-.431l.294-.219 2.346 2.343c1.671 1.669 2.382 2.353 2.467 2.375.525.137.98-.166.993-.661a1.293 1.293 0 0 0-.027-.305c-.022-.085-.706-.796-2.375-2.467l-2.343-2.346.219-.294a7.752 7.752 0 0 0 .735-8.053c-.429-.869-.866-1.464-1.587-2.161-1.322-1.276-2.94-1.996-4.804-2.138-.577-.044-.579-.044-1.182.002M6.805 9.279c-.381.092-.618.496-.526.898.071.31.317.522.653.563.114.013 1.576.019 3.248.012 2.739-.011 3.052-.019 3.16-.078a.713.713 0 0 0 .393-.674.713.713 0 0 0-.393-.674c-.109-.06-.421-.067-3.26-.072-1.727-.004-3.201.008-3.275.025" fill-rule="evenodd" fill="#000"/></svg>