<svg width="24" height="24" fill="none" xmlns="http://www.w3.org/2000/svg"><path d="M10.699 1.816c-.275.12-.496.522-.437.795.015.068.123.335.239.592.468 1.034.567 1.428.681 2.707l.026.289-.274-.104C9.763 5.649 9.189 5.56 8.387 5.7c-.456.079-.641.144-1.183.411C4.98 7.207 3.469 9.54 3.283 12.163a7.533 7.533 0 0 0 .218 2.397c.597 2.462 1.713 4.559 3.184 5.981.675.652 1.016.891 1.509 1.057.599.202 1.112.184 2.286-.081 1.335-.302 1.705-.302 3.04 0 1.174.265 1.687.283 2.286.081.493-.166.834-.405 1.509-1.057 1.492-1.443 2.616-3.572 3.201-6.068a7.293 7.293 0 0 0 .201-2.294c-.123-1.846-.853-3.476-2.135-4.763a6.559 6.559 0 0 0-1.786-1.304c-.547-.269-.732-.334-1.183-.412-.736-.128-1.323-.052-2.273.295a6.758 6.758 0 0 1-.61.205c-.033 0-.05-.063-.05-.18 0-.395-.134-1.425-.239-1.84-.198-.784-.684-1.95-.913-2.195a.763.763 0 0 0-.829-.169m-.803 5.501c.244.085.597.209.784.277A4.4 4.4 0 0 0 12 7.84a4.4 4.4 0 0 0 1.32-.246c1.226-.441 1.245-.447 1.6-.448.459-.001.7.061 1.22.316.542.266 1.02.621 1.467 1.091.436.459.669.791.973 1.387.424.831.616 1.58.649 2.526.025.699-.013 1.026-.211 1.838-.404 1.659-1.158 3.274-2.05 4.396-.3.377-.852.943-1.159 1.188-.504.403-.774.431-1.863.195l-.966-.21c-.321-.07-1.639-.07-1.96 0l-.966.21c-1.09.236-1.358.208-1.866-.197-.301-.239-.937-.893-1.195-1.229a11.372 11.372 0 0 1-1.328-2.297c-.386-.908-.756-2.165-.868-2.954-.061-.428-.027-1.44.062-1.866.169-.811.561-1.734.999-2.354.463-.655 1.215-1.321 1.894-1.676.825-.432 1.325-.477 2.144-.193" fill-rule="evenodd" fill="#000"/></svg>