<svg width="24" height="24" fill="none" xmlns="http://www.w3.org/2000/svg"><path d="M11.805 3.279a.73.73 0 0 0-.527.544c-.021.091-.036 3.138-.037 7.257l-.001 7.099-2.43-2.427c-1.732-1.73-2.464-2.436-2.55-2.459-.546-.142-.993.176-.993.707 0 .125.028.272.064.34.035.066 1.464 1.518 3.176 3.228 2.252 2.247 3.146 3.116 3.233 3.138.066.016.183.03.26.03.077 0 .194-.014.26-.03.087-.022.981-.891 3.233-3.138 1.712-1.71 3.141-3.162 3.176-3.228.082-.154.083-.524.001-.68a.849.849 0 0 0-.35-.342c-.139-.072-.515-.064-.66.013-.066.035-1.191 1.136-2.5 2.447l-2.38 2.382-.02-7.19c-.021-7.705-.009-7.256-.215-7.484-.167-.185-.476-.271-.74-.207" fill-rule="evenodd" fill="#000"/></svg>