<svg width="24" height="24" fill="none" xmlns="http://www.w3.org/2000/svg"><path d="M11.9 3.259a1.795 1.795 0 0 1-.16.04c-.09.019-.889.794-3.233 3.133-1.712 1.71-3.141 3.162-3.176 3.228-.082.154-.083.524-.001.68a.849.849 0 0 0 .35.342c.139.072.515.064.66-.013.066-.035 1.191-1.136 2.5-2.447l2.38-2.382.02 7.19c.021 7.705.009 7.256.215 7.484.136.15.308.219.545.219.237 0 .409-.069.545-.219.206-.228.194.221.215-7.484l.02-7.19 2.38 2.382c1.309 1.311 2.434 2.412 2.5 2.447.145.077.521.085.66.013a.847.847 0 0 0 .348-.338c.067-.13.086-.422.039-.604-.023-.086-.911-1.001-3.139-3.233-1.71-1.712-3.153-3.136-3.208-3.165-.106-.055-.392-.107-.46-.083" fill-rule="evenodd" fill="#000"/></svg>