<svg width="24" height="24" fill="none" xmlns="http://www.w3.org/2000/svg"><path d="M11.9 6.259a1.795 1.795 0 0 1-.16.04c-.089.019-.658.562-2.233 2.133-1.162 1.16-2.141 2.162-2.176 2.228-.082.154-.083.524-.001.68a.849.849 0 0 0 .35.342c.139.072.515.064.66-.013.066-.035.741-.686 1.5-1.447l1.38-1.382.02 4.19c.021 4.476.011 4.259.215 4.484.136.15.308.219.545.219.237 0 .409-.069.545-.219.204-.225.194-.008.215-4.484l.02-4.19 1.38 1.382c.759.761 1.434 1.412 1.5 1.447.145.077.521.085.66.013a.847.847 0 0 0 .348-.338c.067-.13.086-.422.038-.604-.022-.085-.644-.735-2.138-2.233-1.16-1.162-2.153-2.136-2.208-2.165-.106-.055-.392-.107-.46-.083" fill-rule="evenodd" fill="#000"/></svg>