<svg width="24" height="24" fill="none" xmlns="http://www.w3.org/2000/svg"><path d="M8.9 3.259a1.795 1.795 0 0 1-.16.04c-.09.019-.889.794-3.233 3.133-1.712 1.71-3.136 3.153-3.164 3.208-.127.246-.119.298.6 3.893.387 1.936.745 3.665.797 3.843.406 1.398 1.562 2.613 2.949 3.099.785.275.591.265 5.311.265 4.722 0 4.529.01 5.311-.266 1.393-.491 2.543-1.7 2.949-3.098.162-.559 1.505-7.361 1.478-7.484a10.131 10.131 0 0 0-.046-.192c-.026-.102-6.191-6.283-6.352-6.369-.154-.082-.524-.083-.68-.001a.847.847 0 0 0-.339.345c-.058.112-.072.414-.028.585.023.086.729.818 2.459 2.55l2.427 2.43H4.821l2.427-2.43c1.73-1.732 2.436-2.464 2.459-2.55.131-.502-.128-.926-.607-.993a.725.725 0 0 0-.2-.008m11.18 7.512c0 .13-1.23 6.1-1.301 6.311a2.871 2.871 0 0 1-.679 1.111c-.489.519-.984.812-1.631.968-.316.075-.486.078-4.469.078-3.983 0-4.153-.003-4.469-.078-.647-.156-1.142-.449-1.631-.968a2.871 2.871 0 0 1-.679-1.111c-.071-.211-1.301-6.181-1.301-6.311 0-.006 3.636-.011 8.08-.011s8.08.005 8.08.011" fill-rule="evenodd" fill="#000"/></svg>