<svg width="24" height="24" fill="none" xmlns="http://www.w3.org/2000/svg"><path d="M2.72 2.803a.941.941 0 0 0-.389.376c-.083.159-.079.489.007.662.075.15 17.984 18.093 18.229 18.263a.756.756 0 0 0 1.101-.279c.084-.163.081-.492-.006-.666-.077-.152-17.986-18.094-18.235-18.268-.171-.119-.528-.163-.707-.088m8.22.002c-1.128.121-2.211.466-3.073.98-.457.272-.596.456-.601.794a.715.715 0 0 0 .655.732c.231.022.351-.02.739-.26.32-.197.964-.459 1.413-.575 1.319-.338 2.958-.297 4.207.106 1.143.369 2.066 1.09 2.513 1.963.325.633.395.958.468 2.17.033.537.088 1.158.123 1.38.196 1.249.538 2.448 1.136 3.982.376.965.385 1.023.255 1.643-.051.239-.054.334-.018.468.138.515.734.718 1.178.401.151-.107.299-.437.367-.82.124-.696.057-1.114-.345-2.136-.392-.998-.608-1.646-.819-2.464a10.769 10.769 0 0 1-.38-2.509c-.048-1-.117-1.456-.303-2.02a5.01 5.01 0 0 0-1.325-2.084c-.468-.445-.796-.675-1.407-.983-.71-.359-1.406-.576-2.283-.714-.503-.079-1.975-.111-2.5-.054M5.459 9.577c-.219.132-.316.325-.42.843-.188.936-.547 2.096-1 3.225-.328.82-.372 1.005-.374 1.575-.002.383.016.545.089.8.257.902.82 1.585 1.619 1.962.465.22.739.258 1.863.258h.99l.046.51c.026.291.082.622.13.77.358 1.094 1.283 1.857 2.578 2.125.522.108 1.44.117 1.953.019 1.225-.234 2.153-.914 2.556-1.872.216-.514.111-.945-.277-1.136-.183-.09-.506-.093-.674-.005-.178.092-.28.221-.414.519-.209.467-.628.795-1.244.974-.21.061-.388.076-.92.075-.615-.001-.681-.009-.973-.111-.811-.284-1.186-.744-1.22-1.498l-.017-.37h1.703c1.105 0 1.741-.015 1.814-.043a.89.89 0 0 0 .402-.376c.075-.144.082-.488.012-.623a1.163 1.163 0 0 0-.341-.371c-.058-.034-1.027-.052-3.6-.067l-3.52-.02-.208-.094c-.421-.19-.777-.7-.847-1.212-.048-.349-.003-.541.315-1.357.37-.949.63-1.741.833-2.539.314-1.234.333-1.489.129-1.776-.202-.283-.672-.371-.983-.185" fill-rule="evenodd" fill="#000"/></svg>