<svg width="24" height="24" viewBox="0 0 24 24" fill="none" xmlns="http://www.w3.org/2000/svg">
<path d="M8 4.58208C9.06151 3.86265 10.4633 3.5 12 3.5C15.3137 3.5 18 5.18629 18 8.5C18 10.4392 18.7051 12.6133 19.4316 14.3389C19.6624 14.8871 19.6566 15.4786 19.4745 16M5.84215 10.21C5.59386 11.6488 5.08678 13.1073 4.56874 14.3379C3.96555 15.7707 4.97779 17.4997 6.53238 17.4997H13M9 17.5V18.5C9 20.1569 10.3431 21 12 21C13.3572 21 14.5039 20.4343 14.8743 19.319M3 3.5L21 21.5" stroke="#001A72" stroke-width="1.5" stroke-linecap="round" stroke-linejoin="round"/>
</svg>
