<svg width="24" height="24" viewBox="0 0 24 24" fill="none" xmlns="http://www.w3.org/2000/svg">
<path d="M18.25 14.5C18.25 14.9142 18.5858 15.25 19 15.25C19.4142 15.25 19.75 14.9142 19.75 14.5H18.25ZM7.00121 17L6.25121 16.9999V17H7.00121ZM7.75 7C7.75 6.58579 7.41421 6.25 7 6.25C6.58579 6.25 6.25 6.58579 6.25 7H7.75ZM6.25 11C6.25 11.4142 6.58579 11.75 7 11.75C7.41421 11.75 7.75 11.4142 7.75 11H6.25ZM5 8.25C4.58579 8.25 4.25 8.58579 4.25 9C4.25 9.41421 4.58579 9.75 5 9.75V8.25ZM9 9.75C9.41421 9.75 9.75 9.41421 9.75 9C9.75 8.58579 9.41421 8.25 9 8.25V9.75ZM18.7655 17.0869L18.2823 16.5133L18.2823 16.5133L18.7655 17.0869ZM19.2345 17.0869L19.7177 16.5133L19.7177 16.5133L19.2345 17.0869ZM13.25 17C13.25 17.5967 13.0129 18.169 12.591 18.591L13.6517 19.6517C14.3549 18.9484 14.75 17.9946 14.75 17H13.25ZM12.591 18.591C12.169 19.0129 11.5967 19.25 11 19.25V20.75C11.9946 20.75 12.9484 20.3549 13.6517 19.6517L12.591 18.591ZM14.75 14.5C14.75 14.0359 14.9344 13.5908 15.2626 13.2626L14.2019 12.2019C13.5924 12.8114 13.25 13.638 13.25 14.5H14.75ZM15.2626 13.2626C15.5908 12.9344 16.0359 12.75 16.5 12.75V11.25C15.638 11.25 14.8114 11.5924 14.2019 12.2019L15.2626 13.2626ZM16.5 12.75C16.9641 12.75 17.4092 12.9344 17.7374 13.2626L18.7981 12.2019C18.1886 11.5924 17.362 11.25 16.5 11.25V12.75ZM17.7374 13.2626C18.0656 13.5908 18.25 14.0359 18.25 14.5H19.75C19.75 13.638 19.4076 12.8114 18.7981 12.2019L17.7374 13.2626ZM14.75 17V14.5H13.25V17H14.75ZM10.0012 19.25C9.40447 19.25 8.83218 19.0129 8.41022 18.591L7.34956 19.6517C8.05282 20.3549 9.00665 20.75 10.0012 20.75V19.25ZM8.41022 18.591C7.98826 18.169 7.75121 17.5967 7.75121 17H6.25121C6.25121 17.9946 6.6463 18.9484 7.34956 19.6517L8.41022 18.591ZM6.25145 14.9999L6.25121 16.9999L7.75121 17.0001L7.75145 15.0001L6.25145 14.9999ZM5 3.75H9V2.25H5V3.75ZM10.25 5V13H11.75V5H10.25ZM9 14.25H7.00145V15.75H9V14.25ZM7.00145 14.25H5V15.75H7.00145V14.25ZM3.75 13V5H2.25V13H3.75ZM5 14.25C4.30964 14.25 3.75 13.6904 3.75 13H2.25C2.25 14.5188 3.48122 15.75 5 15.75V14.25ZM10.25 13C10.25 13.6904 9.69036 14.25 9 14.25V15.75C10.5188 15.75 11.75 14.5188 11.75 13H10.25ZM9 3.75C9.69036 3.75 10.25 4.30964 10.25 5H11.75C11.75 3.48122 10.5188 2.25 9 2.25V3.75ZM5 2.25C3.48122 2.25 2.25 3.48122 2.25 5H3.75C3.75 4.30964 4.30964 3.75 5 3.75V2.25ZM6.25 7V9H7.75V7H6.25ZM6.25 9V11H7.75V9H6.25ZM5 9.75H7V8.25H5V9.75ZM7 9.75H9V8.25H7V9.75ZM18.25 19.4071C18.25 18.9721 18.5677 18.2342 19.2487 17.6606L18.2823 16.5133C17.3573 17.2925 16.75 18.4196 16.75 19.4071H18.25ZM18.7513 17.6606C19.4323 18.2342 19.75 18.9721 19.75 19.4071H21.25C21.25 18.4196 20.6427 17.2925 19.7177 16.5133L18.7513 17.6606ZM19.75 19.4071C19.75 19.9709 19.3462 20.25 19 20.25V21.75C20.1187 21.75 21.25 20.8542 21.25 19.4071H19.75ZM19 20.25C18.6538 20.25 18.25 19.9709 18.25 19.4071H16.75C16.75 20.8542 17.8813 21.75 19 21.75V20.25ZM19.2486 17.6606C19.1071 17.7798 18.8929 17.7798 18.7513 17.6606L19.7177 16.5133C19.3009 16.1622 18.6991 16.1622 18.2823 16.5133L19.2486 17.6606ZM10.0012 20.75H11V19.25H10.0012V20.75Z" fill="#001A72"/>
</svg>
