<svg width="24" height="24" fill="none" xmlns="http://www.w3.org/2000/svg"><path d="M4.656 2.281a2.75 2.75 0 0 0-2.112 1.496c-.302.616-.284.286-.284 5.223 0 4.149.004 4.436.073 4.68.219.783.75 1.436 1.446 1.777.485.237.671.271 1.606.292l.846.019.02.886c.017.72.036.948.105 1.218.355 1.401 1.377 2.418 2.793 2.778.317.081.448.09 1.351.09s1.034-.009 1.351-.09c1.415-.36 2.43-1.369 2.795-2.778.08-.306.088-.466.11-2.074l.024-1.742.149-.301c.184-.373.485-.669.861-.847.253-.12.298-.128.712-.128.43 0 .451.004.743.149.576.284.923.788.989 1.433.019.186.062.393.096.459.253.483.866.568 1.216.168.181-.205.229-.386.197-.737a3.306 3.306 0 0 0-1.04-2.124 3.24 3.24 0 0 0-4.406 0c-.457.428-.733.877-.924 1.5l-.107.352-.025 1.76-.024 1.76-.107.271c-.284.719-.847 1.224-1.568 1.408-.336.086-1.748.086-2.084 0A2.267 2.267 0 0 1 7.82 17.51c-.041-.173-.059-.481-.059-.996l-.001-.746.85-.019c.636-.014.91-.036 1.09-.087a2.832 2.832 0 0 0 1.967-1.982c.069-.245.073-.517.073-4.68 0-4.163-.004-4.435-.073-4.68a2.792 2.792 0 0 0-1.465-1.782c-.551-.272-.535-.271-3.042-.281-1.243-.005-2.37.005-2.504.024m4.881 1.596c.251.123.463.335.586.586l.097.197v8.68l-.098.199a1.306 1.306 0 0 1-.665.619c-.213.079-.296.082-2.457.082s-2.244-.003-2.457-.082c-.267-.1-.53-.345-.665-.619l-.098-.199-.012-4.26c-.008-3.093.001-4.304.034-4.42.105-.371.416-.702.789-.84.121-.045.574-.054 2.449-.048l2.3.008.197.097M4.811 8.278a.763.763 0 0 0-.551.607c-.063.335.19.739.521.83.22.062 4.218.062 4.438 0 .212-.058.441-.293.5-.511.089-.331-.03-.638-.324-.832l-.169-.112-2.143-.007c-1.179-.003-2.201.008-2.272.025m13.962 8.003c-.271.055-.412.149-.798.534-1.139 1.139-1.514 2.58-.964 3.703.165.336.599.778.936.955.291.151.788.287 1.053.287.265 0 .762-.136 1.053-.287.337-.177.771-.619.936-.955.551-1.125.176-2.561-.968-3.708-.483-.484-.801-.618-1.248-.529m.446 1.869c.35.445.579 1.063.518 1.397a.908.908 0 0 1-.324.561c-.127.097-.183.112-.413.112-.23 0-.286-.015-.413-.112-.389-.296-.432-.81-.122-1.448.14-.289.466-.74.535-.74.021 0 .12.103.219.23" fill="#001A72" fill-rule="evenodd"/></svg>