<svg width="24" height="24" fill="none" xmlns="http://www.w3.org/2000/svg"><path d="M8.72 1.805a.865.865 0 0 0-.214.147c-.216.205-.241.298-.264.984l-.022.636-.516.136c-1.297.34-2.434.995-3.127 1.8-1.351 1.57-1.876 3.755-1.804 7.512.025 1.336.089 2.089.249 2.94.322 1.714.828 2.776 1.775 3.722.474.473.895.782 1.437 1.055.708.356 1.599.641 1.876.599a.736.736 0 0 0 .41-1.255c-.117-.116-.238-.171-.687-.313-.586-.185-1.037-.389-1.401-.634-1.445-.976-2.075-2.72-2.178-6.036l-.027-.858h5.464c3.763 0 5.499-.013 5.576-.043a.75.75 0 0 0 .464-.697.75.75 0 0 0-.464-.697c-.077-.03-1.801-.043-5.535-.043H4.309l.028-.35c.09-1.12.375-2.24.767-3.01.425-.837 1.008-1.414 1.836-1.818.371-.182 1.134-.462 1.257-.462.02 0 .042.355.05.79.015.857.03.92.259 1.137A.667.667 0 0 0 9 7.24a.667.667 0 0 0 .494-.193c.236-.223.245-.266.259-1.274l.013-.926.347-.034c.45-.043 3.324-.043 3.774 0l.347.034.013.926c.014 1.008.023 1.051.259 1.274a.72.72 0 0 0 .988 0c.229-.217.244-.28.259-1.137.008-.435.028-.79.044-.79.122 0 .976.313 1.29.473 1.311.668 2.022 1.737 2.399 3.605.132.656.219.832.472.961.314.16.73.063.947-.222.105-.138.115-.179.114-.474a4.096 4.096 0 0 0-.115-.823c-.614-2.713-2.063-4.264-4.605-4.932l-.519-.136-.022-.636c-.023-.686-.049-.779-.264-.983a.72.72 0 0 0-.988 0c-.209.197-.24.305-.259.88-.016.525-.018.533-.104.511-.269-.067-2.181-.107-3.16-.065-.573.025-1.081.054-1.128.066-.084.021-.086.009-.102-.512-.019-.575-.05-.683-.259-.88a.817.817 0 0 0-.227-.15.952.952 0 0 0-.547.002m3.897 14.477c-.589.072-1.1.33-1.552.783a3.31 3.31 0 0 0-.42.51 2.824 2.824 0 0 0-.363 1.764c.072.635.314 1.127.783 1.596.485.486.966.714 1.665.79.511.056 1.454.031 1.59-.042a.716.716 0 0 0 .413-.683c0-.231-.046-.357-.188-.514-.182-.2-.276-.221-1.105-.245-.902-.026-1.011-.057-1.329-.38a1.226 1.226 0 0 1 0-1.722c.318-.323.427-.354 1.329-.38.829-.024.923-.045 1.105-.245.142-.157.188-.283.188-.514 0-.313-.133-.532-.413-.684-.121-.065-1.267-.088-1.703-.034m4.188-.005c-.598.154-.743.957-.239 1.333.158.118.367.148 1.042.149.77.001.954.055 1.266.367.486.486.493 1.249.015 1.735-.318.323-.427.354-1.329.38-.609.017-.806.037-.9.087a.872.872 0 0 0-.342.352c-.072.14-.064.514.014.665.08.153.277.325.421.365.059.017.458.029.887.027.878-.004 1.109-.044 1.58-.276a2.807 2.807 0 0 0 1.445-1.781 3.14 3.14 0 0 0 .065-.68c0-.493-.072-.82-.269-1.22a2.831 2.831 0 0 0-1.761-1.442c-.276-.073-1.673-.118-1.895-.061m-3 2.002c-.615.15-.744.984-.209 1.348.187.128.385.14 2.084.126 1.628-.014 1.618-.013 1.834-.208.15-.136.219-.308.219-.545 0-.237-.069-.409-.219-.545-.217-.197-.196-.195-1.934-.202-.902-.004-1.701.008-1.775.026" fill-rule="evenodd" fill="#000"/></svg>