<svg width="24" height="24" viewBox="0 0 24 24" fill="none" xmlns="http://www.w3.org/2000/svg">
<path d="M14 19H17M17 21H18C19.1046 21 20 20.1046 20 19C20 17.8954 19.1046 17 18 17H17M14 17H13C11.8954 17 11 17.8954 11 19C11 20.1046 11.8954 21 13 21H14M15 2.5V6.5M9 2.5V6.5M15 11.5H3.51733M3.51733 11.5C3.50563 11.8208 3.5 12.154 3.5 12.5C3.5 17.4094 4.64094 19.7517 8 20.6041M3.51733 11.5C3.7256 5.79277 5.84596 4 12 4C17.3679 4 19.6668 5.36399 20.3048 9.5" stroke="#001A72" stroke-width="1.5" stroke-linecap="round" stroke-linejoin="round"/>
</svg>
