<svg width="24" height="24" fill="none" xmlns="http://www.w3.org/2000/svg"><path d="M8.72 1.805a.865.865 0 0 0-.214.147c-.216.205-.241.298-.264.984l-.022.636-.516.136c-1.297.34-2.434.995-3.127 1.8C3.292 7.002 2.76 9.049 2.76 12.5c0 3.389.516 5.429 1.746 6.907.734.882 1.878 1.547 3.274 1.905 1.173.301 2.345.416 4.22.416 1.875 0 3.047-.115 4.22-.416 1.396-.358 2.54-1.023 3.274-1.905.943-1.133 1.404-2.427 1.653-4.647.099-.88.1-3.622.001-4.527-.242-2.213-.742-3.582-1.725-4.725-.693-.805-1.83-1.46-3.127-1.8l-.516-.136-.022-.636c-.023-.686-.049-.779-.264-.983a.72.72 0 0 0-.988 0c-.209.197-.24.305-.259.88-.016.52-.018.533-.102.512a20.051 20.051 0 0 0-1.115-.065c-.962-.042-2.907-.002-3.175.065-.084.021-.086.008-.102-.512-.019-.575-.05-.683-.259-.88a.817.817 0 0 0-.227-.15.952.952 0 0 0-.547.002m5.327 3.019.187.024.013.926c.014 1.007.023 1.05.259 1.273A.667.667 0 0 0 15 7.24a.667.667 0 0 0 .494-.193c.229-.217.244-.28.259-1.137.008-.435.03-.79.05-.79.123 0 .886.28 1.257.462 1.159.566 1.859 1.481 2.281 2.981.121.431.28 1.349.32 1.847l.028.35H4.309l.028-.35c.09-1.12.375-2.24.767-3.01.425-.837 1.008-1.414 1.836-1.818.371-.182 1.134-.462 1.257-.462.02 0 .042.355.05.79.015.857.03.92.259 1.137A.667.667 0 0 0 9 7.24a.667.667 0 0 0 .494-.193c.236-.223.245-.266.259-1.274l.013-.926.387-.026a8.04 8.04 0 0 0 .467-.04c.12-.023 3.211.016 3.427.043m5.712 7.826c-.001.618-.072 1.79-.141 2.33-.186 1.456-.552 2.518-1.132 3.284-.397.525-.824.868-1.466 1.176-1.177.566-2.648.8-5.02.8-5.69 0-7.433-1.455-7.719-6.44-.022-.385-.04-.893-.04-1.13l-.001-.43h15.52l-.001.41" fill-rule="evenodd" fill="#000"/></svg>