<svg width="24" height="24" viewBox="0 0 24 24" fill="none" xmlns="http://www.w3.org/2000/svg">
<path d="M15 2.5V6.5M9 2.5V6.5M9 11.5H3.51733M3.51733 11.5C3.50563 11.8208 3.5 12.154 3.5 12.5C3.5 17.4094 4.64094 19.7517 8 20.6041M3.51733 11.5C3.7256 5.79277 5.84596 4 12 4C17.3679 4 19.6668 5.36399 20.3048 9.5M18 13C18 14.1045 17.1046 15 16 15C14.8954 15 14 14.1045 14 13C14 11.8954 14.8954 11 16 11C17.1046 11 18 11.8954 18 13ZM13.25 21H18.75C19.4404 21 20 20.4404 20 19.75C20 17.7096 17 17.75 16 17.75C15 17.75 12 17.7096 12 19.75C12 20.4404 12.5596 21 13.25 21Z" stroke="#001A72" stroke-width="1.5" stroke-linecap="round" stroke-linejoin="round"/>
</svg>
