<svg width="24" height="24" fill="none" xmlns="http://www.w3.org/2000/svg"><path d="M2.9 2.259a1.438 1.438 0 0 1-.147.037c-.138.031-.339.201-.419.355-.069.134-.089.424-.041.609.023.087 2.508 2.598 9.139 9.233 5.009 5.012 9.162 9.141 9.228 9.176.154.082.524.083.68.001a.847.847 0 0 0 .339-.345c.058-.112.072-.414.028-.585-.023-.087-2.508-2.598-9.139-9.233C7.559 6.495 3.415 2.371 3.36 2.342c-.105-.055-.392-.107-.46-.083m7 2.001a1.87 1.87 0 0 1-.147.036c-.139.031-.339.201-.421.359-.078.151-.086.525-.014.665a.864.864 0 0 0 .342.351c.097.052.335.07 1.262.094 1.949.051 3.814.255 4.568.5.187.06.191.065.268.328.241.821.427 2.569.477 4.485.032 1.22.042 1.277.251 1.467.157.142.283.188.514.188.237 0 .409-.07.545-.219.194-.214.196-.23.176-1.314-.011-.561-.02-1.189-.02-1.395L17.7 9.43l1.357-.656c.746-.361 1.37-.642 1.386-.625.033.035.169 1.105.244 1.931.064.701.064 3.138 0 3.84-.102 1.116-.206 1.88-.37 2.708-.098.494-.069.66.156.885.43.43 1.089.234 1.258-.376.134-.484.319-1.755.436-2.997.07-.746.07-3.523 0-4.28-.151-1.619-.377-2.997-.533-3.249a.74.74 0 0 0-.794-.331c-.085.023-.86.383-1.721.801-.861.418-1.583.749-1.603.737-.02-.013-.036-.074-.036-.138 0-.199-.196-1.205-.304-1.56-.128-.421-.31-.771-.473-.908-.622-.527-2.794-.867-6.043-.947-.396-.01-.738-.012-.76-.005M2.985 7.299c-.214.076-.408.276-.461.475C2.385 8.3 2.271 10.2 2.271 12c0 3.595.401 6.26 1.02 6.783.689.583 3.257.945 6.709.945 1.466.001 2.403-.04 3.48-.149.761-.078.888-.114 1.058-.302.344-.381.239-.941-.22-1.178-.152-.079-.324-.074-1.538.047-1.035.103-4.502.103-5.578.001-1.345-.128-2.238-.264-2.69-.411-.171-.055-.193-.077-.248-.248-.147-.452-.283-1.342-.411-2.69-.103-1.076-.102-4.542.001-5.578.128-1.286.13-1.387.026-1.572a.718.718 0 0 0-.463-.364c-.197-.055-.241-.053-.432.015" fill-rule="evenodd" fill="#000"/></svg>