<svg width="24" height="24" viewBox="0 0 24 24" fill="none" xmlns="http://www.w3.org/2000/svg">
<path d="M16.8772 9L21 7C21 7 21.5 9 21.5 12C21.5 15 21 17 21 17M16.8772 9C16.7318 7.28891 16.477 6.03256 16.2222 5.77778C15.8333 5.38889 13.1111 5 10 5M16.8772 9C16.9538 9.9006 17 10.9272 17 12M3 3L21 21M3.22627 8C3.08981 9.09966 3 10.5049 3 12C3 15.1111 3.38889 17.8333 3.77778 18.2222C4.16667 18.6111 6.88889 19 10 19C11.4951 19 12.9003 18.9102 14 18.7737" stroke="#001A72" stroke-width="1.5" stroke-linecap="round" stroke-linejoin="round"/>
</svg>
