<svg width="24" height="24" viewBox="0 0 24 24" fill="none" xmlns="http://www.w3.org/2000/svg">
<path d="M16.8772 15L21 17C21 17 21.5 15 21.5 12C21.5 9 21 7 21 7L16.8772 9M16.8772 15C16.9538 14.0994 17 13.0728 17 12C17 10.9272 16.9538 9.9006 16.8772 9M16.8772 15C16.7318 16.7111 16.477 17.9674 16.2222 18.2222C15.8333 18.6111 13.1111 19 10 19C6.88889 19 4.16667 18.6111 3.77778 18.2222C3.38889 17.8333 3 15.1111 3 12C3 8.88889 3.38889 6.16667 3.77778 5.77778C4.16667 5.38889 6.88889 5 10 5C13.1111 5 15.8333 5.38889 16.2222 5.77778C16.477 6.03256 16.7318 7.28891 16.8772 9" stroke="#001A72" stroke-width="1.5" stroke-linecap="round" stroke-linejoin="round"/>
</svg>
