<svg width="24" height="24" fill="none" xmlns="http://www.w3.org/2000/svg"><path d="M9.12 4.266c-1.346.03-3.033.173-4 .337-.902.154-1.538.367-1.829.614-.619.523-1.02 3.188-1.02 6.783s.401 6.26 1.02 6.783c.691.585 3.264.946 6.729.945 3.431-.002 6.002-.363 6.683-.94.163-.137.346-.489.472-.908.108-.36.305-1.366.305-1.56 0-.064.016-.125.036-.138.02-.012.742.319 1.603.737s1.636.778 1.721.801a.74.74 0 0 0 .794-.331c.156-.252.38-1.617.533-3.249.071-.748.07-3.525 0-4.28-.115-1.231-.301-2.511-.436-2.997-.084-.305-.28-.51-.55-.579a.863.863 0 0 0-.309-.022c-.065.014-.838.375-1.718.802-.881.427-1.617.766-1.637.754-.021-.013-.037-.074-.037-.138 0-.199-.196-1.205-.304-1.56-.128-.421-.31-.771-.473-.908-.635-.538-2.956-.893-6.163-.943a49.006 49.006 0 0 0-1.42-.003m3.72 1.591c1.295.123 2.203.263 2.65.408.187.06.191.065.269.328.146.491.286 1.469.409 2.847.034.379.052 1.267.052 2.56 0 1.293-.018 2.181-.052 2.56-.123 1.378-.263 2.356-.409 2.847-.078.263-.082.268-.269.328-.454.148-1.344.284-2.692.412-1.066.101-4.53.101-5.596 0-1.345-.128-2.238-.264-2.69-.411-.171-.055-.193-.077-.248-.248-.147-.452-.283-1.342-.411-2.69-.102-1.066-.102-4.53 0-5.596.128-1.348.264-2.238.411-2.69.055-.171.077-.193.248-.248.573-.186 2.171-.393 3.688-.479.693-.039 4.014.012 4.64.072m7.62 2.313c.028.079.17 1.275.226 1.91.066.738.066 3.122.001 3.84-.075.822-.21 1.896-.244 1.931-.016.017-.64-.264-1.386-.625L17.7 14.57l.005-.395c.007-.523.007-3.847 0-4.35L17.7 9.43l1.34-.652a59.819 59.819 0 0 1 1.371-.655c.017-.002.039.02.049.047" fill-rule="evenodd" fill="#000"/></svg>