<svg width="24" height="24" viewBox="0 0 24 24" fill="none" xmlns="http://www.w3.org/2000/svg">
<path d="M15 18.9372C14.0645 18.9771 13.0495 19 12 19C8 19 4.5 18.6667 4 18.3333C3.5 18 3 15.6667 3 13C3 10.7849 3.34499 8.79986 3.7484 8M12 16C10.3431 16 9 14.6569 9 13M3 3L21 21M10 5.16181C10.4888 5.06081 11.1374 5 12 5C17 5 14.8083 7.04298 16 7.11352C18.1268 7.2394 19.6796 7.45303 20 7.66667C20.5 8 21 10.3333 21 13C21 14.0946 20.9158 15.133 20.7819 16" stroke="#001A72" stroke-width="1.5" stroke-linecap="round" stroke-linejoin="round"/>
</svg>
