<svg width="24" height="24" fill="none" xmlns="http://www.w3.org/2000/svg"><path d="M11.42 4.266c-.796.031-1.53.137-2.057.297-.917.28-1.484.87-1.621 1.687-.025.149-.027.15-.216.15-.307 0-1.902.156-2.456.241-.547.083-1.044.199-1.285.3-.697.291-1.142 1.474-1.404 3.73-.249 2.145-.078 5.2.379 6.769.348 1.197.658 1.563 1.49 1.76 1.435.338 4.219.528 7.75.528 3.531 0 6.315-.19 7.75-.528.563-.133.864-.341 1.102-.76.608-1.069.969-3.72.863-6.348-.1-2.511-.535-4.338-1.172-4.925-.277-.255-.668-.383-1.613-.526-.554-.085-2.149-.241-2.456-.241-.189 0-.191-.001-.216-.15-.137-.817-.704-1.407-1.621-1.687-.737-.224-2.032-.344-3.217-.297m1.8 1.534c.732.081 1.265.244 1.447.445.061.067.105.206.151.472.103.6.331.927.741 1.062.099.033.433.078.741.1 1.673.122 2.907.276 3.206.4.135.056.368.828.512 1.701.173 1.044.2 1.448.2 3.02s-.027 1.976-.2 3.02c-.131.792-.375 1.635-.491 1.696-.099.052-.95.192-1.587.262-2.766.302-7.3.354-10.5.121-1.379-.101-2.771-.281-2.967-.383-.131-.069-.365-.908-.507-1.816-.167-1.079-.186-1.367-.186-2.9s.019-1.821.186-2.9c.154-.986.378-1.759.528-1.821.299-.124 1.533-.278 3.206-.4.682-.049.897-.114 1.121-.338.196-.195.309-.468.376-.9.032-.207.074-.33.135-.396.178-.194.717-.365 1.388-.441.428-.048 2.073-.051 2.5-.004m-1.625 3.482a3.765 3.765 0 0 0-2.564 1.437c-.238.313-.563.968-.649 1.306a4.254 4.254 0 0 0 0 1.95c.086.338.411.993.649 1.306.366.482.817.837 1.421 1.119.398.186.702.268 1.183.317a3.648 3.648 0 0 0 1.913-.317c.855-.399 1.406-.94 1.813-1.78a3.21 3.21 0 0 0 .356-1.255 3.648 3.648 0 0 0-.317-1.913c-.44-.942-1.128-1.585-2.107-1.967-.441-.173-1.171-.26-1.698-.203m.979 1.541c.376.097.697.287 1.006.597.456.456.66.944.66 1.58 0 .636-.204 1.124-.66 1.58-.456.456-.944.66-1.58.66-.636 0-1.124-.204-1.58-.66-.456-.456-.66-.944-.66-1.58 0-.636.204-1.124.66-1.58.459-.458.916-.652 1.554-.657.203-.002.46.024.6.06" fill-rule="evenodd" fill="#000"/></svg>