<svg width="24" height="24" fill="none" xmlns="http://www.w3.org/2000/svg"><path d="M14.8 2.867c-1.049.164-1.865.485-2.658 1.044-.233.164-1.342 1.243-4.016 3.908-2.032 2.024-3.829 3.833-3.994 4.02a5.716 5.716 0 0 0-1.327 4.941 5.725 5.725 0 0 0 6.1 4.578 5.732 5.732 0 0 0 3.033-1.169c.325-.244 6.876-6.74 7.683-7.617.455-.496.77-.943 1.019-1.448a5.748 5.748 0 0 0-.593-6.063 7.073 7.073 0 0 0-.528-.581c-.885-.871-1.961-1.402-3.239-1.599-.247-.038-1.266-.048-1.48-.014m1.367 1.512a4.19 4.19 0 0 1 1.897.815 4.254 4.254 0 0 1 1.296 5.153c-.281.619-.498.874-2.195 2.583-.89.897-1.638 1.63-1.662 1.63-.024 0-1.389-1.346-3.034-2.991l-2.99-2.991 1.67-1.662c1.771-1.762 1.997-1.954 2.631-2.228.772-.334 1.618-.443 2.387-.309m-3.316 12.864c-.875.871-1.717 1.678-1.871 1.794-.353.264-.973.57-1.44.71-.331.099-.418.108-1.08.11-.669.002-.749-.005-1.12-.109a4.257 4.257 0 0 1-2.432-6.484c.131-.199.681-.781 1.848-1.955l1.662-1.671 3.012 3.011 3.012 3.011-1.591 1.583" fill-rule="evenodd" fill="#000"/></svg>