<svg width="24" height="24" fill="none" xmlns="http://www.w3.org/2000/svg"><path d="M7.076 3.283c-1.584.131-2.886.934-3.789 2.337-.492.763-.837 1.811-.969 2.94-.067.582-.058 1.748.018 2.24.231 1.491.884 2.91 2.007 4.36.429.554 1.622 1.762 2.257 2.288a24.442 24.442 0 0 0 4.652 3.016c.739.363.758.363 1.523-.013a25.455 25.455 0 0 0 4.707-3.068c.58-.486 1.777-1.71 2.175-2.223 1.121-1.447 1.777-2.873 2.007-4.36.076-.491.085-1.667.018-2.22-.117-.966-.344-1.755-.71-2.471-1.001-1.961-2.841-3.009-4.959-2.825-.844.074-1.506.291-2.273.748-.354.211-.544.369-1.123.936-.369.36-.551.512-.617.512-.066 0-.248-.152-.617-.512-.579-.567-.769-.725-1.123-.936-1.006-.599-2.044-.844-3.184-.749M8.48 4.871c.776.232 1.134.461 1.928 1.237.479.468.637.598.86.703.257.122.297.129.732.129s.475-.007.732-.129c.223-.105.381-.235.86-.703.795-.776 1.156-1.008 1.928-1.236.339-.101 1.163-.141 1.542-.075a3.298 3.298 0 0 1 1.804.922c.882.882 1.315 2.053 1.363 3.681.024.83-.028 1.287-.22 1.96l-.109.38-1.705.01-1.705.011-.713-1.604c-.784-1.763-.847-1.868-1.248-2.065-.194-.095-.278-.112-.549-.111-.286.001-.347.016-.572.137a1.424 1.424 0 0 0-.369.283c-.065.082-.552 1.092-1.083 2.244a235.528 235.528 0 0 1-.979 2.109c-.007.008-.228-.416-.491-.941-.517-1.034-.622-1.176-1.001-1.344-.282-.126-.728-.116-1.01.022-.304.149-.462.33-.715.821l-.22.428H4.1l-.108-.38a5.883 5.883 0 0 1-.232-1.705c.001-1.192.199-2.119.628-2.94.484-.924 1.199-1.542 2.092-1.809.459-.137.495-.141 1.16-.126.428.01.648.034.84.091m6.081 6.229c.291.66.58 1.299.641 1.42.13.257.345.475.598.607.179.092.193.093 1.772.105l1.592.011-.089.149c-.33.551-1.071 1.44-1.736 2.083-1.343 1.298-2.986 2.461-4.929 3.488l-.41.217-.41-.217c-2.818-1.49-5.073-3.318-6.418-5.203a6.771 6.771 0 0 1-.289-.43l-.046-.09h1.54c1.444 0 1.553-.005 1.755-.08.31-.116.515-.311.694-.659.085-.166.163-.301.174-.301.012 0 .23.419.486.932.256.513.512.987.568 1.053.056.067.215.182.354.257.221.118.289.135.552.136.447.003.827-.189 1.039-.523.062-.097.532-1.086 1.044-2.196.513-1.111.945-2.006.96-1.989.015.016.266.57.558 1.23" fill-rule="evenodd" fill="#000"/></svg>