<svg width="24" height="24" viewBox="0 0 24 24" fill="none" xmlns="http://www.w3.org/2000/svg">
<path d="M20.4037 12.5C20.778 11.6322 21 10.7013 21 9.71405C21 6 18.9648 4 16.4543 4C15.2487 4 14.0925 4.49666 13.24 5.38071L12.7198 5.92016C12.3266 6.32798 11.6734 6.32798 11.2802 5.92016L10.76 5.38071C9.90749 4.49666 8.75128 4 7.54569 4C5 4 3 6 3 9.71405C3 10.7013 3.222 11.6322 3.59627 12.5M20.4037 12.5C18.395 17.1578 12 20 12 20C12 20 5.60502 17.1578 3.59627 12.5M20.4037 12.5L16.3249 12.5C16.1273 12.5 15.9483 12.3837 15.868 12.2031L14.4483 9.00872C14.2737 8.61588 13.7176 8.61194 13.5374 9.00226L11.436 13.5555C11.2603 13.9361 10.7223 13.9445 10.5348 13.5695L9.44721 11.3944C9.26295 11.0259 8.73705 11.0259 8.55279 11.3944L8.1382 12.2236C8.0535 12.393 7.88037 12.5 7.69098 12.5L3.59627 12.5" stroke="#001A72" stroke-width="1.5" stroke-linecap="round" stroke-linejoin="round"/>
</svg>
