<svg width="24" height="24" fill="none" xmlns="http://www.w3.org/2000/svg"><path d="M11.544 2.283c-1.779.157-3.356 1.369-3.991 3.066-.159.425-.232.788-.279 1.381l-.047.59-.163.042c-1.841.463-3.225 2.337-3.709 5.018-.073.405-.086.627-.085 1.42.004 2.736.41 4.39 1.36 5.543.722.877 1.961 1.453 3.642 1.694 1.069.154 1.641.182 3.728.182s2.659-.028 3.728-.182c2.701-.388 4.102-1.542 4.669-3.849.229-.927.33-1.965.332-3.388.001-.79-.013-1.017-.085-1.42-.216-1.208-.632-2.29-1.22-3.174-.609-.916-1.539-1.605-2.488-1.844l-.163-.042-.047-.59c-.047-.593-.12-.956-.279-1.381a4.792 4.792 0 0 0-3.291-2.95c-.244-.062-1.152-.175-1.236-.153-.011.003-.18.019-.376.037m1.111 1.535c.349.067.691.197 1.016.388.295.173.95.828 1.123 1.123.293.499.446 1.053.446 1.615v.296H8.76v-.317c0-.549.152-1.094.446-1.594.173-.295.828-.95 1.123-1.123a3.32 3.32 0 0 1 .985-.386c.36-.071.974-.072 1.341-.002m2.592 6.172c.014 1.295.016 1.312.208 1.524.136.15.308.219.545.219.237 0 .409-.069.545-.219.191-.211.194-.233.208-1.464.007-.644.022-1.17.035-1.17.077 0 .55.271.719.412.738.614 1.265 1.607 1.6 3.013.11.464.113.502.113 1.615 0 1.184-.044 1.774-.186 2.516-.431 2.255-1.477 2.986-4.654 3.251-.797.066-3.963.066-4.76 0-3.177-.265-4.223-.996-4.654-3.251-.142-.742-.186-1.332-.186-2.516 0-1.113.003-1.151.113-1.615.402-1.688 1.121-2.846 2.049-3.303.137-.067.258-.122.27-.122.013 0 .028.526.035 1.17.014 1.26.02 1.296.239 1.495.157.142.283.188.514.188.231 0 .357-.046.514-.188.221-.2.225-.229.239-1.555l.012-1.23h6.47l.012 1.23" fill-rule="evenodd" fill="#000"/></svg>