<svg width="24" height="24" fill="none" xmlns="http://www.w3.org/2000/svg"><path d="M11.544 2.283c-1.779.157-3.356 1.369-3.991 3.066-.159.425-.232.788-.279 1.381l-.047.59-.163.042c-1.841.463-3.225 2.337-3.709 5.018-.073.405-.086.627-.085 1.42.004 2.736.41 4.39 1.36 5.543.722.877 1.961 1.453 3.642 1.694 1.069.154 1.641.182 3.728.182s2.659-.028 3.728-.182c2.701-.388 4.102-1.542 4.669-3.849.229-.927.33-1.965.332-3.388.001-.79-.013-1.017-.085-1.42-.216-1.208-.632-2.29-1.22-3.174-.609-.916-1.539-1.605-2.488-1.844l-.163-.042-.047-.59c-.047-.593-.12-.956-.279-1.381a4.792 4.792 0 0 0-3.291-2.95c-.244-.062-1.152-.175-1.236-.153-.011.003-.18.019-.376.037m1.111 1.535c.349.067.691.197 1.016.388.295.173.95.828 1.123 1.123.293.499.446 1.053.446 1.615v.296H8.76v-.317c0-.549.152-1.094.446-1.594.173-.295.828-.95 1.123-1.123a3.32 3.32 0 0 1 .985-.386c.36-.071.974-.072 1.341-.002m4.105 5.056c1.1.395 1.904 1.571 2.347 3.431.11.464.113.502.113 1.615-.001 3.097-.528 4.486-1.96 5.163-1.019.482-2.401.654-5.26.654-1.078 0-2.017-.02-2.38-.05-3.177-.265-4.223-.996-4.654-3.251-.142-.742-.186-1.332-.186-2.516 0-1.113.003-1.151.113-1.615.295-1.236.741-2.157 1.345-2.777.362-.37.647-.543 1.142-.691.225-.068.512-.072 4.68-.064l4.44.007.26.094M7.9 10.259a1.438 1.438 0 0 1-.147.037c-.139.031-.339.201-.421.359-.083.16-.084.528-.002.685.124.239.414.42.67.42.256 0 .546-.181.67-.42.076-.146.083-.523.012-.66a.852.852 0 0 0-.322-.339c-.106-.055-.393-.106-.46-.082m8 0a1.438 1.438 0 0 1-.147.037c-.139.031-.339.201-.421.359-.083.16-.084.528-.002.685.124.239.414.42.67.42.256 0 .546-.181.67-.42.076-.146.083-.523.012-.66a.852.852 0 0 0-.322-.339c-.106-.055-.393-.106-.46-.082" fill-rule="evenodd" fill="#000"/></svg>