<svg width="24" height="24" viewBox="0 0 24 24" fill="none" xmlns="http://www.w3.org/2000/svg">
<path d="M3.29092 8C3.48057 6.81136 3.74029 5.97978 4.00001 5.77778C4.50001 5.38889 8.00001 5 12 5C16 5 19.5 5.38889 20 5.77778C20.5 6.16667 21 8.88889 21 12C21 15.1111 20.5 17.8333 20 18.2222C19.5857 18.5445 17.1116 18.8667 14 18.9677M3 11C5.03079 11.2259 6.92428 12.136 8.36911 13.5809C9.81395 15.0257 10.7241 16.9192 10.95 18.95M3 15.05C3.96089 15.246 4.84294 15.7202 5.53638 16.4136C6.22982 17.1071 6.70403 17.9891 6.9 18.95M3 18.95H3.01" stroke="#001A72" stroke-width="1.5" stroke-linecap="round" stroke-linejoin="round"/>
</svg>
