<svg width="24" height="24" fill="none" xmlns="http://www.w3.org/2000/svg"><path d="M10.68 4.264c-3.271.084-5.759.355-6.778.738-.612.23-.951.859-1.244 2.303-.054.267-.098.58-.098.697 0 .626.724.972 1.2.572.181-.153.222-.259.356-.917.143-.706.31-1.247.4-1.294.209-.112 1.486-.309 2.724-.42C8.822 5.8 9.398 5.78 12 5.78s3.178.02 4.76.163c1.239.111 2.515.308 2.725.42.129.068.371.996.513 1.967.193 1.313.22 1.766.22 3.67s-.027 2.357-.22 3.67c-.142.971-.384 1.899-.513 1.967-.118.063-.818.198-1.446.28-1.024.134-2.087.22-3.444.281-.675.031-.808.047-.95.12-.435.221-.519.854-.158 1.19.221.207.324.221 1.308.174 2.83-.135 4.79-.407 5.487-.763.447-.228.799-.946 1.038-2.118.55-2.702.55-6.9 0-9.602-.27-1.326-.631-1.974-1.222-2.197-.853-.321-2.694-.561-5.218-.68a96.037 96.037 0 0 0-4.2-.058m-7.865 6.014c-.476.114-.714.707-.447 1.111.156.236.315.315.788.389 2.157.34 4.01 1.403 5.302 3.042.918 1.164 1.442 2.365 1.702 3.896.095.563.142.676.343.829.15.114.469.171.674.119.129-.032.37-.242.445-.388.151-.291-.034-1.401-.423-2.537a11.795 11.795 0 0 0-.983-2.039c-1.348-2.092-3.468-3.618-5.836-4.203-.359-.088-1.332-.263-1.409-.253a3.054 3.054 0 0 0-.156.034m-.205 4.145a.715.715 0 0 0-.343.638c.003.365.21.611.606.722 1.01.281 1.523.564 2.135 1.18a4.047 4.047 0 0 1 1.097 1.906c.058.219.146.448.201.521.251.332.794.391 1.088.117.052-.048.13-.158.175-.245.113-.22.077-.532-.13-1.157-.29-.871-.721-1.555-1.417-2.246a5.621 5.621 0 0 0-2.542-1.462c-.424-.107-.661-.1-.87.026m.11 3.841c-.301.131-.453.363-.453.697a.708.708 0 0 0 .73.719c.489 0 .817-.379.745-.861-.023-.153-.064-.225-.217-.377-.246-.247-.511-.306-.805-.178" fill-rule="evenodd" fill="#000"/></svg>