<svg width="24" height="24" fill="none" xmlns="http://www.w3.org/2000/svg"><path d="M11.32 2.28c-1.879.127-3.672.802-5.236 1.972-.493.368-1.464 1.339-1.832 1.832a9.794 9.794 0 0 0-1.895 4.524 10.9 10.9 0 0 0 0 2.784 9.794 9.794 0 0 0 1.895 4.524c.368.493 1.339 1.464 1.832 1.832a9.768 9.768 0 0 0 4.524 1.894 10.32 10.32 0 0 0 3.804-.2 9.913 9.913 0 0 0 3.504-1.694c.493-.369 1.463-1.339 1.832-1.832a9.763 9.763 0 0 0 1.894-4.524 10.9 10.9 0 0 0 0-2.784 9.763 9.763 0 0 0-1.894-4.524c-.369-.493-1.339-1.463-1.832-1.832-1.13-.846-2.524-1.495-3.796-1.766a10.872 10.872 0 0 0-2.8-.206m-.08 5.24v3.72H3.789l.027-.27c.133-1.308.75-2.815 1.629-3.979.321-.425 1.121-1.225 1.546-1.546a8.424 8.424 0 0 1 2.93-1.429c.454-.117.943-.206 1.169-.212l.15-.004v3.72m2.46-3.594c1.138.234 2.335.783 3.309 1.519.425.321 1.225 1.121 1.546 1.546A8.176 8.176 0 0 1 20.24 12c0 1.811-.55 3.475-1.631 4.933l-.262.354-2.794-2.794L12.76 11.7V3.789l.27.027c.148.015.45.065.67.11m.793 11.627 2.794 2.794-.354.262a8.255 8.255 0 0 1-9.299.39c-.75-.465-1.668-1.3-2.189-1.99-.879-1.164-1.496-2.671-1.629-3.979l-.027-.27H11.7l2.793 2.793" fill-rule="evenodd" fill="#000"/></svg>