<svg width="24" height="24" fill="none" xmlns="http://www.w3.org/2000/svg"><path d="M11.9 8.259a1.795 1.795 0 0 1-.16.04c-.09.019-.773.678-2.733 2.633-1.437 1.435-2.641 2.662-2.676 2.728-.082.154-.083.524-.001.68.07.135.204.266.345.339.112.058.414.072.585.027.085-.022.786-.696 2.43-2.338L12 10.061l2.31 2.307c1.644 1.642 2.345 2.316 2.43 2.338.525.138.98-.166.993-.661a1.354 1.354 0 0 0-.026-.305c-.023-.086-.778-.868-2.639-2.733-1.435-1.437-2.653-2.636-2.708-2.665-.106-.055-.392-.107-.46-.083" fill-rule="evenodd" fill="#000"/></svg>