<svg width="24" height="24" fill="none" xmlns="http://www.w3.org/2000/svg"><path d="M14.9 3.259a1.795 1.795 0 0 1-.16.04c-.091.019-1.121 1.025-4.233 4.133-2.262 2.26-4.141 4.162-4.176 4.228-.083.156-.083.524 0 .68.035.066 1.914 1.968 4.176 4.228 2.966 2.962 4.146 4.116 4.233 4.139.525.136.98-.167.993-.662a1.354 1.354 0 0 0-.026-.305c-.023-.086-1.096-1.185-3.839-3.93L8.061 12l3.807-3.81c2.743-2.745 3.816-3.844 3.839-3.93.13-.503-.128-.926-.607-.993a.725.725 0 0 0-.2-.008" fill-rule="evenodd" fill="#000"/></svg>