<svg width="24" height="24" fill="none" xmlns="http://www.w3.org/2000/svg"><path d="M11.52 4.282a5.68 5.68 0 0 0-3.576 1.662A5.747 5.747 0 0 0 6.38 8.82a10.533 10.533 0 0 0-.139 1.364c-.001.117-.012.126-.231.173a4.799 4.799 0 0 0-3.611 3.488c-.222.868-.158 1.997.161 2.828a4.797 4.797 0 0 0 3.284 2.928c.294.075 1.146.172 1.247.141.027-.008.097-.026.156-.039.139-.03.339-.2.421-.358.078-.151.086-.525.014-.665-.158-.305-.333-.394-.873-.441-.509-.045-.817-.119-1.165-.281-.715-.333-1.374-1.026-1.668-1.751-.289-.717-.289-1.697 0-2.414.168-.414.354-.683.744-1.073.722-.722 1.425-.995 2.44-.948.738.034 1.236.215 1.832.666.183.138.399.267.48.285a.744.744 0 0 0 .887-.928c-.134-.503-1.445-1.287-2.429-1.453l-.17-.029v-.372c0-1.991 1.476-3.738 3.477-4.118.611-.116 1.48-.063 2.04.124 1.341.448 2.357 1.47 2.777 2.793.135.424.154.589.181 1.52.03 1.023.045 1.098.251 1.285.162.146.262.177.704.216.51.045.818.119 1.166.281a3.487 3.487 0 0 1 1.67 1.758c.283.7.283 1.7 0 2.4a3.487 3.487 0 0 1-1.67 1.758c-.348.162-.656.236-1.165.281-.54.047-.715.136-.873.441-.072.14-.064.514.014.665.082.158.282.328.421.358.059.013.129.031.156.039.101.031.953-.066 1.247-.141a4.797 4.797 0 0 0 3.284-2.928c.396-1.032.39-2.352-.017-3.386a4.812 4.812 0 0 0-3.433-2.93c-.219-.047-.23-.056-.231-.173a10.533 10.533 0 0 0-.139-1.364 5.731 5.731 0 0 0-1.565-2.875 5.681 5.681 0 0 0-4.535-1.663" fill-rule="evenodd" fill="#000"/></svg>