<svg width="24" height="24" fill="none" xmlns="http://www.w3.org/2000/svg"><path d="M11.32 2.28c-1.879.127-3.672.802-5.236 1.972-.493.368-1.464 1.339-1.832 1.832a9.794 9.794 0 0 0-1.895 4.524 10.9 10.9 0 0 0 0 2.784 9.794 9.794 0 0 0 1.895 4.524c.368.493 1.339 1.464 1.832 1.832a9.768 9.768 0 0 0 4.524 1.894 10.32 10.32 0 0 0 3.804-.2 9.913 9.913 0 0 0 3.504-1.694c.493-.369 1.463-1.339 1.832-1.832a9.763 9.763 0 0 0 1.894-4.524 10.9 10.9 0 0 0 0-2.784 9.763 9.763 0 0 0-1.894-4.524c-.369-.493-1.339-1.463-1.832-1.832-1.13-.846-2.524-1.495-3.796-1.766a10.872 10.872 0 0 0-2.8-.206m1.86 1.558a8.233 8.233 0 0 1 3.829 1.607c.425.321 1.225 1.121 1.546 1.546a8.266 8.266 0 0 1 .444 9.375 8.679 8.679 0 0 1-2.633 2.633 8.27 8.27 0 0 1-8.732 0 8.679 8.679 0 0 1-2.633-2.633c-1.51-2.435-1.659-5.493-.392-8.023.433-.864.868-1.465 1.568-2.166.879-.878 1.824-1.491 2.948-1.911a8.455 8.455 0 0 1 4.055-.428m-1.375 1.441a.73.73 0 0 0-.527.544c-.02.086-.037.438-.037.781l-.001.625-.35.028c-.652.053-1.022.173-1.499.489-.525.348-.909.9-1.054 1.514-.087.372-.087 1.108 0 1.48.22.933.972 1.671 1.963 1.927.183.047.578.068 1.66.089 1.229.023 1.441.036 1.578.096.472.21.702.586.702 1.148 0 .562-.228.935-.702 1.149-.144.065-.364.073-2.458.091-2.442.021-2.374.016-2.594.215-.149.136-.219.308-.219.545 0 .231.046.357.188.514.2.22.23.225 1.551.239l1.226.012.015.728c.015.754.029.823.208 1.021.136.15.308.219.545.219.237 0 .409-.069.545-.219.179-.198.193-.267.208-1.019l.014-.725.347-.028c.446-.036.689-.088.986-.211.585-.243 1.101-.708 1.355-1.224.199-.403.273-.759.273-1.307 0-.548-.074-.904-.273-1.307-.316-.64-.99-1.163-1.755-1.36-.183-.047-.578-.068-1.66-.089-1.229-.023-1.441-.036-1.578-.096-.472-.21-.702-.586-.702-1.148 0-.562.228-.935.702-1.149.144-.065.364-.073 2.458-.091 2.442-.021 2.374-.016 2.594-.215.15-.136.219-.308.219-.545 0-.237-.069-.409-.219-.545-.212-.192-.229-.194-1.52-.208l-1.226-.012-.015-.728c-.015-.754-.029-.823-.208-1.021-.167-.185-.476-.271-.74-.207" fill-rule="evenodd" fill="#000"/></svg>