<svg width="24" height="24" fill="none" xmlns="http://www.w3.org/2000/svg"><path d="M14.64 2.279c-1.866.095-3.057.493-3.923 1.309-.74.698-1.183 1.711-1.358 3.103-.044.347-.042.411.019.568.133.35.502.551.852.463.402-.102.534-.302.628-.953.142-.983.394-1.583.861-2.05.367-.366.73-.556 1.378-.72.73-.183 1.129-.219 2.463-.219 1.328 0 1.782.045 2.466.243 1.636.474 2.214 1.628 2.214 4.42 0 2.046-.277 3.153-.96 3.838-.465.467-1.061.717-2.049.862-.661.097-.85.221-.952.624a.732.732 0 0 0 .462.855c.157.061.221.063.568.019 2.349-.295 3.651-1.364 4.166-3.421.282-1.126.348-3.24.147-4.675-.369-2.621-1.722-3.896-4.462-4.2a17.822 17.822 0 0 0-2.52-.066m-7.1 7c-.685.043-1.377.142-1.837.261-1.778.462-2.824 1.57-3.224 3.417-.289 1.332-.289 3.754 0 5.086.418 1.926 1.532 3.044 3.461 3.472.699.155 1.415.215 2.56.215s1.861-.06 2.56-.215c1.927-.427 3.028-1.528 3.455-3.455.156-.701.215-1.415.215-2.56-.001-1.839-.182-2.889-.667-3.853-.575-1.147-1.624-1.888-3.083-2.182-.826-.167-2.397-.251-3.44-.186m2.733 1.578c2.277.37 2.967 1.449 2.967 4.643 0 3.344-.741 4.384-3.34 4.684-.726.084-2.544.06-3.173-.042-.97-.156-1.554-.407-2.008-.861-.461-.461-.708-1.045-.868-2.05-.103-.652-.103-2.81 0-3.462.312-1.961 1.09-2.688 3.157-2.948.636-.08 2.689-.057 3.265.036" fill-rule="evenodd" fill="#000"/></svg>