<svg width="24" height="24" viewBox="0 0 24 24" fill="none" xmlns="http://www.w3.org/2000/svg">
<path d="M7 14H12M20.9058 10H3.09424M20.9058 10C20.7376 8.24663 20.3688 6.91254 20 6.66667C19.5 6.33333 16 6 12 6C8 6 4.5 6.33333 4 6.66667C3.63118 6.91254 3.26238 8.24663 3.09424 10M20.9058 10C20.9656 10.6237 21 11.3004 21 12C21 14.6667 20.5 17 20 17.3333C19.5 17.6667 16 18 12 18C8 18 4.5 17.6667 4 17.3333C3.5 17 3 14.6667 3 12C3 11.3004 3.03443 10.6237 3.09424 10" stroke="#001A72" stroke-width="1.5" stroke-linecap="round" stroke-linejoin="round"/>
</svg>
