<svg width="24" height="24" fill="none" xmlns="http://www.w3.org/2000/svg"><path d="M10.76 5.266c-2.239.034-4.67.206-5.915.417-.894.152-1.197.269-1.474.57-.605.656-.988 2.377-1.089 4.898-.103 2.569.263 5.229.866 6.289.238.419.539.627 1.102.76 1.435.338 4.219.528 7.75.528 3.531 0 6.315-.19 7.75-.528.563-.133.864-.341 1.102-.76.603-1.059.968-3.722.865-6.299-.119-2.989-.61-4.742-1.446-5.165-.894-.454-5.214-.776-9.511-.71m3.992 1.535c1.137.047 2.381.133 3.188.221.642.07 1.488.21 1.588.263.04.021.118.191.187.405.125.392.325 1.284.325 1.451v.099H3.96v-.09c0-.393.387-1.8.513-1.866.294-.154 2.627-.396 4.627-.48 1.138-.048 4.527-.05 5.652-.003m5.471 4.103c.049.258-.012 2.681-.081 3.236a16.815 16.815 0 0 1-.246 1.52c-.104.464-.298 1.018-.369 1.056-.099.052-.95.192-1.587.262-2.766.302-7.3.354-10.5.121-1.379-.101-2.771-.281-2.967-.383-.073-.039-.275-.615-.371-1.056a17.907 17.907 0 0 1-.244-1.52c-.069-.555-.13-2.978-.081-3.236l.027-.144h16.392l.027.144M6.805 13.279c-.382.092-.618.496-.526.898.071.31.317.522.653.563.114.014 1.351.019 2.748.012 2.765-.013 2.653-.004 2.865-.238.142-.157.188-.283.188-.514a.713.713 0 0 0-.393-.674c-.108-.059-.386-.067-2.76-.073-1.452-.003-2.701.008-2.775.026" fill-rule="evenodd" fill="#000"/></svg>