<svg width="24" height="24" fill="none" xmlns="http://www.w3.org/2000/svg"><path d="M11.66 3.281c-.697.094-1.342.567-1.663 1.219a2.18 2.18 0 0 0 0 2c.149.302.455.664.713.842.05.035.09.081.09.104 0 .023-.382.647-.85 1.386-.972 1.537-1.156 1.763-1.523 1.868a1.846 1.846 0 0 1-.433.066c-.411-.003-.498-.059-1.959-1.251a87.578 87.578 0 0 1-1.472-1.216l-.097-.095.189-.192c.221-.225.488-.738.545-1.047a2.272 2.272 0 0 0-1.017-2.372C3.825 4.36 3.502 4.272 3 4.272c-.314 0-.486.021-.683.084A2.303 2.303 0 0 0 .998 5.5a2.04 2.04 0 0 0-.238 1c0 .903.535 1.708 1.383 2.083.119.053.217.106.217.118 0 .013.315 1.91.7 4.216.518 3.108.73 4.288.817 4.555.413 1.262 1.293 2.252 2.522 2.837.467.222.995.359 1.578.411.581.052 7.465.052 8.046 0 1.05-.093 1.911-.459 2.714-1.154a4.655 4.655 0 0 0 1.441-2.288c.072-.275 1.462-8.426 1.462-8.578 0-.011.098-.064.217-.117A2.33 2.33 0 0 0 23.003 7.5c.518-1.052.178-2.256-.82-2.907-.358-.233-.681-.321-1.183-.321-.314 0-.486.021-.683.084A2.303 2.303 0 0 0 18.998 5.5c-.23.466-.295.942-.198 1.465.057.309.324.822.545 1.047l.189.192-.097.095c-.053.052-.716.599-1.472 1.216-1.461 1.192-1.548 1.248-1.959 1.251a1.842 1.842 0 0 1-.433-.065c-.364-.104-.565-.352-1.552-1.909l-.854-1.348.174-.143c.325-.266.501-.48.661-.801.52-1.048.18-2.255-.82-2.907-.405-.264-.991-.384-1.522-.312m.607 1.522c.249.093.491.438.491.697 0 .161-.122.416-.263.547-.375.351-.954.22-1.179-.267a.6.6 0 0 1 0-.564c.171-.377.579-.554.951-.413m-9 1c.249.093.491.438.491.697a.823.823 0 0 1-.074.28c-.286.619-1.082.619-1.368 0a.6.6 0 0 1 0-.564c.171-.377.579-.554.951-.413m18 0c.249.093.491.438.491.697 0 .161-.122.416-.263.547-.375.351-.954.22-1.179-.267a.6.6 0 0 1 0-.564c.171-.377.579-.554.951-.413M12.823 9.69c.436.687.858 1.34.938 1.45.351.479.945.888 1.519 1.044.348.095 1.003.094 1.38-.002.513-.131.807-.322 2.055-1.343.647-.529 1.183-.954 1.192-.946.008.009-.237 1.535-.545 3.391-.414 2.492-.593 3.476-.683 3.757a3.188 3.188 0 0 1-1.649 1.877c-.656.321-.337.302-5.03.302-4.693 0-4.374.019-5.03-.302a3.177 3.177 0 0 1-1.646-1.866c-.094-.295-.264-1.225-.686-3.768-.308-1.856-.553-3.382-.545-3.391.009-.008.545.417 1.192.946 1.549 1.267 1.834 1.413 2.755 1.415.766.001 1.357-.245 1.9-.792.272-.273.449-.526 1.175-1.672.47-.743.868-1.35.885-1.35.017 0 .388.562.823 1.25" fill-rule="evenodd" fill="#000"/></svg>