<svg width="24" height="24" viewBox="0 0 24 24" fill="none" xmlns="http://www.w3.org/2000/svg">
<path d="M20.6777 15.0209L15.0209 20.6777M20.6777 15.0209L17.8492 12.1924M20.6777 15.0209L21.3848 15.728M15.0209 20.6777L12.1924 17.8492M15.0209 20.6777L15.728 21.3848M12.1924 17.8492L17.8492 12.1924M12.1924 17.8492C10.6303 16.2871 10.6303 13.7545 12.1924 12.1924M17.8492 12.1924C16.2871 10.6303 13.7545 10.6303 12.1924 12.1924M12.1924 6.53552L6.53552 12.1924M12.1924 6.53552C13.7545 8.09762 13.7545 10.6303 12.1924 12.1924M12.1924 6.53552L9.36401 3.70715M6.53552 12.1924C8.09762 13.7545 10.6303 13.7545 12.1924 12.1924M6.53552 12.1924L3.70715 9.36401M9.36401 3.70715L3.70715 9.36401M9.36401 3.70715L8.65685 3M3.70715 9.36401L3 8.65685" stroke="#001A72" stroke-width="1.5" stroke-linecap="round" stroke-linejoin="round"/>
</svg>
