<svg width="24" height="24" fill="none" xmlns="http://www.w3.org/2000/svg"><path d="M8.497 2.278c-.407.097-.641.471-.56.898.014.077.1.234.189.347l.164.207-2.28 2.28-2.28 2.28-.207-.164c-.308-.244-.661-.274-.943-.08-.282.193-.402.645-.249.935.035.065.969 1.021 2.076 2.123 1.449 1.442 2.092 2.055 2.296 2.188.933.609 2.023.89 3.073.79.231-.022.463-.05.515-.063l.095-.024-.056.312c-.075.423-.042 1.312.066 1.785a5.4 5.4 0 0 0 .66 1.531c.196.302.542.669 2.238 2.371 1.146 1.151 2.061 2.038 2.135 2.07.326.142.75.009.937-.294a.767.767 0 0 0-.033-.812 1.575 1.575 0 0 0-.192-.237c-.059-.049.178-.3 2.225-2.347l2.292-2.292.101.093c.202.185.362.269.556.292.547.065.972-.525.749-1.038-.032-.073-.916-.986-2.05-2.116-1.694-1.689-2.052-2.026-2.378-2.243a5.148 5.148 0 0 0-1.55-.675c-.467-.107-1.359-.14-1.779-.065l-.312.056.024-.095c.013-.052.041-.284.063-.515.1-1.05-.181-2.14-.79-3.073-.133-.204-.746-.847-2.188-2.296C10.002 3.3 9.055 2.371 9 2.342a.826.826 0 0 0-.503-.064M10.25 5.67l.87.87-2.29 2.29-2.29 2.29-.88-.88-.88-.88 2.28-2.28a187.994 187.994 0 0 1 2.3-2.28c.011 0 .412.392.89.87m2.026 2.241c.245.486.304.768.304 1.449 0 .538-.012.66-.094.92a3.332 3.332 0 0 1-2.206 2.206c-.26.082-.382.094-.92.094-.539 0-.659-.012-.919-.094-.317-.099-.761-.307-.761-.356 0-.039 4.411-4.45 4.449-4.45.017 0 .082.104.147.231m3.302 3.91c.366.064.899.251 1.052.37l.09.069-2.234 2.234-2.234 2.234-.086-.138c-.212-.343-.406-1.093-.406-1.57 0-.326.111-.884.24-1.207.16-.4.359-.699.696-1.046.773-.799 1.798-1.135 2.882-.946m3.152 2.329.87.87-2.29 2.29-2.29 2.29-.88-.88-.88-.88 2.28-2.28a187.994 187.994 0 0 1 2.3-2.28c.011 0 .412.392.89.87" fill-rule="evenodd" fill="#000"/></svg>