<svg width="24" height="24" fill="none" xmlns="http://www.w3.org/2000/svg"><path d="M10.62 1.801c-3.029.257-4.779 1.284-5.798 3.402-.509 1.059-.792 2.266-.97 4.137-.099 1.032-.099 4.288 0 5.32.265 2.782.846 4.434 1.976 5.622C7.127 21.646 8.997 22.24 12 22.24c2.868 0 4.711-.546 5.992-1.776.475-.456.806-.915 1.129-1.564.749-1.504 1.055-3.241 1.106-6.28.032-1.954-.067-3.829-.219-4.123-.086-.166-6.451-6.555-6.622-6.647-.109-.058-.278-.069-1.246-.075-.616-.004-1.3.007-1.52.026m1.71 3.489c.014 1.812.024 2.078.086 2.287.272.919 1.039 1.677 1.924 1.903.292.075.445.08 2.304.08 1.268 0 2 .014 2.016.04.013.021.045.571.07 1.22.065 1.658-.009 3.482-.192 4.76-.177 1.243-.487 2.244-.923 2.983-.338.574-.978 1.176-1.561 1.471-1.087.549-2.907.807-4.884.694-2.19-.126-3.358-.534-4.261-1.487-.918-.969-1.381-2.426-1.596-5.021-.065-.782-.065-3.649 0-4.44.135-1.644.351-2.725.73-3.653.41-1.004 1.078-1.747 1.977-2.197.845-.424 2.146-.657 3.808-.683l.487-.007.015 2.05m3.853 2.781c-1.538.012-1.612-.001-1.954-.328-.388-.372-.428-.579-.429-2.203v-1.2l1.86 1.86 1.86 1.86-1.337.011m-4.378 2.208a.73.73 0 0 0-.527.544c-.02.086-.037.664-.037 1.284l-.001 1.128-1.23.012c-1.326.014-1.355.018-1.555.239-.142.157-.188.283-.188.514 0 .231.046.357.188.514.2.22.229.225 1.552.239l1.228.012.012 1.228c.014 1.323.019 1.352.239 1.552.157.142.283.188.514.188.231 0 .357-.046.514-.188.22-.2.225-.229.239-1.552l.012-1.228 1.228-.012c1.292-.014 1.309-.016 1.521-.208.15-.136.219-.308.219-.545 0-.237-.069-.409-.219-.545-.212-.192-.229-.194-1.521-.208l-1.228-.012-.012-1.228c-.014-1.292-.016-1.309-.208-1.521-.167-.185-.476-.271-.74-.207" fill-rule="evenodd" fill="#000"/></svg>