<svg width="24" height="24" fill="none" xmlns="http://www.w3.org/2000/svg"><path d="M10.62 1.801c-3.029.257-4.779 1.284-5.798 3.402-.509 1.059-.792 2.266-.97 4.137-.099 1.032-.099 4.288 0 5.32.265 2.782.846 4.434 1.976 5.622C7.127 21.646 8.997 22.24 12 22.24c2.868 0 4.711-.546 5.992-1.776.475-.456.806-.915 1.129-1.564.749-1.504 1.055-3.241 1.106-6.28.032-1.954-.067-3.829-.219-4.123-.086-.166-6.451-6.555-6.622-6.647-.109-.058-.278-.069-1.246-.075-.616-.004-1.3.007-1.52.026m1.71 3.489c.014 1.812.024 2.078.086 2.287.272.919 1.039 1.677 1.924 1.903.292.075.445.08 2.304.08 1.268 0 2 .014 2.016.04.013.021.045.571.07 1.22.065 1.658-.009 3.482-.192 4.76-.177 1.243-.487 2.244-.923 2.983-.338.574-.978 1.176-1.561 1.471-1.087.549-2.907.807-4.884.694-2.19-.126-3.358-.534-4.261-1.487-.918-.969-1.381-2.426-1.596-5.021-.065-.782-.065-3.649 0-4.44.135-1.644.351-2.725.73-3.653.41-1.004 1.078-1.747 1.977-2.197.845-.424 2.146-.657 3.808-.683l.487-.007.015 2.05m3.853 2.781c-1.538.012-1.612-.001-1.954-.328-.388-.372-.428-.579-.429-2.203v-1.2l1.86 1.86 1.86 1.86-1.337.011M9.18 10.827a.696.696 0 0 0-.344.341.807.807 0 0 0-.012.644c.035.07.525.591 1.09 1.158L10.939 14l-1.025 1.03c-.565.567-1.055 1.088-1.09 1.158-.127.254-.048.673.162.857.223.196.582.253.826.131.07-.035.591-.525 1.158-1.09L12 15.061l1.03 1.025c.567.565 1.088 1.055 1.158 1.09.254.127.673.048.857-.162.196-.223.253-.582.131-.826-.035-.07-.525-.591-1.09-1.158L13.061 14l1.025-1.03c.565-.567 1.055-1.088 1.09-1.158.122-.244.065-.603-.131-.826-.184-.21-.603-.289-.857-.162-.07.035-.591.525-1.158 1.09L12 12.939l-1.03-1.025c-.567-.565-1.088-1.055-1.158-1.09-.162-.081-.476-.08-.632.003" fill-rule="evenodd" fill="#000"/></svg>