<svg width="24" height="24" fill="none" xmlns="http://www.w3.org/2000/svg"><path d="M11.805 2.279a.73.73 0 0 0-.527.544c-.021.09-.036 2.339-.037 5.256l-.001 5.1-1.43-1.427c-.998-.995-1.466-1.436-1.55-1.458-.545-.143-.993.175-.993.706 0 .124.028.272.064.34.035.066 1.014 1.068 2.176 2.228 1.511 1.507 2.147 2.116 2.233 2.138a1.2 1.2 0 0 0 .52 0c.086-.022.722-.631 2.233-2.138 1.162-1.16 2.141-2.162 2.176-2.228.082-.154.083-.524.001-.68a.849.849 0 0 0-.35-.342c-.139-.072-.515-.064-.66.013-.066.035-.741.686-1.5 1.447l-1.38 1.382-.02-5.19c-.021-5.552-.01-5.257-.215-5.484-.167-.185-.476-.271-.74-.207m-8 11c-.291.071-.505.327-.546.655-.014.116-.019 1.082-.01 2.148.018 2.202.025 2.261.336 2.91.468.975 1.502 1.63 3.076 1.949 1.16.235 2.295.298 5.339.298 3.044 0 4.179-.063 5.339-.298 1.574-.319 2.607-.973 3.076-1.949.319-.663.325-.721.325-3.072 0-1.133-.013-2.108-.03-2.167-.04-.144-.212-.341-.365-.421-.151-.078-.525-.086-.665-.014a.89.89 0 0 0-.354.342c-.058.106-.068.366-.086 2.22-.02 2.088-.021 2.101-.114 2.333-.114.282-.446.636-.766.815-.983.551-2.549.731-6.36.731-3.811 0-5.377-.18-6.36-.731-.32-.179-.652-.533-.766-.815-.093-.232-.094-.245-.114-2.333-.021-2.227-.017-2.175-.215-2.394-.167-.185-.476-.271-.74-.207" fill-rule="evenodd" fill="#000"/></svg>