<svg width="24" height="24" viewBox="0 0 24 24" fill="none" xmlns="http://www.w3.org/2000/svg">
<path d="M13.9445 14.1875L9.94446 10.1875M13.9445 14.1875L8.946 19.1859C8.28735 19.8446 7.48784 20.3646 6.56993 20.5229C5.64311 20.6828 4.49294 20.736 3.94444 20.1875C3.39595 19.639 3.44915 18.4888 3.609 17.562C3.76731 16.6441 4.28735 15.8446 4.946 15.1859L9.94446 10.1875M13.9445 14.1875C13.9445 14.1875 16.9444 11.1875 14.9444 9.1875C12.9444 7.1875 9.94446 10.1875 9.94446 10.1875M3.5 12C3.5 5.5 5.5 3.5 12 3.5C18.5 3.5 20.5 5.5 20.5 12C20.5 18.5 18.5 20.5 12 20.5" stroke="#001A72" stroke-width="1.5" stroke-linecap="round" stroke-linejoin="round"/>
</svg>
