<svg width="24" height="24" fill="none" xmlns="http://www.w3.org/2000/svg"><path d="M10.58 2.787c-.489.026-1.533.142-1.96.218-1.714.308-2.888.858-3.822 1.793-1.116 1.116-1.68 2.541-1.946 4.922-.099.889-.099 3.671 0 4.56.266 2.378.831 3.808 1.946 4.922 1.114 1.115 2.547 1.681 4.922 1.946.889.099 3.671.099 4.56 0 1.507-.168 2.521-.428 3.42-.877 1.161-.579 1.937-1.341 2.516-2.47.503-.981.762-1.966.924-3.508.072-.685.125-2.246.084-2.465-.032-.171-.218-.402-.399-.496-.157-.081-.492-.082-.646-.001a.89.89 0 0 0-.376.402c-.024.062-.043.278-.044.48 0 .477-.069 1.673-.121 2.107-.159 1.333-.447 2.321-.902 3.09-.265.447-.879 1.061-1.326 1.326-1.027.608-2.279.89-4.4.992-1.868.089-3.736-.057-4.958-.389-.942-.256-1.607-.616-2.175-1.179-1.036-1.026-1.475-2.433-1.605-5.15-.091-1.913.062-3.791.411-5.032.254-.908.619-1.565 1.174-2.121.832-.831 1.966-1.275 3.823-1.495a27.365 27.365 0 0 1 2.107-.121c.411-.001.541-.037.707-.194a.69.69 0 0 0 .237-.547.75.75 0 0 0-.464-.697c-.103-.039-1.058-.048-1.687-.016m7 .054c-.454.096-.74.198-1.223.44-1.055.527-1.286.725-4.172 3.597-1.405 1.398-2.731 2.737-2.947 2.975-1.067 1.178-1.449 2.171-1.455 3.787-.003.703.025.923.169 1.32.242.665.743 1.107 1.488 1.309.379.103 1.662.101 2.22-.004.738-.139 1.334-.393 1.997-.853.238-.166 1.073-.972 3.176-3.068 1.569-1.564 2.975-2.997 3.125-3.184.672-.839 1.148-1.758 1.323-2.553.104-.469.105-1.132.003-1.533a3.125 3.125 0 0 0-1.664-2.015c-.62-.3-1.303-.373-2.04-.218m1.287 1.526c.446.165.836.605.958 1.08.152.592-.088 1.404-.673 2.278l-.243.364-1.425-1.427-1.424-1.426.12-.1c.235-.197.913-.573 1.253-.696.584-.211 1.003-.233 1.434-.073m-3.436 7.257c-2.598 2.589-2.73 2.707-3.355 2.967-.479.199-.89.268-1.596.268-.582.001-.632-.005-.82-.099-.245-.122-.331-.279-.392-.71-.048-.345.009-1.091.117-1.533.085-.351.365-.919.617-1.257.116-.154 1.273-1.347 2.573-2.65l2.364-2.371L16.41 7.71l1.471 1.47-2.45 2.444" fill-rule="evenodd" fill="#000"/></svg>