<svg width="24" height="24" fill="none" xmlns="http://www.w3.org/2000/svg"><path d="M10.58 2.785c-2.821.176-4.546.777-5.782 2.013-1.116 1.116-1.68 2.541-1.946 4.922-.099.889-.099 3.671 0 4.56.266 2.378.831 3.808 1.946 4.922 1.114 1.115 2.547 1.681 4.922 1.946.889.099 3.671.099 4.56 0 1.507-.168 2.521-.428 3.42-.877 1.161-.579 1.937-1.341 2.516-2.47.499-.975.756-1.944.932-3.521.099-.889.099-3.671 0-4.56-.265-2.375-.831-3.808-1.946-4.922-1.108-1.108-2.557-1.684-4.882-1.94-.553-.061-3.128-.111-3.74-.073m2.7 1.496c1.902.109 3.159.408 4.13.983.447.265 1.061.879 1.326 1.326.336.568.613 1.348.762 2.15.337 1.809.337 4.711 0 6.52-.149.802-.426 1.582-.762 2.15-.265.447-.879 1.061-1.326 1.326-1.027.608-2.279.89-4.4.992-1.868.089-3.736-.057-4.958-.389-.942-.256-1.607-.616-2.175-1.179-1.036-1.026-1.475-2.433-1.605-5.15-.091-1.913.062-3.791.411-5.032.254-.908.619-1.565 1.174-2.121.836-.836 1.984-1.283 3.848-1.498.968-.111 2.432-.143 3.575-.078m.66 3.828c-.361.051-3.83.949-4.02 1.04a1.958 1.958 0 0 0-.771.771c-.106.22-.996 3.703-1.048 4.101-.031.238.055.696.175.931.139.273.506.634.778.766.28.136.703.215.955.178.416-.061 3.868-.947 4.071-1.045.282-.136.635-.489.771-.771.098-.203.984-3.655 1.045-4.071.034-.228-.039-.662-.152-.91a2.193 2.193 0 0 0-.321-.449 1.654 1.654 0 0 0-.983-.529c-.265-.041-.29-.042-.5-.012m.387 1.557c.04.037.072.113.072.17-.002.184-.87 3.572-.93 3.633-.06.059-3.446.928-3.626.93a.241.241 0 0 1-.242-.235c.002-.184.87-3.572.931-3.633.061-.061 3.403-.921 3.605-.927a.313.313 0 0 1 .19.062" fill-rule="evenodd" fill="#000"/></svg>