<svg width="24" height="24" fill="none" xmlns="http://www.w3.org/2000/svg"><path d="M11.379 4.282c-2.105.135-4.14.993-6.059 2.556-.876.713-2.009 1.903-2.465 2.588a4.67 4.67 0 0 0 0 5.148c.599.901 2.041 2.327 3.165 3.13 1.116.798 2.518 1.465 3.68 1.751a9.546 9.546 0 0 0 5.46-.26c.567-.199 1.605-.702 2.14-1.038 1.136-.712 2.192-1.625 3.186-2.753.925-1.05 1.287-1.812 1.404-2.954a4.624 4.624 0 0 0-.745-3.024c-.456-.685-1.589-1.875-2.465-2.588-.824-.671-1.488-1.101-2.38-1.541-1.28-.632-2.37-.926-3.762-1.017a14.586 14.586 0 0 0-.638-.033c-.022.002-.256.019-.521.035m1.626 1.536c2.05.273 3.894 1.273 5.717 3.099 1.045 1.047 1.364 1.497 1.58 2.224.09.305.106.434.106.859s-.016.554-.106.859c-.216.727-.535 1.177-1.58 2.224-1.352 1.355-2.611 2.188-4.109 2.717a8.05 8.05 0 0 1-4.398.242c-1.76-.414-3.346-1.365-4.937-2.959-1.045-1.047-1.364-1.497-1.58-2.224-.09-.305-.106-.434-.106-.859s.016-.554.106-.859c.216-.727.535-1.177 1.58-2.224 1.593-1.596 3.176-2.544 4.942-2.96a8.55 8.55 0 0 1 2.785-.139m-1.41 2.464a3.765 3.765 0 0 0-2.564 1.437c-.238.313-.563.968-.649 1.306a4.254 4.254 0 0 0 0 1.95c.086.338.411.993.649 1.306.366.482.817.837 1.421 1.119a3.648 3.648 0 0 0 1.913.317 3.277 3.277 0 0 0 1.183-.317c.855-.399 1.406-.94 1.813-1.78a3.21 3.21 0 0 0 .356-1.255 3.648 3.648 0 0 0-.317-1.913c-.44-.942-1.128-1.585-2.107-1.967-.441-.173-1.171-.26-1.698-.203m.979 1.541c.376.097.697.287 1.006.597.456.456.66.944.66 1.58 0 .636-.204 1.124-.66 1.58-.456.456-.944.66-1.58.66-.636 0-1.124-.204-1.58-.66-.456-.456-.66-.944-.66-1.58 0-.636.204-1.124.66-1.58.459-.458.916-.652 1.554-.657.203-.002.46.024.6.06" fill-rule="evenodd" fill="#000"/></svg>