<svg width="24" height="24" fill="none" xmlns="http://www.w3.org/2000/svg"><path d="M11.32 2.697c-.515.114-.956.343-1.94 1.004C7.883 4.706 6.639 5.755 5.513 6.96 4.217 8.346 3.394 9.702 3.06 11c-.264 1.024-.317 1.76-.288 4.015.025 1.97.126 3.317.293 3.905a2.541 2.541 0 0 0 1.24 1.511c.65.336-.024.309 7.695.309s7.045.027 7.695-.309a2.548 2.548 0 0 0 1.24-1.511c.08-.282.21-1.456.264-2.374.053-.916.052-3.342-.001-3.966-.131-1.539-.533-2.695-1.376-3.957-1.12-1.678-3.02-3.467-5.282-4.973-.985-.656-1.342-.837-1.873-.951-.324-.07-1.036-.071-1.347-.002M12.49 4.2c.568.175 2.367 1.429 3.59 2.502.586.514 1.561 1.519 1.954 2.013 1.156 1.452 1.572 2.492 1.69 4.225.06.871.024 3.322-.062 4.22-.128 1.353-.164 1.504-.422 1.763-.343.344.283.317-7.24.317-7.523 0-6.897.027-7.24-.317-.214-.215-.26-.346-.338-.97-.134-1.061-.161-1.64-.161-3.393 0-1.794.019-2.127.164-2.84.202-.995.767-2.079 1.618-3.106.388-.468 1.353-1.451 1.877-1.911 1.196-1.051 3.016-2.324 3.576-2.501.319-.101.671-.102.994-.002M9.66 9.279c-.9.112-1.617.641-2.037 1.501-.49 1.001-.484 2.299.015 3.365.564 1.204 1.969 2.485 3.663 3.341.668.336.73.336 1.398 0 1.104-.558 2.329-1.493 2.969-2.266.742-.896 1.061-1.728 1.059-2.76-.001-1.089-.263-1.794-.907-2.442-.355-.357-.704-.565-1.14-.68-.35-.091-1.051-.091-1.4 0-.343.091-.81.337-1.07.564l-.21.184-.21-.184a3.004 3.004 0 0 0-1.05-.555 3.4 3.4 0 0 0-1.08-.068m.896 1.598c.097.05.309.216.471.37.379.359.579.451.973.451s.594-.092.973-.451c.424-.402.564-.466 1.007-.466.421 0 .591.069.837.341.36.398.519 1.176.378 1.846-.06.29-.276.747-.5 1.06-.457.641-1.438 1.451-2.385 1.969l-.31.17-.31-.169c-.939-.513-1.928-1.329-2.383-1.967-.226-.316-.441-.772-.502-1.063a3.137 3.137 0 0 1-.044-.54c.001-.845.338-1.443.919-1.633.189-.062.686-.015.876.082" fill-rule="evenodd" fill="#000"/></svg>