<svg width="24" height="24" viewBox="0 0 24 24" fill="none" xmlns="http://www.w3.org/2000/svg">
<path d="M6.49996 6.99991C7.96131 5.53856 9.5935 4.4189 10.6975 3.74078C11.5021 3.24656 12.4978 3.24656 13.3024 3.74078C14.4064 4.4189 16.0386 5.53856 17.5 6.99991C20.6683 10.1683 20.5 11.9999 20.5 14.9999C20.5 16.4097 20.3895 17.5987 20.2725 18.4631C20.1493 19.3725 19.3561 19.9999 18.4384 19.9999H5.56152C4.64378 19.9999 3.85061 19.3725 3.72745 18.4631C3.61039 17.5987 3.49997 16.4097 3.49997 14.9999C3.49997 11.9999 3.33157 10.1683 6.49996 6.99991Z" stroke="#001A72" stroke-width="1.5" stroke-linecap="round" stroke-linejoin="round"/>
<path d="M11.6801 10.84L11.4489 10.604C11.07 10.2172 10.5561 9.99991 10.0203 9.99991C8.88889 9.99991 8 10.8749 8 12.4998C8 15.2499 12 16.9999 12 16.9999C12 16.9999 16 15.2499 16 12.4998C16 10.8749 15.0955 9.99991 13.9797 9.99991C13.4439 9.99991 12.93 10.2172 12.5511 10.604L12.3199 10.84C12.1452 11.0184 11.8548 11.0184 11.6801 10.84Z" stroke="#001A72" stroke-width="1.5" stroke-linecap="round" stroke-linejoin="round"/>
</svg>
