<svg width="24" height="24" viewBox="0 0 24 24" fill="none" xmlns="http://www.w3.org/2000/svg">
<path d="M19 4V10M19 10C17.8954 10 17 10.8954 17 12C17 13.1046 17.8954 14 19 14M19 10C20.1046 10 21 10.8954 21 12C21 13.1046 20.1046 14 19 14M19 14V20M12 4V16M12 16C10.8954 16 10 16.8954 10 18C10 19.1046 10.8954 20 12 20C13.1046 20 14 19.1046 14 18C14 16.8954 13.1046 16 12 16ZM5 8V20M5 8C6.10457 8 7 7.10457 7 6C7 4.89543 6.10457 4 5 4C3.89543 4 3 4.89543 3 6C3 7.10457 3.89543 8 5 8Z" stroke="#001A72" stroke-width="1.5" stroke-linecap="round"/>
</svg>
