<svg width="24" height="24" fill="none" xmlns="http://www.w3.org/2000/svg"><path d="M7.264 3.282a2.723 2.723 0 0 0-2.045 1.376c-.242.434-.305.669-.328 1.223-.018.43-.009.544.065.812.047.171.132.404.189.516.057.113.617 1.025 1.244 2.028 1.398 2.233 1.509 2.444 1.72 3.261.102.399.103.416.132 2.542.032 2.371.036 2.409.303 2.933.078.153.216.376.307.498.322.426.53.553 2.549 1.567 1.045.524 1.998.982 2.117 1.018.769.227 1.665-.15 2.021-.851.209-.41.198-.215.223-3.885l.024-3.42.109-.419a6.07 6.07 0 0 1 .562-1.389c.078-.133.63-1.022 1.227-1.977a80.457 80.457 0 0 0 1.181-1.923c.052-.103.133-.328.18-.499.074-.268.083-.382.065-.812-.023-.554-.086-.789-.328-1.223A2.593 2.593 0 0 0 17.58 3.54a4.04 4.04 0 0 0-.56-.224c-.155-.039-1.255-.052-4.84-.059-2.552-.004-4.764.007-4.916.025m9.584 1.557c.255.096.519.342.665.619.09.172.106.252.106.542 0 .28-.017.371-.094.518-.052.097-.589.968-1.193 1.935-1.409 2.253-1.577 2.569-1.827 3.434-.23.792-.236.9-.262 4.411l-.023 3.239-.109.061c-.108.061-.142.046-1.956-.858-2.057-1.025-2.149-1.085-2.309-1.513-.083-.221-.086-.291-.087-1.859-.001-2.264-.054-2.841-.344-3.737-.21-.649-.539-1.248-1.732-3.151-.6-.957-1.139-1.83-1.197-1.94-.089-.17-.105-.25-.105-.54 0-.29.016-.369.106-.542.142-.271.409-.522.653-.617.193-.074.355-.077 4.848-.079 4.54-.002 4.654 0 4.86.077" fill-rule="evenodd" fill="#000"/></svg>