<svg width="24" height="24" fill="none" xmlns="http://www.w3.org/2000/svg"><path d="M4.805 3.28c-.291.069-.506.327-.544.652-.014.114-.019 4.051-.013 8.748.013 9.162 0 8.605.207 8.834.136.15.308.219.545.219.237 0 .409-.069.545-.219.203-.224.194-.077.206-3.524l.011-3.23 6.409-.001c4.037 0 6.511-.015 6.684-.04a1.71 1.71 0 0 0 1.186-.765c.324-.502.373-1.182.121-1.7-.12-.246-.28-.422-1.568-1.716C17.513 9.45 17.16 9.072 17.16 9c0-.072.353-.45 1.434-1.538 1.288-1.294 1.448-1.47 1.568-1.716.252-.518.203-1.198-.121-1.7a1.71 1.71 0 0 0-1.186-.765c-.332-.048-13.847-.049-14.05-.001m13.973 1.569a.359.359 0 0 1 .062.167c0 .05-.528.609-1.435 1.521-.941.946-1.465 1.503-1.523 1.618a1.84 1.84 0 0 0 0 1.69c.058.115.582.672 1.523 1.618.907.912 1.435 1.471 1.435 1.521a.359.359 0 0 1-.062.167l-.063.089H5.76V4.76h12.955l.063.089" fill-rule="evenodd" fill="#000"/></svg>