<svg width="24" height="24" viewBox="0 0 24 24" fill="none" xmlns="http://www.w3.org/2000/svg">
<path d="M10.137 15.4206C10.285 17.1402 10.5 18 10.5 18C10.5 18 12.5 17.5 16 15.5C19.5 13.5 20.5 12 20.5 12C20.5 12 19.5 10.5 16 8.5C12.5 6.5 10.5 6 10.5 6C10.5 6 10.2836 6.86552 10.1355 8.59655M10.137 15.4206C10.0593 14.5175 10 13.3773 10 12C10 10.6314 10.0585 9.49689 10.1355 8.59655M10.137 15.4206C8.39233 16.4315 6.47691 17.5058 4.5 18C4.5 18 4 16 4 12C4 8 4.5 6 4.5 6C6.40315 6.47579 8.55404 7.47003 10.1355 8.59655" stroke="#001A72" stroke-width="1.5" stroke-linecap="round" stroke-linejoin="round"/>
</svg>
