<svg width="24" height="24" viewBox="0 0 24 24" fill="none" xmlns="http://www.w3.org/2000/svg">
<path d="M18.5 9.88501C18.5 9.88501 19 11.6111 19 14.5C19 17.3889 18.6111 19.9167 18.2222 20.2778C17.8333 20.6389 15.1111 21 12 21C8.88889 21 6.16667 20.6389 5.77778 20.2778C5.38889 19.9167 5 17.3889 5 14.5C5 11.6111 5.5 9.88501 5.5 9.88501M18.5 9.88501C18.8074 9.8683 19.0179 9.85081 19.1111 9.83333C19.5556 9.75 20 9.16667 20 8.5C20 7.83333 19.5556 7.25 19.1111 7.16667C18.6667 7.08333 15.5556 7 12 7C8.44444 7 5.33333 7.08333 4.88889 7.16667C4.44444 7.25 4 7.83333 4 8.5C4 9.16667 4.44444 9.75 4.88889 9.83333C4.98211 9.85081 5.19265 9.8683 5.5 9.88501M18.5 9.88501C17.342 9.94797 14.8098 10 12 10C9.19021 10 6.65798 9.94797 5.5 9.88501M11.8659 6.84997C12.415 4.80106 15.562 1.25185 17.0621 3.84997C18.5622 6.44821 13.915 7.39914 11.8659 6.84997ZM12.0623 6.84997C11.5132 4.80106 8.36619 1.25185 6.86617 3.84997C5.36607 6.44821 10.0132 7.39914 12.0623 6.84997Z" stroke="#001A72" stroke-width="1.5" stroke-linecap="round" stroke-linejoin="round"/>
</svg>
