<svg width="24" height="24" fill="none" xmlns="http://www.w3.org/2000/svg"><path d="M5.91 2.283c-1.486.101-2.754.614-3.117 1.262-.142.253-.212.58-.29 1.355-.158 1.558-.233 3.86-.233 7.1 0 3.246.076 5.545.233 7.1.078.775.148 1.102.29 1.355.466.832 2.332 1.386 4.247 1.261 1.542-.101 2.797-.601 3.167-1.261.142-.253.212-.58.29-1.355.157-1.548.232-3.848.232-7.1 0-3.246-.075-5.549-.232-7.1-.111-1.104-.222-1.412-.628-1.741-.413-.336-1.163-.635-1.949-.778-.277-.05-1.446-.154-1.52-.135-.011.003-.232.02-.49.037m11 0c-1.486.101-2.754.614-3.117 1.262-.142.253-.212.58-.29 1.355-.158 1.558-.233 3.86-.233 7.1 0 3.246.076 5.545.233 7.1.078.775.148 1.102.29 1.355.466.832 2.332 1.386 4.247 1.261 1.542-.101 2.797-.601 3.167-1.261.142-.253.212-.58.29-1.355.157-1.548.232-3.848.232-7.1 0-3.246-.075-5.549-.232-7.1-.111-1.104-.222-1.412-.628-1.741-.413-.336-1.163-.635-1.949-.778-.277-.05-1.446-.154-1.52-.135-.011.003-.232.02-.49.037m-9.565 1.52c.681.095 1.531.384 1.591.542.014.035.051.346.083.69.253 2.754.301 8.694.099 12.505-.046.873-.143 2.015-.18 2.111-.061.159-.913.451-1.593.546a8.675 8.675 0 0 1-1.69 0c-.681-.095-1.531-.384-1.591-.542-.038-.099-.136-1.226-.182-2.115-.167-3.161-.167-7.919 0-11.08.046-.889.144-2.016.182-2.115.057-.151.915-.448 1.556-.541.351-.05 1.365-.051 1.725-.001m11 0c.681.095 1.531.384 1.591.542.014.035.051.346.083.69.253 2.754.301 8.694.099 12.505-.046.889-.144 2.016-.182 2.115-.06.158-.91.447-1.591.542a8.675 8.675 0 0 1-1.69 0c-.681-.095-1.531-.384-1.591-.542-.073-.19-.194-2.046-.264-4.035-.083-2.367-.043-6.801.082-9.16.046-.889.144-2.016.182-2.115.057-.151.915-.448 1.556-.541.351-.05 1.365-.051 1.725-.001" fill-rule="evenodd" fill="#000"/></svg>