<svg width="24" height="24" viewBox="0 0 24 24" fill="none" xmlns="http://www.w3.org/2000/svg">
<path d="M6.75 3C3.88235 3 3 3.88235 3 6.75C3 9.61765 3.88235 10.5 6.75 10.5C9.61765 10.5 10.5 9.61765 10.5 6.75C10.5 3.88235 9.61765 3 6.75 3Z" stroke="#001A72" stroke-width="1.5" stroke-linecap="round" stroke-linejoin="round"/>
<path d="M6.75 13.5C3.88235 13.5 3 14.3824 3 17.25C3 20.1176 3.88235 21 6.75 21C9.61765 21 10.5 20.1176 10.5 17.25C10.5 14.3824 9.61765 13.5 6.75 13.5Z" stroke="#001A72" stroke-width="1.5" stroke-linecap="round" stroke-linejoin="round"/>
<path d="M17.25 13.5C14.3824 13.5 13.5 14.3824 13.5 17.25C13.5 20.1176 14.3824 21 17.25 21C20.1176 21 21 20.1176 21 17.25C21 14.3824 20.1176 13.5 17.25 13.5Z" stroke="#001A72" stroke-width="1.5" stroke-linecap="round" stroke-linejoin="round"/>
<path d="M17.25 3C14.3824 3 13.5 3.88235 13.5 6.75C13.5 9.61765 14.3824 10.5 17.25 10.5C20.1176 10.5 21 9.61765 21 6.75C21 3.88235 20.1176 3 17.25 3Z" stroke="#001A72" stroke-width="1.5" stroke-linecap="round" stroke-linejoin="round"/>
</svg>
