<svg width="24" height="24" fill="none" xmlns="http://www.w3.org/2000/svg"><path d="M11.32 2.28c-1.879.127-3.672.802-5.236 1.972-.493.368-1.464 1.339-1.832 1.832C3.179 7.518 2.553 9.075 2.313 10.9c-.041.312-.053 1.484-.053 5.32 0 2.706.013 4.968.03 5.027.04.142.21.34.365.424.245.135 2.202.041 3.145-.151 1.467-.299 2.424-1 2.786-2.042.155-.447.183-.926.164-2.797-.016-1.543-.025-1.727-.097-1.983-.259-.918-.882-1.57-1.878-1.966-.638-.253-1.438-.399-2.405-.439l-.61-.025v-.464c.001-1.633.621-3.404 1.685-4.813.321-.425 1.121-1.225 1.546-1.546A8.145 8.145 0 0 1 12 3.76c1.842 0 3.531.568 5.009 1.685.425.321 1.225 1.121 1.546 1.546 1.071 1.418 1.685 3.183 1.685 4.845v.432l-.51.027c-1.478.078-2.613.39-3.32.912-.676.499-1.047 1.138-1.132 1.947-.047.449-.047 3.243 0 3.692.145 1.383 1.165 2.316 2.922 2.674.561.114 1.485.198 2.3.21.617.009.738 0 .845-.059.155-.084.325-.282.365-.424.017-.059.03-2.321.03-5.027 0-3.836-.012-5.008-.053-5.32-.24-1.825-.868-3.386-1.939-4.816-.369-.493-1.339-1.463-1.832-1.832-1.13-.846-2.524-1.495-3.796-1.766a10.872 10.872 0 0 0-2.8-.206M5.177 13.862c.547.082.825.16 1.203.34.369.175.63.408.753.673.085.182.087.221.087 2.105 0 1.881-.002 1.924-.086 2.106-.248.536-.986.898-2.146 1.051-.246.033-.624.071-.838.086l-.39.027v-6.502l.507.027c.279.015.688.054.91.087m15.063 3.143v3.245l-.39-.027c-1.034-.071-1.731-.215-2.234-.462-.376-.185-.628-.411-.75-.675-.084-.182-.086-.226-.086-2.086 0-1.86.002-1.904.086-2.086.228-.493.871-.842 1.861-1.011.392-.067.978-.128 1.323-.137l.19-.006v3.245" fill-rule="evenodd" fill="#000"/></svg>