<svg width="24" height="24" fill="none" xmlns="http://www.w3.org/2000/svg"><path d="M11.32 2.697c-.492.108-.9.316-1.833.933-1.564 1.035-2.978 2.233-4.143 3.51C4.172 8.424 3.377 9.767 3.06 11c-.264 1.024-.317 1.76-.288 4.015.025 1.97.126 3.317.293 3.905a2.541 2.541 0 0 0 1.24 1.511c.65.336-.024.309 7.695.309s7.045.027 7.695-.309a2.556 2.556 0 0 0 1.24-1.506c.077-.262.21-1.463.264-2.385.052-.885.052-3.345-.001-3.96-.132-1.564-.518-2.674-1.376-3.957-1.12-1.678-3.02-3.467-5.282-4.973-.985-.656-1.342-.837-1.873-.951-.323-.07-1.035-.071-1.347-.002M12.49 4.2c.568.175 2.367 1.429 3.59 2.502.587.515 1.561 1.519 1.959 2.018 1.026 1.288 1.453 2.239 1.649 3.68.082.605.068 3.819-.022 4.74-.135 1.388-.167 1.523-.426 1.783-.343.344.283.317-7.24.317-7.523 0-6.897.027-7.24-.317-.214-.215-.26-.346-.338-.97-.134-1.061-.161-1.64-.161-3.393 0-1.794.019-2.127.164-2.84.266-1.311 1.038-2.57 2.473-4.035a19.403 19.403 0 0 1 2.791-2.379c.792-.564 1.533-1.017 1.807-1.104.319-.101.671-.102.994-.002m-.685 5.079a.73.73 0 0 0-.527.544c-.02.086-.037.664-.037 1.284l-.001 1.128-1.23.012c-1.326.014-1.355.018-1.555.239-.142.157-.188.283-.188.514 0 .231.046.357.188.514.2.22.229.225 1.552.239l1.228.012.012 1.228c.014 1.323.019 1.352.239 1.552.157.142.283.188.514.188.231 0 .357-.046.514-.188.22-.2.225-.229.239-1.552l.012-1.228 1.228-.012c1.292-.014 1.309-.016 1.521-.208.15-.136.219-.308.219-.545 0-.237-.069-.409-.219-.545-.212-.192-.229-.194-1.521-.208l-1.228-.012-.012-1.228c-.014-1.292-.016-1.309-.208-1.521-.167-.185-.476-.271-.74-.207" fill-rule="evenodd" fill="#000"/></svg>