<svg width="24" height="24" fill="none" xmlns="http://www.w3.org/2000/svg"><path d="M11.32 2.697c-.492.108-.9.316-1.833.933-1.564 1.035-2.978 2.233-4.143 3.51C4.172 8.424 3.377 9.767 3.06 11c-.264 1.024-.317 1.76-.288 4.015.025 1.97.126 3.317.293 3.905a2.541 2.541 0 0 0 1.24 1.511c.65.336-.024.309 7.695.309s7.045.027 7.695-.309a2.548 2.548 0 0 0 1.24-1.511c.08-.282.21-1.456.264-2.374.053-.916.052-3.342-.001-3.966-.131-1.539-.533-2.695-1.376-3.957-1.12-1.678-3.02-3.467-5.282-4.973-.985-.656-1.342-.837-1.873-.951-.323-.07-1.035-.071-1.347-.002M12.49 4.2c.411.127 1.724.987 2.761 1.809.976.774 2.167 1.931 2.783 2.706 1.156 1.452 1.572 2.492 1.69 4.225.06.871.024 3.322-.062 4.22-.128 1.353-.164 1.504-.422 1.763-.343.344.283.317-7.24.317-7.384 0-6.863.019-7.19-.261-.3-.256-.354-.483-.497-2.059-.071-.79-.072-3.996-.001-4.52.157-1.154.448-1.947 1.048-2.856.733-1.111 2.002-2.435 3.389-3.535 1.006-.798 2.348-1.681 2.747-1.807.319-.101.671-.102.994-.002" fill-rule="evenodd" fill="#000"/></svg>