<svg width="24" height="24" viewBox="0 0 24 24" fill="none" xmlns="http://www.w3.org/2000/svg">
<path d="M12 10V16M9 13H15M10.6976 3.74084C9.59363 4.41896 7.96143 5.53862 6.50008 6.99997C3.33169 10.1684 3.50009 12 3.50009 15C3.50009 16.4098 3.61051 17.5988 3.72757 18.4631C3.85074 19.3725 4.64391 20 5.56164 20H18.4385C19.3563 20 20.1494 19.3726 20.2726 18.4631C20.3897 17.5988 20.5001 16.4098 20.5001 15C20.5001 12 20.6685 10.1683 17.5001 6.99997C16.0387 5.53862 14.4065 4.41896 13.3026 3.74085C12.498 3.24662 11.5022 3.24662 10.6976 3.74084Z" stroke="#001A72" stroke-width="1.5" stroke-linecap="round" stroke-linejoin="round"/>
</svg>
