<svg width="24" height="24" fill="none" xmlns="http://www.w3.org/2000/svg"><path d="M10.18 2.784c-2.358.099-5.262.396-5.558.569a.955.955 0 0 0-.238.238c-.097.138-.117.206-.117.398 0 .275.078.445.272.593.221.169.376.184.973.096.293-.043.574-.078.626-.078h.093l.02 1.37c.021 1.459.034 1.57.245 2.044.051.113.578.937 1.172 1.83C8.773 11.506 8.84 11.629 8.84 12c0 .371-.067.494-1.172 2.156-.594.893-1.121 1.717-1.172 1.83-.211.474-.224.585-.245 2.044-.019 1.313-.023 1.37-.096 1.37-.041 0-.332-.036-.646-.08-.628-.088-.741-.077-.973.1-.191.146-.269.318-.269.591 0 .192.02.26.117.398a.955.955 0 0 0 .238.238c.241.14 2.166.363 4.518.521 1.012.068 4.708.068 5.72 0 2.352-.158 4.277-.381 4.518-.521a.955.955 0 0 0 .238-.238c.097-.138.117-.206.117-.398 0-.273-.078-.445-.269-.591-.232-.177-.345-.188-.973-.1-.314.044-.604.08-.646.08-.073 0-.077-.059-.096-1.37-.022-1.458-.035-1.573-.245-2.044-.051-.113-.578-.937-1.172-1.83-1.105-1.662-1.172-1.785-1.172-2.156 0-.371.067-.494 1.172-2.156.594-.893 1.121-1.717 1.172-1.83.21-.471.223-.586.245-2.044l.02-1.37h.093c.052 0 .333.035.626.078.578.085.741.072.946-.074a.746.746 0 0 0 .182-1.013.955.955 0 0 0-.238-.238c-.23-.134-2.006-.346-4.138-.495-.838-.058-4.247-.108-5.06-.074M15 4.338c.517.033 1.008.071 1.092.085l.152.025-.012 1.406c-.012 1.389-.013 1.408-.106 1.583-.052.097-.546.853-1.097 1.68-1.023 1.533-1.224 1.886-1.308 2.294-.064.316-.058.915.014 1.22.099.422.256.696 1.294 2.253a62.873 62.873 0 0 1 1.097 1.679c.093.175.094.194.106 1.582l.012 1.405-.132.024c-.495.088-2.363.161-4.112.161s-3.617-.073-4.112-.161l-.132-.024.012-1.405c.012-1.388.013-1.407.106-1.582.052-.097.546-.853 1.097-1.679.551-.826 1.054-1.615 1.119-1.752.164-.351.234-.691.234-1.132 0-.441-.07-.781-.234-1.132-.065-.137-.568-.926-1.119-1.752a62.873 62.873 0 0 1-1.097-1.679c-.093-.175-.094-.194-.106-1.582l-.012-1.404.119-.024c.117-.023 1.886-.134 2.585-.162.758-.031 3.642.016 4.54.073" fill-rule="evenodd" fill="#000"/></svg>