<svg width="24" height="24" fill="none" xmlns="http://www.w3.org/2000/svg"><path d="M10.58 2.785c-2.821.176-4.546.777-5.782 2.013-1.116 1.116-1.68 2.541-1.946 4.922-.099.889-.099 3.671 0 4.56.257 2.293.801 3.721 1.84 4.822 1.143 1.21 2.678 1.809 5.288 2.066.7.068 3.39.069 4.08 0 1.977-.196 3.27-.581 4.347-1.294.489-.325 1.143-.979 1.468-1.47.689-1.039 1.063-2.252 1.273-4.124.099-.885.099-3.667-.001-4.56-.264-2.374-.83-3.808-1.945-4.922-1.108-1.108-2.557-1.684-4.882-1.94-.553-.061-3.128-.111-3.74-.073m2.7 1.496c1.902.109 3.159.408 4.13.983.447.265 1.061.879 1.326 1.326.455.769.743 1.757.902 3.09.098.824.164 2.96.091 2.96-.017 0-.237-.208-.49-.462-.252-.255-.576-.54-.719-.635a2.772 2.772 0 0 0-3-.033c-.128.081-.756.672-1.5 1.412-1.451 1.444-1.507 1.485-2.02 1.485-.377 0-.635-.122-1.015-.482a4.289 4.289 0 0 0-.51-.416 2.792 2.792 0 0 0-2.955.001c-.129.081-.752.668-1.505 1.419l-1.286 1.28-.103-.434c-.32-1.344-.449-3.174-.35-4.955.114-2.045.413-3.295 1.026-4.288.249-.405.825-.981 1.23-1.23.784-.484 1.792-.783 3.173-.943.968-.111 2.432-.143 3.575-.078M8.48 6.28c-.554.067-1.023.305-1.459.741-.451.452-.673.901-.742 1.505-.037.323 0 .796.084 1.094.166.588.729 1.244 1.317 1.534a2.589 2.589 0 0 0 2.32.015c.423-.205.964-.746 1.169-1.169a2.589 2.589 0 0 0-.015-2.32c-.309-.626-.972-1.173-1.614-1.333a3.239 3.239 0 0 0-1.06-.067m.86 1.59c.467.242.689.784.542 1.324-.067.247-.438.621-.682.689-.539.148-1.08-.072-1.333-.543-.069-.128-.086-.229-.087-.503 0-.312.011-.361.12-.536.14-.226.348-.404.565-.485.217-.08.669-.052.875.054m8.2 4.852c.198.095.4.275 1.156 1.032l.915.918-.123.614c-.277 1.378-.705 2.265-1.415 2.934-.979.92-2.372 1.357-4.793 1.5-2.542.151-4.887-.129-6.232-.743-.564-.258-1.233-.78-1.509-1.179l-.113-.163 1.397-1.399c1.594-1.596 1.656-1.643 2.172-1.643.383 0 .638.121 1.02.482.162.154.392.341.51.416a2.792 2.792 0 0 0 2.955-.001c.127-.08.76-.675 1.5-1.41.843-.837 1.34-1.302 1.457-1.36.358-.179.726-.179 1.103.002" fill-rule="evenodd" fill="#000"/></svg>