<svg width="24" height="24" fill="none" xmlns="http://www.w3.org/2000/svg"><path d="M7.06 3.28c-.9.1-1.708.67-2.132 1.504-.046.091-.665 1.711-1.376 3.6L2.26 11.82v3.3c0 3.025.006 3.322.07 3.56a2.838 2.838 0 0 0 1.99 1.99c.244.066.722.07 7.68.07s7.436-.004 7.68-.07a2.838 2.838 0 0 0 1.99-1.99c.064-.238.07-.535.07-3.56v-3.3l-1.293-3.44c-.712-1.892-1.347-3.539-1.412-3.66a2.7 2.7 0 0 0-1.21-1.175c-.615-.301-.206-.28-5.625-.288-2.673-.004-4.986.006-5.14.023m10.092 1.592c.238.127.466.342.552.519.039.082.551 1.427 1.138 2.989l1.066 2.84-1.624.025c-.907.015-1.707.045-1.811.069-.26.059-.648.228-.908.394-.36.23-.635.548-1.196 1.38-.292.433-.597.842-.677.909-.273.225-.394.243-1.598.243-1.004 0-1.109-.007-1.311-.082-.339-.127-.538-.35-.826-.925a10.745 10.745 0 0 0-.382-.704 2.825 2.825 0 0 0-1.635-1.194c-.203-.057-.517-.071-2.044-.091l-1.804-.024L5.187 8.3c.738-1.968 1.132-2.966 1.207-3.06.132-.166.444-.385.621-.437.073-.021 2.159-.034 5.045-.03l4.92.007.172.092M7.8 12.873c.321.167.466.349.802 1.007.463.906.765 1.24 1.425 1.576.454.231.676.268 1.776.292 1.489.033 2.009-.055 2.607-.441.405-.262.581-.462 1.15-1.308.31-.46.637-.899.727-.975.303-.26.335-.264 2.24-.264h1.713v2.738c0 2.654-.003 2.746-.081 2.956-.109.29-.415.596-.705.705-.215.08-.28.081-7.454.081-7.174 0-7.239-.001-7.454-.081a1.342 1.342 0 0 1-.705-.705c-.078-.21-.081-.302-.081-2.957v-2.74l1.93.012 1.93.011.18.093" fill-rule="evenodd" fill="#000"/></svg>