<svg width="24" height="24" fill="none" xmlns="http://www.w3.org/2000/svg"><path d="M20.9 2.259a1.795 1.795 0 0 1-.16.04c-.091.019-1.206 1.111-4.606 4.509l-4.486 4.484-.254-.168a5.581 5.581 0 0 0-1.987-.787c-.456-.081-1.362-.082-1.814 0a5.247 5.247 0 0 0-4.256 4.256c-.082.455-.082 1.359 0 1.814a5.247 5.247 0 0 0 4.256 4.256c.453.081 1.361.081 1.814 0a5.247 5.247 0 0 0 4.256-4.256c.081-.453.081-1.361 0-1.814a5.589 5.589 0 0 0-.787-1.987l-.168-.254 1.146-1.145 1.145-1.146.81.807c.829.824.889.868 1.191.868.316 0 .334-.015 1.993-1.669.887-.884 1.641-1.661 1.676-1.727.077-.145.084-.521.013-.66-.028-.055-.404-.455-.836-.89L19.061 6l1.307-1.31c.907-.909 1.316-1.347 1.338-1.43.132-.502-.127-.926-.606-.993a.725.725 0 0 0-.2-.008M18.48 7.54l.459.461-.969.969-.97.97-.47-.47-.469-.47.959-.96c.528-.528.969-.96.98-.96.012 0 .228.207.48.46m-9 4.339c1.298.369 2.268 1.346 2.648 2.665.077.27.091.41.091.956 0 .76-.064 1.044-.38 1.68a3.651 3.651 0 0 1-1.659 1.659c-.636.316-.92.38-1.68.38-.745 0-1.034-.063-1.64-.357-.983-.477-1.673-1.313-1.988-2.406-.077-.27-.091-.41-.091-.956 0-.716.059-1.005.317-1.563a3.805 3.805 0 0 1 2.749-2.135c.362-.065 1.289-.021 1.633.077" fill-rule="evenodd" fill="#000"/></svg>