<svg width="24" height="24" fill="none" xmlns="http://www.w3.org/2000/svg"><path d="M10.68 4.266c-.992.014-2.631.084-3.66.157-1.977.139-3.072.328-3.463.599-.311.215-.612.81-.814 1.606-.639 2.521-.631 6.318.018 8.808.066.251.119.468.119.483 0 .014-.074.068-.164.118-.227.128-.561.472-.709.73-.317.555-.33 1.316-.031 1.905.228.45.729.86 1.213.993.261.072.594.075 8.811.075s8.55-.003 8.811-.075c1.425-.393 1.911-2.244.867-3.304a2.26 2.26 0 0 0-.392-.322c-.091-.052-.166-.113-.166-.136.001-.024.046-.205.101-.403.668-2.396.677-6.457.02-8.92-.301-1.125-.597-1.557-1.198-1.742-1.219-.377-5.365-.63-9.363-.572m4.192 1.535c2.07.084 4.111.272 4.619.424.189.056.46 1.175.656 2.715.058.45.072.855.072 2.06 0 1.568-.024 1.902-.223 3.1-.086.521-.272 1.271-.373 1.51l-.064.15H4.441l-.064-.15c-.174-.411-.377-1.395-.524-2.55-.102-.799-.103-3.307-.001-4.12.102-.818.216-1.461.347-1.96.141-.539.218-.728.31-.755.483-.145 2.576-.342 4.451-.42 1.155-.049 4.777-.051 5.912-.004m5.607 11.513c.307.164.355.54.102.793l-.133.133H3.552l-.133-.133c-.253-.253-.205-.629.102-.793.133-.071.453-.074 8.479-.074s8.346.003 8.479.074" fill-rule="evenodd" fill="#000"/></svg>