<svg width="24" height="24" viewBox="0 0 24 24" fill="none" xmlns="http://www.w3.org/2000/svg">
<path d="M20 16.3846C20.5 16.0769 21 13.4615 21 11C21 8.53846 20.5 5.92308 20 5.61538C19.5 5.30769 16 5 12 5C8 5 4.5 5.30769 4 5.61538C3.5 5.92308 3 8.53846 3 11C3 13.4615 3.5 16.0769 4 16.3846M3.75 16.5H20.25C20.9404 16.5 21.5 17.0596 21.5 17.75C21.5 18.4404 20.9404 19 20.25 19H3.75C3.05964 19 2.5 18.4404 2.5 17.75C2.5 17.0596 3.05964 16.5 3.75 16.5Z" stroke="#001A72" stroke-width="1.5" stroke-linecap="round" stroke-linejoin="round"/>
</svg>
