<svg width="24" height="24" fill="none" xmlns="http://www.w3.org/2000/svg"><path d="M6.544 7.281c-1.978.183-3.645 1.616-4.145 3.564-.222.868-.158 1.997.161 2.828a4.81 4.81 0 0 0 2.167 2.485c.931.502 1.613.619 3.473.595 1.07-.014 1.106-.019 1.314-.208.15-.136.219-.308.219-.545 0-.237-.069-.409-.219-.545-.213-.193-.22-.194-1.714-.219-1.545-.025-1.638-.037-2.156-.278-.715-.333-1.374-1.026-1.668-1.751-.289-.717-.289-1.697 0-2.414.294-.725.953-1.418 1.668-1.751.518-.241.611-.253 2.156-.279 1.53-.025 1.544-.027 1.745-.249.142-.157.188-.283.188-.514 0-.231-.046-.357-.188-.514-.2-.22-.233-.226-1.485-.232-.638-.003-1.32.009-1.516.027m8.261-.001c-.596.141-.742.955-.239 1.33.172.129.378.148 1.6.149 1.52.001 1.844.059 2.505.447.295.173.95.828 1.123 1.123.6 1.023.6 2.336 0 3.337-.297.497-.908 1.045-1.438 1.292-.518.241-.611.253-2.156.278-1.494.025-1.501.026-1.714.219-.15.136-.219.308-.219.545 0 .313.131.53.413.685.132.073 1.933.099 2.652.038 1.252-.104 2.25-.573 3.092-1.452a4.602 4.602 0 0 0 1.292-2.846 4.677 4.677 0 0 0-1.445-3.849c-.802-.769-1.749-1.195-2.875-1.295-.531-.047-2.393-.048-2.591-.001m-7 4c-.381.091-.618.495-.526.897.071.31.318.523.653.563.114.013 2.026.019 4.248.012 3.67-.011 4.051-.018 4.16-.078a.713.713 0 0 0 .393-.674.713.713 0 0 0-.393-.674c-.109-.06-.49-.067-4.26-.072-2.277-.004-4.201.008-4.275.026" fill-rule="evenodd" fill="#000"/></svg>