<svg width="24" height="24" fill="none" xmlns="http://www.w3.org/2000/svg"><path d="M11.5 2.282c-1.639.117-3.096.814-4.287 2.05A6.967 6.967 0 0 0 5.338 8.16c-.077.506-.086 1.559-.018 2.04.258 1.808 1.093 3.378 2.597 4.884.973.974 2.271 1.881 3.573 2.498.525.249.677.215 1.77-.391 2.529-1.4 4.422-3.506 5.134-5.711.408-1.263.447-2.822.104-4.118-.554-2.091-2.106-3.859-4.075-4.641a6.737 6.737 0 0 0-2.923-.439m1.68 1.613c1.042.266 1.798.712 2.561 1.509.794.83 1.304 1.913 1.461 3.105.061.461.028 1.438-.063 1.851-.304 1.379-.959 2.508-2.137 3.68a10.97 10.97 0 0 1-2.583 1.904l-.419.223-.419-.223a10.97 10.97 0 0 1-2.583-1.904c-1.178-1.172-1.833-2.301-2.137-3.68-.091-.413-.124-1.39-.063-1.851a5.435 5.435 0 0 1 1.689-3.331 4.911 4.911 0 0 1 2.396-1.293c.554-.123.523-.12 1.237-.106.548.011.728.031 1.06.116m-1.46 1.91c-.129.051-.309.223-.394.375-.055.1-.068.278-.079 1.087l-.013.967-.967.013c-1.052.014-1.089.022-1.314.259a.72.72 0 0 0 0 .988c.225.237.262.245 1.314.259l.967.013.013.967c.014 1.052.022 1.089.259 1.314a.667.667 0 0 0 .494.193.667.667 0 0 0 .494-.193c.237-.225.245-.262.259-1.314l.013-.967.967-.013c1.052-.014 1.089-.022 1.314-.259A.667.667 0 0 0 15.24 9a.667.667 0 0 0-.193-.494c-.225-.237-.262-.245-1.314-.259l-.967-.013-.013-.967c-.011-.809-.024-.987-.079-1.087-.088-.159-.267-.325-.407-.377a.952.952 0 0 0-.547.002m-7.71 8.474c-.25.059-.936.684-1.246 1.135-.171.249-.346.63-.425.926-.085.318-.085 1.003-.001 1.32.588 2.222 4.136 3.862 8.772 4.055 4.935.205 9.245-1.266 10.352-3.534.2-.411.264-.697.263-1.181-.001-.808-.254-1.39-.898-2.068-.378-.398-.699-.634-.906-.667a.744.744 0 0 0-.841.936c.039.142.127.252.479.597.552.539.658.73.66 1.182.001.273-.016.354-.114.555-.294.599-1.192 1.268-2.294 1.71-1.576.631-3.269.94-5.391.983-2.435.048-4.452-.27-6.231-.983-1.103-.443-2-1.111-2.294-1.71-.098-.201-.115-.282-.114-.555.002-.452.108-.643.66-1.182.352-.345.44-.455.479-.597a.748.748 0 0 0-.511-.919c-.167-.047-.214-.047-.399-.003" fill-rule="evenodd" fill="#000"/></svg>