<svg width="24" height="24" fill="none" xmlns="http://www.w3.org/2000/svg"><path d="M11.34 2.28c-2.777.199-5.344 1.769-6.804 4.163a8.45 8.45 0 0 0-1.264 4.517c-.001 1.55.294 2.784.998 4.18 1.09 2.164 3.108 4.171 5.67 5.64 1.078.619 1.445.753 2.06.753.478 0 .778-.078 1.275-.328 2.89-1.461 5.254-3.681 6.455-6.065.51-1.012.779-1.866.931-2.96.088-.632.089-1.804.001-2.4-.316-2.15-1.411-4.127-3.029-5.469A8.79 8.79 0 0 0 11.34 2.28m2.106 1.613c1.439.313 2.654.971 3.672 1.989a7.232 7.232 0 0 1 1.988 3.672c.125.58.171 1.667.096 2.273-.253 2.055-1.24 3.836-3.125 5.637-.84.803-2.184 1.741-3.362 2.345-.422.217-.489.239-.715.239-.226 0-.293-.022-.715-.239-2.757-1.414-5.029-3.669-5.935-5.889-.452-1.106-.614-1.996-.58-3.171.045-1.522.502-2.83 1.431-4.091.944-1.281 2.445-2.287 3.999-2.68.732-.185 1.034-.216 1.94-.2.713.012.91.029 1.306.115m-1.851 3.389a3.765 3.765 0 0 0-2.564 1.437c-.238.313-.563.968-.649 1.306a4.254 4.254 0 0 0 0 1.95c.086.338.411.993.649 1.306.366.482.817.837 1.421 1.119.398.186.702.268 1.183.317a3.648 3.648 0 0 0 1.913-.317c.855-.399 1.406-.94 1.813-1.78a3.21 3.21 0 0 0 .356-1.255 3.648 3.648 0 0 0-.317-1.913c-.44-.942-1.128-1.585-2.107-1.967-.441-.173-1.171-.26-1.698-.203m.979 1.541c.376.097.697.287 1.006.597.456.456.66.944.66 1.58 0 .636-.204 1.124-.66 1.58-.456.456-.944.66-1.58.66-.636 0-1.124-.204-1.58-.66-.456-.456-.66-.944-.66-1.58 0-.636.204-1.124.66-1.58.459-.458.916-.652 1.554-.657.203-.002.46.024.6.06" fill-rule="evenodd" fill="#000"/></svg>