<svg width="24" height="24" fill="none" xmlns="http://www.w3.org/2000/svg"><path d="M11.544 2.283c-1.969.174-3.645 1.614-4.145 3.561-.121.471-.158 1.096-.159 2.636V9.9l-.31.146c-1.256.593-2.048 1.576-2.409 2.991-.294 1.15-.345 3.024-.118 4.364.387 2.286 1.685 3.572 4.095 4.059 1.94.392 5.37.374 7.176-.038 2.318-.528 3.545-1.785 3.923-4.021.125-.742.172-1.694.124-2.544-.058-1.022-.15-1.588-.363-2.225-.395-1.19-1.158-2.053-2.288-2.586l-.31-.146V8.48c-.001-1.542-.039-2.166-.16-2.636a4.768 4.768 0 0 0-3.444-3.445c-.244-.062-1.152-.175-1.236-.153-.011.003-.18.019-.376.037m1.111 1.535c.643.123 1.098.376 1.625.902.391.391.576.659.746 1.08.189.466.214.736.214 2.268v1.421l-.13-.024c-.85-.157-2.742-.244-4.08-.187-.855.037-1.748.114-2.14.187l-.13.024V8.047c0-1.549.021-1.771.216-2.254.168-.414.354-.683.744-1.073.515-.515.98-.777 1.594-.9.36-.071.974-.072 1.341-.002m.969 6.982c2.574.201 3.8.832 4.279 2.2.267.765.356 1.53.326 2.815-.034 1.412-.205 2.155-.655 2.834-.552.832-1.501 1.261-3.314 1.498-.819.107-3.701.107-4.52 0-2.452-.321-3.418-1.012-3.813-2.727-.122-.532-.167-1.046-.167-1.908.001-1.102.087-1.77.319-2.461.465-1.389 1.701-2.047 4.221-2.248.593-.047 2.731-.049 3.324-.003" fill-rule="evenodd" fill="#000"/></svg>