<svg width="24" height="24" fill="none" xmlns="http://www.w3.org/2000/svg"><path d="M11.544 2.283c-1.969.174-3.645 1.614-4.145 3.561-.121.471-.158 1.096-.159 2.636V9.9l-.31.146c-1.256.593-2.048 1.576-2.409 2.991-.294 1.15-.345 3.024-.118 4.364.387 2.286 1.685 3.572 4.095 4.059 1.878.379 5.154.379 7.005-.002 2.423-.497 3.707-1.77 4.094-4.057.21-1.242.186-2.908-.06-4.114-.361-1.768-1.391-2.919-3.142-3.509-.85-.286-1.858-.433-3.425-.5-1.338-.057-3.23.03-4.08.187l-.13.024V8.047c0-1.549.021-1.771.216-2.254.168-.414.354-.683.744-1.073.391-.391.659-.576 1.08-.746.7-.283 1.7-.283 2.4 0a3.487 3.487 0 0 1 1.758 1.67c.162.348.236.656.281 1.166.047.537.131.709.421.86.157.082.525.081.685-.002.158-.082.328-.282.358-.421.013-.059.031-.129.039-.156.031-.101-.066-.954-.142-1.247a4.768 4.768 0 0 0-3.444-3.445c-.244-.062-1.152-.175-1.236-.153-.011.003-.18.019-.376.037m2.08 8.517c2.574.201 3.8.832 4.279 2.2.267.765.356 1.53.326 2.815-.034 1.412-.205 2.155-.655 2.834-.552.832-1.501 1.261-3.314 1.498-.819.107-3.701.107-4.52 0-2.452-.321-3.416-1.01-3.813-2.727-.118-.512-.167-1.077-.167-1.934.001-1.075.089-1.749.319-2.435.465-1.389 1.701-2.047 4.221-2.248.593-.047 2.731-.049 3.324-.003" fill-rule="evenodd" fill="#000"/></svg>