<svg width="24" height="24" fill="none" xmlns="http://www.w3.org/2000/svg"><path d="M13.805 3.278c-.734.183-.72 1.272.018 1.444.086.02 1.024.037 2.083.037 1.826.001 1.939.005 2.191.083 1.025.317 1.505 1.641 1.622 4.485a91.175 91.175 0 0 1 0 5.333c-.078 1.856-.289 2.987-.69 3.7-.18.32-.535.653-.816.766-.232.093-.245.094-2.333.114-1.854.018-2.114.028-2.22.086a.89.89 0 0 0-.342.354c-.072.14-.064.514.014.665.08.153.277.325.421.365.059.017 1.034.03 2.167.03 2.351 0 2.409-.006 3.072-.325.976-.469 1.63-1.502 1.949-3.076.235-1.16.298-2.295.298-5.339 0-3.044-.063-4.179-.298-5.339-.319-1.574-.974-2.608-1.949-3.076-.654-.313-.66-.314-2.992-.328-1.133-.007-2.121.003-2.195.021M6.9 7.259a1.795 1.795 0 0 1-.16.04c-.089.019-.658.562-2.233 2.133-1.162 1.16-2.141 2.162-2.176 2.228-.083.155-.083.525 0 .68.035.066 1.014 1.068 2.176 2.228 1.498 1.494 2.148 2.116 2.233 2.138.546.143.993-.175.993-.706a.868.868 0 0 0-.064-.34c-.035-.066-.686-.741-1.447-1.5L4.84 12.78l5.19-.02c4.731-.018 5.201-.026 5.31-.086a.713.713 0 0 0 .393-.674.713.713 0 0 0-.393-.674c-.109-.06-.579-.068-5.31-.086l-5.19-.02 1.382-1.38c.761-.759 1.412-1.434 1.447-1.5.077-.145.085-.521.013-.66a.852.852 0 0 0-.322-.339c-.106-.055-.393-.106-.46-.082" fill-rule="evenodd" fill="#000"/></svg>