<svg width="24" height="24" viewBox="0 0 24 24" fill="none" xmlns="http://www.w3.org/2000/svg">
<path d="M12 4V9M12 9L8.99995 10.5M12 9L14.9999 10.5M5.17462 19H7C8.10457 19 9 18.1046 9 17V7.09523C9 6.49035 8.50965 6 7.90477 6C7.52062 6 7.1634 6.20162 6.96855 6.53268C4.57116 10.6059 3.68495 13.2389 3.22365 16.8368C3.0748 17.9977 4.00416 19 5.17462 19ZM18.8254 19H17C15.8954 19 15 18.1046 15 17V7.09523C15 6.49035 15.4903 6 16.0952 6C16.4794 6 16.8366 6.20162 17.0314 6.53268C19.4288 10.6059 20.315 13.2389 20.7763 16.8368C20.9252 17.9977 19.9958 19 18.8254 19Z" stroke="#001A72" stroke-width="1.5" stroke-linecap="round" stroke-linejoin="round"/>
</svg>
