<svg width="24" height="24" fill="none" xmlns="http://www.w3.org/2000/svg"><path d="M11.36 2.279c-1.131.083-1.893.366-2.421.898-.459.461-.629.903-.683 1.774-.025.415-.034.452-.112.468-.046.009-.426.055-.844.101-1.718.191-2.545.397-2.919.724-.199.174-.456.717-.595 1.256-.731 2.83-.677 8.956.1 11.34.19.582.414.911.742 1.09.893.486 3.773.797 7.372.797 3.046 0 5.53-.214 6.822-.589.627-.181.866-.359 1.094-.81.747-1.484 1.052-6.377.622-9.968-.193-1.603-.478-2.621-.855-3.051-.317-.361-1.174-.587-2.983-.789a28.763 28.763 0 0 1-.844-.101c-.078-.016-.087-.053-.112-.468-.054-.872-.225-1.315-.683-1.773-.31-.311-.651-.51-1.147-.672-.596-.195-1.68-.291-2.554-.227m1.547 1.524c.634.088 1.019.277 1.204.592.089.153.109.24.123.558l.016.377-.235-.029c-.305-.038-3.725-.038-4.03 0l-.235.029.016-.377c.014-.316.034-.406.122-.555.177-.302.49-.471 1.066-.575.373-.068 1.522-.079 1.953-.02m2.033 3.034c1.652.137 3.526.412 3.646.535.137.141.364 1.235.491 2.371.136 1.219.176 2.237.15 3.837-.029 1.787-.134 2.963-.367 4.12-.134.662-.222.908-.349.97-.201.098-1.249.281-2.131.371-1.743.178-4.662.251-6.52.162-2.11-.1-4.258-.378-4.446-.574-.167-.175-.405-1.444-.559-2.989-.082-.82-.116-3.35-.059-4.36.1-1.77.403-3.687.618-3.908.164-.169 2.611-.48 4.626-.588.553-.029 4.407.012 4.9.053m-3.22 1.968c-.129.051-.309.223-.394.375-.057.104-.068.31-.078 1.588l-.012 1.468-1.468.012c-1.605.013-1.58.01-1.815.258a.72.72 0 0 0 0 .988c.235.248.21.245 1.815.258l1.468.012.012 1.468c.013 1.605.01 1.58.258 1.815a.72.72 0 0 0 .988 0c.248-.235.245-.21.258-1.815l.012-1.468 1.468-.012c1.605-.013 1.58-.01 1.815-.258A.667.667 0 0 0 16.24 13a.667.667 0 0 0-.193-.494c-.235-.248-.21-.245-1.815-.258l-1.468-.012-.012-1.468c-.01-1.278-.021-1.484-.078-1.588-.088-.159-.267-.325-.407-.377a.952.952 0 0 0-.547.002" fill-rule="evenodd" fill="#000"/></svg>