<svg width="24" height="24" viewBox="0 0 24 24" fill="none" xmlns="http://www.w3.org/2000/svg">
<path d="M9 14H15M12 11V17M6 13.4722C6 13.1617 6.07229 12.8554 6.21115 12.5777L7.05649 10.887C7.67697 9.64608 8 8.2777 8 6.89026M16 6.89026C16 8.2777 16.323 9.64608 16.9435 10.887L17.7889 12.5777C17.9277 12.8554 18 13.1617 18 13.4722V17C18 19.2092 16.2091 21 14 21H10C7.79086 21 6 19.2092 6 17V13.5M16 6.89026C16.2262 6.87198 16.3801 6.85265 16.4444 6.83333C16.7222 6.75 17 6.16667 17 5.5C17 4.83333 16.7222 4.25 16.4444 4.16667C16.1667 4.08333 14.2222 4 12 4C9.77778 4 7.83333 4.08333 7.55556 4.16667C7.27778 4.25 7 4.83333 7 5.5C7 6.16667 7.27778 6.75 7.55556 6.83333C7.61994 6.85265 7.77385 6.87198 8 6.89026M16 6.89026C15.2504 6.95084 13.7072 7 12 7C10.2928 7 8.74959 6.95084 8 6.89026" stroke="#001A72" stroke-width="1.5" stroke-linecap="round" stroke-linejoin="round"/>
</svg>
