<svg width="24" height="24" fill="none" xmlns="http://www.w3.org/2000/svg"><path d="M3.805 6.28c-.381.09-.618.495-.526.897.071.31.318.523.653.562.114.014 3.826.019 8.248.013 8.624-.013 8.105 0 8.334-.207.15-.136.219-.308.219-.545 0-.237-.069-.409-.219-.545-.229-.207.3-.195-8.434-.201-4.477-.004-8.201.008-8.275.026m0 5c-.381.09-.618.495-.526.897.071.31.318.523.653.562.114.014 3.826.019 8.248.013 8.624-.013 8.105 0 8.334-.207.15-.136.219-.308.219-.545 0-.237-.069-.409-.219-.545-.229-.207.3-.195-8.434-.201-4.477-.004-8.201.008-8.275.026m0 5c-.381.09-.618.495-.526.897.071.31.318.523.653.562.114.014 3.826.019 8.248.013 8.624-.013 8.105 0 8.334-.207.15-.136.219-.308.219-.545 0-.237-.069-.409-.219-.545-.229-.207.3-.195-8.434-.201-4.477-.004-8.201.008-8.275.026" fill-rule="evenodd" fill="#000"/></svg>