<svg width="24" height="24" fill="none" xmlns="http://www.w3.org/2000/svg"><path d="M11 2.264c-2.001.07-3.437.272-4.556.639-1.687.555-2.717 1.393-3.403 2.769-.534 1.072-.769 2.381-.769 4.288-.001 1.614.157 2.771.513 3.768.528 1.481 1.579 2.552 3.115 3.175l.32.129.02 2.101.02 2.1.121.172c.066.094.179.205.25.247.139.081.431.106.629.054.085-.022.694-.604 2.08-1.987l1.96-1.956 1.12-.022c2.408-.047 3.877-.231 5.136-.644 1.685-.554 2.72-1.396 3.403-2.769.538-1.082.769-2.382.769-4.328 0-1.946-.231-3.246-.769-4.328-.683-1.373-1.718-2.215-3.403-2.769-.9-.295-2.038-.49-3.396-.58-.68-.045-2.559-.08-3.16-.059m3.5 1.575c2.546.261 3.927.811 4.74 1.887.702.928.999 2.199.999 4.274s-.297 3.346-.999 4.274c-.812 1.075-2.208 1.631-4.74 1.887-.242.024-1.151.053-2.02.065-.916.011-1.639.037-1.72.061-.106.032-.491.392-1.568 1.465l-1.428 1.423-.012-1.438L7.74 16.3l-.098-.172c-.124-.215-.251-.294-.72-.447-1.352-.442-2.219-1.184-2.652-2.268-.335-.837-.469-1.674-.498-3.093-.052-2.545.326-3.983 1.298-4.952.903-.898 2.452-1.392 4.91-1.565.684-.048 3.958-.022 4.52.036m-6.6 5.42a1.438 1.438 0 0 1-.147.037c-.139.031-.339.201-.421.359-.078.151-.086.525-.014.665a.712.712 0 0 0 .682.413c.236 0 .407-.068.548-.22A.886.886 0 0 0 8.76 10a.82.82 0 0 0-.4-.659c-.106-.055-.393-.106-.46-.082m4 0a1.438 1.438 0 0 1-.147.037c-.139.031-.339.201-.421.359-.078.151-.086.525-.014.665a.712.712 0 0 0 .682.413c.236 0 .407-.068.548-.22A.886.886 0 0 0 12.76 10a.82.82 0 0 0-.4-.659c-.106-.055-.393-.106-.46-.082m4 0a1.438 1.438 0 0 1-.147.037c-.139.031-.339.201-.421.359-.078.151-.086.525-.014.665a.712.712 0 0 0 .682.413c.236 0 .407-.068.548-.22A.886.886 0 0 0 16.76 10a.82.82 0 0 0-.4-.659c-.106-.055-.393-.106-.46-.082" fill-rule="evenodd" fill="#000"/></svg>