<svg width="24" height="24" fill="none" xmlns="http://www.w3.org/2000/svg"><path d="M10.84 2.281A9.243 9.243 0 0 0 3.778 6.42a9.325 9.325 0 0 0-1.438 3.82c-.092.663-.093 1.848-.003 2.5a9.375 9.375 0 0 0 1.441 3.84c1.248 1.898 3.204 3.303 5.375 3.863 1.936.5 4.219.36 5.887-.359l.362-.156 1.809.606 1.809.606h.42c.39 0 .44-.009.69-.128.376-.178.677-.474.861-.847.144-.29.149-.316.149-.723v-.422l-.612-1.827-.612-1.828.107-.211c.27-.532.558-1.622.66-2.494.062-.524.061-1.779-.001-2.26a9.328 9.328 0 0 0-1.553-4.12c-1.286-1.872-3.233-3.224-5.409-3.754a9.835 9.835 0 0 0-2.88-.245m1.715 1.541c1.764.258 3.253 1.015 4.488 2.284.644.662 1.049 1.232 1.418 1.994a7.55 7.55 0 0 1 .779 3.408c0 1.249-.237 2.365-.687 3.242-.126.244-.193.426-.193.52 0 .166-.027.08.74 2.398.621 1.875.619 1.866.417 1.974-.067.035-.398-.061-1.849-.542-2.322-.768-2.231-.74-2.403-.74-.104 0-.264.061-.518.198-1.293.695-3.413.887-5.107.463-1.441-.361-2.636-1.052-3.683-2.127-.644-.662-1.049-1.232-1.418-1.994a7.78 7.78 0 0 1-.56-5.26 7.838 7.838 0 0 1 1.503-3.02c.268-.327.882-.937 1.199-1.192 1.018-.819 2.36-1.395 3.739-1.605.503-.077 1.611-.077 2.135-.001M7.72 8.805c-.262.104-.451.395-.451.695a.75.75 0 0 0 .464.697c.157.06 7.377.06 7.534 0a.75.75 0 0 0 .464-.697.75.75 0 0 0-.464-.697c-.15-.057-7.404-.055-7.547.002m0 4c-.262.104-.451.395-.451.695a.75.75 0 0 0 .464.697c.075.029.989.043 2.767.043s2.692-.014 2.767-.043a.75.75 0 0 0 .464-.697.75.75 0 0 0-.464-.697c-.149-.057-5.405-.055-5.547.002" fill-rule="evenodd" fill="#000"/></svg>