<svg width="24" height="24" fill="none" xmlns="http://www.w3.org/2000/svg"><path d="M2.9 2.259a1.438 1.438 0 0 1-.147.037c-.138.031-.339.201-.419.355-.069.134-.089.424-.041.609.023.087 2.508 2.598 9.139 9.233 5.009 5.012 9.162 9.141 9.228 9.176.154.082.524.083.68.001a.847.847 0 0 0 .339-.345c.058-.112.072-.414.028-.585-.023-.087-2.508-2.598-9.139-9.233C7.559 6.495 3.415 2.371 3.36 2.342c-.105-.055-.392-.107-.46-.083m8.66.02a3.74 3.74 0 0 0-1.669.606c-.665.452-1.471 1.617-1.463 2.114a.745.745 0 0 0 1.092.659c.152-.077.254-.207.434-.558.463-.899 1.137-1.34 2.046-1.34 1.388 0 2.248 1.051 2.601 3.18.135.811.183 1.932.122 2.85l-.072 1.094c-.016.254-.005.331.064.466.266.522 1.042.519 1.312-.004.102-.196.173-.883.199-1.926.097-3.793-.903-6.195-2.889-6.938-.481-.18-1.195-.261-1.777-.203M5.42 11.26a2.274 2.274 0 0 1-.149.037c-.147.032-.39.251-.457.411-.105.253-.028 1.289.148 1.979.572 2.242 2.202 3.948 4.465 4.673.359.115 1.189.29 1.623.342l.19.023v1.51l-1.23.012c-.949.01-1.253.026-1.33.068a.88.88 0 0 0-.35.345c-.082.157-.081.525.002.685.08.153.277.325.421.365.14.039 6.354.039 6.494 0 .144-.04.341-.212.421-.365.083-.16.084-.528.002-.685a.88.88 0 0 0-.35-.345c-.077-.042-.381-.058-1.33-.068l-1.23-.012V18.724l.13-.02c.072-.011.22-.031.33-.044.401-.046 1.013-.19 1.165-.274.222-.123.39-.457.353-.705-.049-.337-.239-.56-.55-.645-.144-.038-.247-.029-.708.064-.666.134-1.706.179-2.337.101-1.649-.204-3.003-.926-3.865-2.061-.579-.762-.908-1.645-.998-2.686a18.226 18.226 0 0 0-.065-.645c-.021-.146-.212-.385-.371-.466-.112-.056-.359-.105-.424-.083m12.92.017c-.178.043-.275.104-.413.261-.136.155-.143.186-.203.902a5.905 5.905 0 0 1-.149.9c-.154.572-.165.815-.049 1.022.238.424.859.504 1.179.152.134-.147.198-.302.312-.754.193-.763.282-1.759.18-2.027-.121-.322-.524-.536-.857-.456" fill-rule="evenodd" fill="#000"/></svg>