<svg width="24" height="24" fill="none" xmlns="http://www.w3.org/2000/svg"><path d="M11.7 2.265c-.337.029-.73.109-.988.201C8.773 3.162 7.76 5.405 7.76 9c0 3.559.999 5.805 2.899 6.516.669.251 1.631.293 2.361.104.331-.085.911-.371 1.207-.596C15.546 14.027 16.24 11.95 16.24 9c0-3.562-.999-5.805-2.903-6.518-.428-.16-1.164-.257-1.637-.217m.874 1.558c1.291.333 1.998 1.772 2.154 4.387.055.92.004 2.059-.127 2.85-.353 2.129-1.213 3.18-2.601 3.18-1.004 0-1.722-.545-2.199-1.669-.735-1.737-.735-5.405 0-7.142.371-.876.886-1.395 1.579-1.594.309-.089.873-.095 1.194-.012M5.42 11.26a2.274 2.274 0 0 1-.149.037c-.147.032-.39.251-.457.411-.105.253-.028 1.289.148 1.979.572 2.242 2.202 3.948 4.465 4.673.359.115 1.189.29 1.623.342l.19.023v1.51l-1.23.012c-.949.01-1.253.026-1.33.068a.88.88 0 0 0-.35.345c-.082.157-.081.525.002.685.08.153.277.325.421.365.14.039 6.354.039 6.494 0 .144-.04.341-.212.421-.365.083-.16.084-.528.002-.685a.88.88 0 0 0-.35-.345c-.077-.042-.381-.058-1.33-.068l-1.23-.012v-1.51l.19-.023a11.898 11.898 0 0 0 1.623-.342c2.263-.725 3.893-2.431 4.465-4.673.167-.654.253-1.708.159-1.954a.75.75 0 0 0-.697-.464c-.24 0-.404.076-.572.268-.135.154-.152.224-.19.763-.158 2.271-1.468 3.938-3.638 4.632-.626.2-1.101.275-1.88.298-1.49.044-2.705-.275-3.776-.992-1.259-.842-2.024-2.181-2.164-3.784a18.226 18.226 0 0 0-.065-.645c-.021-.146-.212-.385-.371-.466-.112-.056-.359-.105-.424-.083" fill-rule="evenodd" fill="#000"/></svg>