<svg width="24" height="24" fill="none" xmlns="http://www.w3.org/2000/svg"><path d="M10.4 5.265c-3.302.042-6.921.281-7.858.521-.309.079-.416.136-.594.319-.395.407-.672 1.235-.922 2.755a19.026 19.026 0 0 0 .18 7.259c.224 1.037.594 1.774.993 1.98.705.365 4.815.629 9.781.629 5.003 0 9.114-.263 9.821-.629.399-.206.769-.943.993-1.98.59-2.734.59-5.504 0-8.238-.224-1.037-.594-1.774-.993-1.98-.492-.255-2.621-.458-6.061-.579a159.085 159.085 0 0 0-5.34-.057m6.12 1.571c1.983.102 3.23.192 3.98.286.565.071.523.045.636.391.441 1.346.69 3.585.59 5.297-.088 1.51-.288 2.753-.59 3.677-.113.346-.071.32-.636.391-.777.098-2.114.193-4.1.291-1.379.068-7.421.068-8.8 0-1.986-.098-3.323-.193-4.1-.291-.565-.071-.523-.045-.636-.391-.441-1.346-.69-3.585-.59-5.297.088-1.51.288-2.753.59-3.677.113-.346.072-.32.636-.39.897-.111 2.417-.215 4.1-.282l1.42-.057c.713-.029 6.737.013 7.5.052M5.699 8.816c-.149.065-.367.308-.408.455-.04.142-.04 5.316 0 5.458.042.152.262.392.417.457a.85.85 0 0 0 .584 0c.155-.065.375-.305.417-.457.04-.142.04-5.316 0-5.458-.042-.152-.262-.392-.417-.457a.881.881 0 0 0-.593.002m5.734-.018a3.113 3.113 0 0 0-1.775.967c-.412.433-.635.813-.787 1.343-.129.45-.129 1.334 0 1.784a3.325 3.325 0 0 0 2.237 2.237c.45.129 1.334.129 1.784 0 .53-.152.91-.375 1.343-.787.446-.425.733-.89.894-1.45.129-.45.129-1.334 0-1.784-.302-1.052-1.178-1.933-2.215-2.23-.329-.093-1.16-.138-1.481-.08m6.266.018c-.149.065-.367.308-.408.455-.04.142-.04 5.316 0 5.458.042.152.262.392.417.457a.85.85 0 0 0 .584 0c.155-.065.375-.305.417-.457.04-.142.04-5.316 0-5.458-.042-.152-.262-.392-.417-.457a.881.881 0 0 0-.593.002m-5.333 1.482c.368.078.571.192.864.485.412.412.586.938.492 1.487-.069.401-.204.66-.498.954-.419.418-.942.593-1.494.498a1.597 1.597 0 0 1-.954-.498 1.597 1.597 0 0 1-.498-.954c-.094-.549.08-1.075.492-1.487.287-.288.497-.408.846-.483.318-.07.43-.07.75-.002" fill-rule="evenodd" fill="#000"/></svg>