<svg width="24" height="24" viewBox="0 0 24 24" fill="none" xmlns="http://www.w3.org/2000/svg">
<path d="M6 9.5V14.5M18 9.5V14.5M2.55556 6.55556C3.08333 6.27778 7.77778 6 12 6C16.2222 6 20.9167 6.27778 21.4444 6.55556C21.9722 6.83333 22.5 9.77778 22.5 12C22.5 14.2222 21.9722 17.1667 21.4444 17.4444C20.9167 17.7222 16.2222 18 12 18C7.77778 18 3.08333 17.7222 2.55556 17.4444C2.02778 17.1667 1.5 14.2222 1.5 12C1.5 9.77778 2.02778 6.83333 2.55556 6.55556ZM14.5 12C14.5 13.3807 13.3807 14.5 12 14.5C10.6193 14.5 9.5 13.3807 9.5 12C9.5 10.6193 10.6193 9.5 12 9.5C13.3807 9.5 14.5 10.6193 14.5 12Z" stroke="#001A72" stroke-width="1.5" stroke-linecap="round" stroke-linejoin="round"/>
</svg>
