<svg width="24" height="24" fill="none" xmlns="http://www.w3.org/2000/svg"><path d="M12.797 2.652c-.919.261-1.442 1.358-1.128 2.368.034.11.122.32.195.466.073.146.206.477.295.735 1.307 3.792-.94 8.284-4.879 9.751-.57.212-1.071.327-1.871.43-.556.071-.867.214-1.234.566-.657.631-.733 1.569-.177 2.201.344.39 1.269 1.006 2.182 1.452 3.557 1.739 7.69 1.436 10.669-.781 2.097-1.561 3.453-3.887 3.812-6.542.084-.62.086-1.914.003-2.523-.387-2.846-1.978-5.337-4.409-6.905a10.242 10.242 0 0 0-2.275-1.098c-.461-.158-.893-.202-1.183-.12m.889 1.611c.908.314 1.97.927 2.674 1.545 1.639 1.439 2.589 3.218 2.843 5.324.061.504.027 1.766-.06 2.248-.606 3.355-2.91 5.842-6.146 6.635-2.494.611-5.431-.009-7.582-1.6-.162-.12-.295-.232-.295-.249 0-.038.08-.135.163-.197.035-.026.309-.083.609-.126 1.482-.215 2.643-.656 3.849-1.464 2.877-1.926 4.567-5.37 4.258-8.679-.094-1.005-.298-1.768-.727-2.72-.11-.242-.199-.496-.199-.565-.001-.151.07-.295.145-.295.03 0 .24.064.468.143" fill-rule="evenodd" fill="#000"/></svg>