<svg width="24" height="24" fill="none" xmlns="http://www.w3.org/2000/svg"><path d="M4.801 5.287a.747.747 0 0 0-.435.324c-.171.275-.385 1.751-.534 3.669-.068.888-.068 4.552 0 5.44.149 1.916.363 3.389.535 3.669.103.17.257.276.482.332.163.042.226.035.557-.06 1.055-.302 2.945-1.136 4.559-2.011 2.354-1.277 4.095-2.509 5.184-3.669.6-.64.703-.945.466-1.387-.261-.487-1.6-1.691-2.824-2.538-2.073-1.437-5.542-3.185-7.372-3.715-.379-.11-.412-.113-.618-.054m13.967-.002c-.184.053-.435.317-.487.513-.035.13-.029.242.034.572.295 1.543.423 3.239.423 5.63 0 2.396-.126 4.068-.42 5.608-.1.517-.072.678.157.907a.732.732 0 0 0 .989.064c.221-.167.307-.45.457-1.499.233-1.639.298-2.732.298-5.08 0-1.31-.019-2.3-.052-2.72-.143-1.843-.346-3.276-.513-3.627a.746.746 0 0 0-.474-.369.574.574 0 0 0-.412.001M6.201 7.216c.787.316 1.51.652 2.459 1.141 2.23 1.149 3.938 2.28 5.043 3.34l.317.303-.317.303c-1.52 1.458-4.573 3.283-7.459 4.462A6.867 6.867 0 0 1 5.62 17c-.056 0-.071-.095-.179-1.08-.139-1.28-.178-2.143-.178-3.92 0-1.777.039-2.64.178-3.92.106-.975.124-1.08.176-1.08.025 0 .288.097.584.216" fill-rule="evenodd" fill="#000"/></svg>