<svg width="24" height="24" fill="none" xmlns="http://www.w3.org/2000/svg"><path d="M8.787 5.279c-.159.05-.377.225-.445.358-.119.229-.351 2.085-.51 4.063-.067.845-.067 3.755 0 4.6.167 2.08.395 3.86.522 4.079a.964.964 0 0 0 .237.237c.138.097.206.117.398.117.275 0 .445-.078.593-.272.168-.22.184-.376.098-.961-.459-3.139-.541-5.947-.258-8.84.079-.799.166-1.528.258-2.16.052-.355.065-.568.042-.671-.041-.182-.206-.409-.355-.485-.145-.075-.441-.108-.58-.065m6.024-.002a.695.695 0 0 0-.437.324c-.135.205-.135.358-.001 1.319a34.86 34.86 0 0 1 .363 5.08 34.86 34.86 0 0 1-.363 5.08c-.137.981-.136 1.121.012 1.331.164.233.335.322.618.322.273 0 .493-.12.631-.344.138-.223.363-1.943.534-4.089.067-.844.067-3.756 0-4.6-.162-2.031-.396-3.864-.521-4.077-.155-.266-.532-.422-.836-.346" fill-rule="evenodd" fill="#000"/></svg>