<svg width="24" height="24" fill="none" xmlns="http://www.w3.org/2000/svg"><path d="M5.66 1.819c-.911.169-1.863.789-2.729 1.779-.551.628-.874 1.201-1.061 1.876-.125.451-.123 1.613.004 2.185.548 2.478 2.436 5.296 5.803 8.664 3.382 3.382 6.209 5.271 8.683 5.803.59.127 1.708.128 2.166.003.672-.184 1.247-.509 1.876-1.06 1.221-1.069 1.831-2.186 1.837-3.361.002-.439-.094-.822-.322-1.297-.252-.522-.661-1.037-1.476-1.856-1.373-1.38-2.415-1.893-3.559-1.753-.34.041-.7.153-1.54.477-.591.228-.86.267-1.246.181a3.182 3.182 0 0 1-.614-.224c-1.05-.525-2.545-1.994-2.941-2.89-.26-.588-.224-.925.209-1.946.279-.656.376-1.016.399-1.48.056-1.111-.445-2.097-1.708-3.362-.873-.875-1.47-1.335-2.061-1.586-.468-.199-1.146-.259-1.72-.153m9.155.458c-.478.119-.714.708-.447 1.112.151.228.317.313.758.387 1.305.218 2.334.762 3.335 1.763 1.002 1.002 1.556 2.052 1.763 3.34.07.432.155.599.383.75a.756.756 0 0 0 .786 0c.356-.235.411-.522.249-1.304-.262-1.269-.888-2.493-1.792-3.505-.906-1.014-1.929-1.723-3.143-2.179-.62-.233-1.636-.429-1.892-.364M6.596 3.302c.344.081.653.276 1.204.76 1.341 1.179 1.951 2.109 1.864 2.844-.026.221-.125.51-.446 1.294-.256.626-.353 1.108-.323 1.6.032.508.107.776.365 1.3.608 1.233 2.213 2.797 3.56 3.47 1.039.519 1.892.561 2.976.145 1.147-.441 1.158-.444 1.504-.425.379.021.63.122 1.09.438.382.262 1.096.946 1.612 1.543.803.931.928 1.486.517 2.319-.378.766-1.357 1.707-2.075 1.994-1.17.467-3.03-.065-5.184-1.484-2.898-1.909-6.918-5.999-8.633-8.785-1.206-1.96-1.646-3.684-1.212-4.758.292-.723 1.229-1.698 1.995-2.076.486-.24.756-.281 1.186-.179m7.584 2.533a.61.61 0 0 0-.358.375c-.134.321-.027.709.245.893.07.046.304.134.52.194 1.171.324 1.795.948 2.117 2.116.13.473.22.618.455.737a.73.73 0 0 0 .631.028.635.635 0 0 0 .374-.346c.101-.198.096-.418-.021-.852-.431-1.604-1.519-2.692-3.123-3.123-.429-.115-.625-.12-.84-.022" fill-rule="evenodd" fill="#000"/></svg>