<svg width="24" height="24" fill="none" xmlns="http://www.w3.org/2000/svg"><path d="M14.82 4.244c-1.718.141-3.822 1.021-6.14 2.569-.682.455-.979.751-1.197 1.194-.418.847-.365 1.777.147 2.593.078.125.608.692 1.224 1.31l1.085 1.091-3.307 3.309c-2.376 2.378-3.316 3.344-3.339 3.43-.136.526.167.98.663.993a1.35 1.35 0 0 0 .304-.026c.086-.023 1.052-.963 3.43-3.339l3.309-3.307 1.091 1.085c.618.616 1.185 1.146 1.31 1.224.816.512 1.746.565 2.593.147.443-.218.739-.515 1.194-1.197 1.423-2.131 2.254-4.01 2.52-5.693.086-.542.085-1.462-.001-1.91-.318-1.654-1.538-2.959-3.137-3.357-.274-.068-1.118-.169-1.289-.154l-.46.038m1.4 1.576c.949.26 1.672.968 1.941 1.9.124.432.149 1.133.06 1.7-.169 1.081-.688 2.413-1.472 3.78-.288.503-.945 1.515-1.132 1.745-.187.23-.45.348-.777.349-.498.001-.386.097-3.308-2.826C8.608 9.545 8.7 9.653 8.705 9.16c.003-.327.122-.591.35-.777.091-.074.426-.305.745-.513 1.72-1.125 3.273-1.816 4.66-2.074.491-.092 1.381-.079 1.76.024" fill-rule="evenodd" fill="#000"/></svg>