<svg width="24" height="24" fill="none" xmlns="http://www.w3.org/2000/svg"><path d="M8.805 2.279a.73.73 0 0 0-.527.544c-.02.086-.037.319-.037.518l-.001.361-.31.116C5.797 4.617 4.593 6.177 4.084 8.8c-.206 1.062-.283 1.964-.312 3.66-.085 5.053.75 7.691 2.876 9.088 1.27.835 2.843 1.182 5.352 1.182 2.509 0 4.082-.347 5.352-1.182 1.489-.978 2.323-2.559 2.684-5.088.151-1.057.183-1.663.183-3.46 0-2.061-.066-2.977-.303-4.2-.509-2.625-1.71-4.182-3.841-4.98l-.306-.115-.017-.462c-.017-.47-.047-.581-.207-.757-.215-.237-.037-.225-3.465-.232-1.727-.004-3.201.008-3.275.025M14.24 4.5v.74H9.76V3.76h4.48v.74M8.248 5.77c.012.31.038.489.083.575.081.154.279.325.422.365.059.017 1.52.03 3.247.03 1.727 0 3.188-.013 3.247-.03.143-.04.341-.211.422-.365.045-.086.071-.265.083-.575.01-.248.034-.45.054-.45.02 0 .148.056.285.125 1.01.51 1.664 1.316 2.07 2.553.253.772.41 1.658.525 2.962.066.747.066 3.344 0 4.14-.356 4.299-1.632 5.771-5.286 6.098-.593.054-2.207.054-2.8 0-3.654-.327-4.929-1.798-5.287-6.098-.065-.788-.065-3.426 0-4.18.271-3.12.966-4.605 2.547-5.449.154-.082.3-.149.325-.15.03-.001.051.152.063.449m.932 5.057a.696.696 0 0 0-.344.341.807.807 0 0 0-.012.644c.035.07.525.591 1.09 1.158L10.939 14l-1.025 1.03c-.565.567-1.055 1.088-1.09 1.158-.127.254-.048.673.162.857.223.196.582.253.826.131.07-.035.591-.525 1.158-1.09L12 15.061l1.03 1.025c.567.565 1.088 1.055 1.158 1.09.254.127.673.048.857-.162.196-.223.253-.582.131-.826-.035-.07-.525-.591-1.09-1.158L13.061 14l1.025-1.03c.565-.567 1.055-1.088 1.09-1.158.122-.244.065-.603-.131-.826-.184-.21-.603-.289-.857-.162-.07.035-.591.525-1.158 1.09L12 12.939l-1.03-1.025c-.567-.565-1.088-1.055-1.158-1.09-.162-.081-.476-.08-.632.003" fill-rule="evenodd" fill="#000"/></svg>