<svg width="24" height="24" fill="none" xmlns="http://www.w3.org/2000/svg"><path d="M8.805 2.279a.73.73 0 0 0-.527.544c-.02.086-.037.319-.037.518l-.001.361-.31.116C5.797 4.617 4.593 6.177 4.084 8.8c-.206 1.062-.283 1.964-.312 3.66-.085 5.053.75 7.691 2.876 9.088 1.27.835 2.843 1.182 5.352 1.182 2.509 0 4.082-.347 5.352-1.182 1.489-.978 2.323-2.559 2.684-5.088.151-1.057.183-1.663.183-3.46 0-2.061-.066-2.977-.303-4.2-.509-2.625-1.71-4.182-3.841-4.98l-.306-.115-.017-.462c-.017-.47-.047-.581-.207-.757-.215-.237-.037-.225-3.465-.232-1.727-.004-3.201.008-3.275.025M14.24 4.5v.74H9.76V3.76h4.48v.74M8.248 5.77c.012.31.038.489.083.575.081.154.279.325.422.365.059.017 1.52.03 3.247.03 1.727 0 3.188-.013 3.247-.03.143-.04.341-.211.422-.365.045-.086.071-.265.083-.575.01-.248.034-.45.054-.45.02 0 .148.056.285.125 1.01.51 1.664 1.316 2.07 2.553.253.772.41 1.658.525 2.962.066.747.066 3.344 0 4.14-.356 4.299-1.632 5.771-5.286 6.098-.593.054-2.207.054-2.8 0-3.654-.327-4.929-1.798-5.287-6.098-.065-.788-.065-3.426 0-4.18.271-3.12.966-4.605 2.547-5.449.154-.082.3-.149.325-.15.03-.001.051.152.063.449m6.652 5.489a1.795 1.795 0 0 1-.16.04c-.089.019-.61.515-2.03 1.933l-1.91 1.907-.69-.685c-.38-.377-.735-.708-.79-.736-.138-.071-.515-.064-.66.012a.849.849 0 0 0-.342.35c-.071.138-.064.515.013.66.108.205 2.073 2.13 2.209 2.165.153.039.366.04.52.001.086-.022.747-.657 2.333-2.238 1.217-1.215 2.241-2.262 2.276-2.328.077-.145.084-.522.013-.66a.852.852 0 0 0-.322-.339c-.106-.055-.393-.106-.46-.082" fill-rule="evenodd" fill="#000"/></svg>