<svg width="24" height="24" fill="none" xmlns="http://www.w3.org/2000/svg"><path d="M7.676 3.18a4.175 4.175 0 0 0-1.321.509c-.262.161-.529.396-1.23 1.088-.493.486-.997 1.01-1.121 1.164a3.904 3.904 0 0 0-.667 1.281c-.144.483-.179 1.284-.079 1.782.125.619.417 1.222.82 1.696.3.351.441.427.766.411.218-.011.291-.033.415-.127a.882.882 0 0 0 .224-.279c.146-.321.084-.561-.245-.955-.411-.492-.582-.997-.545-1.61.023-.384.118-.714.293-1.017.133-.23 1.843-1.96 2.118-2.144.811-.539 1.995-.456 2.718.192.267.239.416.309.658.309.431 0 .734-.294.733-.712 0-.281-.067-.415-.327-.658-.416-.39-1.024-.714-1.64-.876-.406-.106-1.16-.132-1.57-.054m7.517-.022a3.93 3.93 0 0 0-1.473.592c-.291.189-1.017.898-5.024 4.906-4.912 4.913-4.892 4.891-5.178 5.528-.252.561-.298.806-.296 1.556.003.624.012.709.113 1.038.141.461.384.926.669 1.281.124.154.62.67 1.101 1.146 1.085 1.073 1.452 1.324 2.283 1.564.27.078.401.09.972.088.598-.003.693-.013 1.012-.11.38-.116.72-.275 1.068-.499.259-.166 9.462-9.331 9.76-9.719a3.769 3.769 0 0 0 .051-4.446c-.243-.344-1.915-2.017-2.255-2.256a4.076 4.076 0 0 0-1.184-.57c-.284-.085-.456-.107-.892-.119a5.411 5.411 0 0 0-.727.02m1.137 1.52c.59.15.824.324 1.896 1.411 1.04 1.054 1.221 1.375 1.224 2.171.002.475-.111.878-.342 1.224-.079.119-.411.481-.736.806l-.593.59-2.299-2.302-2.3-2.303.641-.627c.701-.687.917-.834 1.427-.967.377-.099.705-.1 1.082-.003m-1.9 4.972 2.29 2.29-2.36 2.36L12 16.66l-2.3-2.3-2.3-2.3 2.35-2.35a199.685 199.685 0 0 1 2.37-2.35 189.7 189.7 0 0 1 2.31 2.29m4.55 3.305c-.265.164-.38.367-.38.67 0 .212.062.343.283.599.407.47.569.904.567 1.516-.003.796-.184 1.117-1.224 2.171-1.072 1.087-1.306 1.261-1.896 1.411a1.938 1.938 0 0 1-1.06.001c-.392-.101-.626-.222-.968-.503-.316-.259-.402-.3-.626-.3-.575 0-.942.676-.62 1.142.2.289.787.717 1.251.913.562.236.823.284 1.513.282.576-.003.675-.014.992-.11.839-.256 1.196-.509 2.351-1.664.959-.959 1.178-1.228 1.435-1.766a3.808 3.808 0 0 0 .18-2.744c-.213-.646-.759-1.454-1.106-1.636-.158-.083-.545-.073-.692.018m-8.62 5.347c-.319.32-.685.653-.814.74-.619.417-1.519.461-2.226.11-.216-.108-.417-.285-1.191-1.049-.512-.506-.995-1.012-1.073-1.126-.325-.472-.454-1.182-.32-1.752.12-.506.299-.777.981-1.476l.618-.634 2.302 2.302 2.302 2.303-.579.582" fill-rule="evenodd" fill="#000"/></svg>