<svg width="24" height="24" viewBox="0 0 24 24" fill="none" xmlns="http://www.w3.org/2000/svg">
<path d="M13.6777 19.2635C14.8493 20.435 16.7488 20.435 17.9203 19.2635L19.3345 17.8492C20.5061 16.6777 20.5061 14.7782 19.3345 13.6066M4.80787 10.3937C3.63635 9.22219 3.63635 7.32278 4.80787 6.15126L6.22218 4.73695C7.39375 3.56538 9.30931 3.58144 10.4809 4.75301M12.1346 6.28L13.6776 4.73696C14.8492 3.56538 16.7487 3.56538 17.9203 4.73696L19.3345 6.15117C20.5061 7.32274 20.5061 9.22224 19.3345 10.3938L17.7914 11.9369M12.1346 6.28L6.35112 12.0635M12.1346 6.28L17.7914 11.9369M17.7914 11.9369L12.008 17.7203M6.35112 12.0635L4.80795 13.6066C3.63638 14.7782 3.63638 16.6777 4.80795 17.8493L6.22217 19.2635C7.39374 20.4351 9.29323 20.4351 10.4648 19.2635L12.008 17.7203M6.35112 12.0635L12.008 17.7203" stroke="#001A72" stroke-width="1.5" stroke-linecap="round" stroke-linejoin="round"/>
</svg>
