<svg width="24" height="24" fill="none" xmlns="http://www.w3.org/2000/svg"><path d="M7.331 5.278a.873.873 0 0 0-.42.259c-.275.324-.554 2.638-.629 5.226-.078 2.67.118 5.771.46 7.274.104.456.361.693.757.696.43.003 2.034-.62 3.681-1.428 2.563-1.259 4.63-2.584 5.94-3.808 1.064-.995 1.269-1.366 1.022-1.852-.253-.5-1.463-1.612-2.722-2.502-1.89-1.335-5.129-3.007-7.1-3.665-.647-.215-.801-.247-.989-.2m1.441 1.968c1.996.808 4.473 2.163 6.043 3.308.435.317 1.017.798 1.525 1.263l.2.183-.2.182c-1.08.984-1.915 1.597-3.302 2.427a39.765 39.765 0 0 1-2.916 1.551c-.711.334-1.915.84-1.997.84-.06 0-.076-.083-.161-.86-.163-1.483-.184-1.952-.184-4.14 0-2.188.021-2.657.184-4.14.085-.777.101-.86.161-.86.021 0 .313.111.647.246" fill-rule="evenodd" fill="#000"/></svg>