<svg width="24" height="24" fill="none" xmlns="http://www.w3.org/2000/svg"><path d="M11.805 6.279a.73.73 0 0 0-.527.544c-.02.086-.037 1.115-.037 2.285l-.001 2.129-2.23.011c-2.424.013-2.344.006-2.555.238-.142.157-.188.283-.188.514 0 .237.07.409.219.545.221.2.153.194 2.522.207l2.229.011.011 2.229c.013 2.369.007 2.301.207 2.522.136.15.308.219.545.219.237 0 .409-.069.545-.219.2-.221.194-.153.207-2.522l.011-2.229 2.229-.011c2.422-.013 2.342-.006 2.553-.238.142-.157.188-.283.188-.514 0-.231-.046-.357-.188-.514-.211-.232-.131-.225-2.553-.238l-2.229-.011-.011-2.229c-.013-2.369-.007-2.301-.207-2.522-.167-.185-.476-.271-.74-.207" fill-rule="evenodd" fill="#000"/></svg>