<svg width="24" height="24" fill="none" xmlns="http://www.w3.org/2000/svg"><path d="M11.32 2.28c-1.879.127-3.672.802-5.236 1.972-.493.368-1.464 1.339-1.832 1.832a9.794 9.794 0 0 0-1.895 4.524 10.9 10.9 0 0 0 0 2.784 9.794 9.794 0 0 0 1.895 4.524c.368.493 1.339 1.464 1.832 1.832a9.768 9.768 0 0 0 4.524 1.894 10.32 10.32 0 0 0 3.804-.2 9.913 9.913 0 0 0 3.504-1.694c.493-.369 1.463-1.339 1.832-1.832a9.763 9.763 0 0 0 1.894-4.524 10.9 10.9 0 0 0 0-2.784 9.763 9.763 0 0 0-1.894-4.524c-.369-.493-1.339-1.463-1.832-1.832-1.13-.846-2.524-1.495-3.796-1.766a10.872 10.872 0 0 0-2.8-.206m1.86 1.558a8.233 8.233 0 0 1 3.829 1.607c.425.321 1.225 1.121 1.546 1.546a8.266 8.266 0 0 1 .444 9.375 8.679 8.679 0 0 1-2.633 2.633 8.27 8.27 0 0 1-8.732 0 8.679 8.679 0 0 1-2.633-2.633c-1.51-2.435-1.659-5.493-.392-8.023.433-.864.868-1.465 1.568-2.166.879-.878 1.824-1.491 2.948-1.911a8.455 8.455 0 0 1 4.055-.428m-1.375 2.441a.73.73 0 0 0-.527.544c-.02.086-.037 1.115-.037 2.285l-.001 2.129-2.23.011c-2.424.013-2.344.006-2.555.238-.142.157-.188.283-.188.514 0 .237.07.409.219.545.221.2.153.194 2.522.207l2.229.011.011 2.229c.013 2.369.007 2.301.207 2.522.136.15.308.219.545.219.237 0 .409-.069.545-.219.2-.221.194-.153.207-2.522l.011-2.229 2.229-.011c2.422-.013 2.342-.006 2.553-.238.142-.157.188-.283.188-.514 0-.231-.046-.357-.188-.514-.211-.232-.131-.225-2.553-.238l-2.229-.011-.011-2.229c-.013-2.369-.007-2.301-.207-2.522-.167-.185-.476-.271-.74-.207" fill-rule="evenodd" fill="#000"/></svg>