<svg width="24" height="24" fill="none" xmlns="http://www.w3.org/2000/svg"><path d="M11.805 3.279a.73.73 0 0 0-.527.544c-.02.088-.037 1.752-.037 3.786l-.001 3.629-3.73.011c-3.383.01-3.741.017-3.85.077a.713.713 0 0 0-.393.674c0 .237.07.409.219.545.225.204.039.194 4.023.206l3.729.011.011 3.729c.012 3.984.002 3.798.206 4.023.136.15.308.219.545.219.237 0 .409-.069.545-.219.204-.225.194-.039.206-4.023l.011-3.729 3.729-.011c3.382-.01 3.74-.017 3.849-.077a.713.713 0 0 0 .393-.674c0-.237-.07-.409-.219-.545-.225-.204-.039-.194-4.023-.206l-3.729-.011-.011-3.729c-.012-3.984-.002-3.798-.206-4.023-.167-.185-.476-.271-.74-.207" fill-rule="evenodd" fill="#000"/></svg>