<svg width="24" height="24" fill="none" xmlns="http://www.w3.org/2000/svg"><path d="M11.805 3.279c-.291.071-.506.328-.545.653-.013.114-.019 2.026-.012 4.248.011 3.67.018 4.051.078 4.16a.89.89 0 0 0 .354.342c.14.072.514.064.665-.014.153-.08.325-.277.365-.421.039-.14.039-8.354 0-8.494a.833.833 0 0 0-.345-.41.949.949 0 0 0-.56-.064M8.8 6.958c-.299.091-.981.493-1.5.883-1.491 1.12-2.594 2.922-2.923 4.773a8.087 8.087 0 0 0 .266 3.801 7.476 7.476 0 0 0 1.776 2.94c.697.721 1.292 1.158 2.161 1.587a7.75 7.75 0 0 0 8.06-.739c.369-.273 1.051-.927 1.36-1.303a7.982 7.982 0 0 0 1.597-3.395c.203-1.048.178-2.332-.063-3.325a8.055 8.055 0 0 0-2.077-3.679c-.723-.716-1.893-1.488-2.371-1.565-.492-.078-.925.407-.806.904.065.27.203.405.677.661 1.204.65 2.091 1.589 2.698 2.859.44.919.608 1.754.573 2.84-.031.951-.184 1.601-.572 2.433-.328.704-.624 1.132-1.174 1.701-.891.924-1.956 1.511-3.248 1.793-.355.078-.531.091-1.234.091s-.879-.013-1.234-.091c-1.292-.282-2.357-.869-3.248-1.793-.55-.569-.846-.997-1.174-1.701-.382-.817-.54-1.481-.572-2.401a7.024 7.024 0 0 1 .027-1.02 6.275 6.275 0 0 1 3.252-4.717c.468-.251.594-.372.665-.64.147-.55-.377-1.063-.916-.897" fill-rule="evenodd" fill="#000"/></svg>