<svg width="24" height="24" fill="none" xmlns="http://www.w3.org/2000/svg"><path d="M11.514 4.282a4.643 4.643 0 0 0-2.107.743c-.415.274-1.123.968-1.361 1.335-.354.544-.646 1.286-.646 1.639 0 .52.439.848.938.703.287-.083.425-.247.561-.666.124-.384.214-.571.422-.876.173-.254.612-.686.892-.876.984-.671 2.393-.703 3.458-.078.295.173.95.828 1.123 1.123.507.865.595 1.993.217 2.784-.149.311-.652.805-1.371 1.346-1.433 1.079-2.044 1.982-2.282 3.375-.097.568-.119 1.344-.042 1.486.152.281.371.413.684.413a.712.712 0 0 0 .679-.408c.027-.053.065-.332.084-.62.056-.855.237-1.435.612-1.961.238-.333.563-.629 1.329-1.212.645-.491 1.164-.986 1.411-1.345.785-1.141.833-2.895.119-4.32a4.794 4.794 0 0 0-3.078-2.468c-.254-.065-1.121-.171-1.256-.153a26.95 26.95 0 0 1-.386.036m.206 14.022c-.301.13-.453.363-.453.696-.001.446.287.733.733.733a.712.712 0 0 0 .682-.413c.071-.137.064-.514-.012-.66-.182-.348-.603-.507-.95-.356" fill-rule="evenodd" fill="#000"/></svg>