<svg width="24" height="24" fill="none" xmlns="http://www.w3.org/2000/svg"><path d="M9.9 8.259a1.795 1.795 0 0 1-.16.04c-.089.019-.542.446-1.733 1.634-.887.884-1.641 1.661-1.676 1.727-.083.155-.083.525 0 .68.035.066.789.843 1.676 1.727 1.131 1.127 1.649 1.617 1.733 1.639.525.138.98-.166.993-.662a1.289 1.289 0 0 0-.027-.304c-.022-.083-.431-.521-1.338-1.43L8.062 12l1.306-1.31c.907-.909 1.316-1.347 1.338-1.43.132-.502-.127-.926-.606-.993a.725.725 0 0 0-.2-.008m4 0a1.438 1.438 0 0 1-.147.037c-.138.031-.339.201-.419.355-.069.135-.089.425-.04.609.022.083.431.521 1.338 1.43L15.938 12l-1.306 1.31c-.907.909-1.316 1.347-1.338 1.43-.048.182-.03.474.038.604a.847.847 0 0 0 .348.338c.138.071.515.064.66-.013.066-.035.843-.789 1.727-1.676 1.654-1.659 1.669-1.677 1.669-1.993 0-.316-.015-.334-1.669-1.993-.884-.887-1.652-1.636-1.707-1.665-.106-.055-.392-.107-.46-.083" fill-rule="evenodd" fill="#000"/></svg>