<svg width="24" height="24" fill="none" xmlns="http://www.w3.org/2000/svg"><path d="M11.32 2.28c-1.879.127-3.672.802-5.236 1.972-.493.368-1.464 1.339-1.832 1.832a9.794 9.794 0 0 0-1.895 4.524 10.9 10.9 0 0 0 0 2.784 9.794 9.794 0 0 0 1.895 4.524c.368.493 1.339 1.464 1.832 1.832a9.768 9.768 0 0 0 4.524 1.894 10.32 10.32 0 0 0 3.804-.2 9.913 9.913 0 0 0 3.504-1.694c.493-.369 1.463-1.339 1.832-1.832a9.763 9.763 0 0 0 1.894-4.524 10.9 10.9 0 0 0 0-2.784 9.763 9.763 0 0 0-1.894-4.524c-.369-.493-1.339-1.463-1.832-1.832-1.13-.846-2.524-1.495-3.796-1.766a10.872 10.872 0 0 0-2.8-.206m1.86 1.558a8.233 8.233 0 0 1 3.829 1.607c.425.321 1.225 1.121 1.546 1.546a8.266 8.266 0 0 1 .444 9.375 8.679 8.679 0 0 1-2.633 2.633 8.27 8.27 0 0 1-8.732 0 8.679 8.679 0 0 1-2.633-2.633c-1.51-2.435-1.659-5.493-.392-8.023.433-.864.868-1.465 1.568-2.166.879-.878 1.824-1.491 2.948-1.911a8.455 8.455 0 0 1 4.055-.428M11.9 6.259a1.795 1.795 0 0 1-.16.04c-.089.019-.542.446-1.733 1.634-.887.884-1.641 1.661-1.676 1.727-.077.145-.084.522-.013.66a.847.847 0 0 0 .338.348c.13.068.422.086.604.038.083-.022.521-.431 1.43-1.338L12 8.062l1.31 1.306c.909.907 1.347 1.316 1.43 1.338.525.138.98-.166.993-.662a1.289 1.289 0 0 0-.027-.304c-.022-.084-.512-.602-1.639-1.733-.884-.887-1.652-1.636-1.707-1.665-.106-.055-.392-.107-.46-.083m-3 7a1.438 1.438 0 0 1-.147.037c-.139.031-.339.201-.421.359-.084.161-.084.528-.001.685.035.066.789.843 1.676 1.727 1.659 1.654 1.677 1.669 1.993 1.669.316 0 .334-.015 1.993-1.669.887-.884 1.641-1.661 1.676-1.727.077-.145.084-.522.013-.66a.847.847 0 0 0-.338-.348c-.13-.068-.422-.086-.604-.038-.083.022-.521.431-1.43 1.338l-1.311 1.307-1.289-1.285c-.71-.707-1.326-1.303-1.37-1.325-.092-.045-.38-.091-.44-.07" fill-rule="evenodd" fill="#000"/></svg>