<svg width="24" height="24" fill="none" xmlns="http://www.w3.org/2000/svg"><path d="M13.1 5.338c-.942.283-1.978.715-3.4 1.42-2.985 1.479-5.173 2.963-6.458 4.38-.642.707-.639 1.026.014 1.738 1.327 1.445 3.569 2.958 6.564 4.429 1.149.564 2.024.936 2.88 1.226.832.282 1.075.27 1.37-.066.152-.173.197-.357.393-1.615.011-.071.029-.13.04-.13s.166.083.344.184c1.254.711 2.908 1.4 4.174 1.738.581.155.788.12 1.049-.177.139-.158.201-.387.326-1.205.394-2.573.452-6.447.14-9.42-.071-.68-.194-1.507-.282-1.893-.089-.394-.3-.615-.65-.681-.227-.044-1.11.218-2.204.653-.455.181-1.955.91-2.546 1.237l-.367.203-.026-.209a14.07 14.07 0 0 0-.241-1.331.857.857 0 0 0-.4-.49c-.18-.09-.397-.087-.72.009m5.834 1.712c.033.135.174 1.444.234 2.17.034.422.052 1.37.052 2.78 0 1.41-.018 2.358-.052 2.78-.06.734-.201 2.035-.235 2.173-.029.115-.043.112-.773-.16a18.201 18.201 0 0 1-3.154-1.531l-.374-.232.025-.245c.07-.682.1-2.833.056-4.125l-.049-1.52-.004-.16.6-.335c1.251-.698 2.503-1.293 3.34-1.588.326-.114.307-.114.334-.007m-5.927.531c.182 1.51.213 2.157.211 4.459-.001 1.749-.016 2.381-.069 2.98-.113 1.265-.2 1.947-.252 1.967-.125.048-2.153-.854-3.339-1.486-2.231-1.187-3.53-2.068-4.898-3.318L4.46 12l.2-.183c1.368-1.251 2.667-2.13 4.9-3.319 1.152-.613 3.16-1.512 3.32-1.487.046.008.076.139.127.57" fill-rule="evenodd" fill="#000"/></svg>