<svg width="24" height="24" viewBox="0 0 24 24" fill="none" xmlns="http://www.w3.org/2000/svg">
<path d="M13.863 8.57939C15.6077 7.56849 17.5231 6.49423 19.5 6C19.5 6 20 8 20 12C20 16 19.5 18 19.5 18C17.5968 17.5242 15.446 16.53 13.8644 15.4034M13.863 8.57939C13.7149 6.8598 13.5 6 13.5 6C13.5 6 11.5 6.5 8 8.5C4.5 10.5 3.5 12 3.5 12C3.5 12 4.5 13.5 8 15.5C11.5 17.5 13.5 18 13.5 18C13.5 18 13.7164 17.1345 13.8644 15.4034M13.863 8.57939C13.9407 9.48246 14 10.6227 14 12C14 13.3686 13.9415 14.5031 13.8644 15.4034" stroke="#001A72" stroke-width="1.5" stroke-linecap="round" stroke-linejoin="round"/>
</svg>
