<svg width="24" height="24" viewBox="0 0 24 24" fill="none" xmlns="http://www.w3.org/2000/svg">
<path d="M15 19.8935C17.1722 19.7353 18.799 19.4232 19.1111 19.1111C19.5556 18.6667 20 15.5556 20 12C20 11.3687 19.9621 10.4239 19.9316 9.76377C19.9088 9.27176 19.7009 8.80741 19.3526 8.45914L15.5409 4.6474C15.1926 4.29913 14.7282 4.09124 14.2362 4.06844C13.5761 4.03786 12.6313 4 12 4C8.44444 4 5.33333 4.44444 4.88889 4.88889C4.44444 5.33333 4 8.44444 4 12C4 15.5556 4.44444 18.6667 4.88889 19.1111C5.20096 19.4232 6.82776 19.7353 9 19.8935M15 19.8935C14.0786 19.9606 13.059 20 12 20C10.941 20 9.92143 19.9606 9 19.8935M15 19.8935V18C15 18 15 15 12 15C9 15 9 18 9 18V19.8935" stroke="#001A72" stroke-width="1.5" stroke-linecap="round" stroke-linejoin="round"/>
</svg>
