<svg width="24" height="24" fill="none" xmlns="http://www.w3.org/2000/svg"><path d="M10.62 3.282c-2.524.073-4.792.374-5.72.76-.41.171-.641.386-.812.755-.966 2.092-1.115 10.235-.249 13.663.204.808.448 1.201.879 1.419 1.034.522 3.835.848 7.282.848 3.451 0 6.248-.326 7.284-.849.436-.22.695-.649.896-1.486.407-1.695.63-4.856.537-7.612-.045-1.35-.091-1.655-.325-2.14-.164-.339-.172-.348-2.428-2.604-2.256-2.256-2.265-2.264-2.604-2.428-.486-.234-.788-.28-2.167-.327a42.83 42.83 0 0 0-1.38-.034l-1.193.035m3.204 1.516c.471.027.649.054.802.12.163.07.559.447 2.284 2.173 1.693 1.695 2.103 2.126 2.172 2.283.126.288.171 1.305.144 3.306-.031 2.313-.192 4.084-.484 5.3-.151.63-.127.596-.509.7-.432.116-1.023.223-1.785.321-.336.043-.628.079-.65.079-.022 0-.038-.218-.038-.53-.001-1.508-.334-2.48-1.12-3.273-.709-.714-1.474-1.006-2.64-1.006-1.166 0-1.931.292-2.64 1.007-.789.795-1.119 1.758-1.12 3.272 0 .291-.014.53-.031.53-.1 0-1.102-.135-1.509-.203-.498-.083-1.218-.259-1.268-.309-.049-.049-.227-.767-.308-1.248-.088-.516-.215-1.628-.292-2.56-.071-.844-.071-4.676 0-5.52.077-.932.204-2.044.292-2.56.081-.481.259-1.199.308-1.248.049-.049.767-.227 1.248-.308.797-.136 2.409-.294 3.44-.338.657-.027 3.161-.02 3.704.012m-.967 11.078c.673.24 1.102.748 1.303 1.54.066.26.08.448.08 1.044v.728l-.45.026c-.247.014-1.053.026-1.79.026-.737 0-1.543-.012-1.79-.026l-.45-.026v-.728c0-.596.014-.784.08-1.044.228-.899.751-1.434 1.58-1.617.088-.019.394-.029.68-.022.402.011.574.033.757.099" fill-rule="evenodd" fill="#000"/></svg>