<svg width="24" height="24" fill="none" xmlns="http://www.w3.org/2000/svg"><path d="M2.9 2.259a1.438 1.438 0 0 1-.147.037c-.138.031-.339.201-.419.355-.069.134-.089.424-.041.609.023.087 2.508 2.598 9.139 9.233 5.009 5.012 9.162 9.141 9.228 9.176.154.082.524.083.68.001a.847.847 0 0 0 .339-.345c.058-.112.072-.414.028-.585-.023-.087-2.508-2.598-9.139-9.233C7.559 6.495 3.415 2.371 3.36 2.342c-.105-.055-.392-.107-.46-.083m6.6.536c-.78.029-.916.073-1.117.357-.096.137-.116.205-.116.397 0 .264.073.434.253.585.207.174.319.184 1.553.139 3.019-.111 7.602.107 9.141.434.309.065.316.069.384.23.195.46.398 1.508.546 2.823.086.76.119 2.895.059 3.785a19.119 19.119 0 0 1-.308 2.407c-.116.576-.109.743.044.974.268.404.899.414 1.2.018.119-.156.246-.695.377-1.604.464-3.214.156-7.597-.646-9.2-.184-.367-.327-.524-.602-.658-.582-.284-2.093-.49-4.708-.643-.87-.051-5.078-.082-6.06-.044M2.74 7.817a.83.83 0 0 0-.381.403c-.076.196-.116 1.637-.076 2.74.09 2.447.474 4.766.919 5.543.157.275.377.469.649.57.468.175.741.187 4.159.184l3.23-.004V19.76H9.543c-1.102 0-1.737.015-1.81.043a.75.75 0 0 0-.464.697.75.75 0 0 0 .464.697c.077.03 1.429.043 4.267.043s4.19-.013 4.267-.043a.75.75 0 0 0 .464-.697.75.75 0 0 0-.464-.697c-.073-.028-.707-.043-1.808-.043h-1.695l-.012-1.73c-.011-1.523-.02-1.744-.078-1.85-.089-.159-.267-.325-.408-.378-.08-.03-1.256-.04-3.88-.033-2.871.008-3.786 0-3.85-.037-.201-.116-.474-1.464-.682-3.372-.051-.469-.07-1.047-.076-2.371l-.009-1.751-.102-.154c-.183-.278-.621-.404-.927-.267" fill-rule="evenodd" fill="#000"/></svg>