<svg width="24" height="24" fill="none" xmlns="http://www.w3.org/2000/svg"><path d="M19.76 3.285C15.966 4.308 11.871 5.749 8.519 7.24c-1.453.646-3.92 1.897-4.421 2.241a1.641 1.641 0 0 0-.725 1.536c.034.402.232.788.552 1.078.234.212.338.261 2.874 1.347L9.43 14.57l1.128 2.631c1.086 2.536 1.135 2.64 1.347 2.874.552.61 1.447.74 2.128.309.318-.201.453-.384.946-1.284 1.213-2.215 2.547-5.237 3.629-8.22.79-2.178 1.771-5.27 2.07-6.52.112-.47.06-.717-.198-.934-.2-.168-.443-.216-.72-.141m-6.156 6.051-3.775 3.775-.125-.052c-1.963-.827-4.743-2.042-4.8-2.099-.07-.069-.072-.083-.015-.169.095-.145 2.095-1.198 3.607-1.899 1.351-.626 3.227-1.391 5.084-2.074.931-.342 3.646-1.254 3.74-1.256.033-.001-1.639 1.697-3.716 3.774m4.473-1.513c-1.331 4.07-2.862 7.719-4.485 10.692-.326.598-.412.688-.545.576-.05-.042-.504-1.048-1.122-2.491l-1.038-2.42 3.767-3.77c2.071-2.074 3.771-3.755 3.777-3.737.006.018-.154.535-.354 1.15" fill-rule="evenodd" fill="#000"/></svg>