<svg width="24" height="24" fill="none" xmlns="http://www.w3.org/2000/svg"><path d="M11.64 2.744a5.61 5.61 0 0 0-1.112.222c-.452.145-4.751 2.283-5.228 2.601-.835.557-1.516 1.507-1.768 2.468-.138.525-.144 1.252-.017 1.961.214 1.19.441 2.087.803 3.164 1.28 3.812 3.42 6.647 6.02 7.978.507.259.88.377 1.318.415.734.064 1.296-.052 2.006-.415 2.369-1.212 4.371-3.69 5.673-7.023.53-1.357.877-2.599 1.15-4.119.128-.712.121-1.435-.018-1.967-.193-.734-.738-1.617-1.296-2.099-.442-.381-.804-.584-3.051-1.707-2.252-1.126-2.632-1.292-3.2-1.4-.318-.061-1.046-.106-1.28-.079m.768 1.514c.147.013.404.068.571.123.433.141 4.71 2.292 4.989 2.508.542.421.941 1.029 1.074 1.637.074.342.027.957-.137 1.777-.419 2.09-1.133 3.989-2.124 5.652-1.068 1.793-2.233 2.987-3.708 3.798-.447.246-.712.327-1.073.327-.459 0-.864-.165-1.66-.675-2.328-1.493-4.371-4.954-5.175-8.77-.262-1.24-.303-1.739-.183-2.203.151-.581.531-1.14 1.051-1.544.294-.228 4.642-2.407 5.039-2.526.283-.084.829-.16.988-.138.044.006.2.022.348.034M14.9 9.259a1.795 1.795 0 0 1-.16.04c-.089.019-.586.492-1.93 1.833L11 12.939l-.79-.785c-.435-.432-.835-.808-.89-.836-.138-.071-.515-.064-.66.012a.849.849 0 0 0-.342.35c-.071.138-.064.515.013.66.109.206 2.273 2.33 2.409 2.365.153.039.366.04.52.001.086-.022.722-.631 2.233-2.138 1.162-1.16 2.141-2.162 2.176-2.228.077-.145.084-.522.013-.66a.852.852 0 0 0-.322-.339c-.106-.055-.393-.106-.46-.082" fill-rule="evenodd" fill="#000"/></svg>