<svg width="24" height="24" viewBox="0 0 24 24" fill="none" xmlns="http://www.w3.org/2000/svg">
<path d="M3 7L6 4H9C9 4.39397 9.0776 4.78407 9.22836 5.14805C9.37913 5.51203 9.6001 5.84274 9.87868 6.12132C10.1573 6.3999 10.488 6.62087 10.8519 6.77164C11.2159 6.9224 11.606 7 12 7C12.394 7 12.7841 6.9224 13.1481 6.77164C13.512 6.62087 13.8427 6.3999 14.1213 6.12132C14.3999 5.84274 14.6209 5.51203 14.7716 5.14805C14.9224 4.78407 15 4.39397 15 4H18L21 7L20.5785 11.2152C20.542 11.5801 20.1382 11.7829 19.8237 11.5942L18 10.5V18C18 19.1046 17.1046 20 16 20H8C6.89543 20 6 19.1046 6 18V10.5L4.17629 11.5942C3.86184 11.7829 3.45801 11.5801 3.42152 11.2152L3 7Z" stroke="#001A72" stroke-width="1.5" stroke-linecap="round" stroke-linejoin="round"/>
</svg>
