<svg width="24" height="24" viewBox="0 0 24 24" fill="none" xmlns="http://www.w3.org/2000/svg">
<path d="M9 7L9 4C9 3.44772 9.44771 3 10 3L14 3C14.5523 3 15 3.44772 15 4V7M9 7L15 7M9 7C7.89543 7 7 7.89543 7 9L7 15C7 16.1046 7.89543 17 9 17M15 7C16.1046 7 17 7.89543 17 9L17 15C17 16.1046 16.1046 17 15 17M15 17V20C15 20.5523 14.5523 21 14 21H10C9.44771 21 9 20.5523 9 20L9 17M15 17H9M7 12.9514H8.97011C9.10328 12.9514 9.22502 12.868 9.28457 12.7361L9.57609 12.0901C9.70565 11.8029 10.0754 11.8029 10.205 12.0901L10.9697 13.7847C11.1016 14.0768 11.4799 14.0703 11.6034 13.7737L13.081 10.2263C13.2077 9.9222 13.5988 9.92528 13.7215 10.2313L14.7198 12.7201C14.7762 12.8607 14.9021 12.9514 15.0411 12.9514H17" stroke="#001A72" stroke-width="1.5" stroke-linecap="round" stroke-linejoin="round"/>
</svg>
