<svg width="24" height="24" fill="none" xmlns="http://www.w3.org/2000/svg"><path d="M9.701 2.285c-.333.048-.64.213-.921.495-.292.291-.445.587-.498.96-.022.154-.041.804-.041 1.445L8.24 6.349l-.233.085c-.329.12-.686.362-.977.661-.442.454-.678.95-.749 1.576-.053.462-.053 6.196 0 6.658.071.626.307 1.122.749 1.576.291.299.648.541.977.661l.233.085.001 1.164c0 .641.019 1.291.041 1.445.053.373.206.669.498.96.291.292.587.445.96.498.366.053 4.154.053 4.52 0 .373-.053.669-.206.96-.498.292-.291.445-.587.498-.96.022-.154.041-.804.041-1.445l.001-1.164.233-.085c.329-.12.686-.362.977-.661.442-.454.678-.95.749-1.576.053-.462.053-6.196 0-6.658a2.559 2.559 0 0 0-.749-1.576c-.291-.299-.648-.541-.977-.661l-.233-.085-.001-1.164c0-.641-.019-1.291-.041-1.445-.053-.373-.206-.669-.498-.96-.291-.292-.587-.445-.96-.498-.342-.049-4.22-.047-4.559.003m4.466 1.541c.068.061.073.154.073 1.24V6.24H9.76V5.073c0-1.029.008-1.175.066-1.24.063-.069.183-.073 2.167-.073 1.899 0 2.108.006 2.174.066m1.287 4.015c.29.109.596.415.705.705.077.206.081.307.081 1.937v1.72l-.463-.012-.463-.011-.469-1.16a44.977 44.977 0 0 0-.515-1.243c-.071-.13-.363-.378-.524-.446-.188-.079-.624-.079-.812 0-.192.081-.462.329-.552.506-.04.079-.311.719-.603 1.423a39.66 39.66 0 0 1-.558 1.312c-.016.017-.117-.17-.225-.417-.236-.541-.382-.742-.641-.883-.608-.331-1.24-.083-1.564.612l-.148.316H7.76v-1.718c0-1.994-.001-1.99.366-2.356.384-.384.143-.362 3.862-.364 3.169-.002 3.254 0 3.466.079m-1.697 4.485c.366.921.484 1.102.821 1.259.189.088.25.094.932.095h.73v.778c0 .685-.01.805-.081.996-.109.29-.415.596-.705.705-.211.079-.299.081-3.454.081-3.155 0-3.243-.002-3.454-.081a1.342 1.342 0 0 1-.705-.705c-.071-.191-.081-.311-.081-.996v-.778h.73c.684-.001.743-.007.93-.095.11-.052.253-.151.317-.22a.587.587 0 0 1 .143-.125c.013 0 .121.217.239.483.34.761.625 1.009 1.162 1.009a.98.98 0 0 0 .788-.345c.159-.172.247-.364.994-2.174.174-.422.328-.755.341-.74.013.015.172.399.353.853m.483 6.601c0 1.029-.008 1.175-.066 1.24-.063.069-.183.073-2.167.073-1.899 0-2.108-.006-2.174-.066-.068-.061-.073-.154-.073-1.24V17.76h4.48v1.167" fill-rule="evenodd" fill="#000"/></svg>