<svg width="24" height="24" fill="none" xmlns="http://www.w3.org/2000/svg"><path d="M9.701 2.285c-.333.048-.64.213-.921.495-.292.291-.445.587-.498.96-.022.154-.041.804-.041 1.445L8.24 6.349l-.233.085c-.329.12-.686.362-.977.661-.442.454-.678.95-.749 1.576-.053.462-.053 6.196 0 6.658.071.626.307 1.122.749 1.576.291.299.648.541.977.661l.233.085.001 1.164c0 .641.019 1.291.041 1.445.053.373.206.669.498.96.291.292.587.445.96.498.366.053 4.154.053 4.52 0 .373-.053.669-.206.96-.498.292-.291.445-.587.498-.96.022-.154.041-.804.041-1.445l.001-1.164.233-.085c.329-.12.686-.362.977-.661.442-.454.678-.95.749-1.576.053-.462.053-6.196 0-6.658a2.559 2.559 0 0 0-.749-1.576c-.291-.299-.648-.541-.977-.661l-.233-.085-.001-1.164c0-.641-.019-1.291-.041-1.445-.053-.373-.206-.669-.498-.96-.291-.292-.587-.445-.96-.498-.342-.049-4.22-.047-4.559.003m4.466 1.541c.068.061.073.154.073 1.24V6.24H9.76V5.073c0-1.029.008-1.175.066-1.24.063-.069.183-.073 2.167-.073 1.899 0 2.108.006 2.174.066m1.287 4.015c.29.109.596.415.705.705.079.211.081.299.081 3.454 0 3.155-.002 3.243-.081 3.454-.109.29-.415.596-.705.705-.211.079-.299.081-3.454.081-3.155 0-3.243-.002-3.454-.081a1.342 1.342 0 0 1-.705-.705c-.079-.211-.081-.299-.081-3.454 0-3.155.002-3.243.081-3.454.106-.282.415-.596.694-.703.198-.076.318-.079 3.453-.081 3.169-.002 3.254 0 3.466.079m-3.649 1.438a.73.73 0 0 0-.527.544c-.02.086-.037.439-.037.783l-.001.626-.73.015c-.778.016-.872.037-1.055.239-.142.157-.188.283-.188.514 0 .231.046.357.188.514.183.202.277.223 1.051.239l.726.015.015.726c.015.753.029.822.208 1.02.136.149.308.219.545.219.231 0 .357-.046.514-.188.202-.183.223-.277.239-1.051l.015-.726.726-.015c.774-.016.868-.037 1.051-.239.142-.157.188-.283.188-.514 0-.231-.046-.357-.188-.514-.183-.202-.277-.223-1.051-.239l-.726-.015-.015-.726c-.015-.753-.029-.822-.208-1.02-.167-.185-.476-.271-.74-.207m2.435 9.648c0 1.029-.008 1.175-.066 1.24-.063.069-.183.073-2.167.073-1.899 0-2.108-.006-2.174-.066-.068-.061-.073-.154-.073-1.24V17.76h4.48v1.167" fill-rule="evenodd" fill="#000"/></svg>