<svg width="24" height="24" viewBox="0 0 24 24" fill="none" xmlns="http://www.w3.org/2000/svg">
<path d="M9 7L9 4C9 3.44772 9.44771 3 10 3H14C14.5523 3 15 3.44772 15 4V7M9 7L15 7M9 7C7.89543 7 7 7.89543 7 9V15C7 16.1046 7.89543 17 9 17M15 7C16.1046 7 17 7.89543 17 9L17 15C17 16.1046 16.1046 17 15 17M15 17V20C15 20.5523 14.5523 21 14 21H10C9.44771 21 9 20.5523 9 20L9 17M15 17H9M12 10V12M12 12V14M12 12H10M12 12H14" stroke="#001A72" stroke-width="1.5" stroke-linecap="round" stroke-linejoin="round"/>
</svg>
