<svg width="24" height="24" viewBox="0 0 24 24" fill="none" xmlns="http://www.w3.org/2000/svg">
<path d="M9 7L9 4C9 3.44772 9.44771 3 10 3H14C14.5523 3 15 3.44772 15 4V7M9 7L15 7M9 7C7.89543 7 7 7.89543 7 9V15C7 16.1046 7.89543 17 9 17M15 7C16.1046 7 17 7.89543 17 9L17 15C17 16.1046 16.1046 17 15 17M15 17V20C15 20.5523 14.5523 21 14 21H10C9.44771 21 9 20.5523 9 20L9 17M15 17H9M12 14.25C12 14.25 9.5 12.3214 9.5 10.9744C9.5 10.1786 10.0556 9.75 10.7627 9.75C11.0976 9.75 11.4187 9.85643 11.6555 10.0459C11.8923 10.2353 11.8 10.1615 11.8 10.1615C11.9093 10.2489 12.0907 10.2489 12.2 10.1615L12.3445 10.0459C12.5813 9.85643 12.9024 9.75 13.2373 9.75C13.9347 9.75 14.5 10.1786 14.5 10.9744C14.5 12.3214 12 14.25 12 14.25Z" stroke="#001A72" stroke-width="1.5" stroke-linecap="round" stroke-linejoin="round"/>
</svg>
