<svg width="24" height="24" fill="none" xmlns="http://www.w3.org/2000/svg"><path d="M14.805 5.279c-.291.071-.506.328-.544.653-.014.114-.02 2.926-.013 6.248.01 5.033.021 6.057.067 6.14a.88.88 0 0 0 .345.35c.157.082.525.081.685-.002.153-.08.325-.277.365-.421.039-.14.039-12.354 0-12.494a.833.833 0 0 0-.345-.41.949.949 0 0 0-.56-.064m-3 3c-.291.071-.506.328-.545.653-.013.114-.019 1.576-.012 3.248.011 2.739.019 3.052.078 3.16a.89.89 0 0 0 .354.342c.14.072.514.064.665-.014.153-.08.325-.277.365-.421.039-.14.039-6.354 0-6.494a.833.833 0 0 0-.345-.41.949.949 0 0 0-.56-.064m-6 1c-.291.071-.506.328-.545.653-.014.114-.019 1.126-.013 2.248.011 1.638.024 2.06.068 2.14a.88.88 0 0 0 .345.35c.157.082.525.081.685-.002.153-.08.325-.277.365-.421.039-.14.039-4.354 0-4.494a.833.833 0 0 0-.345-.41.949.949 0 0 0-.56-.064m12 0c-.291.071-.506.328-.545.653-.014.114-.019 1.126-.013 2.248.011 1.638.024 2.06.068 2.14a.88.88 0 0 0 .345.35c.157.082.525.081.685-.002.153-.08.325-.277.365-.421.039-.14.039-4.354 0-4.494a.833.833 0 0 0-.345-.41.949.949 0 0 0-.56-.064m-15 1c-.291.071-.505.327-.546.653-.014.114-.019.676-.012 1.248.011.876.023 1.059.079 1.16a.89.89 0 0 0 .354.342c.14.072.514.064.665-.014.153-.08.325-.277.365-.421.039-.139.039-2.355 0-2.494a.833.833 0 0 0-.345-.41.949.949 0 0 0-.56-.064m6 0c-.291.071-.505.327-.546.653-.014.114-.019.676-.012 1.248.011.876.023 1.059.079 1.16a.89.89 0 0 0 .354.342c.14.072.514.064.665-.014.153-.08.325-.277.365-.421.017-.059.03-.62.03-1.247 0-.627-.013-1.188-.03-1.247a.833.833 0 0 0-.345-.41.949.949 0 0 0-.56-.064m12 0c-.291.071-.505.327-.546.653-.014.114-.019.676-.012 1.248.011.876.023 1.059.079 1.16a.89.89 0 0 0 .354.342c.14.072.514.064.665-.014.153-.08.325-.277.365-.421.017-.059.03-.62.03-1.247 0-.627-.013-1.188-.03-1.247a.833.833 0 0 0-.345-.41.949.949 0 0 0-.56-.064" fill-rule="evenodd" fill="#000"/></svg>