<svg width="24" height="24" fill="none" xmlns="http://www.w3.org/2000/svg"><path d="M11.58 2.283c-.646.07-1.367.367-2.04.843-.516.365-1.245 1.112-2.162 2.214C6.1 6.876 5.797 7.142 5.098 7.336 3.507 7.777 2.61 8.557 2.335 9.74c-.068.289-.075.508-.075 2.26 0 1.752.007 1.971.075 2.26.275 1.183 1.172 1.963 2.763 2.404.699.194 1.002.46 2.28 1.996 1.273 1.531 2.011 2.211 2.862 2.639.842.424 1.819.559 2.287.318.508-.263.908-1.08 1.173-2.397.649-3.225.732-9.536.177-13.4-.244-1.697-.571-2.702-1.035-3.178-.329-.338-.641-.426-1.262-.359m.409 1.873c.391 1.104.65 3.288.739 6.254.118 3.907-.196 7.915-.74 9.434l-.135.376-.162-.007c-.242-.011-.694-.182-1.021-.386-.607-.379-1.097-.876-2.392-2.427-.946-1.133-1.461-1.61-2.058-1.909a7.02 7.02 0 0 0-.78-.29c-.9-.281-1.336-.561-1.548-.992l-.112-.229v-3.96l.112-.229c.212-.431.648-.711 1.548-.992a7.02 7.02 0 0 0 .78-.29c.597-.299 1.112-.776 2.058-1.909 1.268-1.519 1.749-2.011 2.332-2.389.308-.2.469-.274.81-.376.403-.119.416-.112.569.321M15.9 8.259a1.438 1.438 0 0 1-.147.037c-.138.031-.339.201-.419.355-.069.135-.089.425-.04.609.022.083.431.521 1.338 1.43L17.938 12l-1.306 1.31c-.907.909-1.316 1.347-1.338 1.43-.138.524.166.98.661.993.102.003.239-.009.305-.027.083-.022.521-.431 1.43-1.338L19 13.062l1.31 1.306c.909.907 1.347 1.316 1.43 1.338.525.138.98-.166.993-.662a1.289 1.289 0 0 0-.027-.304c-.022-.083-.431-.521-1.338-1.43L20.062 12l1.306-1.31c.907-.909 1.316-1.347 1.338-1.43.138-.525-.166-.98-.662-.993a1.289 1.289 0 0 0-.304.027c-.083.022-.521.431-1.43 1.338l-1.311 1.307-1.289-1.285c-.71-.707-1.326-1.303-1.37-1.325-.092-.045-.38-.091-.44-.07" fill-rule="evenodd" fill="#000"/></svg>