<svg width="24" height="24" fill="none" xmlns="http://www.w3.org/2000/svg"><path d="M11.58 2.283c-.646.07-1.367.367-2.04.843-.516.365-1.245 1.112-2.162 2.214C6.1 6.876 5.797 7.142 5.098 7.336 3.507 7.777 2.61 8.557 2.335 9.74c-.068.289-.075.508-.075 2.26 0 1.752.007 1.971.075 2.26.275 1.183 1.172 1.963 2.763 2.404.699.194 1.002.46 2.28 1.996 1.273 1.531 2.011 2.211 2.862 2.639.842.424 1.819.559 2.287.318.508-.263.908-1.08 1.173-2.397.649-3.225.732-9.536.177-13.4-.244-1.697-.571-2.702-1.035-3.178-.329-.338-.641-.426-1.262-.359m.409 1.873c.391 1.104.65 3.288.739 6.254.118 3.907-.196 7.915-.74 9.434l-.135.376-.162-.007c-.242-.011-.694-.182-1.021-.386-.607-.379-1.097-.876-2.392-2.427-.946-1.133-1.461-1.61-2.058-1.909a7.02 7.02 0 0 0-.78-.29c-.9-.281-1.336-.561-1.548-.992l-.112-.229v-3.96l.112-.229c.212-.431.648-.711 1.548-.992a7.02 7.02 0 0 0 .78-.29c.597-.299 1.112-.776 2.058-1.909 1.268-1.519 1.749-2.011 2.332-2.389.308-.2.469-.274.81-.376.403-.119.416-.112.569.321m3.816 4.123c-.379.092-.618.496-.527.893.037.163.064.208.288.474.21.249.414.68.54 1.138.102.371.109.447.109 1.216 0 .767-.007.845-.108 1.213-.136.495-.34.91-.592 1.205-.215.252-.255.353-.248.626.007.28.151.502.413.638.14.072.514.064.666-.015.213-.11.611-.623.844-1.087.727-1.452.727-3.708 0-5.16-.224-.446-.63-.977-.824-1.076a.945.945 0 0 0-.561-.065" fill-rule="evenodd" fill="#000"/></svg>