<svg width="24" height="24" fill="none" xmlns="http://www.w3.org/2000/svg"><path d="M2.9 2.259a1.438 1.438 0 0 1-.147.037c-.138.031-.339.201-.419.355-.069.134-.089.424-.041.609.023.087 2.508 2.598 9.139 9.233 5.009 5.012 9.162 9.141 9.228 9.176.154.082.524.083.68.001a.847.847 0 0 0 .339-.345c.058-.112.072-.414.028-.585-.023-.087-2.508-2.598-9.139-9.233C7.559 6.495 3.415 2.371 3.36 2.342c-.105-.055-.392-.107-.46-.083m8.86.007c-1.001.074-1.927.531-2.903 1.432-.501.462-.59.598-.59.894 0 .345.151.576.462.706.342.143.545.064 1.045-.406.473-.446.867-.737 1.212-.896.281-.129.746-.255.827-.224.082.031.328.817.446 1.428.146.755.286 1.901.359 2.96.079 1.124.077 1.111.226 1.292.272.33.662.383 1.023.139.187-.127.293-.362.293-.654 0-.408-.117-1.802-.222-2.646-.183-1.468-.409-2.436-.716-3.071-.357-.739-.766-1.005-1.462-.954M4.44 7.551c-.961.387-1.55.89-1.904 1.625-.265.549-.276.661-.276 2.824 0 1.752.007 1.971.075 2.26.275 1.183 1.172 1.963 2.763 2.404.699.194 1.002.46 2.28 1.996 1.533 1.844 2.396 2.556 3.528 2.913.403.127 1.037.197 1.313.144.87-.166 1.38-1.345 1.719-3.975.084-.651.08-.91-.017-1.1-.221-.433-.859-.517-1.186-.156-.153.169-.18.271-.278 1.044-.125.98-.299 1.838-.469 2.314l-.135.376-.162-.007c-.242-.011-.694-.182-1.021-.386-.607-.379-1.097-.876-2.392-2.427-.946-1.133-1.461-1.61-2.058-1.909a7.02 7.02 0 0 0-.78-.29c-.9-.281-1.336-.561-1.548-.992l-.112-.229v-3.96l.108-.22c.06-.122.168-.278.24-.348.183-.176.549-.389.887-.516.4-.15.514-.227.625-.424.191-.338.11-.706-.211-.965-.237-.192-.505-.191-.989.004" fill-rule="evenodd" fill="#000"/></svg>