<svg width="24" height="24" fill="none" xmlns="http://www.w3.org/2000/svg"><path d="M11.805 2.279a.73.73 0 0 0-.527.544c-.02.086-.037.296-.037.465-.002.719-.214 1.802-.504 2.577a8.037 8.037 0 0 1-1.914 2.958c-.701.7-1.302 1.135-2.166 1.568-1.03.516-2.046.777-3.298.847-.611.034-.742.07-.904.248-.142.157-.188.283-.188.514 0 .231.046.357.188.514.163.179.294.216.904.248 1.494.08 2.777.477 4.007 1.239a8.679 8.679 0 0 1 2.633 2.633c.763 1.231 1.154 2.497 1.239 4.008.018.323.055.628.082.681.141.273.368.41.68.41a.711.711 0 0 0 .68-.411c.029-.054.064-.352.082-.68.08-1.495.476-2.778 1.239-4.008a8.679 8.679 0 0 1 2.633-2.633c1.23-.762 2.513-1.159 4.007-1.239.61-.032.741-.069.904-.248.142-.157.188-.283.188-.514a.713.713 0 0 0-.41-.68c-.053-.027-.358-.064-.681-.082-1.511-.085-2.777-.476-4.008-1.239a8.679 8.679 0 0 1-2.633-2.633c-.763-1.23-1.159-2.513-1.239-4.008-.031-.587-.059-.697-.217-.872-.167-.185-.476-.271-.74-.207m.391 4.9c.434.947 1.092 1.873 1.922 2.703.83.83 1.756 1.488 2.703 1.922.208.096.379.184.379.196 0 .012-.171.1-.379.196-.947.434-1.873 1.092-2.703 1.922-.83.83-1.488 1.756-1.922 2.703-.096.208-.184.379-.196.379-.012 0-.1-.171-.196-.379-.434-.947-1.091-1.87-1.923-2.702-.832-.832-1.755-1.489-2.702-1.923C6.971 12.1 6.8 12.012 6.8 12c0-.012.171-.1.379-.196.947-.434 1.87-1.091 2.702-1.923.832-.832 1.489-1.755 1.923-2.702.096-.208.184-.379.196-.379.012 0 .1.171.196.379" fill-rule="evenodd" fill="#000"/></svg>