<svg width="24" height="24" fill="none" xmlns="http://www.w3.org/2000/svg"><path d="M11.7 2.284c-.499.072-1.059.448-1.305.876-.057.099-.461.979-.898 1.955-.582 1.3-.82 1.791-.891 1.838-.076.049-.569.1-2.281.232-1.202.093-2.307.187-2.455.208a1.9 1.9 0 0 0-1.589 2.16c.084.547.166.659 1.977 2.7.914 1.03 1.68 1.906 1.702 1.947.022.041.04.12.04.175 0 .056-.226 1.016-.502 2.133-.499 2.018-.502 2.035-.489 2.436.012.373.024.426.164.711.375.757 1.166 1.187 1.968 1.068.248-.037.531-.168 2.569-1.192L12 18.38l2.29 1.151c2.553 1.283 2.552 1.283 3.121 1.187A1.879 1.879 0 0 0 19 18.863c0-.281-.068-.6-.5-2.356-.275-1.117-.5-2.076-.5-2.132a.45.45 0 0 1 .04-.176c.023-.041.789-.917 1.703-1.947 1.372-1.546 1.685-1.921 1.799-2.152a1.902 1.902 0 0 0-.059-1.794 1.98 1.98 0 0 0-1.284-.904c-.121-.021-1.209-.113-2.419-.205-1.681-.127-2.233-.182-2.339-.232-.134-.062-.175-.144-.927-1.825a84.191 84.191 0 0 0-.889-1.943c-.365-.657-1.141-1.025-1.925-.913m.535 1.546c.048.039.438.859.89 1.87.442.99.869 1.897.947 2.015.251.378.712.674 1.188.762.132.024 1.185.115 2.34.203 1.155.087 2.176.169 2.268.182a.417.417 0 0 1 .345.563c-.015.039-.781.918-1.702 1.953-1.381 1.552-1.698 1.931-1.812 2.162a1.905 1.905 0 0 0-.182 1.082c.019.134.253 1.126.519 2.205.266 1.079.484 2.01.484 2.07 0 .156-.198.343-.363.343-.089 0-.812-.345-2.353-1.123-2.009-1.015-2.252-1.128-2.514-1.167a1.792 1.792 0 0 0-.58-.001c-.262.04-.504.152-2.514 1.168-1.54.777-2.264 1.123-2.353 1.123-.168 0-.363-.187-.363-.347 0-.062.217-.986.481-2.053s.498-2.057.518-2.2a1.874 1.874 0 0 0-.178-1.1c-.114-.231-.439-.618-1.84-2.194C3.849 9.532 3.76 9.425 3.76 9.279c0-.218.151-.388.372-.417.092-.013 1.113-.095 2.268-.182 1.155-.088 2.208-.179 2.34-.203a1.923 1.923 0 0 0 1.329-.999c.07-.142.462-1.005.87-1.918.413-.924.779-1.691.826-1.73A.422.422 0 0 1 12 3.76c.085 0 .188.031.235.07" fill-rule="evenodd" fill="#000"/></svg>