<svg width="24" height="24" viewBox="0 0 24 24" fill="none" xmlns="http://www.w3.org/2000/svg">
<path d="M11.6893 3C12.553 3.45346 13.1403 3.99679 13 5C12.5879 7.94606 11.0988 11.6561 8.6815 12.8414C8.46545 12.9473 8.2321 13.0002 7.99878 13M4.31067 3C3.44702 3.45346 2.85971 3.99679 3.00003 5C3.41209 7.94606 4.90118 11.6561 7.31849 12.8414C7.53379 12.9469 7.76627 12.9998 7.99878 13M19 17C20.1046 17 21 17.8954 21 19C21 20.1046 20.1046 21 19 21C17.8954 21 17 20.1046 17 19C17 17.8954 17.8954 17 19 17ZM19 17V15.5C19 14.837 18.7366 14.2011 18.2678 13.7322C17.7989 13.2634 17.163 13 16.5 13C15.837 13 15.2011 13.2634 14.7322 13.7322C14.2634 14.2011 14 14.837 14 15.5V17C14 17.7956 13.6839 18.5587 13.1213 19.1213C12.5587 19.6839 11.7956 20 11 20C10.2043 20 9.44128 19.6839 8.87868 19.1213C8.31607 18.5587 8 17.7956 8 17L7.99878 13" stroke="#001A72" stroke-width="1.5" stroke-linecap="round" stroke-linejoin="round"/>
</svg>
