<svg width="24" height="24" fill="none" xmlns="http://www.w3.org/2000/svg"><path d="M11.16 5.265c-.742.019-1.811.093-2.52.175-1.383.161-2.173.384-2.495.705-.547.548-.873 2.735-.874 5.855 0 3.11.328 5.308.874 5.855.547.546 2.739.874 5.855.874 3.116 0 5.308-.328 5.855-.874.546-.547.874-2.739.874-5.855 0-3.115-.328-5.308-.874-5.854-.322-.322-1.113-.546-2.495-.705-1.156-.134-2.929-.208-4.2-.176m2.68 1.537c1.2.076 2.657.279 2.885.401.086.046.131.196.234.777.189 1.068.281 2.384.281 4.02 0 1.636-.092 2.952-.281 4.02-.103.581-.148.731-.234.777-.228.122-1.685.325-2.885.401-.849.054-2.831.054-3.68 0-1.2-.076-2.657-.279-2.885-.401-.086-.046-.131-.196-.234-.777a21.582 21.582 0 0 1-.24-2.199c-.053-.83-.052-2.819.001-3.661.076-1.2.279-2.657.401-2.885.021-.039.105-.091.187-.114.452-.127 1.691-.292 2.69-.357.746-.049 3.007-.05 3.76-.002" fill-rule="evenodd" fill="#000"/></svg>