<svg width="24" height="24" fill="none" xmlns="http://www.w3.org/2000/svg"><path d="M11.36 2.279c-1.131.083-1.893.366-2.421.898-.459.461-.629.903-.683 1.774-.025.415-.034.452-.112.468-.046.009-.426.055-.844.101-1.718.191-2.545.397-2.919.724-.199.174-.456.717-.595 1.256-.731 2.83-.677 8.956.1 11.34.19.582.414.911.742 1.09.893.486 3.773.797 7.372.797 3.046 0 5.53-.214 6.822-.589.627-.181.866-.359 1.094-.81.747-1.484 1.052-6.377.622-9.968-.193-1.603-.478-2.621-.855-3.051-.317-.361-1.174-.587-2.983-.789a28.763 28.763 0 0 1-.844-.101c-.078-.016-.087-.053-.112-.468-.054-.872-.225-1.315-.683-1.773-.31-.311-.651-.51-1.147-.672-.596-.195-1.68-.291-2.554-.227m1.547 1.524c.634.088 1.019.277 1.204.592.089.153.109.24.123.558l.016.377-.235-.029c-.305-.038-3.725-.038-4.03 0l-.235.029.016-.377c.014-.316.034-.406.122-.555.177-.302.49-.471 1.066-.575.373-.068 1.522-.079 1.953-.02m2.033 3.034c1.652.137 3.526.412 3.646.535.193.198.554 2.345.584 3.471.01.365.004.392-.111.579-.563.912-2.9 1.637-5.805 1.8l-.486.028-.015-.735c-.015-.763-.028-.831-.208-1.029-.136-.15-.308-.219-.545-.219-.237 0-.409.069-.545.219-.18.198-.193.266-.208 1.029l-.015.735-.486-.028c-1.604-.09-3.107-.361-4.188-.754-.964-.35-1.606-.818-1.714-1.249-.127-.504.332-3.602.57-3.847.164-.169 2.611-.48 4.626-.588.553-.029 4.407.012 4.9.053m-9.211 6.919c1.287.523 3.09.871 4.937.951l.567.025.014.744c.015.773.028.839.208 1.038.136.15.308.219.545.219.237 0 .409-.069.545-.219.18-.199.193-.265.208-1.038l.014-.744.567-.025c2.221-.096 4.36-.58 5.619-1.272l.3-.164-.027.874c-.051 1.67-.283 3.506-.538 4.255-.089.262-.136.291-.653.397-1.306.267-2.971.4-5.375.431-1.942.024-3.203-.017-4.64-.151-1.346-.127-2.486-.322-2.606-.448-.067-.07-.198-.52-.29-.998-.182-.948-.312-2.235-.35-3.486l-.027-.874.3.164c.165.091.472.235.682.321" fill-rule="evenodd" fill="#000"/></svg>