<svg width="24" height="24" viewBox="0 0 24 24" fill="none" xmlns="http://www.w3.org/2000/svg">
<path d="M5.39911 18.7128L5.34322 18.6569M5.39911 18.7128L5.28704 18.6007M5.39911 18.7128C6.15797 19.4716 7.38051 19.4963 8.16935 18.7687L8.96438 18.0353M5.34322 18.6569L5.28704 18.6007M5.34322 18.6569L3.22194 20.7782M5.28704 18.6007C4.52827 17.8419 4.50351 16.6196 5.23094 15.8307L5.96438 15.0353M8.96438 18.0353L5.96438 15.0353M8.96438 18.0353C9.30763 18.3786 9.86416 18.3786 10.2074 18.0353L17.3641 10.8787C18.1451 10.0976 18.1451 8.83128 17.3641 8.05023L15.9499 6.63602C15.1688 5.85497 13.9025 5.85497 13.1214 6.63602L5.96439 13.7931C5.62135 14.1361 5.62134 14.6923 5.96438 15.0353M18.7781 5.22186L16.6567 7.34318M18.7781 5.22186L16.6567 3.10052M18.7781 5.22186L20.8994 7.34317" stroke="#001A72" stroke-width="1.5" stroke-linecap="round" stroke-linejoin="round"/>
</svg>
