<svg width="24" height="24" fill="none" xmlns="http://www.w3.org/2000/svg"><path d="M8.453 5.283a2.624 2.624 0 0 0-1.005.34c-.227.125-.613.492-2.501 2.372-1.503 1.499-2.288 2.31-2.404 2.485a2.746 2.746 0 0 0 0 3.04c.116.176.902.987 2.424 2.504l2.253 2.243.38.184c.209.101.488.207.62.236.192.042 1.332.053 5.72.053 5.106 0 5.498-.005 5.74-.07a2.838 2.838 0 0 0 1.99-1.99c.065-.241.07-.586.07-4.68 0-4.094-.005-4.439-.07-4.68a2.838 2.838 0 0 0-1.45-1.781c-.605-.298-.149-.276-6.12-.284-2.948-.003-5.489.009-5.647.028m11.001 1.558c.29.109.596.415.705.705.08.213.081.294.081 4.454s-.001 4.241-.081 4.454a1.336 1.336 0 0 1-.707.705c-.216.081-.265.082-5.605.072L8.46 17.22l-.203-.113c-.279-.154-4.412-4.292-4.536-4.542a1.335 1.335 0 0 1-.017-1.113c.076-.168 4.217-4.354 4.451-4.501.313-.195.093-.187 5.753-.189 5.259-.002 5.332-.001 5.546.079M9 9.803c-.099.02-.324.107-.5.194a2.31 2.31 0 0 0-1.144 1.32c-.116.367-.116.999 0 1.366A2.303 2.303 0 0 0 8.5 14.002c1.05.519 2.256.179 2.907-.819.233-.358.321-.681.321-1.183 0-.679-.2-1.149-.692-1.632-.249-.245-.745-.508-1.071-.568A3.285 3.285 0 0 0 9 9.803m.78 1.513c.295.137.46.381.46.684a.894.894 0 0 1-.043.267c-.093.249-.438.491-.697.491-.295 0-.671-.301-.723-.58-.069-.366.08-.678.401-.839.235-.118.385-.123.602-.023" fill-rule="evenodd" fill="#000"/></svg>