<svg width="24" height="24" viewBox="0 0 24 24" fill="none" xmlns="http://www.w3.org/2000/svg">
<path d="M11 12C11 12.8284 10.3284 13.5 9.5 13.5C8.67157 13.5 8 12.8284 8 12C8 11.1716 8.67157 10.5 9.5 10.5C10.3284 10.5 11 11.1716 11 12Z" stroke="#001A72" stroke-width="1.5" stroke-linecap="round" stroke-linejoin="round"/>
<path d="M21 16V8C21 6.89543 20.1046 6 19 6H8.82843C8.298 6 7.78929 6.21071 7.41422 6.58579L3.41422 10.5858C2.63317 11.3668 2.63317 12.6332 3.41422 13.4142L7.41422 17.4142C7.78929 17.7893 8.298 18 8.82843 18H19C20.1046 18 21 17.1046 21 16Z" stroke="#001A72" stroke-width="1.5" stroke-linecap="round" stroke-linejoin="round"/>
</svg>
