<svg width="24" height="24" viewBox="0 0 24 24" fill="none" xmlns="http://www.w3.org/2000/svg">
<path d="M11.108 17.1674L11.1072 17.1667M11.1072 17.1667L9.15685 15.228M11.1072 17.1667L13.5763 14.6976M11.1072 17.1667L9.77254 18.5014C9.60341 18.6705 9.37912 18.7729 9.14078 18.793C7.38596 18.9413 6.33532 19.1498 4.56066 19.4706M13.577 14.6984L13.5763 14.6976M13.5763 14.6976L11.6317 12.7531M13.5763 14.6976L16.0511 12.2228M16.0519 12.2235L16.0511 12.2228M16.0511 12.2228L14.1066 10.2782M16.0511 12.2228L18.526 9.74788M18.5268 9.74866L18.526 9.74788M18.526 9.74788L16.5815 7.80334M18.526 9.74788L19.4099 8.864C20.5815 7.69242 20.5815 5.79293 19.4099 4.62136C18.2383 3.44978 16.3388 3.44978 15.1673 4.62136L5.5299 14.2587C5.36077 14.4278 5.25837 14.6521 5.23823 14.8905C5.08994 16.6453 4.88145 17.6959 4.56066 19.4706M4.56066 19.4706L3.5 20.5313" stroke="#001A72" stroke-width="1.5" stroke-linecap="round" stroke-linejoin="round"/>
</svg>
