<svg width="24" height="24" fill="none" xmlns="http://www.w3.org/2000/svg"><path d="M6.634 3.28c-1.571.151-2.746 1.389-3.188 3.36-.105.468-.123.605-.165 1.265-.038.596 0 1.513.082 2.007.118.707.246 1.119.758 2.428.418 1.07.651 1.773.716 2.16.059.356.111.898.223 2.319.111 1.404.211 2.176.356 2.751.298 1.175.819 1.879 1.552 2.096.244.072.745.081.98.018.251-.068.646-.353.864-.624.388-.48.643-1.118 1.144-2.867.475-1.653.744-2.351 1.1-2.85.289-.404.578-.583.944-.583s.655.179.944.583c.356.499.599 1.127 1.08 2.79.529 1.828.774 2.444 1.164 2.927.218.271.613.556.864.624.235.063.736.054.98-.018.73-.217 1.255-.926 1.552-2.097.15-.592.245-1.35.376-2.986.066-.834.148-1.703.182-1.93.076-.51.292-1.194.698-2.213.731-1.833.884-2.51.888-3.94.004-1.3-.202-2.333-.638-3.2-.75-1.489-1.935-2.153-3.602-2.017-.607.049-.969.138-2.028.498-1.097.372-1.563.459-2.46.459s-1.363-.087-2.46-.459a18.843 18.843 0 0 0-1.223-.38c-.285-.067-1.195-.172-1.337-.155l-.346.034m1.157 1.543c.185.035.7.187 1.143.338 1.4.477 1.88.566 3.066.566 1.187 0 1.665-.089 3.069-.567.993-.338 1.387-.417 1.965-.391.5.023.744.103 1.047.344.53.422.901 1.164 1.084 2.167.036.197.055.609.054 1.2 0 1.303-.087 1.69-.744 3.333-.378.944-.645 1.731-.732 2.158-.089.433-.168 1.15-.263 2.389-.179 2.34-.389 3.393-.75 3.77-.352.368-.6-.107-1.272-2.433a41.636 41.636 0 0 0-.459-1.513c-.514-1.457-1.115-2.288-1.939-2.681-.366-.175-.628-.233-1.06-.233-.432 0-.693.058-1.066.234-.943.446-1.596 1.484-2.176 3.456-.547 1.865-.642 2.17-.798 2.565-.264.672-.462.846-.688.605-.368-.393-.567-1.389-.752-3.77-.098-1.258-.176-1.965-.263-2.389-.082-.401-.361-1.236-.658-1.97-.748-1.851-.871-2.419-.827-3.81.032-.996.151-1.555.472-2.205.225-.455.579-.866.892-1.035.358-.193 1.03-.245 1.655-.128" fill-rule="evenodd" fill="#000"/></svg>