<svg width="24" height="24" viewBox="0 0 24 24" fill="none" xmlns="http://www.w3.org/2000/svg">
<path d="M9.19807 4.45825C8.55418 4.22291 7.94427 4 7 4C5 4 4 6 4 8.5C4 10.0985 4.40885 11.0838 4.83441 12.1093C5.0744 12.6877 5.31971 13.2788 5.5 14C5.649 14.596 5.7092 15.4584 5.77321 16.3755C5.92401 18.536 6.096 21 7.5 21C8.39898 21 8.79286 19.5857 9.22652 18.0286C9.75765 16.1214 10.3485 14 12 14C13.6515 14 14.2423 16.1214 14.7735 18.0286C15.2071 19.5857 15.601 21 16.5 21C17.904 21 18.076 18.536 18.2268 16.3755C18.2908 15.4584 18.351 14.596 18.5 14C18.6803 13.2788 18.9256 12.6877 19.1656 12.1093C19.5912 11.0838 20 10.0985 20 8.5C20 6 19 4 17 4C16.0557 4 15.4458 4.22291 14.8019 4.45825C14.082 4.72136 13.3197 5 12 5C10.6803 5 9.91796 4.72136 9.19807 4.45825Z" stroke="#001A72" stroke-width="1.5" stroke-linecap="round" stroke-linejoin="round"/>
</svg>
