<svg width="24" height="24" fill="none" xmlns="http://www.w3.org/2000/svg"><path d="M11.36 2.279c-1.621.119-2.605.703-2.959 1.757a4.117 4.117 0 0 0-.13.729l-.043.472-2.224.011c-2.418.013-2.338.006-2.549.238-.142.157-.188.283-.188.514 0 .231.046.357.188.514.184.202.276.223 1.061.239l.736.015-.026.826c-.062 1.944-.076 4.362-.03 5.159.123 2.131.436 3.554 1.053 4.787.582 1.164 1.383 1.974 2.491 2.519.988.486 1.879.669 3.26.669 1.381 0 2.272-.183 3.26-.669a5.137 5.137 0 0 0 2.048-1.765c.787-1.149 1.227-2.588 1.437-4.694.08-.805.098-3.244.042-5.506l-.034-1.326.734-.015c.782-.016.874-.037 1.058-.239.142-.157.188-.283.188-.514 0-.231-.046-.357-.188-.514-.211-.232-.131-.225-2.549-.238l-2.224-.011-.043-.472a4.117 4.117 0 0 0-.13-.729c-.311-.925-1.132-1.503-2.404-1.691a9.59 9.59 0 0 0-1.835-.066m1.547 1.524c.633.088 1.019.277 1.203.591.084.143.108.245.123.512l.017.334h-4.5l.017-.334c.014-.266.039-.369.122-.51.176-.3.491-.469 1.065-.573.373-.068 1.522-.079 1.953-.02m4.372 3.307c0 .193.021 1.232.046 2.31.065 2.755-.007 4.151-.285 5.54-.28 1.396-.744 2.364-1.477 3.08-.84.821-1.966 1.2-3.563 1.2-1.597 0-2.723-.379-3.563-1.2-.733-.716-1.197-1.684-1.477-3.08-.28-1.397-.351-2.766-.286-5.54.026-1.1.047-2.149.047-2.33l-.001-.33h10.56l-.001.35M9.696 8.817c-.267.116-.464.462-.632 1.112-.408 1.577-.408 3.563-.001 5.138.22.85.478 1.173.937 1.173a.688.688 0 0 0 .548-.253c.114-.129.211-.358.212-.498a2.48 2.48 0 0 0-.101-.34c-.295-.84-.395-1.511-.395-2.649 0-1.138.1-1.809.395-2.649.115-.329.116-.337.059-.542-.053-.188-.255-.424-.426-.495a.884.884 0 0 0-.596.003m4.003-.001c-.227.099-.458.448-.459.695 0 .028.046.181.101.34.295.84.395 1.511.395 2.649 0 1.138-.1 1.809-.395 2.649-.115.329-.116.337-.059.542.053.188.255.424.426.495a.751.751 0 0 0 .82-.171c.395-.421.71-1.979.71-3.515s-.315-3.094-.71-3.515a.763.763 0 0 0-.829-.169" fill-rule="evenodd" fill="#000"/></svg>