<svg width="24" height="24" fill="none" xmlns="http://www.w3.org/2000/svg"><path d="M14.805 6.279c-.733.177-.72 1.272.018 1.443.086.02 1.102.037 2.257.037l2.1.001-2.7 2.702c-3.034 3.035-2.928 2.945-3.475 2.945-.482 0-.618-.087-1.523-.984-.43-.425-.881-.836-1.002-.912a2.794 2.794 0 0 0-2.96-.001c-.251.157-5.086 4.955-5.189 5.15-.082.154-.083.524-.001.68.07.135.204.266.345.339.112.058.415.072.585.027.085-.022.833-.742 2.58-2.482 2.742-2.732 2.62-2.631 3.164-2.631.472 0 .613.091 1.514.984.43.425.881.836 1.002.912a2.794 2.794 0 0 0 2.96.001c.141-.088 1.214-1.13 2.988-2.902l2.769-2.764.011 2.198c.011 1.956.019 2.211.078 2.318a.89.89 0 0 0 .354.342c.14.072.514.064.665-.014.153-.08.325-.277.365-.421.039-.14.039-6.354 0-6.494-.04-.142-.21-.34-.365-.424-.115-.063-.382-.07-3.265-.075-1.727-.004-3.201.008-3.275.025" fill-rule="evenodd" fill="#000"/></svg>