<svg width="24" height="24" viewBox="0 0 24 24" fill="none" xmlns="http://www.w3.org/2000/svg">
<path d="M12 12V21M12 4C14.1217 4 16.1566 4.84285 17.6569 6.34315C18.9656 7.65184 19.774 9.36728 19.9592 11.1923C19.9967 11.5621 19.6088 11.8044 19.2764 11.6382L18.2236 11.1118C18.0828 11.0414 17.9172 11.0414 17.7764 11.1118L16.2236 11.8882C16.0828 11.9586 15.9172 11.9586 15.7764 11.8882L14.2236 11.1118C14.0828 11.0414 13.9172 11.0414 13.7764 11.1118L12.2236 11.8882C12.0828 11.9586 11.9172 11.9586 11.7764 11.8882L10.2236 11.1118C10.0828 11.0414 9.91716 11.0414 9.7764 11.1118L8.22361 11.8882C8.08285 11.9586 7.91716 11.9586 7.7764 11.8882L6.22361 11.1118C6.08285 11.0414 5.91716 11.0414 5.7764 11.1118L4.72361 11.6382C4.39116 11.8044 4.00334 11.5621 4.04085 11.1923C4.226 9.36727 5.03445 7.65184 6.34315 6.34315C7.84344 4.84285 9.87827 4 12 4ZM12 4L12 3" stroke="#001A72" stroke-width="1.5" stroke-linecap="round" stroke-linejoin="round"/>
</svg>
