<svg width="24" height="24" fill="none" xmlns="http://www.w3.org/2000/svg"><path d="M11.9 2.259a1.438 1.438 0 0 1-.147.037c-.137.031-.339.2-.416.35a1.319 1.319 0 0 0-.084.374l-.024.257-.185.025c-1.158.156-1.991.404-2.944.877a8.803 8.803 0 0 0-3.548 3.229c-.48.773-.976 2.017-1.068 2.683a2.244 2.244 0 0 0 .749 1.991c.244.219.815.518 1.147.601.147.037.95.054 3.029.066l2.829.015.011 4.228c.012 4.521.002 4.296.206 4.522.136.15.308.219.545.219.237 0 .409-.069.545-.219.204-.226.194-.001.206-4.522l.011-4.228 2.829-.015c2.079-.012 2.882-.029 3.029-.066.332-.083.903-.382 1.147-.601a2.233 2.233 0 0 0 .749-1.978c-.082-.648-.585-1.918-1.068-2.696A8.806 8.806 0 0 0 15.9 4.179c-.965-.476-1.787-.721-2.944-.877l-.185-.025-.024-.258c-.033-.35-.15-.556-.387-.678-.106-.055-.393-.106-.46-.082m1.191 2.58c2.34.375 4.351 1.834 5.379 3.901.323.65.57 1.374.57 1.672 0 .305-.249.621-.589.748-.211.079-.314.08-6.451.08s-6.24-.001-6.451-.08c-.341-.128-.589-.443-.589-.75 0-.085.042-.297.093-.472.71-2.424 2.668-4.308 5.152-4.96a7.617 7.617 0 0 1 2.886-.139" fill-rule="evenodd" fill="#000"/></svg>