<svg width="24" height="24" fill="none" xmlns="http://www.w3.org/2000/svg"><path d="M11.32 2.28c-1.879.127-3.672.802-5.236 1.972-.493.368-1.464 1.339-1.832 1.832a9.794 9.794 0 0 0-1.895 4.524 10.9 10.9 0 0 0 0 2.784 9.794 9.794 0 0 0 1.895 4.524c.368.493 1.339 1.464 1.832 1.832a9.768 9.768 0 0 0 4.524 1.894 10.32 10.32 0 0 0 3.804-.2 9.913 9.913 0 0 0 3.504-1.694c.493-.369 1.463-1.339 1.832-1.832a9.763 9.763 0 0 0 1.894-4.524 10.9 10.9 0 0 0 0-2.784 9.763 9.763 0 0 0-1.894-4.524c-.369-.493-1.339-1.463-1.832-1.832-1.13-.846-2.524-1.495-3.796-1.766a10.872 10.872 0 0 0-2.8-.206m1.86 1.558a8.233 8.233 0 0 1 3.829 1.607c.425.321 1.225 1.121 1.546 1.546 1.922 2.544 2.231 5.914.802 8.729-.222.437-.598 1.041-.81 1.298l-.097.119-.09-.179c-.731-1.442-2.405-2.349-4.84-2.622-.776-.087-2.264-.087-3.04 0-2.39.268-4.016 1.126-4.784 2.523l-.15.273-.095-.116c-.381-.463-.93-1.456-1.185-2.141-.786-2.11-.658-4.532.343-6.532.433-.864.868-1.465 1.568-2.166.879-.878 1.824-1.491 2.948-1.911a8.455 8.455 0 0 1 4.055-.428m-1.585 1.444a3.765 3.765 0 0 0-2.564 1.437c-.238.313-.563.968-.649 1.306a4.254 4.254 0 0 0 0 1.95c.086.338.411.993.649 1.306.366.482.817.837 1.421 1.119.398.186.702.268 1.183.317a3.648 3.648 0 0 0 1.913-.317c.855-.399 1.406-.94 1.813-1.78a3.21 3.21 0 0 0 .356-1.255 3.648 3.648 0 0 0-.317-1.913c-.44-.942-1.128-1.585-2.107-1.967-.441-.173-1.171-.26-1.698-.203m.979 1.541c.376.097.697.287 1.006.597.456.456.66.944.66 1.58 0 .636-.204 1.124-.66 1.58-.456.456-.944.66-1.58.66-.636 0-1.124-.204-1.58-.66-.456-.456-.66-.944-.66-1.58 0-.636.204-1.124.66-1.58.459-.458.916-.652 1.554-.657.203-.002.46.024.6.06m1.126 9.035c2.068.335 3.166 1.048 3.479 2.257.036.141.051.269.034.284-.34.293-.998.713-1.556.992a8.268 8.268 0 0 1-7.314 0c-.558-.279-1.216-.699-1.556-.992-.044-.038.077-.49.201-.752.136-.289.448-.654.746-.876.596-.443 1.627-.794 2.726-.928l.48-.06c.32-.042 2.38.013 2.76.075" fill-rule="evenodd" fill="#000"/></svg>