<svg width="24" height="24" viewBox="0 0 24 24" fill="none" xmlns="http://www.w3.org/2000/svg">
<path d="M20.5 21C21.8807 21 23 19.8807 23 18.5C23 16.1726 21.0482 15.1988 19 14.7917M15 11C17.2091 11 19 9.20914 19 7C19 4.79086 17.2091 3 15 3M3.5 21.0001H14.5C15.8807 21.0001 17 19.8808 17 18.5001C17 14.4194 11 14.5001 9 14.5001C7 14.5001 1 14.4194 1 18.5001C1 19.8808 2.11929 21.0001 3.5 21.0001ZM13 7C13 9.20914 11.2091 11 9 11C6.79086 11 5 9.20914 5 7C5 4.79086 6.79086 3 9 3C11.2091 3 13 4.79086 13 7Z" stroke="#001A72" stroke-width="1.5" stroke-linecap="round" stroke-linejoin="round"/>
</svg>
