<svg width="24" height="24" fill="none" xmlns="http://www.w3.org/2000/svg"><path d="M11.544 2.283c-1.97.174-3.645 1.614-4.145 3.562-.222.868-.158 1.997.161 2.828a4.796 4.796 0 0 0 3.285 2.928c.672.172 1.638.172 2.31 0a4.796 4.796 0 0 0 3.285-2.928c.389-1.014.389-2.332 0-3.346a4.797 4.797 0 0 0-3.284-2.928c-.244-.062-1.152-.175-1.236-.153-.011.003-.18.019-.376.037m1.111 1.535c.643.123 1.098.376 1.625.902.677.677.96 1.349.96 2.28 0 .931-.283 1.603-.96 2.28-.677.677-1.349.96-2.28.96-.931 0-1.603-.283-2.28-.96-.682-.682-.96-1.348-.96-2.301 0-.912.286-1.585.96-2.259.515-.515.98-.777 1.594-.9.36-.071.974-.072 1.341-.002M9.92 13.803c-2.075.132-3.742.587-4.84 1.322-.641.429-1.048.871-1.394 1.515-.411.765-.543 1.984-.303 2.8.035.121.148.382.25.58.152.293.261.435.587.762.354.356.449.426.82.611.749.374.21.347 6.96.347s6.211.027 6.96-.347c.371-.185.466-.255.82-.611.326-.327.435-.469.587-.762.322-.622.421-1.175.349-1.948-.115-1.225-.685-2.183-1.732-2.907-1.114-.77-2.786-1.226-5.004-1.365-.734-.046-3.317-.044-4.06.003m3.8 1.478c2.854.162 4.616.835 5.238 2.001.256.481.357 1.247.223 1.69a1.796 1.796 0 0 1-1.216 1.211c-.282.086-11.655.084-11.937-.002a1.796 1.796 0 0 1-1.211-1.216c-.132-.436-.029-1.205.225-1.683.611-1.147 2.399-1.842 5.143-1.998a44.813 44.813 0 0 1 3.535-.003" fill-rule="evenodd" fill="#000"/></svg>