<svg width="24" height="24" viewBox="0 0 24 24" fill="none" xmlns="http://www.w3.org/2000/svg">
<path d="M19 14C21.2091 14 23 16 23 17.5C23 18.3284 22.3284 19 21.5 19H21M17 11C18.6569 11 20 9.65685 20 8C20 6.34315 18.6569 5 17 5M5 14C2.79086 14 1 16 1 17.5C1 18.3284 1.67157 19 2.5 19H3M7 11C5.34315 11 4 9.65685 4 8C4 6.34315 5.34315 5 7 5M16.5 19H7.5C6.67157 19 6 18.3284 6 17.5C6 15 9 14 12 14C15 14 18 15 18 17.5C18 18.3284 17.3284 19 16.5 19ZM15 8C15 9.65685 13.6569 11 12 11C10.3431 11 9 9.65685 9 8C9 6.34315 10.3431 5 12 5C13.6569 5 15 6.34315 15 8Z" stroke="#001A72" stroke-width="1.5" stroke-linecap="round" stroke-linejoin="round"/>
</svg>
