<svg width="24" height="24" viewBox="0 0 24 24" fill="none" xmlns="http://www.w3.org/2000/svg">
<path d="M17.5 21.0001H6.5C5.11929 21.0001 4 19.8808 4 18.5001C4 14.4194 10 14.5001 12 14.5001C14 14.5001 20 14.4194 20 18.5001C20 19.8808 18.8807 21.0001 17.5 21.0001Z" stroke="#001A72" stroke-width="1.5" stroke-linecap="round" stroke-linejoin="round"/>
<path d="M12 11C14.2091 11 16 9.20914 16 7C16 4.79086 14.2091 3 12 3C9.79086 3 8 4.79086 8 7C8 9.20914 9.79086 11 12 11Z" stroke="#001A72" stroke-width="1.5" stroke-linecap="round" stroke-linejoin="round"/>
<path d="M20.3658 9.08576L20.2171 8.94126C19.9736 8.70446 19.6432 8.57143 19.2988 8.57143C18.5714 8.57143 18 9.10714 18 10.102C18 11.7857 20.5714 12.8571 20.5714 12.8571C20.5714 12.8571 23.1429 11.7857 23.1429 10.102C23.1429 9.10714 22.5614 8.57143 21.8441 8.57143C21.4996 8.57143 21.1693 8.70446 20.9257 8.94126L20.7771 9.08576C20.6647 9.19499 20.4781 9.19499 20.3658 9.08576Z" stroke="#001A72" stroke-width="1.5" stroke-linecap="round" stroke-linejoin="round"/>
</svg>
