<svg width="24" height="24" viewBox="0 0 24 24" fill="none" xmlns="http://www.w3.org/2000/svg">
<path d="M8.49994 5.93777L7.24994 3.77271M5.93783 8.5L3.77277 7.25M5 12H2.5M5 12C5 15.866 8.13401 19 12 19M5 12C5 8.13401 8.13401 5 12 5M5.93777 15.5L3.77271 16.75M8.49994 18.0623L7.24994 20.2273M12 21.5V19M12 19C15.866 19 19 15.866 19 12M16.7501 20.2273L15.5001 18.0623M20.2273 16.75L18.0622 15.5M21.5 12H19M19 12C19 8.13401 15.866 5 12 5M20.2273 7.25L18.0622 8.5M15 15V15.01M16.7501 3.77271L15.5001 5.93777M12 5V2.5M8 11V11.01M11 15C11 15.5523 10.5523 16 10 16C9.44772 16 9 15.5523 9 15C9 14.4477 9.44772 14 10 14C10.5523 14 11 14.4477 11 15ZM15 10C15 11.1046 14.1046 12 13 12C11.8954 12 11 11.1046 11 10C11 8.89543 11.8954 8 13 8C14.1046 8 15 8.89543 15 10Z" stroke="#001A72" stroke-width="1.5" stroke-linecap="round" stroke-linejoin="round"/>
</svg>
