<svg width="24" height="24" fill="none" xmlns="http://www.w3.org/2000/svg"><path d="M11.72 1.805c-.129.051-.309.223-.394.375-.055.101-.068.279-.079 1.11-.013.979-.014.99-.1 1.007-.048.01-.231.039-.407.064a7.775 7.775 0 0 0-1.509.406c-.361.135-.446.155-.476.109-.02-.031-.191-.326-.381-.656s-.405-.694-.478-.808c-.42-.659-1.376-.403-1.376.368 0 .213.03.277.57 1.213.22.381.385.706.365.723-.019.017-.17.14-.335.274-.338.274-.939.879-1.201 1.21-.095.121-.187.236-.204.256-.017.019-.342-.145-.723-.365-.935-.54-1-.571-1.208-.571a.747.747 0 0 0-.688.408c-.083.159-.071.487.026.675.091.179.187.247 1.098.771.33.19.625.361.656.381.046.03.026.115-.109.476a7.775 7.775 0 0 0-.406 1.509c-.025.176-.054.359-.064.407-.017.086-.028.087-1.007.1-1.077.014-1.112.021-1.337.259a.72.72 0 0 0 0 .988c.225.238.26.245 1.337.259.979.013.99.014 1.007.1.01.048.039.231.064.407.066.447.213.993.405 1.507.09.24.157.443.149.451-.008.008-.348.208-.755.444-.407.236-.79.464-.851.507-.16.113-.269.351-.269.591 0 .424.306.72.744.72.208 0 .273-.031 1.208-.571.381-.22.706-.384.723-.365.017.02.109.135.204.256.262.331.863.936 1.201 1.21.165.134.316.257.335.274.02.017-.145.342-.365.723-.538.933-.57 1-.57 1.209 0 .224.055.372.193.519a.765.765 0 0 0 .89.143c.179-.091.247-.187.771-1.098.19-.33.361-.625.381-.656.03-.046.115-.026.476.109.516.193 1.062.34 1.509.406.176.025.359.054.407.064.086.017.087.028.1 1.007.014 1.077.021 1.112.259 1.337a.667.667 0 0 0 .494.193.667.667 0 0 0 .494-.193c.238-.225.245-.26.259-1.337.013-.979.014-.99.1-1.007.048-.01.231-.039.407-.064a7.785 7.785 0 0 0 1.507-.405c.24-.09.443-.157.451-.149.008.008.208.348.444.755.236.407.464.79.507.851.108.154.352.269.571.269.439 0 .74-.302.74-.744 0-.208-.031-.273-.571-1.208-.22-.381-.384-.707-.365-.724l.336-.274c.338-.274.939-.879 1.201-1.21.095-.121.187-.236.204-.256.017-.019.342.145.723.365.935.54 1 .571 1.208.571a.747.747 0 0 0 .688-.408c.083-.159.071-.487-.026-.675-.091-.179-.187-.247-1.098-.771-.33-.19-.625-.361-.656-.381-.046-.03-.026-.115.109-.476.193-.516.34-1.062.406-1.509.025-.176.054-.359.064-.407.017-.086.028-.087 1.007-.1 1.077-.014 1.112-.021 1.337-.259a.72.72 0 0 0 0-.988c-.225-.238-.26-.245-1.337-.259-.979-.013-.99-.014-1.007-.1-.01-.048-.039-.231-.064-.407a7.775 7.775 0 0 0-.406-1.509c-.135-.361-.155-.446-.109-.476.031-.02.326-.191.656-.381.911-.524 1.007-.592 1.098-.771.097-.188.109-.516.026-.675a.747.747 0 0 0-.688-.408c-.209 0-.276.032-1.209.57-.381.22-.706.385-.722.365a11.547 11.547 0 0 1-.204-.255 10.314 10.314 0 0 0-1.201-1.21 58.239 58.239 0 0 1-.336-.274c-.019-.017.145-.343.365-.724.22-.38.438-.768.486-.86.202-.399.026-.901-.368-1.049-.289-.11-.698-.002-.858.226a26.38 26.38 0 0 0-.507.851c-.236.407-.436.747-.444.755-.008.008-.211-.059-.451-.149a7.785 7.785 0 0 0-1.507-.405 10.557 10.557 0 0 1-.407-.064c-.086-.017-.087-.028-.1-1.007-.011-.831-.024-1.009-.079-1.11-.088-.159-.267-.325-.407-.377a.952.952 0 0 0-.547.002m1.535 4.073a6.364 6.364 0 0 1 2.565 1.185c.365.283.919.843 1.185 1.197.524.697.921 1.583 1.122 2.506.078.355.091.531.091 1.234s-.013.879-.091 1.234a6.211 6.211 0 0 1-.471 1.399c-.328.704-.624 1.132-1.174 1.701-.891.924-1.956 1.511-3.248 1.793-.355.078-.531.091-1.234.091s-.879-.013-1.234-.091c-1.292-.282-2.357-.869-3.248-1.793-.55-.569-.846-.997-1.174-1.701a6.211 6.211 0 0 1-.471-1.399c-.078-.355-.091-.531-.091-1.234s.013-.879.091-1.234a6.87 6.87 0 0 1 .793-2.019c.471-.783 1.305-1.618 2.074-2.075a6.358 6.358 0 0 1 2.24-.836c.558-.103 1.704-.082 2.275.042m-.638 1.405c-.585.069-1.099.328-1.552.782-.469.469-.711.961-.783 1.596a2.824 2.824 0 0 0 .363 1.764c.173.29.64.757.93.93.852.51 1.998.51 2.85 0 .29-.173.757-.64.93-.93.495-.827.51-1.982.035-2.792-.569-.971-1.629-1.487-2.773-1.35m.837 1.558c.29.109.596.415.705.705.176.471.068.975-.285 1.328-.781.781-2.114.23-2.114-.874 0-.342.12-.629.366-.874a1.236 1.236 0 0 1 1.328-.285M7.9 10.259a1.438 1.438 0 0 1-.147.037c-.139.031-.339.201-.421.359-.083.16-.084.528-.002.685.124.239.414.42.67.42.256 0 .546-.181.67-.42.076-.146.083-.523.012-.66a.852.852 0 0 0-.322-.339c-.106-.055-.393-.106-.46-.082m1.801 3.026c-.333.048-.64.213-.921.495-.415.414-.578.905-.496 1.49.051.363.206.661.496.95.289.29.587.445.95.496.353.05.747-.007 1.03-.146.282-.14.67-.528.81-.81.217-.44.217-1.085-.001-1.517-.354-.703-1.076-1.074-1.868-.958m5.199.974a1.438 1.438 0 0 1-.147.037c-.139.031-.339.201-.421.359-.083.16-.084.528-.002.685.124.239.414.42.67.42.256 0 .546-.181.67-.42.076-.146.083-.523.012-.66a.852.852 0 0 0-.322-.339c-.106-.055-.393-.106-.46-.082m-4.733.567c.152.138.045.414-.16.414a.243.243 0 0 1-.181-.407c.083-.091.244-.094.341-.007" fill-rule="evenodd" fill="#000"/></svg>