<svg width="24" height="24" fill="none" xmlns="http://www.w3.org/2000/svg"><path d="M9.98 4.283c-2.945.075-5.498.33-6.439.642-.456.152-.676.363-.907.871-.479 1.056-.874 3.868-.873 6.224.001 2.58.374 5.148.907 6.247.273.562.507.732 1.26.912 1.649.395 6.023.639 9.742.543 3.696-.095 6.224-.363 7.031-.744.443-.21.672-.623.94-1.698.589-2.362.754-5.414.436-8.08-.125-1.054-.341-2.195-.551-2.92-.161-.559-.378-.953-.625-1.142-.584-.445-3.13-.754-7.081-.858a56.543 56.543 0 0 0-3.84.003m5.78 1.553c2.202.144 3.991.357 4.176.498.078.059.237.615.381 1.326l.113.56-3.465.023c-3.796.025-3.698.019-4.319.272-.922.375-1.584.989-2.005 1.859a3.567 3.567 0 0 0-.358 1.991c.053.515.133.796.358 1.261.421.87 1.083 1.484 2.005 1.859.621.253.523.247 4.319.272l3.465.023-.113.56c-.121.597-.3 1.257-.357 1.315-.139.141-2.014.368-4.2.508-1.053.068-5.181.094-6.48.041-2.24-.091-4.115-.267-5.009-.469l-.269-.061-.118-.367c-.517-1.618-.752-4.579-.562-7.107.125-1.671.534-3.76.759-3.881.301-.161 2.739-.418 4.899-.517 1-.046 5.937-.021 6.78.034m4.894 4.074c.013.082.046.62.072 1.196.038.826.038 1.237-.002 1.96-.027.503-.06.972-.071 1.044l-.022.13h-3.467c-2.969 0-3.501-.009-3.706-.061a2.306 2.306 0 0 1-1.639-1.621c-.077-.288-.075-.826.004-1.132.194-.751.849-1.401 1.617-1.603.184-.048.798-.058 3.705-.06l3.485-.003.024.15M13.9 11.259a1.438 1.438 0 0 1-.147.037c-.139.031-.339.201-.421.359-.083.16-.084.528-.002.685.124.239.414.42.67.42.256 0 .546-.181.67-.42.076-.146.083-.523.012-.66a.852.852 0 0 0-.322-.339c-.106-.055-.393-.106-.46-.082" fill-rule="evenodd" fill="#000"/></svg>