<svg width="24" height="24" fill="none" xmlns="http://www.w3.org/2000/svg"><path d="M11.5 2.721c-.501.1-.896.339-1.687 1.019-2.539 2.182-4.477 5.1-5.23 7.874-.375 1.382-.419 2.947-.12 4.266.327 1.442 1.257 2.992 2.343 3.906a8.05 8.05 0 0 0 2.177 1.343c1.019.425 1.892.598 3.017.598s1.998-.173 3.017-.598c1.445-.603 2.613-1.549 3.444-2.79 1.534-2.289 1.691-5.173.447-8.204-.875-2.132-2.448-4.341-4.254-5.975-1.128-1.02-1.472-1.256-2.038-1.401a2.947 2.947 0 0 0-1.116-.038m.979 1.586c.467.27 2.043 1.769 2.705 2.573 1.58 1.92 2.557 3.864 2.963 5.9.056.282.071.551.071 1.24-.001.764-.013.935-.092 1.3-.193.891-.575 1.757-1.06 2.4-.343.455-1.047 1.129-1.488 1.424-2.176 1.455-4.964 1.456-7.158 0-.446-.295-1.325-1.162-1.608-1.584a6.419 6.419 0 0 1-.938-2.24c-.079-.365-.091-.536-.092-1.3 0-.689.015-.958.071-1.24.406-2.036 1.383-3.98 2.963-5.9.591-.718 2.174-2.243 2.631-2.536.338-.215.7-.228 1.032-.037m-3.674 8.972a.73.73 0 0 0-.526.544c-.047.209.016.807.123 1.159.238.781.849 1.507 1.594 1.893.433.224.798.326 1.265.353.418.024.556-.009.753-.183.21-.184.289-.604.161-.857-.151-.299-.304-.385-.798-.449-.955-.124-1.554-.75-1.632-1.709-.023-.285-.062-.392-.2-.544-.167-.185-.476-.271-.74-.207" fill-rule="evenodd" fill="#000"/></svg>