<svg width="24" height="24" viewBox="0 0 24 24" fill="none" xmlns="http://www.w3.org/2000/svg">
<path d="M9 11.5C6.51472 11.5 4.5 13.5147 4.5 16C4.5 18.4853 6.51472 20.5 9 20.5C11.4853 20.5 13.5 18.4853 13.5 16C13.5 13.5147 11.4853 11.5 9 11.5ZM9 11.5L9 8.50869M9 11.5V11.5068M15.9242 13.5C19 13.5 18.5 15 18.5 17.5M15.9242 13.5C12.8485 13.5 12.7469 13.5069 12.7469 13.5069M15.9242 13.5C15.9242 8.70372 13.2043 8.28266 9 8.50869M18.5 17.5C17.6716 17.5 17 18.1716 17 19C17 19.8284 17.6716 20.5 18.5 20.5C19.3284 20.5 20 19.8284 20 19C20 18.1716 19.3284 17.5 18.5 17.5ZM9 8.50869L9 5.25C9 4.14543 8.10457 3.25 7 3.25H6" stroke="#001A72" stroke-width="1.5" stroke-linecap="round" stroke-linejoin="round"/>
</svg>
