<svg width="24" height="24" fill="none" xmlns="http://www.w3.org/2000/svg"><path d="M5.614 2.62a.745.745 0 0 0-.127 1.168c.194.181.347.212 1.05.212.829 0 1.008.053 1.347.398.378.383.358.184.346 3.523l-.01 2.898-.207.03a4.875 4.875 0 0 0-.6.155A5.155 5.155 0 0 0 5.3 12.3 5.178 5.178 0 0 0 3.76 16c0 1.4.542 2.702 1.54 3.7a5.216 5.216 0 0 0 6.86.476 5.24 5.24 0 0 0 1.881-5.616 3.173 3.173 0 0 1-.081-.29c0-.043 2.199-.036 2.586.008.672.077 1.039.27 1.136.596.073.249.115.922.09 1.468l-.024.523-.284.146c-.5.258-.941.779-1.108 1.306-.116.367-.116.999 0 1.366a2.303 2.303 0 0 0 1.144 1.319 2.167 2.167 0 0 0 2 0c.53-.261.971-.77 1.144-1.319.116-.367.116-.999 0-1.366a2.357 2.357 0 0 0-1.104-1.303l-.28-.145v-.884c0-1.19-.099-1.652-.469-2.185-.363-.523-1.095-.899-1.921-.987-.22-.023-.23-.029-.23-.137 0-.235-.124-1.04-.215-1.4-.216-.848-.561-1.507-1.078-2.06-.984-1.052-2.43-1.496-4.869-1.496h-.71l-.019-1.47C9.728 4.619 9.72 4.557 9.448 4c-.111-.229-.231-.386-.507-.665-.311-.315-.413-.39-.741-.548-.489-.234-.689-.267-1.637-.267-.763.001-.787.003-.949.1m6.326 6.659c1.114.152 1.752.411 2.261.92.536.536.791 1.184.935 2.371l.022.19H13.14l-.291-.318a5.691 5.691 0 0 0-1.469-1.109c-.408-.21-1.072-.439-1.411-.487l-.189-.027-.011-.758c-.006-.417-.001-.784.011-.816.019-.048.163-.054.931-.033.5.013 1.053.043 1.229.067m-2.08 3.078a3.63 3.63 0 0 1 1.782 1.001c.73.73 1.092 1.606 1.092 2.642 0 1.036-.362 1.912-1.092 2.642-.73.73-1.606 1.092-2.642 1.092-1.036 0-1.912-.362-2.642-1.092-.73-.73-1.092-1.606-1.092-2.642 0-1.036.362-1.912 1.092-2.642.611-.611 1.322-.955 2.262-1.094.237-.035.926.017 1.24.093m8.92 5.959c.295.137.46.381.46.684a.894.894 0 0 1-.043.267c-.093.249-.438.491-.697.491-.295 0-.671-.301-.723-.58-.069-.366.08-.678.401-.839.235-.118.385-.123.602-.023" fill-rule="evenodd" fill="#000"/></svg>