<svg width="24" height="24" viewBox="0 0 24 24" fill="none" xmlns="http://www.w3.org/2000/svg">
<path fill-rule="evenodd" clip-rule="evenodd" d="M10.6646 1.82916C11.0351 1.64392 11.4856 1.79409 11.6708 2.16457C12.1953 3.21345 12.4412 3.96284 12.5643 4.71888C12.6421 5.196 12.6699 5.68963 12.6992 6.23052C12.8369 6.18548 12.9796 6.12959 13.1409 6.06637C13.2684 6.01643 13.4075 5.96192 13.5651 5.90457C14.2419 5.65827 15.0419 5.48062 16.1623 5.82192L16.1882 5.82983L16.2136 5.8396C19.4835 7.10063 21.2214 10.6733 20.638 13.9468L20.6367 13.9543L20.6352 13.9618C20.0869 16.7119 18.7819 19.4402 16.6811 21.1175C16.2559 21.457 15.8187 21.6465 15.3631 21.7173C14.9206 21.7861 14.5034 21.7358 14.1328 21.6625C13.8819 21.6128 13.6573 21.5571 13.4429 21.5039C12.9696 21.3865 12.5461 21.2814 12 21.2814C11.4539 21.2814 11.0304 21.3865 10.5572 21.5039C10.3427 21.5571 10.1181 21.6128 9.86717 21.6625C9.49664 21.7358 9.07946 21.7861 8.63687 21.7173C8.18132 21.6465 7.74409 21.457 7.31889 21.1175C5.2181 19.4402 3.91307 16.7119 3.36482 13.9618L3.36332 13.9543L3.36198 13.9468C2.77854 10.6733 4.51649 7.10063 7.78645 5.8396L7.81178 5.82983L7.83775 5.82192C8.95809 5.48062 9.75812 5.65827 10.4349 5.90457C10.5925 5.96192 10.7316 6.01643 10.8591 6.06637C10.9793 6.11349 11.0892 6.15653 11.1944 6.19404C11.169 5.71984 11.1478 5.35254 11.0839 4.96009C10.991 4.38995 10.8047 3.78652 10.3292 2.83539C10.1439 2.46491 10.2941 2.0144 10.6646 1.82916ZM13.8036 7.42084C13.3473 7.60324 12.7323 7.84908 12 7.84908C11.2677 7.84908 10.6527 7.60324 10.1964 7.42084C10.0973 7.38122 10.0057 7.3446 9.92197 7.31414C9.45101 7.14275 9.00252 7.04092 8.30052 7.2491C5.78355 8.23507 4.37301 11.0506 4.83739 13.6762C5.34328 16.2066 6.52069 18.5607 8.25481 19.9453C8.48982 20.133 8.68699 20.2071 8.86728 20.2351C9.06052 20.2651 9.2806 20.2495 9.57596 20.191C9.70587 20.1653 9.85916 20.1274 10.0312 20.0849C10.557 19.9548 11.2577 19.7814 12 19.7814C12.7423 19.7814 13.443 19.9548 13.9688 20.0849C14.1409 20.1274 14.2941 20.1653 14.424 20.191C14.7194 20.2495 14.9395 20.2651 15.1327 20.2351C15.313 20.2071 15.5102 20.133 15.7452 19.9453C17.4793 18.5607 18.6567 16.2067 19.1626 13.6762C19.627 11.0506 18.2164 8.23507 15.6995 7.2491C14.9975 7.04092 14.549 7.14275 14.078 7.31414C13.9943 7.3446 13.9027 7.38122 13.8036 7.42084Z" fill="black"/>
</svg>
