<svg width="24" height="24" viewBox="0 0 24 24" fill="none" xmlns="http://www.w3.org/2000/svg">
<path fill-rule="evenodd" clip-rule="evenodd" d="M12 6.25C12.4142 6.25 12.75 6.58579 12.75 7L12.75 15.1893L15.4697 12.4697C15.7626 12.1768 16.2374 12.1768 16.5303 12.4697C16.8232 12.7626 16.8232 13.2374 16.5303 13.5303L12.5303 17.5303C12.3897 17.671 12.1989 17.75 12 17.75C11.8011 17.75 11.6103 17.671 11.4697 17.5303L7.46967 13.5303C7.17678 13.2374 7.17678 12.7626 7.46967 12.4697C7.76256 12.1768 8.23744 12.1768 8.53033 12.4697L11.25 15.1893L11.25 7C11.25 6.58579 11.5858 6.25 12 6.25Z" fill="black"/>
</svg>
