<svg width="24" height="24" viewBox="0 0 24 24" fill="none" xmlns="http://www.w3.org/2000/svg">
<path fill-rule="evenodd" clip-rule="evenodd" d="M12 3.75C7.44365 3.75 3.75 7.44365 3.75 12C3.75 16.5563 7.44365 20.25 12 20.25C16.5563 20.25 20.25 16.5563 20.25 12C20.25 7.44365 16.5563 3.75 12 3.75ZM2.25 12C2.25 6.61522 6.61522 2.25 12 2.25C17.3848 2.25 21.75 6.61522 21.75 12C21.75 17.3848 17.3848 21.75 12 21.75C6.61522 21.75 2.25 17.3848 2.25 12ZM7.46967 10.4697L11.4697 6.46967C11.7626 6.17678 12.2374 6.17678 12.5303 6.46967L16.5303 10.4697C16.8232 10.7626 16.8232 11.2374 16.5303 11.5303C16.2374 11.8232 15.7626 11.8232 15.4697 11.5303L12.75 8.81066V17C12.75 17.4142 12.4142 17.75 12 17.75C11.5858 17.75 11.25 17.4142 11.25 17V8.81066L8.53033 11.5303C8.23744 11.8232 7.76256 11.8232 7.46967 11.5303C7.17678 11.2374 7.17678 10.7626 7.46967 10.4697Z" fill="black"/>
</svg>
