<svg width="24" height="24" viewBox="0 0 24 24" fill="none" xmlns="http://www.w3.org/2000/svg">
<path fill-rule="evenodd" clip-rule="evenodd" d="M2.25 12C2.25 6.61522 6.61522 2.25 12 2.25C17.3848 2.25 21.75 6.61522 21.75 12V13.2857C21.75 13.9406 21.5597 14.5533 21.2311 15.0689C20.6427 15.9921 19.6077 16.6071 18.4286 16.6071C17.1964 16.6071 16.1209 15.9361 15.5476 14.9396C14.7025 15.9583 13.427 16.6071 12 16.6071C9.45551 16.6071 7.39282 14.5444 7.39282 12C7.39282 9.45551 9.45551 7.39282 12 7.39282C14.5444 7.39282 16.6071 9.4555 16.6071 11.9999C16.6071 12 16.6071 11.9999 16.6071 11.9999L16.6071 13.2857C16.6071 14.2916 17.4226 15.1071 18.4286 15.1071C19.074 15.1071 19.6416 14.772 19.9662 14.2628C20.1458 13.9809 20.25 13.6466 20.25 13.2857V12C20.25 7.44365 16.5563 3.75 12 3.75C7.44365 3.75 3.75 7.44365 3.75 12C3.75 16.5563 7.44365 20.25 12 20.25C13.7538 20.25 15.3778 19.7036 16.7138 18.7717C17.0535 18.5347 17.521 18.618 17.758 18.9578C17.995 19.2975 17.9117 19.765 17.5719 20.002C15.9924 21.1038 14.0705 21.75 12 21.75C6.61522 21.75 2.25 17.3848 2.25 12ZM15.1071 12C15.1071 12 15.1071 12 15.1071 12C15.1071 10.2839 13.716 8.89282 12 8.89282C10.2839 8.89282 8.89282 10.2839 8.89282 12C8.89282 13.716 10.2839 15.1071 12 15.1071C13.716 15.1071 15.1071 13.716 15.1071 12Z" fill="black"/>
</svg>
