<svg width="24" height="24" viewBox="0 0 24 24" fill="none" xmlns="http://www.w3.org/2000/svg">
<path fill-rule="evenodd" clip-rule="evenodd" d="M15.05 3.75C14.3069 3.75 13.6024 4.02882 13.0896 4.51249L5.05236 12.0926C4.2128 12.8844 3.75 13.9486 3.75 15.0483C3.75 16.148 4.2128 17.2123 5.05236 18.0041C5.89341 18.7973 7.04302 19.25 8.25028 19.25C9.45754 19.25 10.6072 18.7973 11.4482 18.0041L19.4854 10.424C19.7868 10.1398 20.2614 10.1537 20.5456 10.455C20.8298 10.7563 20.8159 11.231 20.5146 11.5152L12.4774 19.0953C11.3492 20.1593 9.82794 20.75 8.25028 20.75C6.67262 20.75 5.15137 20.1593 4.02318 19.0953C2.89351 18.0299 2.25 16.5751 2.25 15.0483C2.25 13.5215 2.89351 12.0668 4.02318 11.0013L12.0604 3.42125C12.8604 2.66677 13.9365 2.25 15.05 2.25C16.1635 2.25 17.2396 2.66677 18.0396 3.42125C18.8411 4.17714 19.3002 5.21205 19.3002 6.30111C19.3002 7.39018 18.8411 8.42509 18.0396 9.18097L9.99362 16.7611C9.99353 16.7612 9.99372 16.761 9.99362 16.7611C9.52188 17.2058 8.89076 17.4489 8.24154 17.4489C7.59218 17.4489 6.96122 17.206 6.48945 16.7611C6.01618 16.3147 5.74144 15.6996 5.74144 15.0483C5.74144 14.397 6.01618 13.7819 6.48945 13.3356L13.9148 6.34081C14.2163 6.05679 14.6909 6.07097 14.975 6.37247C15.259 6.67397 15.2448 7.14864 14.9433 7.43266L7.51862 14.4268C7.33547 14.5996 7.24144 14.8241 7.24144 15.0483C7.24144 15.2725 7.33547 15.4971 7.51862 15.6698C7.70326 15.844 7.96258 15.9489 8.24154 15.9489C8.52049 15.9489 8.77981 15.844 8.96445 15.6698L17.0104 8.08974C17.5218 7.60747 17.8002 6.96307 17.8002 6.30111C17.8002 5.63916 17.5218 4.99476 17.0104 4.51249C16.4976 4.02882 15.7931 3.75 15.05 3.75Z" fill="black"/>
</svg>
