<svg width="24" height="24" viewBox="0 0 24 24" fill="none" xmlns="http://www.w3.org/2000/svg">
<path fill-rule="evenodd" clip-rule="evenodd" d="M9.53034 3.46967C9.82324 3.76256 9.82324 4.23744 9.53034 4.53033L4.81067 9.25H19.1894L14.4697 4.53033C14.1768 4.23744 14.1768 3.76256 14.4697 3.46967C14.7626 3.17678 15.2374 3.17678 15.5303 3.46967L21.5303 9.46967C21.7077 9.64699 21.7846 9.90119 21.7354 10.1471L20.3786 16.9315C19.9345 19.1518 17.985 20.75 15.7208 20.75H8.27923C6.01499 20.75 4.06552 19.1518 3.62147 16.9316L2.26458 10.1471C2.2154 9.90119 2.29236 9.64699 2.46968 9.46967L8.46968 3.46967C8.76258 3.17678 9.23745 3.17678 9.53034 3.46967ZM20.0852 10.75H3.91487L5.09234 16.6374C5.39617 18.1565 6.73001 19.25 8.27923 19.25H15.7208C17.27 19.25 18.6039 18.1565 18.9077 16.6374L20.0852 10.75Z" fill="black"/>
</svg>
