<svg width="24" height="24" viewBox="0 0 24 24" fill="none" xmlns="http://www.w3.org/2000/svg">
<path fill-rule="evenodd" clip-rule="evenodd" d="M5.85156 6.499C6.85333 7.23258 7.70964 8.1457 8.23619 9.41692C8.47932 10.0039 8.63789 10.6211 8.7082 11.25H11.25V3.78362C9.11058 3.97632 7.20657 4.98549 5.85156 6.499ZM12.75 3.78362V11.25H15.2918C15.3621 10.6211 15.5207 10.0039 15.7638 9.41686C16.3046 8.11126 17.1721 7.24243 18.1645 6.51703C16.8085 4.99351 14.8979 3.97708 12.75 3.78362ZM19.0565 7.72325C18.1889 8.35648 17.5495 9.02553 17.1496 9.99089C16.982 10.3955 16.8661 10.8185 16.8038 11.25H20.2164C20.1009 9.96665 19.6917 8.76888 19.0565 7.72325ZM20.2164 12.75H16.8039C16.8661 13.1815 16.9821 13.6045 17.1496 14.0091C17.5501 14.9759 18.1888 15.619 19.0527 16.2829C19.6901 15.2358 20.1006 14.0359 20.2164 12.75ZM18.1593 17.4888C17.196 16.7519 16.3107 15.9034 15.7638 14.5831C15.5207 13.9961 15.3621 13.3789 15.2918 12.75H12.75V20.2164C14.8952 20.0232 16.8036 19.0091 18.1593 17.4888ZM11.25 20.2164V12.75H8.70821C8.6379 13.379 8.47933 13.9961 8.23619 14.5831C7.69535 15.8889 6.82699 16.7574 5.83633 17.4839C7.19228 19.0069 9.10255 20.023 11.25 20.2164ZM4.94421 16.2779C5.8111 15.6427 6.4507 14.974 6.85037 14.0091C7.01796 13.6045 7.13388 13.1815 7.19616 12.75H3.78359C3.89917 14.0338 4.30859 15.232 4.94421 16.2779ZM3.78359 11.25H7.19615C7.13387 10.8185 7.01795 10.3955 6.85037 9.99094C6.45649 9.04002 5.80962 8.32552 4.9562 7.70246C4.31374 8.75299 3.89989 9.95815 3.78359 11.25ZM4.14961 6.2168C5.9238 3.81215 8.77954 2.25 12 2.25C15.2273 2.25 18.0884 3.81882 19.8617 6.2322C21.0486 7.84749 21.75 9.84293 21.75 12C21.75 14.1702 21.0401 16.1768 19.84 17.7972C18.0651 20.1939 15.2142 21.75 12 21.75C8.77384 21.75 5.9137 20.1823 4.14021 17.7704C2.95213 16.1547 2.25 14.1582 2.25 12C2.25 9.83606 2.95584 7.83479 4.14961 6.2168Z" fill="black"/>
</svg>
