<svg width="24" height="24" viewBox="0 0 24 24" fill="none" xmlns="http://www.w3.org/2000/svg">
<path fill-rule="evenodd" clip-rule="evenodd" d="M2.46967 2.96967C2.76256 2.67678 3.23744 2.67678 3.53033 2.96967L21.5303 20.9697C21.8232 21.2626 21.8232 21.7374 21.5303 22.0303C21.2374 22.3232 20.7626 22.3232 20.4697 22.0303L2.46967 4.03033C2.17678 3.73744 2.17678 3.26256 2.46967 2.96967ZM12 4.25C10.5729 4.25 9.3284 4.58779 8.42077 5.20292C8.07789 5.43531 7.61154 5.34573 7.37915 5.00285C7.14677 4.65996 7.23634 4.19362 7.57923 3.96123C8.79463 3.13751 10.3537 2.75 12 2.75C13.7734 2.75 15.4491 3.20004 16.7001 4.16304C17.9744 5.14392 18.75 6.61553 18.75 8.5C18.75 10.2862 19.4071 12.348 20.1228 14.0479C20.4317 14.7815 20.4206 15.5658 20.1825 16.2474C20.0459 16.6384 19.6181 16.8446 19.2271 16.708C18.8361 16.5714 18.6298 16.1437 18.7664 15.7526C18.8926 15.3915 18.8931 14.9927 18.7403 14.6299C18.003 12.8786 17.25 10.5921 17.25 8.5C17.25 7.07077 16.6825 6.04237 15.7852 5.35168C14.8646 4.64311 13.5403 4.25 12 4.25ZM5.96969 9.47093C6.37787 9.54137 6.65166 9.92937 6.58122 10.3375C6.3196 11.8536 5.78983 13.3703 5.25998 14.6289C4.83681 15.6341 5.58469 16.7497 6.53238 16.7497H13C13.4142 16.7497 13.75 17.0855 13.75 17.4997C13.75 17.9139 13.4142 18.2497 13 18.2497H9.75V18.5C9.75 19.1008 9.98175 19.5042 10.3362 19.777C10.7138 20.0677 11.2881 20.25 12 20.25C13.1876 20.25 13.9352 19.7671 14.1625 19.0826C14.2931 18.6895 14.7176 18.4767 15.1107 18.6072C15.5038 18.7378 15.7166 19.1623 15.586 19.5554C15.0726 21.1014 13.5268 21.75 12 21.75C11.055 21.75 10.1294 21.5107 9.4212 20.9656C8.68982 20.4027 8.25 19.556 8.25 18.5V18.2497H6.53238C4.3709 18.2497 3.09428 15.9073 3.87749 14.0469C4.38373 12.8444 4.86813 11.4439 5.10307 10.0825C5.17351 9.67429 5.56151 9.40049 5.96969 9.47093Z" fill="black"/>
</svg>
