<svg width="24" height="24" viewBox="0 0 24 24" fill="none" xmlns="http://www.w3.org/2000/svg">
<path fill-rule="evenodd" clip-rule="evenodd" d="M5.66005 6.7207C4.46747 8.15132 3.75 9.99187 3.75 12C3.75 16.5563 7.44365 20.25 12 20.25C14.0081 20.25 15.8487 19.5325 17.2793 18.3399L5.66005 6.7207ZM6.72072 5.66004L18.34 17.2793C19.5325 15.8487 20.25 14.0081 20.25 12C20.25 7.44365 16.5563 3.75 12 3.75C9.99188 3.75 8.15134 4.46746 6.72072 5.66004ZM18.8949 18.8936C20.659 17.1293 21.75 14.6921 21.75 12C21.75 6.61522 17.3848 2.25 12 2.25C6.61522 2.25 2.25 6.61522 2.25 12C2.25 17.3848 6.61522 21.75 12 21.75C14.6915 21.75 17.1283 20.6594 18.8926 18.896C18.8932 18.8954 18.8937 18.8949 18.8943 18.8943" fill="black"/>
</svg>
