<svg width="24" height="24" fill="none" xmlns="http://www.w3.org/2000/svg"><path d="M11.32 2.28c-1.879.127-3.672.802-5.236 1.972-.493.368-1.464 1.339-1.832 1.832a9.794 9.794 0 0 0-1.895 4.524 10.9 10.9 0 0 0 0 2.784 9.794 9.794 0 0 0 1.895 4.524c.368.493 1.339 1.464 1.832 1.832a9.768 9.768 0 0 0 4.524 1.894 10.32 10.32 0 0 0 3.804-.2 9.913 9.913 0 0 0 3.504-1.694c.493-.369 1.463-1.339 1.832-1.832a9.763 9.763 0 0 0 1.894-4.524 10.9 10.9 0 0 0 0-2.784 9.763 9.763 0 0 0-1.894-4.524c-.369-.493-1.339-1.463-1.832-1.832-1.13-.846-2.524-1.495-3.796-1.766a10.872 10.872 0 0 0-2.8-.206m1.86 1.558a8.154 8.154 0 0 1 3.753 1.553l.354.262-2.644 2.644L12 10.94 9.357 8.297 6.713 5.653l.354-.262a8.208 8.208 0 0 1 3.713-1.55 9.358 9.358 0 0 1 2.4-.003M8.297 14.643l-2.644 2.644-.262-.354A8.105 8.105 0 0 1 3.76 12c0-1.817.547-3.47 1.631-4.933l.262-.354 2.644 2.644L10.94 12l-2.643 2.643M18.611 7.07A8.126 8.126 0 0 1 20.24 12c0 1.811-.55 3.475-1.631 4.933l-.262.354-2.643-2.644L13.06 12l2.64-2.64a869.27 869.27 0 0 1 2.646-2.64c.003 0 .123.158.265.35m-3.958 8.643 2.634 2.634-.354.262A8.126 8.126 0 0 1 12 20.24a8.126 8.126 0 0 1-4.933-1.631l-.354-.262 2.634-2.634A250.173 250.173 0 0 1 12 13.08c.011 0 1.205 1.185 2.653 2.633" fill-rule="evenodd" fill="#000"/></svg>