<svg width="24" height="24" viewBox="0 0 24 24" fill="none" xmlns="http://www.w3.org/2000/svg">
<path d="M8.48809 8.43056C8.1736 8.16099 7.70012 8.19741 7.43056 8.51191C7.16099 8.8264 7.19741 9.29988 7.51191 9.56944L8.48809 8.43056ZM15 15L15.4881 15.5694C15.6543 15.427 15.75 15.2189 15.75 15C15.75 14.7811 15.6543 14.573 15.4881 14.4306L15 15ZM11.5 18H10.75C10.75 18.2929 10.9205 18.559 11.1866 18.6814C11.4527 18.8038 11.7657 18.7601 11.9881 18.5694L11.5 18ZM11.5 6L11.9881 5.43056C11.7657 5.23994 11.4527 5.19623 11.1866 5.31862C10.9205 5.441 10.75 5.7071 10.75 6H11.5ZM15 9L15.4881 9.56944C15.6543 9.42696 15.75 9.21894 15.75 9C15.75 8.78106 15.6543 8.57304 15.4881 8.43056L15 9ZM7.51191 14.4306C7.19741 14.7001 7.16099 15.1736 7.43056 15.4881C7.70012 15.8026 8.1736 15.839 8.48809 15.5694L7.51191 14.4306ZM7.51191 9.56944L11.0119 12.5694L11.9881 11.4306L8.48809 8.43056L7.51191 9.56944ZM11.0119 12.5694L14.5119 15.5694L15.4881 14.4306L11.9881 11.4306L11.0119 12.5694ZM14.5119 14.4306L11.0119 17.4306L11.9881 18.5694L15.4881 15.5694L14.5119 14.4306ZM12.25 18V12H10.75V18H12.25ZM12.25 12V6H10.75V12H12.25ZM11.0119 6.56944L14.5119 9.56944L15.4881 8.43056L11.9881 5.43056L11.0119 6.56944ZM14.5119 8.43056L11.0119 11.4306L11.9881 12.5694L15.4881 9.56944L14.5119 8.43056ZM11.0119 11.4306L7.51191 14.4306L8.48809 15.5694L11.9881 12.5694L11.0119 11.4306ZM11 3.75H13V2.25H11V3.75ZM18.25 9V15H19.75V9H18.25ZM13 20.25H11V21.75H13V20.25ZM5.75 15V9H4.25V15H5.75ZM11 20.25C8.1005 20.25 5.75 17.8995 5.75 15H4.25C4.25 18.7279 7.27208 21.75 11 21.75V20.25ZM18.25 15C18.25 17.8995 15.8995 20.25 13 20.25V21.75C16.7279 21.75 19.75 18.7279 19.75 15H18.25ZM13 3.75C15.8995 3.75 18.25 6.10051 18.25 9H19.75C19.75 5.27208 16.7279 2.25 13 2.25V3.75ZM11 2.25C7.27208 2.25 4.25 5.27208 4.25 9H5.75C5.75 6.1005 8.10051 3.75 11 3.75V2.25Z" fill="black"/>
</svg>
