<svg width="24" height="24" viewBox="0 0 24 24" fill="none" xmlns="http://www.w3.org/2000/svg">
<path fill-rule="evenodd" clip-rule="evenodd" d="M8.17458 4.10471C8.34472 3.59429 8.8224 3.25 9.36044 3.25H15.2615C16.1459 3.25 16.7506 4.14316 16.4221 4.96424L14.7078 9.25H17.7929C18.9066 9.25 19.4643 10.5964 18.6768 11.3839L9.80683 20.2539C8.91038 21.1503 7.40278 20.2968 7.71026 19.0668L9.03947 13.75H6.69377C5.84057 13.75 5.23811 12.9141 5.50791 12.1047L8.17458 4.10471ZM9.54063 4.75L7.04063 12.25H9.35967C10.1729 12.25 10.7696 13.0142 10.5723 13.8032L9.38439 18.555L17.1894 10.75H14.3386C13.4542 10.75 12.8495 9.85684 13.178 9.03576L14.8923 4.75H9.54063Z" fill="black"/>
</svg>
