<svg width="24" height="24" viewBox="0 0 24 24" fill="none" xmlns="http://www.w3.org/2000/svg">
<path fill-rule="evenodd" clip-rule="evenodd" d="M12.25 5.5C12.25 3.70507 13.7051 2.25 15.5 2.25C17.2138 2.25 18.6178 3.57652 18.7412 5.25882C20.4235 5.38222 21.75 6.7862 21.75 8.5C21.75 10.2949 20.2949 11.75 18.5 11.75C18.293 11.75 18.0865 11.7391 17.9022 11.7294L17.8863 11.7286C17.6908 11.7183 17.519 11.7096 17.3533 11.7102C17.0216 11.7112 16.7851 11.7507 16.5948 11.8452C16.1508 12.0656 15.729 12.3302 15.336 12.6354C15.0177 12.8827 14.5608 12.8341 14.3016 12.5254L13.7494 11.8678L12.9135 12.1356C12.7239 12.1964 12.5179 12.1793 12.3409 12.088C12.1639 11.9967 12.0305 11.8387 11.9701 11.649L11.2396 9.35522C11.1646 9.1197 11.2105 8.86236 11.3622 8.66724C11.6684 8.27349 11.9338 7.85068 12.1548 7.40549C12.2493 7.21516 12.2888 6.9787 12.2899 6.6469C12.2904 6.48115 12.2817 6.30931 12.2714 6.11381L12.2706 6.09789C12.2609 5.91359 12.25 5.70701 12.25 5.5ZM15.5 3.75C14.5335 3.75 13.75 4.5335 13.75 5.5C13.75 5.6665 13.759 5.83861 13.7693 6.03507L13.7694 6.03695C13.7793 6.22573 13.7905 6.43804 13.7899 6.65148C13.7885 7.07948 13.7414 7.58302 13.4984 8.0725C13.2922 8.48778 13.0539 8.88684 12.7854 9.26596L13.1714 10.4779L13.7711 10.2858C14.0611 10.1929 14.3785 10.2845 14.5743 10.5177L15.0048 11.0303C15.3019 10.8359 15.6102 10.6593 15.9279 10.5016C16.4173 10.2586 16.9208 10.2115 17.3487 10.2102C17.5621 10.2095 17.7744 10.2207 17.9632 10.2306L17.965 10.2307C18.1614 10.241 18.3335 10.25 18.5 10.25C19.4665 10.25 20.25 9.4665 20.25 8.5C20.25 7.5335 19.4665 6.75 18.5 6.75C18.3632 6.75 18.231 6.76556 18.1046 6.79468C17.8527 6.85275 17.5886 6.77698 17.4058 6.59418C17.223 6.41137 17.1472 6.1473 17.2053 5.89538C17.2344 5.76903 17.25 5.6368 17.25 5.5C17.25 4.5335 16.4665 3.75 15.5 3.75ZM8.66577 11.3634C8.9845 11.1157 9.44214 11.1647 9.7012 11.4743L10.5752 12.5187C10.6881 12.6537 10.75 12.824 10.75 13V13.5036L12.3413 14.179C12.5557 14.27 12.7157 14.4554 12.7742 14.6809C12.8327 14.9064 12.7832 15.1462 12.6401 15.33C12.3329 15.7247 12.0667 16.1486 11.8451 16.595C11.7507 16.7853 11.7112 17.0217 11.7102 17.3534C11.7097 17.5191 11.7183 17.6909 11.7286 17.8864L11.7294 17.9023C11.7391 18.0865 11.75 18.2931 11.75 18.5C11.75 20.2949 10.2949 21.75 8.5 21.75C6.7862 21.75 5.38222 20.4235 5.25882 18.7412C3.57652 18.6178 2.25 17.2138 2.25 15.5C2.25 13.7051 3.70507 12.25 5.5 12.25C5.70701 12.25 5.91359 12.2609 6.09789 12.2706L6.11377 12.2714C6.30925 12.2817 6.48108 12.2904 6.64681 12.2899C6.97859 12.2889 7.21504 12.2494 7.40536 12.1549C7.85004 11.9341 8.27239 11.6691 8.66577 11.3634ZM8.99623 12.9691C8.69889 13.1638 8.39036 13.3406 8.07233 13.4984C7.58287 13.7414 7.07936 13.7886 6.65139 13.7899C6.43795 13.7905 6.22564 13.7794 6.03687 13.7694L6.03503 13.7694C5.83859 13.759 5.66649 13.75 5.5 13.75C4.5335 13.75 3.75 14.5335 3.75 15.5C3.75 16.4665 4.5335 17.25 5.5 17.25C5.6368 17.25 5.76903 17.2345 5.89538 17.2053C6.1473 17.1473 6.41137 17.223 6.59418 17.4058C6.77698 17.5887 6.85275 17.8527 6.79468 18.1046C6.76556 18.231 6.75 18.3632 6.75 18.5C6.75 19.4665 7.5335 20.25 8.5 20.25C9.4665 20.25 10.25 19.4665 10.25 18.5C10.25 18.3336 10.241 18.1615 10.2307 17.9651L10.2306 17.9633C10.2207 17.7745 10.2095 17.5622 10.2102 17.3488C10.2115 16.9209 10.2586 16.4175 10.5016 15.9281C10.6251 15.6791 10.7603 15.436 10.9065 15.1995L9.70698 14.6904C9.42992 14.5728 9.25 14.301 9.25 14V13.2724L8.99623 12.9691Z" fill="black"/>
</svg>
