<svg width="24" height="24" viewBox="0 0 24 24" fill="none" xmlns="http://www.w3.org/2000/svg">
<path fill-rule="evenodd" clip-rule="evenodd" d="M7.09207 4.31515C8.2763 3.54757 9.95464 3.25 12 3.25C14.0454 3.25 15.7237 3.54757 16.9079 4.31515C18.1578 5.12526 18.75 6.3853 18.75 8V19.0858C18.75 20.6449 16.865 21.4257 15.7626 20.3232L12.1768 16.7374C12.0791 16.6398 11.9209 16.6398 11.8232 16.7374L8.23744 20.3232C7.135 21.4257 5.25 20.6449 5.25 19.0858V8C5.25 6.3853 5.84224 5.12525 7.09207 4.31515ZM7.90793 5.57387C7.15776 6.06011 6.75 6.80006 6.75 8V19.0858C6.75 19.3085 7.01928 19.4201 7.17678 19.2626L10.7626 15.6768C11.446 14.9934 12.554 14.9934 13.2374 15.6768L16.8232 19.2626C16.9807 19.4201 17.25 19.3085 17.25 19.0858V8C17.25 6.80007 16.8422 6.06011 16.0921 5.57387C15.2763 5.04511 13.9546 4.75 12 4.75C10.0454 4.75 8.7237 5.04511 7.90793 5.57387Z" fill="black"/>
</svg>
