<svg width="24" height="24" viewBox="0 0 24 24" fill="none" xmlns="http://www.w3.org/2000/svg">
<path fill-rule="evenodd" clip-rule="evenodd" d="M11.5 3.75C9.92495 3.75 8.74292 4.765 8.20713 6.28088C8.08971 6.6131 7.75685 6.81878 7.4072 6.77518C7.27411 6.75859 7.13823 6.75 7 6.75C5.20507 6.75 3.75 8.20507 3.75 10C3.75 11.2179 4.42032 12.2804 5.41272 12.8369C5.86077 11.4723 7.17853 10.5831 8.6669 10.5831C9.08111 10.5831 9.4169 10.9189 9.4169 11.3331C9.4169 11.7473 9.08111 12.0831 8.6669 12.0831C7.55973 12.0831 6.75 12.8622 6.75 13.874C6.75 14.9781 7.65219 15.9169 8.6669 15.9169C8.75853 15.9169 8.86013 15.9163 8.97015 15.9156C9.77367 15.9106 11.0263 15.9028 12.1218 16.1179C12.7449 16.2403 13.3995 16.4484 13.9133 16.8307C14.4606 17.2379 14.8376 17.8397 14.8376 18.641V20.7745C14.8376 21.1887 14.5019 21.5245 14.0876 21.5245C13.6734 21.5245 13.3376 21.1887 13.3376 20.7745V18.641C13.3376 18.3755 13.2371 18.1972 13.018 18.0342C12.7655 17.8463 12.3649 17.6943 11.8328 17.5898C10.8984 17.4063 9.81222 17.4117 8.993 17.4158C8.87873 17.4164 8.76965 17.4169 8.6669 17.4169C6.934 17.4169 5.55967 16.047 5.29583 14.4349C3.51466 13.75 2.25 12.0235 2.25 10C2.25 7.37665 4.37665 5.25 7 5.25C7.00286 5.25 7.00571 5.25 7.00857 5.25001C7.80229 3.53081 9.37058 2.25 11.5 2.25C13.2414 2.25 14.865 3.10706 15.8402 4.43304C16.2059 4.31418 16.5959 4.25 17.0001 4.25C19.0712 4.25 20.7501 5.92893 20.7501 8C20.7501 8.88269 20.4448 9.69393 19.9352 10.3341C20.748 10.9563 21.2838 11.9333 21.2838 13.0408C21.2838 14.9279 19.754 16.4577 17.8669 16.4577C16.3858 16.4577 15.3255 15.7441 14.69 14.9064C13.4939 15.1797 12.2188 14.6248 11.6287 13.4846C11.4384 13.1168 11.5823 12.6642 11.9501 12.4738C12.318 12.2835 12.7705 12.4273 12.9609 12.7952C13.2801 13.4119 14.0386 13.653 14.6553 13.3339C15.0225 13.1439 15.4742 13.2869 15.6652 13.6536C16.0064 14.3087 16.7252 14.9577 17.8669 14.9577C18.9255 14.9577 19.7838 14.0995 19.7838 13.0408C19.7838 12.1961 19.2133 11.4645 18.4307 11.2144C18.156 11.1266 17.9561 10.8892 17.9162 10.6037C17.8763 10.3182 18.0037 10.0351 18.2437 9.87545C18.8519 9.47109 19.2501 8.78189 19.2501 8C19.2501 6.75736 18.2427 5.75 17.0001 5.75C16.6044 5.75 16.2347 5.85148 15.9133 6.02926C15.7381 6.12615 15.5314 6.14898 15.3393 6.09266C15.1472 6.03634 14.9856 5.90556 14.8904 5.72942C14.2622 4.56649 12.9396 3.75 11.5 3.75ZM12.2367 7.91877C11.6354 7.5716 10.8665 7.77763 10.5193 8.37893C10.3122 8.73765 9.85353 8.86056 9.49481 8.65345C9.13609 8.44634 9.01319 7.98765 9.22029 7.62893C9.98167 6.31019 11.6679 5.85835 12.9867 6.61973C14.3054 7.38111 14.7573 9.06738 13.9959 10.3861C13.7888 10.7448 13.3301 10.8678 12.9714 10.6606C12.6127 10.4535 12.4897 9.99484 12.6969 9.63612C13.044 9.03482 12.838 8.26593 12.2367 7.91877Z" fill="black"/>
</svg>
