<svg width="24" height="24" fill="none" xmlns="http://www.w3.org/2000/svg"><path d="M8.66 1.806c-.334.123-.39.269-.418 1.09l-.022.676-.516.136c-1.297.34-2.434.995-3.127 1.8-1.351 1.57-1.876 3.755-1.804 7.512.025 1.336.089 2.089.249 2.94.322 1.714.828 2.776 1.775 3.722.614.612 1.179.98 2.032 1.323.448.18 1.074.355 1.27.355.546 0 .882-.868.488-1.261-.1-.1-.251-.167-.716-.316-.632-.204-1.073-.403-1.439-.649-1.445-.976-2.075-2.721-2.178-6.035l-.027-.857 2.537-.011c2.788-.012 2.687-.003 2.859-.259.161-.239.155-.74-.012-.966-.171-.232-.094-.225-2.806-.237l-2.496-.011.028-.349c.09-1.119.375-2.239.767-3.009.425-.837 1.008-1.414 1.836-1.818.376-.184 1.135-.462 1.26-.462.025 0 .041.27.042.71.002.782.03 1.006.147 1.164.125.169.279.226.611.226.332 0 .486-.057.611-.226.12-.162.145-.384.147-1.3l.002-.847.35-.033c.454-.044 3.326-.044 3.78 0l.35.033.002.847c.002.916.027 1.138.147 1.3.125.169.279.226.611.226.332 0 .486-.057.611-.226.117-.158.145-.382.147-1.164.001-.39.017-.71.035-.71.125 0 .975.311 1.294.473 1.323.674 2.047 1.776 2.414 3.676.119.612.186.766.389.893.106.067.181.08.41.068.315-.015.52-.099.64-.261.244-.332-.083-1.956-.619-3.079-.786-1.645-2.086-2.674-4.022-3.182l-.519-.136-.022-.676c-.024-.7-.054-.832-.224-.981-.186-.163-.691-.201-.95-.073-.267.132-.34.36-.342 1.072-.002.454-.002.455-.094.432-.274-.069-2.178-.109-3.165-.067-.573.025-1.083.055-1.133.067-.089.022-.09.019-.092-.432-.002-.712-.075-.939-.342-1.072-.145-.073-.597-.094-.756-.036m9.1 10.457c-.157.068-6.32 6.196-6.433 6.397-.059.105-.067.272-.067 1.36 0 1.179.004 1.247.082 1.38.121.205.301.31.589.34.137.015.708.021 1.269.013.864-.011 1.038-.023 1.14-.08.066-.037 1.527-1.477 3.247-3.2 3.44-3.447 3.274-3.256 3.171-3.643-.039-.147-.202-.327-1.191-1.321-1.336-1.342-1.431-1.407-1.807-1.246m.72 2.277.458.459-.218.221-.218.221-.471-.47-.47-.469.208-.211c.115-.116.218-.211.23-.211.012 0 .229.207.481.46m-2.91 3.83-1.87 1.87h-.94v-.94l1.87-1.87 1.869-1.87.471.47.47.469-1.87 1.871" fill-rule="evenodd" fill="#000"/></svg>