<svg width="24" height="24" viewBox="0 0 24 24" fill="none" xmlns="http://www.w3.org/2000/svg">
<path fill-rule="evenodd" clip-rule="evenodd" d="M9 1.75C9.41421 1.75 9.75 2.08579 9.75 2.5V3.34667C10.4474 3.27952 11.1973 3.25 12 3.25C12.8035 3.25 13.5533 3.27961 14.25 3.34671V2.5C14.25 2.08579 14.5858 1.75 15 1.75C15.4142 1.75 15.75 2.08579 15.75 2.5V3.56876C16.7477 3.77721 17.6079 4.09962 18.3337 4.56939C19.9004 5.5836 20.7076 7.19165 21.046 9.38567C21.1092 9.79504 20.8285 10.1781 20.4191 10.2412C20.0097 10.3044 19.6267 10.0237 19.5635 9.61433C19.264 7.67234 18.6027 6.53039 17.5186 5.8286C17.042 5.52013 16.4605 5.28059 15.75 5.10646V6.5C15.75 6.91421 15.4142 7.25 15 7.25C14.5858 7.25 14.25 6.91421 14.25 6.5V4.85461C13.5852 4.78437 12.8386 4.75 12 4.75C11.1606 4.75 10.4141 4.78447 9.75 4.85466V6.5C9.75 6.91421 9.41421 7.25 9 7.25C8.58579 7.25 8.25 6.91421 8.25 6.5V5.10652C7.29173 5.34137 6.57 5.69471 6.02334 6.17382C5.04324 7.0328 4.4837 8.42591 4.30951 10.75H15C15.4142 10.75 15.75 11.0858 15.75 11.5C15.75 11.9142 15.4142 12.25 15 12.25H4.25103C4.25034 12.3325 4.25 12.4158 4.25 12.5C4.25 14.9211 4.53609 16.5796 5.15028 17.7171C5.73632 18.8023 6.665 19.4916 8.18447 19.8771C8.58596 19.979 8.82884 20.3871 8.72696 20.7885C8.62508 21.19 8.21702 21.4329 7.81553 21.331C5.97594 20.8642 4.65462 19.9561 3.83042 18.4298C3.03438 16.9556 2.75 14.9883 2.75 12.5C2.75 12.146 2.75576 11.8036 2.76783 11.4726C2.87401 8.56306 3.46873 6.41819 5.03467 5.04576C5.8766 4.30786 6.94723 3.84088 8.25 3.56869V2.5C8.25 2.08579 8.58579 1.75 9 1.75ZM13 17.75C12.3096 17.75 11.75 18.3096 11.75 19C11.75 19.6904 12.3096 20.25 13 20.25H14C14.4142 20.25 14.75 20.5858 14.75 21C14.75 21.4142 14.4142 21.75 14 21.75H13C11.4812 21.75 10.25 20.5188 10.25 19C10.25 17.4812 11.4812 16.25 13 16.25H14C14.4142 16.25 14.75 16.5858 14.75 17C14.75 17.4142 14.4142 17.75 14 17.75H13ZM16.25 17C16.25 16.5858 16.5858 16.25 17 16.25H18C19.5188 16.25 20.75 17.4812 20.75 19C20.75 20.5188 19.5188 21.75 18 21.75H17C16.5858 21.75 16.25 21.4142 16.25 21C16.25 20.5858 16.5858 20.25 17 20.25H18C18.6904 20.25 19.25 19.6904 19.25 19C19.25 18.3096 18.6904 17.75 18 17.75H17C16.5858 17.75 16.25 17.4142 16.25 17ZM13.25 19C13.25 18.5858 13.5858 18.25 14 18.25H17C17.4142 18.25 17.75 18.5858 17.75 19C17.75 19.4142 17.4142 19.75 17 19.75H14C13.5858 19.75 13.25 19.4142 13.25 19Z" fill="black"/>
</svg>
