<svg width="24" height="24" viewBox="0 0 24 24" fill="none" xmlns="http://www.w3.org/2000/svg">
<path fill-rule="evenodd" clip-rule="evenodd" d="M9 1.75C9.41421 1.75 9.75 2.08579 9.75 2.5V3.34667C10.4474 3.27952 11.1973 3.25 12 3.25C12.8044 3.25 13.554 3.27973 14.25 3.34678V2.5C14.25 2.08579 14.5858 1.75 15 1.75C15.4142 1.75 15.75 2.08579 15.75 2.5V3.56879C16.4966 3.72474 17.1652 3.94424 17.7576 4.24087C19.2592 4.99273 20.201 6.20317 20.7177 7.9077C20.8379 8.3041 20.614 8.72286 20.2176 8.84304C19.8212 8.96322 19.4024 8.7393 19.2823 8.34291C18.8684 6.97771 18.1712 6.1255 17.086 5.58213C16.7002 5.38894 16.2576 5.2309 15.75 5.10645V6.5C15.75 6.91421 15.4142 7.25 15 7.25C14.5858 7.25 14.25 6.91421 14.25 6.5V4.85455C13.5844 4.78423 12.8377 4.75 12 4.75C11.1606 4.75 10.4141 4.78447 9.75 4.85466V6.5C9.75 6.91421 9.41421 7.25 9 7.25C8.58579 7.25 8.25 6.91421 8.25 6.5V5.10652C7.29173 5.34137 6.57 5.69471 6.02334 6.17382C5.04324 7.0328 4.4837 8.42591 4.30951 10.75H15C15.4142 10.75 15.75 11.0858 15.75 11.5C15.75 11.9142 15.4142 12.25 15 12.25H4.25103C4.25034 12.3325 4.25 12.4158 4.25 12.5C4.25 15.7221 4.75773 17.5721 5.84283 18.6572C6.92793 19.7423 8.77793 20.25 12 20.25C13.1075 20.25 14.0626 20.1905 14.8857 20.0635C15.295 20.0004 15.6781 20.2811 15.7412 20.6904C15.8044 21.0998 15.5237 21.4829 15.1143 21.546C14.1928 21.6882 13.1568 21.75 12 21.75C8.72207 21.75 6.32207 21.2577 4.78217 19.7178C3.24227 18.1779 2.75 15.7779 2.75 12.5C2.75 12.146 2.75576 11.8036 2.76783 11.4726C2.87401 8.56306 3.46873 6.41819 5.03467 5.04576C5.8766 4.30786 6.94723 3.84088 8.25 3.56869V2.5C8.25 2.08579 8.58579 1.75 9 1.75ZM20 11.25C20.4142 11.25 20.75 11.5858 20.75 12V18.5C20.75 18.9142 20.4142 19.25 20 19.25C19.5858 19.25 19.25 18.9142 19.25 18.5V12C19.25 11.5858 19.5858 11.25 20 11.25ZM20 20.25C20.4142 20.25 20.75 20.5858 20.75 21V21.01C20.75 21.4242 20.4142 21.76 20 21.76C19.5858 21.76 19.25 21.4242 19.25 21.01V21C19.25 20.5858 19.5858 20.25 20 20.25Z" fill="black"/>
</svg>
