<svg width="24" height="24" viewBox="0 0 24 24" fill="none" xmlns="http://www.w3.org/2000/svg">
<path fill-rule="evenodd" clip-rule="evenodd" d="M9 1.75C9.41421 1.75 9.75 2.08579 9.75 2.5V3.34667C10.4474 3.27952 11.1973 3.25 12 3.25C12.8035 3.25 13.5533 3.27961 14.25 3.34671V2.5C14.25 2.08579 14.5858 1.75 15 1.75C15.4142 1.75 15.75 2.08579 15.75 2.5V3.56876C16.7477 3.77721 17.6079 4.09962 18.3337 4.56939C19.9004 5.5836 20.7076 7.19165 21.046 9.38567C21.1092 9.79504 20.8285 10.1781 20.4191 10.2412C20.0097 10.3044 19.6267 10.0237 19.5635 9.61433C19.264 7.67234 18.6027 6.53039 17.5186 5.8286C17.042 5.52013 16.4605 5.28059 15.75 5.10646V6.5C15.75 6.91421 15.4142 7.25 15 7.25C14.5858 7.25 14.25 6.91421 14.25 6.5V4.85461C13.5852 4.78437 12.8386 4.75 12 4.75C11.1606 4.75 10.4141 4.78447 9.75 4.85466V6.5C9.75 6.91421 9.41421 7.25 9 7.25C8.58579 7.25 8.25 6.91421 8.25 6.5V5.10652C7.29173 5.34137 6.57 5.69471 6.02334 6.17382C5.04324 7.0328 4.4837 8.42591 4.30951 10.75H9C9.41421 10.75 9.75 11.0858 9.75 11.5C9.75 11.9142 9.41421 12.25 9 12.25H4.25103C4.25034 12.3325 4.25 12.4158 4.25 12.5C4.25 14.9211 4.53609 16.5796 5.15028 17.7171C5.73632 18.8023 6.665 19.4916 8.18447 19.8771C8.58596 19.979 8.82884 20.3871 8.72696 20.7885C8.62508 21.19 8.21702 21.4329 7.81553 21.331C5.97594 20.8642 4.65462 19.9561 3.83042 18.4298C3.03438 16.9556 2.75 14.9883 2.75 12.5C2.75 12.146 2.75576 11.8036 2.76783 11.4726C2.87401 8.56306 3.46873 6.41819 5.03467 5.04576C5.8766 4.30786 6.94723 3.84088 8.25 3.56869V2.5C8.25 2.08579 8.58579 1.75 9 1.75ZM16 11.75C15.3096 11.75 14.75 12.3096 14.75 13C14.75 13.6903 15.3096 14.25 16 14.25C16.6904 14.25 17.25 13.6903 17.25 13C17.25 12.3096 16.6904 11.75 16 11.75ZM13.25 13C13.25 11.4812 14.4812 10.25 16 10.25C17.5188 10.25 18.75 11.4812 18.75 13C18.75 14.5188 17.5188 15.75 16 15.75C14.4812 15.75 13.25 14.5188 13.25 13ZM15.9299 17C15.9546 17 15.9779 17 16 17C16.0221 17 16.0454 17 16.0701 17C16.5812 16.9993 17.6313 16.9978 18.5772 17.2626C19.0768 17.4025 19.6132 17.6334 20.0333 18.034C20.4756 18.4559 20.75 19.0308 20.75 19.75C20.75 20.8546 19.8546 21.75 18.75 21.75H13.25C12.1454 21.75 11.25 20.8546 11.25 19.75C11.25 19.0308 11.5244 18.4559 11.9667 18.034C12.3868 17.6334 12.9232 17.4025 13.4228 17.2626C14.3687 16.9978 15.4188 16.9993 15.9299 17ZM13.002 19.1195C12.8506 19.2639 12.75 19.449 12.75 19.75C12.75 20.0261 12.9739 20.25 13.25 20.25H18.75C19.0261 20.25 19.25 20.0261 19.25 19.75C19.25 19.449 19.1494 19.2639 18.998 19.1195C18.8243 18.9538 18.5482 18.8122 18.1728 18.7071C17.4319 18.4997 16.5617 18.4999 16.0368 18.5H15.9632C15.4383 18.4999 14.5681 18.4997 13.8272 18.7071C13.4518 18.8122 13.1757 18.9538 13.002 19.1195Z" fill="black"/>
</svg>
