<svg width="24" height="24" viewBox="0 0 24 24" fill="none" xmlns="http://www.w3.org/2000/svg">
<path fill-rule="evenodd" clip-rule="evenodd" d="M9 1.75C9.41421 1.75 9.75 2.08579 9.75 2.5V3.34667C10.4474 3.27952 11.1973 3.25 12 3.25C12.8035 3.25 13.5533 3.27961 14.25 3.34671V2.5C14.25 2.08579 14.5858 1.75 15 1.75C15.4142 1.75 15.75 2.08579 15.75 2.5V3.56876C16.7477 3.77721 17.6079 4.09962 18.3337 4.56939C19.9004 5.5836 20.7076 7.19165 21.046 9.38567C21.1092 9.79504 20.8285 10.1781 20.4191 10.2412C20.0097 10.3044 19.6267 10.0237 19.5635 9.61433C19.264 7.67234 18.6027 6.53039 17.5186 5.8286C17.042 5.52013 16.4605 5.28059 15.75 5.10646V6.5C15.75 6.91421 15.4142 7.25 15 7.25C14.5858 7.25 14.25 6.91421 14.25 6.5V4.85461C13.5852 4.78437 12.8386 4.75 12 4.75C11.1606 4.75 10.4141 4.78447 9.75 4.85466V6.5C9.75 6.91421 9.41421 7.25 9 7.25C8.58579 7.25 8.25 6.91421 8.25 6.5V5.10652C7.29173 5.34137 6.57 5.69471 6.02334 6.17382C5.04324 7.0328 4.4837 8.42591 4.30951 10.75H9C9.41421 10.75 9.75 11.0858 9.75 11.5C9.75 11.9142 9.41421 12.25 9 12.25H4.25103C4.25034 12.3325 4.25 12.4158 4.25 12.5C4.25 14.9211 4.53609 16.5796 5.15028 17.7171C5.73632 18.8023 6.665 19.4916 8.18447 19.8771C8.58596 19.979 8.82884 20.3871 8.72696 20.7885C8.62508 21.19 8.21702 21.4329 7.81553 21.331C5.97594 20.8642 4.65462 19.9561 3.83042 18.4298C3.03438 16.9556 2.75 14.9883 2.75 12.5C2.75 12.146 2.75576 11.8036 2.76783 11.4726C2.87401 8.56306 3.46873 6.41819 5.03467 5.04576C5.8766 4.30786 6.94723 3.84088 8.25 3.56869V2.5C8.25 2.08579 8.58579 1.75 9 1.75ZM20.3875 14.4697C20.6804 14.7626 20.6804 15.2374 20.3875 15.5303L14.1876 21.7302C13.8947 22.0231 13.4199 22.0231 13.127 21.7302L10.4697 19.0731C10.1768 18.7802 10.1768 18.3054 10.4697 18.0125C10.7626 17.7196 11.2375 17.7196 11.5304 18.0124L13.6573 20.1392L19.3269 14.4697C19.6197 14.1768 20.0946 14.1768 20.3875 14.4697Z" fill="black"/>
</svg>
