<svg width="24" height="24" viewBox="0 0 24 24" fill="none" xmlns="http://www.w3.org/2000/svg">
<path fill-rule="evenodd" clip-rule="evenodd" d="M9 1.75C9.41421 1.75 9.75 2.08579 9.75 2.5V3.34667C10.4474 3.27952 11.1973 3.25 12 3.25C12.8027 3.25 13.5526 3.27952 14.25 3.34667V2.5C14.25 2.08579 14.5858 1.75 15 1.75C15.4142 1.75 15.75 2.08579 15.75 2.5V3.56869C17.0528 3.84088 18.1234 4.30786 18.9653 5.04576C20.5312 6.41819 21.1259 8.56307 21.2321 11.4726C21.2442 11.8035 21.25 12.1458 21.25 12.5C21.25 15.7779 20.7577 18.1779 19.2178 19.7178C17.6779 21.2577 15.2779 21.75 12 21.75C8.72207 21.75 6.32207 21.2577 4.78217 19.7178C3.24227 18.1779 2.75 15.7779 2.75 12.5C2.75 12.146 2.75576 11.8036 2.76783 11.4726C2.87401 8.56306 3.46873 6.41819 5.03467 5.04576C5.8766 4.30786 6.94723 3.84088 8.25 3.56869V2.5C8.25 2.08579 8.58579 1.75 9 1.75ZM8.25 5.10652C7.29173 5.34137 6.57 5.69471 6.02334 6.17382C5.04324 7.0328 4.4837 8.42591 4.30951 10.75H19.6904C19.5162 8.4259 18.9567 7.03279 17.9766 6.17382C17.43 5.69471 16.7083 5.34137 15.75 5.10653V6.5C15.75 6.91421 15.4142 7.25 15 7.25C14.5858 7.25 14.25 6.91421 14.25 6.5V4.85466C13.5859 4.78447 12.8394 4.75 12 4.75C11.1606 4.75 10.4141 4.78447 9.75 4.85466V6.5C9.75 6.91421 9.41421 7.25 9 7.25C8.58579 7.25 8.25 6.91421 8.25 6.5V5.10652ZM19.749 12.25H4.25103C4.25034 12.3325 4.25 12.4158 4.25 12.5C4.25 15.7221 4.75773 17.5721 5.84283 18.6572C6.92793 19.7423 8.77793 20.25 12 20.25C15.2221 20.25 17.0721 19.7423 18.1572 18.6572C19.2423 17.5721 19.75 15.7221 19.75 12.5C19.75 12.4158 19.7497 12.3325 19.749 12.25Z" fill="black"/>
</svg>
