<svg width="24" height="24" viewBox="0 0 24 24" fill="none" xmlns="http://www.w3.org/2000/svg">
<path fill-rule="evenodd" clip-rule="evenodd" d="M2.46967 2.46967C2.76256 2.17678 3.23744 2.17678 3.53033 2.46967L21.5303 20.4697C21.8232 20.7626 21.8232 21.2374 21.5303 21.5303C21.2374 21.8232 20.7626 21.8232 20.4697 21.5303L2.46967 3.53033C2.17678 3.23744 2.17678 2.76256 2.46967 2.46967ZM9.25 5C9.25 4.58579 9.58579 4.25 10 4.25C11.5838 4.25 13.0748 4.34882 14.2289 4.49936C14.8044 4.57441 15.3103 4.66414 15.7082 4.76531C15.9064 4.8157 16.0925 4.87258 16.2532 4.9379C16.3944 4.9953 16.5946 5.08945 16.7526 5.24745C16.9481 5.44297 17.0562 5.71624 17.1209 5.90433C17.1974 6.12708 17.2653 6.39621 17.3257 6.69347C17.3942 7.03046 17.4569 7.42326 17.5119 7.85853L20.6727 6.32521C20.8759 6.2266 21.1128 6.22488 21.3175 6.32051C21.5222 6.41613 21.6728 6.59893 21.7276 6.8181L21 7C21.7276 6.8181 21.7276 6.81796 21.7276 6.8181L21.728 6.81947L21.7285 6.82158L21.7301 6.82798L21.7352 6.84948C21.7396 6.86764 21.7456 6.89343 21.7531 6.9266C21.7681 6.99294 21.7889 7.08882 21.8136 7.21229C21.863 7.45918 21.9279 7.81664 21.9925 8.26893C22.1216 9.17305 22.25 10.4589 22.25 12C22.25 13.5411 22.1216 14.827 21.9925 15.7311C21.9279 16.1834 21.863 16.5408 21.8136 16.7877C21.7889 16.9112 21.7681 17.0071 21.7531 17.0734C21.7456 17.1066 21.7396 17.1324 21.7352 17.1505L21.7301 17.172L21.7285 17.1784L21.728 17.1805L21.7277 17.1816C21.7277 17.1818 21.7276 17.1819 21 17L21.7277 17.1816C21.6272 17.5835 21.22 17.8281 20.8181 17.7276C20.4163 17.6272 20.172 17.2201 20.2723 16.8183L20.2728 16.8163L20.276 16.8031C20.279 16.7905 20.2837 16.7704 20.2899 16.743C20.3023 16.6882 20.3205 16.6044 20.3427 16.4935C20.3871 16.2717 20.4472 15.9416 20.5075 15.5189C20.6284 14.673 20.75 13.4589 20.75 12C20.75 10.5411 20.6284 9.32695 20.5075 8.48107C20.488 8.34438 20.4685 8.21739 20.4496 8.10061L17.6641 9.45186C17.7185 10.2415 17.75 11.1054 17.75 12C17.75 12.4142 17.4142 12.75 17 12.75C16.5858 12.75 16.25 12.4142 16.25 12C16.25 10.9479 16.2046 9.94255 16.1299 9.06351C16.0587 8.22588 15.9619 7.51456 15.8557 6.99208C15.8024 6.72952 15.7497 6.52985 15.7023 6.39191C15.6928 6.3641 15.6843 6.34131 15.677 6.32293C15.6022 6.29341 15.491 6.2578 15.3386 6.21906C15.0196 6.13794 14.5776 6.05754 14.0349 5.98676C12.953 5.84563 11.5273 5.75 10 5.75C9.58579 5.75 9.25 5.41421 9.25 5ZM3.31863 7.25571C3.72969 7.30672 4.02157 7.6813 3.97056 8.09236C3.8383 9.15817 3.75 10.5324 3.75 12C3.75 13.5273 3.84563 14.953 3.98676 16.0349C4.05754 16.5776 4.13794 17.0196 4.21906 17.3386C4.25781 17.491 4.29343 17.6022 4.32296 17.677C4.39777 17.7066 4.50897 17.7422 4.66136 17.7809C4.98044 17.8621 5.42242 17.9425 5.96506 18.0132C7.04705 18.1544 8.47269 18.25 10 18.25C11.4676 18.25 12.8418 18.1617 13.9076 18.0294C14.3187 17.9784 14.6933 18.2703 14.7443 18.6814C14.7953 19.0924 14.5034 19.467 14.0924 19.518C12.9588 19.6587 11.5225 19.75 10 19.75C8.4162 19.75 6.92518 19.6512 5.77105 19.5006C5.19564 19.4256 4.6897 19.3359 4.29176 19.2347C4.09356 19.1843 3.9075 19.1274 3.74679 19.0621C3.60556 19.0047 3.40545 18.9106 3.24745 18.7526C3.08945 18.5946 2.9953 18.3944 2.9379 18.2532C2.87258 18.0925 2.8157 17.9064 2.76531 17.7082C2.66414 17.3103 2.57441 16.8044 2.49936 16.2289C2.34882 15.0748 2.25 13.5838 2.25 12C2.25 10.4775 2.34132 9.04116 2.48198 7.90764C2.53299 7.49658 2.90757 7.2047 3.31863 7.25571Z" fill="black"/>
</svg>
