<svg width="24" height="24" viewBox="0 0 24 24" fill="none" xmlns="http://www.w3.org/2000/svg">
<path fill-rule="evenodd" clip-rule="evenodd" d="M4.32296 6.32296C4.29343 6.39777 4.25781 6.50897 4.21906 6.66136C4.13794 6.98044 4.05754 7.42242 3.98676 7.96506C3.84563 9.04705 3.75 10.4727 3.75 12C3.75 13.5273 3.84563 14.953 3.98676 16.0349C4.05754 16.5776 4.13794 17.0196 4.21906 17.3386C4.25781 17.491 4.29343 17.6022 4.32296 17.677C4.39777 17.7066 4.50897 17.7422 4.66136 17.7809C4.98044 17.8621 5.42242 17.9425 5.96506 18.0132C7.04705 18.1544 8.47269 18.25 10 18.25C11.5273 18.25 12.953 18.1544 14.0349 18.0132C14.5776 17.9425 15.0196 17.8621 15.3386 17.7809C15.491 17.7422 15.6022 17.7066 15.677 17.6771C15.6843 17.6587 15.6928 17.6359 15.7023 17.6081C15.7497 17.4701 15.8024 17.2705 15.8557 17.0079C15.9619 16.4854 16.0587 15.7741 16.1299 14.9365C16.2046 14.0574 16.25 13.0521 16.25 12C16.25 10.9479 16.2046 9.94255 16.1299 9.06351C16.0587 8.22588 15.9619 7.51456 15.8557 6.99208C15.8024 6.72952 15.7497 6.52985 15.7023 6.39191C15.6928 6.3641 15.6843 6.34131 15.677 6.32293C15.6022 6.29341 15.491 6.2578 15.3386 6.21906C15.0196 6.13794 14.5776 6.05754 14.0349 5.98676C12.953 5.84563 11.5273 5.75 10 5.75C8.47269 5.75 7.04705 5.84563 5.96506 5.98676C5.42242 6.05754 4.98044 6.13794 4.66136 6.21906C4.50897 6.25781 4.39777 6.29343 4.32296 6.32296ZM5.77105 4.49936C6.92518 4.34882 8.4162 4.25 10 4.25C11.5838 4.25 13.0748 4.34882 14.2289 4.49936C14.8044 4.57441 15.3103 4.66414 15.7082 4.76531C15.9064 4.8157 16.0925 4.87258 16.2532 4.9379C16.3944 4.9953 16.5946 5.08945 16.7526 5.24745C16.9481 5.44297 17.0562 5.71624 17.1209 5.90433C17.1974 6.12708 17.2653 6.39621 17.3257 6.69347C17.3942 7.03046 17.4569 7.42326 17.5119 7.85853L20.6727 6.32521C20.8759 6.2266 21.1128 6.22488 21.3175 6.32051C21.5222 6.41613 21.6728 6.59893 21.7276 6.8181L21 7C21.7276 6.8181 21.7276 6.81796 21.7276 6.8181L21.728 6.81947L21.7285 6.82158L21.7301 6.82798L21.7352 6.84948C21.7396 6.86764 21.7456 6.89343 21.7531 6.9266C21.7681 6.99294 21.7889 7.08882 21.8136 7.21229C21.863 7.45918 21.9279 7.81664 21.9925 8.26893C22.1216 9.17305 22.25 10.4589 22.25 12C22.25 13.5411 22.1216 14.827 21.9925 15.7311C21.9279 16.1834 21.863 16.5408 21.8136 16.7877C21.7889 16.9112 21.7681 17.0071 21.7531 17.0734C21.7456 17.1066 21.7396 17.1324 21.7352 17.1505L21.7301 17.172L21.7285 17.1784L21.728 17.1805L21.7277 17.1816C21.7277 17.1818 21.7276 17.1819 21 17L21.7277 17.1816C21.6729 17.4008 21.5222 17.5839 21.3175 17.6795C21.1128 17.7751 20.8759 17.7734 20.6727 17.6748L17.5119 16.1415C17.4569 16.5767 17.3942 16.9695 17.3257 17.3065C17.2653 17.6038 17.1974 17.8729 17.1209 18.0957C17.0562 18.2838 16.9481 18.557 16.7526 18.7526C16.5946 18.9106 16.3944 19.0047 16.2532 19.0621C16.0925 19.1274 15.9064 19.1843 15.7082 19.2347C15.3103 19.3359 14.8044 19.4256 14.2289 19.5006C13.0748 19.6512 11.5838 19.75 10 19.75C8.4162 19.75 6.92518 19.6512 5.77105 19.5006C5.19564 19.4256 4.6897 19.3359 4.29176 19.2347C4.09356 19.1843 3.9075 19.1274 3.74679 19.0621C3.60556 19.0047 3.40545 18.9106 3.24745 18.7526C3.08945 18.5946 2.9953 18.3944 2.9379 18.2532C2.87258 18.0925 2.8157 17.9064 2.76531 17.7082C2.66414 17.3103 2.57441 16.8044 2.49936 16.2289C2.34882 15.0748 2.25 13.5838 2.25 12C2.25 10.4162 2.34882 8.92518 2.49936 7.77105C2.57441 7.19564 2.66414 6.6897 2.76531 6.29176C2.8157 6.09356 2.87258 5.9075 2.9379 5.74679C2.9953 5.60556 3.08945 5.40545 3.24745 5.24745C3.40545 5.08945 3.60556 4.9953 3.74679 4.9379C3.9075 4.87258 4.09356 4.8157 4.29176 4.76531C4.6897 4.66414 5.19564 4.57441 5.77105 4.49936ZM17.6641 14.5481L20.4496 15.8994C20.4685 15.7826 20.488 15.6556 20.5075 15.5189C20.6284 14.673 20.75 13.4589 20.75 12C20.75 10.5411 20.6284 9.32695 20.5075 8.48107C20.488 8.34438 20.4685 8.21739 20.4496 8.10061L17.6641 9.45186C17.7185 10.2415 17.75 11.1054 17.75 12C17.75 12.8946 17.7185 13.7585 17.6641 14.5481Z" fill="black"/>
</svg>
