<svg width="24" height="24" viewBox="0 0 24 24" fill="none" xmlns="http://www.w3.org/2000/svg">
<path fill-rule="evenodd" clip-rule="evenodd" d="M8.83391 7.53808C8.59805 7.76926 8.30364 7.84686 8.04431 7.86221C6.99266 7.92445 6.09355 8.00784 5.4252 8.10014C5.08993 8.14643 4.82401 8.19345 4.63092 8.23834C4.54069 8.25931 4.48101 8.27668 4.44464 8.28815C4.4155 8.33883 4.37727 8.41831 4.33358 8.53287C4.23691 8.78637 4.1375 9.14767 4.04854 9.60234C3.87137 10.5079 3.75 11.7093 3.75 13C3.75 14.2907 3.87137 15.4921 4.04854 16.3977C4.1375 16.8523 4.23691 17.2136 4.33358 17.4671C4.3773 17.5818 4.41554 17.6613 4.44469 17.7119C4.46372 17.718 4.48834 17.7254 4.51939 17.7338C4.63876 17.7661 4.80626 17.8018 5.02377 17.8387C5.45723 17.9121 6.04464 17.9829 6.75247 18.0445C8.16565 18.1674 10.0188 18.25 12 18.25C13.9812 18.25 15.8343 18.1674 17.2475 18.0445C17.9554 17.9829 18.5428 17.9121 18.9762 17.8387C19.1937 17.8018 19.3612 17.7661 19.4806 17.7338C19.5117 17.7254 19.5363 17.718 19.5553 17.7119C19.5845 17.6613 19.6227 17.5818 19.6664 17.4671C19.7631 17.2136 19.8625 16.8523 19.9515 16.3977C20.1286 15.4921 20.25 14.2907 20.25 13C20.25 11.7093 20.1286 10.5079 19.9515 9.60234C19.8625 9.14767 19.7631 8.78637 19.6664 8.53287C19.6227 8.41831 19.5845 8.33883 19.5554 8.28815C19.519 8.27668 19.4593 8.25931 19.3691 8.23834C19.176 8.19345 18.9101 8.14643 18.5748 8.10014C17.9065 8.00784 17.0073 7.92445 15.9557 7.86221C15.6964 7.84686 15.402 7.76926 15.1661 7.53808C14.9418 7.3183 14.8707 7.0545 14.8399 6.90042C14.822 6.81064 14.8041 6.66294 14.7939 6.57822C14.7906 6.55115 14.7881 6.53051 14.7866 6.52025C14.7732 6.42667 14.7585 6.37119 14.7404 6.32951L14.7403 6.32922C14.7226 6.2886 14.6657 6.15771 14.3046 6.023C13.9106 5.87599 13.2135 5.75 12 5.75C10.7865 5.75 10.0894 5.87599 9.69539 6.023C9.33435 6.15771 9.27741 6.2886 9.25974 6.32922L9.25961 6.32951C9.24148 6.37119 9.22678 6.42667 9.21336 6.52025C9.21189 6.53051 9.20939 6.55114 9.20612 6.5782C9.19588 6.6629 9.17802 6.81063 9.16009 6.90042C9.12931 7.0545 9.05816 7.3183 8.83391 7.53808ZM19.5242 8.24021C19.5242 8.24016 19.5249 8.24091 19.5261 8.24257C19.5248 8.24108 19.5242 8.24025 19.5242 8.24021ZM19.5242 17.7598C19.5242 17.7598 19.5248 17.759 19.526 17.7576C19.5248 17.7591 19.5242 17.7598 19.5242 17.7598ZM4.47579 17.7598C4.47579 17.7598 4.47513 17.7591 4.47386 17.7574C4.47517 17.7589 4.4758 17.7598 4.47579 17.7598ZM4.47579 8.24021C4.4758 8.24024 4.47517 8.24107 4.47386 8.24256C4.47513 8.24091 4.47578 8.24017 4.47579 8.24021ZM9.17102 4.61764C9.80957 4.37938 10.7135 4.25 12 4.25C13.2865 4.25 14.1904 4.37938 14.829 4.61764C15.4996 4.86787 15.9073 5.25183 16.1159 5.7311C16.2107 5.94921 16.2496 6.15461 16.2715 6.30733C16.2754 6.33455 16.2786 6.35835 16.2814 6.37937C17.2579 6.44136 18.1136 6.52221 18.78 6.61424C19.1388 6.66379 19.4541 6.7181 19.7087 6.77729C19.9274 6.82813 20.2094 6.90489 20.416 7.04263C20.6091 7.17135 20.7401 7.34933 20.8269 7.49174C20.9199 7.64425 20.9992 7.81815 21.068 7.99838C21.2057 8.35946 21.325 8.81066 21.4235 9.31432C21.6214 10.3254 21.75 11.6241 21.75 13C21.75 14.3759 21.6214 15.6746 21.4235 16.6857C21.325 17.1893 21.2057 17.6405 21.068 18.0016C20.9992 18.1818 20.9199 18.3558 20.8269 18.5083C20.7401 18.6507 20.6091 18.8287 20.416 18.9574C20.2449 19.0714 20.0332 19.1381 19.8729 19.1816C19.6895 19.2313 19.4703 19.2763 19.2269 19.3176C18.7385 19.4004 18.1071 19.4754 17.3775 19.5388C15.9157 19.666 14.0188 19.75 12 19.75C9.98122 19.75 8.08435 19.666 6.62253 19.5388C5.89286 19.4754 5.26152 19.4004 4.77311 19.3176C4.52968 19.2763 4.31046 19.2313 4.12709 19.1816C3.9668 19.1381 3.75509 19.0714 3.58398 18.9574C3.3909 18.8287 3.25994 18.6507 3.17311 18.5083C3.08013 18.3558 3.00077 18.1818 2.93204 18.0016C2.79434 17.6405 2.675 17.1893 2.57646 16.6857C2.37863 15.6746 2.25 14.3759 2.25 13C2.25 11.6241 2.37863 10.3254 2.57646 9.31432C2.675 8.81066 2.79434 8.35946 2.93204 7.99838C3.00077 7.81815 3.08013 7.64425 3.17311 7.49174C3.25994 7.34933 3.3909 7.17135 3.58397 7.04263C3.79059 6.90489 4.07258 6.82813 4.29129 6.77729C4.54591 6.7181 4.86119 6.66379 5.22001 6.61424C5.88642 6.52221 6.74212 6.44135 7.71861 6.37936C7.72138 6.35835 7.72464 6.33455 7.72855 6.30733C7.75045 6.15461 7.78926 5.94921 7.88415 5.7311C8.09266 5.25183 8.50038 4.86787 9.17102 4.61764ZM7.68611 6.61942C7.68606 6.61933 7.68649 6.61752 7.68751 6.61423C7.68666 6.61786 7.68615 6.6195 7.68611 6.61942ZM16.3139 6.61942C16.3138 6.6195 16.3133 6.61786 16.3125 6.61425C16.3135 6.61753 16.3139 6.61933 16.3139 6.61942ZM12 10.75C10.7574 10.75 9.75 11.7574 9.75 13C9.75 14.2426 10.7574 15.25 12 15.25C13.2426 15.25 14.25 14.2426 14.25 13C14.25 11.7574 13.2426 10.75 12 10.75ZM8.25 13C8.25 10.9289 9.92893 9.25 12 9.25C14.0711 9.25 15.75 10.9289 15.75 13C15.75 15.0711 14.0711 16.75 12 16.75C9.92893 16.75 8.25 15.0711 8.25 13Z" fill="black"/>
</svg>
