<svg width="24" height="24" viewBox="0 0 24 24" fill="none" xmlns="http://www.w3.org/2000/svg">
<path fill-rule="evenodd" clip-rule="evenodd" d="M2.46967 2.46967C2.76256 2.17678 3.23744 2.17678 3.53033 2.46967L21.5303 20.4697C21.8232 20.7626 21.8232 21.2374 21.5303 21.5303C21.2374 21.8232 20.7626 21.8232 20.4697 21.5303L2.46967 3.53033C2.17678 3.23744 2.17678 2.76256 2.46967 2.46967ZM12 5.75C11.1686 5.75 10.5745 5.80895 10.1518 5.89629C9.74611 5.98011 9.34933 5.71921 9.26551 5.31357C9.1817 4.90792 9.4426 4.51114 9.84824 4.42732C10.4032 4.31267 11.1061 4.25 12 4.25C13.2865 4.25 14.1904 4.37938 14.829 4.61764C15.4996 4.86787 15.9073 5.25183 16.1159 5.7311C16.2107 5.94921 16.2496 6.15461 16.2715 6.30733C16.2754 6.33455 16.2786 6.35835 16.2814 6.37937C17.2579 6.44136 18.1136 6.52221 18.78 6.61424C19.1388 6.66379 19.4541 6.7181 19.7087 6.77729C19.9274 6.82813 20.2094 6.90489 20.416 7.04263C20.6091 7.17135 20.7401 7.34933 20.8269 7.49174C20.9199 7.64425 20.9992 7.81815 21.068 7.99838C21.2057 8.35946 21.325 8.81066 21.4235 9.31432C21.6214 10.3254 21.75 11.6241 21.75 13C21.75 14.131 21.6631 15.2078 21.5231 16.1145C21.4598 16.5238 21.0767 16.8044 20.6674 16.7412C20.258 16.678 19.9774 16.2949 20.0406 15.8855C20.1684 15.0582 20.25 14.0582 20.25 13C20.25 11.7093 20.1286 10.5079 19.9515 9.60234C19.8625 9.14767 19.7631 8.78637 19.6664 8.53287C19.6227 8.41831 19.5845 8.33883 19.5554 8.28815C19.519 8.27668 19.4593 8.25931 19.3691 8.23834C19.176 8.19345 18.9101 8.14643 18.5748 8.10013C17.9064 8.00784 17.0073 7.92445 15.9557 7.86221C15.6964 7.84686 15.402 7.76926 15.1661 7.53808C14.9418 7.3183 14.8707 7.0545 14.8399 6.90042C14.822 6.81064 14.8041 6.66294 14.7939 6.57822C14.7906 6.55115 14.7881 6.53051 14.7866 6.52025C14.7732 6.42667 14.7585 6.37119 14.7404 6.32951L14.7403 6.32922C14.7226 6.2886 14.6657 6.15771 14.3046 6.023C13.9106 5.87599 13.2135 5.75 12 5.75ZM19.5242 8.24021C19.5242 8.24018 19.5249 8.24095 19.5262 8.24265C19.5248 8.24109 19.5242 8.24024 19.5242 8.24021ZM16.3139 6.61942C16.3138 6.6195 16.3133 6.61786 16.3125 6.61424C16.3135 6.61752 16.3139 6.61933 16.3139 6.61942ZM4.08614 7.33035C4.45598 7.51688 4.60458 7.9679 4.41805 8.33774C4.27068 8.62995 4.09755 9.23143 3.9639 10.0853C3.83354 10.9181 3.75 11.9293 3.75 13C3.75 14.2907 3.87137 15.4921 4.04854 16.3977C4.1375 16.8523 4.23691 17.2136 4.33358 17.4671C4.3773 17.5818 4.41554 17.6613 4.44469 17.7119C4.46372 17.718 4.48834 17.7254 4.51939 17.7338C4.63876 17.7661 4.80626 17.8018 5.02377 17.8387C5.45723 17.9121 6.04464 17.9829 6.75247 18.0445C8.16565 18.1674 10.0188 18.25 12 18.25C13.0388 18.25 14.0432 18.2273 14.9681 18.1879C15.3819 18.1702 15.7317 18.4914 15.7493 18.9052C15.767 19.3191 15.4458 19.6689 15.0319 19.6865C14.0859 19.7268 13.0602 19.75 12 19.75C9.98122 19.75 8.08435 19.666 6.62253 19.5388C5.89286 19.4754 5.26152 19.4004 4.77311 19.3176C4.52968 19.2763 4.31046 19.2313 4.12709 19.1816C3.9668 19.1381 3.75509 19.0714 3.58398 18.9574C3.3909 18.8287 3.25994 18.6507 3.17311 18.5083C3.08013 18.3558 3.00077 18.1818 2.93204 18.0016C2.79434 17.6405 2.675 17.1893 2.57646 16.6857C2.37863 15.6746 2.25 14.3759 2.25 13C2.25 11.8557 2.33896 10.7668 2.48194 9.85331C2.62164 8.9609 2.82271 8.16991 3.07875 7.66226C3.26528 7.29242 3.71631 7.14382 4.08614 7.33035ZM4.47579 17.7598C4.47578 17.7598 4.47513 17.7591 4.47386 17.7574C4.47517 17.7589 4.4758 17.7598 4.47579 17.7598ZM9 12.25C9.41421 12.25 9.75 12.5858 9.75 13C9.75 14.2426 10.7574 15.25 12 15.25C12.4142 15.25 12.75 15.5858 12.75 16C12.75 16.4142 12.4142 16.75 12 16.75C9.92893 16.75 8.25 15.0711 8.25 13C8.25 12.5858 8.58579 12.25 9 12.25Z" fill="black"/>
</svg>
