<svg width="24" height="24" viewBox="0 0 24 24" fill="none" xmlns="http://www.w3.org/2000/svg">
<path fill-rule="evenodd" clip-rule="evenodd" d="M3.25 7C3.25 4.92893 4.92893 3.25 7 3.25H11C13.0711 3.25 14.75 4.92893 14.75 7C14.75 7.41421 14.4142 7.75 14 7.75C13.5858 7.75 13.25 7.41421 13.25 7C13.25 5.75736 12.2426 4.75 11 4.75H7C5.75736 4.75 4.75 5.75736 4.75 7V17C4.75 18.2426 5.75736 19.25 7 19.25H10C10.4142 19.25 10.75 19.5858 10.75 20C10.75 20.4142 10.4142 20.75 10 20.75H7C4.92893 20.75 3.25 19.0711 3.25 17V7ZM7 7.25C7.41421 7.25 7.75 7.58579 7.75 8V8.00999C7.75 8.42421 7.41421 8.75999 7 8.75999C6.58579 8.75999 6.25 8.42421 6.25 8.00999V8C6.25 7.58579 6.58579 7.25 7 7.25ZM11 7.25C11.4142 7.25 11.75 7.58579 11.75 8V8.00999C11.75 8.42421 11.4142 8.75999 11 8.75999C10.5858 8.75999 10.25 8.42421 10.25 8.00999V8C10.25 7.58579 10.5858 7.25 11 7.25ZM13.7467 10.5393C14.4784 8.64384 16.6081 7.7004 18.5036 8.4321C20.3991 9.1638 21.3426 11.2936 20.6108 13.1891L18.5013 18.6539C17.7696 20.5494 15.6398 21.4928 13.7443 20.7611C11.8489 20.0294 10.9054 17.8997 11.6371 16.0042L13.7467 10.5393ZM17.9634 9.83146C16.8408 9.39809 15.5794 9.95687 15.146 11.0795L14.3613 13.1123L18.4268 14.6816L19.2115 12.6489C19.6449 11.5262 19.0861 10.2648 17.9634 9.83146ZM17.8866 16.081L13.8212 14.5116L13.0365 16.5444C12.6031 17.667 13.1619 18.9284 14.2845 19.3618C15.4072 19.7951 16.6686 19.2364 17.1019 18.1137L17.8866 16.081ZM7 11.25C7.41421 11.25 7.75 11.5858 7.75 12V12.01C7.75 12.4242 7.41421 12.76 7 12.76C6.58579 12.76 6.25 12.4242 6.25 12.01V12C6.25 11.5858 6.58579 11.25 7 11.25ZM11 11.25C11.4142 11.25 11.75 11.5858 11.75 12V12.01C11.75 12.4242 11.4142 12.76 11 12.76C10.5858 12.76 10.25 12.4242 10.25 12.01V12C10.25 11.5858 10.5858 11.25 11 11.25ZM7 15.25C7.41421 15.25 7.75 15.5858 7.75 16V16.01C7.75 16.4242 7.41421 16.76 7 16.76C6.58579 16.76 6.25 16.4242 6.25 16.01V16C6.25 15.5858 6.58579 15.25 7 15.25Z" fill="black"/>
</svg>
