<svg width="24" height="24" viewBox="0 0 24 24" fill="none" xmlns="http://www.w3.org/2000/svg">
<path fill-rule="evenodd" clip-rule="evenodd" d="M4.89008 5.94951C4.21411 6.74613 3.75 7.98756 3.75 9.71405C3.75 10.4205 3.87839 11.0994 4.10752 11.75L7.53647 11.75L7.88197 11.059C8.34262 10.1377 9.65738 10.1377 10.118 11.059L10.973 12.7689L12.8565 8.68797C13.3068 7.71216 14.6972 7.72201 15.1337 8.70412L16.4874 11.75L19.8925 11.75C20.1216 11.0994 20.25 10.4205 20.25 9.71405C20.25 7.99082 19.7788 6.74904 19.098 5.95102C18.4237 5.16058 17.4991 4.75 16.4543 4.75C15.4566 4.75 14.494 5.16076 13.7799 5.90131L13.2597 6.44076C12.5715 7.15445 11.4285 7.15445 10.7403 6.44076L10.2201 5.90131C9.50598 5.16076 8.54338 4.75 7.54569 4.75C6.48125 4.75 5.5583 5.16201 4.89008 5.94951ZM19.1672 13.25L16.3249 13.25C15.8309 13.25 15.3833 12.9591 15.1827 12.5077L13.9871 9.81768L12.1169 13.8698C11.6777 14.8214 10.3327 14.8424 9.86394 13.9049L9 12.1771L8.80902 12.559C8.59728 12.9825 8.16445 13.25 7.69098 13.25L4.83276 13.25C5.86223 14.9222 7.4733 16.3282 8.98104 17.3819C9.8767 18.0079 10.7129 18.4936 11.3246 18.8226C11.602 18.9717 11.8323 19.0881 12 19.1703C12.1677 19.0881 12.398 18.9717 12.6754 18.8226C13.2871 18.4936 14.1233 18.0079 15.019 17.3819C16.5267 16.3282 18.1378 14.9222 19.1672 13.25ZM12 20C11.6954 20.6854 11.6952 20.6853 11.695 20.6852L11.6929 20.6842L11.6881 20.6821L11.6716 20.6746C11.6576 20.6683 11.6377 20.6592 11.6121 20.6473C11.5609 20.6236 11.4873 20.5889 11.3937 20.5434C11.2066 20.4526 10.9397 20.3187 10.6142 20.1437C9.9641 19.7941 9.07597 19.2783 8.12179 18.6114C6.23494 17.2928 3.99525 15.319 2.90759 12.797C2.49834 11.8481 2.25 10.8164 2.25 9.71405C2.25 7.72648 2.78589 6.1109 3.74634 4.979C4.71455 3.83799 6.06444 3.25 7.54569 3.25C8.95917 3.25 10.309 3.83256 11.2999 4.86011L11.82 5.39956C11.9184 5.50151 12.0816 5.50151 12.18 5.39956L12.7001 4.86011C13.691 3.83256 15.0408 3.25 16.4543 3.25C17.92 3.25 19.2683 3.83942 20.2392 4.97749C21.2036 6.10798 21.75 7.72323 21.75 9.71405C21.75 10.8164 21.5017 11.8481 21.0924 12.797C20.0047 15.319 17.7651 17.2928 15.8782 18.6114C14.924 19.2783 14.0359 19.7941 13.3858 20.1437C13.0603 20.3187 12.7934 20.4526 12.6063 20.5434C12.5127 20.5889 12.4391 20.6236 12.3879 20.6473C12.3623 20.6592 12.3424 20.6683 12.3284 20.6746L12.3119 20.6821L12.3071 20.6842L12.3056 20.6849C12.3053 20.685 12.3046 20.6854 12 20ZM12 20L12.3046 20.6854C12.1107 20.7715 11.8889 20.7714 11.695 20.6852L12 20Z" fill="black"/>
</svg>
