<svg width="24" height="24" viewBox="0 0 24 24" fill="none" xmlns="http://www.w3.org/2000/svg">
<path fill-rule="evenodd" clip-rule="evenodd" d="M12 3.75C10.2051 3.75 8.75 5.20507 8.75 7V7.25H15.25V7C15.25 5.20507 13.7949 3.75 12 3.75ZM16.75 7.31914V7C16.75 4.37665 14.6234 2.25 12 2.25C9.37665 2.25 7.25 4.37665 7.25 7V7.31914C5.78422 7.59756 4.80846 8.67547 4.213 9.79373C3.52497 11.0858 3.25 12.5837 3.25 13.5C3.25 16.5027 3.62805 18.5961 5.12215 19.8367C5.86012 20.4495 6.80144 20.7944 7.92094 20.9922C9.03775 21.1895 10.391 21.25 12 21.25C13.609 21.25 14.9622 21.1895 16.079 20.9922C17.1985 20.7944 18.1399 20.4495 18.8778 19.8367C20.3719 18.5961 20.75 16.5027 20.75 13.5C20.75 12.5837 20.475 11.0858 19.787 9.79373C19.1915 8.67547 18.2158 7.59756 16.75 7.31914ZM15.25 8.75V11C15.25 11.4142 15.5858 11.75 16 11.75C16.4142 11.75 16.75 11.4142 16.75 11V8.86756C17.4799 9.10854 18.0396 9.70351 18.463 10.4987C19.025 11.5541 19.25 12.8062 19.25 13.5C19.25 16.5232 18.8264 17.9298 17.9196 18.6827C17.4571 19.0667 16.7983 19.3419 15.8181 19.5151C14.8352 19.6887 13.5893 19.75 12 19.75C10.4107 19.75 9.16478 19.6887 8.18191 19.5151C7.20173 19.3419 6.54283 19.0667 6.08039 18.6827C5.17364 17.9298 4.75 16.5233 4.75 13.5C4.75 12.8062 4.97503 11.5541 5.537 10.4987C5.96044 9.70351 6.5201 9.10854 7.25 8.86756V11C7.25 11.4142 7.58579 11.75 8 11.75C8.41421 11.75 8.75 11.4142 8.75 11V8.75H15.25Z" fill="black"/>
</svg>
