<svg width="24" height="24" viewBox="0 0 24 24" fill="none" xmlns="http://www.w3.org/2000/svg">
<path fill-rule="evenodd" clip-rule="evenodd" d="M4.77639 3.77016C5.24222 2.83851 6.19444 2.25 7.23607 2.25H16.7639C17.8056 2.25 18.7578 2.83851 19.2236 3.77016L20.6708 6.66459C20.7229 6.76873 20.75 6.88357 20.75 7V13C20.75 14.602 20.6802 15.9318 20.45 17.0139C20.2173 18.1071 19.8093 19.0044 19.0924 19.6824C18.3799 20.3563 17.4406 20.7393 16.2905 20.96C15.1456 21.1797 13.7281 21.25 12 21.25C10.2719 21.25 8.85436 21.1797 7.70953 20.96C6.55944 20.7393 5.62012 20.3563 4.90763 19.6824C4.19072 19.0044 3.78266 18.1071 3.55005 17.0139C3.31979 15.9318 3.25 14.602 3.25 13V7C3.25 6.88357 3.27711 6.76873 3.32918 6.66459L4.77639 3.77016ZM7.23607 3.75C6.7626 3.75 6.32977 4.0175 6.11803 4.44098L5.21353 6.25H18.7865L17.882 4.44098C17.6702 4.0175 17.2374 3.75 16.7639 3.75H7.23607ZM19.25 7.75H4.75V13C4.75 14.5814 4.82121 15.7807 5.0172 16.7018C5.21083 17.6117 5.51426 18.1915 5.93835 18.5926C6.36685 18.9979 6.99803 19.2961 7.9922 19.4869C8.99162 19.6787 10.2921 19.75 12 19.75C13.7079 19.75 15.0084 19.6787 16.0078 19.4869C17.002 19.2961 17.6331 18.9979 18.0617 18.5926C18.4857 18.1915 18.7892 17.6117 18.9828 16.7018C19.1788 15.7807 19.25 14.5814 19.25 13V7.75ZM9 10.25C9.41421 10.25 9.75 10.5858 9.75 11C9.75 12.2426 10.7574 13.25 12 13.25C13.2426 13.25 14.25 12.2426 14.25 11C14.25 10.5858 14.5858 10.25 15 10.25C15.4142 10.25 15.75 10.5858 15.75 11C15.75 13.0711 14.0711 14.75 12 14.75C9.92893 14.75 8.25 13.0711 8.25 11C8.25 10.5858 8.58579 10.25 9 10.25Z" fill="black"/>
</svg>
