<svg width="24" height="24" viewBox="0 0 24 24" fill="none" xmlns="http://www.w3.org/2000/svg">
<path fill-rule="evenodd" clip-rule="evenodd" d="M4.48112 6.37099C4.47893 6.37512 4.47661 6.37955 4.47418 6.3843C4.4355 6.46001 4.38722 6.57816 4.33407 6.7457C4.22818 7.07946 4.123 7.54501 4.03155 8.11817C3.96629 8.52721 3.58179 8.80589 3.17275 8.74063C2.76371 8.67537 2.48503 8.29087 2.55029 7.88183C2.64848 7.26636 2.76798 6.72179 2.90429 6.29211C2.97224 6.07792 3.04944 5.87601 3.13843 5.70183C3.21953 5.5431 3.34506 5.33703 3.53955 5.18576C3.7137 5.05031 3.93227 4.96972 4.09718 4.91759C4.28468 4.85831 4.50747 4.80498 4.75295 4.75643C5.24553 4.65903 5.88031 4.57109 6.6118 4.49689C8.07758 4.34818 9.97807 4.25 12 4.25C14.0219 4.25 15.9224 4.34818 17.3882 4.49689C18.1197 4.57109 18.7545 4.65903 19.2471 4.75643C19.4925 4.80498 19.7153 4.85831 19.9028 4.91759C20.0677 4.96972 20.2863 5.05031 20.4605 5.18576C20.6487 5.33215 20.7714 5.52905 20.8512 5.68182C20.9384 5.84855 21.0138 6.04073 21.0801 6.24354C21.213 6.65025 21.3299 7.16394 21.4272 7.74401C21.6223 8.90783 21.75 10.408 21.75 12C21.75 13.592 21.6223 15.0922 21.4272 16.256C21.3299 16.8361 21.213 17.3497 21.0801 17.7565C21.0138 17.9593 20.9384 18.1514 20.8512 18.3182C20.7714 18.471 20.6487 18.6678 20.4605 18.8142C20.3109 18.9306 20.1341 19.0029 19.9995 19.0502C19.8498 19.1028 19.6772 19.1495 19.4917 19.1917C19.1197 19.2764 18.6477 19.3537 18.1052 19.422C17.0175 19.5591 15.5971 19.6662 14.0243 19.7173C13.6103 19.7307 13.2638 19.406 13.2504 18.992C13.237 18.578 13.5617 18.2315 13.9757 18.2181C15.5145 18.1681 16.887 18.0637 17.9177 17.9338C18.4345 17.8687 18.8532 17.7987 19.1589 17.7291C19.3122 17.6943 19.4251 17.6621 19.5022 17.6351C19.5082 17.633 19.5137 17.631 19.5189 17.6291C19.5198 17.6272 19.5208 17.6254 19.5218 17.6234C19.5577 17.5547 19.6034 17.4461 19.6543 17.2904C19.7557 16.9801 19.8576 16.5459 19.9478 16.0079C20.1277 14.9356 20.25 13.5191 20.25 12C20.25 10.4809 20.1277 9.06439 19.9478 7.9921C19.8576 7.45411 19.7557 7.01989 19.6543 6.70959C19.6034 6.55389 19.5577 6.44529 19.5218 6.37655C19.5208 6.37464 19.5198 6.37278 19.5189 6.37099C19.5014 6.36456 19.479 6.35676 19.4507 6.34782C19.3355 6.31139 19.1715 6.27055 18.9561 6.22794C18.5268 6.14305 17.9428 6.06085 17.2368 5.98923C15.8276 5.84626 13.9781 5.75 12 5.75C10.0219 5.75 8.17242 5.84626 6.7632 5.98923C6.05719 6.06085 5.47322 6.14305 5.04393 6.22794C4.82847 6.27055 4.66454 6.31139 4.54931 6.34782C4.52105 6.35676 4.49857 6.36456 4.48112 6.37099ZM2.25459 10.9171C2.30038 10.5054 2.67122 10.2088 3.0829 10.2546C5.28292 10.4993 7.3342 11.4853 8.89944 13.0506C10.4647 14.6158 11.4507 16.6671 11.6954 18.8671C11.7412 19.2788 11.4446 19.6496 11.0329 19.6954C10.6212 19.7412 10.2504 19.4446 10.2046 19.0329C9.99755 17.1713 9.16322 15.4357 7.83878 14.1112C6.51434 12.7868 4.77865 11.9524 2.91709 11.7454C2.50542 11.6996 2.2088 11.3288 2.25459 10.9171ZM2.26512 14.9001C2.34789 14.4943 2.74401 14.2324 3.14987 14.3151C4.25489 14.5405 5.26925 15.0858 6.06671 15.8833C6.86416 16.6807 7.4095 17.6951 7.63487 18.8001C7.71764 19.206 7.45573 19.6021 7.04987 19.6849C6.64401 19.7676 6.24789 19.5057 6.16512 19.0999C5.99855 18.2831 5.59547 17.5334 5.00605 16.944C4.41662 16.3545 3.66688 15.9514 2.85012 15.7849C2.44426 15.7021 2.18235 15.306 2.26512 14.9001ZM2.25 18.95C2.25 18.5358 2.58578 18.2 3 18.2H3.01C3.42421 18.2 3.76 18.5358 3.76 18.95C3.76 19.3642 3.42421 19.7 3.01 19.7H3C2.58578 19.7 2.25 19.3642 2.25 18.95Z" fill="black"/>
</svg>
