<svg width="24" height="24" viewBox="0 0 24 24" fill="none" xmlns="http://www.w3.org/2000/svg">
<path fill-rule="evenodd" clip-rule="evenodd" d="M3.78363 11.25H11.25V3.78363C7.29215 4.14029 4.14029 7.29215 3.78363 11.25ZM12.75 3.78363V11.6893L18.34 17.2793C19.5331 15.8483 20.25 14.0084 20.25 12C20.25 7.69647 16.9549 4.16255 12.75 3.78363ZM17.2793 18.34L11.6893 12.75H3.78363C4.16255 16.9549 7.69647 20.25 12 20.25C14.0084 20.25 15.8483 19.5331 17.2793 18.34ZM2.25 12C2.25 6.61522 6.61522 2.25 12 2.25C17.3848 2.25 21.75 6.61522 21.75 12C21.75 14.6922 20.6579 17.1307 18.8943 18.8943C17.1307 20.6579 14.6922 21.75 12 21.75C6.61522 21.75 2.25 17.3848 2.25 12Z" fill="black"/>
</svg>
