<svg width="24" height="24" viewBox="0 0 24 24" fill="none" xmlns="http://www.w3.org/2000/svg">
<path fill-rule="evenodd" clip-rule="evenodd" d="M12 3.75C7.44365 3.75 3.75 7.44365 3.75 12C3.75 16.5563 7.44365 20.25 12 20.25C16.5563 20.25 20.25 16.5563 20.25 12C20.25 7.44365 16.5563 3.75 12 3.75ZM2.25 12C2.25 6.61522 6.61522 2.25 12 2.25C17.3848 2.25 21.75 6.61522 21.75 12C21.75 17.3848 17.3848 21.75 12 21.75C6.61522 21.75 2.25 17.3848 2.25 12ZM9.46967 6.46967C9.76256 6.17678 10.2374 6.17678 10.5303 6.46967L15.5303 11.4697C15.8232 11.7626 15.8232 12.2374 15.5303 12.5303L10.5303 17.5303C10.2374 17.8232 9.76256 17.8232 9.46967 17.5303C9.17678 17.2374 9.17678 16.7626 9.46967 16.4697L13.9393 12L9.46967 7.53033C9.17678 7.23744 9.17678 6.76256 9.46967 6.46967Z" fill="black"/>
</svg>
