<svg width="24" height="24" viewBox="0 0 24 24" fill="none" xmlns="http://www.w3.org/2000/svg">
<path fill-rule="evenodd" clip-rule="evenodd" d="M11.9716 4.47479C11.3572 4.91902 10.9636 5.66848 10.8155 7.07834C10.7722 7.49029 10.4032 7.78916 9.99124 7.7459C9.57929 7.70263 9.28042 7.33361 9.32368 6.92166C9.49293 5.31023 9.98568 4.05968 11.0928 3.25923C12.1557 2.49072 13.6403 2.25 15.5 2.25C17.6309 2.25 19.2809 2.5658 20.3576 3.64246C21.4342 4.71913 21.75 6.36913 21.75 8.5C21.75 10.3597 21.5093 11.8443 20.7408 12.9073C19.9403 14.0143 18.6898 14.5071 17.0784 14.6763C16.6664 14.7196 16.2974 14.4207 16.2541 14.0088C16.2109 13.5968 16.5097 13.2278 16.9217 13.1845C18.3315 13.0365 19.081 12.6428 19.5252 12.0284C20.0014 11.3698 20.25 10.2979 20.25 8.5C20.25 6.42499 19.9188 5.32499 19.2969 4.70312C18.675 4.08126 17.575 3.75 15.5 3.75C13.7021 3.75 12.6302 3.99864 11.9716 4.47479ZM4.70312 11.7031C4.08126 12.325 3.75 13.425 3.75 15.5C3.75 17.575 4.08126 18.675 4.70312 19.2969C5.32499 19.9187 6.42499 20.25 8.5 20.25C10.575 20.25 11.675 19.9187 12.2969 19.2969C12.9187 18.675 13.25 17.575 13.25 15.5C13.25 13.425 12.9187 12.325 12.2969 11.7031C11.675 11.0813 10.575 10.75 8.5 10.75C6.42499 10.75 5.32499 11.0813 4.70312 11.7031ZM3.64246 10.6425C4.71913 9.5658 6.36913 9.25 8.5 9.25C10.6309 9.25 12.2809 9.5658 13.3575 10.6425C14.4342 11.7191 14.75 13.3691 14.75 15.5C14.75 17.6309 14.4342 19.2809 13.3575 20.3575C12.2809 21.4342 10.6309 21.75 8.5 21.75C6.36913 21.75 4.71913 21.4342 3.64246 20.3575C2.5658 19.2809 2.25 17.6309 2.25 15.5C2.25 13.3691 2.5658 11.7191 3.64246 10.6425Z" fill="black"/>
</svg>
