<svg width="24" height="24" viewBox="0 0 24 24" fill="none" xmlns="http://www.w3.org/2000/svg">
<path fill-rule="evenodd" clip-rule="evenodd" d="M4.44473 7.28805C4.43394 7.30679 4.4201 7.33262 4.40367 7.36711C4.34043 7.49993 4.26829 7.69858 4.19537 7.9656C4.09977 8.31569 4.01145 8.75115 3.93908 9.25H20.0609C19.9886 8.75116 19.9002 8.31569 19.8046 7.9656C19.7317 7.69859 19.6596 7.49993 19.5963 7.36712C19.5799 7.33263 19.5661 7.30679 19.5553 7.28805C19.5362 7.28199 19.5116 7.27462 19.4806 7.26621C19.3612 7.23387 19.1937 7.1982 18.9762 7.16133C18.5428 7.08786 17.9554 7.01706 17.2475 6.95551C15.8343 6.83263 13.9812 6.75 12 6.75C10.0188 6.75 8.16565 6.83263 6.75247 6.95551C6.04464 7.01706 5.45723 7.08786 5.02377 7.16133C4.80626 7.1982 4.63876 7.23387 4.51939 7.26621C4.48836 7.27462 4.46376 7.28199 4.44473 7.28805ZM20.2122 10.75H3.78784C3.76338 11.1524 3.75 11.5717 3.75 12C3.75 13.2907 3.87137 14.4921 4.04854 15.3977C4.1375 15.8523 4.23691 16.2136 4.33358 16.4671C4.3773 16.5818 4.41554 16.6613 4.44469 16.7119C4.46372 16.718 4.48834 16.7254 4.51939 16.7338C4.63876 16.7661 4.80626 16.8018 5.02377 16.8387C5.45723 16.9121 6.04464 16.9829 6.75247 17.0445C8.16565 17.1674 10.0188 17.25 12 17.25C13.9812 17.25 15.8343 17.1674 17.2475 17.0445C17.9554 16.9829 18.5428 16.9121 18.9762 16.8387C19.1937 16.8018 19.3612 16.7661 19.4806 16.7338C19.5117 16.7254 19.5363 16.718 19.5553 16.7119C19.5845 16.6613 19.6227 16.5818 19.6664 16.4671C19.7631 16.2136 19.8625 15.8523 19.9515 15.3977C20.1286 14.4921 20.25 13.2907 20.25 12C20.25 11.5716 20.2366 11.1524 20.2122 10.75ZM19.5242 16.7598C19.5242 16.7598 19.5249 16.7589 19.5263 16.7573C19.5249 16.759 19.5242 16.7598 19.5242 16.7598ZM4.47579 16.7598C4.47578 16.7598 4.47513 16.7591 4.47386 16.7574C4.47517 16.7589 4.4758 16.7598 4.47579 16.7598ZM6.62253 5.46115C8.08435 5.33404 9.98122 5.25 12 5.25C14.0188 5.25 15.9157 5.33404 17.3775 5.46115C18.1071 5.5246 18.7385 5.59964 19.2269 5.68242C19.4703 5.72368 19.6895 5.76873 19.8729 5.81842C20.0332 5.86185 20.2449 5.92856 20.416 6.04263C20.6853 6.22218 20.8495 6.50983 20.9506 6.72221C21.0655 6.96348 21.1652 7.25403 21.2517 7.57044C21.4253 8.20619 21.5655 9.02232 21.6524 9.92841C21.7144 10.5756 21.75 11.2762 21.75 12C21.75 13.3759 21.6214 14.6746 21.4235 15.6857C21.325 16.1893 21.2057 16.6405 21.068 17.0016C20.9992 17.1818 20.9199 17.3558 20.8269 17.5083C20.7401 17.6507 20.6091 17.8287 20.416 17.9574C20.2449 18.0714 20.0332 18.1381 19.8729 18.1816C19.6895 18.2313 19.4703 18.2763 19.2269 18.3176C18.7385 18.4004 18.1071 18.4754 17.3775 18.5388C15.9157 18.666 14.0188 18.75 12 18.75C9.98122 18.75 8.08435 18.666 6.62253 18.5388C5.89286 18.4754 5.26152 18.4004 4.77311 18.3176C4.52968 18.2763 4.31046 18.2313 4.12709 18.1816C3.9668 18.1381 3.75509 18.0714 3.58398 17.9574C3.3909 17.8287 3.25994 17.6507 3.17311 17.5083C3.08013 17.3558 3.00077 17.1818 2.93204 17.0016C2.79434 16.6405 2.675 16.1893 2.57646 15.6857C2.37863 14.6746 2.25 13.3759 2.25 12C2.25 11.2762 2.2856 10.5756 2.34766 9.92841C2.43455 9.02233 2.57475 8.2062 2.74836 7.57045C2.83476 7.25404 2.93449 6.96348 3.04938 6.72221C3.15051 6.50984 3.31465 6.22218 3.58397 6.04263C3.75508 5.92856 3.9668 5.86185 4.12709 5.81842C4.31046 5.76873 4.52968 5.72368 4.77311 5.68242C5.26152 5.59964 5.89286 5.5246 6.62253 5.46115ZM6.25 14C6.25 13.5858 6.58579 13.25 7 13.25H12C12.4142 13.25 12.75 13.5858 12.75 14C12.75 14.4142 12.4142 14.75 12 14.75H7C6.58579 14.75 6.25 14.4142 6.25 14Z" fill="black"/>
</svg>
