<svg width="24" height="24" viewBox="0 0 24 24" fill="none" xmlns="http://www.w3.org/2000/svg">
<path fill-rule="evenodd" clip-rule="evenodd" d="M12 4.75C11.5858 4.75 11.25 5.08579 11.25 5.5C11.25 5.91421 11.5858 6.25 12 6.25C12.4142 6.25 12.75 5.91421 12.75 5.5C12.75 5.08579 12.4142 4.75 12 4.75ZM9.75 5.5C9.75 4.25736 10.7574 3.25 12 3.25C13.2426 3.25 14.25 4.25736 14.25 5.5C14.25 6.31782 13.8137 7.03373 13.1611 7.42764L14.923 10.1963C15.3252 10.8283 16.1892 10.967 16.7691 10.4926L19.5481 8.2189C19.0599 7.80617 18.75 7.18928 18.75 6.5C18.75 5.25736 19.7574 4.25 21 4.25C22.2426 4.25 23.25 5.25736 23.25 6.5C23.25 7.51617 22.5764 8.375 21.6513 8.65429L20.2969 16.7809C19.9151 19.0713 17.9335 20.75 15.6115 20.75H8.38851C6.06652 20.75 4.08487 19.0713 3.70314 16.7809L2.3487 8.65429C1.42364 8.375 0.75 7.51617 0.75 6.5C0.75 5.25736 1.75736 4.25 3 4.25C4.24264 4.25 5.25 5.25736 5.25 6.5C5.25 7.18928 4.94005 7.80617 4.45193 8.2189L7.23091 10.4926C7.81075 10.967 8.67481 10.8283 9.07704 10.1963L10.8389 7.42764C10.1863 7.03373 9.75 6.31782 9.75 5.5ZM12 8.39697L10.3425 11.0016C9.45764 12.3921 7.5567 12.6973 6.28106 11.6535L4.06741 9.84238L5.18273 16.5343C5.44391 18.1014 6.79978 19.25 8.38851 19.25H15.6115C17.2002 19.25 18.5561 18.1014 18.8173 16.5343L19.9326 9.84238L17.7189 11.6535C16.4433 12.6973 14.5424 12.3921 13.6575 11.0016L12 8.39697ZM3 5.75C2.58579 5.75 2.25 6.08579 2.25 6.5C2.25 6.91421 2.58579 7.25 3 7.25C3.41421 7.25 3.75 6.91421 3.75 6.5C3.75 6.08579 3.41421 5.75 3 5.75ZM21 5.75C20.5858 5.75 20.25 6.08579 20.25 6.5C20.25 6.91421 20.5858 7.25 21 7.25C21.4142 7.25 21.75 6.91421 21.75 6.5C21.75 6.08579 21.4142 5.75 21 5.75Z" fill="black"/>
</svg>
