<svg width="24" height="24" viewBox="0 0 24 24" fill="none" xmlns="http://www.w3.org/2000/svg">
<path fill-rule="evenodd" clip-rule="evenodd" d="M12.1768 6.23744C12.0791 6.13981 11.9209 6.13981 11.8232 6.23744L9.23744 8.82323C8.55402 9.50664 7.44598 9.50664 6.76256 8.82323L5.17678 7.23744C5.01929 7.07995 4.75 7.19149 4.75 7.41422V15C4.75 15.1381 4.86193 15.25 5 15.25H19C19.1381 15.25 19.25 15.1381 19.25 15V7.41421C19.25 7.19149 18.9807 7.07995 18.8232 7.23744L17.2374 8.82323C16.554 9.50664 15.446 9.50664 14.7626 8.82323L12.1768 6.23744ZM10.7626 5.17678C11.446 4.49336 12.554 4.49336 13.2374 5.17678L15.8232 7.76257C15.9209 7.8602 16.0791 7.8602 16.1768 7.76257L17.7626 6.17678C18.865 5.07434 20.75 5.85513 20.75 7.41421V15C20.75 15.9665 19.9665 16.75 19 16.75H5C4.0335 16.75 3.25 15.9665 3.25 15V7.41422C3.25 5.85513 5.135 5.07434 6.23744 6.17678L7.82322 7.76257C7.92085 7.8602 8.07914 7.8602 8.17678 7.76256L10.7626 5.17678ZM3.25 19C3.25 18.5858 3.58579 18.25 4 18.25H20C20.4142 18.25 20.75 18.5858 20.75 19C20.75 19.4142 20.4142 19.75 20 19.75H4C3.58579 19.75 3.25 19.4142 3.25 19Z" fill="black"/>
</svg>
