<svg width="24" height="24" viewBox="0 0 24 24" fill="none" xmlns="http://www.w3.org/2000/svg">
<path fill-rule="evenodd" clip-rule="evenodd" d="M16.903 6.34705C16.0313 6.25102 14.9326 6.25 13.5 6.25C11.7857 6.25 10.4439 6.37245 9.53662 6.49342C9.08301 6.5539 8.73812 6.614 8.5097 6.65821C8.45934 6.66796 8.41464 6.67693 8.37569 6.68497L3.06066 12L8.37569 17.315C8.41464 17.3231 8.45934 17.332 8.5097 17.3418C8.73812 17.386 9.08301 17.4461 9.53662 17.5066C10.4439 17.6275 11.7857 17.75 13.5 17.75C14.9637 17.75 16.0781 17.749 16.9558 17.6529C17.8334 17.5568 18.3585 17.3752 18.7066 17.0995C19.0375 16.8374 19.3069 16.4107 19.4888 15.5947C19.6736 14.7653 19.75 13.6156 19.75 12C19.75 10.3872 19.666 9.23944 19.473 8.4127C19.2833 7.60014 19.0051 7.16968 18.6644 6.90383C18.3063 6.62451 17.7739 6.44298 16.903 6.34705ZM8 18L7.8181 18.7276C7.68622 18.6946 7.56579 18.6264 7.46967 18.5303L1.46967 12.5303C1.17678 12.2374 1.17678 11.7626 1.46967 11.4697L7.46967 5.46967C7.56579 5.37355 7.68622 5.30536 7.8181 5.27239L8 6C7.8181 5.27239 7.81794 5.27243 7.8181 5.27239L7.81964 5.27201L7.82191 5.27145L7.82865 5.2698L7.8509 5.26447C7.8696 5.26006 7.89603 5.25394 7.93008 5.24638C7.99816 5.23125 8.09669 5.21031 8.22467 5.18554C8.48063 5.136 8.85449 5.0711 9.33838 5.00658C10.3061 4.87755 11.7143 4.75 13.5 4.75L13.5394 4.75C14.9241 4.74999 16.1042 4.74998 17.0673 4.85607C18.0404 4.96327 18.9036 5.18799 19.587 5.72117C20.2877 6.26782 20.6967 7.05611 20.9338 8.07168C21.1675 9.07306 21.25 10.3628 21.25 12C21.25 13.6344 21.1755 14.9222 20.9529 15.921C20.7273 16.9331 20.3328 17.7251 19.6378 18.2755C18.9599 18.8123 18.0971 19.0369 17.1191 19.144C16.1505 19.25 14.9551 19.25 13.5401 19.25H13.5C11.7143 19.25 10.3061 19.1225 9.33838 18.9934C8.85449 18.9289 8.48063 18.864 8.22467 18.8145C8.09669 18.7897 7.99816 18.7688 7.93008 18.7536C7.89603 18.7461 7.8696 18.7399 7.8509 18.7355L7.82865 18.7302L7.82191 18.7286L7.81964 18.728L7.8181 18.7276C7.81794 18.7276 7.8181 18.7276 8 18ZM9.46991 8.46967C9.76281 8.17678 10.2377 8.17678 10.5306 8.46967L13.0001 10.9392L15.4697 8.46967C15.7626 8.17678 16.2374 8.17678 16.5303 8.46967C16.8232 8.76256 16.8232 9.23744 16.5303 9.53033L14.0608 11.9999L16.5306 14.4697C16.8235 14.7626 16.8235 15.2374 16.5306 15.5303C16.2377 15.8232 15.7628 15.8232 15.4699 15.5303L13.0001 13.0605L10.5303 15.5303C10.2374 15.8232 9.76256 15.8232 9.46967 15.5303C9.17678 15.2374 9.17678 14.7626 9.46967 14.4697L11.9395 11.9999L9.46991 9.53033C9.17702 9.23744 9.17702 8.76256 9.46991 8.46967Z" fill="black"/>
</svg>
