<svg width="24" height="24" viewBox="0 0 24 24" fill="none" xmlns="http://www.w3.org/2000/svg">
<path fill-rule="evenodd" clip-rule="evenodd" d="M8.12652 2.46967C8.41942 2.17678 8.89429 2.17678 9.18718 2.46967L12.7227 6.00519C13.9103 7.19275 14.3376 8.85273 14.0046 10.3802C15.5321 10.0472 17.192 10.4745 18.3796 11.6621L21.9152 15.1976C22.2081 15.4905 22.2081 15.9654 21.9152 16.2583C21.6223 16.5512 21.1474 16.5512 20.8545 16.2583L20.6777 16.0815L16.0815 20.6777L16.2583 20.8545C16.5512 21.1474 16.5512 21.6223 16.2583 21.9152C15.9654 22.2081 15.4905 22.2081 15.1976 21.9152L11.6621 18.3796C10.4745 17.192 10.0472 15.5321 10.3802 14.0046C8.85273 14.3376 7.19275 13.9103 6.00519 12.7227L2.46967 9.18718C2.17678 8.89429 2.17678 8.41942 2.46967 8.12652C2.76256 7.83363 3.23744 7.83363 3.53033 8.12652L3.70715 8.30335L8.30335 3.70715L8.12652 3.53033C7.83363 3.23744 7.83363 2.76256 8.12652 2.46967ZM9.36401 4.76781L4.76781 9.36401L6.53552 11.1317L11.1317 6.53552L9.36401 4.76781ZM12.1309 7.65768L7.65768 12.1309C8.91064 12.905 10.5754 12.7488 11.6621 11.6621C12.7488 10.5754 12.905 8.91065 12.1309 7.65768ZM12.7228 12.7228C11.6361 13.8095 11.4798 15.4742 12.2539 16.7271L16.7271 12.2539C15.4742 11.4798 13.8095 11.6361 12.7228 12.7228ZM17.8492 13.253L13.253 17.8492L15.0209 19.6171L19.6171 15.0209L17.8492 13.253Z" fill="black"/>
</svg>
