<svg width="24" height="24" viewBox="0 0 24 24" fill="none" xmlns="http://www.w3.org/2000/svg">
<path fill-rule="evenodd" clip-rule="evenodd" d="M14.4443 6.74813L5.97619 15.2162C5.38614 15.8063 4.97157 16.4727 4.84795 17.1895C4.77305 17.6237 4.73005 18.0752 4.75887 18.4607C4.78917 18.8661 4.88922 19.0717 4.97463 19.1571C5.06005 19.2426 5.26568 19.3426 5.67109 19.3729C6.05658 19.4017 6.50806 19.3587 6.94231 19.2838C7.65909 19.1602 8.32548 18.7456 8.91553 18.1556L17.3836 9.68747L14.4443 6.74813ZM18.4443 9.68747L18.9746 10.2178L9.97619 19.2162C9.24894 19.9435 8.31632 20.569 7.19726 20.762C6.70469 20.847 6.11768 20.9105 5.55926 20.8687C5.02076 20.8285 4.37705 20.6809 3.91398 20.2178C3.4509 19.7547 3.3033 19.111 3.26304 18.5725C3.22129 18.0141 3.28482 17.4271 3.36977 16.9345C3.56278 15.8155 4.18828 14.8828 4.91553 14.1556L13.914 5.15714L14.4443 5.68747C13.914 5.15714 13.9138 5.15734 13.914 5.15714L13.9159 5.1552L13.919 5.15217L13.9284 5.14292L13.9601 5.11229C13.9868 5.08672 14.0246 5.05113 14.0726 5.00752C14.1684 4.92042 14.3055 4.80058 14.4758 4.66432C14.8135 4.39418 15.2962 4.04798 15.8589 3.76665C16.9513 3.22046 18.6224 2.80486 19.9746 4.15714C21.3269 5.50941 20.9113 7.1805 20.3651 8.27288C20.0838 8.83554 19.7376 9.31832 19.4675 9.65599C19.3312 9.82632 19.2114 9.96336 19.1243 10.0592C19.0806 10.1071 19.0451 10.145 19.0195 10.1717L18.9889 10.2034L18.9796 10.2128L18.9766 10.2159L18.9755 10.217C18.9753 10.2172 18.9746 10.2178 18.4443 9.68747ZM18.4015 8.58405C18.6076 8.31401 18.8373 7.97439 19.0235 7.60206C19.4773 6.69444 19.5617 5.86553 18.914 5.2178C18.2662 4.57008 17.4373 4.65448 16.5297 5.10829C16.1574 5.29445 15.8178 5.5242 15.5477 5.73023L18.4015 8.58405Z" fill="black"/>
</svg>
