<svg width="24" height="24" fill="none" xmlns="http://www.w3.org/2000/svg"><path d="M11.32 2.28c-1.879.127-3.672.802-5.236 1.972-.493.368-1.464 1.339-1.832 1.832a9.794 9.794 0 0 0-1.895 4.524 10.9 10.9 0 0 0 0 2.784 9.794 9.794 0 0 0 1.895 4.524c.368.493 1.339 1.464 1.832 1.832a9.768 9.768 0 0 0 4.524 1.894 10.32 10.32 0 0 0 3.804-.2 9.913 9.913 0 0 0 3.504-1.694c.493-.369 1.463-1.339 1.832-1.832a9.763 9.763 0 0 0 1.894-4.524 10.9 10.9 0 0 0 0-2.784 9.763 9.763 0 0 0-1.894-4.524c-.369-.493-1.339-1.463-1.832-1.832-1.13-.846-2.524-1.495-3.796-1.766a10.872 10.872 0 0 0-2.8-.206m1.86 1.558a8.233 8.233 0 0 1 3.829 1.607c.425.321 1.225 1.121 1.546 1.546a8.266 8.266 0 0 1 .444 9.375 8.679 8.679 0 0 1-2.633 2.633 8.27 8.27 0 0 1-8.732 0 8.679 8.679 0 0 1-2.633-2.633c-1.51-2.435-1.659-5.493-.392-8.023.433-.864.868-1.465 1.568-2.166.879-.878 1.824-1.491 2.948-1.911a8.455 8.455 0 0 1 4.055-.428M8.793 8.277c-.394.08-.602.445-.516.908.071.378.301.548.743.548.51 0 .72-.214.72-.733 0-.338-.085-.528-.287-.646-.138-.079-.461-.118-.66-.077m6 0c-.394.08-.602.445-.516.908.071.378.301.548.743.548.51 0 .72-.214.72-.733 0-.338-.085-.528-.287-.646-.138-.079-.461-.118-.66-.077m-3.28 5.004c-.439.04-.871.129-1.258.259-.888.298-1.894.955-2.553 1.666-.303.328-.445.55-.481.754-.051.292.288.7.667.802.265.072.445-.022.81-.424.93-1.022 2.093-1.577 3.302-1.577s2.372.555 3.302 1.577c.365.402.545.496.81.424.379-.102.718-.51.667-.802-.097-.548-1.224-1.572-2.337-2.123a5.533 5.533 0 0 0-2.929-.556" fill-rule="evenodd" fill="#000"/></svg>