<svg width="24" height="24" viewBox="0 0 24 24" fill="none" xmlns="http://www.w3.org/2000/svg">
<path fill-rule="evenodd" clip-rule="evenodd" d="M5.84283 5.84283C4.75773 6.92793 4.25 8.77793 4.25 12C4.25 15.2221 4.75773 17.0721 5.84283 18.1572C6.92793 19.2423 8.77793 19.75 12 19.75C15.2221 19.75 17.0721 19.2423 18.1572 18.1572C19.2423 17.0721 19.75 15.2221 19.75 12C19.75 8.77793 19.2423 6.92793 18.1572 5.84283C17.0721 4.75773 15.2221 4.25 12 4.25C8.77793 4.25 6.92793 4.75773 5.84283 5.84283ZM4.78217 4.78217C6.32207 3.24227 8.72207 2.75 12 2.75C15.2779 2.75 17.6779 3.24227 19.2178 4.78217C20.7577 6.32207 21.25 8.72207 21.25 12C21.25 15.2779 20.7577 17.6779 19.2178 19.2178C17.6779 20.7577 15.2779 21.25 12 21.25C8.72207 21.25 6.32207 20.7577 4.78217 19.2178C3.24227 17.6779 2.75 15.2779 2.75 12C2.75 8.72207 3.24227 6.32207 4.78217 4.78217ZM13.7368 8.14108C15.0184 7.82066 16.1794 8.9816 15.8589 10.2633L14.9945 13.7211C14.8377 14.3481 14.3482 14.8377 13.7212 14.9944L10.2633 15.8589C8.98163 16.1793 7.8207 15.0184 8.14111 13.7367L9.00558 10.2789C9.16233 9.65186 9.65189 9.1623 10.2789 9.00555L13.7368 8.14108ZM14.4037 9.89947C14.4495 9.71637 14.2837 9.55052 14.1006 9.5963L10.6427 10.4608C10.5531 10.4832 10.4832 10.5531 10.4608 10.6427L9.59633 14.1005C9.55055 14.2836 9.7164 14.4495 9.8995 14.4037L13.3574 13.5392C13.4469 13.5168 13.5169 13.4469 13.5393 13.3573L14.4037 9.89947Z" fill="black"/>
</svg>
