<svg width="24" height="24" viewBox="0 0 24 24" fill="none" xmlns="http://www.w3.org/2000/svg">
<path fill-rule="evenodd" clip-rule="evenodd" d="M12 5.75C8.57993 5.75 5.96459 7.97755 4.34313 9.91997C3.32329 11.1417 3.32329 12.8583 4.34313 14.08C5.96459 16.0224 8.57993 18.25 12 18.25C15.4201 18.25 18.0354 16.0224 19.6569 14.08C20.6767 12.8583 20.6767 11.1417 19.6569 9.91997C18.0354 7.97755 15.4201 5.75 12 5.75ZM3.19161 8.95872C4.90745 6.90325 7.90529 4.25 12 4.25C16.0947 4.25 19.0926 6.90325 20.8084 8.95872C22.2929 10.737 22.2929 13.263 20.8084 15.0413C19.0926 17.0968 16.0947 19.75 12 19.75C7.90529 19.75 4.90745 17.0968 3.19161 15.0413C1.70713 13.263 1.70713 10.737 3.19161 8.95872ZM12 9.75C10.7574 9.75 9.75 10.7574 9.75 12C9.75 13.2426 10.7574 14.25 12 14.25C13.2426 14.25 14.25 13.2426 14.25 12C14.25 10.7574 13.2426 9.75 12 9.75ZM8.25 12C8.25 9.92893 9.92893 8.25 12 8.25C14.0711 8.25 15.75 9.92893 15.75 12C15.75 14.0711 14.0711 15.75 12 15.75C9.92893 15.75 8.25 14.0711 8.25 12Z" fill="black"/>
</svg>
