<svg width="24" height="24" viewBox="0 0 24 24" fill="none" xmlns="http://www.w3.org/2000/svg">
<path fill-rule="evenodd" clip-rule="evenodd" d="M2.46967 2.46967C2.76256 2.17678 3.23744 2.17678 3.53033 2.46967L21.5303 20.4697C21.8232 20.7626 21.8232 21.2374 21.5303 21.5303C21.2374 21.8232 20.7626 21.8232 20.4697 21.5303L2.46967 3.53033C2.17678 3.23744 2.17678 2.76256 2.46967 2.46967ZM12 5.75C11.2812 5.75 10.6004 5.84777 9.9579 6.0197C9.55776 6.12677 9.14659 5.88919 9.03953 5.48905C8.93246 5.08891 9.17004 4.67774 9.57017 4.57067C10.3324 4.36672 11.1434 4.25 12 4.25C16.0947 4.25 19.0925 6.90325 20.8084 8.95872C22.2929 10.7371 22.2927 13.2632 20.8082 15.0415C20.608 15.2813 20.3918 15.5276 20.1599 15.7757C19.877 16.0783 19.4024 16.0942 19.0998 15.8114C18.7972 15.5285 18.7812 15.0539 19.0641 14.7513C19.2755 14.5252 19.4731 14.3001 19.6567 14.0802C20.6766 12.8585 20.6767 11.1416 19.6569 9.91997C18.0354 7.97755 15.4201 5.75 12 5.75ZM4.85938 8.22853C5.16297 8.51033 5.18063 8.98487 4.89883 9.28846C4.70137 9.50119 4.51612 9.71277 4.34337 9.91971C3.32346 11.1414 3.32335 12.8584 4.34315 14.08C5.96461 16.0224 8.57995 18.25 12 18.25C12.7319 18.25 13.4244 18.1486 14.0773 17.9708C14.477 17.8619 14.8892 18.0977 14.9981 18.4973C15.1069 18.897 14.8712 19.3092 14.4716 19.4181C13.6972 19.629 12.8722 19.75 12 19.75C7.90531 19.75 4.90747 17.0968 3.19163 15.0413C1.7071 13.2629 1.70738 10.7367 3.19187 8.95843C3.3803 8.73271 3.5829 8.50128 3.79946 8.26798C4.08125 7.9644 4.5558 7.94674 4.85938 8.22853ZM11.7603 8.91739C11.8289 8.50888 12.2156 8.23328 12.6241 8.30182C14.1958 8.5655 15.4345 9.80419 15.6982 11.3759C15.7667 11.7844 15.4911 12.1711 15.0826 12.2397C14.6741 12.3082 14.2874 12.0326 14.2189 11.6241C14.061 10.6833 13.3167 9.93898 12.3759 9.78114C11.9674 9.71261 11.6918 9.32589 11.7603 8.91739ZM8.92078 12.2929C9.31132 12.1548 9.73981 12.3595 9.87785 12.7501C10.1465 13.5103 10.8131 14.0828 11.6241 14.2189C12.0326 14.2874 12.3082 14.6741 12.2397 15.0826C12.1711 15.4911 11.7844 15.7667 11.3759 15.6982C10.0186 15.4705 8.91114 14.5162 8.46359 13.2499C8.32555 12.8594 8.53024 12.4309 8.92078 12.2929Z" fill="black"/>
</svg>
