<svg width="24" height="24" viewBox="0 0 24 24" fill="none" xmlns="http://www.w3.org/2000/svg">
<path fill-rule="evenodd" clip-rule="evenodd" d="M9.74123 3.5809C9.80438 3.99027 9.52371 4.37332 9.11433 4.43647C7.57358 4.67413 6.54569 5.13999 5.84283 5.84285C5.13997 6.5457 4.67411 7.57359 4.43645 9.11435C4.37331 9.52372 3.99026 9.80439 3.58089 9.74125C3.17151 9.6781 2.89084 9.29505 2.95399 8.88568C3.21975 7.16272 3.77442 5.78993 4.78217 4.78219C5.78992 3.77444 7.16271 3.21976 8.88567 2.954C9.29504 2.89086 9.67809 3.17153 9.74123 3.5809ZM14.2588 3.5809C14.3219 3.17153 14.705 2.89086 15.1143 2.954C16.8373 3.21976 18.2101 3.77444 19.2178 4.78219C20.2256 5.78993 20.7803 7.16272 21.046 8.88568C21.1092 9.29505 20.8285 9.6781 20.4191 9.74125C20.0097 9.80439 19.6267 9.52372 19.5635 9.11435C19.3259 7.57359 18.86 6.5457 18.1572 5.84285C17.4543 5.13999 16.4264 4.67413 14.8857 4.43647C14.4763 4.37332 14.1956 3.99027 14.2588 3.5809ZM9 7.25001C9.41421 7.25001 9.75 7.5858 9.75 8.00001V10C9.75 10.4142 9.41421 10.75 9 10.75C8.58579 10.75 8.25 10.4142 8.25 10V8.00001C8.25 7.5858 8.58579 7.25001 9 7.25001ZM15 7.25001C15.4142 7.25001 15.75 7.5858 15.75 8.00001V10C15.75 10.4142 15.4142 10.75 15 10.75C14.5858 10.75 14.25 10.4142 14.25 10V8.00001C14.25 7.5858 14.5858 7.25001 15 7.25001ZM12.5 10.25C12.9142 10.25 13.25 10.5858 13.25 11V12.5C13.25 12.7841 13.0895 13.0438 12.8354 13.1708L11.8354 13.6708C11.4649 13.8561 11.0144 13.7059 10.8292 13.3354C10.6439 12.9649 10.7941 12.5144 11.1646 12.3292L11.75 12.0365V11C11.75 10.5858 12.0858 10.25 12.5 10.25ZM3.58089 14.2588C3.99026 14.1956 4.37331 14.4763 4.43645 14.8857C4.67411 16.4264 5.13997 17.4543 5.84283 18.1572C6.54569 18.86 7.57358 19.3259 9.11433 19.5636C9.52371 19.6267 9.80438 20.0098 9.74123 20.4191C9.67809 20.8285 9.29504 21.1092 8.88567 21.046C7.16271 20.7803 5.78992 20.2256 4.78217 19.2178C3.77442 18.2101 3.21975 16.8373 2.95399 15.1143C2.89084 14.705 3.17151 14.3219 3.58089 14.2588ZM20.4191 14.2588C20.8285 14.3219 21.1092 14.705 21.046 15.1143C20.7803 16.8373 20.2256 18.2101 19.2178 19.2178C18.2101 20.2256 16.8373 20.7803 15.1143 21.046C14.705 21.1092 14.3219 20.8285 14.2588 20.4191C14.1956 20.0097 14.4763 19.6267 14.8857 19.5636C16.4264 19.3259 17.4543 18.86 18.1572 18.1572C18.86 17.4543 19.3259 16.4264 19.5635 14.8857C19.6267 14.4763 20.0097 14.1956 20.4191 14.2588ZM9.52982 15.4692C9.52982 15.4692 9.52982 15.4692 9.52982 15.4692L9.52911 15.4685L9.52687 15.4662L9.52478 15.4642C9.52383 15.4633 9.5239 15.4634 9.52478 15.4642C9.52481 15.4642 9.52473 15.4642 9.52478 15.4642C9.52664 15.4659 9.53197 15.4709 9.54075 15.4786C9.55871 15.4943 9.59097 15.5214 9.6375 15.5563C9.73065 15.6261 9.88004 15.7265 10.0854 15.8292C10.4937 16.0333 11.1296 16.25 12 16.25C12.8704 16.25 13.5063 16.0333 13.9146 15.8292C14.12 15.7265 14.2693 15.6261 14.3625 15.5563C14.409 15.5214 14.4413 15.4943 14.4592 15.4786C14.4682 15.4707 14.4736 15.4657 14.4753 15.4641C14.4762 15.4633 14.4763 15.4632 14.4753 15.4641L14.4731 15.4662L14.4716 15.4678L14.4707 15.4687C14.7636 15.1763 15.2376 15.177 15.5303 15.4697C15.8232 15.7626 15.8232 16.2375 15.5303 16.5303L15 16C15.5303 16.5303 15.5306 16.5301 15.5303 16.5303L15.5281 16.5326L15.5254 16.5352L15.5189 16.5416L15.5012 16.5584C15.4874 16.5714 15.4693 16.5879 15.447 16.6074C15.4025 16.6464 15.341 16.6974 15.2625 16.7563C15.1057 16.8739 14.88 17.0235 14.5854 17.1708C13.9937 17.4667 13.1296 17.75 12 17.75C10.8704 17.75 10.0063 17.4667 9.41459 17.1708C9.11996 17.0235 8.89435 16.8739 8.7375 16.7563C8.65902 16.6974 8.59754 16.6464 8.553 16.6074C8.53071 16.5879 8.51264 16.5714 8.49876 16.5584L8.48108 16.5416L8.47459 16.5352L8.47194 16.5326L8.47075 16.5314C8.47049 16.5312 8.46967 16.5303 9 16L8.46967 16.5303C8.17678 16.2375 8.17678 15.7626 8.46967 15.4697C8.76072 15.1786 9.23146 15.1768 9.52478 15.4642M9.52911 15.4685L9.52982 15.4692C9.52982 15.4692 9.52982 15.4692 9.52982 15.4692" fill="black"/>
</svg>
