<svg width="24" height="24" viewBox="0 0 24 24" fill="none" xmlns="http://www.w3.org/2000/svg">
<path fill-rule="evenodd" clip-rule="evenodd" d="M12.9099 4.37985C12.3461 4.03354 11.6538 4.03354 11.09 4.37985C10.0135 5.04111 8.43484 6.12569 7.03029 7.53024C5.50317 9.05736 4.84046 10.2014 4.53252 11.2706C4.24437 12.2711 4.2465 13.2532 4.24937 14.5811C4.24967 14.717 4.24997 14.8564 4.24997 14.9999C4.24997 16.371 4.3574 17.526 4.47066 18.3624C4.53838 18.8624 4.97993 19.2499 5.56152 19.2499H18.4384C19.02 19.2499 19.4616 18.8624 19.5293 18.3624C19.6425 17.526 19.75 16.3711 19.75 14.9999C19.75 14.8565 19.7503 14.717 19.7506 14.5812C19.7534 13.2533 19.7556 12.2711 19.4674 11.2706C19.1595 10.2014 18.4967 9.05735 16.9696 7.53024C15.5651 6.12569 13.9864 5.04111 12.9099 4.37985ZM10.3049 3.10171C11.3504 2.45958 12.6496 2.45959 13.695 3.10171C14.8264 3.79668 16.5121 4.95143 18.0303 6.46958C19.6716 8.11084 20.5088 9.46676 20.9088 10.8555C21.2596 12.0733 21.2554 13.2752 21.251 14.5616C21.2505 14.7066 21.25 14.8526 21.25 14.9999C21.25 16.4484 21.1366 17.6714 21.0157 18.5637C20.8371 19.8826 19.6923 20.7499 18.4384 20.7499H5.56152C4.30764 20.7499 3.16285 19.8826 2.98423 18.5637C2.86338 17.6714 2.74997 16.4484 2.74997 14.9999C2.74997 14.8526 2.74946 14.7066 2.74896 14.5616C2.74453 13.2751 2.74038 12.0733 3.09111 10.8555C3.49108 9.46677 4.32836 8.11085 5.96963 6.46958C7.48778 4.95142 9.17352 3.79668 10.3049 3.10171ZM9.15395 11.1302C8.93477 11.3845 8.75 11.8207 8.75 12.4998C8.75 13.508 9.4993 14.4382 10.4617 15.1901C10.9218 15.5495 11.3861 15.8329 11.7375 16.0269C11.8353 16.0809 11.9237 16.1276 12 16.1668C12.0763 16.1276 12.1647 16.0809 12.2625 16.0269C12.6139 15.8329 13.0782 15.5495 13.5383 15.1901C14.5007 14.4382 15.25 13.508 15.25 12.4998C15.25 11.824 15.0631 11.3874 14.8415 11.1317C14.6256 10.8826 14.3314 10.7499 13.9797 10.7499C13.6478 10.7499 13.3264 10.8843 13.0869 11.1288L12.8557 11.3648L12.3199 10.84L12.8557 11.3648C12.3868 11.8435 11.6132 11.8435 11.1443 11.3648L10.9131 11.1288C10.6736 10.8843 10.3522 10.7499 10.0203 10.7499C9.65876 10.7499 9.3662 10.884 9.15395 11.1302ZM12 16.9999C11.6994 17.687 11.6992 17.6869 11.699 17.6868L11.6984 17.6866L11.6971 17.686L11.6933 17.6844L11.6816 17.6791L11.6414 17.6608C11.6075 17.6453 11.5597 17.6228 11.5 17.5937C11.3805 17.5356 11.2127 17.4506 11.0125 17.3401C10.6139 17.12 10.0782 16.794 9.53826 16.3722C8.5007 15.5616 7.25 14.2417 7.25 12.4998C7.25 11.554 7.50967 10.7403 8.0178 10.1508C8.53285 9.55334 9.25044 9.24991 10.0203 9.24991C10.7601 9.24991 11.4664 9.55005 11.9846 10.0791L12 10.0948L12.0154 10.0791C12.5336 9.55005 13.2399 9.24991 13.9797 9.24991C14.7438 9.24991 15.4598 9.55475 15.975 10.1493C16.4846 10.7374 16.75 11.5507 16.75 12.4998C16.75 14.2417 15.4993 15.5616 14.4617 16.3722C13.9218 16.794 13.3861 17.12 12.9875 17.3401C12.7873 17.4506 12.6195 17.5356 12.5 17.5937C12.4403 17.6228 12.3925 17.6453 12.3586 17.6608L12.3184 17.6791L12.3067 17.6844L12.3029 17.686L12.3016 17.6866L12.301 17.6868C12.3008 17.6869 12.3006 17.687 12 16.9999ZM12 16.9999L12.3006 17.687C12.109 17.7709 11.891 17.7709 11.6994 17.687L12 16.9999Z" fill="black"/>
</svg>
