<svg width="24" height="24" viewBox="0 0 24 24" fill="none" xmlns="http://www.w3.org/2000/svg">
<path fill-rule="evenodd" clip-rule="evenodd" d="M7.60846 4.75C6.62667 4.75 6.02811 5.82994 6.54846 6.6625L8.72396 10.1433C9.39445 11.2161 9.74997 12.4557 9.74997 13.7208V16.7639C9.74997 17.2374 10.0175 17.6702 10.4409 17.882L13.8882 19.6056C14.0544 19.6887 14.25 19.5678 14.25 19.382V13.7208C14.25 12.4557 14.6055 11.2161 15.276 10.1433L17.4515 6.6625C17.9718 5.82994 17.3733 4.75 16.3915 4.75H7.60846ZM5.27647 7.4575C4.1317 5.62586 5.44851 3.25 7.60846 3.25H16.3915C18.5514 3.25 19.8682 5.62587 18.7235 7.4575L16.548 10.9383C16.0265 11.7727 15.75 12.7368 15.75 13.7208V19.382C15.75 20.6829 14.3809 21.529 13.2173 20.9472L9.77013 19.2236C8.83847 18.7578 8.24997 17.8056 8.24997 16.7639V13.7208C8.24997 12.7368 7.97345 11.7727 7.45196 10.9383L5.27647 7.4575Z" fill="black"/>
</svg>
