<svg width="24" height="24" viewBox="0 0 24 24" fill="none" xmlns="http://www.w3.org/2000/svg">
<path fill-rule="evenodd" clip-rule="evenodd" d="M4.25 4C4.25 3.58579 4.58579 3.25 5 3.25H18.5858C20.1449 3.25 20.9257 5.135 19.8232 6.23744L17.2374 8.82322C17.1398 8.92085 17.1398 9.07914 17.2374 9.17678L19.8232 11.7626C20.9257 12.865 20.1449 14.75 18.5858 14.75H5.75V21C5.75 21.4142 5.41421 21.75 5 21.75C4.58579 21.75 4.25 21.4142 4.25 21V4ZM5.75 13.25H18.5858C18.8085 13.25 18.9201 12.9807 18.7626 12.8232L16.1768 10.2374C15.4934 9.55402 15.4934 8.44598 16.1768 7.76256L18.7626 5.17678C18.9201 5.01929 18.8085 4.75 18.5858 4.75H5.75V13.25Z" fill="black"/>
</svg>
