<svg width="24" height="24" viewBox="0 0 24 24" fill="none" xmlns="http://www.w3.org/2000/svg">
<path fill-rule="evenodd" clip-rule="evenodd" d="M4.59646 2.80364C5.31961 2.51438 6.41546 2.25 8 2.25C9.64493 2.25 11.0097 2.79602 12.2349 3.28619L12.2785 3.30364C13.5421 3.80907 14.6645 4.25 16 4.25C17.4155 4.25 18.3196 4.01438 18.8465 3.80364C19.1105 3.69801 19.2832 3.59729 19.3808 3.53221C19.4298 3.49958 19.4603 3.47561 19.4744 3.46402C19.478 3.46105 19.4805 3.45889 19.482 3.45759C19.6964 3.25279 20.0121 3.19321 20.287 3.30709C20.5673 3.42318 20.75 3.69665 20.75 4V16C20.75 16.1989 20.671 16.3897 20.5303 16.5303L20 16C20.5303 16.5303 20.5299 16.5307 20.5295 16.5311L20.5287 16.5319L20.527 16.5336L20.5233 16.5373L20.5147 16.5456C20.5084 16.5516 20.501 16.5585 20.4925 16.5662C20.4756 16.5816 20.4541 16.6004 20.428 16.6219C20.3756 16.665 20.3046 16.7192 20.2129 16.7803C20.0293 16.9027 19.7645 17.052 19.4035 17.1964C18.6804 17.4856 17.5845 17.75 16 17.75C14.3551 17.75 12.9903 17.204 11.7651 16.7138L11.7215 16.6964C10.4579 16.1909 9.33552 15.75 8 15.75C6.58454 15.75 5.68039 15.9856 5.15354 16.1964C4.98193 16.265 4.8489 16.3316 4.75 16.3876V21C4.75 21.4142 4.41421 21.75 4 21.75C3.58579 21.75 3.25 21.4142 3.25 21V4C3.25 3.80109 3.32902 3.61032 3.46967 3.46967L4 4C3.46967 3.46967 3.47006 3.46928 3.47046 3.46888L3.47127 3.46807L3.47298 3.46638L3.47668 3.46274L3.4853 3.45443C3.49159 3.44843 3.49897 3.44154 3.50746 3.43381C3.52445 3.41837 3.54589 3.39962 3.57205 3.37808C3.62438 3.33499 3.69542 3.28083 3.7871 3.21971C3.97074 3.09729 4.23554 2.94801 4.59646 2.80364ZM4.75 4.38764V14.7448C5.4717 14.4795 6.52376 14.25 8 14.25C9.64493 14.25 11.0097 14.796 12.2349 15.2862L12.2785 15.3036C13.5421 15.8091 14.6645 16.25 16 16.25C17.4155 16.25 18.3196 16.0144 18.8465 15.8036C19.0181 15.735 19.1511 15.6684 19.25 15.6124V5.25525C18.5283 5.52053 17.4762 5.75 16 5.75C14.3551 5.75 12.9903 5.20398 11.7651 4.7138L11.7215 4.69636C10.4579 4.19093 9.33552 3.75 8 3.75C6.58454 3.75 5.68039 3.98562 5.15354 4.19636C4.98193 4.265 4.8489 4.33158 4.75 4.38764Z" fill="black"/>
</svg>
