<svg width="24" height="24" viewBox="0 0 24 24" fill="none" xmlns="http://www.w3.org/2000/svg">
<path fill-rule="evenodd" clip-rule="evenodd" d="M10.6819 5.2724L10.5 6L9.77239 5.8181C9.87285 5.41625 10.2801 5.17193 10.6819 5.2724ZM19.5166 12C19.3979 11.8758 19.2466 11.7264 19.058 11.555C18.4142 10.9697 17.3344 10.1263 15.6279 9.15119C13.9081 8.16842 12.5643 7.55851 11.659 7.19636C11.4402 7.10887 11.2471 7.03583 11.0803 6.97548C11.0173 7.38149 10.9442 7.94315 10.8828 8.66048C10.8076 9.53964 10.75 10.6528 10.75 12C10.75 13.3558 10.8084 14.4745 10.8843 15.3563C10.9453 16.0656 11.0177 16.6217 11.0803 17.0245C11.2471 16.9642 11.4402 16.8911 11.659 16.8036C12.5643 16.4415 13.9081 15.8316 15.6279 14.8488C17.3344 13.8737 18.4142 13.0303 19.058 12.445C19.2466 12.2736 19.3979 12.1242 19.5166 12ZM10.5 18C10.6819 18.7276 10.6821 18.7276 10.6823 18.7275L10.6838 18.7271L10.6864 18.7265L10.6938 18.7246L10.7173 18.7184C10.7368 18.7132 10.764 18.7057 10.7988 18.6958C10.8684 18.6759 10.9683 18.6461 11.0974 18.6044C11.3558 18.5211 11.7313 18.3903 12.216 18.1964C13.1857 17.8085 14.5919 17.1684 16.3721 16.1512C18.1656 15.1263 19.3358 14.2197 20.067 13.555C20.4326 13.2226 20.6881 12.9511 20.8567 12.7558C20.941 12.6583 21.0035 12.5798 21.0471 12.5225C21.0689 12.4938 21.0859 12.4705 21.0987 12.4527L21.1145 12.4301L21.12 12.422L21.1222 12.4187L21.1232 12.4173C21.1234 12.417 21.124 12.416 20.5 12L21.124 12.416C21.292 12.1641 21.292 11.8359 21.124 11.584L20.5 12C21.124 11.584 21.1242 11.5843 21.124 11.584L21.1232 11.5827L21.1222 11.5813L21.12 11.578L21.1145 11.5699L21.0987 11.5474C21.0859 11.5295 21.0689 11.5062 21.0471 11.4775C21.0035 11.4202 20.941 11.3418 20.8567 11.2442C20.6881 11.0489 20.4326 10.7774 20.067 10.445C19.3358 9.78028 18.1656 8.8737 16.3721 7.84882C14.5919 6.83158 13.1857 6.1915 12.216 5.80365C11.7313 5.60974 11.3558 5.47893 11.0974 5.3956C10.9683 5.35393 10.8684 5.32413 10.7988 5.30425C10.764 5.29431 10.7368 5.28685 10.7173 5.28162L10.6938 5.27542L10.6864 5.27352L10.6838 5.27287L10.6819 5.2724C10.6817 5.27234 10.6819 5.2724 10.5 6C9.77239 5.8181 9.77242 5.81798 9.77239 5.8181L9.7718 5.8205L9.7709 5.82416L9.7682 5.83531L9.75941 5.87285C9.75211 5.90466 9.74203 5.95002 9.72972 6.00893C9.70511 6.12677 9.67159 6.29881 9.63364 6.52505C9.59816 6.73654 9.5588 6.99538 9.5192 7.30155C8.03269 6.41473 6.27948 5.67179 4.6819 5.2724C4.48893 5.22415 4.2847 5.25454 4.11413 5.35688C3.94356 5.45922 3.82064 5.62513 3.77239 5.8181L4.5 6C3.77239 5.8181 3.77244 5.81792 3.77239 5.8181L3.77197 5.81981L3.77137 5.82224L3.76964 5.82932L3.76417 5.8523C3.75967 5.87153 3.75347 5.89859 3.74584 5.93348C3.73058 6.00326 3.70955 6.10437 3.68472 6.23679C3.63506 6.50163 3.5702 6.8917 3.50579 7.40698C3.37697 8.43759 3.25 9.96866 3.25 12C3.25 14.0313 3.37696 15.5624 3.50579 16.593C3.5702 17.1083 3.63506 17.4984 3.68472 17.7632C3.70955 17.8956 3.73057 17.9967 3.74584 18.0665C3.75347 18.1014 3.75966 18.1285 3.76417 18.1477L3.76964 18.1707L3.77137 18.1778L3.77197 18.1802L3.7723 18.1815C3.77235 18.1817 3.77239 18.1819 4.5 18L3.7723 18.1815C3.87276 18.5834 4.28005 18.8281 4.6819 18.7276C6.38416 18.302 8.0255 17.4763 9.51199 16.6422C9.55429 16.9753 9.59656 17.2543 9.63439 17.4794C9.67216 17.7042 9.70549 17.8752 9.72996 17.9922C9.7422 18.0508 9.75222 18.0959 9.75948 18.1275L9.76822 18.1648L9.7709 18.1759L9.7718 18.1795L9.77213 18.1809C9.77216 18.181 9.77239 18.1819 10.5 18ZM10.5 18L9.77239 18.1819C9.82063 18.3749 9.94356 18.5408 10.1141 18.6431C10.2847 18.7455 10.4893 18.7758 10.6823 18.7275L10.5 18ZM9.35213 15.0076C9.29197 14.1704 9.25 13.1679 9.25 12C9.25 10.8213 9.29275 9.81095 9.35381 8.96911C8.1078 8.14142 6.55317 7.40421 5.0852 6.94424C5.05641 7.12751 5.02537 7.34377 4.99421 7.59303C4.87304 8.56241 4.75 10.0313 4.75 12C4.75 13.9687 4.87304 15.4376 4.99421 16.407C5.02506 16.6538 5.05579 16.8682 5.08434 17.0503C6.53662 16.5739 7.96623 15.8032 9.35213 15.0076Z" fill="black"/>
</svg>
