<svg width="24" height="24" viewBox="0 0 24 24" fill="none" xmlns="http://www.w3.org/2000/svg">
<path fill-rule="evenodd" clip-rule="evenodd" d="M10.7494 3.01028C10.7666 3.42413 10.4451 3.77362 10.0313 3.79089C8.49734 3.8549 7.13152 3.98872 6.10846 4.15445C5.59528 4.23758 5.18322 4.32639 4.88532 4.41354C4.73602 4.45722 4.62888 4.49662 4.55798 4.52866C4.55057 4.53201 4.54391 4.53512 4.53797 4.53797C4.53512 4.54391 4.53201 4.55057 4.52866 4.55798C4.49662 4.62888 4.45722 4.73602 4.41354 4.88532C4.32639 5.18322 4.23758 5.59528 4.15445 6.10846C3.98872 7.13152 3.8549 8.49734 3.79089 10.0313C3.77362 10.4451 3.42413 10.7666 3.01028 10.7494C2.59642 10.7321 2.27493 10.3826 2.2922 9.96873C2.35803 8.39108 2.49629 6.96405 2.67375 5.86859C2.76222 5.3225 2.86279 4.84388 2.97389 4.46412C3.02935 4.27459 3.0913 4.09617 3.16173 3.94031C3.22657 3.79682 3.32302 3.61633 3.46967 3.46967C3.61633 3.32302 3.79682 3.22657 3.94031 3.16173C4.09617 3.0913 4.27459 3.02935 4.46412 2.97389C4.84388 2.86279 5.3225 2.76222 5.86859 2.67375C6.96405 2.49629 8.39108 2.35803 9.96873 2.2922C10.3826 2.27493 10.7321 2.59642 10.7494 3.01028ZM13.2506 3.01028C13.2679 2.59642 13.6174 2.27493 14.0313 2.2922C15.6089 2.35803 17.036 2.49629 18.1314 2.67375C18.6775 2.76222 19.1561 2.86279 19.5359 2.97389C19.7254 3.02935 19.9038 3.0913 20.0597 3.16173C20.2032 3.22657 20.3837 3.32302 20.5303 3.46967C20.677 3.61633 20.7734 3.79682 20.8383 3.94031C20.9087 4.09617 20.9707 4.27459 21.0261 4.46412C21.1372 4.84388 21.2378 5.3225 21.3262 5.86859C21.5037 6.96405 21.642 8.39108 21.7078 9.96873C21.7251 10.3826 21.4036 10.7321 20.9897 10.7494C20.5759 10.7666 20.2264 10.4451 20.2091 10.0313C20.1451 8.49734 20.0113 7.13152 19.8455 6.10845C19.7624 5.59528 19.6736 5.18322 19.5865 4.88532C19.5428 4.73602 19.5034 4.62888 19.4713 4.55798C19.468 4.55056 19.4649 4.54391 19.462 4.53797C19.4561 4.53512 19.4494 4.53201 19.442 4.52866C19.3711 4.49662 19.264 4.45722 19.1147 4.41354C18.8168 4.32639 18.4047 4.23758 17.8915 4.15445C16.8685 3.98872 15.5027 3.8549 13.9687 3.79089C13.5549 3.77362 13.2334 3.42413 13.2506 3.01028ZM3.01028 13.2506C3.42413 13.2334 3.77362 13.5549 3.79089 13.9687C3.8549 15.5027 3.98872 16.8685 4.15445 17.8915C4.23758 18.4047 4.32639 18.8168 4.41354 19.1147C4.45722 19.264 4.49662 19.3711 4.52866 19.442C4.53201 19.4494 4.53512 19.4561 4.53797 19.462C4.54391 19.4649 4.55056 19.468 4.55798 19.4713C4.62888 19.5034 4.73602 19.5428 4.88532 19.5865C5.18321 19.6736 5.59528 19.7624 6.10845 19.8455C7.13151 20.0113 8.49732 20.1451 10.0313 20.2091C10.4451 20.2264 10.7666 20.5759 10.7493 20.9897C10.7321 21.4036 10.3826 21.7251 9.96872 21.7078C8.39107 21.642 6.96404 21.5037 5.86858 21.3262C5.3225 21.2378 4.84388 21.1372 4.46412 21.0261C4.27459 20.9707 4.09616 20.9087 3.94031 20.8383C3.79682 20.7734 3.61633 20.677 3.46967 20.5303C3.32302 20.3837 3.22657 20.2032 3.16173 20.0597C3.0913 19.9038 3.02935 19.7254 2.97389 19.5359C2.86279 19.1561 2.76222 18.6775 2.67375 18.1314C2.49629 17.036 2.35803 15.6089 2.2922 14.0313C2.27493 13.6174 2.59642 13.2679 3.01028 13.2506ZM20.9897 13.2507C21.4036 13.268 21.7251 13.6174 21.7078 14.0313C21.642 15.6089 21.5037 17.036 21.3262 18.1314C21.2378 18.6775 21.1372 19.1561 21.0261 19.5359C20.9707 19.7254 20.9087 19.9038 20.8383 20.0597C20.7734 20.2032 20.677 20.3837 20.5303 20.5303C20.3837 20.677 20.2032 20.7734 20.0597 20.8383C19.9038 20.9087 19.7254 20.9707 19.5359 21.0261C19.1561 21.1372 18.6775 21.2378 18.1314 21.3263C17.036 21.5037 15.6089 21.642 14.0313 21.7078C13.6174 21.7251 13.2679 21.4036 13.2506 20.9897C13.2334 20.5759 13.5549 20.2264 13.9687 20.2091C15.5027 20.1451 16.8685 20.0113 17.8915 19.8456C18.4047 19.7624 18.8168 19.6736 19.1147 19.5865C19.264 19.5428 19.3711 19.5034 19.442 19.4714C19.4494 19.468 19.4561 19.4649 19.462 19.462C19.4649 19.4561 19.468 19.4494 19.4713 19.442C19.5034 19.3711 19.5428 19.264 19.5865 19.1147C19.6736 18.8168 19.7624 18.4047 19.8455 17.8916C20.0113 16.8685 20.1451 15.5027 20.2091 13.9688C20.2264 13.5549 20.5759 13.2334 20.9897 13.2507Z" fill="black"/>
</svg>
