<svg width="24" height="24" viewBox="0 0 24 24" fill="none" xmlns="http://www.w3.org/2000/svg">
<path fill-rule="evenodd" clip-rule="evenodd" d="M6.45079 6.32511C6.14925 6.33493 5.88092 6.3454 5.65179 6.35632C5.25999 6.375 4.92378 6.39705 4.75067 6.42951C4.27474 6.51875 3.90058 6.84346 3.6621 7.18629C3.41407 7.54283 3.25 8.00322 3.25 8.5C3.25 8.99678 3.41407 9.45717 3.6621 9.81371C3.87281 10.1166 4.18942 10.4054 4.58856 10.5301C4.56274 10.6684 4.53591 10.8227 4.50916 10.9923C4.37872 11.8194 4.25 13.0124 4.25 14.5C4.25 15.9749 4.34908 17.3642 4.50035 18.4411C4.57574 18.9779 4.66618 19.4521 4.76881 19.827C4.81993 20.0137 4.87813 20.1908 4.94564 20.3451C5.00525 20.4813 5.10373 20.6754 5.26744 20.8274C5.42711 20.9756 5.62634 21.0621 5.76436 21.1142C5.92308 21.1741 6.10728 21.2264 6.30424 21.2729C6.69976 21.3663 7.20363 21.4493 7.77788 21.5189C8.92952 21.6584 10.4182 21.75 12 21.75C13.5818 21.75 15.0705 21.6584 16.2221 21.5189C16.7964 21.4493 17.3002 21.3663 17.6958 21.2729C17.8927 21.2264 18.0769 21.1741 18.2356 21.1142C18.3737 21.0621 18.5729 20.9756 18.7326 20.8274C18.8963 20.6754 18.9948 20.4813 19.0544 20.3451C19.1219 20.1908 19.1801 20.0137 19.2312 19.827C19.3338 19.4521 19.4243 18.9779 19.4997 18.4411C19.6509 17.3642 19.75 15.9749 19.75 14.5C19.75 13.0124 19.6213 11.8194 19.4908 10.9923C19.4641 10.8227 19.4373 10.6684 19.4114 10.5301C19.8106 10.4054 20.1272 10.1166 20.3379 9.81371C20.5859 9.45717 20.75 8.99678 20.75 8.5C20.75 8.00322 20.5859 7.54283 20.3379 7.18629C20.0994 6.84346 19.7253 6.51875 19.2493 6.42951C19.0762 6.39705 18.74 6.375 18.3482 6.35632C18.1016 6.34456 17.8095 6.33333 17.4795 6.32288C17.6098 6.18453 17.7253 6.03273 17.8211 5.86628C18.2363 5.14515 18.1934 4.30956 17.7116 3.47497C17.2297 2.64039 16.5275 2.18549 15.6954 2.18451C14.9372 2.18362 14.223 2.56308 13.6443 3.01739C13.014 3.51214 12.4233 4.19196 11.9641 4.90167C11.5049 4.19196 10.9142 3.51214 10.2839 3.01739C9.70518 2.56308 8.99101 2.18362 8.23278 2.18451C7.40069 2.18549 6.69849 2.64039 6.21665 3.47497C5.7348 4.30956 5.69191 5.14515 6.10708 5.86628C6.20342 6.03363 6.3197 6.18617 6.45079 6.32511ZM12.9154 6.24413C13.7317 6.28003 14.73 6.14953 15.5156 5.83422C16.0631 5.61443 16.386 5.35264 16.5212 5.11788C16.6195 4.94712 16.6807 4.6895 16.4125 4.22497C16.1444 3.76048 15.8907 3.68474 15.6937 3.68451C15.4228 3.68419 15.0346 3.83294 14.5705 4.19729C13.9047 4.71995 13.2925 5.51922 12.9154 6.24413ZM11.0129 6.24413C10.6357 5.51922 10.0236 4.71995 9.35773 4.19729C8.89359 3.83294 8.50543 3.68419 8.23455 3.68451C8.03754 3.68474 7.78386 3.76048 7.51569 4.22497C7.24749 4.6895 7.30873 4.94712 7.40704 5.11788C7.54219 5.35264 7.86508 5.61443 8.41266 5.83422C9.19822 6.14953 10.1965 6.28003 11.0129 6.24413ZM17.9094 10.6623C16.578 10.7127 14.3841 10.75 12 10.75C9.61593 10.75 7.42196 10.7127 6.09059 10.6623C6.05945 10.8195 6.02523 11.008 5.99084 11.226C5.87128 11.9842 5.75 13.0987 5.75 14.5C5.75 15.914 5.84537 17.233 5.98576 18.2325C6.0562 18.7339 6.1359 19.1399 6.21556 19.4309C6.2503 19.5577 6.28199 19.6514 6.30819 19.7161C6.38483 19.744 6.49699 19.7772 6.64888 19.813C6.97038 19.8889 7.41442 19.9639 7.95823 20.0298C9.0427 20.1611 10.4707 20.25 12 20.25C13.5293 20.25 14.9573 20.1611 16.0418 20.0298C16.5856 19.9639 17.0296 19.8889 17.3511 19.813C17.503 19.7772 17.6152 19.744 17.6918 19.7161C17.718 19.6514 17.7497 19.5577 17.7844 19.4309C17.8641 19.1399 17.9438 18.7339 18.0142 18.2325C18.1546 17.233 18.25 15.914 18.25 14.5C18.25 13.0987 18.1287 11.9842 18.0092 11.226C17.9748 11.008 17.9405 10.8195 17.9094 10.6623ZM17.6566 19.7916C17.6566 19.7916 17.657 19.7908 17.658 19.7894C17.6571 19.7909 17.6566 19.7917 17.6566 19.7916ZM6.34342 19.7916C6.34341 19.7917 6.34294 19.7909 6.34205 19.7894C6.34298 19.7908 6.34342 19.7916 6.34342 19.7916ZM5.03469 7.90267C5.03309 7.90491 4.97161 7.93053 4.89346 8.04288C4.80816 8.1655 4.75 8.33011 4.75 8.5C4.75 8.66989 4.80816 8.8345 4.89346 8.95712C4.97158 9.06942 5.03304 9.09507 5.03469 9.09733C5.04099 9.09823 5.0514 9.09963 5.06673 9.10141C5.09434 9.1046 5.13082 9.10821 5.17706 9.1121C5.26963 9.1199 5.39106 9.12798 5.54072 9.13612C6.67786 9.19794 9.19374 9.25 12 9.25C14.8063 9.25 17.3221 9.19794 18.4593 9.13612C18.6089 9.12798 18.7304 9.1199 18.8229 9.1121C18.8692 9.10821 18.9057 9.1046 18.9333 9.10141C18.9486 9.09963 18.959 9.09823 18.9653 9.09733C18.967 9.09507 19.0284 9.06943 19.1065 8.95712C19.1918 8.8345 19.25 8.66989 19.25 8.5C19.25 8.33011 19.1918 8.1655 19.1065 8.04288C19.0284 7.93053 18.9669 7.9049 18.9653 7.90267C18.957 7.90147 18.9414 7.8994 18.9166 7.89673C18.8788 7.89265 18.8292 7.88816 18.7668 7.88341C18.6421 7.87391 18.4779 7.86421 18.2768 7.85462C17.8751 7.83547 17.3397 7.81741 16.7039 7.80186C15.433 7.77078 13.7725 7.75 12 7.75C10.2275 7.75 8.567 7.77078 7.29611 7.80186C6.66029 7.81741 6.12495 7.83547 5.72321 7.85462C5.52205 7.86421 5.35794 7.87391 5.23321 7.88341C5.17083 7.88816 5.12119 7.89265 5.08341 7.89673C5.05865 7.8994 5.04304 7.90147 5.03469 7.90267Z" fill="black"/>
</svg>
