<svg width="24" height="24" viewBox="0 0 24 24" fill="none" xmlns="http://www.w3.org/2000/svg">
<path fill-rule="evenodd" clip-rule="evenodd" d="M4.08054 4.31001C4.07478 4.3377 4.0667 4.37997 4.05715 4.44034C4.03637 4.57185 4.01449 4.74941 3.99245 4.97223C3.9485 5.41676 3.9067 6.01311 3.87056 6.72549C3.79837 8.14872 3.75 10.0109 3.75 12C3.75 13.9891 3.79837 15.8513 3.87056 17.2745C3.9067 17.9869 3.9485 18.5832 3.99245 19.0278C4.01449 19.2506 4.03637 19.4282 4.05715 19.5597C4.0667 19.62 4.07478 19.6623 4.08054 19.69C4.09507 19.702 4.117 19.7187 4.14868 19.7394C4.25913 19.8116 4.43345 19.8962 4.67252 19.9764C5.14852 20.1361 5.79654 20.25 6.5 20.25C7.20346 20.25 7.85148 20.1361 8.32748 19.9764C8.56655 19.8962 8.74087 19.8116 8.85132 19.7394C8.883 19.7187 8.90493 19.702 8.91946 19.69C8.92522 19.6623 8.9333 19.62 8.94285 19.5597C8.96363 19.4282 8.98552 19.2506 9.00755 19.0278C9.0515 18.5832 9.0933 17.9869 9.12944 17.2745C9.20163 15.8513 9.25 13.9891 9.25 12C9.25 10.0109 9.20163 8.14872 9.12944 6.72549C9.0933 6.01311 9.0515 5.41676 9.00755 4.97223C8.98552 4.74941 8.96363 4.57185 8.94285 4.44034C8.9333 4.37997 8.92522 4.3377 8.91946 4.31001C8.90492 4.29796 8.883 4.28127 8.85132 4.26057C8.74087 4.18836 8.56655 4.10376 8.32748 4.02357C7.85148 3.86392 7.20346 3.75 6.5 3.75C5.79654 3.75 5.14852 3.86392 4.67252 4.02357C4.43345 4.10376 4.25913 4.18836 4.14868 4.26057C4.117 4.28127 4.09508 4.29796 4.08054 4.31001ZM4.19553 2.60143C4.83759 2.38608 5.64791 2.25 6.5 2.25C7.35209 2.25 8.16241 2.38608 8.80447 2.60143C9.12442 2.70874 9.42406 2.84289 9.67211 3.00506C9.90116 3.1548 10.1776 3.38742 10.3101 3.72817C10.3665 3.87318 10.4004 4.05395 10.4245 4.20615C10.4515 4.37737 10.4767 4.58653 10.5003 4.82464C10.5475 5.30199 10.5907 5.92439 10.6275 6.64951C10.7011 8.10128 10.75 9.98906 10.75 12C10.75 14.0109 10.7011 15.8987 10.6275 17.3505C10.5907 18.0756 10.5475 18.698 10.5003 19.1754C10.4767 19.4135 10.4515 19.6226 10.4245 19.7939C10.4004 19.9461 10.3665 20.1268 10.3101 20.2718C10.1776 20.6126 9.90116 20.8452 9.67211 20.9949C9.42406 21.1571 9.12442 21.2913 8.80447 21.3986C8.16241 21.6139 7.35209 21.75 6.5 21.75C5.64791 21.75 4.83759 21.6139 4.19553 21.3986C3.87558 21.2913 3.57594 21.1571 3.32789 20.9949C3.09884 20.8452 2.8224 20.6126 2.68989 20.2718C2.63349 20.1268 2.59961 19.9461 2.57555 19.7939C2.54848 19.6226 2.52328 19.4135 2.49973 19.1754C2.45254 18.698 2.40927 18.0756 2.37249 17.3505C2.29885 15.8987 2.25 14.0109 2.25 12C2.25 9.98906 2.29885 8.10128 2.37249 6.64951C2.40927 5.92439 2.45254 5.30199 2.49973 4.82464C2.52328 4.58653 2.54848 4.37737 2.57555 4.20615C2.59961 4.05395 2.63349 3.87318 2.68989 3.72817C2.8224 3.38742 3.09884 3.1548 3.32789 3.00506C3.57594 2.84289 3.87558 2.70874 4.19553 2.60143ZM15.0805 4.31001C15.0748 4.3377 15.0667 4.37997 15.0572 4.44034C15.0364 4.57185 15.0145 4.74941 14.9925 4.97223C14.9485 5.41676 14.9067 6.01311 14.8706 6.72549C14.7984 8.14872 14.75 10.0109 14.75 12C14.75 13.9891 14.7984 15.8513 14.8706 17.2745C14.9067 17.9869 14.9485 18.5832 14.9925 19.0278C15.0145 19.2506 15.0364 19.4282 15.0572 19.5597C15.0667 19.62 15.0748 19.6623 15.0805 19.69C15.0951 19.702 15.117 19.7187 15.1487 19.7394C15.2591 19.8116 15.4334 19.8962 15.6725 19.9764C16.1485 20.1361 16.7965 20.25 17.5 20.25C18.2035 20.25 18.8515 20.1361 19.3275 19.9764C19.5665 19.8962 19.7409 19.8116 19.8513 19.7394C19.883 19.7187 19.9049 19.702 19.9195 19.69C19.9252 19.6623 19.9333 19.62 19.9428 19.5597C19.9636 19.4282 19.9855 19.2506 20.0075 19.0278C20.0515 18.5832 20.0933 17.9869 20.1294 17.2745C20.2016 15.8513 20.25 13.9891 20.25 12C20.25 10.0109 20.2016 8.14872 20.1294 6.72549C20.0933 6.01311 20.0515 5.41676 20.0075 4.97223C19.9855 4.74941 19.9636 4.57185 19.9428 4.44034C19.9333 4.37997 19.9252 4.3377 19.9195 4.31001C19.9049 4.29795 19.883 4.28127 19.8513 4.26057C19.7409 4.18836 19.5665 4.10376 19.3275 4.02357C18.8515 3.86392 18.2035 3.75 17.5 3.75C16.7965 3.75 16.1485 3.86392 15.6725 4.02357C15.4334 4.10376 15.2591 4.18836 15.1487 4.26057C15.117 4.28127 15.0951 4.29796 15.0805 4.31001ZM15.1955 2.60143C15.8376 2.38608 16.6479 2.25 17.5 2.25C18.3521 2.25 19.1624 2.38608 19.8045 2.60143C20.1244 2.70874 20.4241 2.84289 20.6721 3.00506C20.9012 3.1548 21.1776 3.38742 21.3101 3.72817C21.3665 3.87318 21.4004 4.05395 21.4244 4.20615C21.4515 4.37737 21.4767 4.58653 21.5003 4.82464C21.5475 5.30199 21.5907 5.92439 21.6275 6.64951C21.7011 8.10128 21.75 9.98906 21.75 12C21.75 14.0109 21.7011 15.8987 21.6275 17.3505C21.5907 18.0756 21.5475 18.698 21.5003 19.1754C21.4767 19.4135 21.4515 19.6226 21.4244 19.7939C21.4004 19.9461 21.3665 20.1268 21.3101 20.2718C21.1776 20.6126 20.9012 20.8452 20.6721 20.9949C20.4241 21.1571 20.1244 21.2913 19.8045 21.3986C19.1624 21.6139 18.3521 21.75 17.5 21.75C16.6479 21.75 15.8376 21.6139 15.1955 21.3986C14.8756 21.2913 14.5759 21.1571 14.3279 20.9949C14.0988 20.8452 13.8224 20.6126 13.6899 20.2718C13.6335 20.1268 13.5996 19.9461 13.5755 19.7939C13.5485 19.6226 13.5233 19.4135 13.4997 19.1754C13.4525 18.698 13.4093 18.0756 13.3725 17.3505C13.2989 15.8987 13.25 14.0109 13.25 12C13.25 9.98906 13.2989 8.10128 13.3725 6.64951C13.4093 5.92439 13.4525 5.30199 13.4997 4.82464C13.5233 4.58653 13.5485 4.37737 13.5755 4.20615C13.5996 4.05395 13.6335 3.87318 13.6899 3.72817C13.8224 3.38742 14.0988 3.1548 14.3279 3.00506C14.5759 2.84289 14.8756 2.70874 15.1955 2.60143Z" fill="black"/>
</svg>
