<svg width="24" height="24" viewBox="0 0 24 24" fill="none" xmlns="http://www.w3.org/2000/svg">
<path fill-rule="evenodd" clip-rule="evenodd" d="M4.31001 4.08054C4.29796 4.09508 4.28127 4.117 4.26057 4.14868C4.18836 4.25913 4.10376 4.43345 4.02357 4.67252C3.86392 5.14852 3.75 5.79654 3.75 6.5C3.75 7.20346 3.86392 7.85148 4.02357 8.32748C4.10376 8.56655 4.18836 8.74087 4.26057 8.85132C4.28127 8.883 4.29796 8.90492 4.31001 8.91946C4.3377 8.92522 4.37997 8.9333 4.44034 8.94285C4.57185 8.96363 4.74941 8.98552 4.97223 9.00755C5.41676 9.0515 6.01311 9.0933 6.72549 9.12944C8.14872 9.20163 10.0109 9.25 12 9.25C13.9891 9.25 15.8513 9.20163 17.2745 9.12943C17.9869 9.0933 18.5832 9.0515 19.0278 9.00754C19.2506 8.98551 19.4282 8.96363 19.5597 8.94284C19.62 8.9333 19.6623 8.92522 19.69 8.91946C19.702 8.90492 19.7187 8.883 19.7394 8.85132C19.8116 8.74087 19.8962 8.56655 19.9764 8.32748C20.1361 7.85148 20.25 7.20346 20.25 6.5C20.25 5.79654 20.1361 5.14852 19.9764 4.67252C19.8962 4.43345 19.8116 4.25913 19.7394 4.14868C19.7187 4.117 19.702 4.09507 19.69 4.08054C19.6623 4.07478 19.62 4.0667 19.5597 4.05715C19.4282 4.03637 19.2506 4.01449 19.0278 3.99245C18.5832 3.9485 17.9869 3.9067 17.2745 3.87056C15.8513 3.79837 13.9891 3.75 12 3.75C10.0109 3.75 8.14872 3.79837 6.72549 3.87057C6.01311 3.9067 5.41676 3.9485 4.97223 3.99246C4.74941 4.01449 4.57185 4.03637 4.44034 4.05716C4.37997 4.0667 4.3377 4.07478 4.31001 4.08054ZM6.64951 2.37249C8.10128 2.29885 9.98906 2.25 12 2.25C14.0109 2.25 15.8987 2.29885 17.3505 2.37249C18.0756 2.40927 18.698 2.45254 19.1754 2.49973C19.4135 2.52328 19.6226 2.54848 19.7939 2.57555C19.9461 2.59961 20.1268 2.63349 20.2718 2.68989C20.6126 2.8224 20.8452 3.09884 20.9949 3.32788C21.1571 3.57594 21.2913 3.87558 21.3986 4.19553C21.6139 4.83759 21.75 5.64791 21.75 6.5C21.75 7.35209 21.6139 8.16241 21.3986 8.80447C21.2913 9.12442 21.1571 9.42406 20.9949 9.67211C20.8452 9.90116 20.6126 10.1776 20.2718 10.3101C20.1268 10.3665 19.9461 10.4004 19.7939 10.4244C19.6226 10.4515 19.4135 10.4767 19.1754 10.5003C18.698 10.5475 18.0756 10.5907 17.3505 10.6275C15.8987 10.7011 14.0109 10.75 12 10.75C9.98906 10.75 8.10128 10.7011 6.64951 10.6275C5.92439 10.5907 5.30199 10.5475 4.82464 10.5003C4.58653 10.4767 4.37737 10.4515 4.20615 10.4245C4.05395 10.4004 3.87318 10.3665 3.72817 10.3101C3.38742 10.1776 3.1548 9.90116 3.00506 9.67211C2.84289 9.42406 2.70874 9.12442 2.60143 8.80447C2.38608 8.16241 2.25 7.35209 2.25 6.5C2.25 5.64791 2.38608 4.83759 2.60143 4.19553C2.70874 3.87558 2.84289 3.57594 3.00506 3.32789C3.1548 3.09884 3.38742 2.8224 3.72816 2.68989C3.87318 2.63349 4.05395 2.59961 4.20615 2.57555C4.37737 2.54849 4.58653 2.52328 4.82464 2.49973C5.30199 2.45254 5.92439 2.40927 6.64951 2.37249ZM4.31001 15.0805C4.29796 15.0951 4.28127 15.117 4.26057 15.1487C4.18836 15.2591 4.10376 15.4334 4.02357 15.6725C3.86392 16.1485 3.75 16.7965 3.75 17.5C3.75 18.2035 3.86392 18.8515 4.02357 19.3275C4.10376 19.5665 4.18836 19.7409 4.26057 19.8513C4.28127 19.883 4.29796 19.9049 4.31001 19.9195C4.3377 19.9252 4.37997 19.9333 4.44034 19.9428C4.57185 19.9636 4.74941 19.9855 4.97223 20.0075C5.41676 20.0515 6.01311 20.0933 6.72549 20.1294C8.14872 20.2016 10.0109 20.25 12 20.25C13.9891 20.25 15.8513 20.2016 17.2745 20.1294C17.9869 20.0933 18.5832 20.0515 19.0278 20.0075C19.2506 19.9855 19.4282 19.9636 19.5597 19.9428C19.62 19.9333 19.6623 19.9252 19.69 19.9195C19.702 19.9049 19.7187 19.883 19.7394 19.8513C19.8116 19.7409 19.8962 19.5665 19.9764 19.3275C20.1361 18.8515 20.25 18.2035 20.25 17.5C20.25 16.7965 20.1361 16.1485 19.9764 15.6725C19.8962 15.4334 19.8116 15.2591 19.7394 15.1487C19.7187 15.117 19.702 15.0951 19.69 15.0805C19.6623 15.0748 19.62 15.0667 19.5597 15.0572C19.4282 15.0364 19.2506 15.0145 19.0278 14.9925C18.5832 14.9485 17.9869 14.9067 17.2745 14.8706C15.8513 14.7984 13.9891 14.75 12 14.75C10.0109 14.75 8.14872 14.7984 6.72549 14.8706C6.01311 14.9067 5.41676 14.9485 4.97223 14.9925C4.74941 15.0145 4.57185 15.0364 4.44034 15.0572C4.37997 15.0667 4.3377 15.0748 4.31001 15.0805ZM6.64951 13.3725C8.10128 13.2988 9.98906 13.25 12 13.25C14.0109 13.25 15.8987 13.2988 17.3505 13.3725C18.0756 13.4093 18.698 13.4525 19.1754 13.4997C19.4135 13.5233 19.6226 13.5485 19.7939 13.5755C19.9461 13.5996 20.1268 13.6335 20.2718 13.6899C20.6126 13.8224 20.8452 14.0988 20.9949 14.3279C21.1571 14.5759 21.2913 14.8756 21.3986 15.1955C21.6139 15.8376 21.75 16.6479 21.75 17.5C21.75 18.3521 21.6139 19.1624 21.3986 19.8045C21.2913 20.1244 21.1571 20.4241 20.9949 20.6721C20.8452 20.9012 20.6126 21.1776 20.2718 21.3101C20.1268 21.3665 19.9461 21.4004 19.7939 21.4244C19.6226 21.4515 19.4135 21.4767 19.1754 21.5003C18.698 21.5475 18.0756 21.5907 17.3505 21.6275C15.8987 21.7011 14.0109 21.75 12 21.75C9.98906 21.75 8.10128 21.7011 6.64951 21.6275C5.92439 21.5907 5.30199 21.5475 4.82464 21.5003C4.58653 21.4767 4.37737 21.4515 4.20615 21.4244C4.05395 21.4004 3.87318 21.3665 3.72817 21.3101C3.38742 21.1776 3.1548 20.9012 3.00506 20.6721C2.84289 20.4241 2.70874 20.1244 2.60143 19.8045C2.38608 19.1624 2.25 18.3521 2.25 17.5C2.25 16.6479 2.38608 15.8376 2.60143 15.1955C2.70874 14.8756 2.84289 14.5759 3.00506 14.3279C3.1548 14.0988 3.38742 13.8224 3.72816 13.6899C3.87318 13.6335 4.05395 13.5996 4.20615 13.5755C4.37737 13.5485 4.58653 13.5233 4.82464 13.4997C5.30199 13.4525 5.92439 13.4093 6.64951 13.3725Z" fill="black"/>
</svg>
