<svg width="24" height="24" viewBox="0 0 24 24" fill="none" xmlns="http://www.w3.org/2000/svg">
<path fill-rule="evenodd" clip-rule="evenodd" d="M4.32996 4.32996C3.97832 4.68161 3.75 5.3441 3.75 6.75C3.75 8.1559 3.97832 8.81839 4.32996 9.17004C4.68161 9.52168 5.3441 9.75 6.75 9.75C8.1559 9.75 8.81839 9.52168 9.17004 9.17004C9.52168 8.81839 9.75 8.1559 9.75 6.75C9.75 5.3441 9.52168 4.68161 9.17004 4.32996C8.81839 3.97832 8.1559 3.75 6.75 3.75C5.3441 3.75 4.68161 3.97832 4.32996 4.32996ZM3.2693 3.2693C4.07574 2.46286 5.28825 2.25 6.75 2.25C8.21175 2.25 9.42426 2.46286 10.2307 3.2693C11.0371 4.07574 11.25 5.28825 11.25 6.75C11.25 8.21175 11.0371 9.42426 10.2307 10.2307C9.42426 11.0371 8.21175 11.25 6.75 11.25C5.28825 11.25 4.07574 11.0371 3.2693 10.2307C2.46286 9.42426 2.25 8.21175 2.25 6.75C2.25 5.28825 2.46286 4.07574 3.2693 3.2693ZM14.83 4.32996C14.4783 4.68161 14.25 5.3441 14.25 6.75C14.25 8.1559 14.4783 8.81839 14.83 9.17004C15.1816 9.52168 15.8441 9.75 17.25 9.75C18.6559 9.75 19.3184 9.52168 19.67 9.17004C20.0217 8.81839 20.25 8.1559 20.25 6.75C20.25 5.3441 20.0217 4.68161 19.67 4.32996C19.3184 3.97832 18.6559 3.75 17.25 3.75C15.8441 3.75 15.1816 3.97832 14.83 4.32996ZM13.7693 3.2693C14.5757 2.46286 15.7882 2.25 17.25 2.25C18.7118 2.25 19.9243 2.46286 20.7307 3.2693C21.5371 4.07574 21.75 5.28825 21.75 6.75C21.75 8.21175 21.5371 9.42426 20.7307 10.2307C19.9243 11.0371 18.7118 11.25 17.25 11.25C15.7882 11.25 14.5757 11.0371 13.7693 10.2307C12.9629 9.42426 12.75 8.21175 12.75 6.75C12.75 5.28825 12.9629 4.07574 13.7693 3.2693ZM4.32996 14.83C3.97832 15.1816 3.75 15.8441 3.75 17.25C3.75 18.6559 3.97832 19.3184 4.32996 19.67C4.68161 20.0217 5.3441 20.25 6.75 20.25C8.1559 20.25 8.81839 20.0217 9.17004 19.67C9.52168 19.3184 9.75 18.6559 9.75 17.25C9.75 15.8441 9.52168 15.1816 9.17004 14.83C8.81839 14.4783 8.1559 14.25 6.75 14.25C5.3441 14.25 4.68161 14.4783 4.32996 14.83ZM3.2693 13.7693C4.07574 12.9629 5.28825 12.75 6.75 12.75C8.21175 12.75 9.42426 12.9629 10.2307 13.7693C11.0371 14.5757 11.25 15.7882 11.25 17.25C11.25 18.7118 11.0371 19.9243 10.2307 20.7307C9.42426 21.5371 8.21175 21.75 6.75 21.75C5.28825 21.75 4.07574 21.5371 3.2693 20.7307C2.46286 19.9243 2.25 18.7118 2.25 17.25C2.25 15.7882 2.46286 14.5757 3.2693 13.7693ZM14.83 14.83C14.4783 15.1816 14.25 15.8441 14.25 17.25C14.25 18.6559 14.4783 19.3184 14.83 19.67C15.1816 20.0217 15.8441 20.25 17.25 20.25C18.6559 20.25 19.3184 20.0217 19.67 19.67C20.0217 19.3184 20.25 18.6559 20.25 17.25C20.25 15.8441 20.0217 15.1816 19.67 14.83C19.3184 14.4783 18.6559 14.25 17.25 14.25C15.8441 14.25 15.1816 14.4783 14.83 14.83ZM13.7693 13.7693C14.5757 12.9629 15.7882 12.75 17.25 12.75C18.7118 12.75 19.9243 12.9629 20.7307 13.7693C21.5371 14.5757 21.75 15.7882 21.75 17.25C21.75 18.7118 21.5371 19.9243 20.7307 20.7307C19.9243 21.5371 18.7118 21.75 17.25 21.75C15.7882 21.75 14.5757 21.5371 13.7693 20.7307C12.9629 19.9243 12.75 18.7118 12.75 17.25C12.75 15.7882 12.9629 14.5757 13.7693 13.7693Z" fill="black"/>
</svg>
