<svg width="24" height="24" viewBox="0 0 24 24" fill="none" xmlns="http://www.w3.org/2000/svg">
<path fill-rule="evenodd" clip-rule="evenodd" d="M12 3.75C7.44365 3.75 3.75 7.44365 3.75 12V12.2557C4.61175 12.2729 5.61462 12.3418 6.47786 12.6171C7.05339 12.8006 7.62669 13.0932 8.05886 13.5761C8.50527 14.0749 8.75 14.7201 8.75 15.5V18.5C8.75 19.2656 8.50051 19.8996 8.05593 20.3905C7.62639 20.8649 7.05752 21.1592 6.48487 21.348C5.356 21.7203 3.99224 21.75 3 21.75C2.58579 21.75 2.25 21.4142 2.25 21V12C2.25 6.61522 6.61522 2.25 12 2.25C17.3848 2.25 21.75 6.61522 21.75 12V21C21.75 21.4142 21.4142 21.75 21 21.75C20.0078 21.75 18.644 21.7203 17.5151 21.348C16.9425 21.1592 16.3736 20.8649 15.9441 20.3905C15.4995 19.8996 15.25 19.2656 15.25 18.5V15.5C15.25 14.7344 15.4995 14.1004 15.9441 13.6095C16.3736 13.1351 16.9425 12.8408 17.5151 12.652C18.3798 12.3669 19.3822 12.2827 20.25 12.2589V12C20.25 7.44365 16.5563 3.75 12 3.75ZM20.25 13.7599C19.4569 13.7836 18.6448 13.8589 17.9849 14.0765C17.5575 14.2175 17.2514 14.4005 17.0559 14.6163C16.8755 14.8156 16.75 15.0846 16.75 15.5V18.5C16.75 18.9154 16.8755 19.1844 17.0559 19.3837C17.2514 19.5995 17.5575 19.7825 17.9849 19.9235C18.6448 20.1411 19.4569 20.2164 20.25 20.2401V13.7599ZM3.75 13.7566V20.2401C4.54311 20.2164 5.35519 20.1411 6.01513 19.9235C6.44248 19.7825 6.74861 19.5995 6.94407 19.3837C7.12449 19.1844 7.25 18.9154 7.25 18.5V15.5C7.25 15.0554 7.11973 14.776 6.94114 14.5764C6.74831 14.361 6.44661 14.1816 6.02214 14.0462C5.36114 13.8354 4.54962 13.774 3.75 13.7566Z" fill="black"/>
</svg>
