<svg width="24" height="24" viewBox="0 0 24 24" fill="none" xmlns="http://www.w3.org/2000/svg">
<path fill-rule="evenodd" clip-rule="evenodd" d="M4.89008 5.94951C4.21411 6.74613 3.75 7.98756 3.75 9.71405C3.75 12.4953 5.75597 14.8726 7.96625 16.6268C9.05134 17.488 10.1406 18.1627 10.9606 18.6226C11.3698 18.8521 11.7097 19.0269 11.9456 19.1435C11.9644 19.1528 11.9826 19.1617 12 19.1703C12.0174 19.1617 12.0356 19.1528 12.0544 19.1435C12.2903 19.0269 12.6302 18.8521 13.0394 18.6226C13.8594 18.1627 14.9487 17.488 16.0338 16.6268C18.244 14.8726 20.25 12.4953 20.25 9.71405C20.25 7.99082 19.7788 6.74904 19.098 5.95102C18.4237 5.16058 17.4991 4.75 16.4543 4.75C15.4566 4.75 14.494 5.16076 13.7799 5.90131L13.2597 6.44076C12.5715 7.15445 11.4285 7.15445 10.7403 6.44076L10.2201 5.90131C9.50598 5.16076 8.54338 4.75 7.54569 4.75C6.48125 4.75 5.5583 5.16201 4.89008 5.94951ZM12 20C11.6954 20.6854 11.6952 20.6853 11.6949 20.6851L11.6942 20.6848L11.6922 20.6839L11.6857 20.681L11.6632 20.6708C11.644 20.6621 11.6164 20.6494 11.5812 20.6329C11.5107 20.5999 11.4091 20.5515 11.2809 20.4882C11.0247 20.3615 10.6615 20.1747 10.2269 19.9309C9.3594 19.4444 8.19866 18.7263 7.03375 17.8017C4.74403 15.9844 2.25 13.2187 2.25 9.71405C2.25 7.72648 2.78589 6.1109 3.74634 4.979C4.71455 3.83799 6.06444 3.25 7.54569 3.25C8.95917 3.25 10.309 3.83256 11.2999 4.86011L11.82 5.39956C11.9184 5.50151 12.0816 5.50151 12.18 5.39956L12.7001 4.86011C13.691 3.83256 15.0408 3.25 16.4543 3.25C17.92 3.25 19.2683 3.83942 20.2392 4.97749C21.2036 6.10798 21.75 7.72323 21.75 9.71405C21.75 13.2187 19.256 15.9844 16.9662 17.8017C15.8013 18.7263 14.6406 19.4444 13.7731 19.9309C13.3385 20.1747 12.9753 20.3615 12.7191 20.4882C12.5909 20.5515 12.4893 20.5999 12.4188 20.6329C12.3836 20.6494 12.356 20.6621 12.3368 20.6708L12.3143 20.681L12.3078 20.6839L12.3058 20.6848L12.3051 20.6851C12.3048 20.6853 12.3046 20.6854 12 20ZM12 20L12.3046 20.6854C12.1107 20.7715 11.8893 20.7715 11.6954 20.6854L12 20Z" fill="black"/>
</svg>
