<svg width="24" height="24" viewBox="0 0 24 24" fill="none" xmlns="http://www.w3.org/2000/svg">
<path fill-rule="evenodd" clip-rule="evenodd" d="M12.9098 4.37995C12.346 4.03363 11.6538 4.03363 11.09 4.37995C10.0134 5.0412 8.43478 6.12578 7.03024 7.53033C5.50311 9.05745 4.8404 10.2015 4.53247 11.2707C4.24431 12.2712 4.24644 13.2533 4.24932 14.5812C4.24961 14.7171 4.24991 14.8565 4.24991 15C4.24991 16.3711 4.35734 17.5261 4.47061 18.3625C4.53832 18.8625 4.97987 19.25 5.56146 19.25H18.4384C19.0199 19.25 19.4615 18.8625 19.5292 18.3625C19.6425 17.5261 19.7499 16.3711 19.7499 15C19.7499 14.8566 19.7502 14.7171 19.7505 14.5813C19.7534 13.2534 19.7555 12.2712 19.4673 11.2707C19.1594 10.2015 18.4967 9.05744 16.9696 7.53033C15.565 6.12578 13.9864 5.0412 12.9098 4.37995ZM10.3049 3.10181C11.3503 2.45968 12.6495 2.45968 13.6949 3.10181C14.8264 3.79678 16.5121 4.95152 18.0302 6.46967C19.6715 8.11093 20.5088 9.46686 20.9088 10.8556C21.2595 12.0734 21.2554 13.2753 21.2509 14.5617C21.2504 14.7067 21.2499 14.8527 21.2499 15C21.2499 16.4485 21.1365 17.6715 21.0156 18.5638C20.837 19.8827 19.6922 20.75 18.4384 20.75H5.56146C4.30758 20.75 3.1628 19.8827 2.98418 18.5638C2.86333 17.6715 2.74991 16.4485 2.74991 15C2.74991 14.8527 2.74941 14.7066 2.74891 14.5617C2.74447 13.2752 2.74032 12.0734 3.09106 10.8556C3.49102 9.46686 4.3283 8.11094 5.96958 6.46967C7.48773 4.95152 9.17346 3.79678 10.3049 3.10181Z" fill="black"/>
</svg>
