<svg width="24" height="24" viewBox="0 0 24 24" fill="none" xmlns="http://www.w3.org/2000/svg">
<path fill-rule="evenodd" clip-rule="evenodd" d="M12.91 4.37992C12.3462 4.0336 11.654 4.0336 11.0902 4.37991C10.0136 5.04117 8.43496 6.12575 7.03041 7.5303C5.50329 9.05742 4.84058 10.2015 4.53264 11.2707C4.24449 12.2712 4.24662 13.2533 4.24949 14.5812C4.24979 14.717 4.25009 14.8565 4.25009 15C4.25009 16.3711 4.35752 17.5261 4.47079 18.3625C4.5385 18.8624 4.98005 19.25 5.56164 19.25H18.4385C19.0201 19.25 19.4617 18.8624 19.5294 18.3625C19.6427 17.5261 19.7501 16.3711 19.7501 15C19.7501 14.8565 19.7504 14.7171 19.7507 14.5813C19.7536 13.2533 19.7557 12.2712 19.4675 11.2707C19.1596 10.2015 18.4969 9.05741 16.9698 7.5303C15.5652 6.12575 13.9866 5.04117 12.91 4.37992ZM10.3051 3.10178C11.3505 2.45965 12.6497 2.45965 13.6951 3.10178C14.8265 3.79675 16.5123 4.95149 18.0304 6.46964C19.6717 8.1109 20.509 9.46683 20.9089 10.8555C21.2597 12.0733 21.2555 13.2752 21.2511 14.5617C21.2506 14.7067 21.2501 14.8527 21.2501 15C21.2501 16.4485 21.1367 17.6714 21.0158 18.5638C20.8372 19.8827 19.6924 20.75 18.4385 20.75H5.56164C4.30776 20.75 3.16298 19.8827 2.98436 18.5638C2.8635 17.6714 2.75009 16.4485 2.75009 15C2.75009 14.8527 2.74959 14.7066 2.74909 14.5616C2.74465 13.2752 2.7405 12.0733 3.09124 10.8555C3.4912 9.46684 4.32848 8.11091 5.96975 6.46964C7.48791 4.95149 9.17364 3.79674 10.3051 3.10178ZM12 9.25C12.4142 9.25 12.75 9.58579 12.75 10V12.25H15C15.4142 12.25 15.75 12.5858 15.75 13C15.75 13.4142 15.4142 13.75 15 13.75H12.75V16C12.75 16.4142 12.4142 16.75 12 16.75C11.5858 16.75 11.25 16.4142 11.25 16V13.75H9C8.58579 13.75 8.25 13.4142 8.25 13C8.25 12.5858 8.58579 12.25 9 12.25H11.25V10C11.25 9.58579 11.5858 9.25 12 9.25Z" fill="black"/>
</svg>
