<svg width="24" height="24" viewBox="0 0 24 24" fill="none" xmlns="http://www.w3.org/2000/svg">
<path fill-rule="evenodd" clip-rule="evenodd" d="M12 2.25C12.4142 2.25 12.75 2.58579 12.75 3V5.18934L14.4697 3.46967C14.7626 3.17678 15.2374 3.17678 15.5303 3.46967C15.8232 3.76256 15.8232 4.23744 15.5303 4.53033L12.75 7.31066V10.7009L15.6861 9.00576L16.7038 5.20776C16.811 4.80766 17.2222 4.57022 17.6223 4.67743C18.0224 4.78463 18.2599 5.19588 18.1527 5.59598L17.5232 7.94513L19.4193 6.85047C19.778 6.64337 20.2367 6.76629 20.4438 7.12501C20.6509 7.48373 20.528 7.94242 20.1693 8.14952L18.2733 9.24414L20.6223 9.87358C21.0224 9.98078 21.2599 10.392 21.1527 10.7921C21.0455 11.1922 20.6342 11.4297 20.2341 11.3225L16.4361 10.3048L13.5 12L16.4361 13.6951L20.2341 12.6774C20.6342 12.5702 21.0455 12.8077 21.1527 13.2078C21.2599 13.6079 21.0224 14.0191 20.6223 14.1263L18.2732 14.7558L20.1693 15.8505C20.528 16.0576 20.6509 16.5163 20.4438 16.875C20.2367 17.2337 19.778 17.3566 19.4193 17.1495L17.5232 16.0548L18.1527 18.4039C18.2599 18.804 18.0224 19.2153 17.6223 19.3225C17.2222 19.4297 16.811 19.1922 16.7038 18.7921L15.6861 14.9941L12.75 13.299V16.6893L15.5303 19.4697C15.8232 19.7626 15.8232 20.2374 15.5303 20.5303C15.2374 20.8232 14.7626 20.8232 14.4697 20.5303L12.75 18.8107V21C12.75 21.4142 12.4142 21.75 12 21.75C11.5858 21.75 11.25 21.4142 11.25 21V18.8107L9.53033 20.5303C9.23744 20.8232 8.76257 20.8232 8.46967 20.5303C8.17678 20.2374 8.17678 19.7626 8.46967 19.4697L11.25 16.6893V13.299L8.31389 14.9941L7.29623 18.7921C7.18902 19.1922 6.77777 19.4297 6.37767 19.3225C5.97757 19.2153 5.74013 18.804 5.84734 18.4039L6.47677 16.0548L4.58083 17.1495C4.22211 17.3566 3.76342 17.2337 3.5563 16.875C3.34919 16.5163 3.47209 16.0576 3.8308 15.8505L5.72683 14.7558L3.37767 14.1263C2.97757 14.0191 2.74013 13.6079 2.84734 13.2078C2.95454 12.8077 3.3658 12.5702 3.76589 12.6774L7.5639 13.6951L10.5 12L7.56389 10.3048L3.7659 11.3225C3.3658 11.4297 2.95454 11.1922 2.84734 10.7921C2.74013 10.392 2.97757 9.98078 3.37767 9.87358L5.72677 9.24414L3.83082 8.14952C3.4721 7.94242 3.34919 7.48372 3.55629 7.125C3.7634 6.76628 4.22209 6.64337 4.58081 6.85048L6.47678 7.94511L5.84734 5.59598C5.74013 5.19588 5.97757 4.78463 6.37767 4.67742C6.77777 4.57022 7.18902 4.80766 7.29623 5.20776L8.3139 9.00576L11.25 10.701V7.31066L8.46967 4.53033C8.17678 4.23744 8.17678 3.76256 8.46967 3.46967C8.76257 3.17678 9.23744 3.17678 9.53033 3.46967L11.25 5.18934V3C11.25 2.58579 11.5858 2.25 12 2.25Z" fill="black"/>
</svg>
