<svg width="24" height="24" viewBox="0 0 24 24" fill="none" xmlns="http://www.w3.org/2000/svg">
<path fill-rule="evenodd" clip-rule="evenodd" d="M5.84283 5.84283C4.75773 6.92793 4.25 8.77793 4.25 12C4.25 13.7836 4.40524 15.1537 4.73282 16.2065L7.05546 13.8839C8.1294 12.8099 9.8706 12.8099 10.9445 13.8839L11.1161 14.0555C11.6043 14.5436 12.3957 14.5436 12.8839 14.0555L15.0555 11.8839C16.1294 10.8099 17.8706 10.8099 18.9445 11.8839L19.742 12.6813C19.7473 12.4608 19.75 12.2338 19.75 12C19.75 8.77793 19.2423 6.92793 18.1572 5.84283C17.0721 4.75773 15.2221 4.25 12 4.25C8.77793 4.25 6.92793 4.75773 5.84283 5.84283ZM19.5966 14.6573L17.8839 12.9445C17.3957 12.4564 16.6043 12.4564 16.1161 12.9445L13.9445 15.1161C12.8706 16.1901 11.1294 16.1901 10.0555 15.1161L9.88389 14.9445C9.39573 14.4564 8.60428 14.4564 8.11612 14.9445L5.41485 17.6458C6.43874 19.101 8.33866 19.75 12 19.75C14.7817 19.75 16.5475 19.3717 17.6764 18.5639C18.7011 17.8309 19.3274 16.6473 19.5966 14.6573ZM4.78217 4.78217C6.32207 3.24227 8.72207 2.75 12 2.75C15.2779 2.75 17.6779 3.24227 19.2178 4.78217C20.7577 6.32207 21.25 8.72207 21.25 12C21.25 12.8943 21.213 13.7155 21.1309 14.4668C20.8671 16.8784 20.1254 18.6562 18.5493 19.7839C17.0181 20.8793 14.8437 21.25 12 21.25C7.88778 21.25 5.17207 20.4672 3.80514 17.8825C3.02856 16.4141 2.75 14.4625 2.75 12C2.75 8.72207 3.24227 6.32207 4.78217 4.78217ZM8.845 7.75C8.24148 7.75 7.75 8.24095 7.75 8.846C7.75 9.45105 8.24148 9.942 8.845 9.942C9.44979 9.942 9.941 9.45079 9.941 8.846C9.941 8.24121 9.44979 7.75 8.845 7.75ZM6.25 8.846C6.25 7.41305 7.41252 6.25 8.845 6.25C10.2782 6.25 11.441 7.41279 11.441 8.846C11.441 10.2792 10.2782 11.442 8.845 11.442C7.41252 11.442 6.25 10.2789 6.25 8.846Z" fill="black"/>
</svg>
