<svg width="24" height="24" viewBox="0 0 24 24" fill="none" xmlns="http://www.w3.org/2000/svg">
<path fill-rule="evenodd" clip-rule="evenodd" d="M7.386 4.75C6.86495 4.75 6.39854 5.07322 6.21559 5.5611L4.08225 11.25H7.26393C8.30556 11.25 9.25778 11.8385 9.72361 12.7702L10.118 13.559C10.3298 13.9825 10.7626 14.25 11.2361 14.25H12.9296C13.3476 14.25 13.7379 14.0411 13.9697 13.6934L14.7822 12.4746C15.2923 11.7095 16.1509 11.25 17.0704 11.25H19.9177L17.7844 5.5611C17.6015 5.07322 17.1351 4.75 16.614 4.75H7.386ZM20.25 12.75H17.0704C16.6524 12.75 16.2621 12.9589 16.0303 13.3066L15.2178 14.5254C14.7077 15.2905 13.8491 15.75 12.9296 15.75H11.2361C10.1944 15.75 9.24222 15.1615 8.77639 14.2298L8.38197 13.441C8.17023 13.0175 7.7374 12.75 7.26393 12.75H3.75V18C3.75 18.6904 4.30964 19.25 5 19.25H19C19.6904 19.25 20.25 18.6904 20.25 18V12.75ZM4.8111 5.03441C5.2136 3.96108 6.23968 3.25 7.386 3.25H16.614C17.7603 3.25 18.7864 3.96108 19.1889 5.03441L21.7022 11.7367C21.7338 11.8209 21.75 11.9101 21.75 12V18C21.75 19.5188 20.5188 20.75 19 20.75H5C3.48122 20.75 2.25 19.5188 2.25 18V12C2.25 11.9101 2.26618 11.8209 2.29775 11.7367L4.8111 5.03441Z" fill="black"/>
</svg>
