<svg width="24" height="24" viewBox="0 0 24 24" fill="none" xmlns="http://www.w3.org/2000/svg">
<path fill-rule="evenodd" clip-rule="evenodd" d="M12.6261 3.45038C13.304 2.65952 14.3705 2.31953 15.3811 2.57216L15.4286 2.58405C17.2736 3.04528 18.1047 5.19505 17.0498 6.77737L15.4014 9.24998H18.5604C20.2958 9.24998 21.5973 10.8376 21.257 12.5393L20.057 18.5393C19.7999 19.8247 18.6713 20.75 17.3604 20.75H4C3.58578 20.75 3.25 20.4142 3.25 20V9.99998C3.25 9.80106 3.32902 9.6103 3.46967 9.46964C3.61032 9.32899 3.80109 9.24997 4 9.24998L7.65505 9.24999L12.6261 3.45038ZM7.25 10.75L4.75 10.75V19.25L7.25 19.25V10.75ZM8.75 19.25L17.3604 19.25C17.9562 19.25 18.4693 18.8294 18.5861 18.2451L19.7861 12.2451C19.9408 11.4716 19.3492 10.75 18.5604 10.75H14C13.7234 10.75 13.4693 10.5977 13.3387 10.3539C13.2082 10.11 13.2225 9.81409 13.376 9.58395L15.8017 5.94532C16.2812 5.22608 15.9034 4.24892 15.0648 4.03926L15.0173 4.02737C14.5579 3.91254 14.0731 4.06708 13.765 4.42656L8.75 10.2774V19.25Z" fill="black"/>
</svg>
