<svg width="24" height="24" viewBox="0 0 24 24" fill="none" xmlns="http://www.w3.org/2000/svg">
<path fill-rule="evenodd" clip-rule="evenodd" d="M5.84283 5.84283C4.75773 6.92793 4.25 8.77793 4.25 12C4.25 15.2221 4.75773 17.0721 5.84283 18.1572C6.92793 19.2423 8.77793 19.75 12 19.75C15.2221 19.75 17.0721 19.2423 18.1572 18.1572C19.2423 17.0721 19.75 15.2221 19.75 12C19.75 8.77793 19.2423 6.92793 18.1572 5.84283C17.0721 4.75773 15.2221 4.25 12 4.25C8.77793 4.25 6.92793 4.75773 5.84283 5.84283ZM4.78217 4.78217C6.32207 3.24227 8.72207 2.75 12 2.75C15.2779 2.75 17.6779 3.24227 19.2178 4.78217C20.7577 6.32207 21.25 8.72207 21.25 12C21.25 15.2779 20.7577 17.6779 19.2178 19.2178C17.6779 20.7577 15.2779 21.25 12 21.25C8.72207 21.25 6.32207 20.7577 4.78217 19.2178C3.24227 17.6779 2.75 15.2779 2.75 12C2.75 8.72207 3.24227 6.32207 4.78217 4.78217ZM7.25 8C7.25 7.58579 7.58579 7.25 8 7.25H16C16.4142 7.25 16.75 7.58579 16.75 8C16.75 8.41421 16.4142 8.75 16 8.75H8C7.58579 8.75 7.25 8.41421 7.25 8ZM7.25 12C7.25 11.5858 7.58579 11.25 8 11.25H16C16.4142 11.25 16.75 11.5858 16.75 12C16.75 12.4142 16.4142 12.75 16 12.75H8C7.58579 12.75 7.25 12.4142 7.25 12ZM7.25 16C7.25 15.5858 7.58579 15.25 8 15.25H12C12.4142 15.25 12.75 15.5858 12.75 16C12.75 16.4142 12.4142 16.75 12 16.75H8C7.58579 16.75 7.25 16.4142 7.25 16Z" fill="black"/>
</svg>
