<svg width="24" height="24" viewBox="0 0 24 24" fill="none" xmlns="http://www.w3.org/2000/svg">
<path fill-rule="evenodd" clip-rule="evenodd" d="M12 3.75C7.99594 3.75 4.75 6.99594 4.75 11C4.75 14.733 7.60187 17.9392 11.5248 19.9396C11.8235 20.0918 12.1765 20.0918 12.4752 19.9396C16.3981 17.9392 19.25 14.733 19.25 11C19.25 6.99594 16.0041 3.75 12 3.75ZM3.25 11C3.25 6.16751 7.16751 2.25 12 2.25C16.8325 2.25 20.75 6.16751 20.75 11C20.75 15.5527 17.3037 19.1612 13.1566 21.2759C12.4299 21.6464 11.5701 21.6464 10.8434 21.2759L11.1841 20.6077L10.8434 21.2759C6.6963 19.1612 3.25 15.5527 3.25 11ZM12 6.75C12.4142 6.75 12.75 7.08579 12.75 7.5V10.25H15.5C15.9142 10.25 16.25 10.5858 16.25 11C16.25 11.4142 15.9142 11.75 15.5 11.75H12.75V14.5C12.75 14.9142 12.4142 15.25 12 15.25C11.5858 15.25 11.25 14.9142 11.25 14.5V11.75H8.5C8.08579 11.75 7.75 11.4142 7.75 11C7.75 10.5858 8.08579 10.25 8.5 10.25H11.25V7.5C11.25 7.08579 11.5858 6.75 12 6.75Z" fill="black"/>
</svg>
