<svg width="24" height="24" viewBox="0 0 24 24" fill="none" xmlns="http://www.w3.org/2000/svg">
<path fill-rule="evenodd" clip-rule="evenodd" d="M12 3.75C10.2051 3.75 8.75 5.20507 8.75 7V9.48456C9.67732 9.31781 10.7579 9.25 12 9.25C13.7008 9.25 15.0987 9.37714 16.2151 9.71135C17.4661 10.0859 18.3955 10.7317 18.984 11.7577C19.5527 12.749 19.75 14.0063 19.75 15.5C19.75 17.6695 19.3308 19.3483 17.9707 20.4169C16.6703 21.4387 14.682 21.75 12 21.75C9.31797 21.75 7.32968 21.4387 6.02928 20.4169C4.66922 19.3483 4.25 17.6695 4.25 15.5C4.25 14.0063 4.4473 12.749 5.01597 11.7577C5.51729 10.8837 6.26594 10.2856 7.25 9.89608V7C7.25 4.37665 9.37665 2.25 12 2.25C14.6234 2.25 16.75 4.37665 16.75 7C16.75 7.41421 16.4142 7.75 16 7.75C15.5858 7.75 15.25 7.41421 15.25 7C15.25 5.20507 13.7949 3.75 12 3.75ZM12 10.75C10.3503 10.75 9.12358 10.8764 8.2151 11.1483C7.24353 11.4392 6.67294 11.8837 6.31711 12.504C5.94142 13.159 5.75 14.1041 5.75 15.5C5.75 17.5363 6.15431 18.6076 6.95601 19.2375C7.81738 19.9143 9.32909 20.25 12 20.25C14.6709 20.25 16.1826 19.9143 17.044 19.2375C17.8457 18.6076 18.25 17.5363 18.25 15.5C18.25 14.1041 18.0586 13.159 17.6829 12.504C17.3271 11.8837 16.7565 11.4392 15.7849 11.1483C14.8764 10.8764 13.6497 10.75 12 10.75Z" fill="black"/>
</svg>
