<svg width="24" height="24" viewBox="0 0 24 24" fill="none" xmlns="http://www.w3.org/2000/svg">
<path fill-rule="evenodd" clip-rule="evenodd" d="M17.5 4.75L14 4.75C13.5858 4.75 13.25 4.41421 13.25 4C13.25 3.58579 13.5858 3.25 14 3.25L17.5 3.25C18.4479 3.25 19.2182 3.56884 19.7969 4.16518C20.3522 4.73727 20.6755 5.50749 20.8751 6.3214C21.2518 7.85793 21.2509 9.8499 21.2501 11.7341C21.25 11.823 21.25 11.9117 21.25 12C21.25 12.0883 21.25 12.177 21.2501 12.2659C21.2509 14.1501 21.2518 16.1421 20.8751 17.6786C20.6755 18.4925 20.3522 19.2627 19.797 19.8348C19.2182 20.4312 18.4479 20.75 17.5 20.75H14C13.5858 20.75 13.25 20.4142 13.25 20C13.25 19.5858 13.5858 19.25 14 19.25H17.5C18.0809 19.25 18.4501 19.0688 18.7205 18.7902C19.0145 18.4873 19.25 18.0075 19.4182 17.3214C19.7505 15.9664 19.7502 14.1363 19.75 12.1579C19.75 12.1053 19.75 12.0527 19.75 12C19.75 11.9473 19.75 11.8947 19.75 11.8421C19.7502 9.86367 19.7505 8.03362 19.4182 6.6786C19.25 5.99251 19.0145 5.51273 18.7205 5.20982C18.4501 4.93116 18.0809 4.75 17.5 4.75ZM10.4697 7.46967C10.7626 7.17678 11.2374 7.17678 11.5303 7.46967L15.5303 11.4697C15.671 11.6103 15.75 11.8011 15.75 12C15.75 12.1989 15.671 12.3897 15.5303 12.5303L11.5303 16.5303C11.2374 16.8232 10.7626 16.8232 10.4697 16.5303C10.1768 16.2374 10.1768 15.7626 10.4697 15.4697L13.1893 12.75L3 12.75C2.58579 12.75 2.25 12.4142 2.25 12C2.25 11.5858 2.58579 11.25 3 11.25L13.1893 11.25L10.4697 8.53033C10.1768 8.23744 10.1768 7.76256 10.4697 7.46967Z" fill="black"/>
</svg>
