<svg width="24" height="24" viewBox="0 0 24 24" fill="none" xmlns="http://www.w3.org/2000/svg">
<path fill-rule="evenodd" clip-rule="evenodd" d="M17.5 4.75L14 4.75C13.5858 4.75 13.25 4.41421 13.25 4C13.25 3.58579 13.5858 3.25 14 3.25L17.5 3.25C18.4479 3.25 19.2182 3.56884 19.7969 4.16518C20.3522 4.73727 20.6755 5.50749 20.8751 6.3214C21.2518 7.85793 21.2509 9.8499 21.2501 11.7341C21.25 11.823 21.25 11.9117 21.25 12C21.25 12.0883 21.25 12.177 21.2501 12.2659C21.2509 14.1501 21.2518 16.1421 20.8751 17.6786C20.6755 18.4925 20.3522 19.2627 19.797 19.8348C19.2182 20.4312 18.4479 20.75 17.5 20.75H14C13.5858 20.75 13.25 20.4142 13.25 20C13.25 19.5858 13.5858 19.25 14 19.25H17.5C18.0809 19.25 18.4501 19.0688 18.7205 18.7902C19.0145 18.4873 19.25 18.0075 19.4182 17.3214C19.7505 15.9664 19.7502 14.1363 19.75 12.1579C19.75 12.1053 19.75 12.0527 19.75 12C19.75 11.9473 19.75 11.8947 19.75 11.8421C19.7502 9.86367 19.7505 8.03362 19.4182 6.6786C19.25 5.99251 19.0145 5.51273 18.7205 5.20982C18.4501 4.93116 18.0809 4.75 17.5 4.75ZM7.53033 7.46967C7.82322 7.76256 7.82322 8.23744 7.53033 8.53033L4.81066 11.25L15 11.25C15.4142 11.25 15.75 11.5858 15.75 12C15.75 12.4142 15.4142 12.75 15 12.75L4.81066 12.75L7.53033 15.4697C7.82322 15.7626 7.82322 16.2374 7.53033 16.5303C7.23744 16.8232 6.76256 16.8232 6.46967 16.5303L2.46967 12.5303C2.32902 12.3897 2.25 12.1989 2.25 12C2.25 11.8011 2.32902 11.6103 2.46967 11.4697L6.46967 7.46967C6.76256 7.17678 7.23744 7.17678 7.53033 7.46967Z" fill="black"/>
</svg>
