<svg width="24" height="24" viewBox="0 0 24 24" fill="none" xmlns="http://www.w3.org/2000/svg">
<path fill-rule="evenodd" clip-rule="evenodd" d="M12 3.25C12.4142 3.25 12.75 3.58579 12.75 4V8.53648L14.25 9.28648V7.09523C14.25 6.07614 15.0761 5.25 16.0952 5.25C16.7415 5.25 17.3464 5.58916 17.6778 6.15225C20.1192 10.3002 21.0443 13.0292 21.5203 16.7414C21.7298 18.3755 20.4226 19.75 18.8254 19.75H17C15.4812 19.75 14.25 18.5188 14.25 17V10.9635L12 9.83853L9.75 10.9635V17C9.75 18.5188 8.51879 19.75 7 19.75H5.17462C3.57743 19.75 2.27023 18.3755 2.47975 16.7414C2.9557 13.0292 3.88084 10.3002 6.3222 6.15225C6.65362 5.58916 7.25847 5.25 7.90477 5.25C8.92386 5.25 9.75 6.07614 9.75 7.09523V9.28646L11.25 8.53647V4C11.25 3.58579 11.5858 3.25 12 3.25ZM8.25 10.4826V7.09523C8.25 6.90457 8.09544 6.75 7.90477 6.75C7.78278 6.75 7.6732 6.81407 7.61491 6.9131C5.26148 10.9116 4.4142 13.4486 3.96757 16.9321C3.87939 17.6199 4.4309 18.25 5.17462 18.25H7C7.69036 18.25 8.25 17.6904 8.25 17V10.5185C8.24971 10.5065 8.24972 10.4946 8.25 10.4826ZM15.75 10.5136V17C15.75 17.6904 16.3096 18.25 17 18.25H18.8254C19.5691 18.25 20.1206 17.6199 20.0324 16.9321C19.5858 13.4486 18.7385 10.9116 16.3851 6.9131C16.3268 6.81407 16.2172 6.75 16.0952 6.75C15.9046 6.75 15.75 6.90457 15.75 7.09523V10.4875C15.7502 10.4962 15.7502 10.5049 15.75 10.5136Z" fill="black"/>
</svg>
