<svg width="24" height="24" viewBox="0 0 24 24" fill="none" xmlns="http://www.w3.org/2000/svg">
<path fill-rule="evenodd" clip-rule="evenodd" d="M5.43994 6.37928L11.1161 12.0554C11.6043 12.5436 12.3957 12.5436 12.8839 12.0554L18.5601 6.37928C17.272 5.60981 15.2289 5.25 12 5.25C8.77108 5.25 6.728 5.60981 5.43994 6.37928ZM19.6825 7.37814L13.9445 13.1161C12.8706 14.19 11.1294 14.19 10.0554 13.1161L4.31749 7.37815C3.59399 8.34757 3.25 9.79028 3.25 12C3.25 14.802 3.80182 16.3737 4.99047 17.3121C6.23757 18.2966 8.37353 18.75 12 18.75C15.6265 18.75 17.7624 18.2966 19.0095 17.3121C20.1982 16.3737 20.75 14.802 20.75 12C20.75 9.79027 20.406 8.34757 19.6825 7.37814ZM3.79177 5.73796C5.46677 4.22491 8.16941 3.75 12 3.75C15.8306 3.75 18.5332 4.22491 20.2082 5.73796C21.7459 7.12693 22.25 9.22801 22.25 12C22.25 14.9333 21.6842 17.1116 19.939 18.4894C18.2523 19.821 15.6382 20.25 12 20.25C8.36176 20.25 5.74772 19.821 4.061 18.4894C2.31583 17.1116 1.75 14.9333 1.75 12C1.75 9.22801 2.25414 7.12693 3.79177 5.73796Z" fill="black"/>
</svg>
