<svg width="24" height="24" viewBox="0 0 24 24" fill="none" xmlns="http://www.w3.org/2000/svg">
<path fill-rule="evenodd" clip-rule="evenodd" d="M11.4697 2.46967C11.7626 2.17678 12.2374 2.17678 12.5303 2.46967L16.5303 6.46967C16.8232 6.76256 16.8232 7.23744 16.5303 7.53033C16.2374 7.82322 15.7626 7.82322 15.4697 7.53033L12.75 4.81066V10.2985C15.5713 10.666 17.75 13.0786 17.75 16C17.75 19.1756 15.1756 21.75 12 21.75C8.82436 21.75 6.25 19.1756 6.25 16C6.25 13.0786 8.42873 10.666 11.25 10.2985V4.81066L8.53033 7.53033C8.23744 7.82322 7.76256 7.82322 7.46967 7.53033C7.17678 7.23744 7.17678 6.76256 7.46967 6.46967L11.4697 2.46967ZM12 11.75C9.65279 11.75 7.75 13.6528 7.75 16C7.75 18.3472 9.65279 20.25 12 20.25C14.3472 20.25 16.25 18.3472 16.25 16C16.25 13.6528 14.3472 11.75 12 11.75Z" fill="black"/>
</svg>
