<svg width="24" height="24" viewBox="0 0 24 24" fill="none" xmlns="http://www.w3.org/2000/svg">
<path fill-rule="evenodd" clip-rule="evenodd" d="M14.7628 2.28849C14.9168 2.23717 15.0832 2.23717 15.2372 2.28849L19.8696 3.83264C20.9926 4.20695 21.75 5.25783 21.75 6.44152V18.2251C21.75 20.1022 19.9111 21.4276 18.1304 20.834L15 19.7906L9.23717 21.7115C9.08322 21.7628 8.91678 21.7628 8.76283 21.7115L4.13037 20.1674C3.00743 19.793 2.25 18.7422 2.25 17.5585V5.77485C2.25 3.89782 4.08892 2.5724 5.86963 3.16597L9 4.20943L14.7628 2.28849ZM8.25 5.54057L5.39529 4.589C4.58587 4.31919 3.75 4.92165 3.75 5.77485V17.5585C3.75 18.0965 4.09429 18.5742 4.60472 18.7443L8.25 19.9594V5.54057ZM9.75 19.9594L14.25 18.4594V4.04057L9.75 5.54057V19.9594ZM15.75 4.04057V18.4594L18.6047 19.411C19.4141 19.6808 20.25 19.0783 20.25 18.2251V6.44152C20.25 5.90348 19.9057 5.42581 19.3953 5.25566L15.75 4.04057Z" fill="black"/>
</svg>
