<svg width="24" height="24" viewBox="0 0 24 24" fill="none" xmlns="http://www.w3.org/2000/svg">
<path fill-rule="evenodd" clip-rule="evenodd" d="M9.66455 2.65816C10.4082 2.30136 11.3071 2.25 12 2.25C12.6929 2.25 13.5918 2.30136 14.3354 2.65816C14.7226 2.84392 15.0881 3.12168 15.353 3.53183C15.6188 3.94351 15.75 4.43735 15.75 5V5.40851C16.0929 5.4422 16.5312 5.48866 16.9827 5.54555C17.4755 5.60767 17.997 5.68382 18.4303 5.77172C18.6459 5.81545 18.8547 5.86506 19.0337 5.92182C19.1784 5.96774 19.4208 6.05214 19.605 6.21335C19.7457 6.33644 19.8396 6.48576 19.9017 6.60194C19.9684 6.7267 20.0253 6.86524 20.0748 7.00677C20.1739 7.28997 20.2619 7.63887 20.3389 8.02868C20.4937 8.81158 20.6175 9.8261 20.6873 10.9536C20.7274 11.6019 20.75 12.2912 20.75 13C20.75 14.5879 20.6368 16.0835 20.464 17.2425C20.3779 17.8203 20.2747 18.3302 20.1577 18.7327C20.0994 18.9333 20.0333 19.1227 19.9571 19.2868C19.8887 19.4341 19.7797 19.6338 19.605 19.7867C19.4376 19.9331 19.2275 20.0197 19.0751 20.0739C18.9012 20.1358 18.697 20.1906 18.4754 20.2399C18.0305 20.3389 17.4605 20.4276 16.8073 20.5021C15.4978 20.6516 13.8025 20.75 12 20.75C10.1975 20.75 8.50222 20.6516 7.19273 20.5021C6.53951 20.4276 5.9695 20.3389 5.52464 20.2399C5.30301 20.1906 5.09882 20.1358 4.9249 20.0739C4.77249 20.0197 4.56235 19.9331 4.39501 19.7867C4.22027 19.6338 4.11134 19.4341 4.04289 19.2868C3.96666 19.1227 3.90056 18.9333 3.84229 18.7327C3.72533 18.3302 3.6221 17.8203 3.53597 17.2425C3.3632 16.0835 3.25 14.5879 3.25 13C3.25 12.2912 3.27255 11.6019 3.3127 10.9536C3.38254 9.8261 3.5063 8.81158 3.66107 8.02868C3.73813 7.63887 3.82607 7.28997 3.92517 7.00677C3.97469 6.86524 4.03161 6.7267 4.09828 6.60194C4.16036 6.48576 4.25433 6.33644 4.39501 6.21335C4.57925 6.05214 4.8216 5.96774 4.96634 5.92182C5.14526 5.86506 5.35409 5.81545 5.56965 5.77172C6.00302 5.68382 6.52447 5.60767 7.01733 5.54555C7.46875 5.48866 7.90709 5.4422 8.25 5.40851V5C8.25 4.43735 8.38123 3.94351 8.64705 3.53183C8.91188 3.12168 9.27741 2.84392 9.66455 2.65816ZM9.75 5.30113C10.4645 5.26834 11.2219 5.25 12 5.25C12.7781 5.25 13.5355 5.26834 14.25 5.30113V5C14.25 4.67513 14.1766 4.47521 14.0928 4.34548C14.0081 4.21423 13.8791 4.10293 13.6866 4.01056C13.2709 3.81112 12.6698 3.75 12 3.75C11.3302 3.75 10.7291 3.81112 10.3134 4.01056C10.1209 4.10293 9.99194 4.21423 9.90719 4.34548C9.82343 4.47521 9.75 4.67513 9.75 5V5.30113ZM14.9457 6.84128C14.0419 6.78383 13.0406 6.75 12 6.75C10.9594 6.75 9.95808 6.78383 9.05431 6.84128L9.0509 6.84156L9.02137 6.84401L8.90692 6.85383C8.80767 6.86251 8.66493 6.87538 8.49208 6.89204C8.14582 6.9254 7.68136 6.97373 7.20489 7.03378C6.72553 7.09419 6.24698 7.16488 5.86785 7.24178C5.67716 7.28046 5.52661 7.31775 5.41994 7.35159C5.4117 7.35421 5.40404 7.35671 5.39694 7.35908C5.38113 7.39444 5.36221 7.44153 5.34099 7.50218C5.2739 7.69393 5.20217 7.96764 5.13259 8.31957C4.9941 9.02015 4.87677 9.96562 4.80983 11.0464C4.77157 11.6642 4.75 12.3226 4.75 13C4.75 14.5232 4.85902 15.9443 5.01958 17.0214C5.10012 17.5617 5.19133 17.9997 5.28271 18.3142C5.32781 18.4694 5.36871 18.5797 5.40157 18.6511C5.40938 18.6541 5.41801 18.6573 5.42753 18.6607C5.52271 18.6945 5.66227 18.7339 5.85036 18.7757C6.22494 18.859 6.73827 18.9405 7.36282 19.0118C8.60889 19.154 10.2469 19.25 12 19.25C13.7531 19.25 15.3911 19.154 16.6372 19.0118C17.2617 18.9405 17.7751 18.859 18.1496 18.7757C18.3377 18.7339 18.4773 18.6945 18.5725 18.6607C18.582 18.6573 18.5906 18.6541 18.5984 18.6511C18.6313 18.5797 18.6722 18.4694 18.7173 18.3142C18.8087 17.9997 18.8999 17.5617 18.9804 17.0214C19.141 15.9443 19.25 14.5232 19.25 13C19.25 12.3226 19.2284 11.6642 19.1902 11.0464C19.1232 9.96562 19.0059 9.02015 18.8674 8.31957C18.7978 7.96764 18.7261 7.69393 18.659 7.50218C18.6378 7.44154 18.6189 7.39444 18.6031 7.35908C18.596 7.35671 18.5883 7.35421 18.5801 7.35159C18.4734 7.31775 18.3228 7.28046 18.1322 7.24178C17.753 7.16488 17.2745 7.09419 16.7951 7.03378C16.3186 6.97373 15.8542 6.9254 15.5079 6.89204C15.3351 6.87538 15.1923 6.86251 15.0931 6.85383L14.9786 6.84401L14.9491 6.84156L14.9457 6.84128ZM18.5662 7.28742C18.5662 7.28737 18.5669 7.28829 18.5682 7.29032C18.5668 7.28849 18.5662 7.28748 18.5662 7.28742ZM5.43379 7.28742C5.4338 7.28747 5.43315 7.28852 5.43177 7.29043C5.43309 7.28833 5.43378 7.28738 5.43379 7.28742ZM12 8.75C12.4142 8.75 12.75 9.08579 12.75 9.5V12.25H15.5C15.9142 12.25 16.25 12.5858 16.25 13C16.25 13.4142 15.9142 13.75 15.5 13.75H12.75V16.5C12.75 16.9142 12.4142 17.25 12 17.25C11.5858 17.25 11.25 16.9142 11.25 16.5V13.75H8.5C8.08579 13.75 7.75 13.4142 7.75 13C7.75 12.5858 8.08579 12.25 8.5 12.25H11.25V9.5C11.25 9.08579 11.5858 8.75 12 8.75Z" fill="black"/>
</svg>
