<svg width="24" height="24" viewBox="0 0 24 24" fill="none" xmlns="http://www.w3.org/2000/svg">
<path fill-rule="evenodd" clip-rule="evenodd" d="M7.87988 4.87393C7.87405 4.88562 7.86785 4.89882 7.86141 4.91363C7.80024 5.05433 7.75 5.26451 7.75 5.5C7.75 5.73549 7.80024 5.94567 7.86141 6.08637C7.86785 6.10118 7.87405 6.11439 7.87989 6.12609C7.92955 6.13139 7.98963 6.13698 8.06042 6.1427C8.77996 6.20085 10.2996 6.25 12 6.25C13.7004 6.25 15.22 6.20085 15.9396 6.1427C16.0104 6.13698 16.0705 6.13139 16.1201 6.12609C16.1259 6.11439 16.1321 6.10118 16.1386 6.08637C16.1998 5.94567 16.25 5.73549 16.25 5.5C16.25 5.26451 16.1998 5.05433 16.1386 4.91363C16.1321 4.89882 16.1259 4.88562 16.1201 4.87393C16.0583 4.86733 15.9811 4.86038 15.8883 4.8533C15.6449 4.83474 15.3165 4.81694 14.9221 4.80151C14.1345 4.77069 13.1027 4.75 12 4.75C10.8973 4.75 9.86552 4.77069 9.07794 4.80151C8.68354 4.81694 8.35508 4.83474 8.11173 4.8533C8.01891 4.86038 7.9417 4.86733 7.87988 4.87393ZM9.01929 3.30266C9.82892 3.27098 10.8805 3.25 12 3.25C13.1195 3.25 14.1711 3.27098 14.9807 3.30266C15.3849 3.31847 15.7336 3.33714 16.0024 3.35764C16.1363 3.36786 16.256 3.37895 16.3556 3.39109C16.4394 3.40131 16.5575 3.41756 16.66 3.4483C16.9192 3.52606 17.1032 3.69296 17.2206 3.83152C17.3443 3.97749 17.4407 4.14642 17.5142 4.31554C17.6613 4.654 17.75 5.06882 17.75 5.5C17.75 5.93118 17.6613 6.346 17.5142 6.68446C17.4407 6.85358 17.3443 7.02251 17.2206 7.16849C17.1211 7.28588 16.9738 7.42361 16.7735 7.51025C16.8538 8.56701 17.1386 9.6002 17.6143 10.5516L18.4597 12.2423C18.6506 12.6242 18.75 13.0452 18.75 13.4722V17C18.75 19.6234 16.6234 21.75 14 21.75H10C7.37665 21.75 5.25 19.6234 5.25 17V13.5C5.25 13.4953 5.25004 13.4907 5.25013 13.4861C5.25004 13.4814 5.25 13.4768 5.25 13.4722C5.25 13.0452 5.3494 12.6242 5.54033 12.2423L6.38567 10.5516C6.86138 9.6002 7.14624 8.56701 7.22649 7.51025C7.02616 7.42361 6.87888 7.28588 6.77939 7.16849C6.65569 7.02251 6.55934 6.85358 6.48581 6.68446C6.33865 6.346 6.25 5.93118 6.25 5.5C6.25 5.06882 6.33865 4.654 6.48581 4.31554C6.55934 4.14642 6.65568 3.97749 6.77939 3.83152C6.89681 3.69296 7.08082 3.52606 7.34004 3.4483C7.44249 3.41756 7.5606 3.40131 7.64436 3.39109C7.74397 3.37895 7.8637 3.36786 7.99765 3.35764C8.26645 3.33714 8.61507 3.31847 9.01929 3.30266ZM8.71738 7.68453C8.61626 8.91376 8.28107 10.1149 7.72731 11.2225L6.88197 12.9131C6.79518 13.0867 6.75 13.2781 6.75 13.4722C6.75 13.4768 6.74996 13.4814 6.74987 13.4861C6.74996 13.4907 6.75 13.4953 6.75 13.5V17C6.75 18.7949 8.20508 20.25 10 20.25H14C15.7949 20.25 17.25 18.7949 17.25 17V13.4722C17.25 13.2781 17.2048 13.0867 17.118 12.9131L16.2727 11.2225C15.7189 10.1149 15.3837 8.91376 15.2826 7.68453C14.4363 7.72352 13.2578 7.75 12 7.75C10.7422 7.75 9.56374 7.72352 8.71738 7.68453ZM12 10.25C12.4142 10.25 12.75 10.5858 12.75 11V13.25H15C15.4142 13.25 15.75 13.5858 15.75 14C15.75 14.4142 15.4142 14.75 15 14.75H12.75V17C12.75 17.4142 12.4142 17.75 12 17.75C11.5858 17.75 11.25 17.4142 11.25 17V14.75H9C8.58579 14.75 8.25 14.4142 8.25 14C8.25 13.5858 8.58579 13.25 9 13.25H11.25V11C11.25 10.5858 11.5858 10.25 12 10.25Z" fill="black"/>
</svg>
