<svg width="24" height="24" viewBox="0 0 24 24" fill="none" xmlns="http://www.w3.org/2000/svg">
<path fill-rule="evenodd" clip-rule="evenodd" d="M5.37957 5.08466C4.27098 5.9469 3.75 7.39218 3.75 10C3.75 11.8192 4.00512 13.0743 4.53116 13.9549C5.03714 14.8019 5.85144 15.3963 7.20085 15.7713C7.52541 15.8615 7.75 16.1571 7.75 16.4939V19.1894L10.482 16.4573C10.6275 16.3118 10.8264 16.2325 11.032 16.2379C11.3426 16.246 11.6651 16.25 12 16.25C15.4363 16.25 17.4496 15.826 18.6204 14.9153C19.729 14.0531 20.25 12.6078 20.25 10C20.25 7.39218 19.729 5.9469 18.6204 5.08466C17.4496 4.17403 15.4363 3.75 12 3.75C8.56373 3.75 6.55039 4.17403 5.37957 5.08466ZM4.45866 3.90063C6.06726 2.6495 8.55392 2.25 12 2.25C15.4461 2.25 17.9327 2.6495 19.5413 3.90063C21.2122 5.20016 21.75 7.25488 21.75 10C21.75 12.7451 21.2122 14.7998 19.5413 16.0994C17.9327 17.3505 15.4461 17.75 12 17.75C11.7672 17.75 11.5393 17.7481 11.3163 17.7444L7.53033 21.5304C7.31583 21.7449 6.99325 21.809 6.71299 21.6929C6.43273 21.5769 6.25 21.3034 6.25 21V17.0451C4.91032 16.5774 3.90781 15.8363 3.24344 14.7242C2.51128 13.4986 2.25 11.9191 2.25 10C2.25 7.25488 2.78785 5.20016 4.45866 3.90063ZM7.25 10C7.25 9.58579 7.58579 9.25 8 9.25H8.01C8.42421 9.25 8.76 9.58579 8.76 10C8.76 10.4142 8.42421 10.75 8.01 10.75H8C7.58579 10.75 7.25 10.4142 7.25 10ZM11.25 10C11.25 9.58579 11.5858 9.25 12 9.25H12.01C12.4242 9.25 12.76 9.58579 12.76 10C12.76 10.4142 12.4242 10.75 12.01 10.75H12C11.5858 10.75 11.25 10.4142 11.25 10ZM15.25 10C15.25 9.58579 15.5858 9.25 16 9.25H16.01C16.4242 9.25 16.76 9.58579 16.76 10C16.76 10.4142 16.4242 10.75 16.01 10.75H16C15.5858 10.75 15.25 10.4142 15.25 10Z" fill="black"/>
</svg>
