<svg width="24" height="24" fill="none" xmlns="http://www.w3.org/2000/svg"><path d="M10.84 2.281A9.243 9.243 0 0 0 3.778 6.42a9.325 9.325 0 0 0-1.438 3.82c-.092.663-.093 1.848-.003 2.5a9.375 9.375 0 0 0 1.441 3.84c1.248 1.898 3.204 3.303 5.375 3.863 1.936.5 4.219.36 5.887-.359l.362-.156 1.809.606 1.809.606h.42c.39 0 .44-.009.69-.128.376-.178.677-.474.861-.847.144-.29.149-.316.149-.723v-.422l-.612-1.827-.612-1.828.107-.211c.27-.532.558-1.622.66-2.494.062-.524.061-1.779-.001-2.26a9.328 9.328 0 0 0-1.553-4.12c-1.286-1.872-3.233-3.224-5.409-3.754a9.835 9.835 0 0 0-2.88-.245m1.715 1.541c1.764.258 3.253 1.015 4.488 2.284.644.662 1.049 1.232 1.418 1.994a7.55 7.55 0 0 1 .779 3.408c0 1.366-.272 2.528-.818 3.491-.123.217-.131.435-.024.636.042.08.349.968.682 1.973.641 1.938.638 1.926.437 2.033-.066.036-.412-.066-1.909-.561-1.005-.333-1.893-.64-1.973-.682a.644.644 0 0 0-.639.021c-.611.343-.925.466-1.589.626-.815.195-2.132.254-2.962.133-1.764-.258-3.253-1.015-4.488-2.284-.644-.662-1.049-1.232-1.418-1.994a7.78 7.78 0 0 1-.56-5.26 7.838 7.838 0 0 1 1.503-3.02c.268-.327.882-.937 1.199-1.192 1.018-.819 2.36-1.395 3.739-1.605.503-.077 1.611-.077 2.135-.001M7.66 8.808c-.278.098-.393.301-.393.692 0 .413.122.609.433.698.117.033 1.171.043 3.88.034 4.052-.013 3.856-.002 4.031-.238.167-.226.173-.727.012-.966-.176-.262.055-.247-4.083-.255-2.563-.005-3.798.006-3.88.035m0 4c-.278.098-.393.301-.393.692 0 .413.122.609.433.698.115.033.918.043 2.88.034 2.958-.013 2.859-.005 3.031-.238.167-.226.173-.727.012-.966-.173-.258-.047-.247-3.083-.255-1.863-.005-2.799.006-2.88.035" fill-rule="evenodd" fill="#000"/></svg>