<svg width="24" height="24" viewBox="0 0 24 24" fill="none" xmlns="http://www.w3.org/2000/svg">
<path fill-rule="evenodd" clip-rule="evenodd" d="M2.46967 2.46967C2.76256 2.17678 3.23744 2.17678 3.53033 2.46967L21.5303 20.4697C21.8232 20.7626 21.8232 21.2374 21.5303 21.5303C21.2374 21.8232 20.7626 21.8232 20.4697 21.5303L2.46967 3.53033C2.17678 3.23744 2.17678 2.76256 2.46967 2.46967ZM9.7539 2.98347C10.3535 2.51817 11.1018 2.25 12 2.25C12.9657 2.25 13.7548 2.56001 14.3714 3.08537C14.9739 3.59873 15.3724 4.28325 15.6398 4.98186C16.1696 6.3658 16.25 7.98057 16.25 9C16.25 9.57589 16.2239 10.3233 16.1128 11.1055C16.0545 11.5156 15.6749 11.8008 15.2648 11.7425C14.8547 11.6843 14.5694 11.3046 14.6277 10.8945C14.7255 10.2063 14.75 9.5347 14.75 9C14.75 8.01943 14.6662 6.6342 14.239 5.51814C14.0279 4.96675 13.7496 4.52627 13.3985 4.22713C13.0615 3.93999 12.6201 3.75 12 3.75C11.4196 3.75 10.9983 3.91648 10.6735 4.1685C10.3379 4.42899 10.0648 4.81334 9.84973 5.30205C9.68291 5.68119 9.24032 5.85331 8.86119 5.68649C8.48205 5.51967 8.30993 5.07708 8.47675 4.69795C8.75923 4.05595 9.16522 3.4403 9.7539 2.98347ZM5.5 11.25C5.91421 11.25 6.25 11.5858 6.25 12C6.25 14.8746 8.38891 17.25 12 17.25C12.6565 17.25 13.2611 17.171 13.8103 17.0275C14.2111 16.9227 14.6209 17.1627 14.7256 17.5634C14.8304 17.9642 14.5904 18.374 14.1897 18.4787C13.7327 18.5982 13.252 18.6796 12.75 18.7201V20.25H15C15.4142 20.25 15.75 20.5858 15.75 21C15.75 21.4142 15.4142 21.75 15 21.75H9C8.58579 21.75 8.25 21.4142 8.25 21C8.25 20.5858 8.58579 20.25 9 20.25H11.25V18.72C7.28797 18.3988 4.75 15.5345 4.75 12C4.75 11.5858 5.08579 11.25 5.5 11.25ZM18.5 11.25C18.9142 11.25 19.25 11.5858 19.25 12C19.25 12.7814 19.1252 13.5369 18.8831 14.2432C18.7487 14.635 18.3222 14.8438 17.9304 14.7095C17.5385 14.5751 17.3298 14.1486 17.4641 13.7568C17.6509 13.212 17.75 12.6212 17.75 12C17.75 11.5858 18.0858 11.25 18.5 11.25Z" fill="black"/>
</svg>
