<svg width="24" height="24" viewBox="0 0 24 24" fill="none" xmlns="http://www.w3.org/2000/svg">
<path fill-rule="evenodd" clip-rule="evenodd" d="M9.62863 3.08537C10.2452 2.56001 11.0343 2.25 12 2.25C12.9657 2.25 13.7548 2.56001 14.3714 3.08537C14.9739 3.59873 15.3724 4.28325 15.6398 4.98186C16.1696 6.3658 16.25 7.98057 16.25 9C16.25 10.0194 16.1696 11.6342 15.6398 13.0181C15.3724 13.7167 14.9739 14.4013 14.3714 14.9146C13.7548 15.44 12.9657 15.75 12 15.75C11.0343 15.75 10.2452 15.44 9.62863 14.9146C9.02611 14.4013 8.62761 13.7167 8.36016 13.0181C7.83036 11.6342 7.75 10.0194 7.75 9C7.75 7.98057 7.83036 6.3658 8.36016 4.98186C8.62761 4.28325 9.02611 3.59873 9.62863 3.08537ZM9.76102 5.51814C9.33377 6.6342 9.25 8.01943 9.25 9C9.25 9.98057 9.33377 11.3658 9.76102 12.4819C9.97211 13.0333 10.2504 13.4737 10.6015 13.7729C10.9385 14.06 11.3799 14.25 12 14.25C12.6201 14.25 13.0615 14.06 13.3986 13.7729C13.7496 13.4737 14.0279 13.0333 14.239 12.4819C14.6662 11.3658 14.75 9.98057 14.75 9C14.75 8.01943 14.6662 6.6342 14.239 5.51814C14.0279 4.96675 13.7496 4.52627 13.3986 4.22713C13.0615 3.93999 12.6201 3.75 12 3.75C11.3799 3.75 10.9385 3.93999 10.6015 4.22713C10.2504 4.52627 9.97211 4.96675 9.76102 5.51814ZM5.5 11.25C5.91421 11.25 6.25 11.5858 6.25 12C6.25 14.8746 8.38891 17.25 12 17.25C15.6111 17.25 17.75 14.8746 17.75 12C17.75 11.5858 18.0858 11.25 18.5 11.25C18.9142 11.25 19.25 11.5858 19.25 12C19.25 15.5345 16.712 18.3988 12.75 18.72V20.25H15C15.4142 20.25 15.75 20.5858 15.75 21C15.75 21.4142 15.4142 21.75 15 21.75H9C8.58579 21.75 8.25 21.4142 8.25 21C8.25 20.5858 8.58579 20.25 9 20.25H11.25V18.72C7.28797 18.3988 4.75 15.5345 4.75 12C4.75 11.5858 5.08579 11.25 5.5 11.25Z" fill="black"/>
</svg>
