<svg width="24" height="24" viewBox="0 0 24 24" fill="none" xmlns="http://www.w3.org/2000/svg">
<path fill-rule="evenodd" clip-rule="evenodd" d="M2.97843 7.20868C2.94967 7.26676 2.91446 7.34955 2.87507 7.46097C2.76909 7.76068 2.6621 8.18304 2.56685 8.68771C2.37687 9.69427 2.25 10.9393 2.25 12C2.25 13.0607 2.37687 14.3057 2.56685 15.3123C2.6621 15.817 2.76909 16.2393 2.87507 16.539C2.91446 16.6504 2.94967 16.7332 2.97843 16.7913C3.00432 16.7969 3.03608 16.8033 3.07449 16.8103C3.23768 16.8401 3.46186 16.8715 3.74378 16.9031C4.30572 16.9662 5.05944 17.026 5.93649 17.0777C7.68887 17.181 9.90332 17.25 12 17.25C14.0967 17.25 16.3111 17.181 18.0635 17.0777C18.9406 17.026 19.6943 16.9662 20.2562 16.9031C20.5381 16.8715 20.7623 16.8401 20.9255 16.8103C20.9639 16.8033 20.9957 16.7969 21.0216 16.7913C21.0503 16.7332 21.0855 16.6504 21.1249 16.539C21.2309 16.2393 21.3379 15.817 21.4332 15.3123C21.6231 14.3057 21.75 13.0607 21.75 12C21.75 10.9393 21.6231 9.69427 21.4332 8.68771C21.3379 8.18304 21.2309 7.76068 21.1249 7.46097C21.0855 7.34955 21.0503 7.26676 21.0216 7.20868C20.9957 7.20313 20.9639 7.19674 20.9255 7.18972C20.7623 7.15992 20.5381 7.12851 20.2562 7.09689C19.6943 7.03384 18.9406 6.974 18.0635 6.92231C16.3111 6.81903 14.0967 6.75 12 6.75C9.90332 6.75 7.68887 6.81903 5.93649 6.92231C5.05944 6.974 4.30572 7.03384 3.74378 7.09689C3.46186 7.12851 3.23768 7.15992 3.07449 7.18972C3.03608 7.19674 3.00432 7.20313 2.97843 7.20868ZM20.9714 7.12239C20.9715 7.12216 20.9736 7.12463 20.9776 7.13051C20.9734 7.12556 20.9714 7.12263 20.9714 7.12239ZM20.9714 16.8776C20.9714 16.8774 20.9734 16.8744 20.9776 16.8695C20.9736 16.8754 20.9715 16.8778 20.9714 16.8776ZM3.02858 16.8776C3.02853 16.8778 3.02642 16.8754 3.0224 16.8695C3.02662 16.8744 3.02863 16.8774 3.02858 16.8776ZM3.0224 7.13051C3.02642 7.12464 3.02853 7.12216 3.02858 7.12239C3.02863 7.12263 3.02662 7.12556 3.0224 7.13051ZM5.84823 5.42491C7.63058 5.31986 9.87446 5.25 12 5.25C14.1255 5.25 16.3694 5.31986 18.1518 5.42491C19.0421 5.47738 19.8248 5.53908 20.4235 5.60624C20.7218 5.63971 20.984 5.67559 21.195 5.71414C21.3711 5.7463 21.612 5.79622 21.7938 5.89187C22.0512 6.02734 22.2051 6.25603 22.2893 6.40047C22.3868 6.56779 22.4689 6.76228 22.5391 6.96091C22.6805 7.36084 22.8045 7.86557 22.9071 8.40951C23.113 9.50017 23.25 10.8385 23.25 12C23.25 13.1615 23.113 14.4998 22.9071 15.5905C22.8045 16.1344 22.6805 16.6392 22.5391 17.0391C22.4689 17.2377 22.3868 17.4322 22.2893 17.5995C22.2051 17.744 22.0512 17.9727 21.7938 18.1081C21.612 18.2038 21.3711 18.2537 21.195 18.2859C20.984 18.3244 20.7218 18.3603 20.4235 18.3938C19.8248 18.4609 19.0421 18.5226 18.1518 18.5751C16.3694 18.6801 14.1255 18.75 12 18.75C9.87446 18.75 7.63058 18.6801 5.84823 18.5751C4.95792 18.5226 4.17518 18.4609 3.57654 18.3938C3.27815 18.3603 3.01601 18.3244 2.80496 18.2859C2.62887 18.2537 2.38798 18.2038 2.20625 18.1081C1.94884 17.9727 1.79485 17.744 1.71068 17.5995C1.61317 17.4322 1.53111 17.2377 1.46087 17.0391C1.31946 16.6392 1.19554 16.1344 1.09287 15.5905C0.88702 14.4998 0.75 13.1615 0.75 12C0.75 10.8385 0.88702 9.50017 1.09287 8.40951C1.19554 7.86557 1.31946 7.36084 1.46087 6.96091C1.53111 6.76228 1.61317 6.56779 1.71068 6.40047C1.79485 6.25603 1.94884 6.02734 2.20625 5.89187C2.38798 5.79622 2.62887 5.7463 2.80496 5.71414C3.01601 5.67559 3.27815 5.63971 3.57654 5.60624C4.17518 5.53908 4.95792 5.47738 5.84823 5.42491ZM6 8.75C6.41421 8.75 6.75 9.08579 6.75 9.5V14.5C6.75 14.9142 6.41421 15.25 6 15.25C5.58579 15.25 5.25 14.9142 5.25 14.5V9.5C5.25 9.08579 5.58579 8.75 6 8.75ZM12 10.25C11.0335 10.25 10.25 11.0335 10.25 12C10.25 12.9665 11.0335 13.75 12 13.75C12.9665 13.75 13.75 12.9665 13.75 12C13.75 11.0335 12.9665 10.25 12 10.25ZM8.75 12C8.75 10.2051 10.2051 8.75 12 8.75C13.7949 8.75 15.25 10.2051 15.25 12C15.25 13.7949 13.7949 15.25 12 15.25C10.2051 15.25 8.75 13.7949 8.75 12ZM18 8.75C18.4142 8.75 18.75 9.08579 18.75 9.5V14.5C18.75 14.9142 18.4142 15.25 18 15.25C17.5858 15.25 17.25 14.9142 17.25 14.5V9.5C17.25 9.08579 17.5858 8.75 18 8.75Z" fill="black"/>
</svg>
