<svg width="24" height="24" viewBox="0 0 24 24" fill="none" xmlns="http://www.w3.org/2000/svg">
<path fill-rule="evenodd" clip-rule="evenodd" d="M11.8227 3.42682C12.1513 2.84724 12.8318 2.42142 13.6594 2.6664C17.7554 3.87877 20.75 7.58919 20.75 12C20.75 17.3776 16.5411 21.75 11 21.75C8.48967 21.75 6.04425 20.8683 4.20089 19.3802C3.89391 19.1324 3.69582 18.8046 3.63389 18.4361C3.57355 18.077 3.65093 17.7326 3.79775 17.4465C4.08542 16.886 4.68152 16.4602 5.38681 16.3981C10.6816 15.9321 14.1333 9.91232 11.7917 5.34262C11.4677 4.71027 11.5118 3.97512 11.8227 3.42682ZM13.1276 4.16664C13.058 4.28941 13.0401 4.48956 13.1267 4.65858C15.986 10.2386 11.8022 17.3393 5.51832 17.8923C5.32937 17.9089 5.18593 18.0269 5.13225 18.1315C5.11824 18.1588 5.11461 18.1764 5.1137 18.1845C5.11792 18.1901 5.12657 18.1998 5.14309 18.2131C6.71739 19.484 8.82962 20.25 11 20.25C15.6966 20.25 19.25 16.5653 19.25 12C19.25 8.2942 16.7323 5.14027 13.2337 4.10472C13.2051 4.09624 13.191 4.09694 13.1886 4.0971C13.1869 4.09721 13.1868 4.0973 13.1867 4.09737C13.1867 4.09738 13.1867 4.09739 13.1867 4.09741C13.1858 4.09781 13.159 4.11118 13.1276 4.16664ZM5.11016 18.1784C5.11031 18.1784 5.11097 18.1795 5.1117 18.1816C5.11037 18.1795 5.11 18.1785 5.11016 18.1784Z" fill="black"/>
</svg>
