<svg width="24" height="24" viewBox="0 0 24 24" fill="none" xmlns="http://www.w3.org/2000/svg">
<path fill-rule="evenodd" clip-rule="evenodd" d="M20.7425 3.10607C20.7732 2.89083 20.709 2.67285 20.5666 2.5086C20.4241 2.34435 20.2174 2.25 20 2.25V3C20 2.25 20.0002 2.25 20 2.25L19.9982 2.25L19.9956 2.25001L19.9883 2.25005L19.9649 2.25034C19.9454 2.25064 19.9182 2.25123 19.8834 2.25233C19.8139 2.25454 19.7139 2.25883 19.5845 2.26718C19.3258 2.28387 18.9494 2.31677 18.4634 2.38158C17.4912 2.51121 16.0804 2.76846 14.294 3.27886C12.5169 3.78659 11.1177 4.29516 10.159 4.67864C9.67955 4.8704 9.31012 5.03096 9.0585 5.1446C8.93268 5.20142 8.8363 5.24652 8.77032 5.27793C8.73734 5.29364 8.71195 5.30593 8.69429 5.31455L8.6736 5.32471L8.66763 5.32766L8.66481 5.32907C8.6647 5.32913 8.66459 5.32918 9 6L8.66481 5.32907C8.4578 5.43257 8.30995 5.62596 8.26456 5.85291L9 6C8.26456 5.85291 8.26458 5.85282 8.26456 5.85291L8.26398 5.85585L8.26268 5.86241L8.25805 5.88617C8.25408 5.90667 8.2484 5.93637 8.24125 5.97468C8.22695 6.05129 8.20676 6.16235 8.18266 6.30296C8.13447 6.58405 8.0705 6.98399 8.00658 7.46338C7.87918 8.4189 7.75 9.70465 7.75 11C7.75 12.0764 7.83947 13.4094 7.94205 14.5866C7.50752 14.3711 7.01791 14.25 6.5 14.25C4.70507 14.25 3.25 15.7051 3.25 17.5C3.25 19.2949 4.70507 20.75 6.5 20.75C8.29493 20.75 9.75 19.2949 9.75 17.5C9.75 17.2537 9.72261 17.0139 9.67071 16.7833C9.66952 16.7728 9.66832 16.7623 9.66711 16.7516C9.62062 16.3408 9.55861 15.7672 9.49662 15.1164C9.37198 13.8076 9.25 12.2123 9.25 11C9.25 9.79535 9.37082 8.5811 9.49342 7.66162C9.5545 7.20351 9.61553 6.8222 9.66109 6.55641C9.66351 6.54232 9.66588 6.52855 9.66821 6.51512C9.67075 6.51397 9.67331 6.51281 9.67588 6.51165C9.90863 6.40654 10.2579 6.2546 10.716 6.07136C11.6323 5.70484 12.9831 5.21341 14.706 4.72114C16.4196 4.23154 17.7588 3.98879 18.6616 3.86842C18.837 3.84504 18.9958 3.82628 19.1378 3.81122C19.0975 4.13992 19.0508 4.54035 19.0041 4.98399C18.8784 6.17866 18.75 7.70991 18.75 9C18.75 10.2465 18.8702 12.0768 18.9916 13.6118C18.5449 13.3806 18.0377 13.25 17.5 13.25C15.7051 13.25 14.25 14.7051 14.25 16.5C14.25 18.2949 15.7051 19.75 17.5 19.75C19.2949 19.75 20.75 18.2949 20.75 16.5C20.75 16.2986 20.7317 16.1016 20.6966 15.9104C20.6882 15.8204 20.6788 15.7201 20.6687 15.6108C20.622 15.1051 20.5598 14.4052 20.4976 13.6277C20.3725 12.0643 20.25 10.2166 20.25 9C20.25 7.79009 20.3716 6.32134 20.4959 5.14101C20.5577 4.55387 20.6195 4.04386 20.6658 3.68091C20.689 3.49951 20.7083 3.35505 20.7217 3.25629L20.7372 3.14356L20.7412 3.115L20.7425 3.10607ZM19.2106 16.1292C19.2188 16.215 19.2259 16.2898 19.232 16.3524L19.248 16.5167L19.2497 16.5338C19.2317 17.4847 18.4552 18.25 17.5 18.25C16.5335 18.25 15.75 17.4665 15.75 16.5C15.75 15.5335 16.5335 14.75 17.5 14.75C18.3393 14.75 19.0406 15.3408 19.2106 16.1292ZM8.19127 17.0488C8.20845 17.1985 8.22295 17.3215 8.23383 17.4123L8.24951 17.542C8.2272 18.4891 7.45246 19.25 6.5 19.25C5.5335 19.25 4.75 18.4665 4.75 17.5C4.75 16.5335 5.5335 15.75 6.5 15.75C7.31048 15.75 7.99227 16.301 8.19127 17.0488Z" fill="black"/>
</svg>
