<svg width="24" height="24" viewBox="0 0 24 24" fill="none" xmlns="http://www.w3.org/2000/svg">
<path fill-rule="evenodd" clip-rule="evenodd" d="M12.6412 2.61094L12 3L11.3588 2.61094C11.4948 2.38685 11.7379 2.25 12 2.25C12.2621 2.25 12.5052 2.38685 12.6412 2.61094ZM12 18.503L6.64593 20.6207C5.35113 21.1328 3.90796 20.024 4.31721 18.573C4.7671 16.9779 5.56589 14.4896 6.85311 11.5196C7.9778 8.92463 9.10208 6.70123 9.94543 5.12603C10.3673 4.33813 10.7192 3.71165 10.9663 3.2811C11.0899 3.0658 11.1873 2.89944 11.2542 2.78632C11.2876 2.72976 11.3134 2.68651 11.331 2.6571L11.3512 2.62343L11.3566 2.61451L11.3588 2.61094C11.3588 2.61085 11.3588 2.61094 12 3C12.6412 2.61094 12.6411 2.61085 12.6412 2.61094L12.6433 2.61451L12.6487 2.62343L12.669 2.6571C12.6866 2.68651 12.7124 2.72976 12.7458 2.78632C12.8127 2.89944 12.91 3.0658 13.0336 3.2811C13.2808 3.71165 13.6327 4.33813 14.0545 5.12603C14.8979 6.70123 16.0222 8.92463 17.1469 11.5196C18.4341 14.4896 19.2329 16.9779 19.6828 18.573C20.092 20.024 18.6488 21.1328 17.354 20.6207L12 18.503ZM12 4.49853C11.7946 4.86397 11.547 5.31264 11.2678 5.83403C10.4392 7.38182 9.33407 9.56735 8.2294 12.1161C6.97322 15.0145 6.19582 17.4381 5.76089 18.9801C5.74419 19.0393 5.7495 19.0796 5.7581 19.1066C5.7676 19.1364 5.78675 19.1668 5.81726 19.1929C5.87597 19.2431 5.97236 19.274 6.09422 19.2258L11.7241 16.999C11.9014 16.9289 12.0986 16.9289 12.2758 16.999L17.9058 19.2258C18.0276 19.274 18.124 19.2431 18.1827 19.1929C18.2132 19.1668 18.2324 19.1364 18.2419 19.1066C18.2505 19.0796 18.2558 19.0394 18.2391 18.9801C17.8041 17.4381 17.0268 15.0145 15.7706 12.1161C14.6659 9.56735 13.5608 7.38182 12.7321 5.83403C12.453 5.31264 12.2054 4.86397 12 4.49853Z" fill="black"/>
</svg>
