<svg width="24" height="24" viewBox="0 0 24 24" fill="none" xmlns="http://www.w3.org/2000/svg">
<path fill-rule="evenodd" clip-rule="evenodd" d="M4.53805 4.53797C4.55441 4.53011 4.5766 4.52009 4.60571 4.50826C4.71409 4.46421 4.87178 4.41345 5.0833 4.35967C5.5048 4.25251 6.0822 4.1478 6.78457 4.05619C8.186 3.87339 10.0283 3.74998 12.0001 3.74998C12.4143 3.74998 12.7501 3.4142 12.7501 2.99998C12.7501 2.58577 12.4143 2.24998 12.0001 2.24998C9.97182 2.24998 8.06413 2.37658 6.59056 2.56878C5.85542 2.66467 5.21407 2.77871 4.7137 2.90592C4.46428 2.96933 4.23526 3.03966 4.0409 3.11866C3.86604 3.18973 3.64162 3.29777 3.46973 3.46965C3.29784 3.64154 3.18981 3.86596 3.11874 4.04082C3.03974 4.23518 2.96941 4.46421 2.906 4.71362C2.77878 5.21399 2.66475 5.85535 2.56886 6.59048C2.37666 8.06405 2.25006 9.97174 2.25006 12C2.25006 14.0282 2.37666 15.9359 2.56886 17.4095C2.66475 18.1446 2.77878 18.786 2.906 19.2863C2.96941 19.5358 3.03974 19.7648 3.11874 19.9591C3.18981 20.134 3.29784 20.3584 3.46973 20.5303C3.64162 20.7022 3.86604 20.8102 4.0409 20.8813C4.23526 20.9603 4.46428 21.0306 4.7137 21.094C5.21407 21.2213 5.85542 21.3353 6.59056 21.4312C8.06413 21.6234 9.97182 21.75 12.0001 21.75C14.0283 21.75 15.936 21.6234 17.4096 21.4312C18.1447 21.3353 18.7861 21.2213 19.2864 21.094C19.5358 21.0306 19.7649 20.9603 19.9592 20.8813C20.1341 20.8102 20.3585 20.7022 20.5304 20.5303C20.7023 20.3584 20.8103 20.134 20.8814 19.9591C20.9604 19.7648 21.0307 19.5358 21.0941 19.2863C21.2213 18.786 21.3354 18.1446 21.4313 17.4095C21.6235 15.9359 21.7501 14.0282 21.7501 12C21.7501 11.5858 21.4143 11.25 21.0001 11.25C20.5858 11.25 20.2501 11.5858 20.2501 12C20.2501 13.9717 20.1267 15.814 19.9439 17.2155C19.8522 17.9178 19.7475 18.4952 19.6404 18.9167C19.5866 19.1283 19.5358 19.286 19.4918 19.3943C19.48 19.4234 19.4699 19.4456 19.4621 19.462C19.4457 19.4699 19.4235 19.4799 19.3944 19.4917C19.286 19.5358 19.1283 19.5865 18.9168 19.6403C18.4953 19.7475 17.9179 19.8522 17.2156 19.9438C15.8141 20.1266 13.9718 20.25 12.0001 20.25C10.0283 20.25 8.186 20.1266 6.78457 19.9438C6.0822 19.8522 5.5048 19.7475 5.0833 19.6403C4.87178 19.5865 4.71409 19.5358 4.60571 19.4917C4.5766 19.4799 4.55441 19.4699 4.53805 19.462C4.53019 19.4456 4.52017 19.4234 4.50834 19.3943C4.46429 19.286 4.41353 19.1283 4.35975 18.9167C4.25259 18.4952 4.14787 17.9178 4.05626 17.2155C3.87347 15.814 3.75006 13.9717 3.75006 12C3.75006 10.0282 3.87347 8.18592 4.05626 6.78449C4.14787 6.08212 4.25259 5.50473 4.35975 5.08322C4.41353 4.8717 4.46429 4.71401 4.50834 4.60563C4.52017 4.57652 4.53019 4.55433 4.53805 4.53797ZM14.25 2.99998C14.25 2.58577 14.5858 2.24998 15 2.24998H21.0001C21.4143 2.24998 21.7501 2.58577 21.7501 2.99998V8.99999C21.7501 9.41421 21.4143 9.74999 21.0001 9.74999C20.5858 9.74999 20.2501 9.41421 20.2501 8.99999V4.81064L10.5303 14.5303C10.2374 14.8232 9.76253 14.8232 9.46964 14.5303C9.17675 14.2374 9.17675 13.7626 9.46965 13.4697L19.1894 3.74998H15C14.5858 3.74998 14.25 3.4142 14.25 2.99998Z" fill="black"/>
</svg>
