<svg width="24" height="24" fill="none" xmlns="http://www.w3.org/2000/svg"><path d="M4.596 5.332a.831.831 0 0 0-.223.25c-.181.328-.391 1.762-.541 3.698-.068.888-.068 4.552 0 5.44.15 1.932.363 3.384.543 3.702.257.453.608.437 1.985-.09 1.888-.724 4.232-1.936 6.02-3.113 1.894-1.247 3.38-2.662 3.38-3.219 0-.059-.058-.223-.128-.364-.256-.513-1.541-1.68-2.841-2.58-2.073-1.437-5.542-3.185-7.372-3.715-.439-.127-.645-.13-.823-.009m14.146-.034c-.219.081-.35.185-.434.345-.085.164-.079.278.064 1.077.253 1.42.366 3.044.366 5.28 0 2.468-.135 4.169-.462 5.823-.082.419.015.657.338.826.12.063.239.088.433.089.547.004.684-.267.89-1.758.22-1.593.282-2.685.282-4.98 0-2.295-.062-3.387-.282-4.98-.153-1.108-.271-1.499-.505-1.673-.14-.103-.479-.128-.69-.049M6.201 7.216c.787.316 1.51.652 2.459 1.141 2.23 1.149 3.938 2.28 5.043 3.34l.317.303-.317.303c-1.52 1.458-4.573 3.283-7.459 4.462A6.867 6.867 0 0 1 5.62 17c-.056 0-.071-.095-.179-1.08-.139-1.28-.178-2.143-.178-3.92 0-1.777.039-2.64.178-3.92.106-.975.124-1.08.176-1.08.025 0 .288.097.584.216" fill-rule="evenodd" fill="#000"/></svg>