<svg width="24" height="24" viewBox="0 0 24 24" fill="none" xmlns="http://www.w3.org/2000/svg">
<path fill-rule="evenodd" clip-rule="evenodd" d="M5.1563 4.98641C5.15267 4.99055 5.14866 4.99528 5.14428 5.00066C5.09668 5.05917 5.03322 5.1615 4.96991 5.31319C4.84351 5.61603 4.75 6.03811 4.75 6.5C4.75 6.96189 4.84351 7.38397 4.96991 7.68681C5.03322 7.8385 5.09668 7.94083 5.14428 7.99934C5.14867 8.00473 5.15268 8.00947 5.15631 8.01361C5.17238 8.01628 5.19285 8.01946 5.21835 8.02304C5.30444 8.03512 5.42068 8.04809 5.56768 8.06141C6.69111 8.16321 9.19614 8.25 12 8.25C14.8039 8.25 17.3089 8.16321 18.4323 8.06141C18.5793 8.04809 18.6956 8.03512 18.7817 8.02304C18.8071 8.01946 18.8276 8.01628 18.8437 8.01361C18.8473 8.00947 18.8513 8.00473 18.8557 7.99934C18.9033 7.94083 18.9668 7.8385 19.0301 7.68681C19.1565 7.38397 19.25 6.96189 19.25 6.5C19.25 6.03811 19.1565 5.61603 19.0301 5.31319C18.9668 5.1615 18.9033 5.05917 18.8557 5.00066C18.8513 4.99528 18.8473 4.99054 18.8437 4.98641C18.818 4.98217 18.7807 4.97652 18.7293 4.96999C18.6109 4.95495 18.4518 4.93921 18.2531 4.92343C17.8566 4.89193 17.3255 4.86202 16.6917 4.83618C15.4254 4.78457 13.769 4.75 12 4.75C10.231 4.75 8.57462 4.78457 7.30832 4.83618C6.67455 4.86202 6.14338 4.89193 5.7469 4.92343C5.5482 4.93921 5.38913 4.95495 5.27072 4.96999C5.21928 4.97652 5.18197 4.98217 5.1563 4.98641ZM18.8189 4.96144C18.819 4.96141 18.8196 4.9619 18.821 4.96304C18.8196 4.96205 18.8189 4.96148 18.8189 4.96144ZM18.8189 8.03856C18.8189 8.03852 18.8196 8.03795 18.821 8.03696C18.8196 8.0381 18.8189 8.0386 18.8189 8.03856ZM5.18106 8.03856C5.18105 8.03859 5.18037 8.0381 5.17905 8.03696C5.1804 8.03795 5.18106 8.03852 5.18106 8.03856ZM5.17904 4.96304C5.18037 4.9619 5.18105 4.96141 5.18106 4.96144C5.18106 4.96148 5.1804 4.96205 5.17904 4.96304ZM7.24723 3.33743C8.53649 3.28488 10.2134 3.25 12 3.25C13.7866 3.25 15.4635 3.28488 16.7528 3.33743C17.3968 3.36368 17.9489 3.39453 18.3719 3.42814C18.5829 3.4449 18.7676 3.4628 18.9183 3.48194C19.0526 3.49901 19.2093 3.52269 19.3348 3.56192C19.6404 3.65741 19.8657 3.86524 20.0193 4.05403C20.18 4.25159 20.311 4.4878 20.4144 4.73542C20.6213 5.2312 20.75 5.85078 20.75 6.5C20.75 7.14922 20.6213 7.7688 20.4144 8.26458C20.311 8.5122 20.18 8.74841 20.0193 8.94597C19.8768 9.12115 19.6725 9.31274 19.3996 9.41574C19.4291 9.57446 19.4602 9.75519 19.4913 9.95671C19.6213 10.8013 19.75 12.0126 19.75 13.5C19.75 14.9749 19.6509 16.3642 19.4997 17.4411C19.4243 17.9779 19.3338 18.4521 19.2312 18.827C19.1801 19.0137 19.1219 19.1908 19.0544 19.3451C18.9948 19.4813 18.8963 19.6754 18.7326 19.8274C18.5729 19.9757 18.3737 20.0621 18.2356 20.1142C18.0769 20.1741 17.8927 20.2264 17.6958 20.2729C17.3002 20.3663 16.7964 20.4493 16.2221 20.5189C15.0705 20.6584 13.5818 20.75 12 20.75C10.4182 20.75 8.92952 20.6584 7.77788 20.5189C7.20363 20.4493 6.69976 20.3663 6.30424 20.2729C6.10728 20.2264 5.92308 20.1741 5.76436 20.1142C5.62634 20.0621 5.42711 19.9757 5.26744 19.8274L5.77778 19.2778L5.26744 19.8274C5.10373 19.6754 5.00525 19.4813 4.94564 19.3451C4.87813 19.1908 4.81993 19.0137 4.76881 18.827C4.66618 18.4521 4.57574 17.9779 4.50035 17.4411C4.34908 16.3642 4.25 14.9749 4.25 13.5C4.25 12.0126 4.37869 10.8013 4.50874 9.95671C4.53977 9.75519 4.57089 9.57446 4.60038 9.41574C4.3275 9.31274 4.12324 9.12115 3.98072 8.94597C3.81999 8.74841 3.689 8.5122 3.58565 8.26458C3.37871 7.7688 3.25 7.14922 3.25 6.5C3.25 5.85078 3.37871 5.2312 3.58565 4.73542C3.689 4.4878 3.81999 4.25159 3.98072 4.05403C4.1343 3.86524 4.3596 3.65741 4.66518 3.56192C4.79072 3.52269 4.94738 3.49901 5.08171 3.48194C5.2324 3.4628 5.41708 3.4449 5.6281 3.42814C6.05107 3.39453 6.60323 3.36368 7.24723 3.33743ZM6.09127 9.60438C6.06001 9.76707 6.02571 9.96131 5.99126 10.185C5.87131 10.9641 5.75 12.0986 5.75 13.5C5.75 14.914 5.84537 16.233 5.98576 17.2325C6.0562 17.7339 6.1359 18.1399 6.21556 18.4309C6.2503 18.5577 6.28199 18.6514 6.30819 18.7161C6.38483 18.744 6.49699 18.7772 6.64888 18.813C6.97038 18.8889 7.41442 18.9639 7.95823 19.0298C9.0427 19.1611 10.4707 19.25 12 19.25C13.5293 19.25 14.9573 19.1611 16.0418 19.0298C16.5856 18.9639 17.0296 18.8889 17.3511 18.813C17.503 18.7772 17.6152 18.744 17.6918 18.7161C17.718 18.6514 17.7497 18.5577 17.7844 18.4309C17.8641 18.1399 17.9438 17.7339 18.0142 17.2325C18.1546 16.233 18.25 14.914 18.25 13.5C18.25 12.0986 18.1287 10.9641 18.0087 10.185C17.9743 9.96131 17.94 9.76707 17.9087 9.60438C16.5646 9.68844 14.3734 9.75 12 9.75C9.62665 9.75 7.43537 9.68844 6.09127 9.60438ZM17.6566 18.7916C17.6566 18.7916 17.657 18.7908 17.6579 18.7894C17.6571 18.7909 17.6566 18.7917 17.6566 18.7916ZM6.34342 18.7916C6.34341 18.7917 6.34294 18.7909 6.34205 18.7894C6.34298 18.7908 6.34343 18.7916 6.34342 18.7916ZM10 13L9.46967 12.4697C9.17678 12.7626 9.17678 13.2374 9.46967 13.5303C9.75405 13.8147 10.21 13.823 10.5043 13.5551C10.5071 13.5531 10.5115 13.55 10.5176 13.5459C10.5449 13.5277 10.6082 13.4895 10.716 13.4464C10.9304 13.3606 11.3345 13.25 12 13.25C12.6655 13.25 13.0696 13.3606 13.284 13.4464C13.3918 13.4895 13.4551 13.5277 13.4824 13.5459C13.4885 13.55 13.4929 13.5531 13.4957 13.5551C13.79 13.823 14.246 13.8147 14.5303 13.5303C14.8232 13.2374 14.8232 12.7626 14.5303 12.4697L14 13C14.5303 12.4697 14.5299 12.4693 14.5295 12.4689L14.5287 12.4681L14.5271 12.4665L14.5237 12.4631L14.5162 12.4559C14.5109 12.4508 14.505 12.4453 14.4985 12.4394C14.4856 12.4276 14.4702 12.4143 14.4524 12.3996C14.4166 12.3701 14.371 12.3355 14.3145 12.2978C14.2011 12.2223 14.0457 12.1355 13.841 12.0536C13.4304 11.8894 12.8345 11.75 12 11.75C11.1655 11.75 10.5696 11.8894 10.159 12.0536C9.95429 12.1355 9.79886 12.2223 9.68554 12.2978C9.62901 12.3355 9.58337 12.3701 9.54763 12.3996C9.52978 12.4143 9.51444 12.4276 9.50148 12.4394C9.495 12.4453 9.48912 12.4508 9.48382 12.4559L9.47631 12.4631L9.47288 12.4665L9.47125 12.4681L9.47045 12.4689C9.47006 12.4693 9.46967 12.4697 10 13ZM13.4704 13.5311C13.4704 13.5311 13.4704 13.5311 13.4704 13.5311L13.471 13.5317L13.4712 13.5319L13.4714 13.532C13.4713 13.5319 13.4711 13.5318 13.471 13.5317C13.4708 13.5315 13.4706 13.5313 13.4704 13.5311Z" fill="black"/>
</svg>
