<svg width="24" height="24" viewBox="0 0 24 24" fill="none" xmlns="http://www.w3.org/2000/svg">
<path fill-rule="evenodd" clip-rule="evenodd" d="M4.34915 10.1205C3.14428 10.8125 2.90408 11.5614 2.85124 11.8977C2.8473 11.9228 2.84209 11.9476 2.83563 11.9722C2.83634 11.9695 2.83576 11.9726 2.83419 11.9811C2.82584 12.0264 2.78941 12.2238 2.76709 12.515C2.74125 12.8521 2.73791 13.2737 2.80588 13.6848C2.87464 14.1006 3.00771 14.4534 3.21333 14.7049C3.40174 14.9353 3.68686 15.127 4.17942 15.179C5.83668 15.3482 6.63674 15.1878 7.04543 14.9776C7.39777 14.7963 7.54594 14.5373 7.73371 14.0619C7.75266 14.0139 7.77226 13.9624 7.79295 13.9081C7.96444 13.4578 8.21122 12.8099 8.78919 12.3029C9.45594 11.718 10.4499 11.3929 11.9765 11.3457C13.4998 11.2986 14.5128 11.5646 15.1988 12.1423C15.7953 12.6448 16.0428 13.3204 16.2147 13.7896C16.2338 13.8418 16.252 13.8913 16.2696 13.9378C16.4622 14.4466 16.6176 14.738 16.9778 14.9398C17.3807 15.1655 18.1715 15.3472 19.8212 15.1787C20.3135 15.1269 20.5985 14.9353 20.7868 14.7049C20.9923 14.4535 21.1254 14.1007 21.1941 13.6849C21.2621 13.2738 21.2588 12.852 21.2329 12.5147C21.2104 12.2205 21.1734 12.0212 21.1653 11.9777C21.1639 11.9701 21.1634 11.9673 21.164 11.9696C21.1578 11.9457 21.1527 11.9215 21.1488 11.8971C21.0958 11.5608 20.8555 10.8121 19.6508 10.1204C18.4099 9.40785 16.1314 8.75026 12.0003 8.75L12.0004 8L12.0003 8.75C7.86899 8.75008 5.59019 9.40777 4.34915 10.1205ZM3.60213 8.81975C5.16486 7.92227 7.74292 7.25008 12.0004 7.25H12.0004C16.2576 7.25026 18.8352 7.92236 20.3978 8.81959C21.9802 9.72826 22.4962 10.8556 22.6266 11.6392C22.6829 11.9018 22.8443 12.8995 22.6741 13.9295C22.5809 14.4932 22.3787 15.1276 21.9482 15.6543C21.5006 16.2018 20.8489 16.5791 19.9768 16.6706L19.9748 16.6708C18.2292 16.8492 17.0569 16.7035 16.2447 16.2484C15.3896 15.7694 15.0778 15.0265 14.8667 14.4689C14.8513 14.4281 14.8364 14.3886 14.822 14.3503C14.6236 13.8237 14.5107 13.524 14.2324 13.2896C13.9571 13.0577 13.3877 12.8028 12.0229 12.845C10.6614 12.8871 10.0729 13.1721 9.77835 13.4305C9.49398 13.6799 9.37837 13.9755 9.18959 14.4581C9.1702 14.5077 9.15004 14.5592 9.12885 14.6129C8.91307 15.1592 8.59427 15.8676 7.73168 16.3114C6.92554 16.7262 5.76301 16.8486 4.0257 16.6711L4.02356 16.6709C3.15134 16.5792 2.49968 16.2019 2.05202 15.6543C1.62146 15.1276 1.41919 14.4932 1.32598 13.9295C1.15603 12.9018 1.31637 11.9059 1.37336 11.6404C1.50344 10.8561 2.01971 9.72854 3.60213 8.81975Z" fill="black"/>
</svg>
