<svg width="24" height="24" viewBox="0 0 24 24" fill="none" xmlns="http://www.w3.org/2000/svg">
<path fill-rule="evenodd" clip-rule="evenodd" d="M3.66725 5.08699C3.66332 5.09286 3.66181 5.09512 3.66276 5.09345C3.64993 5.11604 3.63594 5.13795 3.62084 5.15909C3.39769 5.47149 3.00156 6.27474 3.4653 7.84312C3.94094 9.45171 5.32321 11.8607 8.73085 15.2687L8.20049 15.799L8.73085 15.2687C12.139 18.6767 14.5483 20.0592 16.1571 20.5348C17.7259 20.9985 18.5292 20.6021 18.8415 20.3788C18.8632 20.3632 18.8857 20.3489 18.9089 20.3358C18.9069 20.3369 18.9095 20.3352 18.9161 20.3307C18.956 20.304 19.1433 20.1784 19.3935 19.9656C19.6785 19.7234 20.0116 19.3959 20.2778 19.0169C20.5461 18.6352 20.7178 18.2421 20.7459 17.8588C20.7722 17.4994 20.6783 17.0798 20.2862 16.6008C19.0488 15.0985 18.2412 14.5361 17.7001 14.3494C17.2253 14.1856 16.8753 14.28 16.3547 14.4941C16.301 14.5162 16.2444 14.5403 16.1849 14.5656C15.6906 14.7759 15.0003 15.0695 14.1542 14.9911C13.1909 14.9019 12.1519 14.3613 10.8748 13.1569C9.60012 11.9547 9.00295 10.9476 8.89372 9.9786C8.79723 9.12266 9.11104 8.41119 9.33602 7.90112C9.36081 7.84493 9.38452 7.79117 9.40648 7.73994C9.64218 7.19016 9.75579 6.81051 9.60372 6.31498C9.43484 5.7647 8.89558 4.94666 7.39858 3.71364C6.91982 3.32163 6.50047 3.2278 6.14126 3.25411C5.75807 3.28217 5.36507 3.45394 4.98326 3.72224C4.60423 3.98857 4.2767 4.32177 4.03426 4.6069C3.81928 4.85974 3.69268 5.04898 3.66725 5.08699ZM6.0317 1.75811C6.80113 1.70177 7.5949 1.93532 8.34992 2.55392L8.35139 2.55513L8.35138 2.55513C9.9169 3.84444 10.7372 4.8958 11.0377 5.87489C11.355 6.90884 11.0477 7.71854 10.7851 8.33098C10.7646 8.37881 10.7447 8.42509 10.7253 8.46998C10.4832 9.03131 10.3351 9.37473 10.3843 9.81057C10.4352 10.2625 10.734 10.9622 11.904 12.0657C13.0716 13.1669 13.809 13.4527 14.2926 13.4975C14.7435 13.5393 15.0853 13.3972 15.6095 13.1792C15.6655 13.1559 15.7237 13.1317 15.7842 13.1068C16.391 12.8573 17.1782 12.5826 18.1892 12.9314C19.1337 13.2572 20.1604 14.0886 21.4448 15.6481L21.4461 15.6497C22.0647 16.4049 22.2982 17.1988 22.2419 17.9683C22.1873 18.714 21.8663 19.3653 21.5052 19.8793C20.8465 20.8167 19.9404 21.4581 19.6927 21.614C18.9825 22.1127 17.7026 22.5558 15.7319 21.9732C13.7814 21.3966 11.1611 19.8201 7.67017 16.3294L7.67013 16.3293C4.17978 12.8386 2.6035 10.2186 2.02687 8.26845C1.44418 6.29782 1.88726 5.01836 2.38528 4.30837C2.53955 4.06343 3.18149 3.15501 4.12085 2.49494C4.63486 2.13375 5.2861 1.81272 6.0317 1.75811ZM14.2546 2.91719C14.3003 2.50551 14.6711 2.20885 15.0828 2.25458C16.8075 2.44618 18.3376 3.27845 19.53 4.46933C20.7239 5.6617 21.5517 7.19365 21.7453 8.91625C21.7916 9.32787 21.4954 9.69905 21.0837 9.74531C20.6721 9.79156 20.3009 9.49537 20.2547 9.08374C20.1041 7.74371 19.4567 6.51615 18.47 5.53066C17.4818 4.54368 16.2556 3.89409 14.9172 3.74541C14.5055 3.69968 14.2089 3.32887 14.2546 2.91719ZM13.7639 6.35638C13.8432 5.94983 14.2371 5.68456 14.6436 5.76388C15.4866 5.92834 16.3677 6.30708 17.0303 6.96967C17.6929 7.63225 18.0717 8.51344 18.2361 9.35638C18.3154 9.76292 18.0502 10.1568 17.6436 10.2361C17.2371 10.3154 16.8432 10.0502 16.7639 9.64362C16.6407 9.01224 16.3692 8.4299 15.9697 8.03033C15.5701 7.63076 14.9878 7.3593 14.3564 7.23612C13.9498 7.1568 13.6846 6.76292 13.7639 6.35638Z" fill="black"/>
</svg>
