<svg width="24" height="24" viewBox="0 0 24 24" fill="none" xmlns="http://www.w3.org/2000/svg">
<path fill-rule="evenodd" clip-rule="evenodd" d="M13.558 6.01261C11.9564 6.49827 10.3223 7.48317 9.13278 8.31315C8.60255 8.68312 8.52417 9.46352 9.04915 9.9885L11.5252 12.4646C11.5269 12.4662 11.5286 12.4679 11.5303 12.4696C11.532 12.4713 11.5337 12.473 11.5354 12.4748L14.0115 14.9508C14.5365 15.4758 15.3169 15.3974 15.6868 14.8672C16.5168 13.6777 17.5017 12.0436 17.9874 10.442C18.4779 8.82431 18.402 7.46265 17.4697 6.53033C16.5373 5.59801 15.1757 5.52208 13.558 6.01261ZM11 14.0606L12.9508 16.0115C14.0673 17.128 15.9586 17.0991 16.917 15.7255C17.7777 14.4919 18.8687 12.7046 19.4228 10.8773C19.9721 9.06598 20.0517 6.99103 18.5303 5.46967C17.009 3.94831 14.934 4.02791 13.1227 4.57715C11.2954 5.13126 9.50809 6.22224 8.27445 7.083C6.90093 8.04137 6.87201 9.93269 7.98849 11.0492L9.93932 13L3.46967 19.4696C3.17678 19.7625 3.17678 20.2374 3.46967 20.5303C3.76256 20.8232 4.23744 20.8232 4.53033 20.5303L11 14.0606Z" fill="black"/>
</svg>
