<svg width="24" height="24" viewBox="0 0 24 24" fill="none" xmlns="http://www.w3.org/2000/svg">
<path fill-rule="evenodd" clip-rule="evenodd" d="M8.25 3C8.25 2.58579 8.58579 2.25 9 2.25H15C15.4142 2.25 15.75 2.58579 15.75 3V3.7025C17.3153 4.18016 18.4539 5.07549 19.1854 6.52897C19.9715 8.09094 20.25 10.2287 20.25 13C20.25 16.451 19.8206 18.9486 18.4769 20.561C17.0959 22.2182 14.923 22.75 12 22.75C9.07697 22.75 6.90408 22.2182 5.5231 20.561C4.1794 18.9486 3.75 16.451 3.75 13C3.75 10.2287 4.02855 8.09094 4.81461 6.52897C5.54608 5.07549 6.68466 4.18016 8.25 3.7025V3ZM8.25 5.28962C7.27012 5.67931 6.61147 6.29525 6.1545 7.20328C5.5342 8.43587 5.25 10.275 5.25 13C5.25 16.4314 5.70295 18.4338 6.67543 19.6008C7.61063 20.723 9.18773 21.25 12 21.25C14.8123 21.25 16.3894 20.723 17.3246 19.6008C18.297 18.4338 18.75 16.4314 18.75 13C18.75 10.275 18.4658 8.43587 17.8455 7.20328C17.3885 6.29525 16.7299 5.67931 15.75 5.28962V6C15.75 6.41421 15.4142 6.75 15 6.75H9C8.58579 6.75 8.25 6.41421 8.25 6V5.28962ZM9.75 3.75V5.25H14.25V3.75H9.75ZM15.5303 11.4697C15.8232 11.7626 15.8232 12.2374 15.5303 12.5303L11.3303 16.7304C11.1896 16.871 10.9989 16.95 10.8 16.95C10.601 16.95 10.4103 16.871 10.2696 16.7304L8.4697 14.9303C8.17681 14.6374 8.17682 14.1626 8.46972 13.8697C8.76262 13.5768 9.23749 13.5768 9.53038 13.8697L10.8 15.1394L14.4697 11.4697C14.7626 11.1768 15.2374 11.1768 15.5303 11.4697Z" fill="black"/>
</svg>
