<svg width="24" height="24" viewBox="0 0 24 24" fill="none" xmlns="http://www.w3.org/2000/svg">
<path fill-rule="evenodd" clip-rule="evenodd" d="M13.1473 4.20663C14.6118 2.74216 16.9861 2.74216 18.4506 4.20663L19.8648 5.62084C21.3293 7.0853 21.3293 9.45967 19.8648 10.9241L10.9951 19.7938C9.53067 21.2583 7.1563 21.2583 5.69184 19.7938L4.27762 18.3796C2.81316 16.9151 2.81315 14.5408 4.27762 13.0763L13.1473 4.20663ZM17.3899 5.26729C16.5113 4.38861 15.0866 4.38861 14.208 5.26729L13.1952 6.28L17.7914 10.8762L18.8042 9.86348C19.6828 8.9848 19.6828 7.56018 18.8042 6.6815L17.3899 5.26729ZM16.7308 11.9369L12.1346 7.34066L7.41178 12.0635L12.008 16.6597L16.7308 11.9369ZM10.9473 17.7203L6.35112 13.1241L5.33828 14.137C4.4596 15.0156 4.4596 16.4403 5.33828 17.3189L6.7525 18.7332C7.63118 19.6118 9.0558 19.6118 9.93448 18.7332L10.9473 17.7203ZM9.95055 5.28334C9.06666 4.39944 7.626 4.39379 6.75251 5.26728L5.3382 6.68159C4.45957 7.56022 4.45957 8.98475 5.3382 9.86337C5.63109 10.1563 5.63109 10.6311 5.3382 10.924C5.0453 11.2169 4.57043 11.2169 4.27754 10.924C2.81313 9.45962 2.81313 7.08534 4.27754 5.62093L5.69185 4.20662C7.16151 2.73696 9.55196 2.76343 11.0112 4.22268C11.3041 4.51557 11.3041 4.99045 11.0112 5.28334C10.7183 5.57623 10.2434 5.57623 9.95055 5.28334ZM18.8042 13.0763C19.0971 12.7834 19.572 12.7834 19.8649 13.0763C21.3293 14.5407 21.3293 16.9151 19.8649 18.3796L18.4507 19.7938C16.9862 21.2583 14.6118 21.2583 13.1474 19.7938C12.8545 19.5009 12.8545 19.026 13.1474 18.7331C13.4402 18.4402 13.9151 18.4402 14.208 18.7331C15.0867 19.6118 16.5113 19.6118 17.39 18.7331L18.8042 17.3189C19.6829 16.4402 19.6829 15.0156 18.8042 14.1369C18.5113 13.844 18.5113 13.3692 18.8042 13.0763Z" fill="black"/>
</svg>
