<svg width="24" height="24" viewBox="0 0 24 24" fill="none" xmlns="http://www.w3.org/2000/svg">
<path fill-rule="evenodd" clip-rule="evenodd" d="M13.1473 4.20663C14.6117 2.74216 16.9861 2.74216 18.4506 4.20663L19.8648 5.62084C21.3292 7.0853 21.3293 9.45967 19.8648 10.9241L10.9951 19.7938C9.53064 21.2583 7.15627 21.2583 5.69181 19.7938L4.27759 18.3796C2.81313 16.9151 2.81312 14.5408 4.27759 13.0763L13.1473 4.20663ZM17.3899 5.26729C16.5112 4.38861 15.0866 4.38861 14.2079 5.26729L13.1952 6.28L17.7914 10.8762L18.8041 9.86348C19.6828 8.9848 19.6828 7.56018 18.8041 6.6815L17.3899 5.26729ZM16.7307 11.9369L12.1346 7.34066L7.41175 12.0635L12.0079 16.6597L16.7307 11.9369ZM10.9473 17.7203L6.35109 13.1241L5.33825 14.137C4.45957 15.0156 4.45957 16.4403 5.33825 17.3189L6.75247 18.7332C7.63115 19.6118 9.05577 19.6118 9.93445 18.7332L10.9473 17.7203ZM9.95052 5.28334C9.06663 4.39944 7.62597 4.39379 6.75248 5.26728L5.33817 6.68159C4.45954 7.56022 4.45954 8.98475 5.33817 9.86337C5.63106 10.1563 5.63106 10.6311 5.33817 10.924C5.04527 11.2169 4.5704 11.2169 4.27751 10.924C2.8131 9.45962 2.8131 7.08534 4.27751 5.62093L5.69182 4.20662C7.16148 2.73696 9.55193 2.76343 11.0112 4.22268C11.3041 4.51557 11.3041 4.99045 11.0112 5.28334C10.7183 5.57623 10.2434 5.57623 9.95052 5.28334ZM12.0001 9.75003C12.4143 9.75003 12.7501 10.0858 12.7501 10.5V10.51C12.7501 10.9242 12.4143 11.26 12.0001 11.26C11.5859 11.26 11.2501 10.9242 11.2501 10.51V10.5C11.2501 10.0858 11.5859 9.75003 12.0001 9.75003ZM13.5001 11.75C13.9143 11.75 14.2501 12.0858 14.2501 12.5V12.51C14.2501 12.9242 13.9143 13.26 13.5001 13.26C13.0859 13.26 12.7501 12.9242 12.7501 12.51V12.5C12.7501 12.0858 13.0859 11.75 13.5001 11.75ZM11.0001 12.25C11.4143 12.25 11.7501 12.5858 11.7501 13V13.01C11.7501 13.4242 11.4143 13.76 11.0001 13.76C10.5859 13.76 10.2501 13.4242 10.2501 13.01V13C10.2501 12.5858 10.5859 12.25 11.0001 12.25ZM18.8042 13.0763C19.0971 12.7834 19.5719 12.7834 19.8648 13.0763C21.3293 14.5407 21.3293 16.9151 19.8648 18.3796L18.4506 19.7938C16.9862 21.2583 14.6118 21.2583 13.1473 19.7938C12.8544 19.5009 12.8544 19.026 13.1473 18.7331C13.4402 18.4402 13.9151 18.4402 14.208 18.7331C15.0867 19.6118 16.5113 19.6118 17.39 18.7331L18.8042 17.3189C19.6829 16.4402 19.6829 15.0156 18.8042 14.1369C18.5113 13.844 18.5113 13.3692 18.8042 13.0763Z" fill="black"/>
</svg>
