<svg width="24" height="24" viewBox="0 0 24 24" fill="none" xmlns="http://www.w3.org/2000/svg">
<path fill-rule="evenodd" clip-rule="evenodd" d="M7.6819 5.2724L7.5 6L6.77239 5.8181C6.87285 5.41625 7.28006 5.17193 7.6819 5.2724ZM16.5166 12C16.3979 11.8758 16.2466 11.7264 16.058 11.555C15.4142 10.9697 14.3344 10.1263 12.6279 9.15118C10.9081 8.16842 9.56433 7.55851 8.65896 7.19636C8.44024 7.10887 8.24707 7.03583 8.08032 6.97547C8.05291 7.15193 8.02361 7.35779 7.99421 7.59303C7.87304 8.56241 7.75 10.0313 7.75 12C7.75 13.9687 7.87304 15.4376 7.99421 16.407C8.02361 16.6422 8.05291 16.8481 8.08032 17.0245C8.24707 16.9642 8.44024 16.8911 8.65896 16.8036C9.56433 16.4415 10.9081 15.8316 12.6279 14.8488C14.3344 13.8737 15.4142 13.0303 16.058 12.445C16.2466 12.2736 16.3979 12.1242 16.5166 12ZM7.5 18C6.77239 18.1819 6.77235 18.1817 6.7723 18.1815L6.77197 18.1802L6.77137 18.1778L6.76964 18.1707L6.76417 18.1477C6.75967 18.1285 6.75347 18.1014 6.74584 18.0665C6.73058 17.9967 6.70955 17.8956 6.68472 17.7632C6.63506 17.4984 6.5702 17.1083 6.50579 16.593C6.37696 15.5624 6.25 14.0313 6.25 12C6.25 9.96866 6.37696 8.43759 6.50579 7.40698C6.5702 6.8917 6.63506 6.50163 6.68472 6.23679C6.70955 6.10437 6.73058 6.00326 6.74584 5.93348C6.75347 5.89859 6.75967 5.87153 6.76417 5.8523L6.76964 5.82932L6.77137 5.82224L6.77197 5.8198L6.77239 5.8181C6.77244 5.81792 6.77239 5.8181 7.5 6C7.6819 5.2724 7.6817 5.27234 7.6819 5.2724L7.68377 5.27286L7.68638 5.27352L7.69377 5.27542L7.71727 5.28162C7.7368 5.28685 7.76402 5.29431 7.79881 5.30425C7.8684 5.32413 7.96827 5.35393 8.09744 5.3956C8.35579 5.47893 8.73127 5.60974 9.21604 5.80364C10.1857 6.1915 11.5919 6.83158 13.3721 7.84882C15.1656 8.8737 16.3358 9.78028 17.067 10.445C17.4326 10.7774 17.6881 11.0489 17.8567 11.2442C17.941 11.3418 18.0035 11.4202 18.0471 11.4775C18.0689 11.5062 18.0859 11.5295 18.0987 11.5474L18.1145 11.5699L18.12 11.578L18.1222 11.5813L18.1232 11.5827C18.1234 11.583 18.124 11.584 17.5 12C18.124 12.416 18.1238 12.4163 18.1236 12.4167L18.1222 12.4187L18.12 12.422L18.1145 12.4301L18.0987 12.4526C18.0859 12.4705 18.0689 12.4938 18.0471 12.5225C18.0035 12.5798 17.941 12.6583 17.8567 12.7558C17.6881 12.9511 17.4326 13.2226 17.067 13.555C16.3358 14.2197 15.1656 15.1263 13.3721 16.1512C11.5919 17.1684 10.1857 17.8085 9.21604 18.1964C8.73127 18.3903 8.35579 18.5211 8.09744 18.6044C7.96827 18.6461 7.8684 18.6759 7.79881 18.6958C7.76402 18.7057 7.7368 18.7132 7.71727 18.7184L7.69377 18.7246L7.68638 18.7265L7.68377 18.7271L7.68275 18.7274C7.68254 18.7274 7.6819 18.7276 7.5 18ZM7.5 18L7.68275 18.7274C7.2809 18.8279 6.87277 18.5834 6.7723 18.1815L7.5 18ZM17.5 12L18.124 11.584C18.292 11.8359 18.2916 12.1647 18.1236 12.4167L17.5 12Z" fill="black"/>
</svg>
