<svg width="24" height="24" viewBox="0 0 24 24" fill="none" xmlns="http://www.w3.org/2000/svg">
<path fill-rule="evenodd" clip-rule="evenodd" d="M12 3.25C12.4142 3.25 12.75 3.58579 12.75 4V12C12.75 12.4142 12.4142 12.75 12 12.75C11.5858 12.75 11.25 12.4142 11.25 12V4C11.25 3.58579 11.5858 3.25 12 3.25ZM9.67745 7.35181C9.85518 7.72595 9.69596 8.17334 9.32182 8.35108C7.20852 9.355 5.75 11.5079 5.75 14C5.75 17.4518 8.54822 20.25 12 20.25C15.4518 20.25 18.25 17.4518 18.25 14C18.25 11.5079 16.7915 9.355 14.6782 8.35108C14.304 8.17334 14.1448 7.72595 14.3226 7.35181C14.5003 6.97767 14.9477 6.81845 15.3218 6.99618C17.9384 8.23919 19.75 10.9073 19.75 14C19.75 18.2802 16.2802 21.75 12 21.75C7.71979 21.75 4.25 18.2802 4.25 14C4.25 10.9073 6.06159 8.23919 8.67818 6.99618C9.05232 6.81845 9.49971 6.97767 9.67745 7.35181Z" fill="black"/>
</svg>
