<svg width="24" height="24" fill="none" xmlns="http://www.w3.org/2000/svg"><path d="M4.6 5.328a.856.856 0 0 0-.227.254c-.181.328-.391 1.762-.541 3.698-.068.888-.068 4.552 0 5.44.15 1.932.363 3.384.543 3.702.139.247.27.318.578.317.209 0 .305-.022.443-.1.384-.216.409-.362.233-1.359-.259-1.468-.366-3.013-.366-5.28 0-2.267.107-3.812.366-5.28.135-.765.141-.994.027-1.147-.129-.175-.389-.3-.669-.322-.213-.016-.266-.006-.387.077m13.968.012c-1.786.54-5.03 2.151-7.067 3.511C9.711 10.046 8.24 11.466 8.24 12c0 .255.24.604.798 1.162 1.284 1.284 3.058 2.486 5.682 3.85 1.817.945 3.969 1.789 4.428 1.737.454-.051.596-.369.789-1.769.22-1.593.282-2.685.282-4.98 0-2.03-.024-2.597-.162-3.96-.129-1.266-.297-2.224-.432-2.462-.193-.34-.493-.408-1.057-.238m-.093 2.01c.197 1.494.263 2.662.263 4.65 0 1.698-.037 2.565-.159 3.74-.098.941-.147 1.26-.196 1.26-.07 0-1.057-.402-1.663-.678a43.637 43.637 0 0 1-2.76-1.422c-1.579-.907-2.813-1.782-3.663-2.597L9.98 12l.317-.303c1.114-1.069 2.826-2.2 5.083-3.36 1.162-.597 2.786-1.323 2.984-1.334.052-.002.074.068.111.347" fill-rule="evenodd" fill="#000"/></svg>