<svg width="24" height="24" viewBox="0 0 24 24" fill="none" xmlns="http://www.w3.org/2000/svg">
<path fill-rule="evenodd" clip-rule="evenodd" d="M8.85662 4.06264C8.85641 4.06258 8.85926 4.06108 8.86577 4.05831C8.86007 4.06131 8.85682 4.0627 8.85662 4.06264ZM9.01231 4.01231C9.01758 4.01093 9.02299 4.00954 9.02855 4.00813C9.19398 3.96607 9.43283 3.92212 9.73589 3.88259C10.3387 3.80396 11.1394 3.75 12 3.75C12.8606 3.75 13.6613 3.80396 14.2641 3.88259C14.5672 3.92212 14.806 3.96607 14.9715 4.00813C14.977 4.00954 14.9824 4.01093 14.9877 4.01231C14.9891 4.01758 14.9905 4.02299 14.9919 4.02855C15.0339 4.19398 15.0779 4.43283 15.1174 4.73589C15.196 5.33871 15.25 6.13936 15.25 7V8.30502C14.2446 8.27023 13.1423 8.25 12 8.25C10.8577 8.25 9.75541 8.27023 8.75 8.30502V7C8.75 6.13936 8.80396 5.33871 8.88259 4.73589C8.92212 4.43283 8.96607 4.19398 9.00813 4.02855C9.00954 4.02299 9.01094 4.01758 9.01231 4.01231ZM7.25 8.37129V7C7.25 6.08287 7.30715 5.21684 7.39519 4.54188C7.43899 4.20606 7.49227 3.90324 7.55437 3.65895C7.58523 3.53757 7.62193 3.41597 7.66674 3.3057C7.70364 3.21493 7.77695 3.05128 7.91411 2.91411C8.05128 2.77695 8.21493 2.70364 8.3057 2.66674C8.41597 2.62193 8.53757 2.58523 8.65895 2.55437C8.90324 2.49227 9.20606 2.43899 9.54188 2.39519C10.2168 2.30715 11.0829 2.25 12 2.25C12.9171 2.25 13.7832 2.30715 14.4581 2.39519C14.7939 2.43899 15.0968 2.49227 15.341 2.55437C15.4624 2.58523 15.584 2.62193 15.6943 2.66674C15.7851 2.70364 15.9487 2.77695 16.0859 2.91411C16.2231 3.05128 16.2964 3.21493 16.3333 3.3057C16.3781 3.41597 16.4148 3.53757 16.4456 3.65895C16.5077 3.90324 16.561 4.20606 16.6048 4.54188C16.6928 5.21684 16.75 6.08287 16.75 7V8.37129C17.5239 8.41362 18.2051 8.46496 18.7547 8.52188C19.1106 8.55874 19.4201 8.59883 19.6677 8.642C19.8828 8.6795 20.1439 8.73341 20.3354 8.82918C20.6877 9.00535 20.9045 9.35126 21.0357 9.60928C21.1851 9.9031 21.311 10.2628 21.4132 10.6544C21.6184 11.4411 21.75 12.4428 21.75 13.5C21.75 14.5572 21.6184 15.5589 21.4132 16.3456C21.311 16.7372 21.1851 17.0969 21.0357 17.3907C20.9045 17.6487 20.6877 17.9947 20.3354 18.1708C20.179 18.249 19.985 18.2959 19.8417 18.3266C19.6758 18.3622 19.4802 18.3952 19.2732 18.4256C18.8579 18.4867 18.3602 18.5427 17.8871 18.59C17.4644 18.6323 17.0549 18.6682 16.7311 18.6951C16.7069 19.1383 16.6608 19.5501 16.6 19.8993C16.5546 20.1607 16.4979 20.4048 16.429 20.608C16.3948 20.7091 16.3521 20.8161 16.2978 20.9163C16.2506 21.0034 16.1606 21.1504 16.0056 21.2667C15.8666 21.3709 15.7102 21.422 15.6306 21.4462C15.5282 21.4775 15.4137 21.5035 15.2967 21.5258C15.0613 21.5707 14.7659 21.6098 14.4341 21.6423C13.7679 21.7074 12.91 21.75 12 21.75C11.09 21.75 10.2321 21.7074 9.56587 21.6423C9.23414 21.6098 8.93875 21.5707 8.70327 21.5258C8.58634 21.5035 8.47184 21.4775 8.36941 21.4462C8.2898 21.422 8.13344 21.3709 7.99444 21.2667C7.83941 21.1504 7.74936 21.0034 7.70215 20.9163C7.64787 20.8161 7.60522 20.7091 7.57095 20.608C7.50208 20.4048 7.44544 20.1607 7.39998 19.8993C7.33923 19.5501 7.29308 19.1383 7.26889 18.6951C6.94509 18.6682 6.53564 18.6323 6.11287 18.59C5.63978 18.5427 5.14214 18.4867 4.72682 18.4256C4.5198 18.3952 4.32425 18.3622 4.15828 18.3266C4.01499 18.2959 3.82103 18.249 3.66459 18.1708C3.31226 17.9947 3.09547 17.6487 2.96427 17.3907C2.81487 17.0969 2.68896 16.7372 2.58679 16.3456C2.38156 15.5589 2.25 14.5572 2.25 13.5C2.25 12.4428 2.38156 11.4411 2.58679 10.6544C2.68896 10.2628 2.81487 9.9031 2.96427 9.60928C3.09547 9.35126 3.31226 9.00535 3.66459 8.82918C3.85614 8.73341 4.11722 8.6795 4.33229 8.642C4.57992 8.59883 4.88943 8.55874 5.24534 8.52188C5.7949 8.46496 6.4761 8.41362 7.25 8.37129ZM7.27567 17.1904C7.30119 16.7908 7.3445 16.4197 7.39998 16.1007C7.44544 15.8393 7.50208 15.5952 7.57095 15.392C7.60522 15.2909 7.64787 15.1839 7.70215 15.0837C7.74937 14.9966 7.83941 14.8496 7.99444 14.7333C8.13344 14.6291 8.2898 14.578 8.36941 14.5538C8.47184 14.5225 8.58634 14.4965 8.70327 14.4742C8.93875 14.4293 9.23414 14.3902 9.56587 14.3577C10.2321 14.2926 11.09 14.25 12 14.25C12.91 14.25 13.7679 14.2926 14.4341 14.3577C14.7659 14.3902 15.0613 14.4293 15.2967 14.4742C15.4137 14.4965 15.5282 14.5225 15.6306 14.5538C15.7102 14.578 15.8666 14.6291 16.0056 14.7333C16.1606 14.8496 16.2506 14.9966 16.2978 15.0837C16.3521 15.1839 16.3948 15.2909 16.429 15.392C16.4979 15.5952 16.5546 15.8393 16.6 16.1007C16.6555 16.4197 16.6988 16.7908 16.7243 17.1904C17.0209 17.1654 17.3749 17.1338 17.7379 17.0975C18.2023 17.051 18.6734 16.9977 19.0549 16.9416C19.2464 16.9134 19.4063 16.8859 19.5274 16.8599C19.57 16.8508 19.6022 16.843 19.6255 16.8369C19.6421 16.8128 19.6671 16.7729 19.6986 16.7108C19.7836 16.5437 19.8765 16.294 19.9618 15.9669C20.1316 15.3161 20.25 14.4428 20.25 13.5C20.25 12.5572 20.1316 11.6839 19.9618 11.0331C19.8765 10.706 19.7836 10.4563 19.6986 10.2892C19.6674 10.2277 19.6426 10.188 19.626 10.1638C19.5856 10.1539 19.5167 10.1383 19.4101 10.1197C19.21 10.0848 18.9383 10.0489 18.6001 10.0139C17.9255 9.94403 17.0213 9.88121 15.9667 9.8344C14.7865 9.78201 13.4256 9.75 12 9.75C10.5744 9.75 9.21353 9.78201 8.03326 9.8344C6.97866 9.88121 6.07445 9.94403 5.39987 10.0139C5.06168 10.0489 4.79001 10.0848 4.58991 10.1197C4.4833 10.1383 4.41437 10.1539 4.374 10.1638C4.3574 10.188 4.33258 10.2277 4.30135 10.2892C4.21638 10.4563 4.12354 10.706 4.03821 11.0331C3.86844 11.6839 3.75 12.5572 3.75 13.5C3.75 14.4428 3.86844 15.3161 4.03821 15.9669C4.12354 16.294 4.21638 16.5437 4.30135 16.7108C4.3329 16.7729 4.35791 16.8128 4.3745 16.8369C4.39785 16.843 4.42999 16.8508 4.47258 16.8599C4.59372 16.8859 4.75364 16.9134 4.94506 16.9416C5.32661 16.9977 5.79772 17.051 6.26213 17.0975C6.62506 17.1338 6.97911 17.1654 7.27567 17.1904ZM15.1434 4.06264C15.1432 4.0627 15.1399 4.06131 15.1342 4.05831C15.1407 4.06107 15.1436 4.06258 15.1434 4.06264ZM14.9417 3.86577C14.9387 3.86008 14.9373 3.85683 14.9374 3.85662C14.9374 3.85641 14.9389 3.85926 14.9417 3.86577ZM9.05831 3.86577C9.06107 3.85927 9.06258 3.85642 9.06264 3.85662C9.0627 3.85682 9.06132 3.86007 9.05831 3.86577ZM8.7855 15.9959C8.78527 15.9958 8.78817 15.9946 8.79481 15.9924C8.78902 15.9948 8.78573 15.9959 8.7855 15.9959ZM8.96752 15.9509C8.97296 15.9498 8.97853 15.9488 8.98423 15.9477C9.15847 15.9144 9.40475 15.8807 9.71191 15.8506C10.3235 15.7908 11.1323 15.75 12 15.75C12.8677 15.75 13.6765 15.7908 14.2881 15.8506C14.5952 15.8807 14.8415 15.9144 15.0158 15.9477C15.0215 15.9488 15.027 15.9498 15.0325 15.9509C15.0615 16.0519 15.0927 16.1879 15.1222 16.3577C15.1973 16.7895 15.25 17.3711 15.25 18C15.25 18.6289 15.1973 19.2105 15.1222 19.6423C15.0927 19.8121 15.0615 19.9481 15.0325 20.0491C15.027 20.0502 15.0215 20.0513 15.0158 20.0523C14.8415 20.0856 14.5952 20.1193 14.2881 20.1494C13.6765 20.2092 12.8677 20.25 12 20.25C11.1323 20.25 10.3235 20.2092 9.71191 20.1494C9.40475 20.1193 9.15847 20.0856 8.98423 20.0523C8.97853 20.0513 8.97296 20.0502 8.96752 20.0491C8.93849 19.9481 8.90732 19.8121 8.8778 19.6423C8.8027 19.2105 8.75 18.6289 8.75 18C8.75 17.3711 8.8027 16.7895 8.8778 16.3577C8.90732 16.1879 8.93849 16.0519 8.96752 15.9509ZM8.78549 20.0041C8.78569 20.0041 8.78899 20.0052 8.79481 20.0076C8.78821 20.0054 8.7853 20.0042 8.78549 20.0041ZM15.2145 20.0041C15.2147 20.0042 15.2118 20.0054 15.2053 20.0076C15.2111 20.0051 15.2144 20.004 15.2145 20.0041ZM15.2145 15.9959C15.2143 15.9959 15.211 15.9948 15.2052 15.9924C15.2118 15.9946 15.2147 15.9958 15.2145 15.9959Z" fill="black"/>
</svg>
