<svg width="24" height="24" viewBox="0 0 24 24" fill="none" xmlns="http://www.w3.org/2000/svg">
<path fill-rule="evenodd" clip-rule="evenodd" d="M6.5 7.75C4.98122 7.75 3.75 8.98122 3.75 10.5C3.75 12.0188 4.98122 13.25 6.5 13.25C6.69891 13.25 6.88968 13.329 7.03033 13.4697L9.25 15.6893V10.5C9.25 8.98122 8.01878 7.75 6.5 7.75ZM2.25 10.5C2.25 8.15279 4.15279 6.25 6.5 6.25C8.84721 6.25 10.75 8.15279 10.75 10.5V17.5C10.75 17.8033 10.5673 18.0768 10.287 18.1929C10.0068 18.309 9.68417 18.2448 9.46967 18.0303L6.17727 14.7379C3.98082 14.573 2.25 12.7386 2.25 10.5ZM16.5 7.75C14.9812 7.75 13.75 8.98122 13.75 10.5C13.75 12.0188 14.9812 13.25 16.5 13.25C16.6989 13.25 16.8897 13.329 17.0303 13.4697L19.25 15.6893V10.5C19.25 8.98122 18.0188 7.75 16.5 7.75ZM12.25 10.5C12.25 8.15279 14.1528 6.25 16.5 6.25C18.8472 6.25 20.75 8.15279 20.75 10.5V17.5C20.75 17.8033 20.5673 18.0768 20.287 18.1929C20.0068 18.309 19.6842 18.2448 19.4697 18.0303L16.1773 14.7379C13.9808 14.573 12.25 12.7386 12.25 10.5Z" fill="black"/>
</svg>
