<svg width="24" height="24" viewBox="0 0 24 24" fill="none" xmlns="http://www.w3.org/2000/svg">
<path fill-rule="evenodd" clip-rule="evenodd" d="M12 3.75C7.44365 3.75 3.75 7.44365 3.75 12C3.75 16.5563 7.44365 20.25 12 20.25C16.5563 20.25 20.25 16.5563 20.25 12C20.25 7.44365 16.5563 3.75 12 3.75ZM2.25 12C2.25 6.61522 6.61522 2.25 12 2.25C17.3848 2.25 21.75 6.61522 21.75 12C21.75 17.3848 17.3848 21.75 12 21.75C6.61522 21.75 2.25 17.3848 2.25 12ZM17 9.25C17.4142 9.25 17.75 9.58579 17.75 10V12.8148C17.75 12.8175 17.75 12.8203 17.75 12.8231V13C17.75 13.4142 17.4142 13.75 17 13.75H14C13.5858 13.75 13.25 13.4142 13.25 13C13.25 12.5858 13.5858 12.25 14 12.25H15.2064C14.3086 11.4994 13.4656 10.9382 12.3991 10.7926C11.4323 10.6606 10.4486 10.8374 9.59692 11.2942C8.74558 11.7509 8.07467 12.4612 7.68098 13.3143C7.50741 13.6904 7.06183 13.8545 6.68573 13.681C6.30963 13.5074 6.14545 13.0618 6.31902 12.6857C6.85193 11.531 7.75501 10.5801 8.88789 9.97238C10.0205 9.36487 11.3237 9.13186 12.602 9.30638C14.075 9.50747 15.2389 10.3099 16.25 11.1616V10C16.25 9.58579 16.5858 9.25 17 9.25Z" fill="black"/>
</svg>
