<svg width="24" height="24" viewBox="0 0 24 24" fill="none" xmlns="http://www.w3.org/2000/svg">
<path fill-rule="evenodd" clip-rule="evenodd" d="M3 2.25C3.41421 2.25 3.75 2.58579 3.75 3V7.29373C5.64106 5.55445 7.74514 3.75248 10.6408 3.3451C12.7342 3.0506 14.8666 3.44435 16.7167 4.46704C18.5668 5.48973 20.0344 7.08596 20.8984 9.01523C21.0677 9.39326 20.8985 9.83697 20.5205 10.0063C20.1424 10.1756 19.6987 10.0063 19.5294 9.6283C18.7984 7.99586 17.5565 6.64519 15.991 5.77983C14.4255 4.91446 12.6212 4.58127 10.8498 4.83047C8.47863 5.16406 6.75813 6.58744 4.93366 8.25H9C9.41421 8.25 9.75 8.58579 9.75 9C9.75 9.41421 9.41421 9.75 9 9.75H3C2.58579 9.75 2.25 9.41421 2.25 9V3C2.25 2.58579 2.58579 2.25 3 2.25ZM3.4795 13.9937C3.85754 13.8244 4.30124 13.9936 4.47054 14.3717C5.2016 16.0041 6.44343 17.3548 8.00894 18.2202C9.57445 19.0855 11.3788 19.4187 13.1502 19.1695C15.5214 18.8359 17.2419 17.4126 19.0663 15.75H15C14.5858 15.75 14.25 15.4142 14.25 15C14.25 14.5858 14.5858 14.25 15 14.25H21C21.4142 14.25 21.75 14.5858 21.75 15V21C21.75 21.4142 21.4142 21.75 21 21.75C20.5858 21.75 20.25 21.4142 20.25 21V16.7063C18.3589 18.4455 16.2548 20.2475 13.3591 20.6549C11.2658 20.9494 9.13338 20.5556 7.28327 19.5329C5.43315 18.5103 3.96553 16.914 3.10155 14.9848C2.93225 14.6067 3.10147 14.163 3.4795 13.9937Z" fill="black"/>
</svg>
