<svg width="24" height="24" viewBox="0 0 24 24" fill="none" xmlns="http://www.w3.org/2000/svg">
<path fill-rule="evenodd" clip-rule="evenodd" d="M12 3.75C7.44365 3.75 3.75 7.44365 3.75 12C3.75 16.5563 7.44365 20.25 12 20.25C16.5563 20.25 20.25 16.5563 20.25 12C20.25 7.44365 16.5563 3.75 12 3.75ZM2.25 12C2.25 6.61522 6.61522 2.25 12 2.25C17.3848 2.25 21.75 6.61522 21.75 12C21.75 17.3848 17.3848 21.75 12 21.75C6.61522 21.75 2.25 17.3848 2.25 12ZM8.46967 9.46967L11.4697 6.46967C11.7626 6.17678 12.2374 6.17678 12.5303 6.46967L15.5303 9.46967C15.8232 9.76256 15.8232 10.2374 15.5303 10.5303C15.2374 10.8232 14.7626 10.8232 14.4697 10.5303L12 8.06066L9.53033 10.5303C9.23744 10.8232 8.76256 10.8232 8.46967 10.5303C8.17678 10.2374 8.17678 9.76256 8.46967 9.46967ZM8.46967 13.4697C8.76256 13.1768 9.23744 13.1768 9.53033 13.4697L12 15.9393L14.4697 13.4697C14.7626 13.1768 15.2374 13.1768 15.5303 13.4697C15.8232 13.7626 15.8232 14.2374 15.5303 14.5303L12.5303 17.5303C12.2374 17.8232 11.7626 17.8232 11.4697 17.5303L8.46967 14.5303C8.17678 14.2374 8.17678 13.7626 8.46967 13.4697Z" fill="black"/>
</svg>
