<svg width="24" height="24" viewBox="0 0 24 24" fill="none" xmlns="http://www.w3.org/2000/svg">
<path fill-rule="evenodd" clip-rule="evenodd" d="M20.2276 5.8181L19.5 6C20.2276 5.8181 20.2276 5.81792 20.2276 5.8181L20.228 5.8198L20.2286 5.82224L20.2304 5.82932L20.2358 5.8523C20.2403 5.87153 20.2465 5.89859 20.2542 5.93348C20.2694 6.00326 20.2905 6.10437 20.3153 6.23679C20.3649 6.50163 20.4298 6.8917 20.4942 7.40698C20.623 8.43759 20.75 9.96866 20.75 12C20.75 14.0313 20.623 15.5624 20.4942 16.593C20.4298 17.1083 20.3649 17.4984 20.3153 17.7632C20.2905 17.8956 20.2694 17.9967 20.2542 18.0665C20.2465 18.1014 20.2403 18.1285 20.2358 18.1477L20.2304 18.1707L20.2286 18.1778L20.228 18.1802L20.2277 18.1815C20.2277 18.1817 20.2276 18.1819 19.5 18L20.2277 18.1815C20.1795 18.3745 20.0564 18.5408 19.8859 18.6431C19.7153 18.7455 19.5111 18.7759 19.3181 18.7276C17.7205 18.3282 15.9673 17.5853 14.4808 16.6985C14.4412 17.0046 14.4018 17.2635 14.3664 17.475C14.3284 17.7012 14.2949 17.8732 14.2703 17.9911C14.258 18.05 14.2479 18.0953 14.2406 18.1272L14.2318 18.1647L14.2291 18.1758L14.2282 18.1795L14.2279 18.1809C14.2278 18.181 14.2276 18.1819 13.5 18C13.3181 18.7276 13.3179 18.7276 13.3177 18.7275L13.3162 18.7271L13.3136 18.7265L13.3062 18.7246L13.2827 18.7184C13.2632 18.7132 13.236 18.7057 13.2012 18.6958C13.1316 18.6759 13.0317 18.6461 12.9026 18.6044C12.6442 18.5211 12.2687 18.3903 11.784 18.1964C10.8143 17.8085 9.40806 17.1684 7.6279 16.1512C5.83436 15.1263 4.66424 14.2197 3.933 13.555C3.56744 13.2226 3.31192 12.9511 3.14332 12.7558C3.05904 12.6583 2.99655 12.5798 2.95294 12.5225C2.93114 12.4938 2.91406 12.4705 2.90135 12.4526L2.88552 12.4301L2.87997 12.422L2.87778 12.4187L2.87683 12.4173C2.87662 12.417 2.87597 12.416 3.5 12C2.87597 11.584 2.87617 11.5837 2.87639 11.5833L2.87778 11.5813L2.87997 11.578L2.88552 11.5699L2.90135 11.5474C2.91406 11.5295 2.93114 11.5062 2.95294 11.4775C2.99655 11.4202 3.05904 11.3418 3.14333 11.2442C3.31192 11.0489 3.56744 10.7774 3.933 10.445C4.66424 9.78028 5.83436 8.8737 7.6279 7.84882C9.40806 6.83158 10.8143 6.1915 11.784 5.80364C12.2687 5.60974 12.6442 5.47893 12.9026 5.3956C13.0317 5.35393 13.1316 5.32413 13.2012 5.30425C13.236 5.29431 13.2632 5.28685 13.2827 5.28162L13.3062 5.27542L13.3136 5.27352L13.3162 5.27286L13.3173 5.27261C13.3175 5.27256 13.3181 5.2724 13.5 6C14.2276 5.8181 14.2276 5.81822 14.2277 5.81833L14.2282 5.82049L14.2291 5.82414L14.2318 5.83522L14.2405 5.87254C14.2478 5.90415 14.2578 5.94922 14.27 6.00777C14.2945 6.12485 14.3278 6.29579 14.3656 6.52056C14.4034 6.74567 14.4457 7.02474 14.488 7.35779C15.9745 6.52374 17.6158 5.69796 19.3181 5.2724C19.7199 5.17193 20.1271 5.41625 20.2276 5.8181ZM14.6479 8.99239C14.708 9.82956 14.75 10.8321 14.75 12C14.75 13.1787 14.7073 14.1891 14.6462 15.0309C15.8922 15.8586 17.4468 16.5958 18.9148 17.0558C18.9436 16.8725 18.9746 16.6562 19.0058 16.407C19.127 15.4376 19.25 13.9687 19.25 12C19.25 10.0313 19.127 8.56241 19.0058 7.59303C18.9749 7.34624 18.9442 7.1318 18.9157 6.94971C17.4634 7.42613 16.0338 8.19679 14.6479 8.99239ZM13.5 6L14.2277 5.81833C14.1794 5.62536 14.0564 5.45922 13.8859 5.35688C13.7153 5.25454 13.5102 5.22436 13.3173 5.27261L13.5 6ZM12.9197 6.97548C12.7529 7.03583 12.5598 7.10887 12.341 7.19636C11.4357 7.55851 10.0919 8.16842 8.37211 9.15118C6.66565 10.1263 5.58577 10.9697 4.94201 11.555C4.75343 11.7264 4.60214 11.8758 4.48338 12C4.60214 12.1242 4.75343 12.2736 4.94201 12.445C5.58577 13.0303 6.66565 13.8737 8.37211 14.8488C10.0919 15.8316 11.4357 16.4415 12.341 16.8036C12.5598 16.8911 12.7529 16.9642 12.9197 17.0245C12.9827 16.6185 13.0558 16.0569 13.1172 15.3395C13.1924 14.4604 13.25 13.3472 13.25 12C13.25 10.6442 13.1916 9.52548 13.1157 8.64372C13.0547 7.9344 12.9823 7.37833 12.9197 6.97548ZM3.5 12L2.87639 11.5833C2.70844 11.8353 2.70802 12.1641 2.87597 12.416L3.5 12ZM13.5 18L13.3177 18.7275C13.5107 18.7758 13.7153 18.7455 13.8859 18.6431C14.0564 18.5408 14.1794 18.3749 14.2276 18.1819L13.5 18Z" fill="black"/>
</svg>
