<svg width="24" height="24" viewBox="0 0 24 24" fill="none" xmlns="http://www.w3.org/2000/svg">
<path fill-rule="evenodd" clip-rule="evenodd" d="M21 1.25C21.4142 1.25 21.75 1.58579 21.75 2V8C21.75 8.41421 21.4142 8.75 21 8.75H15C14.5858 8.75 14.25 8.41421 14.25 8C14.25 7.58579 14.5858 7.25 15 7.25H19.0663C17.2418 5.58745 15.5213 4.16406 13.1501 3.83047C11.3788 3.58127 9.57442 3.91446 8.00891 4.77983C6.44341 5.64519 5.20157 6.99586 4.47051 8.6283C3.73945 10.2607 3.55877 12.0865 3.95568 13.8306C4.35259 15.5746 5.3056 17.1425 6.67112 18.2979C8.03665 19.4532 9.74071 20.1336 11.5266 20.2364C13.3124 20.3391 15.0833 19.8588 16.5724 18.8677C18.0614 17.8766 19.188 16.4284 19.7824 14.7414C19.9201 14.3507 20.3484 14.1456 20.7391 14.2833C21.1297 14.4209 21.3348 14.8492 21.1972 15.2399C20.4947 17.2336 19.1633 18.9451 17.4035 20.1164C15.6437 21.2877 13.5509 21.8553 11.4404 21.7339C9.32988 21.6124 7.31603 20.8084 5.70224 19.443C4.08845 18.0775 2.96216 16.2246 2.49308 14.1635C2.024 12.1023 2.23754 9.94449 3.10152 8.01523C3.96551 6.08596 5.43313 4.48973 7.28324 3.46704C9.13336 2.44435 11.2657 2.0506 13.3591 2.3451C16.2548 2.75248 18.3589 4.55447 20.25 6.29374V2C20.25 1.58579 20.5858 1.25 21 1.25Z" fill="black"/>
</svg>
