<svg width="24" height="24" viewBox="0 0 24 24" fill="none" xmlns="http://www.w3.org/2000/svg">
<path fill-rule="evenodd" clip-rule="evenodd" d="M16 6.25C16.4142 6.25 16.75 6.58579 16.75 7V10C16.75 10.4142 16.4142 10.75 16 10.75H13C12.5858 10.75 12.25 10.4142 12.25 10C12.25 9.58579 12.5858 9.25 13 9.25H13.6872C13.2793 9.00726 12.8809 8.84188 12.4531 8.7817C11.7553 8.68353 11.0445 8.81479 10.4278 9.1557C9.81104 9.4966 9.32183 10.0287 9.03384 10.6718C8.74585 11.3148 8.67467 12.0341 8.83103 12.7211C8.98738 13.4082 9.36281 14.0258 9.90075 14.481C10.4387 14.9361 11.11 15.2041 11.8135 15.2446C12.5171 15.2851 13.2147 15.0959 13.8013 14.7054C14.3879 14.315 14.8317 13.7445 15.0659 13.0799C15.2035 12.6893 15.6318 12.4842 16.0225 12.6218C16.4132 12.7595 16.6183 13.1877 16.4807 13.5784C16.1384 14.5497 15.4898 15.3835 14.6324 15.9541C13.7751 16.5248 12.7555 16.8013 11.7273 16.7422C10.6992 16.683 9.71807 16.2913 8.93187 15.6261C8.14566 14.9609 7.59695 14.0582 7.36842 13.054C7.13989 12.0498 7.24393 10.9986 7.66485 10.0587C8.08576 9.11879 8.80076 8.34114 9.70209 7.84291C10.6034 7.34468 11.6423 7.15286 12.6621 7.29633C13.5015 7.41442 14.2003 7.7791 14.8011 8.18035C14.9546 8.28287 15.1044 8.38968 15.25 8.49706V7C15.25 6.58579 15.5858 6.25 16 6.25Z" fill="black"/>
</svg>
