<svg width="24" height="24" viewBox="0 0 24 24" fill="none" xmlns="http://www.w3.org/2000/svg">
<path fill-rule="evenodd" clip-rule="evenodd" d="M5.42996 5.42996C5.42628 5.43837 5.42225 5.44789 5.41789 5.45862C5.38068 5.55018 5.33664 5.68639 5.28938 5.8723C5.19523 6.24259 5.10267 6.75228 5.02148 7.37478C4.85952 8.61649 4.75 10.2505 4.75 12C4.75 13.7495 4.85952 15.3835 5.02148 16.6252C5.10267 17.2477 5.19523 17.7574 5.28938 18.1277C5.33664 18.3136 5.38068 18.4498 5.41789 18.5414C5.42222 18.552 5.42622 18.5615 5.42988 18.5698C5.46186 18.5838 5.51356 18.6046 5.59135 18.6302C5.77965 18.692 6.0458 18.7581 6.3874 18.8233C6.89002 18.9191 7.52313 19.0068 8.25 19.0774V18H9C8.25 18 8.25 18.0004 8.25 18L8.25 17.9984L8.25001 17.9965L8.25004 17.9919L8.25019 17.9793C8.25035 17.9695 8.25063 17.9567 8.25115 17.9413C8.25218 17.9105 8.25411 17.8688 8.25777 17.8177C8.26505 17.7157 8.27925 17.5749 8.30708 17.408C8.36214 17.0776 8.47366 16.6256 8.70418 16.1646C8.93617 15.7006 9.29592 15.2138 9.8496 14.8447C10.408 14.4725 11.1188 14.25 12 14.25C12.8812 14.25 13.592 14.4725 14.1504 14.8447C14.7041 15.2138 15.0638 15.7006 15.2958 16.1646C15.5263 16.6256 15.6379 17.0776 15.6929 17.408C15.7207 17.5749 15.735 17.7157 15.7422 17.8177C15.7459 17.8688 15.7478 17.9105 15.7489 17.9413C15.7494 17.9567 15.7497 17.9695 15.7498 17.9793L15.75 17.9919L15.75 17.9965L15.75 17.9984C15.75 17.9988 15.75 18 15 18H15.75V19.0774C16.4769 19.0068 17.11 18.9191 17.6126 18.8233C17.9542 18.7581 18.2203 18.692 18.4086 18.6302C18.4864 18.6046 18.5381 18.5838 18.5701 18.5698C18.5738 18.5615 18.5778 18.552 18.5821 18.5414C18.6193 18.4498 18.6634 18.3136 18.7106 18.1277C18.8048 17.7574 18.8973 17.2477 18.9785 16.6252C19.1405 15.3835 19.25 13.7495 19.25 12C19.25 11.3882 19.213 10.4596 19.1824 9.79848C19.1683 9.49604 19.0404 9.20761 18.8223 8.98947L15.0105 5.17773C14.7924 4.95958 14.504 4.83165 14.2015 4.81764C13.5404 4.78701 12.6118 4.75 12 4.75C10.2505 4.75 8.61649 4.85952 7.37478 5.02148C6.75228 5.10267 6.24259 5.19523 5.8723 5.28938C5.68639 5.33664 5.55018 5.38068 5.45862 5.41789C5.44789 5.42225 5.43837 5.42628 5.42996 5.42996ZM14.25 19.1896V18.0033L14.2497 17.9913C14.2492 17.9782 14.2483 17.9554 14.246 17.9245C14.2416 17.8624 14.2324 17.7688 14.2133 17.6545C14.1746 17.4224 14.0987 17.1244 13.9542 16.8354C13.8112 16.5494 13.6084 16.2862 13.3183 16.0928C13.033 15.9025 12.6188 15.75 12 15.75C11.3812 15.75 10.967 15.9025 10.6817 16.0928C10.3916 16.2862 10.1888 16.5494 10.0458 16.8354C9.90134 17.1244 9.82536 17.4224 9.78667 17.6545C9.76762 17.7688 9.75839 17.8624 9.75395 17.9245C9.75174 17.9554 9.75075 17.9782 9.75032 17.9913L9.75 18.0033V19.1896C10.4613 19.2282 11.2196 19.25 12 19.25C12.7804 19.25 13.5387 19.2282 14.25 19.1896ZM7.18077 3.53408C8.49462 3.36271 10.194 3.25 12 3.25C12.6509 3.25 13.6118 3.28871 14.2709 3.31925C14.9525 3.35082 15.5928 3.63867 16.0712 4.11707L19.8829 7.92881C20.3613 8.40721 20.6492 9.04749 20.6808 9.72906C20.7113 10.3882 20.75 11.3491 20.75 12C20.75 13.806 20.6373 15.5054 20.4659 16.8192C20.3805 17.4745 20.2786 18.0481 20.1644 18.4973C20.1075 18.7211 20.0439 18.9287 19.9717 19.1062C19.9075 19.2642 19.8064 19.4765 19.6414 19.6414C19.4257 19.8572 19.1093 19.9789 18.8765 20.0553C18.6041 20.1448 18.2693 20.2251 17.8936 20.2967C17.1395 20.4405 16.1594 20.561 15.0545 20.6415C14.1149 20.7099 13.0771 20.75 12 20.75C10.9229 20.75 9.88513 20.7099 8.94552 20.6415C7.84065 20.561 6.86052 20.4405 6.10636 20.2967C5.73073 20.2251 5.39589 20.1448 5.12351 20.0553C4.89073 19.9789 4.57434 19.8572 4.35856 19.6414C4.19361 19.4765 4.09253 19.2642 4.02829 19.1062C3.95613 18.9287 3.89252 18.7211 3.83562 18.4973C3.72143 18.0481 3.61955 17.4745 3.53408 16.8192C3.36271 15.5054 3.25 13.806 3.25 12C3.25 10.194 3.36271 8.49462 3.53408 7.18077C3.61955 6.5255 3.72143 5.95185 3.83562 5.5027C3.89252 5.27889 3.95613 5.07135 4.02829 4.89381C4.09253 4.73577 4.19361 4.5235 4.35856 4.35856C4.5235 4.19361 4.73577 4.09253 4.89381 4.02829C5.07135 3.95613 5.27889 3.89252 5.5027 3.83562C5.95185 3.72143 6.5255 3.61955 7.18077 3.53408Z" fill="black"/>
</svg>
