<svg width="24" height="24" viewBox="0 0 24 24" fill="none" xmlns="http://www.w3.org/2000/svg">
<path fill-rule="evenodd" clip-rule="evenodd" d="M2.46967 2.46967C2.76256 2.17678 3.23744 2.17678 3.53033 2.46967L21.5303 20.4697C21.8232 20.7626 21.8232 21.2374 21.5303 21.5303C21.2374 21.8232 20.7626 21.8232 20.4697 21.5303L2.46967 3.53033C2.17678 3.23744 2.17678 2.76256 2.46967 2.46967ZM12 4.25C10.9612 4.25 9.95684 4.27272 9.03194 4.31214C8.6181 4.32977 8.26832 4.00859 8.25068 3.59475C8.23304 3.18092 8.55423 2.83113 8.96806 2.8135C9.91412 2.77317 10.9398 2.75 12 2.75C14.0188 2.75 15.9157 2.83404 17.3775 2.96115C18.1071 3.0246 18.7385 3.09964 19.2269 3.18242C19.4703 3.22368 19.6895 3.26873 19.8729 3.31842C20.0332 3.36186 20.2449 3.42856 20.416 3.54263C20.6344 3.6882 20.7683 3.90168 20.8473 4.04885C20.9367 4.21531 21.013 4.40793 21.0792 4.60815C21.2124 5.01052 21.3293 5.51885 21.4265 6.08043C21.6215 7.2072 21.75 8.62502 21.75 10C21.75 11.6918 21.5553 13.458 21.2774 14.6679C21.1846 15.0716 20.7822 15.3237 20.3785 15.231C19.9748 15.1382 19.7227 14.7358 19.8154 14.3321C20.064 13.2503 20.25 11.5989 20.25 10C20.25 8.70831 20.1285 7.37614 19.9485 6.33624C19.8582 5.81448 19.7564 5.38531 19.6552 5.07935C19.6103 4.94384 19.5702 4.84683 19.5383 4.78276C19.5222 4.77786 19.5031 4.77231 19.4806 4.76621C19.3612 4.73387 19.1937 4.6982 18.9762 4.66133C18.5428 4.58786 17.9554 4.51706 17.2475 4.45551C15.8343 4.33263 13.9812 4.25 12 4.25ZM3.0977 7.75155C3.51105 7.77821 3.82454 8.1349 3.79788 8.54826C3.76698 9.02756 3.75 9.51728 3.75 10C3.75 11.293 3.87175 12.7546 4.05363 13.9267C4.14481 14.5142 4.24823 15.0102 4.35271 15.3678C4.39515 15.513 4.43408 15.6225 4.46699 15.7C4.57886 15.7196 4.73789 15.7374 4.94917 15.7517C5.38328 15.7811 5.97136 15.7917 6.6875 15.7917C7.34247 15.7917 8.08976 15.7829 8.90474 15.7734C8.97733 15.7726 9.05047 15.7717 9.12412 15.7709C10.0226 15.7605 10.9952 15.75 12 15.75C12.4142 15.75 12.75 16.0858 12.75 16.5V19.75H16C16.4142 19.75 16.75 20.0858 16.75 20.5C16.75 20.9142 16.4142 21.25 16 21.25H8C7.58579 21.25 7.25 20.9142 7.25 20.5C7.25 20.0858 7.58579 19.75 8 19.75H11.25V17.2518C10.5201 17.2553 9.81227 17.263 9.14151 17.2708C9.0673 17.2716 8.99353 17.2725 8.92021 17.2734C8.10789 17.2828 7.35173 17.2917 6.6875 17.2917C5.96614 17.2917 5.33547 17.2814 4.84771 17.2483C4.6047 17.2318 4.38031 17.2086 4.18992 17.1743C4.02953 17.1453 3.78529 17.0916 3.58398 16.9574C3.34312 16.7968 3.20857 16.5479 3.13725 16.3993C3.05126 16.22 2.97743 16.0093 2.91292 15.7885C2.78302 15.344 2.66769 14.7774 2.57137 14.1567C2.37825 12.9121 2.25 11.3736 2.25 10C2.25 9.48272 2.26818 8.96072 2.30099 8.45174C2.32764 8.03839 2.68434 7.7249 3.0977 7.75155Z" fill="black"/>
</svg>
