<svg width="24" height="24" viewBox="0 0 24 24" fill="none" xmlns="http://www.w3.org/2000/svg">
<path fill-rule="evenodd" clip-rule="evenodd" d="M4.46169 4.78277C4.42976 4.84683 4.38968 4.94384 4.34485 5.07935C4.24361 5.38531 4.14182 5.81448 4.05151 6.33624C3.87153 7.37614 3.75 8.70831 3.75 10C3.75 11.2917 3.87153 12.6239 4.05151 13.6638C4.14182 14.1855 4.24361 14.6147 4.34485 14.9207C4.38968 15.0562 4.42976 15.1532 4.46169 15.2172C4.47776 15.2221 4.49689 15.2277 4.51939 15.2338C4.63876 15.2661 4.80626 15.3018 5.02377 15.3387C5.45723 15.4121 6.04464 15.4829 6.75247 15.5445C8.16565 15.6674 10.0188 15.75 12 15.75C13.9812 15.75 15.8343 15.6674 17.2475 15.5445C17.9554 15.4829 18.5428 15.4121 18.9762 15.3387C19.1937 15.3018 19.3612 15.2661 19.4806 15.2338C19.5031 15.2277 19.5222 15.2221 19.5383 15.2172C19.5702 15.1532 19.6103 15.0562 19.6552 14.9207C19.7564 14.6147 19.8582 14.1855 19.9485 13.6638C20.1285 12.6239 20.25 11.2917 20.25 10C20.25 8.70831 20.1285 7.37614 19.9485 6.33624C19.8582 5.81448 19.7564 5.38531 19.6552 5.07935C19.6103 4.94384 19.5702 4.84683 19.5383 4.78276C19.5222 4.77786 19.5031 4.77231 19.4806 4.76621C19.3612 4.73387 19.1937 4.6982 18.9762 4.66133C18.5428 4.58786 17.9554 4.51706 17.2475 4.45551C15.8343 4.33263 13.9812 4.25 12 4.25C10.0188 4.25 8.16565 4.33263 6.75247 4.45551C6.04464 4.51706 5.45723 4.58786 5.02377 4.66133C4.80626 4.6982 4.63876 4.73387 4.51939 4.76621C4.49689 4.77231 4.47776 4.77786 4.46169 4.78277ZM6.62253 2.96115C8.08435 2.83404 9.98122 2.75 12 2.75C14.0188 2.75 15.9157 2.83404 17.3775 2.96115C18.1071 3.0246 18.7385 3.09964 19.2269 3.18242C19.4703 3.22368 19.6895 3.26873 19.8729 3.31842C20.0332 3.36185 20.2449 3.42856 20.416 3.54263C20.6344 3.6882 20.7683 3.90168 20.8473 4.04885C20.9367 4.21531 21.013 4.40793 21.0792 4.60815C21.2124 5.01052 21.3293 5.51885 21.4265 6.08043C21.6215 7.2072 21.75 8.62502 21.75 10C21.75 11.375 21.6215 12.7928 21.4265 13.9196C21.3293 14.4811 21.2124 14.9895 21.0792 15.3918C21.013 15.5921 20.9367 15.7847 20.8473 15.9511C20.7683 16.0983 20.6344 16.3118 20.416 16.4574C20.2449 16.5714 20.0332 16.6381 19.8729 16.6816C19.6895 16.7313 19.4703 16.7763 19.2269 16.8176C18.7385 16.9004 18.1071 16.9754 17.3775 17.0388C16.0982 17.1501 14.4858 17.2283 12.75 17.2461V19.75H16C16.4142 19.75 16.75 20.0858 16.75 20.5C16.75 20.9142 16.4142 21.25 16 21.25H8C7.58579 21.25 7.25 20.9142 7.25 20.5C7.25 20.0858 7.58579 19.75 8 19.75H11.25V17.2461C9.51424 17.2283 7.9018 17.1501 6.62253 17.0388C5.89286 16.9754 5.26152 16.9004 4.77311 16.8176C4.52968 16.7763 4.31046 16.7313 4.12709 16.6816C3.9668 16.6381 3.75509 16.5714 3.58398 16.4574C3.36562 16.3118 3.23172 16.0983 3.1527 15.9511C3.06333 15.7847 2.98703 15.5921 2.92078 15.3918C2.78764 14.9895 2.67068 14.4811 2.57349 13.9196C2.37847 12.7928 2.25 11.375 2.25 10C2.25 8.62502 2.37847 7.2072 2.57349 6.08043C2.67068 5.51885 2.78764 5.01052 2.92078 4.60815C2.98703 4.40793 3.06333 4.21531 3.1527 4.04885C3.23172 3.90168 3.36562 3.6882 3.58397 3.54263C3.75508 3.42856 3.9668 3.36185 4.12709 3.31842C4.31046 3.26873 4.52968 3.22368 4.77311 3.18242C5.26152 3.09964 5.89286 3.0246 6.62253 2.96115Z" fill="black"/>
</svg>
