<svg width="24" height="24" viewBox="0 0 24 24" fill="none" xmlns="http://www.w3.org/2000/svg">
<path fill-rule="evenodd" clip-rule="evenodd" d="M10.5 3.75C6.77208 3.75 3.75 6.77208 3.75 10.5C3.75 14.2279 6.77208 17.25 10.5 17.25C12.3633 17.25 14.0503 16.495 15.2717 15.2743C15.2721 15.2738 15.2725 15.2734 15.273 15.273C15.2735 15.2724 15.2741 15.2718 15.2747 15.2713C16.4952 14.0499 17.25 12.3631 17.25 10.5C17.25 6.77208 14.2279 3.75 10.5 3.75ZM16.8399 15.7793C18.0325 14.3487 18.75 12.5081 18.75 10.5C18.75 5.94365 15.0563 2.25 10.5 2.25C5.94365 2.25 2.25 5.94365 2.25 10.5C2.25 15.0563 5.94365 18.75 10.5 18.75C12.5081 18.75 14.3487 18.0325 15.7793 16.84L19.4697 20.5303C19.7625 20.8232 20.2374 20.8232 20.5303 20.5303C20.8232 20.2374 20.8232 19.7626 20.5303 19.4697L16.8399 15.7793Z" fill="black"/>
</svg>
