<svg width="24" height="24" viewBox="0 0 24 24" fill="none" xmlns="http://www.w3.org/2000/svg">
<path fill-rule="evenodd" clip-rule="evenodd" d="M20.7276 4.1819L20 4L19.8181 3.27239C20.0737 3.2085 20.344 3.28339 20.5303 3.46967C20.7166 3.65596 20.7915 3.92632 20.7276 4.1819ZM9.42882 14.5712L4.40135 12.4166C3.13853 11.8753 2.94461 10.1133 4.21313 9.39806C5.60187 8.61502 7.83336 7.45888 10.7215 6.30364C13.2447 5.29436 15.5147 4.53771 17.1544 4.03317C17.9746 3.7808 18.638 3.59126 19.0974 3.46451C19.3272 3.40113 19.506 3.35343 19.6281 3.32142C19.6891 3.30541 19.7359 3.29332 19.7679 3.28515L19.8044 3.27583L19.8142 3.27338L19.8181 3.27239C19.8182 3.27237 19.8181 3.27239 20 4C20.7276 4.1819 20.7276 4.18181 20.7276 4.1819L20.7242 4.19556L20.7149 4.23215C20.7067 4.26406 20.6946 4.3109 20.6786 4.37193C20.6466 4.49398 20.5989 4.67282 20.5355 4.90257C20.4087 5.36204 20.2192 6.02537 19.9668 6.84557C19.4623 8.48534 18.7056 10.7553 17.6964 13.2785C16.5411 16.1666 15.385 18.3981 14.6019 19.7869C13.8867 21.0554 12.1247 20.8615 11.5835 19.5987L9.42882 14.5712ZM10.8894 14.1713L12.9622 19.0078C13.0046 19.1068 13.0755 19.1416 13.1361 19.146C13.1683 19.1483 13.1968 19.1418 13.2197 19.1298C13.2401 19.1192 13.2682 19.0982 13.2953 19.0501C14.0516 17.7089 15.1772 15.5377 16.3036 12.7215C17.2583 10.3347 17.9833 8.17716 18.4781 6.58252L10.8894 14.1713ZM9.82872 13.1106L17.4175 5.52186C15.8228 6.01667 13.6653 6.74167 11.2785 7.69636C8.46233 8.82285 6.29107 9.94843 4.94986 10.7047C4.90182 10.7318 4.88082 10.7599 4.87018 10.7803C4.85824 10.8032 4.85171 10.8317 4.85405 10.8639C4.85845 10.9245 4.89324 10.9954 4.99223 11.0378L9.82872 13.1106Z" fill="black"/>
</svg>
