<svg width="24" height="24" viewBox="0 0 24 24" fill="none" xmlns="http://www.w3.org/2000/svg">
<path fill-rule="evenodd" clip-rule="evenodd" d="M11.4697 2.46967C11.7626 2.17678 12.2374 2.17678 12.5303 2.46967L16.5303 6.46967C16.8232 6.76256 16.8232 7.23744 16.5303 7.53033C16.2374 7.82322 15.7626 7.82322 15.4697 7.53033L12.75 4.81066L12.75 15C12.75 15.4142 12.4142 15.75 12 15.75C11.5858 15.75 11.25 15.4142 11.25 15L11.25 4.81066L8.53033 7.53033C8.23744 7.82322 7.76256 7.82322 7.46967 7.53033C7.17678 7.23744 7.17678 6.76256 7.46967 6.46967L11.4697 2.46967ZM4 12.25C4.41421 12.25 4.75 12.5858 4.75 13V17.5C4.75 18.0809 4.93116 18.4501 5.20982 18.7205C5.51273 19.0145 5.99251 19.25 6.6786 19.4182C8.03362 19.7505 9.86367 19.7502 11.8421 19.75C11.8947 19.75 11.9473 19.75 12 19.75C12.0527 19.75 12.1053 19.75 12.1579 19.75C14.1363 19.7502 15.9664 19.7505 17.3214 19.4182C18.0075 19.25 18.4873 19.0145 18.7902 18.7205C19.0688 18.4501 19.25 18.0809 19.25 17.5V13C19.25 12.5858 19.5858 12.25 20 12.25C20.4142 12.25 20.75 12.5858 20.75 13V17.5C20.75 18.4479 20.4312 19.2182 19.8348 19.797C19.2627 20.3522 18.4925 20.6755 17.6786 20.8751C16.1421 21.2518 14.1501 21.2509 12.2659 21.2501C12.177 21.25 12.0883 21.25 12 21.25C11.9117 21.25 11.823 21.25 11.7341 21.2501C9.8499 21.2509 7.85793 21.2518 6.3214 20.8751C5.50749 20.6755 4.73727 20.3522 4.16518 19.797C3.56884 19.2182 3.25 18.4479 3.25 17.5V13C3.25 12.5858 3.58579 12.25 4 12.25Z" fill="black"/>
</svg>
