<svg width="24" height="24" viewBox="0 0 24 24" fill="none" xmlns="http://www.w3.org/2000/svg">
<path fill-rule="evenodd" clip-rule="evenodd" d="M13.4534 4.56525C12.5385 4.10777 11.4615 4.10777 10.5465 4.56525L6.54654 6.56525C5.42381 7.12661 4.76565 8.23391 4.93007 9.35331C5.24166 11.4747 5.95277 13.7268 7.03331 15.6502C8.1167 17.5786 9.53976 19.1223 11.248 19.92C11.7237 20.1421 12.2763 20.1421 12.752 19.92C14.4602 19.1223 15.8833 17.5786 16.9666 15.6502C18.0472 13.7268 18.7583 11.4747 19.0699 9.35331C19.2343 8.23391 18.5761 7.12661 17.4534 6.56525L13.4534 4.56525ZM9.87572 3.22361C11.213 2.55498 12.787 2.55498 14.1242 3.22361L18.1242 5.22361C19.7118 6.01738 20.8299 7.69268 20.554 9.57129C20.219 11.8519 19.4553 14.2829 18.2744 16.3849C17.0964 18.4818 15.4714 20.3057 13.3866 21.2791C12.5087 21.689 11.4913 21.689 10.6133 21.2791C8.52856 20.3057 6.9036 18.4818 5.72556 16.3849C4.54467 14.2829 3.78096 11.8519 3.44599 9.57129C3.17006 7.69268 4.28816 6.01738 5.87572 5.22361L9.87572 3.22361ZM15.5304 9.46967C15.8233 9.76256 15.8233 10.2374 15.5304 10.5303L11.5304 14.5304C11.2375 14.8232 10.7627 14.8232 10.4698 14.5304L8.46968 12.5303C8.17678 12.2375 8.17677 11.7626 8.46965 11.4697C8.76254 11.1768 9.23741 11.1768 9.53031 11.4697L11.0001 12.9394L14.4698 9.46967C14.7627 9.17678 15.2376 9.17678 15.5304 9.46967Z" fill="black"/>
</svg>
