<svg width="24" height="24" viewBox="0 0 24 24" fill="none" xmlns="http://www.w3.org/2000/svg">
<path fill-rule="evenodd" clip-rule="evenodd" d="M5.46967 3.46967C5.61033 3.32902 5.80109 3.25 6 3.25H9C9.41422 3.25 9.75 3.58579 9.75 4C9.75 4.29547 9.8082 4.58806 9.92128 4.86104L9.22837 5.14805L9.92128 4.86104C10.0343 5.13402 10.2001 5.38206 10.409 5.59099C10.6179 5.79992 10.866 5.96566 11.139 6.07873C11.4119 6.1918 11.7045 6.25 12 6.25C12.2955 6.25 12.5881 6.1918 12.861 6.07873C13.134 5.96566 13.3821 5.79992 13.591 5.59099C13.7999 5.38206 13.9657 5.13402 14.0787 4.86104L14.7716 5.14805L14.0787 4.86104C14.1918 4.58806 14.25 4.29547 14.25 4C14.25 3.58579 14.5858 3.25 15 3.25H18C18.1989 3.25 18.3897 3.32902 18.5303 3.46967L21.5303 6.46967C21.6894 6.62873 21.7687 6.85079 21.7463 7.07463L21.3248 11.2899C21.2335 12.2021 20.224 12.709 19.4378 12.2373L18.75 11.8246V18C18.75 19.5188 17.5188 20.75 16 20.75H8C6.48122 20.75 5.25 19.5188 5.25 18V11.8246L4.56217 12.2373C3.77605 12.709 2.76647 12.2021 2.67525 11.2899L2.25373 7.07463C2.23134 6.85079 2.31061 6.62873 2.46967 6.46967L5.46967 3.46967ZM6.31066 4.75L3.78165 7.27902L4.12857 10.7482L5.61413 9.85688C5.84583 9.71786 6.1344 9.71422 6.36953 9.84735C6.60466 9.98048 6.75 10.2298 6.75 10.5V18C6.75 18.6904 7.30965 19.25 8 19.25H16C16.6904 19.25 17.25 18.6904 17.25 18V10.5C17.25 10.2298 17.3953 9.98048 17.6305 9.84735C17.8656 9.71422 18.1542 9.71786 18.3859 9.85688L19.8714 10.7482L20.2184 7.27902L17.6893 4.75H15.6742C15.6265 4.98396 15.5564 5.21339 15.4646 5.43506L14.7936 5.15713L15.4646 5.43506C15.2761 5.89003 14.9999 6.30343 14.6517 6.65165C14.3034 6.99987 13.89 7.27609 13.4351 7.46455C12.9801 7.653 12.4925 7.75 12 7.75C11.5075 7.75 11.0199 7.653 10.5649 7.46455C10.11 7.27609 9.69657 6.99987 9.34835 6.65165L9.87868 6.12132L9.34835 6.65165C9.00013 6.30343 8.72391 5.89003 8.53546 5.43506L9.20646 5.15713L8.53546 5.43506C8.44364 5.21339 8.37353 4.98396 8.32577 4.75H6.31066Z" fill="black"/>
</svg>
