<svg width="24" height="24" viewBox="0 0 24 24" fill="none" xmlns="http://www.w3.org/2000/svg">
<path fill-rule="evenodd" clip-rule="evenodd" d="M10 2.25L14 2.25C14.9665 2.25 15.75 3.0335 15.75 4V6.35352C16.9043 6.67998 17.75 7.74122 17.75 9L17.75 15C17.75 16.2588 16.9043 17.32 15.75 17.6465V20C15.75 20.9665 14.9665 21.75 14 21.75H10C9.0335 21.75 8.25 20.9665 8.25 20L8.25 17.6465C7.09575 17.32 6.25 16.2588 6.25 15L6.25 9C6.25 7.74122 7.09575 6.67998 8.25 6.35352L8.25 4C8.25 3.0335 9.0335 2.25 10 2.25ZM9.75 6.25L14.25 6.25V4C14.25 3.86193 14.1381 3.75 14 3.75L10 3.75C9.86193 3.75 9.75 3.86193 9.75 4L9.75 6.25ZM9.75 17.75L9.75 20C9.75 20.1381 9.86193 20.25 10 20.25H14C14.1381 20.25 14.25 20.1381 14.25 20V17.75H9.75ZM16.25 12.2014L16.25 9C16.25 8.30964 15.6904 7.75 15 7.75L9 7.75C8.30964 7.75 7.75 8.30964 7.75 9L7.75 12.2014H8.70301L8.89247 11.7816C9.07585 11.3752 9.46441 11.1247 9.89055 11.1247C10.3167 11.1247 10.7052 11.3752 10.8886 11.7816L11.2693 12.6252L12.3887 9.93791C12.5669 9.51005 12.9686 9.24658 13.4086 9.25003C13.8483 9.25349 14.2454 9.52278 14.4176 9.95212L15.3199 12.2014H16.25ZM7.75 13.7014L7.75 15C7.75 15.6904 8.30964 16.25 9 16.25H15C15.6904 16.25 16.25 15.6904 16.25 15V13.7014H15.0411C14.561 13.7014 14.1807 13.3907 14.0237 12.9993L13.3932 11.4274L12.2957 14.0621C12.122 14.4792 11.734 14.7424 11.3026 14.7498C10.8707 14.7573 10.4728 14.5068 10.2861 14.0932L9.88296 13.1998C9.69141 13.4923 9.36301 13.7014 8.97011 13.7014H7.75Z" fill="black"/>
</svg>
