<svg width="24" height="24" viewBox="0 0 24 24" fill="none" xmlns="http://www.w3.org/2000/svg">
<path fill-rule="evenodd" clip-rule="evenodd" d="M12 3.25C11.9381 3.25 11.8768 3.25014 11.8162 3.25043C8.76627 3.26509 7.5844 3.88497 6.99099 4.99099C6.66141 5.60525 6.46527 6.45078 6.36114 7.63259C6.25739 8.80993 6.25001 10.2422 6.25 12C6.25 12.2285 6.24976 12.4514 6.24954 12.669C6.24802 14.1335 6.24675 15.3537 6.31767 16.3861C6.39941 17.5759 6.57305 18.4182 6.89156 19.0276C7.46048 20.1161 8.6615 20.75 12 20.75C15.3385 20.75 16.5395 20.1161 17.1084 19.0276C17.4269 18.4182 17.6005 17.5759 17.6823 16.3861C17.7532 15.3537 17.752 14.1337 17.7504 12.6693C17.7502 12.4517 17.75 12.2286 17.75 12C17.75 10.242 17.7425 8.80875 17.6358 7.63009C17.5288 6.44724 17.3273 5.60128 16.9888 4.98693C16.3762 3.87502 15.1487 3.25 12 3.25ZM11.809 1.75045C11.8721 1.75015 11.9358 1.75 12 1.75C15.2397 1.75 17.2623 2.37498 18.3026 4.26307C18.7905 5.14872 19.0162 6.24026 19.1297 7.49491C19.2436 8.75375 19.25 10.258 19.25 12C19.25 12.2255 19.2502 12.4472 19.2505 12.6649C19.2521 14.1203 19.2536 15.4001 19.1788 16.4889C19.093 17.7366 18.9032 18.8318 18.4378 19.7224C17.4388 21.6339 15.3898 22.25 12 22.25C8.61021 22.25 6.56121 21.6339 5.56218 19.7224C5.09672 18.8318 4.90691 17.7366 4.8212 16.4889C4.74639 15.4 4.74785 14.1201 4.7495 12.6646C4.74974 12.447 4.75 12.2254 4.75 12C4.75001 10.2578 4.7563 8.75635 4.86692 7.50093C4.97715 6.24998 5.19605 5.16371 5.66922 4.28181C6.68128 2.39551 8.65571 1.7656 11.809 1.75045ZM11.25 18C11.25 17.5858 11.5858 17.25 12 17.25H12.01C12.4242 17.25 12.76 17.5858 12.76 18C12.76 18.4142 12.4242 18.75 12.01 18.75H12C11.5858 18.75 11.25 18.4142 11.25 18Z" fill="black"/>
</svg>
