<svg width="24" height="24" viewBox="0 0 24 24" fill="none" xmlns="http://www.w3.org/2000/svg">
<path fill-rule="evenodd" clip-rule="evenodd" d="M8.25 4C8.25 3.0335 9.0335 2.25 10 2.25H14C14.9665 2.25 15.75 3.0335 15.75 4V6.35352C16.9043 6.67998 17.75 7.74122 17.75 9L17.75 15C17.75 16.2588 16.9043 17.32 15.75 17.6465V20C15.75 20.9665 14.9665 21.75 14 21.75H10C9.0335 21.75 8.25 20.9665 8.25 20L8.25 17.6465C7.09575 17.32 6.25 16.2588 6.25 15V9C6.25 7.74122 7.09575 6.67998 8.25 6.35352L8.25 4ZM9.75 6.25L14.25 6.25V4C14.25 3.86193 14.1381 3.75 14 3.75H10C9.86193 3.75 9.75 3.86193 9.75 4V6.25ZM9.75 17.75L9.75 20C9.75 20.1381 9.86193 20.25 10 20.25H14C14.1381 20.25 14.25 20.1381 14.25 20V17.75H9.75ZM15 7.75L9 7.75C8.30964 7.75 7.75 8.30964 7.75 9V15C7.75 15.6904 8.30964 16.25 9 16.25H15C15.6904 16.25 16.25 15.6904 16.25 15L16.25 9C16.25 8.30964 15.6904 7.75 15 7.75ZM10.3707 10.6187C10.3179 10.6667 10.25 10.762 10.25 10.9744C10.25 11.0991 10.3169 11.3256 10.5243 11.6533C10.7214 11.9647 10.9966 12.2914 11.2908 12.5977C11.5409 12.858 11.7929 13.0913 12 13.2733C12.2071 13.0913 12.4591 12.858 12.7092 12.5977C13.0034 12.2914 13.2786 11.9647 13.4757 11.6533C13.6831 11.3256 13.75 11.0991 13.75 10.9744C13.75 10.766 13.6824 10.6701 13.6271 10.6201C13.5612 10.5604 13.4363 10.5 13.2373 10.5C13.0538 10.5 12.9028 10.5597 12.813 10.6315L12.6685 10.7471C12.4593 10.9145 12.2131 10.977 12 10.977C11.7932 10.977 11.5552 10.9181 11.35 10.7616C11.3499 10.7616 11.3502 10.7616 11.35 10.7616L11.3491 10.7611L11.3482 10.7605L11.3325 10.7479C11.3324 10.7478 11.3317 10.7472 11.3316 10.7472C11.3316 10.7472 11.3316 10.7472 11.3316 10.7472M11.3316 10.7472L11.187 10.6315C11.0972 10.5597 10.9462 10.5 10.7627 10.5C10.5568 10.5 10.4336 10.5615 10.3707 10.6187M12.2649 9.94637L12.1185 9.76341ZM12 9.36876C12.3627 9.12274 12.802 9 13.2373 9C13.7357 9 14.2421 9.15385 14.6332 9.50748C15.0349 9.87072 15.25 10.387 15.25 10.9744C15.25 11.5232 15.0044 12.0429 14.7431 12.4557C14.4714 12.8847 14.1216 13.2927 13.7908 13.637C13.4572 13.9842 13.1263 14.2839 12.8801 14.4959C12.7564 14.6024 12.6529 14.6878 12.5795 14.7473C12.5427 14.7771 12.5134 14.8004 12.4928 14.8167L12.4685 14.8358L12.4615 14.8412L12.4593 14.8429L12.4583 14.8437C12.4582 14.8438 12.4581 14.8438 12 14.25C11.5419 14.8438 11.5418 14.8438 11.5417 14.8437L11.5407 14.8429L11.5385 14.8412L11.5315 14.8358L11.5072 14.8167C11.4866 14.8004 11.4573 14.7771 11.4205 14.7473C11.3471 14.6878 11.2436 14.6024 11.1199 14.4959C10.8737 14.2839 10.5428 13.9842 10.2092 13.637C9.87844 13.2927 9.52857 12.8847 9.25693 12.4557C8.99565 12.0429 8.75 11.5232 8.75 10.9744C8.75 10.3911 8.95987 9.8741 9.36166 9.50882C9.75329 9.15278 10.2614 9 10.7627 9C11.198 9 11.6374 9.12275 12 9.36876ZM12 14.25L11.5417 14.8437C11.8116 15.0519 12.1884 15.0519 12.4583 14.8437L12 14.25Z" fill="black"/>
</svg>
