<svg width="24" height="24" viewBox="0 0 24 24" fill="none" xmlns="http://www.w3.org/2000/svg">
<path fill-rule="evenodd" clip-rule="evenodd" d="M8.25 4C8.25 3.0335 9.0335 2.25 10 2.25H14C14.9665 2.25 15.75 3.0335 15.75 4V6.35352C16.9043 6.67998 17.75 7.74122 17.75 9L17.75 15C17.75 16.2588 16.9043 17.32 15.75 17.6465V20C15.75 20.9665 14.9665 21.75 14 21.75H10C9.0335 21.75 8.25 20.9665 8.25 20L8.25 17.6465C7.09575 17.32 6.25 16.2588 6.25 15V9C6.25 7.74122 7.09575 6.67998 8.25 6.35352L8.25 4ZM9.75 6.25L14.25 6.25V4C14.25 3.86193 14.1381 3.75 14 3.75H10C9.86193 3.75 9.75 3.86193 9.75 4V6.25ZM9.75 17.75L9.75 20C9.75 20.1381 9.86193 20.25 10 20.25H14C14.1381 20.25 14.25 20.1381 14.25 20V17.75H9.75ZM15 7.75L9 7.75C8.30964 7.75 7.75 8.30964 7.75 9V15C7.75 15.6904 8.30964 16.25 9 16.25H15C15.6904 16.25 16.25 15.6904 16.25 15L16.25 9C16.25 8.30964 15.6904 7.75 15 7.75ZM12 9.25C12.4142 9.25 12.75 9.58579 12.75 10V11.25H14C14.4142 11.25 14.75 11.5858 14.75 12C14.75 12.4142 14.4142 12.75 14 12.75H12.75V14C12.75 14.4142 12.4142 14.75 12 14.75C11.5858 14.75 11.25 14.4142 11.25 14V12.75H10C9.58579 12.75 9.25 12.4142 9.25 12C9.25 11.5858 9.58579 11.25 10 11.25H11.25V10C11.25 9.58579 11.5858 9.25 12 9.25Z" fill="black"/>
</svg>
