<svg width="24" height="24" viewBox="0 0 24 24" fill="none" xmlns="http://www.w3.org/2000/svg">
<path fill-rule="evenodd" clip-rule="evenodd" d="M12 9.25C12.4142 9.25 12.75 9.58579 12.75 10V14C12.75 14.4142 12.4142 14.75 12 14.75C11.5858 14.75 11.25 14.4142 11.25 14V10C11.25 9.58579 11.5858 9.25 12 9.25ZM3 10.25C3.41421 10.25 3.75 10.5858 3.75 11V13C3.75 13.4142 3.41421 13.75 3 13.75C2.58579 13.75 2.25 13.4142 2.25 13V11C2.25 10.5858 2.58579 10.25 3 10.25ZM6 10.25C6.41421 10.25 6.75 10.5858 6.75 11V13C6.75 13.4142 6.41421 13.75 6 13.75C5.58579 13.75 5.25 13.4142 5.25 13V11C5.25 10.5858 5.58579 10.25 6 10.25ZM9 10.25C9.41421 10.25 9.75 10.5858 9.75 11V13C9.75 13.4142 9.41421 13.75 9 13.75C8.58579 13.75 8.25 13.4142 8.25 13V11C8.25 10.5858 8.58579 10.25 9 10.25ZM15 10.25C15.4142 10.25 15.75 10.5858 15.75 11V13C15.75 13.4142 15.4142 13.75 15 13.75C14.5858 13.75 14.25 13.4142 14.25 13V11C14.25 10.5858 14.5858 10.25 15 10.25ZM18 10.25C18.4142 10.25 18.75 10.5858 18.75 11V13C18.75 13.4142 18.4142 13.75 18 13.75C17.5858 13.75 17.25 13.4142 17.25 13V11C17.25 10.5858 17.5858 10.25 18 10.25ZM21 10.25C21.4142 10.25 21.75 10.5858 21.75 11V13C21.75 13.4142 21.4142 13.75 21 13.75C20.5858 13.75 20.25 13.4142 20.25 13V11C20.25 10.5858 20.5858 10.25 21 10.25Z" fill="black"/>
</svg>
