<svg width="24" height="24" viewBox="0 0 24 24" fill="none" xmlns="http://www.w3.org/2000/svg">
<path fill-rule="evenodd" clip-rule="evenodd" d="M2.46967 2.46967C2.76256 2.17678 3.23744 2.17678 3.53033 2.46967L21.5303 20.4697C21.8232 20.7626 21.8232 21.2374 21.5303 21.5303C21.2374 21.8232 20.7626 21.8232 20.4697 21.5303L2.46967 3.53033C2.17678 3.23744 2.17678 2.76256 2.46967 2.46967ZM8.45581 4.09145C9.33665 3.16269 10.4821 2.25 12 2.25C12.3334 2.25 12.5984 2.40005 12.7832 2.56958C12.9606 2.73237 13.0917 2.9357 13.1917 3.13057C13.3918 3.52078 13.5456 4.03513 13.669 4.60082C13.9188 5.7454 14.0839 7.29158 14.1723 8.96035C14.1942 9.37398 13.8766 9.72705 13.463 9.74895C13.0494 9.77085 12.6963 9.45329 12.6744 9.03965C12.5878 7.40375 12.4282 5.94992 12.2035 4.92067C12.0898 4.39945 11.9689 4.03342 11.8569 3.81499C11.8454 3.79255 11.8348 3.77332 11.8253 3.75695C11.0219 3.82108 10.301 4.32568 9.54419 5.12366C9.25915 5.4242 8.78444 5.43678 8.4839 5.15174C8.18335 4.86671 8.17078 4.392 8.45581 4.09145ZM5.71286 7.90999C5.84159 8.30369 5.62678 8.7272 5.23308 8.85593C4.52912 9.0861 4.18267 9.35469 4.0035 9.59133C3.83049 9.81986 3.75 10.1021 3.75 10.5V13.5C3.75 13.9331 3.8446 14.234 4.06205 14.4801C4.29662 14.7456 4.7569 15.0411 5.6819 15.2724C6.3998 15.4519 6.99291 15.9629 7.4806 16.4749C7.82178 16.8332 8.17371 17.2629 8.5143 17.6787C8.66182 17.8589 8.80721 18.0364 8.94868 18.2044C9.91493 19.3518 10.7902 20.1608 11.8253 20.2431C11.89 20.1322 11.9712 19.9437 12.0567 19.6577C12.2485 19.0159 12.4082 18.0707 12.5255 16.9237C12.5677 16.5116 12.9359 16.2117 13.348 16.2539C13.76 16.296 14.0599 16.6642 14.0178 17.0763C13.8971 18.2558 13.726 19.3106 13.4939 20.0872C13.3794 20.4701 13.2361 20.8346 13.046 21.119C12.8689 21.3838 12.5316 21.75 12 21.75C10.1125 21.75 8.78119 20.3342 7.80132 19.1706C7.62721 18.9638 7.4644 18.7649 7.30842 18.5743C6.98786 18.1827 6.69612 17.8262 6.3944 17.5094C5.94459 17.0371 5.6002 16.7981 5.3181 16.7276C4.2431 16.4589 3.45338 16.0567 2.93795 15.4733C2.4054 14.8705 2.25 14.1714 2.25 13.5V10.5C2.25 9.89179 2.37691 9.25475 2.8076 8.6859C3.23213 8.12518 3.88568 7.71833 4.76692 7.4302C5.16063 7.30148 5.58414 7.51628 5.71286 7.90999ZM11.7636 20.3315C11.7636 20.3312 11.7658 20.3287 11.7701 20.3248C11.7658 20.3298 11.7637 20.3317 11.7636 20.3315Z" fill="black"/>
</svg>
