<svg width="24" height="24" viewBox="0 0 24 24" fill="none" xmlns="http://www.w3.org/2000/svg">
<path fill-rule="evenodd" clip-rule="evenodd" d="M7.80132 4.8294C8.78119 3.6658 10.1125 2.25 12 2.25C12.4356 2.25 12.7442 2.50081 12.9288 2.72327C13.1134 2.94584 13.2502 3.22574 13.3571 3.50644C13.5736 4.07463 13.7392 4.84094 13.8669 5.70259C14.1242 7.43932 14.25 9.729 14.25 12C14.25 14.271 14.1242 16.5607 13.8669 18.2974C13.7392 19.1591 13.5736 19.9254 13.3571 20.4936C13.2502 20.7743 13.1134 21.0542 12.9288 21.2767C12.7442 21.4992 12.4356 21.75 12 21.75C10.1125 21.75 8.78119 20.3342 7.80132 19.1706C7.62721 18.9639 7.4644 18.7649 7.30842 18.5743C6.98786 18.1827 6.69612 17.8262 6.3944 17.5094C5.94459 17.0371 5.60021 16.7981 5.3181 16.7276C4.2431 16.4589 3.45338 16.0567 2.93795 15.4733C2.4054 14.8706 2.25 14.1714 2.25 13.5V10.5C2.25 9.82857 2.4054 9.12945 2.93795 8.5267C3.45338 7.94333 4.2431 7.54114 5.3181 7.27239C5.60021 7.20187 5.94459 6.96287 6.3944 6.49057C6.69612 6.17376 6.98786 5.81731 7.30842 5.42565C7.4644 5.23507 7.62721 5.03615 7.80132 4.8294ZM7.4806 7.52505C6.99291 8.03713 6.39979 8.54813 5.6819 8.72761C4.7569 8.95886 4.29662 9.25439 4.06205 9.51988C3.8446 9.76599 3.75 10.0669 3.75 10.5V13.5C3.75 13.9331 3.8446 14.234 4.06205 14.4801C4.29662 14.7456 4.7569 15.0411 5.6819 15.2724C6.39979 15.4519 6.99291 15.9629 7.4806 16.4749C7.82178 16.8332 8.17371 17.2629 8.5143 17.6788C8.66182 17.8589 8.80721 18.0364 8.94868 18.2044C9.91493 19.3518 10.7902 20.1608 11.8253 20.2431C11.8602 20.1832 11.905 20.0918 11.9554 19.9596C12.1139 19.5434 12.2607 18.9034 12.3831 18.0776C12.6258 16.4393 12.75 14.229 12.75 12C12.75 9.771 12.6258 7.56068 12.3831 5.92241C12.2607 5.09656 12.1139 4.45662 11.9554 4.04043C11.905 3.90816 11.8602 3.81683 11.8253 3.75691C10.7902 3.83918 9.91493 4.64818 8.94868 5.7956C8.80721 5.9636 8.66182 6.14112 8.5143 6.32124C8.17371 6.73711 7.82178 7.16681 7.4806 7.52505Z" fill="black"/>
</svg>
