<svg width="24" height="24" viewBox="0 0 24 24" fill="none" xmlns="http://www.w3.org/2000/svg">
<path fill-rule="evenodd" clip-rule="evenodd" d="M12 2.25C12.4142 2.25 12.75 2.58579 12.75 3C12.75 7.55635 16.4437 11.25 21 11.25C21.4142 11.25 21.75 11.5858 21.75 12C21.75 12.4142 21.4142 12.75 21 12.75C16.4437 12.75 12.75 16.4437 12.75 21C12.75 21.4142 12.4142 21.75 12 21.75C11.5858 21.75 11.25 21.4142 11.25 21C11.25 16.4437 7.55635 12.75 3 12.75C2.58579 12.75 2.25 12.4142 2.25 12C2.25 11.5858 2.58579 11.25 3 11.25C7.55635 11.25 11.25 7.55635 11.25 3C11.25 2.58579 11.5858 2.25 12 2.25ZM12 6.7566C11.0122 9.12036 9.12036 11.0122 6.7566 12C9.12036 12.9878 11.0122 14.8796 12 17.2434C12.9878 14.8796 14.8796 12.9878 17.2434 12C14.8796 11.0122 12.9878 9.12036 12 6.7566Z" fill="black"/>
</svg>
