<svg width="24" height="24" viewBox="0 0 24 24" fill="none" xmlns="http://www.w3.org/2000/svg">
<path fill-rule="evenodd" clip-rule="evenodd" d="M12.3529 3.9839C12.213 3.67203 11.7869 3.67203 11.6471 3.98391L10.1145 7.40172C9.8319 8.03186 9.23009 8.46229 8.53855 8.51621L4.11195 8.86137C3.80383 8.8854 3.62268 9.27823 3.85498 9.53987L7.02812 13.1138C7.44651 13.585 7.60456 14.2333 7.45393 14.8441L6.49268 18.7416C6.40391 19.1015 6.76532 19.3455 7.04035 19.2061L11.1514 17.1225C11.6853 16.8519 12.3147 16.8519 12.8486 17.1225L16.9596 19.2061C17.2347 19.3455 17.5961 19.1015 17.5073 18.7416L16.546 14.8441C16.3954 14.2333 16.5535 13.585 16.9719 13.1138L20.145 9.53987C20.3773 9.27823 20.1961 8.8854 19.888 8.86137L15.4614 8.51621C14.7699 8.46229 14.1681 8.03186 13.8855 7.40172L12.3529 3.9839ZM10.2784 3.37016C10.9481 1.87662 13.0519 1.87661 13.7216 3.37016L15.2542 6.78798C15.3153 6.92432 15.4414 7.0101 15.578 7.02075L20.0046 7.36591C21.5819 7.4889 22.2994 9.37263 21.2667 10.5358L18.0935 14.1097C18.0049 14.2095 17.9692 14.3503 18.0024 14.4849L18.9636 18.3824C19.3471 19.937 17.7478 21.2873 16.2815 20.5441L12.1705 18.4605C12.0628 18.406 11.9371 18.406 11.8295 18.4605L7.71848 20.5441C6.25218 21.2873 4.65291 19.937 5.03632 18.3824L5.99757 14.4849C6.03075 14.3503 5.99504 14.2095 5.90644 14.1097L2.7333 10.5358C1.70059 9.37264 2.41804 7.4889 3.99535 7.36591L8.42194 7.02075C8.55855 7.0101 8.68463 6.92432 8.74577 6.78798L10.2784 3.37016Z" fill="black"/>
</svg>
