<svg width="24" height="24" viewBox="0 0 24 24" fill="none" xmlns="http://www.w3.org/2000/svg">
<path fill-rule="evenodd" clip-rule="evenodd" d="M4.97471 2.65138C5.16727 3.01811 5.02607 3.47151 4.65933 3.66406C4.25995 3.87376 4.01633 4.05968 3.87995 4.24243C3.7676 4.39298 3.6984 4.57867 3.74281 4.89614C3.93888 6.298 4.39248 7.88183 5.07738 9.24412C5.7699 10.6216 6.65089 11.6788 7.64869 12.168C7.7608 12.223 7.88048 12.2499 7.99938 12.25C8.1187 12.2501 8.23882 12.2232 8.35131 12.168C9.34911 11.6788 10.2301 10.6216 10.9226 9.24412C11.6076 7.88183 12.0612 6.298 12.2572 4.89614C12.3016 4.57868 12.2324 4.393 12.1201 4.24244C11.9837 4.05968 11.7401 3.87376 11.3407 3.66406C10.9739 3.47151 10.8327 3.01811 11.0253 2.65138C11.2178 2.28464 11.6712 2.14344 12.038 2.336C12.5022 2.57976 12.9841 2.89224 13.3222 3.34531C13.6844 3.83059 13.8387 4.41817 13.7428 5.10392C13.5268 6.64813 13.0298 8.39234 12.2628 9.9179C11.5034 11.4283 10.4312 12.8188 9.01169 13.5148C8.9259 13.5569 8.83816 13.5933 8.74898 13.6241L8.75 16.9998C8.75 17.5965 8.98705 18.1691 9.40901 18.591C9.83097 19.013 10.4033 19.25 11 19.25C11.5967 19.25 12.169 19.013 12.591 18.591C13.0129 18.1691 13.25 17.5968 13.25 17V15.5C13.25 14.6381 13.5924 13.8114 14.2019 13.2019C14.8114 12.5924 15.638 12.25 16.5 12.25C17.362 12.25 18.1886 12.5924 18.7981 13.2019C19.4076 13.8114 19.75 14.6381 19.75 15.5V16.3535C20.9043 16.68 21.75 17.7413 21.75 19C21.75 20.5188 20.5188 21.75 19 21.75C17.4812 21.75 16.25 20.5188 16.25 19C16.25 17.7413 17.0957 16.68 18.25 16.3535V15.5C18.25 15.0359 18.0656 14.5908 17.7374 14.2626C17.4093 13.9344 16.9641 13.75 16.5 13.75C16.0359 13.75 15.5908 13.9344 15.2626 14.2626C14.9344 14.5908 14.75 15.0359 14.75 15.5V17C14.75 17.9946 14.3549 18.9484 13.6517 19.6517C12.9484 20.3549 11.9946 20.75 11 20.75C10.0054 20.75 9.05161 20.3549 8.34835 19.6517C7.64514 18.9485 7.25006 17.9947 7.25 17.0003C7.25 17.0002 7.25 17.0003 7.25 17.0003L7.24898 13.6234C7.1605 13.5928 7.07345 13.5566 6.98831 13.5148C5.56879 12.8188 4.49658 11.4283 3.73722 9.9179C2.97023 8.39234 2.47325 6.64812 2.25727 5.10392C2.16135 4.41818 2.31565 3.8306 2.67779 3.34532C3.0159 2.89224 3.49776 2.57976 3.96202 2.336C4.32876 2.14344 4.78215 2.28464 4.97471 2.65138ZM19 17.75C18.3096 17.75 17.75 18.3097 17.75 19C17.75 19.6904 18.3096 20.25 19 20.25C19.6904 20.25 20.25 19.6904 20.25 19C20.25 18.3097 19.6904 17.75 19 17.75Z" fill="black"/>
</svg>
