<svg width="24" height="24" viewBox="0 0 24 24" fill="none" xmlns="http://www.w3.org/2000/svg">
<path fill-rule="evenodd" clip-rule="evenodd" d="M7.12294 7.25612C7.12288 7.2561 7.12414 7.25535 7.1269 7.25393C7.12439 7.25543 7.123 7.25614 7.12294 7.25612ZM7.21729 7.21729C7.27402 7.19735 7.35091 7.17405 7.45042 7.14875C7.71829 7.08065 8.09255 7.0124 8.55534 6.95203C9.4776 6.83174 10.6949 6.75 12 6.75C13.3051 6.75 14.5224 6.83174 15.4447 6.95203C15.9074 7.0124 16.2817 7.08065 16.5496 7.14875C16.6491 7.17405 16.726 7.19735 16.7827 7.21729C16.8026 7.27402 16.8259 7.35091 16.8512 7.45042C16.9193 7.71829 16.9876 8.09255 17.048 8.55534C17.1683 9.4776 17.25 10.6949 17.25 12C17.25 13.3051 17.1683 14.5224 17.048 15.4447C16.9876 15.9074 16.9193 16.2817 16.8512 16.5496C16.8259 16.6491 16.8026 16.726 16.7827 16.7827C16.726 16.8026 16.6491 16.8259 16.5496 16.8512C16.2817 16.9193 15.9074 16.9876 15.4447 17.048C14.5224 17.1683 13.3051 17.25 12 17.25C10.6949 17.25 9.4776 17.1683 8.55534 17.048C8.09255 16.9876 7.71829 16.9193 7.45042 16.8512C7.35091 16.8259 7.27402 16.8026 7.21729 16.7827C7.19735 16.726 7.17405 16.6491 7.14875 16.5496C7.08065 16.2817 7.0124 15.9074 6.95203 15.4447C6.83174 14.5224 6.75 13.3051 6.75 12C6.75 10.6949 6.83174 9.4776 6.95203 8.55534C7.0124 8.09255 7.08065 7.71829 7.14875 7.45042C7.17405 7.35091 7.19735 7.27402 7.21729 7.21729ZM7.12294 16.7439C7.12301 16.7439 7.12439 16.7446 7.1269 16.7461C7.12414 16.7446 7.12288 16.7439 7.12294 16.7439ZM7.25393 16.8731C7.25543 16.8756 7.25614 16.877 7.25612 16.8771C7.2561 16.8771 7.25535 16.8759 7.25393 16.8731ZM16.7439 16.8771C16.7439 16.877 16.7446 16.8756 16.7461 16.8731C16.7446 16.8759 16.7439 16.8771 16.7439 16.8771ZM16.8731 16.7461C16.8756 16.7446 16.877 16.7439 16.8771 16.7439C16.8771 16.7439 16.8759 16.7446 16.8731 16.7461ZM16.8771 7.25612C16.877 7.25614 16.8756 7.25543 16.8731 7.25393C16.8759 7.25535 16.8771 7.2561 16.8771 7.25612ZM17.3333 6.66667L17.331 6.66902L17.3333 6.66667C16.7446 7.12438 16.7439 7.123 16.7439 7.12294C16.7439 7.12288 16.7446 7.12413 16.7461 7.12689M7.25393 7.1269C7.25535 7.12414 7.2561 7.12288 7.25612 7.12294C7.25614 7.12301 7.25543 7.12439 7.25393 7.1269ZM8.36133 5.46463C9.35573 5.33493 10.6384 5.25 12 5.25C13.3616 5.25 14.6443 5.33493 15.6387 5.46463C16.1342 5.52927 16.5725 5.60685 16.9192 5.695C17.0918 5.73888 17.2563 5.78903 17.4002 5.84752C17.5246 5.89808 17.7126 5.98528 17.8637 6.13634L17.3357 6.66433L17.8637 6.13634C18.0147 6.28739 18.1019 6.47535 18.1525 6.59976C18.211 6.74366 18.2611 6.90823 18.305 7.08083C18.3932 7.42755 18.4707 7.86578 18.5354 8.36133C18.6651 9.35573 18.75 10.6384 18.75 12C18.75 13.3616 18.6651 14.6443 18.5354 15.6387C18.4707 16.1342 18.3932 16.5725 18.305 16.9192C18.2611 17.0918 18.211 17.2563 18.1525 17.4002C18.1019 17.5246 18.0147 17.7126 17.8637 17.8637C17.7126 18.0147 17.5246 18.1019 17.4002 18.1525C17.2563 18.211 17.0918 18.2611 16.9192 18.305C16.5725 18.3932 16.1342 18.4707 15.6387 18.5354C14.6443 18.6651 13.3616 18.75 12 18.75C10.6384 18.75 9.35573 18.6651 8.36133 18.5354C7.86578 18.4707 7.42755 18.3932 7.08083 18.305C6.90823 18.2611 6.74366 18.211 6.59976 18.1525C6.47535 18.1019 6.28739 18.0147 6.13634 17.8637L6.66667 17.3333L6.13634 17.8637C5.98528 17.7126 5.89808 17.5246 5.84752 17.4002C5.78903 17.2563 5.73888 17.0918 5.695 16.9192C5.60685 16.5725 5.52927 16.1342 5.46463 15.6387C5.33493 14.6443 5.25 13.3616 5.25 12C5.25 10.6384 5.33493 9.35573 5.46463 8.36133C5.52927 7.86578 5.60685 7.42755 5.695 7.08083C5.73888 6.90823 5.78903 6.74366 5.84752 6.59976C5.89808 6.47535 5.98528 6.28739 6.13634 6.13634C6.28739 5.98528 6.47535 5.89808 6.59976 5.84752C6.74366 5.78903 6.90823 5.73888 7.08083 5.695C7.42755 5.60685 7.86578 5.52927 8.36133 5.46463Z" fill="black"/>
</svg>
