<svg width="24" height="24" viewBox="0 0 24 24" fill="none" xmlns="http://www.w3.org/2000/svg">
<path fill-rule="evenodd" clip-rule="evenodd" d="M16.1264 2.57019C16.4193 2.2773 16.8942 2.2773 17.1871 2.5702L21.4297 6.81283C21.7226 7.10573 21.7226 7.5806 21.4297 7.87349C21.1368 8.16639 20.6619 8.16639 20.369 7.8735L18.7781 6.28252L17.7175 7.34304L17.8944 7.5199C18.9683 8.59384 18.9683 10.335 17.8944 11.409L10.7377 18.5657C10.2864 19.017 9.63612 19.1481 9.06917 18.959L8.67787 19.32C7.76317 20.1637 6.42443 20.2718 5.40157 19.6592L3.75227 21.3085C3.45938 21.6014 2.9845 21.6014 2.69161 21.3085C2.39872 21.0156 2.39872 20.5407 2.69161 20.2478L4.34083 18.5986C3.72811 17.5758 3.83602 16.2371 4.67957 15.3223L5.04077 14.9306C4.85182 14.3639 4.98292 13.7139 5.43406 13.2627L12.5911 6.10569C13.665 5.03175 15.4062 5.03175 16.4802 6.10569L16.6569 6.28238L17.7174 5.22186L16.1264 3.63085C15.8335 3.33796 15.8335 2.86308 16.1264 2.57019ZM16.1142 7.86098L15.4195 7.16635C14.9314 6.67819 14.1399 6.67819 13.6518 7.16635L6.49472 14.3234C6.44456 14.3735 6.44457 14.4549 6.49471 14.505L9.49471 17.505C9.54506 17.5554 9.6267 17.5554 9.67707 17.505L16.8337 10.3483C17.3219 9.86017 17.3219 9.06872 16.8337 8.58056L16.1389 7.88577C16.1347 7.88174 16.1306 7.87766 16.1264 7.87351C16.1223 7.86937 16.1182 7.86519 16.1142 7.86098ZM5.98631 16.1179L5.78231 16.3392C5.32766 16.8322 5.34313 17.5961 5.81737 18.0704L5.92944 18.1824C6.40374 18.6568 7.16783 18.6722 7.66084 18.2174L7.88189 18.0135L5.98631 16.1179Z" fill="black"/>
</svg>
