<svg width="24" height="24" viewBox="0 0 24 24" fill="none" xmlns="http://www.w3.org/2000/svg">
<path fill-rule="evenodd" clip-rule="evenodd" d="M8.82843 6.75C8.49691 6.75 8.17897 6.8817 7.94455 7.11612L3.94455 11.1161C3.45639 11.6043 3.45639 12.3957 3.94455 12.8839L7.94455 16.8839C8.17897 17.1183 8.49691 17.25 8.82843 17.25H19C19.6904 17.25 20.25 16.6904 20.25 16V8C20.25 7.30964 19.6904 6.75 19 6.75H8.82843ZM6.88389 6.05546C7.39961 5.53973 8.09908 5.25 8.82843 5.25H19C20.5188 5.25 21.75 6.48122 21.75 8V16C21.75 17.5188 20.5188 18.75 19 18.75H8.82843C8.09908 18.75 7.39961 18.4603 6.88389 17.9445L2.88389 13.9445C1.80995 12.8706 1.80994 11.1294 2.88389 10.0555L6.88389 6.05546L7.41422 6.58579L6.88389 6.05546ZM9.5 11.25C9.08579 11.25 8.75 11.5858 8.75 12C8.75 12.4142 9.08579 12.75 9.5 12.75C9.91421 12.75 10.25 12.4142 10.25 12C10.25 11.5858 9.91421 11.25 9.5 11.25ZM7.25 12C7.25 10.7574 8.25736 9.75 9.5 9.75C10.7426 9.75 11.75 10.7574 11.75 12C11.75 13.2426 10.7426 14.25 9.5 14.25C8.25736 14.25 7.25 13.2426 7.25 12Z" fill="black"/>
</svg>
