<svg width="24" height="24" viewBox="0 0 24 24" fill="none" xmlns="http://www.w3.org/2000/svg">
<path fill-rule="evenodd" clip-rule="evenodd" d="M18.8796 5.15169C18.0009 4.27301 16.5763 4.27301 15.6976 5.15169L6.06023 14.789C6.01889 14.8304 5.9911 14.8881 5.98556 14.9536L5.23823 14.8905L5.98556 14.9536C5.86656 16.3619 5.70838 17.3338 5.49166 18.5396C6.69741 18.3229 7.66933 18.1647 9.07763 18.0457C9.14316 18.0402 9.20087 18.0124 9.24221 17.971L10.045 17.1683L8.62812 15.7599C8.33435 15.4679 8.33292 14.993 8.62493 14.6992C8.91695 14.4055 9.39182 14.404 9.68559 14.696L11.1056 16.1076L12.5156 14.6976L11.1014 13.2834C10.8085 12.9905 10.8085 12.5156 11.1014 12.2228C11.3943 11.9299 11.8692 11.9299 12.1621 12.2228L13.5763 13.637L14.9905 12.2228L13.5763 10.8085C13.2834 10.5156 13.2834 10.0408 13.5763 9.74788C13.8692 9.45499 14.344 9.45499 14.6369 9.74788L16.0511 11.1621L17.4654 9.74788L16.0511 8.33367C15.7583 8.04077 15.7583 7.5659 16.0511 7.27301C16.344 6.98011 16.8189 6.98011 17.1118 7.27301L18.526 8.68722L18.8796 8.33367C19.7583 7.45499 19.7583 6.03037 18.8796 5.15169ZM19.0853 10.2493L19.9402 9.39433C21.4047 7.92986 21.4047 5.55549 19.9402 4.09103C18.4758 2.62656 16.1014 2.62656 14.6369 4.09103L4.99957 13.7284C4.70264 14.0253 4.52563 14.4162 4.49089 14.8273C4.35952 16.382 4.18149 17.3616 3.90897 18.8612C3.89441 18.9413 3.87958 19.0229 3.86448 19.1061L2.96967 20.0009C2.67678 20.2938 2.67678 20.7687 2.96967 21.0616C3.26256 21.3545 3.73744 21.3545 4.03033 21.0616L4.92514 20.1668C5.00838 20.1517 5.08997 20.1369 5.17008 20.1223C6.66964 19.8498 7.64928 19.6717 9.20393 19.5404C9.61507 19.5056 10.0059 19.3286 10.3029 19.0317L11.6086 17.726C11.6192 17.7165 11.6295 17.7066 11.6396 17.6965C11.6489 17.6872 11.6578 17.6777 11.6665 17.6681L14.0777 15.2569C14.0879 15.2477 14.0979 15.2382 14.1077 15.2284C14.1173 15.2188 14.1266 15.209 14.1355 15.199L16.5525 12.782C16.5626 12.773 16.5725 12.7636 16.5823 12.7539C16.592 12.7441 16.6013 12.7342 16.6104 12.7241L19.0274 10.3072C19.0375 10.2981 19.0474 10.2887 19.0571 10.279C19.0668 10.2693 19.0762 10.2594 19.0853 10.2493Z" fill="black"/>
</svg>
