<svg width="24" height="24" viewBox="0 0 24 24" fill="none" xmlns="http://www.w3.org/2000/svg">
<path fill-rule="evenodd" clip-rule="evenodd" d="M9.66455 2.65816C10.4082 2.30136 11.3071 2.25 12 2.25C12.6929 2.25 13.5918 2.30136 14.3354 2.65816C14.7226 2.84392 15.0881 3.12168 15.353 3.53183C15.6188 3.94351 15.75 4.43735 15.75 5V5.25H20C20.4142 5.25 20.75 5.58579 20.75 6C20.75 6.41421 20.4142 6.75 20 6.75H18.7566C18.7646 7.24012 18.7789 7.74502 18.7941 8.26161C18.7956 8.31117 18.797 8.36083 18.7985 8.4106C18.8202 9.1449 18.8425 9.90074 18.8487 10.6529C18.862 12.2536 18.8038 13.8858 18.4975 15.3506C18.1911 16.8152 17.6225 18.1825 16.5604 19.1824C15.4832 20.1966 13.9875 20.75 12 20.75C10.0125 20.75 8.51678 20.1966 7.43961 19.1824C6.37749 18.1825 5.80888 16.8152 5.50253 15.3506C5.19615 13.8858 5.13795 12.2536 5.15126 10.6529C5.15752 9.90075 5.17982 9.14492 5.20149 8.41062C5.20296 8.36085 5.20443 8.31117 5.20589 8.26161C5.22108 7.74502 5.23539 7.24012 5.24339 6.75H4C3.58579 6.75 3.25 6.41421 3.25 6C3.25 5.58579 3.58579 5.25 4 5.25H8.25V5C8.25 4.43735 8.38123 3.94351 8.64705 3.53183C8.91188 3.12168 9.27741 2.84392 9.66455 2.65816ZM6.74358 6.75C6.73545 7.26096 6.72063 7.78252 6.70524 8.30571C6.70381 8.35418 6.70238 8.40268 6.70095 8.45118C6.67918 9.18894 6.65733 9.92976 6.65121 10.6654C6.63813 12.2389 6.69826 13.7406 6.97076 15.0435C7.24329 16.3465 7.71412 17.3807 8.46784 18.0903C9.20651 18.7858 10.303 19.25 12 19.25C13.6969 19.25 14.7935 18.7858 15.5321 18.0903C16.2859 17.3807 16.7567 16.3465 17.0292 15.0435C17.3017 13.7406 17.3619 12.2389 17.3488 10.6654C17.3427 9.92974 17.3208 9.18889 17.299 8.45111C17.2976 8.40263 17.2962 8.35416 17.2947 8.30571C17.2794 7.78252 17.2645 7.26096 17.2564 6.75H6.74358ZM14.25 5.25H9.75V5C9.75 4.67513 9.82343 4.47521 9.90719 4.34548C9.99194 4.21423 10.1209 4.10293 10.3134 4.01056C10.7291 3.81112 11.3302 3.75 12 3.75C12.6698 3.75 13.2709 3.81112 13.6866 4.01056C13.8791 4.10293 14.0081 4.21423 14.0928 4.34548C14.1766 4.47521 14.25 4.67513 14.25 5V5.25ZM10 9.5C9.32918 9.16459 9.32905 9.16486 9.32891 9.16513L9.32804 9.16687L9.32673 9.16953L9.32358 9.17598L9.31529 9.19339C9.30891 9.20701 9.30086 9.22463 9.2914 9.24626C9.27247 9.28953 9.24788 9.34883 9.21963 9.42416C9.16312 9.57485 9.09204 9.78952 9.02239 10.0681C8.88298 10.6258 8.75 11.4368 8.75 12.5C8.75 13.5632 8.88298 14.3742 9.02239 14.9319C9.09204 15.2105 9.16312 15.4252 9.21963 15.5758C9.24788 15.6512 9.27247 15.7105 9.2914 15.7537C9.30086 15.7754 9.30891 15.793 9.31529 15.8066L9.32358 15.824L9.32673 15.8305L9.32804 15.8331L9.32863 15.8343C9.32877 15.8346 9.32918 15.8354 10 15.5L9.32918 15.8354C9.51442 16.2059 9.96493 16.3561 10.3354 16.1708C10.7057 15.9857 10.8559 15.5355 10.6711 15.1651L10.6718 15.1665L10.6735 15.17C10.6725 15.1679 10.6698 15.1621 10.6656 15.1525C10.6572 15.1333 10.6427 15.0988 10.6241 15.0492C10.5869 14.9498 10.533 14.7895 10.4776 14.5681C10.367 14.1258 10.25 13.4368 10.25 12.5C10.25 11.5632 10.367 10.8742 10.4776 10.4319C10.533 10.2105 10.5869 10.0502 10.6241 9.95084C10.6427 9.90117 10.6572 9.86672 10.6656 9.84749C10.6698 9.83787 10.6725 9.83206 10.6735 9.83004M10.6718 9.83349L10.6735 9.83004C10.8545 9.46061 10.7041 9.01351 10.3354 8.82918C9.96493 8.64394 9.51415 8.79464 9.32891 9.16513L10 9.5C10.6664 9.83322 10.6709 9.83514 10.6711 9.8349C10.6711 9.8349 10.6711 9.8349 10.6711 9.8349M13.6646 8.82918C14.0351 8.64394 14.4856 8.79411 14.6708 9.16459L14 9.5C14.6708 9.16459 14.6707 9.16432 14.6708 9.16459L14.672 9.16687L14.6733 9.16953L14.6764 9.17598L14.6847 9.19339C14.6911 9.20701 14.6991 9.22463 14.7086 9.24626C14.7275 9.28953 14.7521 9.34883 14.7804 9.42416C14.8369 9.57485 14.908 9.78952 14.9776 10.0681C15.117 10.6258 15.25 11.4368 15.25 12.5C15.25 13.5632 15.117 14.3742 14.9776 14.9319C14.908 15.2105 14.8369 15.4252 14.7804 15.5758C14.7521 15.6512 14.7275 15.7105 14.7086 15.7537C14.6991 15.7754 14.6911 15.793 14.6847 15.8066L14.6764 15.824L14.6733 15.8305L14.672 15.8331L14.6714 15.8343C14.6712 15.8346 14.6708 15.8354 14 15.5L14.6708 15.8354C14.4856 16.2059 14.0351 16.3561 13.6646 16.1708C13.2959 15.9865 13.1454 15.5395 13.3265 15.1701M13.3289 9.8349L13.3282 9.83349L13.3265 9.83004C13.1455 9.46061 13.2959 9.01351 13.6646 8.82918M13.3265 9.83004C13.3265 9.83001 13.3265 9.83008 13.3265 9.83004C13.3275 9.83206 13.3302 9.83787 13.3344 9.84749C13.3428 9.86672 13.3573 9.90117 13.3759 9.95084C13.4131 10.0502 13.467 10.2105 13.5224 10.4319C13.633 10.8742 13.75 11.5632 13.75 12.5C13.75 13.4368 13.633 14.1258 13.5224 14.5681C13.467 14.7895 13.4131 14.9498 13.3759 15.0492C13.3573 15.0988 13.3428 15.1333 13.3344 15.1525C13.3302 15.1621 13.3274 15.168 13.3265 15.1701L13.3275 15.1681" fill="black"/>
</svg>
