<svg width="24" height="24" viewBox="0 0 24 24" fill="none" xmlns="http://www.w3.org/2000/svg">
<path fill-rule="evenodd" clip-rule="evenodd" d="M14.25 7C14.25 6.58579 14.5858 6.25 15 6.25H21C21.4142 6.25 21.75 6.58579 21.75 7V13C21.75 13.4142 21.4142 13.75 21 13.75C20.5858 13.75 20.25 13.4142 20.25 13V8.81066L14.9445 14.1161C13.8706 15.1901 12.1294 15.1901 11.0555 14.1161L9.88388 12.9445C9.39573 12.4564 8.60427 12.4564 8.11612 12.9445L3.53033 17.5303C3.23744 17.8232 2.76256 17.8232 2.46967 17.5303C2.17678 17.2374 2.17678 16.7626 2.46967 16.4697L7.05546 11.8839C8.1294 10.8099 9.8706 10.8099 10.9445 11.8839L12.1161 13.0555C12.6043 13.5436 13.3957 13.5436 13.8839 13.0555L19.1893 7.75H15C14.5858 7.75 14.25 7.41421 14.25 7Z" fill="black"/>
</svg>
