<svg width="24" height="24" viewBox="0 0 24 24" fill="none" xmlns="http://www.w3.org/2000/svg">
<path fill-rule="evenodd" clip-rule="evenodd" d="M2.46967 6.46967C2.76256 6.17678 3.23744 6.17678 3.53033 6.46967L8.11612 11.0555C8.60427 11.5436 9.39573 11.5436 9.88388 11.0555L11.0555 9.88388C12.1294 8.80994 13.8706 8.80994 14.9445 9.88388L20.25 15.1893V11C20.25 10.5858 20.5858 10.25 21 10.25C21.4142 10.25 21.75 10.5858 21.75 11V17C21.75 17.4142 21.4142 17.75 21 17.75H15C14.5858 17.75 14.25 17.4142 14.25 17C14.25 16.5858 14.5858 16.25 15 16.25H19.1893L13.8839 10.9445C13.3957 10.4564 12.6043 10.4564 12.1161 10.9445L10.9445 12.1161C9.8706 13.1901 8.1294 13.1901 7.05546 12.1161L2.46967 7.53033C2.17678 7.23744 2.17678 6.76256 2.46967 6.46967Z" fill="black"/>
</svg>
