<svg width="24" height="24" viewBox="0 0 24 24" fill="none" xmlns="http://www.w3.org/2000/svg">
<path fill-rule="evenodd" clip-rule="evenodd" d="M12 2.25C12.4142 2.25 12.75 2.58579 12.75 3L12.75 3.28218C14.7959 3.45811 16.724 4.34958 18.1872 5.81282C19.3074 6.93306 20.0925 8.32579 20.478 9.83513C20.9059 11.5108 19.4494 12.75 18 12.75H12.75V21C12.75 21.4142 12.4142 21.75 12 21.75C11.5858 21.75 11.25 21.4142 11.25 21V12.75L6.00001 12.75C4.55066 12.75 3.0941 11.5108 3.52202 9.83513C3.90748 8.32579 4.69258 6.93306 5.81282 5.81281C7.27606 4.34958 9.20416 3.45811 11.25 3.28218L11.25 3C11.25 2.58578 11.5858 2.25 12 2.25ZM12 4.75C10.0772 4.75 8.23312 5.51384 6.87348 6.87348C5.94531 7.80165 5.29478 8.95558 4.97538 10.2063C4.85668 10.6711 5.24022 11.25 6.00001 11.25L18 11.25C18.7598 11.25 19.1433 10.6711 19.0246 10.2063C18.7052 8.95558 18.0547 7.80165 17.1265 6.87348C15.7669 5.51384 13.9228 4.75 12 4.75Z" fill="black"/>
</svg>
