<svg width="24" height="24" viewBox="0 0 24 24" fill="none" xmlns="http://www.w3.org/2000/svg">
<path fill-rule="evenodd" clip-rule="evenodd" d="M12 2.25C12.4142 2.25 12.75 2.58578 12.75 3L12.75 3.28218C14.7958 3.45811 16.7239 4.34958 18.1872 5.81282C19.6186 7.24422 20.5028 9.12047 20.7053 11.1166C20.8093 12.1417 19.7407 12.7089 18.941 12.309L18 11.8385L16.559 12.559C16.2071 12.735 15.7929 12.735 15.441 12.559L14 11.8385L12.75 12.4635V21C12.75 21.4142 12.4142 21.75 12 21.75C11.5858 21.75 11.25 21.4142 11.25 21V12.4635L10 11.8385L8.55901 12.559C8.2071 12.735 7.79289 12.735 7.44098 12.559L6 11.8385L5.05901 12.309C4.25926 12.7089 3.19069 12.1417 3.29468 11.1166C3.49718 9.12046 4.38141 7.24422 5.81281 5.81281C7.27604 4.34958 9.20415 3.45811 11.25 3.28218L11.25 3C11.25 2.58579 11.5858 2.25 12 2.25ZM12 4.75C10.0772 4.75 8.23311 5.51384 6.87347 6.87348C5.8169 7.93005 5.1201 9.27919 4.86198 10.7305L5.44098 10.441C5.79289 10.265 6.2071 10.265 6.55901 10.441L8 11.1615L9.44098 10.441C9.79289 10.265 10.2071 10.265 10.559 10.441L12 11.1615L13.441 10.441C13.7929 10.265 14.2071 10.265 14.559 10.441L16 11.1615L17.441 10.441C17.7929 10.265 18.2071 10.265 18.559 10.441L19.138 10.7305C18.8799 9.27919 18.1831 7.93005 17.1265 6.87348C15.7669 5.51384 13.9228 4.75 12 4.75Z" fill="black"/>
</svg>
