<svg width="24" height="24" viewBox="0 0 24 24" fill="none" xmlns="http://www.w3.org/2000/svg">
<path fill-rule="evenodd" clip-rule="evenodd" d="M7 9.25C7.41421 9.25 7.75 9.58579 7.75 10V11.2566C8.89405 10.3651 10.1945 9.51153 11.857 9.3052C13.2322 9.13452 14.6368 9.36167 15.8621 9.95919C17.0879 10.557 18.0793 11.4993 18.6688 12.6605C18.8563 13.0299 18.7088 13.4813 18.3395 13.6688C17.9701 13.8563 17.5187 13.7088 17.3312 13.3395C16.9014 12.4928 16.1614 11.774 15.2046 11.3074C14.2473 10.8406 13.1362 10.658 12.0418 10.7938C10.8499 10.9417 9.90766 11.5066 8.92551 12.25H10C10.4142 12.25 10.75 12.5858 10.75 13C10.75 13.4142 10.4142 13.75 10 13.75H7C6.58579 13.75 6.25 13.4142 6.25 13V12.8258C6.24996 12.8214 6.24996 12.8169 6.25 12.8124V10C6.25 9.58579 6.58579 9.25 7 9.25Z" fill="black"/>
</svg>
