<svg width="24" height="24" viewBox="0 0 24 24" fill="none" xmlns="http://www.w3.org/2000/svg">
<path fill-rule="evenodd" clip-rule="evenodd" d="M12 3.75C10.2051 3.75 8.75 5.20507 8.75 7C8.75 8.79493 10.2051 10.25 12 10.25C13.7949 10.25 15.25 8.79493 15.25 7C15.25 5.20507 13.7949 3.75 12 3.75ZM7.25 7C7.25 4.37665 9.37665 2.25 12 2.25C14.6234 2.25 16.75 4.37665 16.75 7C16.75 9.62335 14.6234 11.75 12 11.75C9.37665 11.75 7.25 9.62335 7.25 7ZM18.9327 9.46693C18.8502 9.55812 18.75 9.74704 18.75 10.102C18.75 10.5606 19.1206 11.0533 19.7334 11.5092C20.0148 11.7186 20.3007 11.885 20.5187 11.9996C20.5368 12.0091 20.5544 12.0183 20.5714 12.027C20.5884 12.0183 20.606 12.0091 20.6242 11.9996C20.8421 11.885 21.1281 11.7186 21.4094 11.5092C22.0222 11.0533 22.3929 10.5606 22.3929 10.102C22.3929 9.75049 22.2921 9.56116 22.2077 9.46841C22.1263 9.37891 22.0092 9.32143 21.8441 9.32143C21.6918 9.32143 21.5499 9.38043 21.4485 9.47901L21.2999 9.6235C20.8965 10.0157 20.2464 10.0157 19.843 9.6235L19.6943 9.47901C19.5929 9.38043 19.451 9.32143 19.2988 9.32143C19.1266 9.32143 19.0111 9.38025 18.9327 9.46693ZM20.5714 12.8571C20.283 13.5494 20.2828 13.5494 20.2826 13.5493L20.2821 13.5491L20.281 13.5486L20.278 13.5474L20.2694 13.5437L20.2414 13.5316C20.2181 13.5214 20.1857 13.5069 20.1456 13.4883C20.0654 13.4511 19.9536 13.3972 19.8206 13.3273C19.5564 13.1884 19.1995 12.9816 18.838 12.7127C18.1651 12.212 17.25 11.327 17.25 10.102C17.25 9.46208 17.4356 8.88573 17.8206 8.46035C18.2097 8.03046 18.7436 7.82143 19.2988 7.82143C19.7607 7.82143 20.2094 7.97486 20.5714 8.25677C20.9334 7.97486 21.3821 7.82143 21.8441 7.82143C22.3963 7.82143 22.9286 8.0318 23.3172 8.45887C23.7028 8.88269 23.8929 9.45863 23.8929 10.102C23.8929 11.327 22.9778 12.212 22.3049 12.7127C21.9434 12.9816 21.5864 13.1884 21.3223 13.3273C21.1892 13.3972 21.0774 13.4511 20.9973 13.4883C20.9571 13.5069 20.9248 13.5214 20.9015 13.5316L20.8735 13.5437L20.8648 13.5474L20.8619 13.5486L20.8608 13.5491L20.8603 13.5493C20.8601 13.5494 20.8599 13.5494 20.5714 12.8571ZM20.5714 12.8571L20.8599 13.5494C20.6753 13.6264 20.4676 13.6264 20.283 13.5494L20.5714 12.8571ZM11.8713 13.75C11.9161 13.7501 11.959 13.7501 12 13.7501C12.041 13.7501 12.0839 13.7501 12.1287 13.75C13.1554 13.749 15.1638 13.7469 16.9522 14.2476C17.8893 14.5099 18.832 14.9271 19.5489 15.6108C20.2881 16.3158 20.75 17.2708 20.75 18.5001C20.75 20.295 19.2949 21.7501 17.5 21.7501H6.5C4.70507 21.7501 3.25 20.295 3.25 18.5001C3.25 17.2708 3.7119 16.3158 4.45112 15.6108C5.16804 14.9271 6.11067 14.5099 7.04781 14.2476C8.83624 13.7469 10.8446 13.749 11.8713 13.75ZM5.48638 16.6963C5.0381 17.1238 4.75 17.689 4.75 18.5001C4.75 19.4666 5.5335 20.2501 6.5 20.2501H17.5C18.4665 20.2501 19.25 19.4666 19.25 18.5001C19.25 17.689 18.9619 17.1238 18.5136 16.6963C18.043 16.2475 17.3607 15.9196 16.5478 15.6921C14.9644 15.2488 13.1362 15.2496 12.0964 15.2501C12.0634 15.2501 12.0313 15.2501 12 15.2501C11.9687 15.2501 11.9366 15.2501 11.9036 15.2501C10.8638 15.2496 9.03559 15.2488 7.45219 15.6921C6.63933 15.9196 5.95696 16.2475 5.48638 16.6963Z" fill="black"/>
</svg>
