<svg width="24" height="24" viewBox="0 0 24 24" fill="none" xmlns="http://www.w3.org/2000/svg">
<path fill-rule="evenodd" clip-rule="evenodd" d="M12 3.75C7.44365 3.75 3.75 7.44365 3.75 12C3.75 13.9467 4.42428 15.736 5.55203 17.147C5.66694 16.8764 5.81274 16.6256 5.98611 16.3946C6.4478 15.7795 7.07627 15.3426 7.7489 15.033C9.07938 14.4206 10.7049 14.25 12 14.25C13.2951 14.25 14.9206 14.4206 16.2511 15.033C16.9237 15.3426 17.5522 15.7795 18.0139 16.3946C18.1873 16.6256 18.3331 16.8764 18.448 17.147C19.5757 15.736 20.25 13.9467 20.25 12C20.25 7.44365 16.5563 3.75 12 3.75ZM17.2325 18.3787C17.1827 17.9338 17.0299 17.5824 16.8142 17.295C16.5415 16.9317 16.1388 16.6326 15.6239 16.3956C14.5794 15.9148 13.2049 15.75 12 15.75C10.7951 15.75 9.42062 15.9148 8.3761 16.3956C7.86123 16.6326 7.45845 16.9318 7.18577 17.295C6.97009 17.5824 6.81726 17.9338 6.76749 18.3787C8.19135 19.548 10.0137 20.25 12 20.25C13.9863 20.25 15.8087 19.548 17.2325 18.3787ZM2.25 12C2.25 6.61522 6.61522 2.25 12 2.25C17.3848 2.25 21.75 6.61522 21.75 12C21.75 17.3848 17.3848 21.75 12 21.75C6.61522 21.75 2.25 17.3848 2.25 12ZM12 6.75C10.7574 6.75 9.75 7.75736 9.75 9C9.75 10.2426 10.7574 11.25 12 11.25C13.2426 11.25 14.25 10.2426 14.25 9C14.25 7.75736 13.2426 6.75 12 6.75ZM8.25 9C8.25 6.92893 9.92893 5.25 12 5.25C14.0711 5.25 15.75 6.92893 15.75 9C15.75 11.0711 14.0711 12.75 12 12.75C9.92893 12.75 8.25 11.0711 8.25 9Z" fill="black"/>
</svg>
