<svg width="24" height="24" viewBox="0 0 24 24" fill="none" xmlns="http://www.w3.org/2000/svg">
<path fill-rule="evenodd" clip-rule="evenodd" d="M3.25 8C3.25 5.92893 4.92893 4.25 7 4.25C7.41421 4.25 7.75 4.58579 7.75 5C7.75 5.41421 7.41421 5.75 7 5.75C5.75736 5.75 4.75 6.75736 4.75 8C4.75 9.24264 5.75736 10.25 7 10.25C7.41421 10.25 7.75 10.5858 7.75 11C7.75 11.4142 7.41421 11.75 7 11.75C4.92893 11.75 3.25 10.0711 3.25 8ZM12 5.75C10.7574 5.75 9.75 6.75736 9.75 8C9.75 9.24264 10.7574 10.25 12 10.25C13.2426 10.25 14.25 9.24264 14.25 8C14.25 6.75736 13.2426 5.75 12 5.75ZM8.25 8C8.25 5.92893 9.92893 4.25 12 4.25C14.0711 4.25 15.75 5.92893 15.75 8C15.75 10.0711 14.0711 11.75 12 11.75C9.92893 11.75 8.25 10.0711 8.25 8ZM16.25 5C16.25 4.58579 16.5858 4.25 17 4.25C19.0711 4.25 20.75 5.92893 20.75 8C20.75 10.0711 19.0711 11.75 17 11.75C16.5858 11.75 16.25 11.4142 16.25 11C16.25 10.5858 16.5858 10.25 17 10.25C18.2426 10.25 19.25 9.24264 19.25 8C19.25 6.75736 18.2426 5.75 17 5.75C16.5858 5.75 16.25 5.41421 16.25 5ZM2.68807 15.7313C2.05865 16.3291 1.75 17.0205 1.75 17.5C1.75 17.9142 2.08579 18.25 2.5 18.25H3C3.41421 18.25 3.75 18.5858 3.75 19C3.75 19.4142 3.41421 19.75 3 19.75H2.5C1.25736 19.75 0.25 18.7426 0.25 17.5C0.25 16.4795 0.836778 15.4209 1.65508 14.6437C2.48951 13.8512 3.66684 13.25 5 13.25C5.41421 13.25 5.75 13.5858 5.75 14C5.75 14.4142 5.41421 14.75 5 14.75C4.12402 14.75 3.30135 15.1488 2.68807 15.7313ZM7.53959 14.1417C8.80623 13.5084 10.4344 13.25 12 13.25C13.5656 13.25 15.1938 13.5084 16.4604 14.1417C17.7483 14.7856 18.75 15.8766 18.75 17.5C18.75 18.7426 17.7426 19.75 16.5 19.75H7.5C6.25736 19.75 5.25 18.7426 5.25 17.5C5.25 15.8766 6.25169 14.7856 7.53959 14.1417ZM8.21041 15.4833C7.24831 15.9644 6.75 16.6234 6.75 17.5C6.75 17.9142 7.08579 18.25 7.5 18.25H16.5C16.9142 18.25 17.25 17.9142 17.25 17.5C17.25 16.6234 16.7517 15.9644 15.7896 15.4833C14.8062 14.9916 13.4344 14.75 12 14.75C10.5656 14.75 9.19377 14.9916 8.21041 15.4833ZM18.25 14C18.25 13.5858 18.5858 13.25 19 13.25C20.3332 13.25 21.5105 13.8512 22.3449 14.6437C23.1632 15.4209 23.75 16.4795 23.75 17.5C23.75 18.7426 22.7426 19.75 21.5 19.75H21C20.5858 19.75 20.25 19.4142 20.25 19C20.25 18.5858 20.5858 18.25 21 18.25H21.5C21.9142 18.25 22.25 17.9142 22.25 17.5C22.25 17.0205 21.9413 16.3291 21.3119 15.7313C20.6986 15.1488 19.876 14.75 19 14.75C18.5858 14.75 18.25 14.4142 18.25 14Z" fill="black"/>
</svg>
