<svg width="24" height="24" viewBox="0 0 24 24" fill="none" xmlns="http://www.w3.org/2000/svg">
<path fill-rule="evenodd" clip-rule="evenodd" d="M9 3.75C7.20507 3.75 5.75 5.20507 5.75 7C5.75 8.79493 7.20507 10.25 9 10.25C10.7949 10.25 12.25 8.79493 12.25 7C12.25 5.20507 10.7949 3.75 9 3.75ZM4.25 7C4.25 4.37665 6.37665 2.25 9 2.25C11.6234 2.25 13.75 4.37665 13.75 7C13.75 9.62335 11.6234 11.75 9 11.75C6.37665 11.75 4.25 9.62335 4.25 7ZM14.25 3C14.25 2.58579 14.5858 2.25 15 2.25C17.6234 2.25 19.75 4.37665 19.75 7C19.75 9.62335 17.6234 11.75 15 11.75C14.5858 11.75 14.25 11.4142 14.25 11C14.25 10.5858 14.5858 10.25 15 10.25C16.7949 10.25 18.25 8.79493 18.25 7C18.25 5.20507 16.7949 3.75 15 3.75C14.5858 3.75 14.25 3.41421 14.25 3ZM8.87132 13.75C8.91611 13.7501 8.95904 13.7501 9 13.7501C9.04096 13.7501 9.08389 13.7501 9.12869 13.75C10.1554 13.749 12.1638 13.7469 13.9522 14.2476C14.8893 14.5099 15.832 14.9271 16.5489 15.6108C17.2881 16.3158 17.75 17.2708 17.75 18.5001C17.75 20.295 16.2949 21.7501 14.5 21.7501H3.5C1.70507 21.7501 0.25 20.295 0.25 18.5001C0.25 17.2708 0.7119 16.3158 1.45112 15.6108C2.16804 14.9271 3.11067 14.5099 4.04781 14.2476C5.83624 13.7469 7.84456 13.749 8.87132 13.75ZM2.48638 16.6963C2.0381 17.1238 1.75 17.689 1.75 18.5001C1.75 19.4666 2.5335 20.2501 3.5 20.2501H14.5C15.4665 20.2501 16.25 19.4666 16.25 18.5001C16.25 17.689 15.9619 17.1238 15.5136 16.6963C15.043 16.2475 14.3607 15.9196 13.5478 15.6921C11.9644 15.2488 10.1362 15.2496 9.09636 15.2501C9.06344 15.2501 9.03131 15.2501 9 15.2501C8.96869 15.2501 8.93656 15.2501 8.90364 15.2501C7.86377 15.2496 6.0356 15.2488 4.45219 15.6921C3.63933 15.9196 2.95696 16.2475 2.48638 16.6963ZM18.2644 14.6455C18.3451 14.2393 18.7399 13.9754 19.1462 14.0561C20.2215 14.2699 21.3542 14.6459 22.2318 15.3363C23.1421 16.0524 23.75 17.0885 23.75 18.5C23.75 20.2949 22.2949 21.75 20.5 21.75C20.0858 21.75 19.75 21.4142 19.75 21C19.75 20.5858 20.0858 20.25 20.5 20.25C21.4665 20.25 22.25 19.4665 22.25 18.5C22.25 17.584 21.882 16.9696 21.3044 16.5152C20.694 16.0351 19.8267 15.7207 18.8538 15.5274C18.4475 15.4466 18.1836 15.0518 18.2644 14.6455Z" fill="black"/>
</svg>
