<svg width="24" height="24" viewBox="0 0 24 24" fill="none" xmlns="http://www.w3.org/2000/svg">
<path fill-rule="evenodd" clip-rule="evenodd" d="M12 3.75C10.2051 3.75 8.75 5.20507 8.75 7C8.75 8.79493 10.2051 10.25 12 10.25C13.7949 10.25 15.25 8.79493 15.25 7C15.25 5.20507 13.7949 3.75 12 3.75ZM7.25 7C7.25 4.37665 9.37665 2.25 12 2.25C14.6234 2.25 16.75 4.37665 16.75 7C16.75 9.62335 14.6234 11.75 12 11.75C9.37665 11.75 7.25 9.62335 7.25 7ZM21 6.75C20.4015 6.75 19.8701 7.17411 19.7273 7.7415C19.6262 8.14319 19.2186 8.38686 18.8169 8.28576C18.4153 8.18466 18.1716 7.77707 18.2727 7.37538C18.581 6.15033 19.7049 5.25 21 5.25C22.5675 5.25 23.75 6.54779 23.75 8.07792C23.75 9.21634 22.9549 9.79559 22.482 10.1401C22.4685 10.1499 22.4553 10.1595 22.4424 10.1689C21.8868 10.5748 21.75 10.7206 21.75 11C21.75 11.4142 21.4142 11.75 21 11.75C20.5858 11.75 20.25 11.4142 20.25 11C20.25 9.90483 21.034 9.33702 21.4923 9.00509C21.5149 8.98873 21.5367 8.97294 21.5576 8.9577C22.0911 8.56799 22.25 8.4006 22.25 8.07792C22.25 7.31284 21.677 6.75 21 6.75ZM21 12.25C21.4142 12.25 21.75 12.5858 21.75 13V13.01C21.75 13.4242 21.4142 13.76 21 13.76C20.5858 13.76 20.25 13.4242 20.25 13.01V13C20.25 12.5858 20.5858 12.25 21 12.25ZM11.8713 13.75C11.9161 13.7501 11.959 13.7501 12 13.7501C12.041 13.7501 12.0839 13.7501 12.1287 13.75C13.1554 13.749 15.1638 13.7469 16.9522 14.2476C17.8893 14.5099 18.832 14.9271 19.5489 15.6108C20.2881 16.3158 20.75 17.2708 20.75 18.5001C20.75 20.295 19.2949 21.7501 17.5 21.7501H6.5C4.70507 21.7501 3.25 20.295 3.25 18.5001C3.25 17.2708 3.7119 16.3158 4.45112 15.6108C5.16804 14.9271 6.11067 14.5099 7.04781 14.2476C8.83624 13.7469 10.8446 13.749 11.8713 13.75ZM5.48638 16.6963C5.0381 17.1238 4.75 17.689 4.75 18.5001C4.75 19.4666 5.5335 20.2501 6.5 20.2501H17.5C18.4665 20.2501 19.25 19.4666 19.25 18.5001C19.25 17.689 18.9619 17.1238 18.5136 16.6963C18.043 16.2475 17.3607 15.9196 16.5478 15.6921C14.9644 15.2488 13.1362 15.2496 12.0964 15.2501C12.0634 15.2501 12.0313 15.2501 12 15.2501C11.9687 15.2501 11.9366 15.2501 11.9036 15.2501C10.8638 15.2496 9.0356 15.2488 7.45219 15.6921C6.63933 15.9196 5.95696 16.2475 5.48638 16.6963Z" fill="black"/>
</svg>
