<svg width="24" height="24" viewBox="0 0 24 24" fill="none" xmlns="http://www.w3.org/2000/svg">
<path fill-rule="evenodd" clip-rule="evenodd" d="M12 3.75C10.2051 3.75 8.75 5.20507 8.75 7C8.75 8.79493 10.2051 10.25 12 10.25C13.7949 10.25 15.25 8.79493 15.25 7C15.25 5.20507 13.7949 3.75 12 3.75ZM7.25 7C7.25 4.37665 9.37665 2.25 12 2.25C14.6234 2.25 16.75 4.37665 16.75 7C16.75 9.62335 14.6234 11.75 12 11.75C9.37665 11.75 7.25 9.62335 7.25 7ZM11.8713 13.75C11.9161 13.7501 11.959 13.7501 12 13.7501C12.041 13.7501 12.0839 13.7501 12.1287 13.75C13.1554 13.749 15.1638 13.7469 16.9522 14.2476C17.8893 14.5099 18.832 14.9271 19.5489 15.6108C20.2881 16.3158 20.75 17.2708 20.75 18.5001C20.75 20.295 19.2949 21.7501 17.5 21.7501H6.5C4.70507 21.7501 3.25 20.295 3.25 18.5001C3.25 17.2708 3.7119 16.3158 4.45112 15.6108C5.16804 14.9271 6.11067 14.5099 7.04781 14.2476C8.83624 13.7469 10.8446 13.749 11.8713 13.75ZM5.48638 16.6963C5.0381 17.1238 4.75 17.689 4.75 18.5001C4.75 19.4666 5.5335 20.2501 6.5 20.2501H17.5C18.4665 20.2501 19.25 19.4666 19.25 18.5001C19.25 17.689 18.9619 17.1238 18.5136 16.6963C18.043 16.2475 17.3607 15.9196 16.5478 15.6921C14.9644 15.2488 13.1362 15.2496 12.0964 15.2501C12.0634 15.2501 12.0313 15.2501 12 15.2501C11.9687 15.2501 11.9366 15.2501 11.9036 15.2501C10.8638 15.2496 9.0356 15.2488 7.45219 15.6921C6.63933 15.9196 5.95696 16.2475 5.48638 16.6963Z" fill="black"/>
</svg>
