<svg width="24" height="24" viewBox="0 0 24 24" fill="none" xmlns="http://www.w3.org/2000/svg">
<path fill-rule="evenodd" clip-rule="evenodd" d="M12 1.75C12.4142 1.75 12.75 2.08579 12.75 2.5V4.28582C13.6194 4.36931 14.4468 4.59643 15.2083 4.94317L16.1006 3.39771C16.3077 3.03899 16.7663 2.91608 17.1251 3.12319C17.4838 3.33029 17.6067 3.78899 17.3996 4.14771L16.5067 5.69431C17.2005 6.19108 17.8089 6.79953 18.3057 7.49338L19.8523 6.60048C20.211 6.39337 20.6697 6.51628 20.8768 6.875C21.0839 7.23372 20.961 7.69241 20.6023 7.89952L19.0568 8.79176C19.4036 9.55321 19.6307 10.3806 19.7142 11.25H21.5C21.9142 11.25 22.25 11.5858 22.25 12C22.25 12.4142 21.9142 12.75 21.5 12.75H19.7142C19.6307 13.6194 19.4036 14.4468 19.0568 15.2082L20.6023 16.1005C20.961 16.3076 21.0839 16.7663 20.8768 17.125C20.6697 17.4837 20.211 17.6066 19.8523 17.3995L18.3057 16.5066C17.8089 17.2005 17.2005 17.8089 16.5066 18.3057L17.3996 19.8523C17.6067 20.211 17.4838 20.6697 17.1251 20.8768C16.7663 21.0839 16.3076 20.961 16.1005 20.6023L15.2083 19.0568C14.4468 19.4036 13.6194 19.6307 12.75 19.7142V21.5C12.75 21.9142 12.4142 22.25 12 22.25C11.5858 22.25 11.25 21.9142 11.25 21.5V19.7142C10.3806 19.6307 9.5532 19.4036 8.79174 19.0568L7.89946 20.6023C7.69235 20.961 7.23366 21.0839 6.87494 20.8768C6.51622 20.6697 6.39331 20.211 6.60042 19.8523L7.49336 18.3057C6.7995 17.8089 6.19105 17.2005 5.69427 16.5066L4.14771 17.3995C3.78899 17.6066 3.33029 17.4837 3.12319 17.125C2.91608 16.7663 3.03899 16.3076 3.39771 16.1005L4.94315 15.2082C4.59642 14.4468 4.36931 13.6194 4.28582 12.75H2.5C2.08579 12.75 1.75 12.4142 1.75 12C1.75 11.5858 2.08579 11.25 2.5 11.25H4.28582C4.36931 10.3806 4.59642 9.55321 4.94316 8.79175L3.39777 7.89952C3.03905 7.69241 2.91614 7.23372 3.12325 6.875C3.33035 6.51628 3.78905 6.39337 4.14777 6.60048L5.69429 7.49337C6.19106 6.79952 6.7995 6.19107 7.49335 5.6943L6.60042 4.14771C6.39331 3.78899 6.51622 3.33029 6.87494 3.12319C7.23366 2.91608 7.69235 3.03899 7.89946 3.39771L8.79173 4.94317C9.55319 4.59643 10.3806 4.36931 11.25 4.28582V2.5C11.25 2.08579 11.5858 1.75 12 1.75ZM8.84371 6.60436C8.8542 6.59894 8.86461 6.59325 8.87494 6.58729C8.88564 6.58111 8.89613 6.57471 8.90641 6.56809C9.81857 6.04748 10.8745 5.75 12 5.75C13.1255 5.75 14.1815 6.04749 15.0937 6.56813C15.1039 6.57473 15.1144 6.58112 15.1251 6.58729C15.1354 6.59324 15.1458 6.59892 15.1562 6.60432C16.0805 7.14613 16.8531 7.91862 17.3951 8.84275C17.4007 8.85358 17.4065 8.86433 17.4127 8.875C17.419 8.88603 17.4257 8.89685 17.4325 8.90743C17.9527 9.81936 18.25 10.875 18.25 12C18.25 13.125 17.9527 14.1806 17.4325 15.0926C17.4257 15.1031 17.419 15.114 17.4127 15.125C17.4065 15.1357 17.4007 15.1464 17.3951 15.1573C16.853 16.0815 16.0803 16.854 15.1559 17.3958C15.1456 17.4012 15.1353 17.4068 15.1251 17.4127C15.1145 17.4188 15.1041 17.4252 15.0939 17.4317C14.1817 17.9525 13.1256 18.25 12 18.25C10.8744 18.25 9.81832 17.9525 8.90609 17.4317C8.89591 17.4252 8.88553 17.4188 8.87494 17.4127C8.86472 17.4068 8.85443 17.4012 8.84406 17.3958C7.91952 16.8539 7.14667 16.0812 6.60463 15.1567C6.59913 15.1461 6.59335 15.1355 6.58729 15.125C6.58101 15.1141 6.57451 15.1035 6.56778 15.093C6.04736 14.181 5.75 13.1252 5.75 12C5.75 10.8751 6.04718 9.81961 6.56732 8.90776C6.57423 8.89707 6.58091 8.88615 6.58735 8.875C6.59357 8.86422 6.5995 8.85335 6.60513 8.8424C7.14708 7.91845 7.91961 7.1461 8.84371 6.60436ZM13 8.75C12.3096 8.75 11.75 9.30964 11.75 10C11.75 10.6904 12.3096 11.25 13 11.25C13.6904 11.25 14.25 10.6904 14.25 10C14.25 9.30964 13.6904 8.75 13 8.75ZM10.25 10C10.25 8.48122 11.4812 7.25 13 7.25C14.5188 7.25 15.75 8.48122 15.75 10C15.75 11.5188 14.5188 12.75 13 12.75C11.4812 12.75 10.25 11.5188 10.25 10ZM8 10.25C8.41421 10.25 8.75 10.5858 8.75 11V11.01C8.75 11.4242 8.41421 11.76 8 11.76C7.58579 11.76 7.25 11.4242 7.25 11.01V11C7.25 10.5858 7.58579 10.25 8 10.25ZM10 14.75C9.86193 14.75 9.75 14.8619 9.75 15C9.75 15.1381 9.86193 15.25 10 15.25C10.1381 15.25 10.25 15.1381 10.25 15C10.25 14.8619 10.1381 14.75 10 14.75ZM8.25 15C8.25 14.0335 9.0335 13.25 10 13.25C10.9665 13.25 11.75 14.0335 11.75 15C11.75 15.9665 10.9665 16.75 10 16.75C9.0335 16.75 8.25 15.9665 8.25 15ZM15 14.25C15.4142 14.25 15.75 14.5858 15.75 15V15.01C15.75 15.4242 15.4142 15.76 15 15.76C14.5858 15.76 14.25 15.4242 14.25 15.01V15C14.25 14.5858 14.5858 14.25 15 14.25Z" fill="black"/>
</svg>
