<svg width="24" height="24" viewBox="0 0 24 24" fill="none" xmlns="http://www.w3.org/2000/svg">
<path fill-rule="evenodd" clip-rule="evenodd" d="M4.029 6.33046C4.01223 6.36557 3.99187 6.41285 3.96872 6.4743C3.89229 6.67712 3.81057 6.96636 3.73023 7.32803C3.5705 8.04707 3.43283 8.97606 3.34621 9.90316C3.28523 10.5558 3.25 11.2656 3.25 12.0001C3.25 13.4038 3.37864 14.8409 3.56923 15.961C3.66484 16.5229 3.77292 16.9864 3.88109 17.3185C3.93387 17.4806 3.98118 17.5941 4.01849 17.6662C4.03892 17.6728 4.06504 17.6808 4.0977 17.6899C4.22479 17.7253 4.40245 17.7641 4.63244 17.8041C5.09084 17.8838 5.71156 17.9606 6.45903 18.0273C7.95144 18.1605 9.90817 18.25 12 18.25C14.0918 18.25 16.0486 18.1605 17.541 18.0273C18.2884 17.9606 18.9092 17.8838 19.3676 17.8041C19.5975 17.7641 19.7752 17.7253 19.9023 17.6899C19.9244 17.6838 19.9435 17.6781 19.9599 17.673C19.9662 17.6587 19.9732 17.6423 19.9807 17.6238C20.0385 17.4805 20.1032 17.2722 20.1705 17.0061C20.263 16.6406 20.3509 16.2039 20.4294 15.75H14.0176C11.9409 15.75 10.25 14.0752 10.25 12C10.25 9.92481 11.9409 8.25 14.0176 8.25H20.4294C20.3509 7.79608 20.2629 7.35943 20.1705 6.99398C20.1032 6.72787 20.0385 6.51951 19.9807 6.37625C19.9732 6.35768 19.9662 6.3413 19.9599 6.32697C19.9435 6.32189 19.9244 6.31624 19.9023 6.31009C19.7752 6.27475 19.5975 6.23594 19.3676 6.19594C18.9092 6.1162 18.2884 6.03943 17.541 5.97273C16.0486 5.83954 14.0918 5.75 12 5.75C9.90817 5.75 7.95144 5.83954 6.45903 5.97273C5.71156 6.03943 5.09084 6.1162 4.63244 6.19594C4.40245 6.23594 4.22479 6.27475 4.0977 6.31009C4.07039 6.31768 4.04766 6.32453 4.029 6.33046ZM19.9172 6.24363C19.9172 6.2435 19.9185 6.24523 19.9209 6.24916C19.9184 6.24572 19.9172 6.24376 19.9172 6.24363ZM22.0371 8.81546C22.0287 8.75583 22.0202 8.69682 22.0114 8.63845C21.9081 7.95221 21.7753 7.22155 21.6248 6.62622C21.55 6.33061 21.4659 6.04825 21.3716 5.81461C21.3245 5.69802 21.2683 5.57694 21.2003 5.46611C21.1389 5.36601 21.0338 5.2167 20.868 5.10324C20.6927 4.9833 20.4736 4.91204 20.3042 4.86493C20.1117 4.81141 19.8812 4.76276 19.6246 4.71813C19.1099 4.6286 18.4442 4.54737 17.6743 4.47866C16.132 4.34102 14.1304 4.25 12 4.25C9.86961 4.25 7.868 4.34102 6.32569 4.47866C5.5558 4.54737 4.89006 4.6286 4.37537 4.71813C4.11882 4.76276 3.88827 4.81141 3.69581 4.86493C3.52642 4.91204 3.30734 4.9833 3.13204 5.10324C2.94871 5.22868 2.83241 5.39955 2.76278 5.51845C2.68565 5.65016 2.62069 5.79775 2.56506 5.9454C2.45345 6.2416 2.35376 6.60735 2.26592 7.00274C2.0893 7.79782 1.94357 8.79123 1.85271 9.76361C1.78744 10.4622 1.75 11.2186 1.75 12.0001C1.75 13.4852 1.88525 15.0064 2.09049 16.2126C2.1928 16.8139 2.31562 17.3556 2.45484 17.7831C2.52415 17.9958 2.60338 18.1987 2.69545 18.373C2.77725 18.528 2.9129 18.7468 3.13204 18.8968C3.30734 19.0167 3.52642 19.088 3.69581 19.1351C3.88827 19.1886 4.11882 19.2372 4.37537 19.2819C4.89006 19.3714 5.5558 19.4526 6.32569 19.5213C7.868 19.659 9.86961 19.75 12 19.75C14.1304 19.75 16.132 19.659 17.6743 19.5213C18.4442 19.4526 19.1099 19.3714 19.6246 19.2819C19.8812 19.2372 20.1117 19.1886 20.3042 19.1351C20.4736 19.088 20.6927 19.0167 20.868 18.8968C21.0338 18.7833 21.1389 18.634 21.2003 18.5339C21.2683 18.4231 21.3245 18.302 21.3715 18.1854C21.4659 17.9518 21.55 17.6694 21.6247 17.3738C21.7753 16.7785 21.9081 16.0479 22.0114 15.3617C22.0202 15.3032 22.0288 15.2441 22.0372 15.1844C22.0507 15.131 22.0584 15.0752 22.0598 15.0179C22.1783 14.1161 22.25 13.0812 22.25 12.0001C22.25 11.2186 22.2126 10.4622 22.1473 9.76361C22.1221 9.49439 22.0928 9.23329 22.0598 8.98221C22.0585 8.9248 22.0507 8.86898 22.0371 8.81546ZM20.6389 9.75H14.0176C12.7611 9.75 11.75 10.7615 11.75 12C11.75 13.2385 12.7611 14.25 14.0176 14.25H20.6389C20.7089 13.5571 20.75 12.7935 20.75 12.0001C20.75 11.2656 20.7148 10.5558 20.6538 9.90316C20.649 9.85173 20.644 9.80067 20.6389 9.75ZM19.9172 17.7564C19.9172 17.7562 19.9184 17.7543 19.9209 17.7508C19.9185 17.7548 19.9172 17.7565 19.9172 17.7564ZM4.05273 17.7243C4.05272 17.7244 4.05199 17.7235 4.05059 17.7215C4.05204 17.7233 4.05274 17.7243 4.05273 17.7243ZM4.06439 6.26465C4.06707 6.26053 4.06847 6.25872 4.0685 6.25885C4.06853 6.25898 4.06719 6.26105 4.06439 6.26465ZM14 11.25C14.4142 11.25 14.75 11.5858 14.75 12V12.01C14.75 12.4242 14.4142 12.76 14 12.76C13.5858 12.76 13.25 12.4242 13.25 12.01V12C13.25 11.5858 13.5858 11.25 14 11.25Z" fill="black"/>
</svg>
