<svg width="24" height="24" viewBox="0 0 24 24" fill="none" xmlns="http://www.w3.org/2000/svg">
<path fill-rule="evenodd" clip-rule="evenodd" d="M12.6284 4.39161C12.2592 4.09871 11.7408 4.09871 11.3716 4.39161C7.74493 7.26842 5.75 11.1693 5.75 14C5.75 17.9357 8.92415 20.25 12 20.25C15.0759 20.25 18.25 17.9357 18.25 14C18.25 11.1693 16.2551 7.26842 12.6284 4.39161ZM10.4394 3.21644C11.3546 2.49043 12.6454 2.49043 13.5606 3.21644C17.4282 6.28438 19.75 10.5797 19.75 14C19.75 18.9008 15.7607 21.75 12 21.75C8.23929 21.75 4.25 18.9008 4.25 14C4.25 10.5797 6.5718 6.28438 10.4394 3.21644ZM9 13.25C9.41421 13.25 9.75 13.5858 9.75 14C9.75 14.9665 10.5335 15.75 11.5 15.75C11.9142 15.75 12.25 16.0858 12.25 16.5C12.25 16.9142 11.9142 17.25 11.5 17.25C9.70507 17.25 8.25 15.7949 8.25 14C8.25 13.5858 8.58579 13.25 9 13.25Z" fill="black"/>
</svg>
