<svg width="24" height="24" fill="none" xmlns="http://www.w3.org/2000/svg"><path d="M12.9 7.259a1.438 1.438 0 0 1-.147.037c-.139.031-.339.201-.421.359-.084.161-.084.529-.001.685.035.066.686.741 1.447 1.5l1.382 1.38-4.19.02c-3.8.018-4.201.026-4.31.086a.713.713 0 0 0-.393.674c0 .307.128.528.393.674.109.06.51.068 4.31.086l4.19.02-1.382 1.38c-.761.759-1.412 1.434-1.447 1.5-.082.154-.083.524-.001.68a.849.849 0 0 0 .35.342c.138.071.515.064.66-.013.066-.035 1.068-1.014 2.228-2.176 1.507-1.511 2.116-2.147 2.138-2.233.016-.066.03-.183.03-.26 0-.077-.014-.194-.03-.26-.022-.086-.631-.722-2.138-2.233-1.16-1.162-2.153-2.136-2.208-2.165-.106-.055-.392-.107-.46-.083" fill-rule="evenodd" fill="#000"/></svg>