<svg width="24" height="24" fill="none" xmlns="http://www.w3.org/2000/svg"><path d="M13.9 5.259a1.438 1.438 0 0 1-.147.037c-.139.031-.339.201-.421.359-.084.161-.084.529-.001.685.035.066 1.136 1.191 2.447 2.5l2.382 2.38-7.19.02c-7.705.021-7.256.009-7.484.215-.15.136-.219.308-.219.545 0 .237.069.409.219.545.228.206-.221.194 7.484.215l7.19.02-2.382 2.38c-1.311 1.309-2.412 2.434-2.447 2.5-.077.145-.085.521-.013.66a.849.849 0 0 0 .342.35c.156.082.526.081.68-.001.066-.035 1.518-1.464 3.228-3.176 2.247-2.252 3.116-3.146 3.138-3.233.016-.066.03-.183.03-.26 0-.077-.014-.194-.03-.26-.022-.087-.891-.981-3.138-3.233-1.71-1.712-3.153-3.136-3.208-3.165-.106-.055-.392-.107-.46-.083" fill-rule="evenodd" fill="#000"/></svg>