<svg width="24" height="24" fill="none" xmlns="http://www.w3.org/2000/svg"><path d="M10.9 7.259a1.795 1.795 0 0 1-.16.04c-.089.019-.658.562-2.233 2.133-1.162 1.16-2.141 2.162-2.176 2.228-.083.155-.083.525 0 .68.035.066 1.014 1.068 2.176 2.228 1.498 1.494 2.148 2.116 2.233 2.138.546.143.993-.175.993-.706a.868.868 0 0 0-.064-.34c-.035-.066-.686-.741-1.447-1.5L8.84 12.78l4.19-.02c3.8-.018 4.201-.026 4.31-.086a.713.713 0 0 0 .393-.674.713.713 0 0 0-.393-.674c-.109-.06-.51-.068-4.31-.086l-4.19-.02 1.382-1.38c.761-.759 1.412-1.434 1.447-1.5.077-.145.085-.521.013-.66a.852.852 0 0 0-.322-.339c-.106-.055-.393-.106-.46-.082" fill-rule="evenodd" fill="#000"/></svg>