<svg width="24" height="24" fill="none" xmlns="http://www.w3.org/2000/svg"><path d="M11.32 2.28c-1.879.127-3.672.802-5.236 1.972-.493.368-1.464 1.339-1.832 1.832a9.794 9.794 0 0 0-1.895 4.524 10.9 10.9 0 0 0 0 2.784 9.794 9.794 0 0 0 1.895 4.524c.368.493 1.339 1.464 1.832 1.832a9.768 9.768 0 0 0 4.524 1.894 10.32 10.32 0 0 0 3.804-.2 9.913 9.913 0 0 0 3.504-1.694c.493-.369 1.463-1.339 1.832-1.832a9.763 9.763 0 0 0 1.894-4.524 10.9 10.9 0 0 0 0-2.784 9.763 9.763 0 0 0-1.894-4.524c-.369-.493-1.339-1.463-1.832-1.832-1.13-.846-2.524-1.495-3.796-1.766a10.872 10.872 0 0 0-2.8-.206m1.86 1.558a8.233 8.233 0 0 1 3.829 1.607c.425.321 1.225 1.121 1.546 1.546a8.266 8.266 0 0 1 .444 9.375 8.679 8.679 0 0 1-2.633 2.633 8.27 8.27 0 0 1-8.732 0 8.679 8.679 0 0 1-2.633-2.633c-1.51-2.435-1.659-5.493-.392-8.023.433-.864.868-1.465 1.568-2.166.879-.878 1.824-1.491 2.948-1.911a8.455 8.455 0 0 1 4.055-.428M10.9 7.259a1.795 1.795 0 0 1-.16.04c-.089.019-.658.562-2.233 2.133-1.162 1.16-2.141 2.162-2.176 2.228-.083.155-.083.525 0 .68.035.066 1.014 1.068 2.176 2.228 1.498 1.494 2.148 2.116 2.233 2.138.546.143.993-.175.993-.706a.868.868 0 0 0-.064-.34c-.035-.066-.686-.741-1.447-1.5L8.84 12.78l4.19-.02c3.8-.018 4.201-.026 4.31-.086a.713.713 0 0 0 .393-.674.713.713 0 0 0-.393-.674c-.109-.06-.51-.068-4.31-.086l-4.19-.02 1.382-1.38c.761-.759 1.412-1.434 1.447-1.5.077-.145.085-.521.013-.66a.852.852 0 0 0-.322-.339c-.106-.055-.393-.106-.46-.082" fill-rule="evenodd" fill="#000"/></svg>