<svg width="24" height="24" fill="none" xmlns="http://www.w3.org/2000/svg"><path d="M11.32 2.28c-1.879.127-3.672.802-5.236 1.972-.493.368-1.464 1.339-1.832 1.832a9.794 9.794 0 0 0-1.895 4.524 10.9 10.9 0 0 0 0 2.784 9.794 9.794 0 0 0 1.895 4.524c.368.493 1.339 1.464 1.832 1.832a9.768 9.768 0 0 0 4.524 1.894 10.32 10.32 0 0 0 3.804-.2 9.913 9.913 0 0 0 3.504-1.694c.493-.369 1.463-1.339 1.832-1.832a9.763 9.763 0 0 0 1.894-4.524 10.9 10.9 0 0 0 0-2.784 9.763 9.763 0 0 0-1.894-4.524c-.369-.493-1.339-1.463-1.832-1.832-1.13-.846-2.524-1.495-3.796-1.766a10.872 10.872 0 0 0-2.8-.206m1.86 1.558a8.233 8.233 0 0 1 3.829 1.607c.425.321 1.225 1.121 1.546 1.546a8.266 8.266 0 0 1 .444 9.375 8.679 8.679 0 0 1-2.633 2.633 8.27 8.27 0 0 1-8.732 0 8.679 8.679 0 0 1-2.633-2.633c-1.51-2.435-1.659-5.493-.392-8.023.433-.864.868-1.465 1.568-2.166.879-.878 1.824-1.491 2.948-1.911a8.455 8.455 0 0 1 4.055-.428m-1.375 2.441a.73.73 0 0 0-.527.544c-.02.089-.037 1.94-.037 4.256l-.001 4.1-1.43-1.427c-.998-.995-1.466-1.436-1.55-1.458-.545-.143-.993.175-.993.706 0 .124.028.272.064.34.035.066 1.014 1.068 2.176 2.228 1.511 1.507 2.147 2.116 2.233 2.138a1.2 1.2 0 0 0 .52 0c.086-.022.722-.631 2.233-2.138 1.162-1.16 2.141-2.162 2.176-2.228.082-.154.083-.524.001-.68a.849.849 0 0 0-.35-.342c-.139-.072-.515-.064-.66.013-.066.035-.741.686-1.5 1.447l-1.38 1.382-.02-4.19c-.021-4.476-.011-4.259-.215-4.484-.167-.185-.476-.271-.74-.207" fill-rule="evenodd" fill="#000"/></svg>