<svg width="24" height="24" fill="none" xmlns="http://www.w3.org/2000/svg"><path d="M9.9 5.259a1.795 1.795 0 0 1-.16.04c-.09.019-.889.794-3.233 3.133-1.712 1.71-3.14 3.16-3.174 3.224-.068.129-.087.42-.04.604.023.086.911 1.001 3.139 3.233 1.71 1.712 3.162 3.141 3.228 3.176.154.082.524.083.68.001a.849.849 0 0 0 .342-.35c.072-.139.064-.515-.013-.66-.035-.066-1.136-1.191-2.447-2.5L5.84 12.78l7.19-.02c7.705-.021 7.256-.009 7.484-.215.15-.136.219-.308.219-.545 0-.237-.069-.409-.219-.545-.228-.206.221-.194-7.484-.215l-7.19-.02 2.382-2.38c1.311-1.309 2.412-2.434 2.447-2.5.077-.145.085-.521.013-.66a.852.852 0 0 0-.322-.339c-.106-.055-.393-.106-.46-.082" fill-rule="evenodd" fill="#000"/></svg>