<svg width="24" height="24" fill="none" xmlns="http://www.w3.org/2000/svg"><path d="M11.805 6.279a.73.73 0 0 0-.527.544c-.02.089-.037 1.94-.037 4.256l-.001 4.1-1.43-1.427c-.998-.995-1.466-1.436-1.55-1.458-.545-.143-.993.175-.993.706 0 .124.028.272.064.34.035.066 1.014 1.068 2.176 2.228 1.511 1.507 2.147 2.116 2.233 2.138a1.2 1.2 0 0 0 .52 0c.086-.022.722-.631 2.233-2.138 1.162-1.16 2.141-2.162 2.176-2.228.082-.154.083-.524.001-.68a.849.849 0 0 0-.35-.342c-.139-.072-.515-.064-.66.013-.066.035-.741.686-1.5 1.447l-1.38 1.382-.02-4.19c-.021-4.476-.011-4.259-.215-4.484-.167-.185-.476-.271-.74-.207" fill-rule="evenodd" fill="#000"/></svg>