<svg width="24" height="24" fill="none" xmlns="http://www.w3.org/2000/svg"><path d="M14.58 2.285a4.595 4.595 0 0 0-2.14.827c-.356.266-8.739 8.194-8.947 8.46-.909 1.171-1.322 2.507-1.209 3.912.178 2.223 1.662 4.092 3.897 4.91.934.342 2.294.434 3.319.226.968-.197 2.017-.703 2.74-1.322.597-.511 8.371-7.882 8.427-7.991.165-.32.019-.799-.299-.977-.217-.123-.535-.122-.734 0-.081.05-1.962 1.802-4.18 3.894a831.111 831.111 0 0 1-4.221 3.966c-.453.389-1.155.742-1.826.917-.52.135-1.382.171-1.912.078-.977-.17-1.771-.559-2.442-1.197A4.162 4.162 0 0 1 3.895 16.1c-.098-.326-.109-.423-.112-1.02-.004-.773.062-1.086.36-1.716.356-.753.307-.703 4.775-4.919 2.276-2.148 4.247-3.993 4.38-4.101.461-.374 1.079-.584 1.721-.584.859 0 1.492.258 2.066.84.616.626.848 1.466.636 2.296-.111.434-.285.735-.637 1.104-.167.174-2.086 1.995-4.264 4.044-2.7 2.542-4.013 3.751-4.126 3.802-.404.181-.844.116-1.155-.171-.298-.275-.373-.643-.204-.999.043-.091 1.409-1.404 3.88-3.732 2.41-2.269 3.838-3.642 3.879-3.729.076-.158.087-.499.021-.628a1.066 1.066 0 0 0-.363-.371c-.133-.069-.54-.071-.664-.002-.05.028-1.823 1.682-3.94 3.676-2.865 2.699-3.891 3.69-4.017 3.878-.247.368-.336.654-.36 1.152-.035.77.147 1.243.687 1.78.233.232.405.362.622.471.905.454 2.059.322 2.801-.32.122-.105 2.06-1.924 4.307-4.041 2.523-2.378 4.164-3.954 4.291-4.12.255-.337.569-.969.689-1.39.079-.277.091-.412.091-1 0-.59-.012-.722-.092-1-.486-1.689-1.932-2.858-3.741-3.021a7.806 7.806 0 0 0-.446-.032l-.4.038" fill-rule="evenodd" fill="#000"/></svg>