<svg width="24" height="24" fill="none" xmlns="http://www.w3.org/2000/svg"><path d="M8.9 3.259a1.795 1.795 0 0 1-.16.04c-.09.019-.889.794-3.233 3.133-1.712 1.71-3.136 3.153-3.164 3.208a1.117 1.117 0 0 0-.078.237c-.037.198 1.989 10.329 2.103 10.516a.962.962 0 0 0 .244.24l.162.107h14.452l.162-.107a.962.962 0 0 0 .244-.24c.106-.174 2.143-10.331 2.106-10.501a10.131 10.131 0 0 0-.046-.192c-.026-.102-6.191-6.283-6.352-6.369-.154-.082-.524-.083-.68-.001a.847.847 0 0 0-.339.345c-.058.112-.072.414-.028.585.023.086.729.818 2.459 2.55l2.427 2.43H4.821l2.427-2.43c1.73-1.732 2.436-2.464 2.459-2.55.131-.502-.128-.926-.607-.993a.725.725 0 0 0-.2-.008m11.167 7.591c-.012.05-.394 1.958-.85 4.24l-.829 4.15H5.612l-.829-4.15c-.456-2.282-.838-4.19-.85-4.24l-.022-.09h16.178l-.022.09" fill-rule="evenodd" fill="#000"/></svg>