<svg width="24" height="24" fill="none" xmlns="http://www.w3.org/2000/svg"><path d="M11.5 2.282c-1.2.087-2.36.509-3.38 1.23-.487.344-1.264 1.121-1.608 1.608a6.847 6.847 0 0 0-1.05 2.273c-.138.546-.175.861-.221 1.892-.047 1.052-.111 1.595-.301 2.535-.296 1.47-.909 3.361-1.472 4.54-.273.572-.276.863-.013 1.154.211.232.131.225 2.549.238l2.224.011.046.489c.056.591.125.865.326 1.296.399.854.94 1.406 1.78 1.813a3.21 3.21 0 0 0 1.255.356 3.564 3.564 0 0 0 1.985-.356c.84-.407 1.381-.959 1.78-1.813.201-.431.27-.705.326-1.296l.046-.489 2.224-.011c2.158-.012 2.228-.014 2.363-.094.077-.045.192-.156.256-.247.189-.269.168-.458-.144-1.291a43.32 43.32 0 0 1-.97-2.955c-.511-1.815-.704-2.887-.76-4.225-.049-1.161-.255-2.013-.702-2.902-1.245-2.477-3.818-3.955-6.539-3.756m1.68 1.612a5.13 5.13 0 0 1 2.502 1.424c.735.735 1.176 1.51 1.421 2.502.076.307.112.619.155 1.34.032.517.086 1.138.122 1.38.193 1.316.609 2.944 1.234 4.83l.289.87H5.161l.075-.19c.339-.862.729-2.069.947-2.934.364-1.45.481-2.291.575-4.136.03-.575.063-.857.139-1.16.246-.993.686-1.768 1.421-2.502.75-.751 1.579-1.214 2.565-1.433.554-.123.523-.12 1.237-.106.546.011.729.031 1.06.115m1.06 14.138c0 .993-.714 1.897-1.698 2.147a2.228 2.228 0 0 1-2.122-.599 2.15 2.15 0 0 1-.66-1.548v-.272h4.48v.272" fill-rule="evenodd" fill="#000"/></svg>