<svg width="24" height="24" fill="none" xmlns="http://www.w3.org/2000/svg"><path d="M2.9 2.259a1.438 1.438 0 0 1-.147.037c-.138.031-.339.201-.419.355-.069.134-.089.424-.041.609.023.087 2.508 2.598 9.139 9.233 5.009 5.012 9.162 9.141 9.228 9.176.154.082.524.083.68.001a.847.847 0 0 0 .339-.345c.058-.112.072-.414.028-.585-.023-.087-2.508-2.598-9.139-9.233C7.559 6.495 3.415 2.371 3.36 2.342c-.105-.055-.392-.107-.46-.083m8.553.023c-.899.07-1.587.263-2.433.68-.884.437-1.069.617-1.069 1.041 0 .218.128.485.292.606.229.17.614.17.877 0a5.553 5.553 0 0 1 1.648-.712c.554-.138 1.473-.175 2.041-.081A5.3 5.3 0 0 1 16.71 6.7c.364.735.474 1.231.55 2.5.084 1.375.265 2.427.683 3.96.263.967.615 2.081.705 2.229.34.565 1.21.413 1.351-.235.046-.208.041-.234-.192-.974-.676-2.145-.975-3.566-1.048-4.973-.066-1.295-.172-1.877-.483-2.664a6.742 6.742 0 0 0-6.823-4.261M5.775 9.277a.876.876 0 0 0-.248.118c-.223.159-.278.302-.347.907-.208 1.827-.753 3.835-1.53 5.638-.433 1.005-.432 1.001-.376 1.21.062.232.169.38.357.497l.149.093 2.224.012 2.224.011.046.489c.056.591.125.865.326 1.296.399.854.94 1.406 1.78 1.813a3.21 3.21 0 0 0 1.255.356 3.648 3.648 0 0 0 1.913-.317c.834-.389 1.368-.903 1.786-1.719.173-.337.192-.402.177-.58-.05-.597-.74-.904-1.206-.538-.056.044-.178.227-.273.408-.737 1.406-2.515 1.706-3.612.609-.432-.432-.66-.966-.66-1.546v-.269l1.47-.013c1.607-.013 1.582-.01 1.817-.258A.667.667 0 0 0 13.24 17a.667.667 0 0 0-.193-.494c-.248-.263.036-.245-4.116-.257l-3.77-.011.104-.269c.423-1.099.837-2.441 1.052-3.409.247-1.115.433-2.504.368-2.741a.768.768 0 0 0-.91-.542" fill-rule="evenodd" fill="#000"/></svg>