<svg width="24" height="24" fill="none" xmlns="http://www.w3.org/2000/svg"><path d="M11.32 2.28c-1.879.127-3.672.802-5.236 1.972-.493.368-1.464 1.339-1.832 1.832a9.794 9.794 0 0 0-1.895 4.524 10.9 10.9 0 0 0 0 2.784 9.794 9.794 0 0 0 1.895 4.524c.368.493 1.339 1.464 1.832 1.832a9.768 9.768 0 0 0 4.524 1.894 10.32 10.32 0 0 0 3.804-.2 9.913 9.913 0 0 0 3.504-1.694c.493-.369 1.463-1.339 1.832-1.832a9.763 9.763 0 0 0 1.894-4.524 10.9 10.9 0 0 0 0-2.784 9.763 9.763 0 0 0-1.894-4.524c-.369-.493-1.339-1.463-1.832-1.832-1.13-.846-2.524-1.495-3.796-1.766a10.872 10.872 0 0 0-2.8-.206m1.86 1.558a8.233 8.233 0 0 1 3.829 1.607c.425.321 1.225 1.121 1.546 1.546a8.27 8.27 0 0 1 .48 9.318c-.134.221-.667.971-.689.971-.003 0-2.622-2.616-5.819-5.813L6.713 5.653l.354-.262a8.208 8.208 0 0 1 3.713-1.55 9.358 9.358 0 0 1 2.4-.003m-1.707 8.695 5.814 5.814-.354.262a8.255 8.255 0 0 1-9.299.39 8.679 8.679 0 0 1-2.633-2.633A8.12 8.12 0 0 1 3.76 12a8.1 8.1 0 0 1 1.629-4.93c.142-.192.262-.35.265-.35.003 0 2.622 2.616 5.819 5.813" fill-rule="evenodd" fill="#000"/></svg>