<svg width="24" height="24" fill="none" xmlns="http://www.w3.org/2000/svg"><path d="M11.5 2.718c-.515.112-.898.344-1.687 1.022-2.539 2.182-4.477 5.1-5.23 7.874-.375 1.382-.419 2.947-.12 4.266.327 1.442 1.257 2.992 2.343 3.906a8.05 8.05 0 0 0 2.177 1.343 6.11 6.11 0 0 0 1.257.406c.541.124.676.143 1.28.183a7.842 7.842 0 0 0 3.2-.466c.824-.307 1.009-.474 1.013-.911.005-.579-.551-.905-1.12-.657a6.239 6.239 0 0 1-2.433.543c-.579.019-.754.01-1.176-.063a6.93 6.93 0 0 1-2.584-1.02c-.446-.295-1.325-1.162-1.608-1.584a6.419 6.419 0 0 1-.938-2.24c-.079-.365-.091-.536-.092-1.3-.001-.931.022-1.118.243-2 .385-1.533 1.436-3.489 2.708-5.04.834-1.016 2.325-2.438 2.844-2.711a.97.97 0 0 1 .89.031c.457.265 1.867 1.588 2.573 2.417 1.401 1.643 2.413 3.462 2.904 5.22.117.419.218.588.415.696.309.169.613.139.867-.084.295-.259.316-.475.114-1.182-.777-2.728-2.835-5.707-5.431-7.863-.747-.62-1.111-.782-1.809-.806a3.61 3.61 0 0 0-.6.02M8.805 13.279a.73.73 0 0 0-.526.544c-.047.209.016.807.123 1.159.238.781.849 1.507 1.594 1.893.433.224.798.326 1.265.353.418.024.556-.009.753-.183.21-.184.289-.604.161-.857-.151-.299-.304-.385-.798-.449-.955-.124-1.554-.75-1.632-1.709-.023-.285-.062-.392-.2-.544-.167-.185-.476-.271-.74-.207m6.915 2.526c-.262.104-.451.395-.451.695a.75.75 0 0 0 .464.697c.076.029 1.135.043 3.267.043 2.132 0 3.191-.014 3.267-.043a.75.75 0 0 0 .464-.697.75.75 0 0 0-.464-.697c-.15-.057-6.404-.055-6.547.002" fill-rule="evenodd" fill="#000"/></svg>