<svg width="24" height="24" fill="none" xmlns="http://www.w3.org/2000/svg"><path d="M2.805 2.28c-.291.069-.506.327-.544.652-.014.114-.02 2.926-.013 6.248.013 6.471.001 6.106.207 6.334.207.228.18.225 2.055.238l1.73.012.001.588c.002 1.092.087 1.615.359 2.196.399.855.94 1.406 1.78 1.813.619.301 1.135.398 2.12.398.985 0 1.501-.097 2.12-.398.84-.407 1.381-.958 1.78-1.813.31-.664.358-1.057.36-2.948.001-1.491.01-1.566.225-1.963.129-.237.455-.555.693-.676.714-.364 1.541-.23 2.078.339.306.323.45.667.502 1.193.027.267.087.402.248.554a.718.718 0 0 0 .987 0c.226-.214.275-.405.225-.888a3.238 3.238 0 0 0-2.418-2.801c-.445-.116-1.155-.116-1.6 0-1.159.303-2.027 1.17-2.345 2.342-.081.296-.089.448-.114 2.06-.019 1.223-.043 1.788-.078 1.9-.159.502-.643 1.085-1.103 1.327-.412.217-.635.253-1.56.253-1.183 0-1.531-.11-2.08-.66-.544-.543-.66-.902-.66-2.034v-.782l1.73-.012c1.544-.011 1.743-.019 1.855-.081.155-.084.325-.282.365-.424.039-.14.039-12.354 0-12.494-.04-.142-.21-.34-.365-.424-.116-.064-.438-.069-4.265-.075-2.277-.004-4.201.008-4.275.026M10.24 9v5.24H3.76V3.76h6.48V9M6.805 6.279a.73.73 0 0 0-.527.544c-.02.086-.037.439-.037.783l-.001.626-.73.015c-.778.016-.872.037-1.055.239-.142.157-.188.283-.188.514 0 .231.046.357.188.514.183.202.277.223 1.051.239l.726.015.015.726c.015.753.029.822.208 1.02.136.149.308.219.545.219.231 0 .357-.046.514-.188.202-.183.223-.277.239-1.051l.015-.726.726-.015c.774-.016.868-.037 1.051-.239.142-.157.188-.283.188-.514 0-.231-.046-.357-.188-.514-.183-.202-.277-.223-1.051-.239l-.726-.015-.015-.726c-.015-.753-.029-.822-.208-1.02-.167-.185-.476-.271-.74-.207m11.968 10.002c-.248.05-.384.134-.7.43a4.54 4.54 0 0 0-.953 1.303c-.246.499-.321.775-.347 1.266-.058 1.093.533 2.006 1.523 2.351.228.08.363.099.684.099.676.001 1.106-.176 1.581-.65.502-.501.706-1.053.666-1.8-.026-.491-.101-.767-.347-1.266a4.552 4.552 0 0 0-.959-1.309c-.409-.384-.739-.506-1.148-.424m.446 1.869c.225.286.439.718.504 1.02.124.574-.211 1.07-.723 1.07-.359 0-.638-.239-.723-.617-.063-.281-.008-.564.186-.963.141-.289.468-.74.537-.74.021 0 .12.103.219.23" fill-rule="evenodd" fill="#000"/></svg>