<svg width="24" height="24" viewBox="0 0 24 24" fill="none" xmlns="http://www.w3.org/2000/svg">
<path d="M19 14.5C19 13.837 18.7366 13.2011 18.2678 12.7322C17.7989 12.2634 17.163 12 16.5 12C15.837 12 15.2011 12.2634 14.7322 12.7322C14.2634 13.2011 14 13.837 14 14.5V17C14 17.7956 13.6839 18.5587 13.1213 19.1213C12.5587 19.6839 11.7956 20 11 20H10.0012C9.20556 20 8.4425 19.6839 7.87989 19.1213C7.31728 18.5587 7.00121 17.7956 7.00121 17L7.00145 15M7.00145 15H3V3H11V15H7.00145ZM5 9H7H9M17.5 19.4071C17.5 18.6959 17.9625 17.7633 18.7655 17.0869C18.9031 16.971 19.0969 16.971 19.2345 17.0869C20.0375 17.7633 20.5 18.6959 20.5 19.4071C20.5 20.4125 19.7325 21 19 21C18.2675 21 17.5 20.4125 17.5 19.4071Z" stroke="#001A72" stroke-width="1.5" stroke-linecap="round" stroke-linejoin="round"/>
</svg>
