<svg width="24" height="24" viewBox="0 0 24 24" fill="none" xmlns="http://www.w3.org/2000/svg">
<path d="M13.0945 3.80397C12.4523 3.29451 11.5477 3.29451 10.9055 3.80397C7.15837 6.77634 5 10.8745 5 13.9999C5 18.4182 8.58172 20.9999 12 20.9999C12.3237 20.9999 12.6489 20.9768 12.9723 20.9311M13.0945 3.80397C15.2608 5.52239 16.8961 7.61714 17.8904 9.68261M13.0945 3.80397C16.0832 6.17471 18.0612 9.26167 18.7394 12M11.5 16.4999C10.1193 16.4999 9 15.3807 9 13.9999M13 20.9272C12.9908 20.9285 12.9816 20.9298 12.9723 20.9311M12.9723 20.9311C13.6666 20.8331 14.353 20.6314 15 20.3321M16 16.4999H22" stroke="#001A72" stroke-width="1.5" stroke-linecap="round" stroke-linejoin="round"/>
</svg>
