<svg width="24" height="24" fill="none" xmlns="http://www.w3.org/2000/svg"><path d="M8.815 3.278a.775.775 0 0 0-.447.333c-.043.071-.768 2.203-1.612 4.737l-1.534 4.608.051.191c.066.243.201.421.395.517.14.07.277.077 1.766.088 1.239.009 1.609.023 1.596.06-.01.026-.419 1.659-.909 3.628-.852 3.419-.89 3.588-.844 3.752a.767.767 0 0 0 .913.524c.182-.044.437-.293 5.803-5.651 3.087-3.083 5.641-5.659 5.676-5.725.091-.171.084-.536-.014-.704a1.016 1.016 0 0 0-.25-.255l-.172-.121-2.256-.012a140.82 140.82 0 0 1-2.257-.02c0-.005.452-1.134 1.004-2.509.893-2.223 1.004-2.524 1.006-2.73.003-.194-.016-.259-.114-.398a1.003 1.003 0 0 0-.257-.249c-.137-.081-.189-.082-3.779-.088-2.002-.004-3.696.007-3.765.024m6.065 1.493c0 .005-.452 1.135-1.004 2.51-.872 2.171-1.004 2.528-1.006 2.719-.003.238.064.407.216.545.218.197.183.194 2.184.215l1.89.02-3.88 3.88c-2.134 2.134-3.88 3.867-3.88 3.851 0-.017.306-1.255.68-2.753.73-2.921.726-2.9.545-3.167a.72.72 0 0 0-.448-.313c-.086-.02-.826-.037-1.644-.037l-1.486-.001L8.293 8.5 9.54 4.76h2.67c1.468 0 2.67.005 2.67.011" fill-rule="evenodd" fill="#000"/></svg>