<svg width="24" height="24" viewBox="0 0 24 24" fill="none" xmlns="http://www.w3.org/2000/svg">
<path d="M18 5.5C18 5.6939 17.9779 5.88264 17.9361 6.06385C18.1174 6.02207 18.3061 6 18.5 6C19.8807 6 21 7.11929 21 8.5C21 9.88071 19.8807 11 18.5 11C17.7411 11 16.9411 10.836 16.2614 11.1734C15.7726 11.416 15.3084 11.7072 14.876 12.0431L14 11L12.6847 11.4214L11.9543 9.12765C12.2913 8.69428 12.5834 8.22895 12.8266 7.739C13.1641 7.05918 13 6.25898 13 5.5C13 4.11929 14.1193 3 15.5 3C16.8807 3 18 4.11929 18 5.5Z" stroke="#001A72" stroke-width="1.5" stroke-linecap="round" stroke-linejoin="round"/>
<path d="M11 18.5C11 19.8807 9.88071 21 8.5 21C7.11929 21 6 19.8807 6 18.5C6 18.3061 6.02207 18.1174 6.06385 17.9362C5.88264 17.9779 5.6939 18 5.5 18C4.11929 18 3 16.8807 3 15.5C3 14.1193 4.11929 13 5.5 13C6.25893 13 7.05907 13.1641 7.73884 12.8267C8.22824 12.5837 8.69306 12.2921 9.12601 11.9556L10 13V14L12.0483 14.8694C11.7102 15.3037 11.4172 15.7703 11.1734 16.2615C10.836 16.9412 11 17.7412 11 18.5Z" stroke="#001A72" stroke-width="1.5" stroke-linecap="round" stroke-linejoin="round"/>
</svg>
