<svg width="24" height="24" fill="none" xmlns="http://www.w3.org/2000/svg"><path d="M7.617 3.283c-.586.07-1.099.328-1.552.782-.483.482-.715.969-.787 1.648-.027.254-.037 2.98-.03 7.954l.012 7.566.121.172c.066.094.179.205.25.247.139.081.431.106.629.055.086-.023.919-.83 2.93-2.839L12 16.061l2.79 2.785c1.534 1.532 2.835 2.808 2.89 2.836.14.072.515.064.665-.014.153-.08.325-.277.365-.421.017-.059.03-3.608.03-7.887 0-7.302-.004-7.796-.07-8.04a2.838 2.838 0 0 0-1.45-1.781c-.597-.294-.278-.276-5.04-.283-2.354-.004-4.408.008-4.563.027m8.837 1.558c.29.109.596.415.705.705.08.215.081.283.081 6.925v6.708l-2.43-2.427c-1.747-1.745-2.464-2.436-2.55-2.458a1.333 1.333 0 0 0-.26-.03c-.077 0-.194.014-.26.03-.086.022-.803.713-2.55 2.458l-2.43 2.427v-6.708c0-6.642.001-6.71.081-6.925.106-.282.415-.596.694-.703.199-.077.322-.079 4.453-.081 4.174-.002 4.253-.001 4.466.079" fill-rule="evenodd" fill="#000"/></svg>