<svg width="24" height="24" viewBox="0 0 24 24" fill="none" xmlns="http://www.w3.org/2000/svg">
<path d="M6 13.874C4.27477 13.4299 3 11.8638 3 10C3 7.79086 4.79086 6 7 6C7.16933 6 7.3362 6.01052 7.5 6.03095C8.11775 4.28316 9.54072 3 11.5 3C13.2124 3 14.7898 3.96516 15.5503 5.37295C15.98 5.13528 16.4743 5 17.0001 5C18.6569 5 20.0001 6.34315 20.0001 8C20.0001 9.04349 19.4673 9.96254 18.659 10.5C19.7344 10.8437 20.5338 11.8513 20.5338 13.0408C20.5338 14.5137 19.3398 15.7077 17.8669 15.7077C16.394 15.7077 15.4446 14.8538 15 14C14.0155 14.5095 12.8043 14.1244 12.2948 13.1399M6 13.874C6 15.3469 7.19401 16.6669 8.6669 16.6669C10.267 16.6669 14.0876 16.5075 14.0876 18.641V20.7745M6 13.874C6 12.4011 7.19401 11.3331 8.6669 11.3331M9.86981 8.00393C10.4241 7.04391 11.6517 6.71498 12.6117 7.26925C13.5717 7.82352 13.9006 9.0511 13.3464 10.0111" stroke="#001A72" stroke-width="1.5" stroke-linecap="round" stroke-linejoin="round"/>
</svg>
