<svg width="24" height="24" fill="none" xmlns="http://www.w3.org/2000/svg"><path d="M8.805 2.279a.73.73 0 0 0-.527.544c-.02.086-.037.439-.037.783l-.001.625-1.35.019c-1.491.021-1.594.035-2.11.289A2.838 2.838 0 0 0 3.33 6.32c-.065.243-.07.677-.07 6.68s.005 6.437.07 6.68a2.838 2.838 0 0 0 1.99 1.99c.241.065.602.07 5.04.07 2.629 0 4.828-.013 4.887-.03.144-.04.341-.212.421-.365.078-.151.086-.525.014-.665a.89.89 0 0 0-.342-.354c-.109-.06-.551-.068-4.9-.086-4.742-.02-4.781-.021-4.96-.104a1.412 1.412 0 0 1-.639-.683c-.079-.211-.081-.304-.081-3.954v-3.738l5.23-.01c5.6-.012 5.297 0 5.524-.206.15-.136.219-.308.219-.545 0-.237-.069-.409-.219-.545-.227-.206.076-.194-5.524-.206l-5.23-.01V8.501c0-2.015-.001-2.008.366-2.375.351-.352.424-.366 1.872-.366h1.234l.015.73c.016.778.037.872.239 1.055.157.142.283.188.514.188.231 0 .357-.046.514-.188.202-.183.223-.277.239-1.055l.015-.73h4.464l.015.73c.015.758.029.826.208 1.024.136.15.308.219.545.219.237 0 .409-.069.545-.219.179-.198.193-.266.208-1.024l.015-.73h1.234c1.434 0 1.518.016 1.859.351.352.347.356.365.379 1.829.017 1.091.03 1.298.086 1.4a.89.89 0 0 0 .354.342c.14.072.514.064.665-.014.153-.08.325-.277.365-.421.017-.059.029-.683.029-1.387-.001-1.083-.012-1.32-.071-1.54a2.828 2.828 0 0 0-1.448-1.781c-.516-.254-.619-.268-2.106-.289l-1.347-.019-.014-.725c-.015-.753-.029-.822-.208-1.02-.136-.15-.308-.219-.545-.219-.237 0-.409.069-.545.219-.179.198-.193.266-.208 1.024l-.015.73H9.768l-.015-.73c-.015-.758-.029-.826-.208-1.024-.167-.185-.476-.271-.74-.207m11 9c-.291.071-.506.328-.545.653-.013.114-.019 1.684-.012 3.488.013 3.61-.003 3.38.258 3.627.205.194.521.25.786.139.155-.065.375-.305.417-.457.04-.141.041-6.835.001-6.976a.833.833 0 0 0-.345-.41.949.949 0 0 0-.56-.064m.095 8.98a1.438 1.438 0 0 1-.147.037c-.139.031-.339.201-.421.359-.083.16-.084.528-.002.685.124.239.414.42.67.42.256 0 .546-.181.67-.42.076-.146.083-.523.012-.66a.852.852 0 0 0-.322-.339c-.106-.055-.393-.106-.46-.082" fill-rule="evenodd" fill="#000"/></svg>