<svg width="24" height="24" fill="none" xmlns="http://www.w3.org/2000/svg"><path d="M8.805 2.279a.73.73 0 0 0-.527.544c-.02.086-.037.439-.037.783l-.001.625-1.35.019c-1.491.021-1.594.035-2.11.289A2.838 2.838 0 0 0 3.33 6.32c-.065.243-.07.677-.07 6.68s.005 6.437.07 6.68a2.835 2.835 0 0 0 1.99 1.989c.229.062.47.07 2.04.071.979 0 1.828-.013 1.887-.03.144-.04.341-.212.421-.365.078-.151.086-.525.014-.665a.89.89 0 0 0-.342-.354c-.105-.058-.343-.069-1.9-.086-1.698-.019-1.788-.024-1.96-.104a1.412 1.412 0 0 1-.639-.683c-.079-.211-.081-.304-.081-3.953v-3.737l2.23-.011c2.371-.013 2.303-.007 2.524-.207.15-.136.219-.308.219-.545 0-.237-.069-.409-.219-.545-.221-.2-.153-.194-2.524-.207l-2.23-.011V8.5c0-2.014-.001-2.008.366-2.374.351-.352.424-.366 1.872-.366h1.234l.015.73c.015.758.029.826.208 1.024.136.149.308.219.545.219.231 0 .357-.046.514-.188.202-.183.223-.277.239-1.055l.015-.73h4.464l.015.73c.015.758.029.826.208 1.024.136.15.308.219.545.219.237 0 .409-.069.545-.219.179-.198.193-.266.208-1.024l.015-.73h1.234c1.434 0 1.518.016 1.859.351.352.347.356.365.379 1.829.017 1.091.03 1.298.086 1.4a.89.89 0 0 0 .354.342c.14.072.514.064.665-.014.153-.08.325-.277.365-.421.017-.059.029-.683.029-1.387-.001-1.083-.012-1.32-.071-1.54a2.828 2.828 0 0 0-1.448-1.781c-.516-.254-.619-.268-2.106-.289l-1.347-.019-.014-.725c-.015-.753-.029-.822-.208-1.02-.136-.15-.308-.219-.545-.219-.237 0-.409.069-.545.219-.179.198-.193.266-.208 1.024l-.015.73H9.768l-.015-.73c-.015-.758-.029-.826-.208-1.024-.167-.185-.476-.271-.74-.207m7.812 10.004c-.585.069-1.099.328-1.552.782-.501.5-.721.977-.794 1.719l-.044.446-.234.024a1.29 1.29 0 0 0-.349.084c-.144.074-.315.275-.354.415-.039.14-.039 5.354 0 5.494.04.142.21.34.365.424.115.064.379.069 3.345.069s3.23-.005 3.345-.069c.155-.084.325-.282.365-.424.039-.14.039-5.354 0-5.494-.039-.14-.21-.341-.354-.415a1.297 1.297 0 0 0-.351-.084l-.237-.025-.029-.364c-.037-.466-.106-.735-.278-1.085-.518-1.053-1.635-1.641-2.844-1.497m.837 1.558c.459.172.786.655.786 1.161v.238h-2.48v-.238c0-.344.12-.63.366-.876a1.236 1.236 0 0 1 1.328-.285M19.24 18.5v1.74h-4.48v-3.48h4.48v1.74" fill-rule="evenodd" fill="#000"/></svg>