<svg width="24" height="24" fill="none" xmlns="http://www.w3.org/2000/svg"><path d="M8.805 2.279a.73.73 0 0 0-.527.544c-.02.086-.037.439-.037.783l-.001.625-1.35.019c-1.491.021-1.594.035-2.11.289A2.838 2.838 0 0 0 3.33 6.32c-.065.243-.07.677-.07 6.68s.005 6.437.07 6.68a2.832 2.832 0 0 0 1.99 1.988c.22.059.457.07 1.54.071.704 0 1.328-.012 1.387-.029.144-.04.341-.212.421-.365.078-.151.086-.525.014-.665a.89.89 0 0 0-.342-.354c-.102-.056-.309-.069-1.4-.086-1.19-.019-1.293-.026-1.46-.104a1.412 1.412 0 0 1-.639-.683c-.079-.211-.081-.304-.081-3.953v-3.737l2.23-.011c2.371-.013 2.303-.007 2.524-.207.15-.136.219-.308.219-.545 0-.237-.069-.409-.219-.545-.221-.2-.153-.194-2.524-.207l-2.23-.011V8.5c0-2.014-.001-2.008.366-2.374.351-.352.424-.366 1.872-.366h1.234l.015.73c.015.758.029.826.208 1.024.136.149.308.219.545.219.231 0 .357-.046.514-.188.202-.183.223-.277.239-1.055l.015-.73h4.464l.015.73c.015.758.029.826.208 1.024.136.15.308.219.545.219.237 0 .409-.069.545-.219.179-.198.193-.266.208-1.024l.015-.73h1.234c1.434 0 1.518.016 1.859.351.352.347.356.365.379 1.829.017 1.091.03 1.298.086 1.4a.89.89 0 0 0 .354.342c.14.072.514.064.665-.014.153-.08.325-.277.365-.421.017-.059.029-.683.029-1.387-.001-1.083-.012-1.32-.071-1.54a2.828 2.828 0 0 0-1.448-1.781c-.516-.254-.619-.268-2.106-.289l-1.347-.019-.014-.725c-.015-.753-.029-.822-.208-1.02-.136-.15-.308-.219-.545-.219-.237 0-.409.069-.545.219-.179.198-.193.266-.208 1.024l-.015.73H9.768l-.015-.73c-.015-.758-.029-.826-.208-1.024-.167-.185-.476-.271-.74-.207m3.812 14.003c-.589.072-1.1.33-1.552.783a3.31 3.31 0 0 0-.42.51 2.824 2.824 0 0 0-.363 1.764c.072.635.314 1.127.783 1.596.485.486.966.714 1.665.79.511.056 1.454.031 1.59-.042a.716.716 0 0 0 .413-.683c0-.231-.046-.357-.188-.514-.182-.2-.276-.221-1.105-.245-.902-.026-1.011-.057-1.329-.38a1.226 1.226 0 0 1 0-1.722c.318-.323.427-.354 1.329-.38.829-.024.923-.045 1.105-.245.142-.157.188-.283.188-.514 0-.313-.133-.532-.413-.684-.121-.065-1.267-.088-1.703-.034m4.188-.005c-.598.154-.743.957-.239 1.333.158.118.367.148 1.042.149.77.001.954.055 1.266.367.486.486.493 1.249.015 1.735-.318.323-.427.354-1.329.38-.609.017-.806.037-.9.087a.872.872 0 0 0-.342.352c-.072.14-.064.514.014.665.08.153.277.325.421.365.059.017.458.029.887.027.878-.004 1.109-.044 1.58-.276a2.807 2.807 0 0 0 1.445-1.781 3.14 3.14 0 0 0 .065-.68c0-.493-.072-.82-.269-1.22a2.831 2.831 0 0 0-1.761-1.442c-.276-.073-1.673-.118-1.895-.061m-3 2.002c-.615.15-.744.984-.209 1.348.187.128.385.14 2.084.126 1.628-.014 1.618-.013 1.834-.208.15-.136.219-.308.219-.545 0-.237-.069-.409-.219-.545-.217-.197-.196-.195-1.934-.202-.902-.004-1.701.008-1.775.026" fill-rule="evenodd" fill="#000"/></svg>