<svg width="24" height="24" fill="none" xmlns="http://www.w3.org/2000/svg"><path d="M8.805 2.279a.73.73 0 0 0-.527.544c-.02.086-.037.439-.037.783l-.001.625-1.35.019c-1.491.021-1.594.035-2.11.289A2.838 2.838 0 0 0 3.33 6.32c-.065.243-.07.677-.07 6.68s.005 6.437.07 6.68a2.832 2.832 0 0 0 1.99 1.988c.22.059.457.07 1.54.071.704 0 1.328-.012 1.387-.029.144-.04.341-.212.421-.365.078-.151.086-.525.014-.665a.89.89 0 0 0-.342-.354c-.102-.056-.309-.069-1.4-.086-1.19-.019-1.293-.026-1.46-.104a1.412 1.412 0 0 1-.639-.683c-.079-.211-.081-.304-.081-3.953v-3.737l2.23-.011c2.371-.013 2.303-.007 2.524-.207.15-.136.219-.308.219-.545 0-.237-.069-.409-.219-.545-.221-.2-.153-.194-2.524-.207l-2.23-.011V8.5c0-2.014-.001-2.008.366-2.374.351-.352.424-.366 1.872-.366h1.234l.015.73c.015.758.029.826.208 1.024.136.149.308.219.545.219.231 0 .357-.046.514-.188.202-.183.223-.277.239-1.055l.015-.73h4.464l.015.73c.015.758.029.826.208 1.024.136.15.308.219.545.219.237 0 .409-.069.545-.219.179-.198.193-.266.208-1.024l.015-.73h1.234c1.434 0 1.518.016 1.859.351.352.347.356.365.379 1.829.017 1.091.03 1.298.086 1.4a.89.89 0 0 0 .354.342c.14.072.514.064.665-.014.153-.08.325-.277.365-.421.017-.059.029-.683.029-1.387-.001-1.083-.012-1.32-.071-1.54a2.828 2.828 0 0 0-1.448-1.781c-.516-.254-.619-.268-2.106-.289l-1.347-.019-.014-.725c-.015-.753-.029-.822-.208-1.02-.136-.15-.308-.219-.545-.219-.237 0-.409.069-.545.219-.179.198-.193.266-.208 1.024l-.015.73H9.768l-.015-.73c-.015-.758-.029-.826-.208-1.024-.167-.185-.476-.271-.74-.207M19.7 14.277a1.217 1.217 0 0 0-.22.08c-.055.029-1.392 1.341-2.97 2.917l-2.87 2.865-1.13-1.127c-.622-.621-1.181-1.147-1.243-1.17a.74.74 0 0 0-.998.698c0 .113.031.263.07.341.093.184 2.712 2.816 2.934 2.948.205.121.52.139.708.039.176-.093 6.528-6.468 6.577-6.601a.892.892 0 0 0-.001-.534c-.121-.322-.524-.536-.857-.456" fill-rule="evenodd" fill="#000"/></svg>