<svg width="24" height="24" fill="none" xmlns="http://www.w3.org/2000/svg"><path d="M2.9 2.259a1.438 1.438 0 0 1-.147.037c-.138.031-.339.201-.419.355-.069.134-.089.424-.041.609.023.087 2.508 2.598 9.139 9.233 5.009 5.012 9.162 9.141 9.228 9.176.154.082.524.083.68.001a.847.847 0 0 0 .339-.345c.058-.112.072-.414.028-.585-.023-.087-2.508-2.598-9.139-9.233C7.559 6.495 3.415 2.371 3.36 2.342c-.105-.055-.392-.107-.46-.083m6.82 2.546c-.262.104-.451.395-.451.695a.75.75 0 0 0 .464.697c.075.029.975.043 2.722.043 2.19 0 2.622.009 2.687.057.075.055.079.139.098 2.49.022 2.645.013 2.547.246 2.758.157.142.283.188.514.188.237 0 .409-.07.545-.219.185-.204.194-.256.208-1.154l.014-.86 1.7-.68 1.736-.693c.02-.008.04 1.905.046 4.54.01 4.149.017 4.564.077 4.673a.89.89 0 0 0 .354.342c.14.072.514.064.665-.014.153-.08.325-.277.365-.421.017-.059.03-2.438.03-5.287 0-5.148-.001-5.181-.082-5.319a1.003 1.003 0 0 0-.249-.257c-.139-.098-.204-.117-.398-.114-.204.002-.464.096-2.23.806-1.1.442-2.004.804-2.01.804-.006 0-.012-.301-.012-.67a10.835 10.835 0 0 0-.036-.94 1.751 1.751 0 0 0-1.268-1.45c-.196-.051-.647-.06-2.933-.057-1.691.001-2.739.017-2.802.042M2.805 7.279a.73.73 0 0 0-.527.544c-.046.202-.047 9.545-.001 9.907a1.751 1.751 0 0 0 1.268 1.45c.201.052.921.06 5.421.06 3.569 0 5.224-.013 5.301-.043a.75.75 0 0 0 .464-.697.75.75 0 0 0-.464-.697c-.077-.03-1.709-.043-5.222-.043-4.349 0-5.121-.008-5.187-.057-.076-.055-.078-.165-.098-4.99-.021-5.276-.01-5.001-.215-5.227-.167-.185-.476-.271-.74-.207" fill-rule="evenodd" fill="#000"/></svg>