<svg width="24" height="24" fill="none" xmlns="http://www.w3.org/2000/svg"><path d="M3.527 4.822c-.648.175-1.162.771-1.25 1.448-.045.352-.045 11.108 0 11.46a1.751 1.751 0 0 0 1.268 1.45c.35.091 11.56.091 11.91 0a1.751 1.751 0 0 0 1.268-1.45c.019-.149.035-.571.036-.94 0-.368.006-.67.012-.67s.91.362 2.01.804c1.724.693 2.029.804 2.219.806a.832.832 0 0 0 .345-.062c.153-.08.325-.277.365-.421.017-.059.03-2.438.03-5.287 0-5.148-.001-5.181-.082-5.319a1.003 1.003 0 0 0-.249-.257c-.139-.098-.204-.117-.398-.114-.204.002-.464.096-2.23.806-1.1.442-2.004.804-2.01.804-.006 0-.012-.301-.012-.67a10.835 10.835 0 0 0-.036-.94 1.751 1.751 0 0 0-1.268-1.45c-.339-.088-11.599-.086-11.928.002M15.16 6.32c.079.079.08.133.08 5.68s-.001 5.601-.08 5.68c-.079.079-.133.08-5.66.08s-5.581-.001-5.66-.08c-.079-.079-.08-.133-.08-5.68s.001-5.601.08-5.68c.079-.079.133-.08 5.66-.08s5.581.001 5.66.08m5.08 5.683c0 2.316-.015 3.878-.036 3.87l-1.74-.693-1.703-.68v-5l1.71-.686c.94-.378 1.723-.688 1.739-.69.017-.002.03 1.743.03 3.879" fill-rule="evenodd" fill="#000"/></svg>