<svg width="24" height="24" viewBox="0 0 24 24" fill="none" xmlns="http://www.w3.org/2000/svg">
<path d="M21 17V9C21 7.89543 20.1046 7 19 7H16.5C15.9477 7 15.5 6.55228 15.5 6C15.5 5.44772 15.0523 5 14.5 5H9.5C8.94772 5 8.5 5.44772 8.5 6C8.5 6.55228 8.05228 7 7.5 7H5C3.89543 7 3 7.89543 3 9V17C3 18.1046 3.89543 19 5 19H19C20.1046 19 21 18.1046 21 17Z" stroke="#001A72" stroke-width="1.5"/>
<path d="M15 13C15 14.6569 13.6569 16 12 16C10.3431 16 9 14.6569 9 13C9 11.3431 10.3431 10 12 10C13.6569 10 15 11.3431 15 13Z" stroke="#001A72" stroke-width="1.5"/>
</svg>
