<svg width="24" height="24" fill="none" xmlns="http://www.w3.org/2000/svg"><path d="M2.9 2.259a1.438 1.438 0 0 1-.147.037c-.138.031-.339.201-.419.355-.069.134-.089.424-.041.609.023.087 2.508 2.598 9.139 9.233 5.009 5.012 9.162 9.141 9.228 9.176.154.082.524.083.68.001a.847.847 0 0 0 .339-.345c.058-.112.072-.414.028-.585-.023-.087-2.508-2.598-9.139-9.233C7.559 6.495 3.415 2.371 3.36 2.342c-.105-.055-.392-.107-.46-.083M9.805 4.28c-.733.173-.719 1.271.018 1.442.086.02 1.197.037 2.467.037 2.256.001 2.312.003 2.39.081.052.052.08.133.08.232 0 .794.686 1.544 1.51 1.651.149.019.877.035 1.618.036 1.253.001 1.364.007 1.565.082.259.097.564.382.683.639.083.178.084.232.104 3.96.018 3.419.026 3.791.086 3.9a.89.89 0 0 0 .354.342c.14.072.514.064.665-.014.153-.08.325-.277.365-.421.017-.059.03-1.808.03-3.887 0-3.483-.006-3.8-.07-4.04a2.838 2.838 0 0 0-1.45-1.781c-.529-.26-.599-.269-2.294-.289-1.44-.017-1.539-.023-1.61-.094-.048-.048-.076-.132-.076-.228 0-.794-.686-1.544-1.51-1.651-.336-.043-4.74-.041-4.925.003m-7 3.999c-.291.071-.506.328-.545.653-.014.114-.019 2.08-.011 4.368.015 4.625-.002 4.326.29 4.92a2.838 2.838 0 0 0 1.781 1.45c.241.065.602.07 5.04.07 2.629 0 4.828-.013 4.887-.03.144-.04.341-.212.421-.365.083-.16.084-.528.002-.685a.88.88 0 0 0-.35-.345c-.083-.045-.928-.058-4.88-.075-4.748-.02-4.781-.021-4.96-.104a1.487 1.487 0 0 1-.616-.616c-.083-.178-.084-.22-.104-4.46-.021-4.573-.011-4.348-.215-4.574-.167-.185-.476-.271-.74-.207m5.96 4.37c-.181.061-.395.288-.453.482-.062.208.005.674.163 1.134.331.961 1.186 1.848 2.136 2.216.329.128.828.239 1.069.239a.822.822 0 0 0 .528-.227.809.809 0 0 0 .113-.851c-.136-.266-.23-.318-.841-.462a2.16 2.16 0 0 1-1.039-.58c-.386-.382-.541-.675-.665-1.26a1.519 1.519 0 0 0-.154-.424c-.162-.246-.555-.368-.857-.267" fill-rule="evenodd" fill="#000"/></svg>