<svg width="24" height="24" fill="none" xmlns="http://www.w3.org/2000/svg"><path d="M5.823 2.285c-.343.08-.346.086-1.493 2.367L3.26 6.78v5.82c0 5.431.005 5.837.07 6.08a2.838 2.838 0 0 0 1.99 1.99c.243.065.677.07 6.68.07s6.437-.005 6.68-.07a2.838 2.838 0 0 0 1.99-1.99c.065-.243.07-.649.07-6.08V6.78l-1.07-2.128c-1.155-2.299-1.147-2.285-1.511-2.369-.23-.053-12.109-.051-12.336.002M18.15 4.98c.336.671.61 1.229.61 1.24 0 .011-3.042.02-6.76.02s-6.76-.009-6.76-.02c0-.011.274-.569.61-1.24l.609-1.22h11.082l.609 1.22m1.09 8.018c0 5.166-.001 5.242-.081 5.456-.109.29-.415.596-.705.705-.215.08-.285.081-6.454.081s-6.239-.001-6.454-.081a1.342 1.342 0 0 1-.705-.705c-.08-.214-.081-.29-.081-5.456V7.76h14.48v5.238M8.805 10.279a.73.73 0 0 0-.526.544c-.042.186.013.797.104 1.152.19.737.717 1.524 1.336 1.994.313.238.968.563 1.306.649a4.254 4.254 0 0 0 1.95 0c.338-.086.993-.411 1.306-.649.619-.47 1.146-1.257 1.336-1.994.067-.264.152-.978.126-1.063a2.556 2.556 0 0 1-.04-.159c-.03-.139-.2-.339-.358-.421-.16-.083-.528-.084-.685-.002-.279.145-.371.322-.419.799-.045.452-.091.62-.255.931-.162.309-.616.764-.926.927a2.325 2.325 0 0 1-2.12 0c-.31-.163-.764-.618-.926-.927-.164-.311-.21-.479-.255-.931-.039-.386-.072-.486-.214-.643-.167-.185-.476-.271-.74-.207" fill-rule="evenodd" fill="#000"/></svg>