<svg width="24" height="24" fill="none" xmlns="http://www.w3.org/2000/svg"><path d="M11.544 2.283c-1.969.174-3.645 1.614-4.145 3.561a8.588 8.588 0 0 0-.159 1.3c0 .079-.028.086-.44.112-.536.034-.813.101-1.182.286a2.903 2.903 0 0 0-1.242 1.225c-.221.437-.238.58-.595 4.86-.188 2.248-.341 4.235-.341 4.417 0 1.22.851 2.294 2.08 2.626.243.065.675.07 6.48.07 6.976 0 6.404.024 7.06-.297a2.643 2.643 0 0 0 1.486-2.283c.025-.522-.631-8.472-.73-8.855a2.749 2.749 0 0 0-1.434-1.763c-.369-.185-.646-.252-1.182-.286-.412-.026-.44-.033-.44-.112a8.415 8.415 0 0 0-.16-1.3 4.768 4.768 0 0 0-3.444-3.445c-.244-.062-1.152-.175-1.236-.153-.011.003-.18.019-.376.037M13 3.916c.53.179.88.397 1.284.8.599.6.908 1.282.947 2.094l.02.43H8.749l.02-.43a3.115 3.115 0 0 1 .881-2.036c.338-.354.73-.624 1.144-.784.49-.191.729-.23 1.306-.215.459.011.565.028.9.141M7.248 10.49c.013 1.833.01 1.806.207 2.024.136.15.308.219.545.219.237 0 .409-.069.545-.219.197-.218.194-.191.207-2.024l.012-1.73h6.472l.012 1.73c.013 1.833.01 1.806.207 2.024.136.15.308.219.545.219.237 0 .409-.069.545-.219.197-.218.194-.191.207-2.024l.012-1.73h.313c.512 0 .848.164 1.097.534.076.113.158.269.182.346.065.213.733 8.306.704 8.536-.047.372-.331.763-.687.946l-.193.098H5.82l-.193-.098c-.346-.177-.632-.562-.686-.923-.017-.11.106-1.768.318-4.314.387-4.626.354-4.405.702-4.758.261-.265.512-.362.947-.365l.328-.002.012 1.73" fill-rule="evenodd" fill="#000"/></svg>