<svg width="24" height="24" fill="none" xmlns="http://www.w3.org/2000/svg"><path d="M1.9 2.258a1.38 1.38 0 0 1-.147.038c-.139.031-.339.201-.421.359-.078.151-.086.525-.014.665a.89.89 0 0 0 .342.354c.1.055.293.069 1.159.086l1.038.02.948 6.634c.521 3.649.959 6.696.973 6.771.044.231.366.534.57.536.162.001.172.051.071.331-.273.75-.183 1.69.226 2.373.173.29.64.757.93.93.852.51 1.998.51 2.85 0 .29-.173.757-.64.93-.93.453-.757.506-1.704.145-2.595-.027-.066.06-.07 1.5-.07s1.527.004 1.5.07c-.361.891-.308 1.838.145 2.595.173.29.64.757.93.93.852.51 1.998.51 2.85 0 .29-.173.757-.64.93-.93.495-.827.51-1.982.035-2.792a2.938 2.938 0 0 0-1.69-1.301c-.221-.064-.656-.072-5.399-.091l-5.159-.021-.104-.729-.103-.73 5.642-.01 5.643-.011.153-.095a.918.918 0 0 0 .245-.24c.052-.08.782-2.213 1.623-4.741l1.529-4.596-.049-.218a.738.738 0 0 0-.532-.564c-.137-.034-2.2-.046-7.966-.046H5.442l-.02-.09c-.011-.049-.057-.36-.103-.69-.101-.73-.126-.813-.29-.968-.249-.236-.215-.231-1.709-.24a37.738 37.738 0 0 0-1.42.006M18.707 9.5l-1.247 3.74H6.726l-.022-.11c-.012-.06-.248-1.703-.524-3.65-.276-1.947-.51-3.58-.521-3.63l-.021-.09H19.953L18.707 9.5m-9.253 8.341c.29.109.596.415.705.705.176.471.068.975-.285 1.328-.781.781-2.114.23-2.114-.874 0-.342.12-.629.366-.874a1.236 1.236 0 0 1 1.328-.285m8 0c.29.109.596.415.705.705.176.471.068.975-.285 1.328-.781.781-2.114.23-2.114-.874 0-.342.12-.629.366-.874a1.236 1.236 0 0 1 1.328-.285" fill-rule="evenodd" fill="#000"/></svg>