<svg width="24" height="24" fill="none" xmlns="http://www.w3.org/2000/svg"><path d="M16.9 8.259a1.795 1.795 0 0 1-.16.04c-.09.019-.934.839-3.43 3.333L10 14.939l-1.31-1.307c-.909-.907-1.347-1.316-1.43-1.338-.545-.143-.993.175-.993.706 0 .124.028.272.064.34.035.066.789.843 1.676 1.727 1.141 1.138 1.648 1.617 1.733 1.638.153.039.366.039.52.001.087-.022 1.112-1.021 3.733-3.638 1.987-1.985 3.641-3.662 3.676-3.728.077-.145.084-.521.013-.66a.852.852 0 0 0-.322-.339c-.106-.055-.393-.106-.46-.082" fill-rule="evenodd" fill="#000"/></svg>