<svg width="24" height="24" fill="none" xmlns="http://www.w3.org/2000/svg"><path d="M5.595 2.282a3.765 3.765 0 0 0-2.564 1.437c-.238.313-.563.968-.649 1.306a4.242 4.242 0 0 0-.099 1.34c.053.514.133.796.356 1.255.407.84.958 1.381 1.813 1.78.642.3 1.076.358 2.678.359l1.11.001v4.48l-1.11.001c-1.658.001-2.049.057-2.75.398-.84.407-1.381.958-1.78 1.813a3.648 3.648 0 0 0-.317 1.913c.049.481.131.785.317 1.183.399.855.94 1.406 1.78 1.813a3.564 3.564 0 0 0 1.985.356 3.21 3.21 0 0 0 1.255-.356c.84-.407 1.381-.958 1.78-1.813.3-.642.358-1.076.359-2.678l.001-1.11h4.48l.001 1.11c.001 1.602.059 2.036.359 2.678.399.855.94 1.406 1.78 1.813a3.564 3.564 0 0 0 1.985.356 3.21 3.21 0 0 0 1.255-.356c.84-.407 1.381-.958 1.78-1.813.186-.398.268-.702.317-1.183a3.648 3.648 0 0 0-.317-1.913c-.399-.855-.94-1.406-1.78-1.813-.701-.341-1.092-.397-2.75-.398l-1.11-.001V9.76l1.11-.001c1.658-.001 2.049-.057 2.75-.398.84-.407 1.381-.958 1.78-1.813a3.648 3.648 0 0 0 .317-1.913 3.277 3.277 0 0 0-.317-1.183c-.399-.855-.94-1.406-1.78-1.813a3.21 3.21 0 0 0-1.255-.356 3.648 3.648 0 0 0-1.913.317c-.855.399-1.406.94-1.813 1.78-.341.701-.397 1.092-.398 2.75l-.001 1.11H9.76l-.001-1.11C9.758 5.528 9.7 5.094 9.4 4.452c-.44-.942-1.128-1.585-2.107-1.967-.441-.173-1.171-.26-1.698-.203m.979 1.541c.135.035.354.121.486.19.309.163.764.618.927.927.234.445.253.595.253 2.016V8.24H6.956c-1.421 0-1.571-.019-2.016-.253a2.716 2.716 0 0 1-.52-.407c-.456-.456-.66-.944-.66-1.58 0-.636.204-1.124.66-1.58.459-.458.916-.652 1.554-.657.203-.002.46.024.6.06m12 0c.376.097.697.287 1.006.597.456.456.66.944.66 1.58 0 .636-.204 1.124-.66 1.58a2.716 2.716 0 0 1-.52.407c-.445.234-.595.253-2.016.253H15.76V6.956c0-1.421.019-1.571.253-2.016.157-.298.614-.761.907-.918a2.439 2.439 0 0 1 1.654-.199M14.24 12v2.24H9.76V9.76h4.48V12m-6 5.044c0 1.421-.019 1.571-.253 2.016a2.716 2.716 0 0 1-.407.52c-.456.456-.944.66-1.58.66-.636 0-1.124-.204-1.58-.66-.456-.456-.66-.944-.66-1.58 0-.636.204-1.124.66-1.58.306-.306.59-.479.96-.585.204-.059.435-.07 1.55-.072l1.31-.003v1.284m10.334-1.221c.376.097.697.287 1.006.597.456.456.66.944.66 1.58 0 .636-.204 1.124-.66 1.58-.456.456-.944.66-1.58.66-.636 0-1.124-.204-1.58-.66a2.716 2.716 0 0 1-.407-.52c-.234-.445-.253-.595-.253-2.016V15.76h1.284c1.042 0 1.331.012 1.53.063" fill-rule="evenodd" fill="#000"/></svg>