<svg width="24" height="24" fill="none" xmlns="http://www.w3.org/2000/svg"><path d="M11.617 2.283c-.586.07-1.099.328-1.552.782-.681.681-.847 1.255-.818 2.844.015.858.03.921.259 1.138A.667.667 0 0 0 10 7.24a.667.667 0 0 0 .494-.193c.236-.223.243-.26.265-1.367.019-.925.029-1.037.105-1.2.119-.257.424-.542.683-.639.211-.079.304-.081 3.953-.081 3.657 0 3.742.002 3.954.081.29.109.596.415.705.705.079.212.081.297.081 3.954 0 3.649-.002 3.742-.081 3.953a1.412 1.412 0 0 1-.639.683c-.163.076-.275.086-1.2.105-1.107.022-1.144.029-1.367.265a.72.72 0 0 0 0 .988c.23.243.248.246 1.407.245.873-.002 1.106-.014 1.32-.071a2.834 2.834 0 0 0 1.99-1.988c.065-.24.07-.563.07-4.18s-.005-3.94-.07-4.18a2.838 2.838 0 0 0-1.45-1.781c-.592-.291-.337-.275-4.54-.283-2.079-.004-3.908.008-4.063.027m-7 7c-.586.07-1.099.328-1.552.782-.482.482-.714.967-.788 1.648-.027.25-.037 1.688-.028 4.067.016 4.088 0 3.851.29 4.44a2.838 2.838 0 0 0 1.781 1.45c.24.065.563.07 4.18.07s3.94-.005 4.18-.07a2.838 2.838 0 0 0 1.99-1.99c.065-.24.07-.563.07-4.18s-.005-3.94-.07-4.18a2.838 2.838 0 0 0-1.45-1.781c-.592-.291-.337-.275-4.54-.283-2.079-.004-3.908.008-4.063.027m7.837 1.558c.29.109.596.415.705.705.079.212.081.297.081 3.954s-.002 3.742-.081 3.954c-.109.29-.415.596-.705.705-.212.079-.297.081-3.954.081s-3.742-.002-3.954-.081a1.342 1.342 0 0 1-.705-.705c-.079-.212-.081-.297-.081-3.954s.002-3.742.081-3.954c.106-.282.415-.596.694-.703.199-.076.32-.079 3.953-.081 3.672-.002 3.753 0 3.966.079" fill-rule="evenodd" fill="#000"/></svg>