<svg width="24" height="24" fill="none" xmlns="http://www.w3.org/2000/svg"><path d="M7.9 7.259a1.438 1.438 0 0 1-.147.037c-.138.031-.339.201-.419.355-.069.134-.089.425-.04.609.022.085.563.653 1.838 1.93L10.939 12l-1.807 1.81c-1.275 1.277-1.816 1.845-1.838 1.93-.138.525.166.98.661.993.102.003.239-.009.305-.027.085-.022.653-.563 1.93-1.838L12 13.061l1.81 1.807c1.277 1.275 1.845 1.816 1.93 1.838.525.138.98-.166.993-.661a1.293 1.293 0 0 0-.027-.305c-.022-.085-.563-.653-1.838-1.93L13.061 12l1.807-1.81c1.275-1.277 1.816-1.845 1.838-1.93.138-.525-.166-.98-.662-.993a1.289 1.289 0 0 0-.304.027c-.085.022-.653.564-1.93 1.838L12 10.939l-1.79-1.785c-.985-.982-1.826-1.803-1.87-1.825-.092-.045-.38-.091-.44-.07" fill-rule="evenodd" fill="#000"/></svg>