<svg width="24" height="24" fill="none" xmlns="http://www.w3.org/2000/svg"><path d="M3.811 4.278c-.188.046-.317.142-.441.33l-.11.166v5.723c0 5.329.005 5.732.069 5.848.084.155.282.325.424.365.14.039 16.354.039 16.494 0 .142-.04.34-.21.424-.365.064-.116.069-.516.069-5.805 0-3.124-.013-5.728-.03-5.787-.04-.144-.212-.341-.365-.421-.15-.078-.525-.086-.665-.014-.055.028-.906.854-1.89 1.836L16 7.939l-1.81-1.807C12.326 4.271 12.318 4.264 12 4.264c-.318 0-.326.007-2.19 1.868L8 7.939 6.21 6.154c-.985-.982-1.826-1.803-1.87-1.825a.984.984 0 0 0-.529-.051m9.969 3.565c.968.969 1.812 1.79 1.876 1.824.129.068.421.087.604.039.084-.022.552-.463 1.55-1.458l1.43-1.427v8.419H4.76V6.821l1.43 1.427c.998.995 1.466 1.436 1.55 1.458.183.048.475.029.604-.039.064-.034.908-.855 1.876-1.824A110.88 110.88 0 0 1 12 6.08c.011 0 .812.793 1.78 1.763M3.805 18.28c-.381.09-.618.495-.526.897.071.31.318.523.653.562.114.014 3.826.019 8.248.013 8.624-.013 8.105 0 8.334-.207.15-.136.219-.308.219-.545 0-.237-.069-.409-.219-.545-.229-.207.3-.195-8.434-.201-4.477-.004-8.201.008-8.275.026" fill-rule="evenodd" fill="#000"/></svg>