<svg width="24" height="24" fill="none" xmlns="http://www.w3.org/2000/svg"><path d="M4.805 2.28c-.291.069-.506.327-.544.652-.014.114-.019 4.276-.013 9.248.011 8.449.016 9.048.081 9.165.084.155.282.325.424.365.14.039 14.354.039 14.494 0 .142-.04.34-.21.424-.365.064-.117.069-.572.069-6.805 0-3.674-.015-6.734-.033-6.8-.023-.085-.798-.887-2.62-2.712-1.423-1.426-2.65-2.632-2.727-2.68l-.14-.088-4.64-.006c-2.552-.004-4.701.008-4.775.026m7.435 3.097c0 1.69.027 2.077.17 2.46a3.115 3.115 0 0 0 1.753 1.753c.383.143.77.17 2.46.17h1.617v10.48H5.76V3.76h6.48v1.617m4.235 2.853-1.686.011-.207-.095c-.262-.12-.604-.46-.727-.723l-.094-.203-.001-1.7v-1.7l2.2 2.2 2.2 2.2-1.685.01M9.18 10.827a.696.696 0 0 0-.344.341.807.807 0 0 0-.012.644c.035.07.525.591 1.09 1.158L10.939 14l-1.025 1.03c-.565.567-1.055 1.088-1.09 1.158-.127.254-.048.673.162.857.223.196.582.253.826.131.07-.035.591-.525 1.158-1.09L12 15.061l1.03 1.025c.567.565 1.088 1.055 1.158 1.09.254.127.673.048.857-.162.196-.223.253-.582.131-.826-.035-.07-.525-.591-1.09-1.158L13.061 14l1.025-1.03c.565-.567 1.055-1.088 1.09-1.158.122-.244.065-.603-.131-.826-.184-.21-.603-.289-.857-.162-.07.035-.591.525-1.158 1.09L12 12.939l-1.03-1.025c-.567-.565-1.088-1.055-1.158-1.09-.162-.081-.476-.08-.632.003" fill-rule="evenodd" fill="#000"/></svg>