<svg width="24" height="24" fill="none" xmlns="http://www.w3.org/2000/svg"><path d="M16.82 2.276a.999.999 0 0 0-.2.075c-.044.024-3.053 3.02-6.688 6.656-4.742 4.746-6.616 6.647-6.64 6.733-.04.151-.043 4.362-.002 4.507.04.142.21.34.365.424.114.063.322.069 2.305.069 1.199 0 2.234-.015 2.3-.032.086-.024 1.987-1.898 6.733-6.64 3.637-3.635 6.64-6.66 6.674-6.724.068-.129.087-.42.039-.604-.022-.085-.644-.735-2.138-2.233-1.16-1.162-2.153-2.136-2.208-2.165a.936.936 0 0 0-.54-.066m1.66 3.264L19.94 7l-.97.97-.97.97-1.47-1.47L15.06 6l.96-.96c.528-.528.969-.96.98-.96.011 0 .677.657 1.48 1.46m-3 3L16.94 10l-4.62 4.62-4.62 4.62H4.76V16.3l4.61-4.61A762.212 762.212 0 0 1 14 7.08c.011 0 .677.657 1.48 1.46m-3.675 10.74c-.381.091-.618.495-.526.897.071.31.318.523.653.562.114.014 2.134.02 4.488.013 4.718-.013 4.377.006 4.627-.258A.667.667 0 0 0 21.24 20a.667.667 0 0 0-.193-.494c-.25-.264.104-.245-4.727-.252-2.409-.004-4.441.008-4.515.026" fill-rule="evenodd" fill="#000"/></svg>