<svg width="24" height="24" fill="none" xmlns="http://www.w3.org/2000/svg"><path d="M11.6 4.267c-2.231.106-4.298.952-6.28 2.57-1.364 1.113-2.844 2.858-3.773 4.446-.37.633-.37.801 0 1.434.722 1.235 1.817 2.618 2.899 3.664 1.075 1.038 2.141 1.791 3.364 2.377 1.064.511 2.03.797 3.11.924.489.057 1.671.057 2.16 0 2.282-.267 4.508-1.403 6.474-3.301 1.067-1.031 2.124-2.36 2.848-3.583.436-.735.436-.861 0-1.596-.724-1.223-1.781-2.552-2.848-3.583-1.742-1.682-3.693-2.77-5.694-3.175a10.733 10.733 0 0 0-2.26-.177m1.321 1.534c1.631.197 3.199.898 4.707 2.104.47.377 1.561 1.455 1.977 1.955.605.726 1.515 2.012 1.515 2.14 0 .128-.91 1.414-1.515 2.14-.418.503-1.507 1.579-1.983 1.959-1.802 1.442-3.638 2.141-5.619 2.141-.324 0-.742-.019-.927-.042-1.66-.21-3.186-.892-4.704-2.102-.466-.373-1.555-1.45-1.977-1.956-.603-.724-1.515-2.012-1.515-2.14 0-.128.912-1.416 1.515-2.14.422-.506 1.511-1.583 1.977-1.956C7.855 6.722 9.327 6.05 10.94 5.82c.445-.064 1.527-.074 1.981-.019m-1.326 2.481a3.765 3.765 0 0 0-2.564 1.437c-.238.313-.563.968-.649 1.306a4.254 4.254 0 0 0 0 1.95c.086.338.411.993.649 1.306.366.482.817.837 1.421 1.119a3.648 3.648 0 0 0 1.913.317 3.277 3.277 0 0 0 1.183-.317c.855-.399 1.406-.94 1.813-1.78a3.21 3.21 0 0 0 .356-1.255 3.648 3.648 0 0 0-.317-1.913c-.44-.942-1.128-1.585-2.107-1.967-.441-.173-1.171-.26-1.698-.203m.979 1.541c.376.097.697.287 1.006.597.456.456.66.944.66 1.58 0 .636-.204 1.124-.66 1.58-.456.456-.944.66-1.58.66-.636 0-1.124-.204-1.58-.66-.456-.456-.66-.944-.66-1.58 0-.636.204-1.124.66-1.58.459-.458.916-.652 1.554-.657.203-.002.46.024.6.06" fill-rule="evenodd" fill="#000"/></svg>