<svg width="24" height="24" fill="none" xmlns="http://www.w3.org/2000/svg"><path d="M4.701 3.284c-.334.049-.64.214-.921.496-.306.305-.447.586-.502 1-.027.202-.038 1.08-.03 2.38.013 2.237.007 2.175.238 2.385.157.142.283.188.514.188.231 0 .357-.046.514-.188.232-.21.225-.137.238-2.49.01-1.999.017-2.17.081-2.229.061-.055.329-.064 2.228-.074 2.294-.013 2.233-.008 2.453-.207.15-.136.219-.308.219-.545 0-.237-.069-.409-.219-.545-.221-.2-.157-.195-2.434-.201-1.177-.003-2.247.01-2.379.03m10.104-.004c-.733.173-.719 1.271.018 1.442.086.02 1.086.037 2.221.037 1.928.001 2.068.006 2.128.072.058.064.066.311.076 2.23.013 2.346.006 2.274.238 2.484.157.142.283.188.514.188.313 0 .53-.131.685-.413.071-.13.103-4.041.037-4.54-.055-.414-.196-.695-.502-1-.291-.292-.587-.445-.96-.498-.331-.048-4.256-.049-4.455-.002m-6 3.999c-.291.071-.505.327-.546.653-.014.114-.019.676-.012 1.248.011.876.023 1.059.079 1.16a.89.89 0 0 0 .354.342c.14.072.514.064.665-.014.153-.08.325-.277.365-.421.017-.059.03-.62.03-1.247 0-.627-.013-1.188-.03-1.247a.833.833 0 0 0-.345-.41.949.949 0 0 0-.56-.064m6 0c-.291.071-.505.327-.546.653-.014.114-.019.676-.012 1.248.011.876.023 1.059.079 1.16a.89.89 0 0 0 .354.342c.14.072.514.064.665-.014.153-.08.325-.277.365-.421.017-.059.03-.62.03-1.247 0-.627-.013-1.188-.03-1.247a.833.833 0 0 0-.345-.41.949.949 0 0 0-.56-.064M12.42 10.26a2.274 2.274 0 0 1-.149.037c-.147.032-.39.251-.457.411-.037.089-.054.316-.054.73v.601l-.35.177a2.733 2.733 0 0 0-.444.266c-.196.185-.263.544-.152.81.118.283.501.497.791.443.074-.015.419-.169.767-.344.543-.273.646-.34.74-.481l.108-.164.012-.903c.007-.497.002-.962-.012-1.034-.027-.148-.22-.387-.376-.466-.112-.056-.359-.105-.424-.083m-8.615 4.019a.73.73 0 0 0-.527.544c-.049.214-.047 4.086.004 4.437.053.373.206.669.498.96.305.306.586.447 1 .502.202.027 1.08.038 2.38.03 2.237-.013 2.175-.007 2.385-.238.142-.157.188-.283.188-.514 0-.231-.046-.357-.188-.514-.21-.232-.138-.225-2.484-.238-1.899-.01-2.167-.019-2.228-.074-.064-.059-.071-.23-.081-2.229-.013-2.301-.007-2.239-.207-2.459-.167-.185-.476-.271-.74-.207m16 0a.73.73 0 0 0-.527.544c-.02.086-.037 1.086-.037 2.221-.001 1.928-.006 2.068-.072 2.128-.064.058-.311.066-2.23.076-2.346.013-2.274.006-2.484.238-.142.157-.188.283-.188.514 0 .313.131.53.413.685.13.071 4.041.103 4.54.037.414-.055.695-.196 1-.502.306-.305.447-.586.502-1 .066-.499.034-4.41-.037-4.54a.78.78 0 0 0-.88-.401m-11 1c-.382.093-.618.496-.526.898.049.215.14.328.464.573 1.673 1.27 4.574 1.326 6.348.122.517-.351.642-.52.642-.872.001-.446-.287-.733-.733-.733-.247 0-.34.039-.6.255-.523.434-1.472.718-2.4.718-.928 0-1.877-.284-2.4-.718a2.24 2.24 0 0 0-.26-.191.958.958 0 0 0-.535-.052" fill-rule="evenodd" fill="#000"/></svg>