<svg width="24" height="24" fill="none" xmlns="http://www.w3.org/2000/svg"><path d="M11.52 2.282a5.68 5.68 0 0 0-3.576 1.662 5.729 5.729 0 0 0 .001 8.112c.814.812 1.848 1.367 2.925 1.571l.37.07v3.538l-1.23.012c-1.326.014-1.355.018-1.555.239-.142.157-.188.283-.188.514 0 .231.046.357.188.514.2.22.229.225 1.552.239l1.228.012.012 1.228c.014 1.292.016 1.309.208 1.521.136.15.308.219.545.219.237 0 .409-.069.545-.219.192-.212.194-.229.208-1.521l.012-1.228 1.228-.012c1.323-.014 1.352-.019 1.552-.239.142-.157.188-.283.188-.514 0-.231-.046-.357-.188-.514-.2-.221-.229-.225-1.555-.239l-1.23-.012v-3.538l.37-.07a5.676 5.676 0 0 0 2.925-1.572 5.723 5.723 0 0 0 0-8.11 5.681 5.681 0 0 0-4.535-1.663m1.243 1.541a4.226 4.226 0 0 1 2.235 1.179 4.233 4.233 0 0 1 .535 5.348A4.245 4.245 0 0 1 12 12.24a4.244 4.244 0 0 1-4.177-3.477c-.255-1.344.194-2.775 1.179-3.761.465-.464.922-.75 1.661-1.038.491-.191 1.483-.258 2.1-.141" fill-rule="evenodd" fill="#000"/></svg>