<svg width="24" height="24" fill="none" xmlns="http://www.w3.org/2000/svg"><path d="M3.805 3.28c-.376.089-.618.495-.529.886.019.082 1.109 1.867 2.499 4.09L8.24 12.2l.001 2.89c.001 1.841.016 2.955.042 3.069.087.375-.015.315 3.376 2.01 2.849 1.424 3.151 1.566 3.33 1.566a.753.753 0 0 0 .631-.332l.12-.17.011-4.522.011-4.522 2.486-3.977 2.485-3.978v-.235a.714.714 0 0 0-.36-.644l-.153-.095-8.14-.006c-4.477-.004-8.201.008-8.275.026m14.641 1.79c-2.972 4.747-4.143 6.645-4.17 6.764-.019.08-.035 1.896-.035 4.036-.001 2.139-.01 3.89-.021 3.89-.011 0-1.019-.499-2.24-1.11l-2.22-1.11-.001-2.78c0-1.529-.016-2.846-.035-2.926-.027-.119-1.198-2.017-4.17-6.764l-.195-.31h13.282l-.195.31" fill-rule="evenodd" fill="#000"/></svg>