<svg width="24" height="24" fill="none" xmlns="http://www.w3.org/2000/svg"><path d="M3.805 3.28c-.291.069-.506.327-.544.652-.014.114-.019 4.051-.013 8.748.013 9.162 0 8.605.207 8.834.136.15.308.219.545.219.237 0 .409-.069.545-.219.203-.224.194-.077.206-3.524l.011-3.229 7.736-.011 7.735-.01.172-.121c.094-.066.205-.179.247-.25.081-.139.106-.431.054-.629-.022-.085-.696-.786-2.338-2.43L16.061 9l2.285-2.29c1.257-1.259 2.308-2.335 2.336-2.39.071-.138.064-.515-.012-.66a.888.888 0 0 0-.156-.205c-.229-.207.3-.195-8.434-.201-4.477-.004-8.201.008-8.275.026m12.447 3.41C14.266 8.679 14.264 8.681 14.264 9c0 .319.002.321 1.988 2.31l1.927 1.93H4.76V4.76h13.419l-1.927 1.93" fill-rule="evenodd" fill="#000"/></svg>