<svg width="24" height="24" fill="none" xmlns="http://www.w3.org/2000/svg"><path d="M4.805 2.278c-.293.073-.506.33-.544.654-.014.114-.019 4.276-.013 9.248.013 9.701 0 9.105.207 9.334.136.15.308.219.545.219.237 0 .409-.069.545-.219.197-.218.194-.184.215-2.173l.02-1.88 7.3-3.404c5.715-2.665 7.331-3.435 7.444-3.544a.733.733 0 0 0 .059-.972 1.088 1.088 0 0 0-.358-.259C17.642 8.05 5.183 2.273 5.081 2.261a.942.942 0 0 0-.276.017m7.242 4.834C15.43 8.689 18.198 9.989 18.198 10c0 .017-12.169 5.705-12.37 5.782-.064.025-.068-.33-.068-5.782s.004-5.807.068-5.782c.037.014 2.836 1.316 6.219 2.894" fill-rule="evenodd" fill="#000"/></svg>