<svg width="24" height="24" fill="none" xmlns="http://www.w3.org/2000/svg"><path d="M11.32 2.28c-1.879.127-3.672.802-5.236 1.972-.493.368-1.464 1.339-1.832 1.832a9.794 9.794 0 0 0-1.895 4.524 10.9 10.9 0 0 0 0 2.784 9.794 9.794 0 0 0 1.895 4.524c.368.493 1.339 1.464 1.832 1.832a9.768 9.768 0 0 0 4.524 1.894 10.32 10.32 0 0 0 3.804-.2 9.913 9.913 0 0 0 3.504-1.694c.493-.369 1.463-1.339 1.832-1.832a9.763 9.763 0 0 0 1.894-4.524 10.9 10.9 0 0 0 0-2.784 9.763 9.763 0 0 0-1.894-4.524c-.369-.493-1.339-1.463-1.832-1.832-1.13-.846-2.524-1.495-3.796-1.766a10.872 10.872 0 0 0-2.8-.206M9.96 4.018c0 .009-.106.158-.235.33-.509.675-1.099 1.712-1.463 2.571a12.713 12.713 0 0 0-.946 3.811l-.05.51H3.789l.027-.27c.133-1.308.75-2.815 1.629-3.979.321-.425 1.121-1.225 1.546-1.546A8.757 8.757 0 0 1 9.42 4.163c.49-.163.54-.176.54-.145m2.414.376a10.993 10.993 0 0 1 2.504 4.637c.134.532.264 1.254.301 1.669.014.154.035.338.048.41l.022.13H8.751l.022-.13c.013-.072.034-.256.048-.41.169-1.904.971-3.955 2.165-5.54.286-.38.98-1.163 1.019-1.149.013.005.179.177.369.383m2.195-.233a8.668 8.668 0 0 1 2.44 1.284c.425.321 1.225 1.121 1.546 1.546.879 1.164 1.496 2.671 1.629 3.979l.027.27H16.734l-.05-.51c-.127-1.318-.435-2.591-.892-3.69-.366-.88-1.004-2.012-1.515-2.691-.23-.305-.258-.349-.218-.349.01 0 .24.072.51.161M7.316 13.27c.127 1.318.435 2.591.892 3.69.367.881 1.004 2.012 1.517 2.693.131.174.231.324.222.333-.039.039-1.046-.327-1.487-.54-.929-.449-1.55-.891-2.283-1.623-.732-.733-1.174-1.354-1.623-2.283-.372-.769-.661-1.753-.738-2.51l-.027-.27H7.266l.05.51m7.911-.38a6.506 6.506 0 0 0-.048.41c-.065.731-.316 1.85-.575 2.569-.548 1.521-1.281 2.725-2.352 3.863l-.256.272-.288-.308a10.99 10.99 0 0 1-2.587-4.734 12.556 12.556 0 0 1-.3-1.662 6.506 6.506 0 0 0-.048-.41l-.022-.13h6.498l-.022.13m4.957.14c-.077.757-.366 1.741-.738 2.51-.449.929-.891 1.55-1.623 2.283-.733.732-1.354 1.174-2.283 1.623-.441.213-1.448.579-1.487.54-.009-.009.091-.159.222-.333.513-.681 1.15-1.812 1.517-2.693.457-1.099.765-2.372.892-3.69l.05-.51H20.211l-.027.27" fill-rule="evenodd" fill="#000"/></svg>