<svg width="24" height="24" fill="none" xmlns="http://www.w3.org/2000/svg"><path d="M3.18 2.827a.696.696 0 0 0-.344.341c-.073.143-.076.297-.076 3.832 0 3.317.006 3.697.065 3.812a.682.682 0 0 0 .343.352c.145.074.39.076 8.832.076s8.687-.002 8.832-.076a.682.682 0 0 0 .343-.352c.059-.115.065-.495.065-3.812 0-3.317-.006-3.697-.065-3.812a.682.682 0 0 0-.343-.352c-.145-.074-.389-.076-8.84-.074-7.855.001-8.704.007-8.812.065M19.76 7v2.76H4.24V4.24h15.52V7M3.18 12.827a.696.696 0 0 0-.344.341c-.073.143-.076.297-.076 3.832 0 3.317.006 3.697.065 3.812a.682.682 0 0 0 .343.352c.145.074.39.076 8.832.076s8.687-.002 8.832-.076a.682.682 0 0 0 .343-.352c.059-.115.065-.495.065-3.812 0-3.317-.006-3.697-.065-3.812a.682.682 0 0 0-.343-.352c-.145-.074-.389-.076-8.84-.074-7.855.001-8.704.007-8.812.065M19.76 17v2.76H4.24v-5.52h15.52V17" fill-rule="evenodd" fill="#000"/></svg>