<svg width="24" height="24" fill="none" xmlns="http://www.w3.org/2000/svg"><path d="M3.18 2.827a.696.696 0 0 0-.344.341c-.073.143-.076.297-.076 3.832 0 3.317.006 3.697.065 3.812a.682.682 0 0 0 .343.352c.143.073.297.076 3.832.076 3.317 0 3.697-.006 3.812-.065a.682.682 0 0 0 .352-.343c.073-.143.076-.297.076-3.832 0-3.535-.003-3.689-.076-3.832a.682.682 0 0 0-.352-.343c-.115-.059-.493-.065-3.82-.063-3.291.001-3.705.008-3.812.065m10 0a.696.696 0 0 0-.344.341c-.073.143-.076.297-.076 3.832 0 3.317.006 3.697.065 3.812a.682.682 0 0 0 .343.352c.143.073.297.076 3.832.076 3.317 0 3.697-.006 3.812-.065a.682.682 0 0 0 .352-.343c.073-.143.076-.297.076-3.832 0-3.535-.003-3.689-.076-3.832a.682.682 0 0 0-.352-.343c-.115-.059-.493-.065-3.82-.063-3.291.001-3.705.008-3.812.065M9.76 7v2.76H4.24V4.24h5.52V7m10 0v2.76h-5.52V4.24h5.52V7M3.18 12.827a.696.696 0 0 0-.344.341c-.073.143-.076.297-.076 3.832 0 3.317.006 3.697.065 3.812a.682.682 0 0 0 .343.352c.143.073.297.076 3.832.076 3.317 0 3.697-.006 3.812-.065a.682.682 0 0 0 .352-.343c.073-.143.076-.297.076-3.832 0-3.535-.003-3.689-.076-3.832a.682.682 0 0 0-.352-.343c-.115-.059-.493-.065-3.82-.063-3.291.001-3.705.008-3.812.065m10 0a.696.696 0 0 0-.344.341c-.073.143-.076.297-.076 3.832 0 3.317.006 3.697.065 3.812a.682.682 0 0 0 .343.352c.143.073.297.076 3.832.076 3.317 0 3.697-.006 3.812-.065a.682.682 0 0 0 .352-.343c.073-.143.076-.297.076-3.832 0-3.535-.003-3.689-.076-3.832a.682.682 0 0 0-.352-.343c-.115-.059-.493-.065-3.82-.063-3.291.001-3.705.008-3.812.065M9.76 17v2.76H4.24v-5.52h5.52V17m10 0v2.76h-5.52v-5.52h5.52V17" fill-rule="evenodd" fill="#000"/></svg>