<svg width="24" height="24" fill="none" xmlns="http://www.w3.org/2000/svg"><path d="M3.18 2.827a.696.696 0 0 0-.344.341c-.074.145-.076.39-.076 8.832s.002 8.687.076 8.832c.086.169.17.251.352.343.115.059.495.065 3.812.065 3.317 0 3.697-.006 3.812-.065a.682.682 0 0 0 .352-.343c.074-.145.076-.39.076-8.832s-.002-8.687-.076-8.832a.682.682 0 0 0-.352-.343c-.115-.059-.493-.065-3.82-.063-3.291.001-3.705.008-3.812.065m10 0a.696.696 0 0 0-.344.341c-.074.145-.076.39-.076 8.832s.002 8.687.076 8.832c.086.169.17.251.352.343.115.059.495.065 3.812.065 3.317 0 3.697-.006 3.812-.065a.682.682 0 0 0 .352-.343c.074-.145.076-.39.076-8.832s-.002-8.687-.076-8.832a.682.682 0 0 0-.352-.343c-.115-.059-.493-.065-3.82-.063-3.291.001-3.705.008-3.812.065M9.76 12v7.76H4.24V4.24h5.52V12m10 0v7.76h-5.52V4.24h5.52V12" fill-rule="evenodd" fill="#000"/></svg>