<svg width="24" height="24" fill="none" xmlns="http://www.w3.org/2000/svg"><path d="M11.32 2.28c-1.879.127-3.672.802-5.236 1.972-.493.368-1.464 1.339-1.832 1.832C3.179 7.518 2.553 9.075 2.313 10.9c-.041.312-.053 1.484-.053 5.32 0 2.706.013 4.968.03 5.027.04.142.21.34.365.424.113.062.302.069 1.945.069 1.612 0 1.85-.008 2.08-.07a2.838 2.838 0 0 0 1.99-1.99c.062-.231.07-.472.07-2.18 0-1.708-.008-1.949-.07-2.18a2.838 2.838 0 0 0-1.45-1.781c-.516-.254-.619-.268-2.11-.289l-1.35-.019v-.945c0-1.333.133-2.163.506-3.161.42-1.124 1.033-2.069 1.911-2.948.701-.7 1.302-1.135 2.166-1.568a8.255 8.255 0 0 1 7.314 0c.864.433 1.465.868 2.166 1.568a8.037 8.037 0 0 1 1.914 2.958c.367.98.503 1.844.503 3.183v.913l-1.35.019c-1.491.021-1.594.035-2.11.289a2.838 2.838 0 0 0-1.45 1.781c-.062.231-.07.472-.07 2.18 0 1.708.008 1.949.07 2.18a2.838 2.838 0 0 0 1.99 1.99c.23.062.468.07 2.08.07 1.643 0 1.832-.007 1.945-.069.155-.084.325-.282.365-.424.017-.059.03-2.321.03-5.027 0-3.836-.012-5.008-.053-5.32-.24-1.825-.868-3.386-1.939-4.816-.369-.493-1.339-1.463-1.832-1.832-1.13-.846-2.524-1.495-3.796-1.766a10.872 10.872 0 0 0-2.8-.206M6.454 14.841c.29.109.596.415.705.705.077.206.081.307.081 1.954 0 2.014.001 2.008-.366 2.374-.351.352-.424.366-1.876.366H3.76v-5.48h1.238c1.147 0 1.255.006 1.456.081M20.24 17.5v2.74h-1.238c-1.452 0-1.525-.014-1.876-.366-.367-.366-.366-.36-.366-2.374 0-2.014-.001-2.007.366-2.374.35-.35.407-.361 1.864-.364l1.25-.002v2.74" fill-rule="evenodd" fill="#000"/></svg>