<svg width="24" height="24" fill="none" xmlns="http://www.w3.org/2000/svg"><path d="M11.82 2.276c-.066.017-.156.05-.2.074-.044.025-1.703 1.67-3.688 3.657C5.37 8.574 4.316 9.655 4.292 9.74c-.04.151-.043 10.362-.002 10.507.04.142.21.34.365.424.117.064.602.069 7.345.069 6.743 0 7.228-.005 7.345-.069.155-.084.325-.282.365-.424.041-.145.038-10.356-.002-10.507-.024-.085-1.078-1.166-3.64-3.733-1.985-1.987-3.653-3.636-3.708-3.665a.936.936 0 0 0-.54-.066m3.31 4.914 3.11 3.11v8.94H5.76V10.3l3.11-3.11c1.71-1.71 3.119-3.11 3.13-3.11.011 0 1.42 1.4 3.13 3.11M9.4 9.822c-.462.099-.891.345-1.282.734-.598.595-.842 1.173-.846 2.004-.003.697.145 1.194.505 1.699.078.109.955 1.043 1.951 2.075 1.873 1.945 1.963 2.024 2.272 2.024.309 0 .399-.079 2.272-2.024.996-1.032 1.873-1.966 1.951-2.075.36-.505.508-1.002.505-1.699-.004-.831-.248-1.409-.846-2.004-.547-.545-1.146-.795-1.902-.795-.653 0-1.299.236-1.75.64l-.23.205-.23-.205a2.849 2.849 0 0 0-1.15-.581 3.403 3.403 0 0 0-1.22.002m1.117 1.541c.119.053.345.241.643.535.545.537.682.602 1.06.497.122-.033.269-.151.62-.497.546-.539.717-.634 1.14-.633.378.001.639.117.898.4a1.3 1.3 0 0 1 .362.909c0 .341-.091.623-.276.853-.199.248-2.924 3.073-2.964 3.073-.04 0-2.765-2.825-2.964-3.073-.398-.496-.367-1.259.072-1.747.376-.419.908-.538 1.409-.317" fill-rule="evenodd" fill="#000"/></svg>