<svg width="24" height="24" fill="none" xmlns="http://www.w3.org/2000/svg"><path d="M11.816 2.277a.793.793 0 0 0-.217.095A653.59 653.59 0 0 0 7.458 5.98C4.542 8.531 3.387 9.565 3.334 9.671c-.071.143-.074.372-.074 5.309 0 2.838.013 5.208.03 5.267.04.142.21.34.365.424.115.063.349.069 2.805.069 1.474 0 2.728-.013 2.787-.03.142-.04.34-.21.424-.365.062-.113.071-.357.091-2.485.016-1.777.035-2.399.074-2.52.165-.508.645-1.085 1.104-1.327a2.325 2.325 0 0 1 2.12 0c.459.242.939.819 1.104 1.327.039.121.058.743.074 2.52.02 2.128.029 2.372.091 2.485.084.155.282.325.424.365.059.017 1.313.03 2.787.03 2.456 0 2.69-.006 2.805-.069.155-.084.325-.282.365-.424.017-.059.03-2.429.03-5.267 0-4.937-.003-5.166-.074-5.309-.053-.106-1.21-1.142-4.132-3.699-2.233-1.953-4.108-3.581-4.167-3.618a.848.848 0 0 0-.551-.077m3.807 4.888 3.617 3.165v8.91h-3.48l-.001-1.61c-.001-2.197-.039-2.512-.398-3.25-.407-.84-.958-1.381-1.813-1.78a3.648 3.648 0 0 0-1.913-.317 3.277 3.277 0 0 0-1.183.317c-.855.399-1.406.94-1.813 1.78-.359.738-.397 1.053-.398 3.25l-.001 1.61H4.76v-8.91l3.61-3.163a928.279 928.279 0 0 1 3.623-3.165c.007-.001 1.64 1.422 3.63 3.163" fill-rule="evenodd" fill="#000"/></svg>