<svg width="24" height="24" fill="none" xmlns="http://www.w3.org/2000/svg"><path d="M11.82 2.276c-.066.017-.156.05-.2.074-.044.025-1.703 1.67-3.688 3.657C5.37 8.574 4.316 9.655 4.292 9.74c-.04.151-.043 10.362-.002 10.507.04.142.21.34.365.424.117.064.602.069 7.345.069 6.743 0 7.228-.005 7.345-.069.155-.084.325-.282.365-.424.041-.145.038-10.356-.002-10.507-.024-.085-1.078-1.166-3.64-3.733-1.985-1.987-3.653-3.636-3.708-3.665a.936.936 0 0 0-.54-.066m3.31 4.914 3.11 3.11v8.94H5.76V10.3l3.11-3.11c1.71-1.71 3.119-3.11 3.13-3.11.011 0 1.42 1.4 3.13 3.11" fill-rule="evenodd" fill="#000"/></svg>