<svg width="24" height="24" fill="none" xmlns="http://www.w3.org/2000/svg"><path d="M11.82 2.276c-.066.017-.156.05-.2.074-.044.025-1.703 1.67-3.688 3.657C5.37 8.574 4.316 9.655 4.292 9.74c-.04.151-.043 10.362-.002 10.507.04.142.21.34.365.424.117.064.602.069 7.345.069 6.743 0 7.228-.005 7.345-.069.155-.084.325-.282.365-.424.041-.145.038-10.356-.002-10.507-.024-.085-1.078-1.166-3.64-3.733-1.985-1.987-3.653-3.636-3.708-3.665a.936.936 0 0 0-.54-.066m3.31 4.914 3.11 3.11v8.94H5.76V10.3l3.11-3.11c1.71-1.71 3.119-3.11 3.13-3.11.011 0 1.42 1.4 3.13 3.11m-3.325 3.089a.73.73 0 0 0-.527.544c-.02.086-.037.664-.037 1.284l-.001 1.128-1.23.012c-1.326.014-1.355.018-1.555.239-.142.157-.188.283-.188.514 0 .231.046.357.188.514.2.22.229.225 1.552.239l1.228.012.012 1.228c.014 1.323.019 1.352.239 1.552.157.142.283.188.514.188.231 0 .357-.046.514-.188.22-.2.225-.229.239-1.552l.012-1.228 1.228-.012c1.292-.014 1.309-.016 1.521-.208.15-.136.219-.308.219-.545 0-.237-.069-.409-.219-.545-.212-.192-.229-.194-1.521-.208l-1.228-.012-.012-1.228c-.014-1.292-.016-1.309-.208-1.521-.167-.185-.476-.271-.74-.207" fill-rule="evenodd" fill="#000"/></svg>