<svg width="24" height="24" fill="none" xmlns="http://www.w3.org/2000/svg"><path d="M8.9 6.259a1.795 1.795 0 0 1-.16.04c-.09.019-.773.678-2.733 2.633-1.437 1.435-2.641 2.662-2.676 2.728-.083.155-.083.525 0 .68.035.066 1.239 1.293 2.676 2.728 1.865 1.861 2.647 2.616 2.733 2.639.525.136.98-.167.993-.662a1.293 1.293 0 0 0-.027-.305c-.022-.085-.696-.786-2.338-2.43L5.061 12l2.307-2.31C9.01 8.046 9.684 7.345 9.706 7.26c.132-.502-.127-.926-.606-.993a.725.725 0 0 0-.2-.008m6 0a1.438 1.438 0 0 1-.147.037c-.138.031-.339.201-.419.355-.069.134-.089.424-.04.609.022.085.696.786 2.338 2.43L18.939 12l-2.307 2.31c-1.642 1.644-2.316 2.345-2.338 2.43-.143.546.175.993.706.993a.872.872 0 0 0 .34-.064c.066-.035 1.293-1.239 2.728-2.676 1.877-1.882 2.616-2.647 2.638-2.733a1.2 1.2 0 0 0 0-.52c-.022-.086-.761-.851-2.638-2.733-1.435-1.437-2.653-2.636-2.708-2.665-.106-.055-.392-.107-.46-.083" fill-rule="evenodd" fill="#000"/></svg>