<svg width="24" height="24" fill="none" xmlns="http://www.w3.org/2000/svg"><path d="M4.805 3.28c-.596.142-.743.955-.239 1.33.157.118.367.148 1.04.149l.625.001.02 1.29c.021 1.371.037 1.496.245 1.964.051.113.578.937 1.172 1.83C8.773 11.506 8.84 11.629 8.84 12c0 .371-.067.494-1.172 2.156-.594.893-1.121 1.717-1.172 1.83-.208.468-.224.593-.245 1.96l-.02 1.287-.725.014c-.576.012-.751.028-.846.08a.88.88 0 0 0-.342.353c-.072.14-.064.514.014.665.08.153.277.325.421.365.14.039 14.354.039 14.494 0 .144-.04.341-.212.421-.365.083-.16.084-.528.002-.685a.872.872 0 0 0-.35-.344c-.071-.039-.313-.059-.825-.069l-.726-.014-.02-1.287c-.022-1.366-.038-1.496-.245-1.96-.051-.113-.578-.937-1.172-1.83-1.105-1.662-1.172-1.785-1.172-2.156 0-.371.067-.494 1.172-2.156.594-.893 1.121-1.717 1.172-1.83.207-.464.223-.594.245-1.96l.02-1.287.726-.014c.752-.015.821-.029 1.019-.208.15-.136.219-.308.219-.545 0-.237-.069-.409-.219-.545-.228-.207.224-.195-7.434-.201-3.927-.004-7.201.008-7.275.026m11.427 2.73c-.012 1.225-.014 1.254-.106 1.427-.052.097-.546.853-1.097 1.68-1.023 1.533-1.224 1.886-1.308 2.294-.064.316-.058.915.014 1.22.099.422.256.696 1.294 2.253a62.873 62.873 0 0 1 1.097 1.679c.092.173.094.202.106 1.427l.012 1.25H7.756l.012-1.25c.012-1.225.014-1.254.106-1.427.052-.097.546-.853 1.097-1.679 1.038-1.557 1.195-1.83 1.295-2.253.075-.322.075-.94 0-1.262-.1-.423-.257-.696-1.295-2.253a62.873 62.873 0 0 1-1.097-1.679c-.092-.173-.094-.202-.106-1.427l-.012-1.25h8.488l-.012 1.25" fill-rule="evenodd" fill="#000"/></svg>