<svg width="24" height="24" fill="none" xmlns="http://www.w3.org/2000/svg"><path d="M11.805 2.279a.73.73 0 0 0-.527.544c-.02.086-.037.652-.037 1.257l-.001 1.099-.91-.905c-.5-.498-.955-.928-1.01-.956-.138-.071-.515-.064-.66.012a.849.849 0 0 0-.342.35c-.072.139-.064.515.013.66.035.066.704.759 1.486 1.54L11.24 7.3v1.69c0 .929-.007 1.69-.015 1.69-.013 0-2.859-1.633-2.898-1.663-.007-.005-.245-.876-.53-1.935-.284-1.059-.542-1.974-.573-2.034a.699.699 0 0 0-.642-.381c-.423-.004-.743.306-.741.717.001.116.128.667.314 1.356.172.638.307 1.167.301 1.175-.007.008-.458-.244-1.004-.56L4.46 6.78h-.263c-.228 0-.283.015-.414.115-.224.171-.303.326-.303.597 0 .258.057.397.226.551.063.057.533.344 1.044.638.512.294.93.544.93.556 0 .013-.526.163-1.169.335-.642.172-1.229.341-1.305.377a.747.747 0 0 0-.251.246c-.313.494.022 1.132.596 1.136.119 0 .887-.187 2.081-.508 1.041-.279 1.916-.502 1.944-.496.073.018 2.902 1.649 2.902 1.673 0 .024-2.829 1.655-2.902 1.673-.028.006-.903-.217-1.944-.496-1.194-.321-1.962-.508-2.081-.508-.574.004-.909.642-.596 1.136a.747.747 0 0 0 .251.246c.076.036.663.205 1.305.377.643.172 1.169.322 1.169.334 0 .013-.418.263-.93.557-.511.293-.981.58-1.044.637-.169.155-.226.294-.226.552 0 .271.079.426.303.597.131.1.186.115.414.115h.263l.992-.575c.546-.316.997-.568 1.004-.56.006.008-.129.537-.301 1.175-.186.689-.313 1.24-.314 1.356-.003.49.455.826.934.687a.746.746 0 0 0 .46-.37c.024-.048.277-.954.562-2.014.284-1.06.523-1.931.53-1.936.039-.03 2.885-1.663 2.898-1.663.008 0 .015.761.015 1.69v1.69l-1.423 1.42c-.782.781-1.451 1.474-1.486 1.54-.077.145-.085.521-.013.66a.849.849 0 0 0 .342.35c.145.076.522.083.66.012.055-.028.508-.457 1.007-.953l.908-.903.012 1.197c.014 1.26.016 1.279.208 1.491.136.15.308.219.545.219.237 0 .409-.069.545-.219.192-.212.194-.231.208-1.491l.012-1.197.908.903c.499.496.952.925 1.007.953.138.071.515.064.66-.012a.849.849 0 0 0 .342-.35c.072-.139.064-.515-.013-.66-.035-.066-.704-.759-1.486-1.54L12.76 16.7v-1.69c0-.929.007-1.69.015-1.69.013 0 2.859 1.633 2.898 1.663.007.005.245.876.529 1.935.284 1.059.537 1.965.562 2.014a.712.712 0 0 0 .655.401c.421.004.742-.307.74-.717 0-.117-.127-.662-.314-1.356a24.808 24.808 0 0 1-.302-1.175c.007-.008.459.244 1.005.56l.992.575h.263c.228 0 .283-.015.414-.115.224-.171.303-.326.303-.597 0-.258-.057-.397-.226-.551-.063-.057-.532-.344-1.044-.638-.512-.294-.93-.544-.93-.556 0-.013.526-.163 1.169-.335.642-.172 1.229-.341 1.305-.377a.747.747 0 0 0 .251-.246c.313-.494-.022-1.132-.596-1.136-.119 0-.887.187-2.081.508-1.041.279-1.916.502-1.944.496-.073-.018-2.902-1.649-2.902-1.673 0-.025 2.828-1.655 2.901-1.673.029-.006.904.217 1.945.496 1.194.321 1.962.508 2.081.508.574-.004.909-.642.596-1.136a.747.747 0 0 0-.251-.246c-.076-.036-.663-.205-1.305-.377-.643-.172-1.169-.322-1.169-.335 0-.012.418-.262.93-.556.512-.294.981-.581 1.044-.638.169-.154.226-.293.226-.551 0-.271-.079-.426-.303-.597-.131-.1-.186-.115-.414-.115h-.263l-.992.575c-.545.316-.997.568-1.004.56-.007-.008.128-.537.301-1.175.187-.694.314-1.239.314-1.356.002-.41-.319-.721-.74-.717a.712.712 0 0 0-.655.401c-.025.049-.278.955-.562 2.014-.284 1.059-.522 1.93-.529 1.935a299.15 299.15 0 0 1-2.897 1.663c-.009 0-.016-.761-.016-1.69V7.3l1.423-1.42c.782-.781 1.451-1.474 1.486-1.54.082-.154.083-.524.001-.68a.849.849 0 0 0-.35-.342c-.128-.066-.511-.066-.64 0-.055.028-.508.457-1.007.953l-.908.903-.012-1.197c-.014-1.26-.016-1.279-.208-1.491-.167-.185-.476-.271-.74-.207" fill-rule="evenodd" fill="#000"/></svg>