<svg width="24" height="24" fill="none" xmlns="http://www.w3.org/2000/svg"><path d="M5.617 3.283c-.585.069-1.099.328-1.552.782-.483.482-.715.968-.787 1.648-.028.255-.037 2.493-.028 6.567.012 5.812.017 6.194.085 6.419.243.804.743 1.413 1.445 1.76.615.303.047.281 7.22.281 6.003 0 6.437-.005 6.68-.07a2.838 2.838 0 0 0 1.99-1.99c.065-.243.07-.677.07-6.68s-.005-6.437-.07-6.68a2.856 2.856 0 0 0-1.97-1.989c-.223-.065-.672-.07-6.52-.076-3.454-.003-6.408.009-6.563.028m12.837 1.558c.29.109.596.415.705.705.079.212.081.299.081 3.522v3.306l-.31-.3c-.563-.546-1.117-.771-1.89-.77-.928.002-1.116.103-2.97 1.586-.815.652-1.541 1.203-1.657 1.257-.482.224-.824.168-1.443-.236-.806-.527-1.191-.65-1.93-.62-.315.013-.542.045-.72.103-.543.175-.692.296-2.17 1.764l-1.39 1.379V11.15c0-5.315.001-5.39.081-5.604.106-.282.415-.596.694-.703.201-.077.331-.079 6.453-.081 6.184-.002 6.251-.001 6.466.079M8.617 6.283a2.79 2.79 0 0 0-1.042.362c-.29.173-.757.64-.93.93a2.846 2.846 0 0 0 0 2.85c.173.29.64.757.93.93.852.51 1.998.51 2.85 0 .29-.173.757-.64.93-.93.495-.827.51-1.982.035-2.792-.569-.971-1.629-1.487-2.773-1.35m.837 1.558c.29.109.596.415.705.705.176.471.068.975-.285 1.328-.781.781-2.114.23-2.114-.874 0-.342.12-.629.366-.874a1.236 1.236 0 0 1 1.328-.285m8.066 5.045c.131.056.39.287.95.845l.77.768v1.869c0 1.78-.004 1.879-.081 2.086-.109.29-.415.596-.705.705-.215.08-.285.081-6.455.081-5.984 0-6.246-.003-6.434-.074a1.234 1.234 0 0 1-.588-.45l-.111-.161 1.777-1.779c2.022-2.024 1.989-1.997 2.537-1.994.359.002.465.044.966.382.696.469 1.182.62 1.874.583.486-.026.801-.108 1.164-.302.13-.07.889-.648 1.687-1.286.799-.637 1.525-1.196 1.614-1.242a1.193 1.193 0 0 1 1.035-.031" fill-rule="evenodd" fill="#000"/></svg>