<svg width="24" height="24" fill="none" xmlns="http://www.w3.org/2000/svg"><path d="M6.412 3.28a1.8 1.8 0 0 0-1.199.806c-.071.117-.764 1.906-1.54 3.974L2.26 11.82v3.3c0 3.025.006 3.322.07 3.56a2.838 2.838 0 0 0 1.99 1.99c.244.066.722.07 7.68.07s7.436-.004 7.68-.07a2.838 2.838 0 0 0 1.99-1.99c.064-.238.07-.535.07-3.56v-3.3l-1.413-3.76c-.776-2.068-1.469-3.857-1.54-3.974-.248-.419-.732-.735-1.235-.808-.303-.044-10.839-.042-11.14.002M17.48 4.82c.027.033.585 1.486 1.239 3.23l1.189 3.17-2.044.02c-1.958.019-2.051.023-2.204.102-.139.071-.284.267-1.1 1.488l-.94 1.408-1.58.001-1.581.001-.645-1.292c-.355-.711-.695-1.351-.755-1.422-.233-.277-.113-.264-2.663-.286l-2.304-.02 1.189-3.17c.654-1.744 1.212-3.197 1.239-3.23.044-.053.705-.06 5.48-.06s5.436.007 5.48.06m-8.76 9.298c.744 1.484.771 1.522 1.145 1.602.132.029.898.039 2.258.032 1.98-.012 2.063-.015 2.217-.094.139-.071.284-.267 1.1-1.488l.94-1.408 1.93-.001 1.93-.001v2.738c0 2.654-.003 2.746-.081 2.956-.109.29-.415.596-.705.705-.215.08-.28.081-7.454.081-7.174 0-7.239-.001-7.454-.081a1.342 1.342 0 0 1-.705-.705c-.078-.21-.081-.302-.081-2.956V12.76h4.279l.681 1.358" fill-rule="evenodd" fill="#000"/></svg>