<svg width="24" height="24" fill="none" xmlns="http://www.w3.org/2000/svg"><path d="M4.527 4.822c-.667.18-1.167.774-1.253 1.489-.021.178-.032 2.25-.025 4.899l.011 4.59-.14.045c-.412.131-.884.523-1.113.922-.317.555-.33 1.316-.031 1.905.228.45.729.86 1.213.993.261.072.594.075 8.811.075s8.55-.003 8.811-.075c1.425-.392 1.911-2.244.868-3.303-.228-.231-.544-.436-.799-.517l-.14-.045.011-4.59c.007-2.649-.004-4.721-.025-4.899-.087-.724-.589-1.313-1.271-1.491-.34-.088-14.598-.086-14.928.002M19.16 6.32c.079.079.08.133.08 4.68s-.001 4.601-.08 4.68c-.079.079-.133.08-7.16.08s-7.081-.001-7.16-.08c-.079-.079-.08-.133-.08-4.68s.001-4.601.08-4.68c.079-.079.133-.08 7.16-.08s7.081.001 7.16.08m1.319 10.994c.307.164.355.54.102.793l-.133.133H3.552l-.133-.133c-.253-.253-.205-.629.102-.793.133-.071.453-.074 8.479-.074s8.346.003 8.479.074" fill-rule="evenodd" fill="#000"/></svg>