<svg width="24" height="24" fill="none" xmlns="http://www.w3.org/2000/svg"><path d="M3.805 3.28c-.291.069-.506.327-.544.652-.014.114-.019 3.826-.013 8.248.011 7.504.017 8.048.081 8.165.084.155.282.325.424.365.059.017 3.788.03 8.287.03 7.65 0 8.188-.004 8.305-.069.155-.084.325-.282.365-.424.039-.14.039-16.354 0-16.494-.04-.142-.21-.34-.365-.424-.117-.064-.66-.069-8.265-.075-4.477-.004-8.201.008-8.275.026M19.24 12v7.24H4.76V4.76h14.48V12M6.805 7.28c-.381.091-.618.495-.526.897.071.31.318.523.653.562.114.014 2.476.02 5.248.013 5.395-.013 5.107-.002 5.334-.207.15-.136.219-.308.219-.545 0-.237-.069-.409-.219-.545-.227-.206.071-.195-5.434-.201-2.827-.004-5.201.008-5.275.026m0 4c-.381.091-.618.495-.526.897.071.31.318.523.653.562.114.014 2.476.02 5.248.013 5.395-.013 5.107-.002 5.334-.207.15-.136.219-.308.219-.545 0-.237-.069-.409-.219-.545-.227-.206.071-.195-5.434-.201-2.827-.004-5.201.008-5.275.026m2 3.999c-.381.092-.618.496-.526.898.071.31.317.522.653.563.114.013 1.576.019 3.248.012 2.739-.011 3.052-.019 3.16-.078a.713.713 0 0 0 .393-.674.713.713 0 0 0-.393-.674c-.109-.06-.421-.067-3.26-.072-1.727-.004-3.201.008-3.275.025" fill-rule="evenodd" fill="#000"/></svg>