<svg width="24" height="24" fill="none" xmlns="http://www.w3.org/2000/svg"><path d="M4.9 7.259a1.438 1.438 0 0 1-.147.037c-.139.031-.339.201-.421.359-.083.16-.084.528-.002.685.124.239.414.42.67.42.256 0 .546-.181.67-.42.076-.146.083-.523.012-.66a.852.852 0 0 0-.322-.339c-.106-.055-.393-.106-.46-.082m2.905.021c-.381.091-.618.495-.526.897.071.31.318.523.653.562.114.014 2.701.02 5.748.013 5.933-.013 5.607-.001 5.834-.207.15-.136.219-.308.219-.545 0-.237-.069-.409-.219-.545-.227-.206.109-.195-5.934-.201-3.102-.004-5.701.008-5.775.026M4.9 11.259a1.438 1.438 0 0 1-.147.037c-.139.031-.339.201-.421.359-.083.16-.084.528-.002.685.124.239.414.42.67.42.256 0 .546-.181.67-.42.076-.146.083-.523.012-.66a.852.852 0 0 0-.322-.339c-.106-.055-.393-.106-.46-.082m2.905.021c-.381.091-.618.495-.526.897.071.31.318.523.653.562.114.014 2.701.02 5.748.013 5.933-.013 5.607-.001 5.834-.207.15-.136.219-.308.219-.545 0-.237-.069-.409-.219-.545-.227-.206.109-.195-5.934-.201-3.102-.004-5.701.008-5.775.026M4.9 15.259a1.438 1.438 0 0 1-.147.037c-.139.031-.339.201-.421.359-.083.16-.084.528-.002.685.124.239.414.42.67.42.256 0 .546-.181.67-.42.076-.146.083-.523.012-.66a.852.852 0 0 0-.322-.339c-.106-.055-.393-.106-.46-.082m2.905.021c-.381.091-.618.495-.526.897.071.31.318.523.653.562.114.014 2.701.02 5.748.013 5.933-.013 5.607-.001 5.834-.207.15-.136.219-.308.219-.545 0-.237-.069-.409-.219-.545-.227-.206.109-.195-5.934-.201-3.102-.004-5.701.008-5.775.026" fill-rule="evenodd" fill="#000"/></svg>