<svg width="24" height="24" fill="none" xmlns="http://www.w3.org/2000/svg"><path d="M11.805 2.279a.73.73 0 0 0-.527.544c-.02.086-.037.449-.037.806-.001.642-.002.65-.091.666l-.578.101C9.371 4.602 8.075 5.201 7.1 6c-.376.309-1.03.991-1.303 1.36-.712.962-1.211 2.104-1.401 3.212l-.1.574c-.015.084-.034.087-.766.101-.8.015-.89.036-1.075.239-.142.157-.188.283-.188.514 0 .231.046.357.188.514.185.203.275.224 1.075.239.732.014.751.017.766.101l.1.574c.342 1.989 1.575 3.855 3.324 5.03.795.533 1.922.986 2.852 1.146l.574.1c.084.015.087.034.101.766.015.779.028.845.208 1.044.136.15.308.219.545.219.237 0 .409-.069.545-.219.18-.199.193-.265.208-1.044.014-.732.017-.751.101-.766l.574-.1c1.201-.206 2.497-.805 3.472-1.604.376-.309 1.03-.991 1.303-1.36.712-.962 1.211-2.104 1.401-3.212l.1-.574c.015-.084.034-.087.766-.101.8-.015.89-.036 1.075-.239.142-.157.188-.283.188-.514 0-.237-.07-.409-.219-.545-.199-.18-.265-.193-1.044-.208-.732-.014-.751-.017-.766-.101l-.1-.574c-.342-1.989-1.575-3.855-3.324-5.03-.795-.533-1.922-.986-2.852-1.146l-.574-.1c-.084-.015-.087-.034-.101-.766-.015-.779-.028-.845-.208-1.044-.167-.185-.476-.271-.74-.207M11.24 8.52v2.72H5.793l.027-.17A6.423 6.423 0 0 1 7.044 8.2 8.16 8.16 0 0 1 8.26 6.993a6.855 6.855 0 0 1 1.8-.93c.302-.101.957-.254 1.11-.26.066-.003.07.152.07 2.717m2.2-2.596c1.79.413 3.331 1.645 4.17 3.336.258.519.478 1.218.57 1.81l.027.17H12.76V5.793l.17.027c.093.014.323.061.51.104m-2.2 9.56v2.723l-.17-.027a6.366 6.366 0 0 1-2.89-1.243 7.883 7.883 0 0 1-1.185-1.197 6.527 6.527 0 0 1-1.175-2.81l-.027-.17h5.447v2.724m6.94-2.554a6.285 6.285 0 0 1-3.44 4.68 6.692 6.692 0 0 1-1.81.57l-.17.027V12.76h5.447l-.027.17" fill-rule="evenodd" fill="#000"/></svg>