<svg width="24" height="24" fill="none" xmlns="http://www.w3.org/2000/svg"><path d="M11.34 2.281a8.757 8.757 0 0 0-6.804 4.162A8.942 8.942 0 0 0 3.337 9.78c-.078.526-.089 1.796-.021 2.3a9.51 9.51 0 0 0 1.418 3.9c1.09 1.729 2.854 3.399 4.846 4.587 1.158.691 2.148 1.168 2.42 1.168.467 0 2.726-1.261 3.96-2.211 1.052-.809 2.138-1.903 2.826-2.844 1.08-1.478 1.665-2.896 1.897-4.6.069-.501.057-1.773-.021-2.3-.317-2.152-1.411-4.127-3.029-5.469-1.786-1.481-4.004-2.197-6.293-2.03m2.106 1.612c1.439.313 2.654.971 3.672 1.989 1.018 1.018 1.678 2.236 1.988 3.672.137.633.174 1.779.078 2.421-.28 1.869-1.122 3.464-2.662 5.039-1.148 1.176-2.392 2.076-4.014 2.906l-.508.26-.508-.26c-1.622-.83-2.866-1.73-4.014-2.906-1.565-1.601-2.434-3.274-2.68-5.16-.071-.54-.03-1.683.08-2.229a7.276 7.276 0 0 1 2.004-3.743c1.115-1.115 2.472-1.803 4.069-2.062.248-.041.592-.053 1.189-.042.713.012.91.029 1.306.115M11.72 6.805c-.129.051-.309.223-.394.375-.057.104-.068.31-.078 1.588l-.012 1.468-1.468.012c-1.605.013-1.58.01-1.815.258a.72.72 0 0 0 0 .988c.235.248.21.245 1.815.258l1.468.012.012 1.468c.013 1.605.01 1.58.258 1.815a.72.72 0 0 0 .988 0c.248-.235.245-.21.258-1.815l.012-1.468 1.468-.012c1.605-.013 1.58-.01 1.815-.258A.667.667 0 0 0 16.24 11a.667.667 0 0 0-.193-.494c-.235-.248-.21-.245-1.815-.258l-1.468-.012-.012-1.468c-.01-1.278-.021-1.484-.078-1.588-.088-.159-.267-.325-.407-.377a.952.952 0 0 0-.547.002" fill-rule="evenodd" fill="#000"/></svg>