<svg width="24" height="24" fill="none" xmlns="http://www.w3.org/2000/svg"><path d="M11.34 2.28c-2.777.199-5.344 1.769-6.804 4.163-.852 1.396-1.263 2.87-1.265 4.537-.002 1.324.211 2.388.716 3.576.96 2.262 3.021 4.477 5.593 6.011 1.158.691 2.148 1.168 2.42 1.168.467 0 2.726-1.261 3.96-2.211 1.052-.809 2.138-1.903 2.826-2.844 1.08-1.478 1.665-2.896 1.897-4.6.069-.501.057-1.773-.021-2.3-.317-2.152-1.411-4.127-3.029-5.469A8.79 8.79 0 0 0 11.34 2.28m2.106 1.613c1.439.313 2.654.971 3.672 1.989 1.018 1.018 1.678 2.236 1.988 3.672.137.633.174 1.779.078 2.421-.28 1.869-1.122 3.464-2.662 5.039-1.148 1.176-2.392 2.076-4.014 2.906l-.508.26-.508-.26c-1.622-.83-2.866-1.73-4.014-2.906-1.565-1.601-2.434-3.274-2.68-5.16-.071-.54-.03-1.683.08-2.229a7.276 7.276 0 0 1 2.004-3.743c1.115-1.115 2.472-1.803 4.069-2.062.248-.041.592-.053 1.189-.042.713.012.91.029 1.306.115m-1.851 3.389a3.765 3.765 0 0 0-2.564 1.437c-.238.313-.563.968-.649 1.306a4.254 4.254 0 0 0 0 1.95c.086.338.411.993.649 1.306.366.482.817.837 1.421 1.119.398.186.702.268 1.183.317a3.648 3.648 0 0 0 1.913-.317c.855-.399 1.406-.94 1.813-1.78a3.21 3.21 0 0 0 .356-1.255 3.648 3.648 0 0 0-.317-1.913c-.44-.942-1.128-1.585-2.107-1.967-.441-.173-1.171-.26-1.698-.203m.979 1.541c.376.097.697.287 1.006.597.456.456.66.944.66 1.58 0 .636-.204 1.124-.66 1.58-.456.456-.944.66-1.58.66-.636 0-1.124-.204-1.58-.66-.456-.456-.66-.944-.66-1.58 0-.636.204-1.124.66-1.58.459-.458.916-.652 1.554-.657.203-.002.46.024.6.06" fill-rule="evenodd" fill="#000"/></svg>