<svg width="24" height="24" fill="none" xmlns="http://www.w3.org/2000/svg"><path d="M11.48 2.279c-1.898.171-3.29 1.242-3.915 3.013-.28.793-.294.927-.314 3.035l-.019 1.908-1.226.012c-1.067.011-1.242.022-1.351.082-.155.084-.325.282-.365.424-.039.14-.039 10.354 0 10.494.04.142.21.34.365.424.117.064.602.069 7.345.069 6.743 0 7.228-.005 7.345-.069.155-.084.325-.282.365-.424.039-.14.039-10.354 0-10.494-.04-.142-.21-.34-.365-.424-.116-.064-.503-.07-5.357-.08l-5.232-.01.013-1.93.013-1.929.112-.36c.325-1.05.985-1.779 1.882-2.08.391-.131.727-.179 1.244-.179 1.252 0 2.169.483 2.738 1.44.188.316.344.46.564.52.617.166 1.13-.508.832-1.093-.285-.56-.89-1.252-1.384-1.583a5.095 5.095 0 0 0-1.17-.564 6.282 6.282 0 0 0-2.12-.202M18.24 16v4.24H5.76v-8.48h12.48V16" fill-rule="evenodd" fill="#000"/></svg>