<svg width="24" height="24" fill="none" xmlns="http://www.w3.org/2000/svg"><path d="M14.805 3.278c-.734.183-.72 1.273.018 1.444.086.02.89.037 1.785.037 1.538.001 1.641.006 1.846.082.29.109.596.415.705.705.08.215.081.285.081 6.454 0 6.156-.001 6.24-.081 6.453a1.412 1.412 0 0 1-.639.683c-.172.08-.262.085-1.96.104-1.557.017-1.795.028-1.9.086a.89.89 0 0 0-.342.354c-.072.14-.064.514.014.665.08.153.277.325.421.365.059.017.908.03 1.887.03 1.57-.001 1.811-.009 2.04-.071a2.835 2.835 0 0 0 1.99-1.989c.065-.243.07-.677.07-6.68s-.005-6.437-.07-6.68a2.838 2.838 0 0 0-1.45-1.781c-.544-.268-.572-.271-2.52-.283-.968-.006-1.821.004-1.895.022M7.9 7.259a1.795 1.795 0 0 1-.16.04c-.089.019-.658.562-2.233 2.133-1.162 1.16-2.141 2.162-2.176 2.228-.083.155-.083.525 0 .68.035.066 1.014 1.068 2.176 2.228 1.498 1.494 2.148 2.116 2.233 2.138.546.143.993-.175.993-.706a.868.868 0 0 0-.064-.34c-.035-.066-.686-.741-1.447-1.5L5.84 12.78l5.19-.02c4.731-.018 5.201-.026 5.31-.086a.713.713 0 0 0 .393-.674.713.713 0 0 0-.393-.674c-.109-.06-.579-.068-5.31-.086l-5.19-.02 1.382-1.38c.761-.759 1.412-1.434 1.447-1.5.077-.145.085-.521.013-.66a.852.852 0 0 0-.322-.339c-.106-.055-.393-.106-.46-.082" fill-rule="evenodd" fill="#000"/></svg>