<svg width="24" height="24" fill="none" xmlns="http://www.w3.org/2000/svg"><path d="M3.701 4.285c-.333.048-.64.213-.921.495-.292.291-.445.587-.498.96-.055.381-.055 12.139 0 12.52.053.373.206.669.498.96.291.292.587.445.96.498.383.055 16.137.055 16.52 0 .373-.053.669-.206.96-.498.292-.291.445-.587.498-.96.055-.381.055-12.139 0-12.52-.053-.373-.206-.669-.498-.96-.291-.292-.587-.445-.96-.498-.35-.05-16.214-.048-16.559.003M15.98 8.962c-3.592 3.593-3.421 3.445-3.98 3.445-.559 0-.388.148-3.98-3.445L4.82 5.76h14.36l-3.2 3.202m-5.46 4.528a2.796 2.796 0 0 0 2.96 0c.143-.089 1.37-1.286 3.49-3.403l3.27-3.266v5.636c0 5.189-.005 5.643-.066 5.71-.064.07-.37.073-8.167.073-7.482 0-8.106-.005-8.174-.066-.07-.064-.073-.293-.073-5.71V6.821l3.27 3.266c2.12 2.117 3.347 3.314 3.49 3.403" fill-rule="evenodd" fill="#000"/></svg>