<svg width="24" height="24" fill="none" xmlns="http://www.w3.org/2000/svg"><path d="M11.9 2.259a1.795 1.795 0 0 1-.16.04c-.089.019-.658.562-2.233 2.133-1.162 1.16-2.141 2.162-2.176 2.228-.082.154-.083.524-.001.68.07.135.204.266.345.339.112.058.415.072.585.027.084-.022.552-.463 1.55-1.458l1.43-1.427v5.482l-.37.07a5.695 5.695 0 0 0-2.926 1.571 5.729 5.729 0 0 0 .001 8.112 5.724 5.724 0 0 0 8.11-.001 5.723 5.723 0 0 0 0-8.11 5.676 5.676 0 0 0-2.925-1.572l-.37-.07V4.821l1.43 1.427c.998.995 1.466 1.436 1.55 1.458.525.138.98-.166.993-.662a1.289 1.289 0 0 0-.027-.304c-.022-.085-.644-.735-2.138-2.233-1.16-1.162-2.153-2.136-2.208-2.165-.106-.055-.392-.107-.46-.083m.863 9.564a4.226 4.226 0 0 1 2.235 1.179 4.233 4.233 0 0 1 .535 5.348A4.245 4.245 0 0 1 12 20.24a4.244 4.244 0 0 1-4.177-3.477c-.255-1.344.194-2.775 1.179-3.761.465-.464.922-.75 1.661-1.038.491-.191 1.483-.258 2.1-.141" fill-rule="evenodd" fill="#000"/></svg>