<svg width="24" height="24" fill="none" xmlns="http://www.w3.org/2000/svg"><path d="M7.701 3.285c-.333.048-.64.213-.921.495-.426.425-.538.784-.538 1.72 0 .626.054.99.189 1.257.138.274.407.575.634.708l.175.103V8.837l-.916 1.837c-.719 1.441-.933 1.905-.99 2.152-.069.291-.074.545-.074 3.454 0 2.872.006 3.162.07 3.4a2.838 2.838 0 0 0 1.99 1.99c.241.065.586.07 4.68.07 4.094 0 4.439-.005 4.68-.07a2.838 2.838 0 0 0 1.99-1.99c.064-.238.07-.528.07-3.4 0-2.909-.005-3.163-.074-3.454-.057-.247-.271-.711-.99-2.152l-.916-1.837V7.568l.175-.103c.227-.133.496-.434.634-.708.135-.267.189-.631.189-1.257 0-.936-.112-1.295-.538-1.72-.291-.292-.587-.445-.96-.498-.347-.05-8.216-.047-8.559.003m8.466 1.541c.065.059.073.136.073.667 0 .503-.011.613-.066.674-.064.07-.245.073-4.167.073-3.76 0-4.107-.006-4.174-.066-.065-.059-.073-.136-.073-.667 0-.503.011-.613.066-.674.064-.07.245-.073 4.167-.073 3.76 0 4.107.006 4.174.066m-.919 3.664.013.73.98 1.952.979 1.952.011 3.055c.01 2.993.009 3.058-.071 3.273-.11.292-.415.598-.706.707-.213.08-.294.081-4.454.081s-4.241-.001-4.454-.081a1.341 1.341 0 0 1-.706-.707c-.08-.215-.081-.28-.071-3.273l.011-3.055.978-1.952.979-1.952.015-.73.016-.73h6.466l.014.73m-3.443 1.789a.73.73 0 0 0-.527.544c-.02.086-.037.664-.037 1.284l-.001 1.128-1.23.012c-1.326.014-1.355.018-1.555.239-.142.157-.188.283-.188.514 0 .231.046.357.188.514.2.22.229.225 1.552.239l1.228.012.012 1.228c.014 1.323.019 1.352.239 1.552.157.142.283.188.514.188.231 0 .357-.046.514-.188.22-.2.225-.229.239-1.552l.012-1.228 1.228-.012c1.292-.014 1.309-.016 1.521-.208.15-.136.219-.308.219-.545 0-.237-.069-.409-.219-.545-.212-.192-.229-.194-1.521-.208l-1.228-.012-.012-1.228c-.014-1.292-.016-1.309-.208-1.521-.167-.185-.476-.271-.74-.207" fill-rule="evenodd" fill="#000"/></svg>