<svg width="24" height="24" fill="none" xmlns="http://www.w3.org/2000/svg"><path d="M11.701 3.285c-.333.048-.64.213-.921.495-.415.414-.578.905-.496 1.49.051.363.206.661.496.95.289.29.587.445.95.496.353.05.747-.007 1.03-.146.282-.14.67-.528.81-.81.217-.44.217-1.085-.001-1.517-.354-.703-1.076-1.074-1.868-.958m.466 1.541c.152.138.045.414-.16.414a.243.243 0 0 1-.181-.407c.083-.091.244-.094.341-.007m-.466 5.459c-.333.048-.64.213-.921.495-.415.414-.578.905-.496 1.49.051.363.206.661.496.95.289.29.587.445.95.496.353.05.747-.007 1.03-.146.282-.14.67-.528.81-.81.217-.44.217-1.085-.001-1.517-.354-.703-1.076-1.074-1.868-.958m.466 1.541c.152.138.045.414-.16.414a.243.243 0 0 1-.181-.407c.083-.091.244-.094.341-.007m-.466 5.459c-.333.048-.64.213-.921.495-.29.289-.445.587-.496.95-.05.353.007.747.146 1.03.14.282.528.67.81.81.439.217 1.081.217 1.52 0 .282-.14.67-.528.81-.81.217-.44.217-1.085-.001-1.517-.354-.703-1.076-1.074-1.868-.958m.466 1.541c.152.138.045.414-.16.414a.243.243 0 0 1-.181-.407c.083-.091.244-.094.341-.007" fill-rule="evenodd" fill="#000"/></svg>