<svg width="24" height="24" fill="none" xmlns="http://www.w3.org/2000/svg"><path d="M3.805 3.28c-.291.069-.506.327-.544.652-.014.114-.02 2.926-.013 6.248.013 6.471.001 6.106.207 6.334.2.221.229.225 1.553.239l1.229.012.011 2.228c.01 1.798.023 2.246.067 2.327a.88.88 0 0 0 .345.35c.145.076.522.083.66.012.055-.028 1.198-1.146 2.54-2.486l2.44-2.434 3.96-.011c3.652-.01 3.97-.016 4.085-.08.155-.084.325-.282.365-.424.039-.14.039-12.354 0-12.494-.04-.142-.21-.34-.365-.424-.117-.064-.66-.069-8.265-.075-4.477-.004-8.201.008-8.275.026M19.24 9.999v5.239l-3.73.011c-3.057.009-3.748.021-3.83.065-.055.03-.959.911-2.008 1.958l-1.908 1.903-.012-1.698c-.013-1.797-.01-1.774-.207-1.991-.2-.221-.229-.225-1.555-.239l-1.23-.012V4.76h14.48v5.239M7.9 9.259a1.438 1.438 0 0 1-.147.037c-.139.031-.339.201-.421.359-.078.151-.086.525-.014.665a.712.712 0 0 0 .682.413c.236 0 .407-.068.548-.22A.886.886 0 0 0 8.76 10a.82.82 0 0 0-.4-.659c-.106-.055-.393-.106-.46-.082m4 0a1.438 1.438 0 0 1-.147.037c-.139.031-.339.201-.421.359-.078.151-.086.525-.014.665a.712.712 0 0 0 .682.413c.236 0 .407-.068.548-.22A.886.886 0 0 0 12.76 10a.82.82 0 0 0-.4-.659c-.106-.055-.393-.106-.46-.082m4 0a1.438 1.438 0 0 1-.147.037c-.139.031-.339.201-.421.359-.078.151-.086.525-.014.665a.712.712 0 0 0 .682.413c.236 0 .407-.068.548-.22A.886.886 0 0 0 16.76 10a.82.82 0 0 0-.4-.659c-.106-.055-.393-.106-.46-.082" fill-rule="evenodd" fill="#000"/></svg>