<svg width="24" height="24" fill="none" xmlns="http://www.w3.org/2000/svg"><path d="M10.84 2.281A9.243 9.243 0 0 0 3.778 6.42a9.325 9.325 0 0 0-1.438 3.82c-.092.663-.093 1.848-.003 2.5a9.375 9.375 0 0 0 1.441 3.84c1.248 1.898 3.204 3.303 5.375 3.863 1.936.5 4.219.36 5.888-.359l.362-.156 2.629.877c1.445.482 2.705.895 2.799.916a.748.748 0 0 0 .883-.535.822.822 0 0 0 .023-.296c-.013-.061-.428-1.328-.923-2.817l-.899-2.707.108-.212c.27-.532.558-1.622.66-2.494.062-.524.061-1.779-.001-2.26a9.328 9.328 0 0 0-1.553-4.12c-1.286-1.872-3.233-3.224-5.409-3.754a9.835 9.835 0 0 0-2.88-.245m1.715 1.541c1.764.258 3.253 1.015 4.488 2.284.644.662 1.049 1.232 1.418 1.994a7.55 7.55 0 0 1 .779 3.408c0 1.25-.221 2.3-.682 3.234-.137.277-.198.45-.198.56 0 .098.275.982.719 2.316a88.58 88.58 0 0 1 .708 2.169 88.58 88.58 0 0 1-2.169-.708c-1.399-.466-2.216-.719-2.324-.719-.121 0-.266.053-.543.198-1.331.699-3.417.887-5.111.463-1.441-.361-2.636-1.052-3.683-2.127-.644-.662-1.049-1.232-1.418-1.994a7.78 7.78 0 0 1-.56-5.26 7.838 7.838 0 0 1 1.503-3.02c.268-.327.882-.937 1.199-1.192 1.018-.819 2.36-1.395 3.739-1.605.503-.077 1.611-.077 2.135-.001M7.18 10.824c-.275.151-.42.384-.42.676 0 .451.347.765.806.732a.705.705 0 0 0 .674-.732.715.715 0 0 0-.291-.595c-.126-.101-.195-.124-.4-.134-.175-.009-.285.007-.369.053m4 0c-.275.151-.42.384-.42.676 0 .451.347.765.806.732a.705.705 0 0 0 .674-.732.715.715 0 0 0-.291-.595c-.126-.101-.195-.124-.4-.134-.175-.009-.285.007-.369.053m4 0c-.275.151-.42.384-.42.676 0 .451.347.765.806.732a.705.705 0 0 0 .674-.732.715.715 0 0 0-.291-.595c-.126-.101-.195-.124-.4-.134-.175-.009-.285.007-.369.053" fill-rule="evenodd" fill="#000"/></svg>