<svg width="24" height="24" fill="none" xmlns="http://www.w3.org/2000/svg"><path d="M3.805 3.28c-.291.069-.506.327-.544.652-.014.114-.02 2.926-.013 6.248.013 6.471.001 6.106.207 6.334.2.221.229.225 1.553.239l1.229.012.011 2.234.012 2.234.121.172c.066.094.179.205.25.247.139.081.431.106.629.055.086-.023.826-.737 2.58-2.489l2.46-2.456 3.96-.011c3.652-.01 3.97-.016 4.085-.08.155-.084.325-.282.365-.424.039-.14.039-12.354 0-12.494-.04-.142-.21-.34-.365-.424-.117-.064-.66-.069-8.265-.075-4.477-.004-8.201.008-8.275.026M19.24 9.999v5.239l-3.73.011c-3.057.009-3.748.021-3.83.065-.055.03-.959.911-2.008 1.958l-1.908 1.903-.012-1.698c-.013-1.797-.01-1.774-.207-1.991-.2-.221-.229-.225-1.555-.239l-1.23-.012V4.76h14.48v5.239" fill-rule="evenodd" fill="#000"/></svg>