<svg width="24" height="24" fill="none" xmlns="http://www.w3.org/2000/svg"><path d="M2.9 2.259a1.438 1.438 0 0 1-.147.037c-.138.031-.339.201-.419.355-.069.134-.089.424-.041.609.023.087 2.508 2.598 9.139 9.233 5.009 5.012 9.162 9.141 9.228 9.176.154.082.524.083.68.001a.847.847 0 0 0 .339-.345c.058-.112.072-.414.028-.585-.023-.087-2.508-2.598-9.139-9.233C7.559 6.495 3.415 2.371 3.36 2.342c-.105-.055-.392-.107-.46-.083m8.86.007a3.748 3.748 0 0 0-2.405 1.092c-.308.306-.654.816-.692 1.019-.06.32.179.718.493.822.207.068.491.034.654-.078a1.48 1.48 0 0 0 .29-.329c.657-.984 1.933-1.32 2.96-.779.459.242.939.819 1.104 1.327.039.121.058.743.074 2.52.024 2.564.016 2.474.248 2.685.157.142.283.188.514.188.231 0 .357-.046.514-.188.231-.21.225-.148.238-2.385.015-2.646-.018-2.993-.352-3.708-.44-.942-1.128-1.585-2.107-1.967-.376-.148-1.087-.249-1.533-.219M5.9 11.259a1.438 1.438 0 0 1-.147.037c-.139.031-.338.2-.423.359-.051.097-.064.218-.058.545.056 2.984 2.153 5.596 5.088 6.339.209.053.493.108.63.124l.25.027v1.545l-1.23.012c-.949.01-1.253.026-1.33.068a.88.88 0 0 0-.35.345c-.082.157-.081.525.002.685.08.153.277.325.421.365.14.039 6.354.039 6.494 0 .144-.04.341-.212.421-.365.083-.16.084-.528.002-.685a.88.88 0 0 0-.35-.345c-.077-.042-.381-.058-1.33-.068l-1.23-.012v-1.544l.222-.023c.292-.03.491-.137.635-.34.096-.137.116-.205.116-.397 0-.265-.073-.434-.253-.585-.193-.162-.384-.196-.79-.142-.438.058-1.363.024-1.77-.065a5.262 5.262 0 0 1-2.621-1.438c-.945-.944-1.439-2.052-1.538-3.446-.019-.268-.056-.53-.083-.581a.845.845 0 0 0-.318-.333c-.106-.055-.393-.106-.46-.082m11.905.02c-.373.091-.562.401-.564.928-.001.125-.02.363-.043.529-.049.354-.009.557.148.744.151.18.32.253.585.253.192 0 .26-.02.397-.116.209-.148.299-.323.35-.684.065-.455.067-1.136.005-1.253a.774.774 0 0 0-.878-.401" fill-rule="evenodd" fill="#000"/></svg>