<svg width="24" height="24" fill="none" xmlns="http://www.w3.org/2000/svg"><path d="M11.595 2.282a3.396 3.396 0 0 0-1.143.318c-.855.399-1.406.94-1.813 1.78-.224.46-.303.739-.358 1.265-.052.492-.052 6.218 0 6.71.052.493.132.794.319 1.193.399.855.94 1.406 1.78 1.813a3.21 3.21 0 0 0 1.255.356 3.564 3.564 0 0 0 1.985-.356c.84-.407 1.381-.958 1.78-1.813.187-.399.267-.7.319-1.193.052-.492.052-6.218 0-6.71-.052-.493-.132-.794-.319-1.193-.44-.942-1.128-1.585-2.107-1.967-.441-.173-1.171-.26-1.698-.203m.979 1.541c.135.035.354.121.486.19.309.163.764.618.927.927.26.493.253.388.253 4.06 0 3.672.007 3.567-.253 4.06-.163.309-.618.764-.927.927a2.325 2.325 0 0 1-2.12 0c-.309-.163-.764-.618-.927-.927-.26-.493-.253-.388-.253-4.06 0-3.672-.007-3.567.253-4.06.157-.298.614-.761.907-.918a2.439 2.439 0 0 1 1.654-.199M5.9 11.259a1.438 1.438 0 0 1-.147.037c-.139.031-.338.2-.423.359-.051.097-.064.218-.058.545.056 2.984 2.153 5.596 5.088 6.339.209.053.493.108.63.124l.25.027v1.545l-1.23.012c-.949.01-1.253.026-1.33.068a.88.88 0 0 0-.35.345c-.082.157-.081.525.002.685.08.153.277.325.421.365.14.039 6.354.039 6.494 0 .144-.04.341-.212.421-.365.083-.16.084-.528.002-.685a.88.88 0 0 0-.35-.345c-.077-.042-.381-.058-1.33-.068l-1.23-.012V18.69l.25-.027c.138-.016.421-.071.63-.124a6.744 6.744 0 0 0 4.897-4.899c.191-.765.258-1.75.135-1.98-.141-.263-.364-.393-.672-.393-.231 0-.357.046-.514.188-.167.151-.211.296-.247.801-.099 1.393-.594 2.501-1.538 3.445a5.252 5.252 0 0 1-2.662 1.446c-.477.103-1.601.103-2.078 0a5.252 5.252 0 0 1-2.662-1.446c-.945-.944-1.439-2.052-1.538-3.446-.019-.268-.056-.53-.083-.581a.845.845 0 0 0-.318-.333c-.106-.055-.393-.106-.46-.082" fill-rule="evenodd" fill="#000"/></svg>