<svg width="24" height="24" viewBox="0 0 24 24" fill="none" xmlns="http://www.w3.org/2000/svg">
<path d="M6 9.5V14.5M18 9.5V14.5M3.11111 6H20.8889C21.5025 6 22 6.53726 22 7.2V16.8C22 17.4627 21.5025 18 20.8889 18H3.11111C2.49746 18 2 17.4627 2 16.8V7.2C2 6.53726 2.49746 6 3.11111 6ZM14.5 12C14.5 13.3807 13.3807 14.5 12 14.5C10.6193 14.5 9.5 13.3807 9.5 12C9.5 10.6193 10.6193 9.5 12 9.5C13.3807 9.5 14.5 10.6193 14.5 12Z" stroke="#001A72" stroke-width="1.5" stroke-linecap="round" stroke-linejoin="round"/>
</svg>
