<svg width="24" height="24" fill="none" xmlns="http://www.w3.org/2000/svg"><path d="M2.792 5.283c-.623.092-1.193.598-1.44 1.282l-.092.255v10.36l.092.255c.254.703.812 1.188 1.477 1.284.369.054 17.973.054 18.342 0 .665-.096 1.223-.581 1.477-1.284l.092-.255V6.82l-.092-.255c-.254-.703-.812-1.188-1.477-1.284-.335-.049-18.047-.046-18.379.002m18.316 1.574.112.096v10.094l-.112.096-.112.097H3.004l-.112-.097-.112-.096V6.953l.112-.096.112-.097h17.992l.112.097M5.699 8.816c-.149.065-.367.308-.408.455-.04.142-.04 5.316 0 5.458.042.152.262.392.417.457a.85.85 0 0 0 .584 0c.155-.065.375-.305.417-.457.04-.142.04-5.316 0-5.458-.042-.152-.262-.392-.417-.457a.881.881 0 0 0-.593.002m5.734-.018a3.113 3.113 0 0 0-1.775.967c-.412.433-.635.813-.787 1.343-.129.45-.129 1.334 0 1.784a3.325 3.325 0 0 0 2.237 2.237c.45.129 1.334.129 1.784 0 .53-.152.91-.375 1.343-.787.446-.425.733-.89.894-1.45.129-.45.129-1.334 0-1.784-.302-1.052-1.178-1.933-2.215-2.23-.329-.093-1.16-.138-1.481-.08m6.266.018c-.149.065-.367.308-.408.455-.04.142-.04 5.316 0 5.458.042.152.262.392.417.457a.85.85 0 0 0 .584 0c.155-.065.375-.305.417-.457.04-.142.04-5.316 0-5.458-.042-.152-.262-.392-.417-.457a.881.881 0 0 0-.593.002m-5.333 1.482c.368.078.571.192.864.485.412.412.586.938.492 1.487-.069.401-.204.66-.498.954-.419.418-.942.593-1.494.498a1.597 1.597 0 0 1-.954-.498 1.597 1.597 0 0 1-.498-.954c-.094-.549.08-1.075.492-1.487.287-.288.497-.408.846-.483.318-.07.43-.07.75-.002" fill-rule="evenodd" fill="#000"/></svg>