<svg width="24" height="24" fill="none" xmlns="http://www.w3.org/2000/svg"><path d="M14.29 3.778c-3.086.843-5.655 1.563-5.71 1.599a.971.971 0 0 0-.21.231l-.11.166-.011 4.487-.011 4.488-.296-.156c-.454-.237-.824-.319-1.442-.319-.636 0-.979.08-1.511.353-.307.157-.437.257-.771.591-.334.334-.434.464-.591.771-.273.532-.353.875-.353 1.511 0 .639.082.988.355 1.514.155.298.265.44.591.768.354.356.449.426.82.611.51.255.863.336 1.46.336s.95-.081 1.46-.336c.37-.184.468-.257.822-.611.355-.355.427-.452.611-.822.369-.74.342-.218.356-6.684l.014-5.704.148-.043c.203-.06 9.081-2.477 9.219-2.511l.11-.027v9.759l-.297-.156c-.455-.238-.824-.32-1.443-.32-.636 0-.979.08-1.511.353-.307.157-.437.257-.771.591-.334.334-.434.464-.591.771-.273.532-.353.875-.353 1.511 0 .639.082.988.355 1.514.155.298.265.44.591.768.354.356.449.426.82.611.51.255.863.336 1.46.336s.95-.081 1.46-.336c.37-.184.468-.257.822-.611.355-.355.427-.452.611-.822.373-.748.342-.057.358-7.94.01-5.165.002-7.015-.032-7.174a.735.735 0 0 0-.53-.56 1.35 1.35 0 0 0-.237-.043c-.028.001-2.577.692-5.662 1.535m3.682 11.041c.763.232 1.267.901 1.267 1.681 0 .468-.155.854-.483 1.2a1.726 1.726 0 0 1-2.512 0 1.66 1.66 0 0 1-.483-1.2c0-.764.473-1.411 1.216-1.665.253-.086.737-.094.995-.016m-11 1c.763.232 1.267.901 1.267 1.681 0 .468-.155.854-.483 1.2a1.726 1.726 0 0 1-2.512 0 1.66 1.66 0 0 1-.483-1.2c0-.764.473-1.411 1.216-1.665.253-.086.737-.094.995-.016" fill-rule="evenodd" fill="#000"/></svg>