<svg width="24" height="24" fill="none" xmlns="http://www.w3.org/2000/svg"><path d="M3.805 3.279c-.291.07-.506.328-.544.653-.014.114-.019 3.826-.013 8.248.011 7.504.017 8.048.081 8.165.084.155.282.325.424.365.14.039 16.354.039 16.494 0 .142-.04.34-.21.424-.365.064-.115.069-.377.069-3.305 0-1.749-.013-3.228-.03-3.287-.04-.144-.212-.341-.365-.421-.151-.078-.525-.086-.665-.014a.89.89 0 0 0-.354.342c-.059.108-.067.398-.077 2.85l-.012 2.73H4.76V4.763l2.73-.012c2.452-.01 2.742-.018 2.85-.077A.713.713 0 0 0 10.733 4a.713.713 0 0 0-.393-.674c-.109-.06-.421-.067-3.26-.072-1.727-.004-3.201.008-3.275.025m10 0c-.733.177-.72 1.272.018 1.443.086.02 1.102.037 2.257.037l2.1.001-4.428 4.43c-3.198 3.2-4.436 4.463-4.459 4.55-.142.546.176.993.707.993a.868.868 0 0 0 .34-.064c.066-.035 2.091-2.036 4.5-4.447l4.38-4.382.02 2.19c.018 1.938.028 2.204.086 2.31a.89.89 0 0 0 .354.342c.14.072.514.064.665-.014.153-.08.325-.277.365-.421.039-.14.039-6.354 0-6.494-.04-.142-.21-.34-.365-.424-.115-.063-.382-.07-3.265-.075-1.727-.004-3.201.008-3.275.025" fill-rule="evenodd" fill="#000"/></svg>