<svg width="24" height="24" viewBox="0 0 24 24" fill="none" xmlns="http://www.w3.org/2000/svg">
<path d="M14.0768 20C15.9407 20 18.75 19.3125 18.75 16.5C18.75 14.636 17.364 13 15.5 13L14 3H10L8.5 13C6.63604 13 5.25 14.636 5.25 16.5C5.25 19.3125 8.05927 20 9.92323 20M14.0768 20C13.5864 20.6143 12.8323 21 12 21C11.1677 21 10.4136 20.6143 9.92323 20M14.0768 20C14.3514 19.656 14.5433 19.2403 14.6199 18.7806L14.8125 17.625H15.375M9.92323 20C9.64863 19.656 9.45673 19.2404 9.3801 18.7806L9.1875 17.625M8.6 17.625H9.1625" stroke="#001A72" stroke-width="1.5" stroke-linecap="round" stroke-linejoin="round"/>
</svg>
