<svg width="24" height="24" fill="none" xmlns="http://www.w3.org/2000/svg"><path d="M4.701 3.285c-.333.048-.64.213-.921.495-.292.291-.445.587-.498.96-.052.364-.052 3.156 0 3.52.068.48.39.975.782 1.204l.175.103.01 5.326c.01 4.943.016 5.336.08 5.452.084.155.282.325.424.365.14.039 14.354.039 14.494 0 .142-.04.34-.21.424-.365.064-.116.07-.509.08-5.452l.01-5.326.175-.103c.392-.229.714-.724.782-1.204.052-.364.052-3.156 0-3.52-.053-.373-.206-.669-.498-.96-.291-.292-.587-.445-.96-.498-.35-.05-14.214-.048-14.559.003m14.466 1.541c.068.062.073.167.073 1.667 0 1.433-.007 1.608-.066 1.674-.064.07-.339.073-7.167.073-6.551 0-7.106-.005-7.174-.066-.068-.062-.073-.167-.073-1.667 0-1.433.007-1.608.066-1.674.064-.07.339-.073 7.167-.073 6.551 0 7.106.005 7.174.066M18.24 14.5v4.74H5.76V9.76h12.48v4.74m-8.435-2.221c-.382.093-.618.496-.526.898.071.31.317.522.653.563.114.014 1.126.019 2.248.013 2.166-.014 2.114-.009 2.334-.208.15-.136.219-.308.219-.545 0-.237-.069-.409-.219-.545-.221-.2-.158-.195-2.434-.202-1.177-.003-2.201.008-2.275.026" fill-rule="evenodd" fill="#000"/></svg>