<svg width="24" height="24" fill="none" xmlns="http://www.w3.org/2000/svg"><path d="M8.805 5.279c-.291.071-.506.328-.544.653-.014.114-.02 2.926-.013 6.248.01 5.033.021 6.057.067 6.14a.88.88 0 0 0 .345.35c.157.082.525.081.685-.002.153-.08.325-.277.365-.421.039-.14.039-12.354 0-12.494a.833.833 0 0 0-.345-.41.949.949 0 0 0-.56-.064m6 0c-.291.071-.506.328-.544.653-.014.114-.02 2.926-.013 6.248.01 5.033.021 6.057.067 6.14a.88.88 0 0 0 .345.35c.157.082.525.081.685-.002.153-.08.325-.277.365-.421.039-.14.039-12.354 0-12.494a.833.833 0 0 0-.345-.41.949.949 0 0 0-.56-.064" fill-rule="evenodd" fill="#000"/></svg>