<svg width="24" height="24" fill="none" xmlns="http://www.w3.org/2000/svg"><path d="M11 6.962c-3.379.247-6.405 1.594-9.007 4.01-.817.758-1.024 1.13-1.062 1.908-.024.487.035.786.237 1.2.11.224.282.414 1.25 1.383.974.974 1.159 1.142 1.402 1.267.738.379 1.537.341 2.579-.124 1.159-.517 2.301-1.387 2.692-2.05.259-.439.389-1.015.389-1.725 0-.171.005-.311.01-.311l.42-.08c1.426-.277 3.107-.26 4.46.045l.19.043v.426c.001 1.012.201 1.522.86 2.186.62.625 1.856 1.378 2.733 1.665.309.101.477.13.83.145.527.023.764-.02 1.176-.216.28-.133.379-.222 1.423-1.269.967-.969 1.14-1.161 1.25-1.385.202-.414.261-.713.237-1.2-.038-.775-.246-1.151-1.048-1.895-1.271-1.181-2.415-1.97-3.83-2.642A14.075 14.075 0 0 0 13.6 7.022a18.183 18.183 0 0 0-2.6-.06m1.84 1.498c2.364.113 4.957 1.085 6.975 2.615.625.474 1.595 1.36 1.677 1.533a.94.94 0 0 1 .068.634c-.042.155-.168.3-.994 1.133-.988.997-1.125 1.103-1.434 1.104-.386.002-1.207-.345-1.874-.792-.59-.395-.953-.728-1.084-.995l-.114-.232v-.88c0-.849-.003-.885-.092-1.028-.128-.206-.283-.289-.768-.413-1.677-.426-3.646-.499-5.4-.2-.64.109-1.391.303-1.529.396a.878.878 0 0 0-.22.246c-.085.15-.09.203-.09.971-.001.472-.02.888-.046.993-.13.514-1.452 1.486-2.501 1.838-.381.128-.661.136-.875.026-.089-.046-.576-.502-1.105-1.036-1.027-1.035-1.075-1.103-1.016-1.469.046-.286.148-.425.658-.893a13.287 13.287 0 0 1 1.777-1.41c1.928-1.288 4.216-2.049 6.483-2.158a11.7 11.7 0 0 1 .824-.017l.68.034" fill-rule="evenodd" fill="#000"/></svg>