<svg width="24" height="24" fill="none" xmlns="http://www.w3.org/2000/svg"><path d="M4.48 2.279c-1.109.139-2.047 1.076-2.194 2.196-.073.548.043 2.375.216 3.425a16.921 16.921 0 0 0 3.378 7.603 16.768 16.768 0 0 0 3.78 3.464c2.189 1.442 4.625 2.325 7.316 2.653.659.08 2.205.139 2.547.097.908-.111 1.77-.814 2.08-1.697.137-.388.164-.862.146-2.499-.018-1.68-.024-1.733-.266-2.219a2.569 2.569 0 0 0-.748-.896c-.95-.715-2.752-1.247-4.234-1.249-1.029-.001-1.557.23-2.404 1.051l-.403.391-.197-.125c-1.034-.653-2.262-1.743-3.063-2.719-.384-.467-1.034-1.379-1.034-1.45 0-.026.145-.19.322-.366.537-.531.859-1.021 1.024-1.561.058-.191.072-.369.071-.898-.002-.748-.089-1.347-.316-2.173-.395-1.441-.974-2.34-1.778-2.763-.515-.27-.563-.276-2.363-.287-.891-.005-1.737.005-1.88.022m3.5 1.575c.26.121.46.347.662.749.328.654.584 1.607.68 2.536.091.89-.022 1.132-.942 2.005-.317.3-.603.604-.638.676a1.004 1.004 0 0 0-.062.348c0 .201.023.254.333.754.68 1.1 1.366 1.966 2.254 2.847a14.955 14.955 0 0 0 2.873 2.241c.787.47.851.454 1.74-.446.809-.819.928-.893 1.475-.917.845-.038 2.193.265 3.005.674.423.213.617.366.747.587l.113.192.012 1.649c.011 1.614.01 1.653-.075 1.849a1.19 1.19 0 0 1-.572.565c-.362.165-2.272.056-3.589-.205-3.922-.776-7.221-2.907-9.503-6.138A15.063 15.063 0 0 1 4.26 8.94a14.593 14.593 0 0 1-.487-3.481c-.023-.784-.019-.853.055-1.022.114-.258.32-.475.552-.583.199-.093.208-.093 1.8-.093s1.601 0 1.8.093" fill-rule="evenodd" fill="#000"/></svg>