<svg width="24" height="24" viewBox="0 0 24 24" fill="none" xmlns="http://www.w3.org/2000/svg">
<path d="M20.9995 19.1864V16.4767C21.0105 16.0337 20.858 15.6021 20.5709 15.264C19.7615 14.3106 16.9855 13.7008 15.8851 13.935C15.0274 14.1176 14.4272 14.9788 13.8405 15.5644C11.5747 14.2785 9.69864 12.4062 8.41026 10.1448C8.99696 9.55929 9.85994 8.96036 10.0429 8.10428C10.2772 7.00777 9.66819 4.24949 8.72138 3.43684C8.38835 3.151 7.96253 2.99577 7.52331 3.00009H4.80817C3.77364 3.00106 2.91294 3.92895 3.00713 4.96919C3.00006 13.935 10.0001 21 19.0265 20.9929C20.0723 21.0873 21.0037 20.2223 20.9995 19.1864Z" stroke="#001A72" stroke-width="1.5" stroke-linecap="round" stroke-linejoin="round"/>
</svg>
