<svg width="24" height="24" fill="none" xmlns="http://www.w3.org/2000/svg"><path d="M15.809 3.284c-.148.044-9.079 4.994-9.279 5.143a.77.77 0 0 0-.194.221c-.071.137-.091.426-.042.612.022.085.564.653 1.838 1.93L9.939 13l-3.307 3.31c-2.376 2.378-3.316 3.344-3.339 3.43-.136.526.167.98.663.993a1.35 1.35 0 0 0 .304-.026c.086-.023 1.052-.963 3.43-3.339l3.309-3.307 1.811 1.805c1.757 1.752 1.816 1.806 2.016 1.852.258.06.489 0 .672-.176.077-.074 1.128-1.924 2.681-4.722 2.513-4.525 2.554-4.603 2.554-4.82a.91.91 0 0 0-.051-.32c-.065-.128-4.142-4.219-4.302-4.318a.796.796 0 0 0-.571-.078m3.194 4.974c-.04.067-.996 1.784-2.124 3.816l-2.05 3.694-3.293-3.292c-1.811-1.811-3.283-3.302-3.272-3.313.011-.012 1.725-.969 3.808-2.128l3.788-2.107 1.608 1.604 1.609 1.604-.074.122" fill-rule="evenodd" fill="#000"/></svg>