<svg width="24" height="24" fill="none" xmlns="http://www.w3.org/2000/svg"><path d="M8.805 2.279a.73.73 0 0 0-.527.544c-.02.086-.037.332-.037.547l-.001.39H6.539c-1.339 0-1.729.012-1.831.054-.155.065-.375.305-.417.457-.04.141-.041 16.835-.001 16.976.04.142.21.34.365.424.117.064.602.069 7.345.069 6.743 0 7.228-.005 7.345-.069.155-.084.325-.282.365-.424.04-.141.039-16.835-.001-16.976-.042-.152-.262-.392-.417-.457-.102-.042-.492-.054-1.826-.054H15.77l-.017-.49c-.018-.499-.046-.605-.208-.784-.215-.237-.037-.225-3.465-.232-1.727-.004-3.201.008-3.275.025M14.24 4.5v.74H9.76V3.76h4.48v.74M8.248 5.73c.019.539.06.665.274.845a.753.753 0 0 0 .231.135c.14.039 6.354.039 6.494 0a.753.753 0 0 0 .231-.135c.214-.18.255-.306.274-.845l.018-.49h2.47v15H5.76v-15h2.47l.018.49m.557 7.549c-.381.092-.618.496-.526.898.071.31.317.522.653.563.114.013 1.576.019 3.248.012 2.739-.011 3.052-.019 3.16-.078a.713.713 0 0 0 .393-.674.713.713 0 0 0-.393-.674c-.109-.06-.421-.067-3.26-.072-1.727-.004-3.201.008-3.275.025" fill-rule="evenodd" fill="#000"/></svg>