<svg width="24" height="24" fill="none" xmlns="http://www.w3.org/2000/svg"><path d="M8.805 2.279a.73.73 0 0 0-.527.544c-.02.086-.037.332-.037.547l-.001.39H6.539c-1.339 0-1.729.012-1.831.054-.155.065-.375.305-.417.457-.04.141-.041 16.835-.001 16.976.04.142.21.34.365.424.117.064.602.069 7.345.069 6.743 0 7.228-.005 7.345-.069.155-.084.325-.282.365-.424.04-.141.039-16.835-.001-16.976-.042-.152-.262-.392-.417-.457-.102-.042-.492-.054-1.826-.054H15.77l-.017-.49c-.018-.499-.046-.605-.208-.784-.215-.237-.037-.225-3.465-.232-1.727-.004-3.201.008-3.275.025M14.24 4.5v.74H9.76V3.76h4.48v.74M8.248 5.73c.019.539.06.665.274.845a.753.753 0 0 0 .231.135c.14.039 6.354.039 6.494 0a.753.753 0 0 0 .231-.135c.214-.18.255-.306.274-.845l.018-.49h2.47v15H5.76v-15h2.47l.018.49m.932 5.097a.696.696 0 0 0-.344.341.807.807 0 0 0-.012.644c.035.07.525.591 1.09 1.158L10.939 14l-1.025 1.03c-.565.567-1.055 1.088-1.09 1.158-.127.254-.048.673.162.857.223.196.582.253.826.131.07-.035.591-.525 1.158-1.09L12 15.061l1.03 1.025c.567.565 1.088 1.055 1.158 1.09.254.127.673.048.857-.162.196-.223.253-.582.131-.826-.035-.07-.525-.591-1.09-1.158L13.061 14l1.025-1.03c.565-.567 1.055-1.088 1.09-1.158.122-.244.065-.603-.131-.826-.184-.21-.603-.289-.857-.162-.07.035-.591.525-1.158 1.09L12 12.939l-1.03-1.025c-.567-.565-1.088-1.055-1.158-1.09-.162-.081-.476-.08-.632.003" fill-rule="evenodd" fill="#000"/></svg>