<svg width="24" height="24" fill="none" xmlns="http://www.w3.org/2000/svg"><path d="M7.792 5.28a.835.835 0 0 0-.439.351l-.093.149v6.18c0 3.399.013 6.228.03 6.287.04.144.212.341.365.421a.89.89 0 0 0 .354.065h.229l5.091-3.053c2.8-1.68 5.147-3.112 5.216-3.184a.746.746 0 0 0 .044-.948c-.118-.155-10.152-6.193-10.409-6.263-.182-.051-.236-.051-.388-.005m4.887 4.4c2.111 1.265 3.838 2.309 3.838 2.32 0 .02-7.642 4.608-7.717 4.633-.026.009-.04-1.564-.04-4.633s.014-4.642.04-4.633c.022.007 1.767 1.048 3.879 2.313" fill-rule="evenodd" fill="#000"/></svg>