<svg width="24" height="24" fill="none" xmlns="http://www.w3.org/2000/svg"><path d="M11.805 3.279c-.291.071-.506.328-.545.653-.013.114-.019 2.026-.012 4.248.011 3.67.018 4.051.078 4.16a.89.89 0 0 0 .354.342c.14.072.514.064.665-.014.153-.08.325-.277.365-.421.039-.14.039-8.354 0-8.494a.833.833 0 0 0-.345-.41.949.949 0 0 0-.56-.064M7.64 7.606c-.92.56-1.959 1.741-2.547 2.894-1.329 2.607-1.056 5.763.704 8.14.273.369.927 1.051 1.303 1.36a8.12 8.12 0 0 0 2.482 1.357c2.505.817 5.296.3 7.318-1.357.376-.309 1.03-.991 1.303-1.36a7.803 7.803 0 0 0 1.378-6.22c-.356-1.756-1.418-3.455-2.841-4.545-.394-.302-.501-.355-.717-.355-.442 0-.763.317-.757.745.004.284.096.426.476.729 1.291 1.033 2.045 2.22 2.387 3.752.075.336.088.518.088 1.234.001.727-.011.896-.09 1.254a6.178 6.178 0 0 1-.471 1.399c-.328.704-.624 1.132-1.174 1.701-.891.924-1.956 1.511-3.248 1.793-.355.078-.531.091-1.234.091s-.879-.013-1.234-.091c-1.292-.282-2.357-.869-3.248-1.793-.55-.569-.846-.997-1.174-1.701a6.178 6.178 0 0 1-.471-1.399c-.079-.358-.091-.527-.09-1.254 0-.716.013-.898.088-1.234.278-1.247.868-2.328 1.733-3.174a9.97 9.97 0 0 1 .654-.58c.175-.139.353-.312.396-.385.193-.332.039-.836-.306-1.003-.23-.112-.523-.111-.708.002" fill-rule="evenodd" fill="#000"/></svg>