<svg width="24" height="24" fill="none" xmlns="http://www.w3.org/2000/svg"><path d="M4.805 5.279c-.291.071-.506.328-.544.653-.014.114-.02 2.926-.013 6.248.01 5.033.021 6.057.067 6.14a.88.88 0 0 0 .345.35c.157.082.525.081.685-.002.153-.08.325-.277.365-.421.039-.14.039-12.354 0-12.494a.833.833 0 0 0-.345-.41.949.949 0 0 0-.56-.064m13.995.006c-.077.022-2.426 1.412-5.22 3.09-5.689 3.415-5.322 3.165-5.316 3.63.006.462-.359.213 5.367 3.65l5.131 3.078h.229a.894.894 0 0 0 .354-.065c.153-.08.325-.277.365-.421.017-.059.03-2.888.03-6.287V5.78l-.095-.153a.764.764 0 0 0-.845-.342m-.56 6.718c0 3.067-.014 4.639-.04 4.63-.075-.025-7.717-4.613-7.717-4.633 0-.024 7.683-4.636 7.727-4.638.017-.001.03 2.088.03 4.641" fill-rule="evenodd" fill="#000"/></svg>