<svg width="24" height="24" fill="none" xmlns="http://www.w3.org/2000/svg"><path d="M11.56 6.28c-1.331.135-2.556 1.044-3.042 2.258-.102.255-.123.358-.109.527a.71.71 0 0 0 .732.669c.358-.005.575-.182.756-.618.583-1.402 2.49-1.815 3.64-.789.461.412.703.933.703 1.513 0 .653-.165.888-1.133 1.612-1.041.78-1.471 1.339-1.703 2.216-.097.365-.174 1.106-.137 1.304.106.558.745.819 1.168.477.233-.189.283-.312.327-.807.086-.98.283-1.277 1.398-2.108 1.066-.795 1.464-1.383 1.559-2.304.238-2.302-1.753-4.193-4.159-3.95m.16 10.024c-.301.13-.453.363-.453.696-.001.446.287.733.733.733a.712.712 0 0 0 .682-.413c.071-.137.064-.514-.012-.66-.182-.348-.603-.507-.95-.356" fill-rule="evenodd" fill="#000"/></svg>