<svg width="24" height="24" fill="none" xmlns="http://www.w3.org/2000/svg"><path d="M11.32 2.28c-1.879.127-3.672.802-5.236 1.972-.493.368-1.464 1.339-1.832 1.832a9.794 9.794 0 0 0-1.895 4.524 10.9 10.9 0 0 0 0 2.784 9.794 9.794 0 0 0 1.895 4.524c.368.493 1.339 1.464 1.832 1.832a9.768 9.768 0 0 0 4.524 1.894 10.32 10.32 0 0 0 3.804-.2 9.913 9.913 0 0 0 3.504-1.694c.493-.369 1.463-1.339 1.832-1.832a9.763 9.763 0 0 0 1.894-4.524 10.9 10.9 0 0 0 0-2.784 9.763 9.763 0 0 0-1.894-4.524c-.369-.493-1.339-1.463-1.832-1.832-1.13-.846-2.524-1.495-3.796-1.766a10.872 10.872 0 0 0-2.8-.206m1.86 1.558a8.233 8.233 0 0 1 3.829 1.607c.425.321 1.225 1.121 1.546 1.546a8.266 8.266 0 0 1 .444 9.375 8.679 8.679 0 0 1-2.633 2.633 8.27 8.27 0 0 1-8.732 0 8.679 8.679 0 0 1-2.633-2.633c-1.51-2.435-1.659-5.493-.392-8.023.433-.864.868-1.465 1.568-2.166.879-.878 1.824-1.491 2.948-1.911a8.455 8.455 0 0 1 4.055-.428m-2.04 5.445c-.969.095-1.942.455-2.823 1.043-.734.49-1.493 1.354-1.906 2.172-.192.378-.201.665-.028.91.155.219.375.33.649.326.319-.005.493-.144.733-.586.684-1.262 1.78-2.055 3.22-2.33.428-.082 1.193-.074 1.635.018.706.146 1.473.532 2.198 1.105l.351.279-.694.021c-.47.014-.727.039-.795.075a.866.866 0 0 0-.35.344c-.082.157-.081.525.002.685.08.153.277.325.421.365.059.017.863.03 1.787.03 1.511 0 1.693-.007 1.805-.069.155-.084.325-.282.365-.424.039-.14.039-3.354 0-3.494-.04-.144-.212-.341-.365-.421-.151-.078-.525-.086-.665-.014a.875.875 0 0 0-.353.342c-.051.094-.068.269-.08.807l-.015.687-.397-.316c-1.232-.982-2.297-1.448-3.555-1.557-.512-.045-.674-.045-1.14.002" fill-rule="evenodd" fill="#000"/></svg>