<svg width="24" height="24" fill="none" xmlns="http://www.w3.org/2000/svg"><path d="M10.533 9.281c-1.375.132-2.812.744-3.84 1.635-.602.522-1.268 1.422-1.414 1.912-.151.505.375 1.028.892.889a.736.736 0 0 0 .496-.39c.06-.103.18-.295.267-.427.711-1.072 1.947-1.826 3.406-2.078.46-.079 1.307-.08 1.765-.001.906.156 1.864.6 2.765 1.282l.171.129-.631.015c-.482.012-.658.031-.75.081a.872.872 0 0 0-.342.352c-.072.14-.064.514.014.665.08.153.277.325.421.365.059.017.863.03 1.787.03 1.511 0 1.693-.007 1.805-.069.155-.084.325-.282.365-.424.039-.14.039-3.354 0-3.494-.04-.144-.212-.341-.365-.421-.16-.083-.528-.084-.685-.002a.866.866 0 0 0-.344.35c-.037.069-.061.329-.075.833l-.021.733-.347-.261c-1.264-.954-2.472-1.507-3.633-1.66a9.778 9.778 0 0 0-1.707-.044" fill-rule="evenodd" fill="#000"/></svg>