<svg width="24" height="24" fill="none" xmlns="http://www.w3.org/2000/svg"><path d="M11.32 2.28c-1.879.127-3.672.802-5.236 1.972-.493.368-1.464 1.339-1.832 1.832a9.794 9.794 0 0 0-1.895 4.524 10.9 10.9 0 0 0 0 2.784 9.794 9.794 0 0 0 1.895 4.524c.368.493 1.339 1.464 1.832 1.832a9.768 9.768 0 0 0 4.524 1.894 10.32 10.32 0 0 0 3.804-.2 9.913 9.913 0 0 0 3.504-1.694c.493-.369 1.463-1.339 1.832-1.832a9.763 9.763 0 0 0 1.894-4.524 10.9 10.9 0 0 0 0-2.784 9.763 9.763 0 0 0-1.894-4.524c-.369-.493-1.339-1.463-1.832-1.832-1.13-.846-2.524-1.495-3.796-1.766a10.872 10.872 0 0 0-2.8-.206m1.86 1.558a8.233 8.233 0 0 1 3.829 1.607c.425.321 1.225 1.121 1.546 1.546a8.266 8.266 0 0 1 .444 9.375 8.679 8.679 0 0 1-2.633 2.633 8.27 8.27 0 0 1-8.732 0 8.679 8.679 0 0 1-2.633-2.633c-1.51-2.435-1.659-5.493-.392-8.023.433-.864.868-1.465 1.568-2.166.879-.878 1.824-1.491 2.948-1.911a8.455 8.455 0 0 1 4.055-.428M6.805 7.279c-.291.071-.505.327-.545.653-.014.114-.02.766-.013 1.448.011 1.08.022 1.256.082 1.365.084.155.282.325.424.365.141.039 2.835.039 2.976-.001.152-.042.392-.262.457-.417a.742.742 0 0 0-.139-.786c-.165-.174-.306-.23-.661-.259L9.06 9.62l.18-.125c.737-.51 1.697-.763 2.755-.724.886.032 1.607.251 2.31.702.401.257.906.774 1.129 1.157.183.313.303.419.551.486.508.137 1.009-.318.915-.832-.06-.333-.49-.949-1.017-1.457-1.147-1.106-2.88-1.694-4.563-1.55-1.232.106-2.254.478-3.143 1.144l-.397.298-.023-.469c-.023-.474-.055-.591-.212-.764-.167-.185-.476-.271-.74-.207m.84 5.601c-.41.097-.661.577-.509.974.122.321.477.805.901 1.231 1.371 1.378 3.44 1.948 5.504 1.517a5.834 5.834 0 0 0 2.282-1.023l.397-.298.023.469c.028.574.113.762.417.92.157.082.525.081.685-.002.153-.08.325-.277.365-.421.017-.059.03-.728.03-1.487 0-1.228-.008-1.394-.069-1.505-.084-.155-.282-.325-.424-.365-.141-.039-2.835-.039-2.976.001-.152.042-.392.262-.457.417a.742.742 0 0 0 .139.786c.165.174.306.23.661.259l.326.027-.18.125c-.737.51-1.697.763-2.755.724-.886-.032-1.607-.251-2.31-.702-.401-.257-.906-.774-1.129-1.157-.182-.311-.302-.418-.546-.485-.178-.05-.185-.05-.375-.005" fill-rule="evenodd" fill="#000"/></svg>