<svg width="24" height="24" fill="none" xmlns="http://www.w3.org/2000/svg"><path d="M2.805 2.279c-.291.071-.506.328-.545.653-.013.114-.019 1.576-.012 3.248.011 2.781.018 3.051.081 3.165.084.155.282.325.424.365.14.039 6.354.039 6.494 0 .144-.04.341-.212.421-.365.083-.16.084-.528.002-.685a.88.88 0 0 0-.35-.345c-.08-.044-.527-.059-2.232-.075l-2.132-.02.532-.469C6.716 6.669 7.534 6.085 8.5 5.598c1.181-.596 2.201-.838 3.528-.838 2.188 0 4.225.851 5.793 2.419.691.69 1.076 1.225 1.6 2.22.256.488.374.601.686.66.411.077.849-.306.852-.745.002-.362-.797-1.739-1.493-2.574-1.327-1.591-3.274-2.779-5.303-3.237-1.396-.316-2.981-.317-4.298-.005-1.81.43-3.402 1.37-5.513 3.257l-.589.526-.011-2.251c-.013-2.392-.007-2.323-.207-2.544-.167-.185-.476-.271-.74-.207m.741 11.698a.788.788 0 0 0-.505.707c-.002.275.542 1.307 1.073 2.036a9.786 9.786 0 0 0 5.806 3.797c.696.153 1.231.21 2 .211 1.486.003 2.596-.225 3.855-.791 1.248-.561 2.331-1.318 3.933-2.746l.529-.471.011 2.25c.011 2.005.019 2.263.078 2.37a.89.89 0 0 0 .354.342c.14.072.514.064.665-.014.153-.08.325-.277.365-.421.039-.14.039-6.354 0-6.494-.04-.142-.21-.34-.365-.424-.115-.064-.377-.069-3.305-.069-1.749 0-3.228.013-3.287.03-.144.04-.341.212-.421.365-.083.16-.084.528-.002.685.07.134.2.263.35.345.08.044.527.059 2.232.075l2.132.02-.532.469c-2.024 1.783-3.426 2.564-5.2 2.896-.53.1-1.767.119-2.338.037-1.937-.279-3.466-1.031-4.795-2.361-.692-.691-1.094-1.25-1.599-2.219-.205-.394-.263-.474-.401-.549-.216-.119-.443-.146-.633-.076" fill-rule="evenodd" fill="#000"/></svg>