<svg width="24" height="24" fill="none" xmlns="http://www.w3.org/2000/svg"><path d="M11.837 5.267c-.057.009-2.199 1.416-4.76 3.125-3.67 2.449-4.673 3.137-4.733 3.243-.112.197-.105.549.015.743.075.122.962.73 4.703 3.223 2.85 1.9 4.673 3.091 4.772 3.117.307.083.607-.04.796-.326l.11-.166.012-1.533c.007-.843.022-1.533.034-1.533.011 0 1.339.791 2.95 1.757 1.868 1.121 2.996 1.775 3.114 1.805.303.076.617-.063.797-.353l.093-.149v-6.18c0-3.399-.013-6.228-.03-6.287-.04-.144-.212-.341-.365-.421a.89.89 0 0 0-.354-.065h-.228l-2.978 1.786a272.953 272.953 0 0 1-3 1.787c-.011 0-.026-.688-.033-1.53-.013-1.618-.012-1.608-.207-1.824-.155-.171-.447-.261-.708-.219M18.24 12c0 2.552-.011 4.64-.023 4.64-.013 0-1.246-.733-2.74-1.63l-2.717-1.63v-2.76l2.71-1.628c1.49-.896 2.724-1.629 2.74-1.63.017-.001.03 2.086.03 4.638m-7 0v4.6l-3.439-2.29C5.91 13.051 4.362 12.011 4.362 12c0-.016 6.829-4.587 6.868-4.597.006-.002.01 2.067.01 4.597" fill-rule="evenodd" fill="#000"/></svg>