<svg width="24" height="24" fill="none" xmlns="http://www.w3.org/2000/svg"><path d="M20.805 1.279a.73.73 0 0 0-.527.544c-.02.086-.037 1.126-.037 2.31l-.001 2.153-.53-.475c-1.562-1.401-2.688-2.187-3.935-2.748-1.256-.564-2.373-.795-3.835-.792-1.816.004-3.481.479-5.06 1.442C4.66 5.068 3.043 7.351 2.484 9.92a10.183 10.183 0 0 0-.045 3.94 9.859 9.859 0 0 0 1.912 4.175c.343.443 1.173 1.273 1.609 1.609 1.63 1.257 3.346 1.916 5.4 2.074a10.17 10.17 0 0 0 2.84-.225 9.782 9.782 0 0 0 6.914-6.042c.141-.369.154-.507.064-.722a.734.734 0 0 0-.398-.413.68.68 0 0 0-.603 0c-.212.096-.305.22-.465.617-.479 1.197-1.153 2.206-2.023 3.029-1.986 1.88-4.683 2.656-7.349 2.114a8.284 8.284 0 0 1-5.744-4.459c-.539-1.106-.785-2.11-.824-3.362a7.98 7.98 0 0 1 .923-4.075 8.24 8.24 0 0 1 7.277-4.42c1.327 0 2.347.242 3.528.838.96.484 1.792 1.078 3.012 2.153l.532.469-2.132.02c-1.884.018-2.146.028-2.252.086a.89.89 0 0 0-.342.354c-.072.14-.064.514.014.665.08.153.277.325.421.365.14.039 6.354.039 6.494 0 .142-.04.34-.21.424-.365.064-.115.069-.377.069-3.305 0-1.749-.013-3.228-.03-3.287a.833.833 0 0 0-.345-.41.949.949 0 0 0-.56-.064" fill-rule="evenodd" fill="#000"/></svg>