<svg width="24" height="24" fill="none" xmlns="http://www.w3.org/2000/svg"><path d="M11.32 2.28c-1.879.127-3.672.802-5.236 1.972-.493.368-1.464 1.339-1.832 1.832a9.794 9.794 0 0 0-1.895 4.524 10.9 10.9 0 0 0 0 2.784 9.794 9.794 0 0 0 1.895 4.524c.368.493 1.339 1.464 1.832 1.832a9.768 9.768 0 0 0 4.524 1.894 10.32 10.32 0 0 0 3.804-.2 9.913 9.913 0 0 0 3.504-1.694c.493-.369 1.463-1.339 1.832-1.832a9.763 9.763 0 0 0 1.894-4.524 10.9 10.9 0 0 0 0-2.784 9.763 9.763 0 0 0-1.894-4.524c-.369-.493-1.339-1.463-1.832-1.832-1.13-.846-2.524-1.495-3.796-1.766a10.872 10.872 0 0 0-2.8-.206m1.86 1.558a8.233 8.233 0 0 1 3.829 1.607c.425.321 1.225 1.121 1.546 1.546a8.266 8.266 0 0 1 .444 9.375 8.679 8.679 0 0 1-2.633 2.633 8.27 8.27 0 0 1-8.732 0 8.679 8.679 0 0 1-2.633-2.633c-1.51-2.435-1.659-5.493-.392-8.023.433-.864.868-1.465 1.568-2.166.879-.878 1.824-1.491 2.948-1.911a8.455 8.455 0 0 1 4.055-.428m2.72 2.421a1.438 1.438 0 0 1-.147.037c-.138.031-.337.199-.424.359-.055.102-.071.279-.088.973l-.021.847-.38-.261c-.446-.306-1.144-.654-1.54-.767-1.4-.402-2.764-.177-4.013.663-.799.537-1.423 1.364-1.78 2.358-.323.898-.33 1.995-.018 3.012.42 1.373 1.667 2.608 3.071 3.039.552.17.834.212 1.44.212.845.001 1.439-.141 2.164-.515.675-.349 1.36-.947 1.754-1.531.25-.371.561-1.045.588-1.275a.708.708 0 0 0-.644-.802c-.429-.035-.653.133-.872.653a3 3 0 0 1-.76 1.085 3.148 3.148 0 0 1-2.242.894c-.938-.001-1.714-.345-2.372-1.052A2.998 2.998 0 0 1 8.91 13c-.122-.362-.128-.409-.129-1 0-.599.004-.633.131-1 .175-.503.4-.876.745-1.233.989-1.026 2.406-1.293 3.681-.696l.319.149-.439.024c-.551.029-.736.119-.9.436-.072.14-.064.514.014.665.08.153.277.325.421.365.059.017.863.03 1.787.03 1.511 0 1.693-.007 1.805-.069.155-.084.325-.282.365-.424.039-.14.039-3.354 0-3.494a.833.833 0 0 0-.345-.41c-.111-.056-.397-.108-.465-.084" fill-rule="evenodd" fill="#000"/></svg>