<svg width="24" height="24" viewBox="0 0 24 24" fill="none" xmlns="http://www.w3.org/2000/svg">
<path d="M15.7733 13.3292C15.4851 14.1471 14.9388 14.8493 14.2169 15.3298C13.4949 15.8103 12.6363 16.0432 11.7704 15.9934C10.9046 15.9436 10.0784 15.6137 9.41631 15.0535C8.75424 14.4933 8.29217 13.7332 8.09972 12.8876C7.90728 12.042 7.99489 11.1567 8.34934 10.3652C8.7038 9.57374 9.3059 8.91887 10.0649 8.4993C10.824 8.07974 11.6988 7.91819 12.5576 8.03902C13.9223 8.23101 14.9173 9.23345 16 10M16 10V7M16 10H13M21 12C21 16.9706 16.9706 21 12 21C7.02944 21 3 16.9706 3 12C3 7.02944 7.02944 3 12 3C16.9706 3 21 7.02944 21 12Z" stroke="#001A72" stroke-width="1.5" stroke-linecap="round" stroke-linejoin="round"/>
</svg>
