<svg width="24" height="24" fill="none" xmlns="http://www.w3.org/2000/svg"><path d="M5.617 3.283c-.586.07-1.099.328-1.552.782-.483.482-.715.968-.787 1.648-.028.255-.037 2.498-.029 6.567.012 5.74.017 6.197.082 6.42a2.856 2.856 0 0 0 1.989 1.97c.243.065.677.07 6.68.07s6.437-.005 6.68-.07a2.838 2.838 0 0 0 1.99-1.99c.065-.241.07-.589.07-4.74 0-3.639-.01-4.525-.055-4.72a3.055 3.055 0 0 0-.407-.927c-.176-.264-4.197-4.296-4.504-4.517a3.134 3.134 0 0 0-.954-.458c-.157-.041-1.137-.054-4.56-.061-2.398-.004-4.488.007-4.643.026m9.103 1.591c.258.135 4.234 4.107 4.387 4.383l.113.203.011 4.387c.01 4.335.009 4.389-.071 4.605-.11.292-.415.598-.706.707-.201.075-.309.081-1.454.081h-1.237l-.011-2.23c-.011-2.017-.019-2.242-.081-2.355-.084-.155-.282-.325-.424-.365-.14-.039-6.354-.039-6.494 0-.142.04-.34.21-.424.365-.062.113-.07.338-.081 2.355l-.011 2.23H7c-1.145 0-1.253-.006-1.454-.081a1.342 1.342 0 0 1-.705-.705c-.08-.215-.081-.285-.081-6.454s.001-6.239.081-6.454c.106-.282.415-.595.694-.703.2-.078.303-.079 4.605-.071l4.4.008.18.094M14.24 17.5v1.74H9.76v-3.48h4.48v1.74" fill-rule="evenodd" fill="#000"/></svg>