<svg width="24" height="24" fill="none" xmlns="http://www.w3.org/2000/svg"><path d="M9.857 2.28c-3.793.266-6.935 3.201-7.518 7.021-.091.595-.091 1.803 0 2.398a8.265 8.265 0 0 0 6.962 6.962c.595.091 1.803.091 2.398 0 1.413-.215 2.831-.825 3.901-1.676l.18-.143 1.92 1.916c1.357 1.355 1.955 1.926 2.04 1.948.525.138.98-.166.993-.661a1.293 1.293 0 0 0-.027-.305c-.022-.085-.593-.683-1.947-2.04l-1.916-1.92.08-.1a9.15 9.15 0 0 0 1.177-1.982c.852-1.996.852-4.4 0-6.396a8.274 8.274 0 0 0-4.639-4.5c-1.076-.42-2.372-.608-3.604-.522m1.592 1.541c2.493.375 4.522 2.021 5.389 4.374a6.748 6.748 0 0 1-1.255 6.733A6.694 6.694 0 0 1 10.5 17.24a6.73 6.73 0 0 1-6.26-4.235c-.858-2.168-.567-4.533.795-6.464.289-.41 1.096-1.217 1.506-1.506A6.967 6.967 0 0 1 9.5 3.825c.496-.077 1.448-.079 1.949-.004" fill-rule="evenodd" fill="#000"/></svg>