<svg width="24" height="24" fill="none" xmlns="http://www.w3.org/2000/svg"><path d="M11.9 3.259a1.795 1.795 0 0 1-.16.04c-.089.019-.658.562-2.233 2.133-1.162 1.16-2.141 2.162-2.176 2.228-.082.154-.083.524-.001.68a.849.849 0 0 0 .35.342c.139.072.515.064.66-.013.066-.035.741-.686 1.5-1.447l1.38-1.382.02 5.19c.021 5.552.01 5.257.215 5.484.136.15.308.219.545.219.237 0 .409-.069.545-.219.205-.227.194.068.215-5.484l.02-5.19 1.38 1.382c.759.761 1.434 1.412 1.5 1.447.145.077.521.085.66.013a.847.847 0 0 0 .348-.338c.067-.13.086-.422.038-.604-.022-.085-.644-.735-2.138-2.233-1.16-1.162-2.153-2.136-2.208-2.165-.106-.055-.392-.107-.46-.083m-8.095 9.02c-.291.071-.505.327-.545.653-.014.114-.019 1.405-.011 2.868.017 2.948.009 2.848.29 3.42a2.838 2.838 0 0 0 1.781 1.45c.243.065.677.07 6.68.07s6.437-.005 6.68-.07a2.838 2.838 0 0 0 1.99-1.99c.064-.236.07-.511.07-3.04 0-1.529-.013-2.828-.03-2.887-.04-.144-.212-.341-.365-.421-.151-.078-.525-.086-.665-.014a.89.89 0 0 0-.354.342c-.059.107-.068.412-.086 2.9-.02 2.713-.022 2.784-.104 2.96a1.412 1.412 0 0 1-.683.639c-.213.08-.297.081-6.453.081-6.156 0-6.24-.001-6.453-.081a1.412 1.412 0 0 1-.683-.639c-.082-.176-.084-.247-.104-2.96-.021-2.959-.014-2.852-.215-3.074-.167-.185-.476-.271-.74-.207" fill-rule="evenodd" fill="#000"/></svg>