<svg width="24" height="24" fill="none" xmlns="http://www.w3.org/2000/svg"><path d="M11.831 2.285c-.081.018-1.984.951-4.227 2.073-4.389 2.196-4.235 2.108-4.316 2.465-.04.179.002 1.36.071 2.017.355 3.331 1.668 6.835 3.455 9.213 1.307 1.741 2.82 2.906 4.606 3.547.472.17.688.17 1.16 0 1.1-.395 1.968-.907 2.927-1.727 2.436-2.085 4.353-5.953 5.01-10.113.161-1.019.267-2.616.195-2.937-.081-.359.08-.267-4.365-2.483-2.27-1.131-4.181-2.064-4.247-2.073a.905.905 0 0 0-.269.018M15.62 5.65l3.62 1.81v.18c0 .099-.027.441-.059.76a18.653 18.653 0 0 1-.868 4.12c-1.207 3.712-3.281 6.408-5.763 7.49-.488.213-.622.213-1.1.002-1.45-.64-2.8-1.85-3.865-3.463-1.266-1.919-2.217-4.457-2.622-6.994-.088-.548-.203-1.635-.203-1.915v-.18l3.61-1.808c1.985-.994 3.614-1.809 3.62-1.81.005-.001 1.639.812 3.63 1.808M9.9 9.259a1.438 1.438 0 0 1-.147.037c-.139.031-.339.201-.421.359-.078.15-.086.525-.014.665.028.055.404.455.836.89l.785.79-.785.79c-.432.435-.808.835-.836.89-.066.129-.066.512 0 .64a.849.849 0 0 0 .342.35c.145.076.522.083.66.012.055-.028.455-.404.89-.836l.79-.785.79.785c.435.432.835.808.89.836.129.066.512.066.64 0a.849.849 0 0 0 .35-.342c.076-.145.083-.522.012-.66-.028-.055-.404-.455-.836-.89l-.785-.79.785-.79c.432-.435.808-.835.836-.89.071-.138.064-.515-.012-.66a.849.849 0 0 0-.35-.342c-.128-.066-.511-.066-.64 0-.055.028-.455.404-.89.836l-.79.785-.79-.785c-.435-.432-.826-.803-.87-.825-.092-.045-.38-.091-.44-.07" fill-rule="evenodd" fill="#000"/></svg>