<svg width="24" height="24" fill="none" xmlns="http://www.w3.org/2000/svg"><path d="M8.805 2.279a.73.73 0 0 0-.527.544c-.02.086-.037.889-.037 1.783L8.24 6.232l-.73.015c-.59.012-.754.028-.855.082-.155.084-.325.282-.365.424-.039.14-.039 10.354 0 10.494.04.142.21.34.365.424.101.054.265.07.853.082l.728.015.012 1.726c.011 1.54.019 1.739.081 1.851.084.155.282.325.424.365.14.039 6.354.039 6.494 0 .142-.04.34-.21.424-.365.062-.112.07-.311.081-1.851l.012-1.726.728-.015c.588-.012.752-.028.853-.082.155-.084.325-.282.365-.424.039-.14.039-10.354 0-10.494-.04-.142-.21-.34-.365-.424-.101-.054-.265-.07-.853-.082l-.728-.015-.012-1.726c-.013-1.829-.01-1.802-.207-2.02-.215-.237-.037-.225-3.465-.232-1.727-.004-3.201.008-3.275.025M14.24 5v1.24H9.76V3.76h4.48V5m2 7v4.24H7.76V7.76h8.48V12m-5.989-2.939c-1.045.226-1.672 1.243-1.448 2.347.065.319.437 1.046.744 1.452.527.697 1.765 1.884 2.153 2.064a.674.674 0 0 0 .6 0c.388-.18 1.626-1.367 2.153-2.064.307-.406.679-1.133.744-1.452.29-1.43-.79-2.564-2.259-2.374a1.97 1.97 0 0 0-.647.184L12 9.356l-.29-.137a2.298 2.298 0 0 0-1.459-.158m.689 1.463c.088.023.228.096.31.161.243.192.462.273.741.274.286.001.457-.059.723-.255.245-.179.475-.241.686-.184.661.178.371.971-.792 2.167-.296.304-.57.553-.608.553-.038 0-.312-.249-.608-.553-1.132-1.164-1.436-1.938-.845-2.149.189-.067.196-.068.393-.014M14.24 19v1.24H9.76v-2.48h4.48V19" fill-rule="evenodd" fill="#000"/></svg>