<svg width="24" height="24" viewBox="0 0 24 24" fill="none" xmlns="http://www.w3.org/2000/svg">
<path d="M9 7L15 7M9 7H7L7 13M9 7L9 3L15 3V7M15 7L17 7L17 13M15 17V21H9L9 17M15 17H17L17 13M15 17H9M9 17H7L7 13M17 13H15C14.8611 13 14.7762 12.8607 14.7198 12.7201L14 9.99497C13.8772 9.68891 13.1267 9.6959 13 10L12 14C11.8765 14.2966 11.1318 14.2922 11 14L10 12C9.87044 11.7129 9.62956 11.7129 9.5 12L9.28457 12.7361C9.22502 12.868 9.10328 13 8.97011 13H7" stroke="#001A72" stroke-width="1.5" stroke-linecap="round" stroke-linejoin="round"/>
</svg>
