<svg width="24" height="24" fill="none" xmlns="http://www.w3.org/2000/svg"><path d="M8.805 2.279a.73.73 0 0 0-.527.544c-.02.086-.037.889-.037 1.783L8.24 6.232l-.73.015c-.59.012-.754.028-.855.082-.155.084-.325.282-.365.424-.039.14-.039 10.354 0 10.494.04.142.21.34.365.424.101.054.265.07.853.082l.728.015.012 1.726c.011 1.54.019 1.739.081 1.851.084.155.282.325.424.365.14.039 6.354.039 6.494 0 .142-.04.34-.21.424-.365.062-.112.07-.311.081-1.851l.012-1.726.728-.015c.588-.012.752-.028.853-.082.155-.084.325-.282.365-.424.039-.14.039-10.354 0-10.494-.04-.142-.21-.34-.365-.424-.101-.054-.265-.07-.853-.082l-.728-.015-.012-1.726c-.013-1.829-.01-1.802-.207-2.02-.215-.237-.037-.225-3.465-.232-1.727-.004-3.201.008-3.275.025M14.24 5v1.24H9.76V3.76h4.48V5m2 7v4.24H7.76V7.76h8.48V12m-4.435-2.721a.73.73 0 0 0-.527.544c-.02.086-.037.439-.037.783l-.001.626-.73.015c-.778.016-.872.037-1.055.239-.142.157-.188.283-.188.514 0 .231.046.357.188.514.183.202.277.223 1.051.239l.726.015.015.726c.015.753.029.822.208 1.02.136.149.308.219.545.219.231 0 .357-.046.514-.188.202-.183.223-.277.239-1.051l.015-.726.726-.015c.774-.016.868-.037 1.051-.239.142-.157.188-.283.188-.514 0-.231-.046-.357-.188-.514-.183-.202-.277-.223-1.051-.239l-.726-.015-.015-.726c-.015-.753-.029-.822-.208-1.02-.167-.185-.476-.271-.74-.207M14.24 19v1.24H9.76v-2.48h4.48V19" fill-rule="evenodd" fill="#000"/></svg>