<svg width="24" height="24" fill="none" xmlns="http://www.w3.org/2000/svg"><path d="M8.805 2.279a.73.73 0 0 0-.527.544c-.02.086-.037.889-.037 1.783L8.24 6.232l-.73.015c-.59.012-.754.028-.855.082-.155.084-.325.282-.365.424-.039.14-.039 10.354 0 10.494.04.142.21.34.365.424.101.054.265.07.853.082l.728.015.012 1.726c.011 1.54.019 1.739.081 1.851.084.155.282.325.424.365.14.039 6.354.039 6.494 0 .142-.04.34-.21.424-.365.062-.112.07-.311.081-1.851l.012-1.726.728-.015c.588-.012.752-.028.853-.082.155-.084.325-.282.365-.424.039-.14.039-10.354 0-10.494-.04-.142-.21-.34-.365-.424-.101-.054-.265-.07-.853-.082l-.728-.015-.012-1.726c-.013-1.829-.01-1.802-.207-2.02-.215-.237-.037-.225-3.465-.232-1.727-.004-3.201.008-3.275.025M14.24 5v1.24H9.76V3.76h4.48V5m2 5v2.24h-.44c-.242 0-.44-.007-.44-.016 0-.108-.661-2.49-.727-2.618-.18-.353-.604-.566-1.126-.566-.329 0-.54.056-.794.21-.334.203-.38.317-.81 2.05-.213.858-.406 1.631-.429 1.719l-.042.158-.431-.851c-.239-.472-.489-.912-.561-.986a.96.96 0 0 0-.766-.289c-.445.041-.769.347-.932.88l-.088.289-.447.011-.447.012V7.76h8.48V10m-2.459 2.1c.243.932.304 1.092.505 1.321.248.282.362.314 1.204.332l.75.016v2.471H7.76v-2.471l.73-.016c.719-.015.733-.017.944-.132.117-.065.248-.162.29-.215.043-.054.084-.091.091-.082.008.009.142.268.298.576.155.308.342.621.415.696.531.547 1.7.454 2.077-.164.075-.124.214-.613.496-1.746.225-.906.404-1.552.421-1.52.016.03.133.45.259.934m.459 6.9v1.24H9.76v-2.48h4.48V19" fill-rule="evenodd" fill="#000"/></svg>