<svg width="24" height="24" viewBox="0 0 24 24" fill="none" xmlns="http://www.w3.org/2000/svg">
<path d="M9 7L15 7M9 7H7V17H9M9 7L9 3H15V7M15 7L17 7L17 17H15M15 17V21H9L9 17M15 17H9M11.6555 10.0459C11.8923 10.2353 11.8 10.1615 11.8 10.1615C11.9093 10.2489 12.0907 10.2489 12.2 10.1615L12.3445 10.0459C12.5813 9.85643 12.9024 9.75 13.2373 9.75C13.9347 9.75 14.5 10.1786 14.5 10.9744C14.5 12.3214 12 14.25 12 14.25C12 14.25 9.5 12.3214 9.5 10.9744C9.5 10.1786 10.0556 9.75 10.7627 9.75C11.0976 9.75 11.4187 9.85643 11.6555 10.0459Z" stroke="#001A72" stroke-width="1.5" stroke-linecap="round" stroke-linejoin="round"/>
</svg>
