<svg width="24" height="24" fill="none" xmlns="http://www.w3.org/2000/svg"><path d="M7.617 2.283c-.586.07-1.099.328-1.552.782-.483.482-.715.968-.787 1.648-.028.256-.037 2.821-.029 7.567.011 6.699.017 7.196.082 7.42a2.856 2.856 0 0 0 1.989 1.97c.241.065.586.07 4.68.07 4.094 0 4.439-.005 4.68-.07a2.838 2.838 0 0 0 1.99-1.99c.066-.244.07-.722.07-7.68s-.004-7.436-.07-7.68a2.838 2.838 0 0 0-1.45-1.781c-.597-.294-.278-.276-5.04-.283-2.354-.004-4.408.008-4.563.027m8.837 1.558c.29.109.596.415.705.705.08.215.081.28.081 7.454 0 7.174-.001 7.239-.081 7.454-.109.29-.415.596-.705.705-.213.08-.294.081-4.454.081s-4.241-.001-4.454-.081a1.342 1.342 0 0 1-.705-.705c-.08-.215-.081-.28-.081-7.454 0-7.174.001-7.239.081-7.454.106-.282.415-.596.694-.703.199-.077.322-.079 4.453-.081 4.174-.002 4.253-.001 4.466.079M11.9 17.259a1.438 1.438 0 0 1-.147.037c-.139.031-.339.201-.421.359-.083.16-.084.528-.002.685.124.239.414.42.67.42.256 0 .546-.181.67-.42.076-.146.083-.523.012-.66a.852.852 0 0 0-.322-.339c-.106-.055-.393-.106-.46-.082" fill-rule="evenodd" fill="#000"/></svg>