<svg width="24" height="24" fill="none" xmlns="http://www.w3.org/2000/svg"><path d="M14.805 3.279c-.292.071-.506.328-.544.653-.014.114-.019 3.826-.013 8.248.013 8.624 0 8.105.207 8.334a.888.888 0 0 0 .205.156c.157.082.525.081.685-.002.153-.08.325-.277.365-.421.039-.14.039-16.354 0-16.494a.833.833 0 0 0-.345-.41.949.949 0 0 0-.56-.064m-3 3c-.291.071-.506.328-.544.653-.014.114-.02 2.476-.013 5.248.01 4.184.021 5.057.067 5.14a.88.88 0 0 0 .345.35c.157.082.525.081.685-.002.153-.08.325-.277.365-.421.039-.14.039-10.354 0-10.494a.833.833 0 0 0-.345-.41.949.949 0 0 0-.56-.064m-6 1c-.291.071-.506.328-.545.653-.013.114-.019 2.026-.012 4.248.011 3.67.018 4.051.078 4.16a.89.89 0 0 0 .354.342c.14.072.514.064.665-.014.153-.08.325-.277.365-.421.039-.14.039-8.354 0-8.494a.833.833 0 0 0-.345-.41.949.949 0 0 0-.56-.064m12 1c-.291.071-.506.328-.545.653-.013.114-.019 1.576-.012 3.248.011 2.739.019 3.052.078 3.16a.89.89 0 0 0 .354.342c.14.072.514.064.665-.014.153-.08.325-.277.365-.421.039-.14.039-6.354 0-6.494a.833.833 0 0 0-.345-.41.949.949 0 0 0-.56-.064m-9 1c-.291.071-.506.328-.545.653-.014.114-.019 1.126-.013 2.248.011 1.638.024 2.06.068 2.14a.88.88 0 0 0 .345.35c.157.082.525.081.685-.002.153-.08.325-.277.365-.421.039-.14.039-4.354 0-4.494a.833.833 0 0 0-.345-.41.949.949 0 0 0-.56-.064m-6 1c-.291.071-.505.327-.546.653-.014.114-.019.676-.012 1.248.011.876.023 1.059.079 1.16a.89.89 0 0 0 .354.342c.14.072.514.064.665-.014.153-.08.325-.277.365-.421.039-.139.039-2.355 0-2.494a.833.833 0 0 0-.345-.41.949.949 0 0 0-.56-.064m18 0c-.291.071-.505.327-.546.653-.014.114-.019.676-.012 1.248.011.876.023 1.059.079 1.16a.89.89 0 0 0 .354.342c.14.072.514.064.665-.014.153-.08.325-.277.365-.421.017-.059.03-.62.03-1.247 0-.627-.013-1.188-.03-1.247a.833.833 0 0 0-.345-.41.949.949 0 0 0-.56-.064" fill-rule="evenodd" fill="#000"/></svg>