<svg width="24" height="24" fill="none" xmlns="http://www.w3.org/2000/svg"><path d="M12.811 2.278c-.17.041.022-.113-3.223 2.592L6.756 7.23l-1.108.021c-1.224.022-1.374.045-1.868.288A2.838 2.838 0 0 0 2.33 9.32c-.063.235-.07.495-.07 2.68s.007 2.445.07 2.68c.209.769.755 1.44 1.45 1.781.494.243.644.266 1.867.288l1.108.021 2.948 2.455c1.621 1.351 2.995 2.469 3.052 2.484a.789.789 0 0 0 .89-.336l.095-.153v-9.18c0-5.049-.013-9.228-.03-9.287a.833.833 0 0 0-.345-.41.949.949 0 0 0-.554-.065M12.24 12c0 4.048-.009 7.36-.02 7.36-.011 0-1.098-.898-2.416-1.996-1.318-1.099-2.438-2.021-2.49-2.05-.071-.041-.409-.059-1.374-.074-1.464-.023-1.482-.027-1.829-.379-.36-.365-.351-.296-.351-2.861 0-2.565-.009-2.496.351-2.861.347-.352.365-.356 1.832-.379l1.283-.02.157-.106c.086-.058 1.201-.979 2.477-2.047 1.276-1.068 2.334-1.942 2.35-1.944.017-.002.03 3.309.03 7.357m3.66-3.741a1.438 1.438 0 0 1-.147.037c-.138.031-.339.201-.419.355-.069.135-.089.425-.04.609.022.083.431.521 1.338 1.43L17.938 12l-1.306 1.31c-.907.909-1.316 1.347-1.338 1.43-.138.524.166.98.661.993.102.003.239-.009.305-.027.083-.022.521-.431 1.43-1.338L19 13.062l1.31 1.306c.909.907 1.347 1.316 1.43 1.338.525.138.98-.166.993-.662a1.289 1.289 0 0 0-.027-.304c-.022-.083-.431-.521-1.338-1.43L20.062 12l1.306-1.31c.907-.909 1.316-1.347 1.338-1.43.138-.525-.166-.98-.662-.993a1.289 1.289 0 0 0-.304.027c-.083.022-.521.431-1.43 1.338l-1.311 1.307-1.289-1.285c-.71-.707-1.326-1.303-1.37-1.325-.092-.045-.38-.091-.44-.07" fill-rule="evenodd" fill="#000"/></svg>