<svg width="24" height="24" fill="none" xmlns="http://www.w3.org/2000/svg"><path d="M12.811 2.278c-.17.041.022-.113-3.223 2.592L6.756 7.23l-1.108.021c-1.224.022-1.374.045-1.868.288A2.838 2.838 0 0 0 2.33 9.32c-.063.235-.07.495-.07 2.68s.007 2.445.07 2.68c.209.769.755 1.44 1.45 1.781.494.243.644.266 1.867.288l1.108.021 2.948 2.455c1.621 1.351 2.995 2.469 3.052 2.484a.789.789 0 0 0 .89-.336l.095-.153v-9.18c0-5.049-.013-9.228-.03-9.287a.833.833 0 0 0-.345-.41.949.949 0 0 0-.554-.065M12.24 12c0 4.048-.009 7.36-.02 7.36-.011 0-1.098-.898-2.416-1.996-1.318-1.099-2.438-2.021-2.49-2.05-.071-.041-.409-.059-1.374-.074-1.464-.023-1.482-.027-1.829-.379-.36-.365-.351-.296-.351-2.861 0-2.565-.009-2.496.351-2.861.347-.352.365-.356 1.832-.379l1.283-.02.157-.106c.086-.058 1.201-.979 2.477-2.047 1.276-1.068 2.334-1.942 2.35-1.944.017-.002.03 3.309.03 7.357m6.66-6.741a1.438 1.438 0 0 1-.147.037c-.139.031-.339.201-.421.359-.078.15-.086.525-.014.665.028.055.129.181.223.28 1.062 1.113 1.698 3.137 1.698 5.4 0 2.254-.602 4.189-1.668 5.361-.262.289-.304.377-.304.639 0 .446.287.733.733.733.264 0 .405-.068.623-.3 1.107-1.178 1.796-2.876 2.041-5.033.08-.707.08-2.093 0-2.8-.245-2.157-.934-3.855-2.041-5.033a1.39 1.39 0 0 0-.263-.225c-.106-.056-.393-.107-.46-.083m-3.095 3.02c-.379.092-.618.496-.527.893.037.163.064.208.288.474.21.249.414.68.54 1.138.102.371.109.447.109 1.216 0 .767-.007.845-.108 1.213-.136.495-.34.91-.592 1.205-.215.252-.255.353-.248.626.007.28.151.502.413.638.14.072.514.064.666-.015.213-.11.611-.623.844-1.087.727-1.452.727-3.708 0-5.16-.224-.446-.63-.977-.824-1.076a.945.945 0 0 0-.561-.065" fill-rule="evenodd" fill="#000"/></svg>