<svg width="24" height="24" fill="none" xmlns="http://www.w3.org/2000/svg"><path d="M12.811 2.278c-.17.041.022-.113-3.223 2.592L6.756 7.23l-1.108.021c-1.224.022-1.374.045-1.868.288A2.838 2.838 0 0 0 2.33 9.32c-.063.235-.07.495-.07 2.68s.007 2.445.07 2.68c.209.769.755 1.44 1.45 1.781.494.243.644.266 1.867.288l1.108.021 2.948 2.455c1.621 1.351 2.995 2.469 3.052 2.484.169.046.463.024.594-.043.15-.078.321-.276.361-.419.017-.059.03-4.238.03-9.287V2.78l-.095-.153a.787.787 0 0 0-.834-.349M12.24 12c0 4.048-.009 7.36-.02 7.36-.011 0-1.098-.898-2.416-1.996-1.318-1.099-2.438-2.021-2.49-2.05-.071-.041-.409-.059-1.374-.074-1.464-.023-1.482-.027-1.829-.379-.36-.365-.351-.296-.351-2.861 0-2.565-.009-2.496.351-2.861.347-.352.365-.356 1.832-.379l1.283-.02.157-.106c.086-.058 1.201-.979 2.477-2.047 1.276-1.068 2.334-1.942 2.35-1.944.017-.002.03 3.309.03 7.357" fill-rule="evenodd" fill="#000"/></svg>