<svg width="24" height="24" fill="none" xmlns="http://www.w3.org/2000/svg"><path d="M4.066 2.297a.874.874 0 0 0-.247.144c-.164.154-1.506 2.233-1.543 2.389-.077.331.305 2.126.692 3.244.914 2.649 2.345 4.602 3.943 5.386l.326.16.002 1.68c.003 2.214.042 2.566.361 3.248.399.855.94 1.406 1.78 1.813a3.564 3.564 0 0 0 1.985.356 3.21 3.21 0 0 0 1.255-.356c.84-.407 1.381-.958 1.78-1.813.289-.618.358-1.088.36-2.448.001-.949.023-1.091.225-1.463.129-.237.455-.555.693-.676.714-.364 1.541-.23 2.078.339.382.404.483.713.484 1.485v.564l-.233.085c-.496.181-1.076.668-1.362 1.142-.51.847-.51 1.997 0 2.849.173.29.64.757.93.93.852.51 1.998.51 2.85 0 .29-.173.757-.64.93-.93.51-.852.51-2.002 0-2.849-.284-.472-.866-.961-1.355-1.139l-.228-.083-.024-.667c-.027-.738-.104-1.123-.309-1.563a3.363 3.363 0 0 0-1.57-1.566c-.829-.388-1.911-.387-2.745.003-.665.312-1.252.9-1.566 1.57-.248.531-.284.771-.317 2.129-.019.79-.048 1.298-.079 1.4-.154.497-.642 1.084-1.102 1.327a2.325 2.325 0 0 1-2.12 0c-.309-.163-.764-.618-.927-.927-.246-.468-.253-.539-.252-2.586l.002-1.854.326-.16c.81-.397 1.607-1.119 2.295-2.08.649-.905 1.336-2.315 1.735-3.56.344-1.074.673-2.697.605-2.986-.041-.178-1.408-2.277-1.571-2.414-.33-.277-.889-.175-1.102.202-.099.175-.123.52-.047.671.025.048.304.485.62.971.317.485.576.923.576.973 0 .194-.293 1.435-.465 1.973-.768 2.392-1.888 4.102-3.166 4.834-.278.159-.334.176-.569.176-.235 0-.291-.017-.569-.176-.551-.316-1.148-.89-1.606-1.544C4.9 9.178 4.141 7.254 3.834 5.454l-.049-.286.583-.894a38.7 38.7 0 0 0 .627-.981c.072-.141.054-.478-.035-.653-.147-.288-.583-.455-.894-.343m15.388 15.544c.29.109.596.415.705.705.176.471.068.975-.285 1.328-.781.781-2.114.23-2.114-.874 0-.342.12-.629.366-.874a1.236 1.236 0 0 1 1.328-.285" fill-rule="evenodd" fill="#000"/></svg>