<svg width="24" height="24" fill="none" xmlns="http://www.w3.org/2000/svg"><path d="M9.805 2.279c-.382.093-.618.496-.526.898.071.31.317.522.653.563.114.014 1.126.019 2.248.013 2.166-.014 2.114-.009 2.334-.208.15-.136.219-.308.219-.545 0-.237-.069-.409-.219-.545-.221-.2-.158-.195-2.434-.202-1.177-.003-2.201.008-2.275.026M11.34 4.28a8.697 8.697 0 0 0-5.52 2.54c-1.352 1.352-2.197 3.041-2.483 4.96-.089.598-.088 1.847.001 2.44a8.48 8.48 0 0 0 .822 2.64 8.572 8.572 0 0 0 3.98 3.98c1.274.627 2.41.888 3.86.888 1.45 0 2.586-.261 3.86-.888a8.572 8.572 0 0 0 3.98-3.98c.627-1.274.887-2.407.887-3.86 0-.849-.058-1.368-.232-2.078-.443-1.798-1.474-3.46-2.862-4.611A8.79 8.79 0 0 0 11.34 4.28m2.106 1.613c1.439.313 2.654.971 3.672 1.989 1.035 1.035 1.703 2.286 2.007 3.758.084.404.095.569.095 1.36 0 .791-.011.956-.095 1.36-.304 1.475-.974 2.728-2.011 3.761-1.042 1.038-2.282 1.7-3.754 2.004-.404.084-.569.095-1.36.095-.791 0-.956-.011-1.36-.095-1.474-.304-2.721-.97-3.758-2.007a7.287 7.287 0 0 1-2.01-3.765c-.08-.393-.092-.573-.092-1.353s.012-.96.092-1.353a7.287 7.287 0 0 1 2.01-3.765c1.115-1.115 2.472-1.803 4.069-2.062.248-.041.592-.053 1.189-.042.713.012.91.029 1.306.115m-1.641 2.386c-.291.071-.506.328-.545.653-.014.114-.019 1.126-.013 2.248.01 1.633.024 2.06.068 2.14.08.147 2.204 2.275 2.345 2.349.145.077.522.084.66.013a.849.849 0 0 0 .35-.342c.076-.145.083-.522.012-.66-.028-.055-.471-.523-.985-1.04l-.934-.94-.012-1.96c-.012-2.081-.008-2.035-.206-2.254-.167-.185-.476-.271-.74-.207" fill-rule="evenodd" fill="#000"/></svg>