<svg width="24" height="24" fill="none" xmlns="http://www.w3.org/2000/svg"><path d="M11.805 2.279c-.291.071-.505.327-.546.653-.014.114-.019.676-.012 1.248.011.876.023 1.059.079 1.16a.89.89 0 0 0 .354.342c.14.072.514.064.665-.014.153-.08.325-.277.365-.421.017-.059.03-.62.03-1.247 0-.627-.013-1.188-.03-1.247a.833.833 0 0 0-.345-.41.949.949 0 0 0-.56-.064M4.9 4.259a1.438 1.438 0 0 1-.147.037c-.139.031-.339.201-.421.359-.078.15-.086.525-.014.665.071.141 2.196 2.272 2.342 2.349.154.082.524.083.68.001a.849.849 0 0 0 .342-.35c.066-.128.066-.511 0-.64-.066-.13-2.191-2.269-2.322-2.338-.105-.055-.392-.107-.46-.083m14 0a1.795 1.795 0 0 1-.16.04c-.087.019-.426.331-1.233 1.134-.612.609-1.141 1.161-1.176 1.227-.077.145-.084.522-.013.66a.849.849 0 0 0 .342.35c.156.082.526.081.68-.001.146-.077 2.271-2.208 2.342-2.349.066-.129.066-.512 0-.64a.852.852 0 0 0-.322-.339c-.106-.055-.393-.106-.46-.082m-7.305 4.023a3.765 3.765 0 0 0-2.564 1.437c-.238.313-.563.968-.649 1.306a4.254 4.254 0 0 0 0 1.95c.086.338.411.993.649 1.306.366.482.817.837 1.421 1.119a3.648 3.648 0 0 0 1.913.317 3.277 3.277 0 0 0 1.183-.317c.855-.399 1.406-.94 1.813-1.78a3.21 3.21 0 0 0 .356-1.255 3.648 3.648 0 0 0-.317-1.913c-.44-.942-1.128-1.585-2.107-1.967-.441-.173-1.171-.26-1.698-.203m.979 1.541c.376.097.697.287 1.006.597.456.456.66.944.66 1.58 0 .636-.204 1.124-.66 1.58-.456.456-.944.66-1.58.66-.636 0-1.124-.204-1.58-.66-.456-.456-.66-.944-.66-1.58 0-.636.204-1.124.66-1.58.459-.458.916-.652 1.554-.657.203-.002.46.024.6.06m-9.769 1.456c-.615.151-.744.984-.209 1.348.181.124.404.141 1.584.126 1.118-.014 1.169-.023 1.365-.239.142-.157.188-.283.188-.514 0-.231-.046-.357-.188-.514-.199-.22-.236-.225-1.465-.233-.627-.004-1.201.007-1.275.026m16 0c-.615.151-.744.984-.209 1.348.181.124.404.141 1.584.126 1.118-.014 1.169-.023 1.365-.239.142-.157.188-.283.188-.514 0-.231-.046-.357-.188-.514-.199-.22-.236-.225-1.465-.233-.627-.004-1.201.007-1.275.026M6.9 16.259a1.795 1.795 0 0 1-.16.04c-.087.019-.426.331-1.233 1.134-.612.609-1.141 1.161-1.176 1.227-.077.145-.084.522-.013.66a.849.849 0 0 0 .342.35c.156.082.526.081.68-.001.146-.077 2.271-2.208 2.342-2.349.066-.129.066-.512 0-.64a.852.852 0 0 0-.322-.339c-.106-.055-.393-.106-.46-.082m10 0a1.438 1.438 0 0 1-.147.037c-.139.031-.339.201-.421.359-.078.15-.086.525-.014.665.071.141 2.196 2.272 2.342 2.349.154.082.524.083.68.001a.849.849 0 0 0 .342-.35c.066-.128.066-.511 0-.64-.066-.13-2.191-2.269-2.322-2.338-.105-.055-.392-.107-.46-.083m-5.095 2.02c-.291.071-.505.327-.546.653-.014.114-.019.676-.012 1.248.011.876.023 1.059.079 1.16a.89.89 0 0 0 .354.342c.14.072.514.064.665-.014.153-.08.325-.277.365-.421.017-.059.03-.62.03-1.247 0-.627-.013-1.188-.03-1.247a.833.833 0 0 0-.345-.41.949.949 0 0 0-.56-.064" fill-rule="evenodd" fill="#000"/></svg>