<svg width="24" height="24" fill="none" xmlns="http://www.w3.org/2000/svg"><path d="M16.34 2.427a.696.696 0 0 0-.344.341.787.787 0 0 0 .001.664c.043.081.448.517.9.968l.823.819-.529.53-.529.53-.841-.837c-.535-.533-.895-.86-.99-.9a.762.762 0 0 0-.623.015c-.226.118-9.47 9.386-9.547 9.572-.12.292-.061.572.18.846l.132.15-.822.827c-.452.456-.851.886-.886.956-.089.176-.083.5.012.684.043.081.286.355.54.608l.463.459-.838.841c-.866.867-.963.997-.961 1.289.001.173.112.439.225.539a.918.918 0 0 0 .514.192c.283 0 .419-.102 1.28-.962l.841-.838.459.463c.253.254.527.497.608.54.184.095.508.101.684.012.07-.035.5-.434.956-.886l.827-.822.15.132c.274.241.554.3.846.18.186-.077 9.454-9.321 9.572-9.547a.762.762 0 0 0 .015-.623c-.04-.095-.367-.455-.9-.99l-.837-.841.53-.529.53-.529.819.823c.451.452.887.857.968.9a.847.847 0 0 0 .332.077c.537 0 .886-.53.679-1.031-.085-.206-4.373-4.506-4.599-4.612-.195-.092-.478-.096-.64-.01M13.65 13.53 9.58 17.6l-1.59-1.59-1.59-1.59 4.07-4.07 4.07-4.07 1.59 1.59 1.59 1.59-4.07 4.07m-6.71 3.55.879.88-.529.53-.53.53-.89-.89-.889-.89.519-.52a9.5 9.5 0 0 1 .54-.52c.011 0 .416.396.9.88" fill-rule="evenodd" fill="#000"/></svg>