<svg width="24" height="24" fill="none" xmlns="http://www.w3.org/2000/svg"><path d="M7.9 5.259a1.795 1.795 0 0 1-.16.04c-.09.02-.893.797-3.233 3.134-1.712 1.709-3.141 3.161-3.176 3.227-.083.155-.083.525 0 .68.035.066 1.464 1.518 3.176 3.227 2.203 2.2 3.148 3.117 3.233 3.14.151.041 13.361.044 13.507.003.142-.04.34-.21.424-.365.064-.117.069-.544.069-6.305 0-3.399-.013-6.228-.03-6.287-.04-.142-.21-.34-.365-.424-.116-.064-.578-.069-6.765-.076a869.785 869.785 0 0 0-6.68.006M20.24 12v5.24H8.3l-2.62-2.62L3.06 12l2.62-2.62L8.3 6.76h11.94V12M9.617 9.283a2.79 2.79 0 0 0-1.042.362c-.29.173-.757.64-.93.93a2.846 2.846 0 0 0 0 2.85c.173.29.64.757.93.93.852.51 1.998.51 2.85 0 .29-.173.757-.64.93-.93.495-.827.51-1.982.035-2.792-.569-.971-1.629-1.487-2.773-1.35m.837 1.558c.29.109.596.415.705.705.176.471.068.975-.285 1.328-.781.781-2.114.23-2.114-.874 0-.342.12-.629.366-.874a1.236 1.236 0 0 1 1.328-.285" fill-rule="evenodd" fill="#000"/></svg>