<svg width="24" height="24" fill="none" xmlns="http://www.w3.org/2000/svg"><path d="M10.617 2.283c-.583.069-1.098.328-1.552.782-.502.501-.721.977-.794 1.722l-.044.45-2.224.011c-2.417.013-2.337.006-2.548.238-.142.157-.188.283-.188.514 0 .231.046.357.188.514.183.202.277.223 1.054.239l.728.015.013 5.846c.013 6.513-.009 5.999.289 6.606a2.838 2.838 0 0 0 1.781 1.45c.241.065.586.07 4.68.07 4.094 0 4.439-.005 4.68-.07a2.838 2.838 0 0 0 1.781-1.45c.298-.607.276-.093.289-6.606l.013-5.846.728-.015c.777-.016.871-.037 1.054-.239.142-.157.188-.283.188-.514 0-.231-.046-.357-.188-.514-.211-.232-.131-.225-2.548-.238l-2.224-.011-.044-.45c-.073-.745-.292-1.221-.794-1.722-.471-.472-.96-.71-1.606-.784-.41-.047-2.303-.045-2.712.002m2.837 1.558c.459.172.786.655.786 1.161v.238H9.76v-.238c0-.344.12-.63.366-.876.35-.35.408-.361 1.862-.364 1.16-.002 1.264.004 1.466.079m3.786 8.657c0 5.669-.001 5.742-.081 5.956-.109.29-.415.596-.705.705-.213.08-.294.081-4.454.081s-4.241-.001-4.454-.081a1.342 1.342 0 0 1-.705-.705c-.08-.214-.081-.287-.081-5.956V6.76h10.48v5.738M9.805 9.279c-.291.071-.506.328-.545.653-.013.114-.019 1.576-.012 3.248.011 2.739.019 3.052.078 3.16a.89.89 0 0 0 .354.342c.14.072.514.064.665-.014.153-.08.325-.277.365-.421.039-.14.039-6.354 0-6.494a.833.833 0 0 0-.345-.41.949.949 0 0 0-.56-.064m4 0c-.291.071-.506.328-.545.653-.013.114-.019 1.576-.012 3.248.011 2.739.019 3.052.078 3.16a.89.89 0 0 0 .354.342c.14.072.514.064.665-.014.153-.08.325-.277.365-.421.039-.14.039-6.354 0-6.494a.833.833 0 0 0-.345-.41.949.949 0 0 0-.56-.064" fill-rule="evenodd" fill="#000"/></svg>