<svg width="24" height="24" fill="none" xmlns="http://www.w3.org/2000/svg"><path d="M2.9 6.259a1.438 1.438 0 0 1-.147.037c-.139.031-.339.201-.421.359-.084.161-.084.528-.001.685.035.066 1.464 1.518 3.176 3.228 2.252 2.247 3.146 3.116 3.233 3.138a1.2 1.2 0 0 0 .52 0c.085-.022.642-.552 1.93-1.838L13 10.061l3.08 3.079 3.08 3.08-2.19.02c-1.754.016-2.21.031-2.29.075a.88.88 0 0 0-.35.345c-.082.157-.081.525.002.685.08.153.277.325.421.365.059.017 1.538.03 3.287.03 2.928 0 3.19-.005 3.305-.069.155-.084.325-.282.365-.424.039-.14.039-6.354 0-6.494-.04-.144-.212-.341-.365-.421-.151-.078-.525-.086-.665-.014a.89.89 0 0 0-.354.342c-.059.107-.067.362-.078 2.318l-.011 2.198-3.429-3.426c-2.486-2.484-3.461-3.434-3.548-3.456a1.2 1.2 0 0 0-.52 0c-.085.022-.642.552-1.93 1.838L9 11.939 6.21 9.154C4.675 7.622 3.384 6.351 3.34 6.329c-.092-.045-.38-.091-.44-.07" fill-rule="evenodd" fill="#000"/></svg>