<svg width="24" height="24" fill="none" xmlns="http://www.w3.org/2000/svg"><path d="M11.9 2.259a1.438 1.438 0 0 1-.147.037c-.137.031-.339.2-.416.35a1.319 1.319 0 0 0-.084.374l-.024.257-.185.025c-1.158.156-1.991.404-2.944.877A8.587 8.587 0 0 0 4.161 8.14c-.576 1.178-.864 2.33-.89 3.566l-.011.526.12.171a.753.753 0 0 0 .628.332c.165 0 .321-.063 1.092-.446l.9-.447.893.444c1.178.584 1.036.584 2.214-.001l.894-.444.619.309.618.308.011 4.381c.012 4.686.001 4.449.206 4.675.136.15.308.219.545.219.237 0 .409-.069.545-.219.205-.226.194.011.206-4.675l.011-4.381.618-.308.619-.309.894.444c1.178.585 1.036.585 2.214.001l.893-.444.9.447c.771.383.927.446 1.092.446a.753.753 0 0 0 .628-.332l.12-.17-.011-.525c-.024-1.232-.326-2.431-.908-3.608A8.613 8.613 0 0 0 15.9 4.179c-.965-.476-1.787-.721-2.944-.877l-.185-.025-.024-.258c-.033-.35-.15-.556-.387-.678-.106-.055-.393-.106-.46-.082m1.191 2.58A7.287 7.287 0 0 1 18.51 8.82c.231.462.61 1.597.61 1.828 0 .056-.088.026-.463-.157-.672-.328-.646-.332-1.757.22l-.9.447-.9-.447c-.785-.39-.924-.446-1.1-.446-.176 0-.315.056-1.1.446l-.9.447-.893-.443c-1.18-.587-1.034-.586-2.208-.004L8 11.158l-.893-.443c-1.114-.553-1.095-.551-1.764-.224-.376.183-.463.213-.463.157 0-.121.194-.795.344-1.197.369-.988.9-1.812 1.658-2.569C7.981 5.783 9.308 5.105 10.88 4.84c.605-.102 1.581-.103 2.211-.001" fill-rule="evenodd" fill="#000"/></svg>