<svg width="24" height="24" viewBox="0 0 24 24" fill="none" xmlns="http://www.w3.org/2000/svg">
<path d="M20.9532 13V12.995M19 7.4C19.2608 6.58858 20.0366 6 20.9531 6C22.0836 6 23 6.89543 23 8C23 9.60675 21.2825 8.81678 21 10.5M8 15H16C18.2091 15 20 16.7909 20 19V21H4V19C4 16.7909 5.79086 15 8 15ZM16 7C16 9.20914 14.2091 11 12 11C9.79086 11 8 9.20914 8 7C8 4.79086 9.79086 3 12 3C14.2091 3 16 4.79086 16 7Z" stroke="#001A72" stroke-width="1.5" stroke-linecap="round" stroke-linejoin="round"/>
</svg>
