<svg width="24" height="24" fill="none" xmlns="http://www.w3.org/2000/svg"><path d="M11.544 2.283c-1.97.174-3.645 1.614-4.145 3.562-.222.868-.158 1.997.161 2.828a4.796 4.796 0 0 0 3.285 2.928c.672.172 1.638.172 2.31 0a4.796 4.796 0 0 0 3.285-2.928c.389-1.014.389-2.332 0-3.346a4.797 4.797 0 0 0-3.284-2.928c-.244-.062-1.152-.175-1.236-.153-.011.003-.18.019-.376.037m1.111 1.535c.643.123 1.098.376 1.625.902.677.677.96 1.349.96 2.28 0 .931-.283 1.603-.96 2.28-.677.677-1.349.96-2.28.96-.931 0-1.603-.283-2.28-.96-.682-.682-.96-1.348-.96-2.301 0-.912.286-1.585.96-2.259.515-.515.98-.777 1.594-.9.36-.071.974-.072 1.341-.002m6.017 4.099c-.335.107-.55.247-.815.532-.409.438-.586.925-.588 1.611-.001.605.135 1.043.48 1.549.432.635 1.288 1.328 2.195 1.778.337.167.421.193.632.193.213 0 .293-.025.624-.194 1.449-.74 2.382-1.708 2.621-2.721.074-.312.074-.848.001-1.194-.136-.642-.558-1.19-1.123-1.458-.284-.135-.347-.149-.738-.165-.538-.022-.948.089-1.323.357-.048.035-.107.016-.272-.085a2.336 2.336 0 0 0-.452-.205c-.322-.1-.925-.099-1.242.002m.831 1.444c.06.023.206.131.326.24.263.241.553.342.862.301.251-.033.43-.125.702-.359.118-.101.258-.194.313-.208a.587.587 0 0 1 .481.112c.124.117.227.473.204.711-.052.546-.603 1.164-1.528 1.713l-.276.164-.164-.083c-.571-.29-1.312-.931-1.524-1.32-.162-.298-.188-.746-.058-1.013.127-.264.384-.363.662-.258M7.544 14.283a4.739 4.739 0 0 0-3.702 2.444c-.502.931-.619 1.613-.595 3.473.011.871.023 1.038.082 1.145.084.155.282.325.424.365.14.039 16.354.039 16.494 0 .142-.04.34-.21.424-.365.059-.107.071-.274.082-1.145.023-1.782-.083-2.463-.519-3.333a4.789 4.789 0 0 0-1.961-2.025 4.491 4.491 0 0 0-1.877-.561c-.537-.047-8.313-.046-8.852.002m9.111 1.535c.643.123 1.098.376 1.625.902.391.391.576.659.746 1.08.167.412.214.776.214 1.644v.796H4.76v-.817c0-.88.042-1.198.216-1.63.168-.414.354-.683.744-1.073.515-.515.98-.777 1.594-.9.411-.081 8.915-.084 9.341-.002" fill-rule="evenodd" fill="#000"/></svg>