<svg width="24" height="24" fill="none" xmlns="http://www.w3.org/2000/svg"><path d="M11.544 2.283c-1.97.174-3.645 1.614-4.145 3.562-.222.868-.158 1.997.161 2.828a4.796 4.796 0 0 0 3.285 2.928c.672.172 1.638.172 2.31 0a4.796 4.796 0 0 0 3.285-2.928c.389-1.014.389-2.332 0-3.346a4.797 4.797 0 0 0-3.284-2.928c-.244-.062-1.152-.175-1.236-.153-.011.003-.18.019-.376.037m1.111 1.535c.643.123 1.098.376 1.625.902.677.677.96 1.349.96 2.28 0 .931-.283 1.603-.96 2.28-.677.677-1.349.96-2.28.96-.931 0-1.603-.283-2.28-.96-.682-.682-.96-1.348-.96-2.301 0-.912.286-1.585.96-2.259.515-.515.98-.777 1.594-.9.36-.071.974-.072 1.341-.002m7.065 3.987c-.129.051-.309.223-.394.375-.055.1-.068.278-.079 1.087l-.013.967-.967.013c-1.052.014-1.089.022-1.314.259a.72.72 0 0 0 0 .988c.225.237.262.245 1.314.259l.967.013.013.967c.014 1.052.022 1.089.259 1.314a.667.667 0 0 0 .494.193.667.667 0 0 0 .494-.193c.237-.225.245-.262.259-1.314l.013-.967.967-.013c1.052-.014 1.089-.022 1.314-.259A.667.667 0 0 0 23.24 11a.667.667 0 0 0-.193-.494c-.225-.237-.262-.245-1.314-.259l-.967-.013-.013-.967c-.011-.809-.024-.987-.079-1.087-.088-.159-.267-.325-.407-.377a.952.952 0 0 0-.547.002M7.544 14.283a4.739 4.739 0 0 0-3.702 2.444c-.502.931-.619 1.613-.595 3.473.011.871.023 1.038.082 1.145.084.155.282.325.424.365.14.039 16.354.039 16.494 0 .142-.04.34-.21.424-.365.059-.107.071-.274.082-1.145.023-1.782-.083-2.463-.519-3.333a4.789 4.789 0 0 0-1.961-2.025 4.491 4.491 0 0 0-1.877-.561c-.537-.047-8.313-.046-8.852.002m9.111 1.535c.643.123 1.098.376 1.625.902.391.391.576.659.746 1.08.167.412.214.776.214 1.644v.796H4.76v-.817c0-.88.042-1.198.216-1.63.168-.414.354-.683.744-1.073.515-.515.98-.777 1.594-.9.411-.081 8.915-.084 9.341-.002" fill-rule="evenodd" fill="#000"/></svg>