<svg width="24" height="24" fill="none" xmlns="http://www.w3.org/2000/svg"><path d="M11.595 4.282a3.765 3.765 0 0 0-2.564 1.437c-.238.313-.563.968-.649 1.306a4.254 4.254 0 0 0 0 1.95c.086.338.411.993.649 1.306.366.482.817.837 1.421 1.119.398.186.702.268 1.183.317a3.648 3.648 0 0 0 1.913-.317c.855-.399 1.406-.94 1.813-1.78a3.21 3.21 0 0 0 .356-1.255 3.648 3.648 0 0 0-.317-1.913c-.44-.942-1.128-1.585-2.107-1.967-.441-.173-1.171-.26-1.698-.203M5.5 4.567a3.785 3.785 0 0 0-2.164 2.639c-.085.39-.085 1.198 0 1.588a3.767 3.767 0 0 0 2.178 2.641c.365.155.632.165.865.034a.767.767 0 0 0 .342-.827c-.068-.251-.219-.392-.637-.594C5.248 9.643 4.76 8.889 4.76 8c0-.616.215-1.132.659-1.579.224-.226.358-.321.665-.469.418-.202.569-.343.637-.594.051-.192.022-.371-.095-.58C6.428 4.425 6 4.345 5.5 4.567m12.121-.036a.767.767 0 0 0-.342.827c.068.251.219.392.637.594 1.452.703 1.782 2.501.665 3.627a1.998 1.998 0 0 1-.665.469c-.418.202-.569.343-.637.594a.767.767 0 0 0 .342.827c.233.131.5.121.865-.034a3.767 3.767 0 0 0 2.178-2.641c.085-.39.085-1.198 0-1.588a3.78 3.78 0 0 0-2.171-2.641c-.358-.156-.637-.167-.872-.034m-5.047 1.292c.376.097.697.287 1.006.597.456.456.66.944.66 1.58 0 .636-.204 1.124-.66 1.58-.456.456-.944.66-1.58.66-.636 0-1.124-.204-1.58-.66-.456-.456-.66-.944-.66-1.58 0-.636.204-1.124.66-1.58.459-.458.916-.652 1.554-.657.203-.002.46.024.6.06m-3.03 7.46c-1.971.174-3.645 1.614-4.146 3.565-.168.658-.211 2.226-.067 2.497.081.154.279.325.422.365.14.039 12.354.039 12.494 0 .143-.04.341-.211.422-.365.144-.271.101-1.839-.067-2.497a4.796 4.796 0 0 0-2.929-3.288 4.789 4.789 0 0 0-1.277-.279c-.526-.047-4.322-.045-4.852.002M3.7 13.44C2.151 13.843.807 15.213.404 16.8c-.175.691-.221 2.267-.073 2.545.081.154.279.325.422.365.139.039 2.355.039 2.494 0 .144-.04.341-.212.421-.365.078-.151.086-.525.014-.665a.88.88 0 0 0-.342-.353c-.095-.052-.271-.068-.85-.08l-.73-.015v-.326a3.23 3.23 0 0 1 .524-1.693c.19-.28.622-.719.876-.892.307-.209.493-.298.882-.424.401-.129.604-.301.677-.575.088-.324-.069-.695-.352-.837-.228-.114-.365-.123-.667-.045m16.16-.041c-.318.073-.502.253-.581.568-.108.429.128.753.679.93.584.189.95.416 1.366.848.594.618.915 1.375.916 2.161v.326l-.73.015c-.579.012-.755.028-.85.08a.88.88 0 0 0-.342.353c-.072.14-.064.514.014.665.08.153.277.325.421.365.139.039 2.355.039 2.494 0 .143-.04.341-.211.422-.365.148-.277.102-1.852-.073-2.545-.201-.795-.625-1.515-1.273-2.163-.576-.576-1.086-.894-1.811-1.132-.364-.119-.5-.141-.652-.106m-5.205 1.419c.349.067.691.197 1.016.388.295.173.95.828 1.123 1.123.293.499.446 1.053.446 1.615v.296H6.76v-.317c0-.549.152-1.094.446-1.594.173-.295.828-.95 1.123-1.123a3.43 3.43 0 0 1 .959-.383c.379-.083 4.938-.087 5.367-.005" fill-rule="evenodd" fill="#000"/></svg>