<svg width="24" height="24" fill="none" xmlns="http://www.w3.org/2000/svg"><path d="M8.544 2.283c-1.97.174-3.645 1.614-4.145 3.562-.222.868-.158 1.997.161 2.828a4.796 4.796 0 0 0 3.285 2.928c.672.172 1.638.172 2.31 0a4.796 4.796 0 0 0 3.285-2.928c.389-1.014.389-2.332 0-3.346a4.797 4.797 0 0 0-3.284-2.928c-.244-.062-1.152-.175-1.236-.153-.011.003-.18.019-.376.037m7.316.115c-.319.075-.502.254-.581.569-.108.429.128.753.679.93.584.189.95.416 1.366.848.623.648.915 1.369.915 2.255 0 .886-.292 1.607-.915 2.255-.416.432-.782.659-1.366.848-.551.177-.787.501-.679.93.123.488.527.676 1.096.51 1.271-.369 2.409-1.381 2.974-2.643.517-1.155.518-2.639.001-3.8-.471-1.059-1.41-2.004-2.423-2.437-.517-.221-.875-.31-1.067-.265m-6.205 1.42c.643.123 1.098.376 1.625.902.677.677.96 1.349.96 2.28 0 .931-.283 1.603-.96 2.28-.677.677-1.349.96-2.28.96-.931 0-1.603-.283-2.28-.96-.682-.682-.96-1.348-.96-2.301 0-.912.286-1.585.96-2.259.515-.515.98-.777 1.594-.9.36-.071.974-.072 1.341-.002M4.544 14.283a4.739 4.739 0 0 0-3.702 2.444C.34 17.658.223 18.34.247 20.2c.011.871.023 1.038.082 1.145.084.155.282.325.424.365.14.039 16.354.039 16.494 0 .142-.04.34-.21.424-.365.059-.107.071-.274.082-1.145.023-1.782-.083-2.463-.519-3.333a4.789 4.789 0 0 0-1.961-2.025 4.491 4.491 0 0 0-1.877-.561c-.537-.047-8.313-.046-8.852.002m14.356-.024a1.438 1.438 0 0 1-.147.037c-.139.031-.339.201-.421.359-.078.151-.086.525-.014.665.158.305.333.394.873.441.509.045.817.119 1.165.281a3.487 3.487 0 0 1 1.67 1.758c.167.412.214.776.214 1.64v.792l-.73.015c-.516.01-.759.03-.83.069a.872.872 0 0 0-.35.344c-.082.157-.081.525.002.685.08.153.277.325.421.365.139.039 2.355.039 2.494 0 .142-.04.34-.21.424-.365.059-.107.071-.274.082-1.145.023-1.782-.083-2.463-.519-3.333a5.033 5.033 0 0 0-1.391-1.664c-.656-.487-1.525-.836-2.243-.902-.514-.047-.661-.056-.7-.042m-5.245 1.559c.643.123 1.098.376 1.625.902.391.391.576.659.746 1.08.167.412.214.776.214 1.644v.796H1.76v-.817c0-.88.042-1.198.216-1.63.168-.414.354-.683.744-1.073.515-.515.98-.777 1.594-.9.411-.081 8.915-.084 9.341-.002" fill-rule="evenodd" fill="#000"/></svg>