<svg width="24" height="24" fill="none" xmlns="http://www.w3.org/2000/svg"><path d="M4.256 4.282c-.625.082-1.092.316-1.558.777-.493.489-.791 1.055-.895 1.701-.058.359-.058 10.121 0 10.48.146.906.766 1.786 1.543 2.19.647.337-.105.31 8.654.31 7.304 0 7.797-.004 8.055-.071 1.068-.274 1.957-1.282 2.142-2.429.058-.359.058-10.121 0-10.48-.146-.905-.767-1.786-1.542-2.19-.644-.335.116-.307-8.495-.314-4.213-.004-7.77.008-7.904.026m15.571 1.564c.266.099.593.4.732.671.135.266.2.655.2 1.213l.001.51-3.37.001c-3.354 0-3.88.018-4.365.142-.737.19-1.524.717-1.994 1.336-.238.313-.563.968-.649 1.306-.152.6-.151 1.357.001 1.95.19.737.717 1.524 1.336 1.994.313.238.968.563 1.306.649.49.123 1.018.141 4.365.141l3.37.001-.001.51c0 .558-.065.947-.2 1.213-.139.271-.466.572-.732.671l-.23.086H4.403l-.23-.086c-.266-.099-.593-.4-.732-.671-.201-.395-.2-.36-.2-5.483 0-5.123-.001-5.088.2-5.483.135-.263.467-.572.72-.669l.219-.084 7.608-.002 7.609-.002.23.086M20.76 12v2.24h-3.544c-3.91 0-3.781.008-4.276-.253a2.716 2.716 0 0 1-.52-.407c-.456-.456-.66-.944-.66-1.58 0-.636.204-1.124.66-1.58.306-.306.59-.479.96-.585.219-.063.555-.07 3.81-.072l3.57-.003V12m-6.86-.741a1.438 1.438 0 0 1-.147.037c-.139.031-.339.201-.421.359-.083.16-.084.528-.002.685.124.239.414.42.67.42.256 0 .546-.181.67-.42.076-.146.083-.523.012-.66a.852.852 0 0 0-.322-.339c-.106-.055-.393-.106-.46-.082" fill-rule="evenodd" fill="#000"/></svg>