<svg width="24" height="24" fill="none" xmlns="http://www.w3.org/2000/svg"><path d="M8.805 2.279c-.291.071-.505.327-.546.653-.014.114-.019.676-.012 1.248.011.876.023 1.059.079 1.16a.89.89 0 0 0 .354.342c.14.072.514.064.665-.014.153-.08.325-.277.365-.421.017-.059.03-.62.03-1.247 0-.627-.013-1.188-.03-1.247a.833.833 0 0 0-.345-.41.949.949 0 0 0-.56-.064M4.06 3.707a.696.696 0 0 0-.344.341.787.787 0 0 0 .001.664c.096.183 2.294 2.376 2.471 2.464.254.127.673.048.857-.162.196-.223.253-.582.131-.826-.088-.177-2.281-2.375-2.464-2.471-.181-.094-.485-.099-.652-.01m9.24-.001c-.175.091-2.372 2.287-2.463 2.462-.14.27-.07.685.149.877.223.196.582.253.826.131.177-.088 2.375-2.281 2.471-2.464.14-.27.07-.685-.149-.877-.222-.195-.596-.253-.834-.129M2.805 8.279c-.615.151-.744.984-.209 1.348.181.124.404.141 1.584.126 1.118-.014 1.169-.023 1.365-.239.142-.157.188-.283.188-.514 0-.231-.046-.357-.188-.514-.199-.22-.236-.225-1.465-.233-.627-.004-1.201.007-1.275.026m10 0c-.615.151-.744.984-.209 1.348.181.124.404.141 1.584.126 1.118-.014 1.169-.023 1.365-.239.142-.157.188-.283.188-.514 0-.231-.046-.357-.188-.514-.199-.22-.236-.225-1.465-.233-.627-.004-1.201.007-1.275.026M6.18 10.826c-.175.091-2.372 2.287-2.463 2.462-.14.27-.07.685.149.877.223.196.582.253.826.131.177-.088 2.375-2.281 2.471-2.464.14-.27.07-.685-.149-.877-.222-.195-.596-.253-.834-.129m5.72.433a1.438 1.438 0 0 1-.147.037c-.138.031-.339.201-.419.355-.069.134-.089.424-.041.609.023.087 1.177 1.267 4.139 4.233 2.26 2.262 4.162 4.141 4.228 4.176.154.082.524.083.68.001a.847.847 0 0 0 .339-.345c.058-.112.072-.414.028-.585-.023-.087-1.177-1.267-4.139-4.233-2.26-2.262-4.153-4.136-4.208-4.165-.105-.055-.392-.107-.46-.083m-3.095 1.02c-.291.071-.505.327-.546.653-.014.114-.019.676-.012 1.248.011.876.023 1.059.079 1.16a.89.89 0 0 0 .354.342c.14.072.514.064.665-.014.153-.08.325-.277.365-.421.017-.059.03-.62.03-1.247 0-.627-.013-1.188-.03-1.247a.833.833 0 0 0-.345-.41.949.949 0 0 0-.56-.064" fill-rule="evenodd" fill="#000"/></svg>