<svg width="24" height="24" fill="none" xmlns="http://www.w3.org/2000/svg"><path d="M11.805 4.279c-.291.071-.506.328-.544.653-.014.114-.02 2.701-.013 5.748.01 4.609.021 5.557.067 5.64a.88.88 0 0 0 .345.35c.157.082.525.081.685-.002.153-.08.325-.277.365-.421.039-.14.039-11.354 0-11.494a.833.833 0 0 0-.345-.41.949.949 0 0 0-.56-.064m-.085 14.025c-.301.13-.453.363-.453.696-.001.446.287.733.733.733a.712.712 0 0 0 .682-.413c.071-.137.064-.514-.012-.66-.182-.348-.603-.507-.95-.356" fill-rule="evenodd" fill="#000"/></svg>