<svg width="24" height="24" fill="none" xmlns="http://www.w3.org/2000/svg"><path d="M11.805 6.279c-.291.071-.506.328-.545.653-.013.114-.019 1.801-.012 3.748.011 3.205.018 3.551.078 3.66a.89.89 0 0 0 .354.342c.14.072.514.064.665-.014.153-.08.325-.277.365-.421.039-.14.039-7.354 0-7.494a.833.833 0 0 0-.345-.41.949.949 0 0 0-.56-.064m-.085 10.025c-.301.13-.453.363-.453.696-.001.446.287.733.733.733a.712.712 0 0 0 .682-.413c.071-.137.064-.514-.012-.66-.182-.348-.603-.507-.95-.356" fill-rule="evenodd" fill="#000"/></svg>