<svg width="24" height="24" fill="none" xmlns="http://www.w3.org/2000/svg"><path d="M11.225 4.284a12.738 12.738 0 0 0-7.942 3.37c-.417.385-.892.892-.967 1.034a.897.897 0 0 0-.049.32c0 .425.304.725.735.725.298 0 .344-.031.958-.644A11.13 11.13 0 0 1 8.3 6.367 11.033 11.033 0 0 1 12 5.76c3.074 0 5.866 1.156 8.04 3.329.614.613.66.644.958.644.431 0 .735-.3.735-.725 0-.28-.028-.336-.369-.709-1.569-1.721-3.868-3.075-6.213-3.657a13.419 13.419 0 0 0-3.926-.358m.095 3.998c-1.955.119-3.858.856-5.46 2.115-.401.315-1.092.992-1.226 1.201-.308.481.024 1.129.582 1.137.299.004.381-.046.913-.56.285-.276.701-.637.925-.802a8.359 8.359 0 0 1 7.66-1.166c1.218.419 2.168 1.011 3.16 1.97.529.512.611.562.91.558.558-.008.89-.656.582-1.137-.133-.207-.82-.881-1.226-1.203a10.042 10.042 0 0 0-4.546-2.014c-.343-.056-1.484-.147-1.694-.134l-.58.035m.28 3.984A6.8 6.8 0 0 0 7.234 14.2c-.193.188-.378.409-.412.49-.194.464.072.949.573 1.044.254.049.43-.037.8-.387.593-.561 1.066-.884 1.685-1.151a5.333 5.333 0 0 1 4.24 0c.619.267 1.092.59 1.685 1.151.37.35.546.436.8.387.384-.073.635-.365.635-.738 0-.317-.2-.591-.809-1.106-1.213-1.025-2.591-1.559-4.191-1.622a8.064 8.064 0 0 0-.64-.002m.101 4.019c-.333.048-.64.213-.921.495-.415.414-.578.905-.496 1.49.051.363.206.661.496.95.289.29.587.445.95.496.353.05.747-.007 1.03-.146.282-.14.67-.528.81-.81.217-.44.217-1.085-.001-1.517-.354-.703-1.076-1.074-1.868-.958m.466 1.541c.152.138.045.414-.16.414a.243.243 0 0 1-.181-.407c.083-.091.244-.094.341-.007" fill-rule="evenodd" fill="#000"/></svg>