<svg width="24" height="24" viewBox="0 0 24 24" fill="none" xmlns="http://www.w3.org/2000/svg">
<path d="M16.5 15C15.4006 13.7735 13.792 13 12 13C10.208 13 8.59941 13.7735 7.5 15M18.75 12C17.1009 10.1603 14.6881 9 12 9C9.31194 9 6.89912 10.1603 5.25 12M21 9C18.8012 6.54708 15.5841 5 12 5C8.41592 5 5.19883 6.54708 3 9M13 18C13 18.5523 12.5523 19 12 19C11.4477 19 11 18.5523 11 18C11 17.4477 11.4477 17 12 17C12.5523 17 13 17.4477 13 18Z" stroke="#001A72" stroke-width="1.5" stroke-linecap="round"/>
</svg>
