<svg width="24" height="24" viewBox="0 0 24 24" fill="none" xmlns="http://www.w3.org/2000/svg">
<path fill-rule="evenodd" clip-rule="evenodd" d="M6.53033 2.46967C6.82322 2.76256 6.82322 3.23744 6.53033 3.53033L3.53033 6.53033C3.23744 6.82322 2.76256 6.82322 2.46967 6.53033C2.17678 6.23744 2.17678 5.76256 2.46967 5.46967L5.46967 2.46967C5.76256 2.17678 6.23744 2.17678 6.53033 2.46967ZM17.4697 2.46967C17.7626 2.17678 18.2374 2.17678 18.5303 2.46967L21.5303 5.46967C21.8232 5.76256 21.8232 6.23744 21.5303 6.53033C21.2374 6.82322 20.7626 6.82322 20.4697 6.53033L17.4697 3.53033C17.1768 3.23744 17.1768 2.76256 17.4697 2.46967ZM12 5.75C7.99594 5.75 4.75 8.99594 4.75 13C4.75 17.0041 7.99594 20.25 12 20.25C16.0041 20.25 19.25 17.0041 19.25 13C19.25 8.99594 16.0041 5.75 12 5.75ZM3.25 13C3.25 8.16751 7.16751 4.25 12 4.25C16.8325 4.25 20.75 8.16751 20.75 13C20.75 17.8325 16.8325 21.75 12 21.75C7.16751 21.75 3.25 17.8325 3.25 13ZM12 8.25C12.4142 8.25 12.75 8.58579 12.75 9V12.6893L14.5303 14.4697C14.8232 14.7626 14.8232 15.2374 14.5303 15.5303C14.2374 15.8232 13.7626 15.8232 13.4697 15.5303L11.4697 13.5303C11.329 13.3897 11.25 13.1989 11.25 13V9C11.25 8.58579 11.5858 8.25 12 8.25Z" fill="black"/>
</svg>
