<svg width="24" height="24" viewBox="0 0 24 24" fill="none" xmlns="http://www.w3.org/2000/svg">
<path fill-rule="evenodd" clip-rule="evenodd" d="M12 1.75C12.4142 1.75 12.75 2.08579 12.75 2.5L12.75 6.21353C12.8721 6.17172 12.9993 6.12188 13.1409 6.06639C13.2683 6.01645 13.4075 5.96194 13.5651 5.90459C14.2419 5.65829 15.0419 5.48064 16.1622 5.82194L16.1882 5.82985L16.2135 5.83962C19.4835 7.10065 21.2214 10.6733 20.638 13.9468L20.6367 13.9544L20.6352 13.9619C20.0869 16.712 18.7819 19.4402 16.6811 21.1175C16.2559 21.457 15.8187 21.6465 15.3631 21.7173C14.9205 21.7861 14.5034 21.7358 14.1328 21.6625C13.8819 21.6129 13.6573 21.5571 13.4428 21.5039C12.9696 21.3865 12.5461 21.2814 12 21.2814C11.4538 21.2814 11.0304 21.3865 10.5571 21.5039C10.3427 21.5571 10.1181 21.6129 9.86715 21.6625C9.49662 21.7358 9.07944 21.7861 8.63686 21.7173C8.18131 21.6465 7.74407 21.457 7.31887 21.1175C5.21808 19.4402 3.91305 16.712 3.3648 13.9619L3.36331 13.9544L3.36196 13.9468C2.77852 10.6733 4.51648 7.10065 7.78643 5.83962L7.81176 5.82985L7.83773 5.82194C8.95808 5.48064 9.7581 5.65829 10.4349 5.90459C10.5925 5.96194 10.7316 6.01645 10.8591 6.06639C11.0007 6.12188 11.1279 6.17172 11.25 6.21353L11.25 2.5C11.25 2.08579 11.5858 1.75 12 1.75ZM13.8036 7.42086C13.3473 7.60326 12.7323 7.8491 12 7.8491C11.2676 7.8491 10.6527 7.60326 10.1964 7.42086C10.0973 7.38124 10.0057 7.34462 9.92195 7.31415C9.45099 7.14277 9.0025 7.04094 8.30051 7.24912C5.78353 8.23509 4.37299 11.0506 4.83738 13.6762C5.34326 16.2067 6.52068 18.5607 8.2548 19.9453C8.48981 20.133 8.68698 20.2071 8.86726 20.2351C9.06051 20.2651 9.28058 20.2495 9.57595 20.1911C9.70585 20.1653 9.85914 20.1274 10.0311 20.0849C10.557 19.9548 11.2577 19.7814 12 19.7814C12.7423 19.7814 13.443 19.9548 13.9688 20.0849C14.1408 20.1274 14.2941 20.1653 14.424 20.1911C14.7194 20.2495 14.9395 20.2651 15.1327 20.2351C15.313 20.2071 15.5102 20.133 15.7452 19.9453C17.4793 18.5607 18.6567 16.2067 19.1626 13.6763C19.6269 11.0506 18.2164 8.23509 15.6995 7.24912C14.9975 7.04094 14.549 7.14277 14.078 7.31415C13.9943 7.34462 13.9027 7.38124 13.8036 7.42086Z" fill="black"/>
</svg>
