<svg width="24" height="24" viewBox="0 0 24 24" fill="none" xmlns="http://www.w3.org/2000/svg">
<path fill-rule="evenodd" clip-rule="evenodd" d="M9.53034 3.46967C9.82324 3.76256 9.82324 4.23744 9.53034 4.53033L4.81067 9.25H19.1894L14.4697 4.53033C14.1768 4.23744 14.1768 3.76256 14.4697 3.46967C14.7626 3.17678 15.2374 3.17678 15.5303 3.46967L21.5303 9.46967C21.7077 9.64699 21.7846 9.90119 21.7354 10.1471L19.7354 20.1471C19.6653 20.4977 19.3575 20.75 19 20.75H5.00001C4.6425 20.75 4.33469 20.4977 4.26458 20.1471L2.26458 10.1471C2.2154 9.90119 2.29236 9.64699 2.46968 9.46967L8.46968 3.46967C8.76258 3.17678 9.23745 3.17678 9.53034 3.46967ZM20.0852 10.75H3.91487L5.61487 19.25H18.3852L20.0852 10.75Z" fill="black"/>
</svg>
