<svg width="24" height="24" viewBox="0 0 24 24" fill="none" xmlns="http://www.w3.org/2000/svg">
<path fill-rule="evenodd" clip-rule="evenodd" d="M2.46967 2.46967C2.76256 2.17678 3.23744 2.17678 3.53033 2.46967L21.5303 20.4697C21.8232 20.7626 21.8232 21.2374 21.5303 21.5303C21.2374 21.8232 20.7626 21.8232 20.4697 21.5303L2.46967 3.53033C2.17678 3.23744 2.17678 2.76256 2.46967 2.46967ZM8.26876 3.375C9.36666 2.64675 10.6629 2.25 12 2.25C13.7902 2.25 15.5071 2.96116 16.773 4.22703C18.0388 5.4929 18.75 7.20979 18.75 9C18.75 10.6478 19.4169 13.0322 19.9918 14.7637C20.1224 15.1568 19.9095 15.5813 19.5164 15.7118C19.1233 15.8423 18.6988 15.6295 18.5682 15.2363C17.9967 13.5149 17.25 10.919 17.25 9C17.25 7.60761 16.6969 6.27226 15.7123 5.28769C14.7277 4.30312 13.3924 3.75 12 3.75C10.9601 3.75 9.95189 4.05855 9.09791 4.625C8.75273 4.85397 8.28729 4.75975 8.05833 4.41457C7.82937 4.06939 7.92358 3.60396 8.26876 3.375ZM6.01812 9.25222C6.4311 9.28406 6.74009 9.64466 6.70825 10.0576C6.56108 11.9668 6.04957 13.7848 5.58259 15.1138C5.43079 15.5457 5.28269 15.9289 5.15157 16.25H12.5C12.9142 16.25 13.25 16.5858 13.25 17C13.25 17.4142 12.9142 17.75 12.5 17.75H9.75V18C9.75 18.2955 9.8082 18.5881 9.92127 18.861C10.0343 19.134 10.2001 19.3821 10.409 19.591C10.6179 19.7999 10.866 19.9657 11.139 20.0787C11.4119 20.1918 11.7045 20.25 12 20.25C12.2955 20.25 12.5881 20.1918 12.861 20.0787C13.134 19.9657 13.3821 19.7999 13.591 19.591C13.7999 19.3821 13.9657 19.134 14.0787 18.861C14.2372 18.4784 14.676 18.2966 15.0587 18.4551C15.4413 18.6137 15.6231 19.0524 15.4645 19.4351C15.2761 19.89 14.9999 20.3034 14.6517 20.6517C14.3034 20.9999 13.89 21.2761 13.4351 21.4645C12.9801 21.653 12.4925 21.75 12 21.75C11.5075 21.75 11.0199 21.653 10.5649 21.4645C10.11 21.2761 9.69657 20.9999 9.34835 20.6517C9.00013 20.3034 8.72391 19.89 8.53545 19.4351C8.347 18.9801 8.25 18.4925 8.25 18V17.75H4C3.74007 17.75 3.49867 17.6154 3.36201 17.3943C3.2254 17.1733 3.21294 16.8973 3.32907 16.6648L3.33206 16.6588L3.34418 16.634C3.35521 16.6112 3.37202 16.5762 3.39386 16.5297C3.43755 16.4367 3.50131 16.2977 3.57919 16.1188C3.73507 15.7607 3.94688 15.2441 4.16741 14.6165C4.61051 13.3555 5.07924 11.6735 5.21269 9.94235C5.24453 9.52937 5.60513 9.22038 6.01812 9.25222Z" fill="black"/>
</svg>
