<svg width="24" height="24" fill="none" xmlns="http://www.w3.org/2000/svg"><path d="M11.5 2.718c-.515.112-.898.344-1.687 1.022-2.539 2.182-4.477 5.1-5.23 7.874-.375 1.382-.419 2.947-.12 4.266.254 1.121.897 2.362 1.69 3.263.843.957 2.195 1.827 3.467 2.232.241.076.969.245 1.22.283.782.117 1.869.092 2.666-.06.908-.174 1.99-.611 2.164-.874.212-.32.021-.911-.358-1.108-.18-.093-.37-.065-.842.127a6.322 6.322 0 0 1-2.515.497c-1.196 0-2.486-.4-3.535-1.096-.446-.295-1.325-1.162-1.608-1.584a6.419 6.419 0 0 1-.938-2.24c-.079-.365-.091-.536-.092-1.3 0-.689.015-.958.071-1.24.204-1.021.488-1.856.954-2.807.997-2.034 2.395-3.777 4.31-5.371.418-.348.567-.419.883-.419.344 0 .472.071 1.108.612 1.632 1.39 2.999 3.085 3.934 4.879.326.624.468.766.768.765.383-.001.754-.238.833-.53.057-.212.023-.338-.229-.839-.992-1.983-2.608-3.978-4.49-5.545-.79-.657-1.116-.805-1.824-.828a3.696 3.696 0 0 0-.6.021m7.16 10.088a.587.587 0 0 0-.334.294c-.057.103-.068.302-.079 1.388l-.013 1.269-1.267.011c-1.393.013-1.428.019-1.59.26-.161.239-.155.74.012.966.161.218.206.225 1.581.238l1.27.011.002 1.149c.001.631.017 1.226.035 1.322.071.366.271.506.723.506.452 0 .652-.14.723-.506.018-.096.034-.691.035-1.322l.002-1.149 1.27-.011c1.375-.013 1.42-.02 1.581-.238.167-.226.173-.727.012-.966-.162-.241-.196-.247-1.593-.26l-1.27-.011-.002-1.149c-.001-.631-.017-1.226-.035-1.322-.04-.209-.148-.365-.307-.444-.145-.073-.597-.094-.756-.036m-9.873.472a.654.654 0 0 0-.445.324c-.065.111-.078.201-.072.516.026 1.374.955 2.582 2.31 3.001.173.053.443.095.705.109.385.021.444.015.608-.065.235-.113.347-.328.347-.663 0-.444-.256-.74-.643-.74a1.885 1.885 0 0 1-1.33-.538c-.338-.344-.479-.681-.53-1.271-.026-.302-.124-.485-.317-.594-.148-.084-.429-.119-.633-.079" fill-rule="evenodd" fill="#000"/></svg>