<svg width="24" height="24" fill="none" xmlns="http://www.w3.org/2000/svg"><path d="M4.787 2.278a.656.656 0 0 0-.447.326c-.079.135-.08.219-.092 9.176-.007 4.972-.001 9.152.013 9.289.029.288.133.467.339.589.14.082.148.082 7.4.082 7.188 0 7.261-.001 7.396-.08a.652.652 0 0 0 .327-.466c.044-.227.044-18.161 0-18.388a.652.652 0 0 0-.327-.466c-.135-.079-.213-.08-7.296-.086-3.938-.003-7.229.008-7.313.024M18.24 12v8.24H5.76V3.76h12.48V12m-6.973-6.722a.773.773 0 0 0-.26.11c-.231.171-.225.111-.247 2.642l-.02 2.329-1.1-.943C8.388 8.342 8.268 8.251 8.055 8.219c-.306-.047-.704.276-.821.664-.041.138-.037.186.03.349.069.167.244.331 1.557 1.458.813.699 1.479 1.288 1.479 1.31 0 .022-.666.611-1.479 1.31-1.313 1.127-1.488 1.291-1.557 1.458-.067.163-.071.211-.03.349.117.388.515.711.821.664.213-.032.333-.123 1.585-1.197l1.1-.943.021 2.329c.012 1.282.025 2.335.03 2.342l.194.21c.219.233.41.304.65.239.197-.053.078.043 2.171-1.751 1.57-1.344 1.8-1.556 1.89-1.738.231-.463.225-.47-1.533-1.977-.815-.7-1.483-1.282-1.483-1.295 0-.013.655-.585 1.456-1.271 1.268-1.087 1.47-1.275 1.56-1.456.235-.472.266-.436-1.875-2.272-1.004-.862-1.883-1.6-1.953-1.64a.933.933 0 0 0-.601-.083M13.154 8.4c.375.319.681.589.681.6 0 .018-1.193 1.045-1.479 1.273l-.116.093V7.634l.116.093c.064.051.423.354.798.673m0 6c.375.319.681.589.681.6 0 .018-1.193 1.045-1.479 1.273l-.116.093v-2.732l.116.093c.064.051.423.354.798.673" fill-rule="evenodd" fill="#000"/></svg>