<svg width="24" height="24" viewBox="0 0 24 24" fill="none" xmlns="http://www.w3.org/2000/svg">
<path fill-rule="evenodd" clip-rule="evenodd" d="M8.28849 3.76283C8.39058 3.45657 8.67718 3.25 9.00001 3.25H16C16.2489 3.25 16.4815 3.37345 16.6211 3.57953C16.7606 3.78561 16.7888 4.04747 16.6964 4.27854L14.7078 9.25H19C19.3034 9.25 19.5768 9.43273 19.6929 9.71299C19.809 9.99324 19.7448 10.3158 19.5303 10.5303L8.53034 21.5303C8.29196 21.7687 7.92384 21.8187 7.63048 21.6527C7.33713 21.4866 7.19064 21.1451 7.2724 20.8181L9.03942 13.75H6.00001C5.75892 13.75 5.53254 13.6341 5.39157 13.4385C5.25061 13.243 5.21226 12.9915 5.28849 12.7628L8.28849 3.76283ZM9.54058 4.75L7.04058 12.25H10C10.231 12.25 10.449 12.3564 10.5912 12.5384C10.7333 12.7205 10.7836 12.9578 10.7276 13.1819L9.38434 18.555L17.1893 10.75H13.6C13.3511 10.75 13.1185 10.6266 12.979 10.4205C12.8394 10.2144 12.8112 9.95253 12.9036 9.72146L14.8922 4.75H9.54058Z" fill="black"/>
</svg>
