<svg width="24" height="24" viewBox="0 0 24 24" fill="none" xmlns="http://www.w3.org/2000/svg">
<path fill-rule="evenodd" clip-rule="evenodd" d="M12.25 5.5C12.25 3.70507 13.7051 2.25 15.5 2.25C17.2138 2.25 18.6178 3.57652 18.7412 5.25882C20.4235 5.38222 21.75 6.7862 21.75 8.5C21.75 10.2949 20.2949 11.75 18.5 11.75C18.293 11.75 18.0865 11.7391 17.9023 11.7294L17.8863 11.7286C17.6908 11.7183 17.519 11.7096 17.3533 11.7102C17.0216 11.7112 16.7852 11.7507 16.5949 11.8452C15.8744 12.2028 15.2126 12.6766 14.6376 13.2516L13.2517 14.6375C12.6766 15.2126 12.2028 15.8745 11.8452 16.595C11.7507 16.7853 11.7112 17.0217 11.7102 17.3534C11.7097 17.5191 11.7183 17.6909 11.7286 17.8863L11.7294 17.9023C11.7391 18.0865 11.75 18.293 11.75 18.5C11.75 20.2949 10.2949 21.75 8.5 21.75C6.7862 21.75 5.38222 20.4235 5.25882 18.7412C3.57652 18.6178 2.25 17.2138 2.25 15.5C2.25 13.7051 3.70507 12.25 5.5 12.25C5.70699 12.25 5.91355 12.2609 6.09784 12.2706L6.11377 12.2714C6.30925 12.2817 6.48108 12.2904 6.64682 12.2899C6.97859 12.2889 7.21505 12.2493 7.40536 12.1549C8.1258 11.7972 8.7876 11.3234 9.36262 10.7484L10.7485 9.36251C11.3235 8.78756 11.7972 8.12584 12.1548 7.4055C12.2493 7.21517 12.2889 6.9787 12.2899 6.6469C12.2904 6.48115 12.2817 6.30931 12.2714 6.11381L12.2706 6.09794C12.2609 5.91362 12.25 5.70702 12.25 5.5ZM15.5 3.75C14.5335 3.75 13.75 4.5335 13.75 5.5C13.75 5.6665 13.759 5.83861 13.7693 6.03507L13.7694 6.0369C13.7794 6.2257 13.7905 6.43802 13.7899 6.65148C13.7886 7.07948 13.7414 7.58302 13.4984 8.07251C13.0688 8.93772 12.4998 9.73257 11.8092 10.4232L10.4233 11.8091C9.7326 12.4998 8.93765 13.0689 8.07233 13.4984C7.58287 13.7414 7.07937 13.7886 6.6514 13.7899C6.43794 13.7905 6.22562 13.7793 6.03683 13.7694L6.03503 13.7693C5.83859 13.759 5.66649 13.75 5.5 13.75C4.5335 13.75 3.75 14.5335 3.75 15.5C3.75 16.4665 4.5335 17.25 5.5 17.25C5.6368 17.25 5.76903 17.2344 5.89538 17.2053C6.1473 17.1473 6.41137 17.223 6.59418 17.4058C6.77698 17.5886 6.85275 17.8527 6.79468 18.1046C6.76556 18.231 6.75 18.3632 6.75 18.5C6.75 19.4665 7.5335 20.25 8.5 20.25C9.4665 20.25 10.25 19.4665 10.25 18.5C10.25 18.3335 10.241 18.1615 10.2307 17.965L10.2306 17.9633C10.2207 17.7745 10.2095 17.5622 10.2102 17.3488C10.2115 16.9209 10.2586 16.4175 10.5016 15.9281C10.9311 15.0626 11.5003 14.2676 12.191 13.5768L13.5769 12.1909C14.2676 11.5003 15.0626 10.9312 15.9279 10.5016C16.4173 10.2586 16.9208 10.2115 17.3487 10.2102C17.5621 10.2095 17.7745 10.2207 17.9632 10.2306L17.965 10.2307C18.1614 10.241 18.3335 10.25 18.5 10.25C19.4665 10.25 20.25 9.4665 20.25 8.5C20.25 7.5335 19.4665 6.75 18.5 6.75C18.3632 6.75 18.231 6.76556 18.1046 6.79468C17.8527 6.85275 17.5886 6.77698 17.4058 6.59418C17.223 6.41137 17.1473 6.1473 17.2053 5.89538C17.2344 5.76903 17.25 5.6368 17.25 5.5C17.25 4.5335 16.4665 3.75 15.5 3.75Z" fill="black"/>
</svg>
