<svg width="24" height="24" viewBox="0 0 24 24" fill="none" xmlns="http://www.w3.org/2000/svg">
<path fill-rule="evenodd" clip-rule="evenodd" d="M9 2.25C9.41421 2.25 9.75 2.58579 9.75 3V4.25H14.25V3C14.25 2.58579 14.5858 2.25 15 2.25C15.4142 2.25 15.75 2.58579 15.75 3V4.25H18C19.5188 4.25 20.75 5.48122 20.75 7V9C20.75 9.41421 20.4142 9.75 20 9.75C19.5858 9.75 19.25 9.41421 19.25 9V7C19.25 6.30964 18.6904 5.75 18 5.75H15.75V7C15.75 7.41421 15.4142 7.75 15 7.75C14.5858 7.75 14.25 7.41421 14.25 7V5.75H9.75V7C9.75 7.41421 9.41421 7.75 9 7.75C8.58579 7.75 8.25 7.41421 8.25 7V5.75H6C5.30964 5.75 4.75 6.30964 4.75 7V10.25H9C9.41421 10.25 9.75 10.5858 9.75 11C9.75 11.4142 9.41421 11.75 9 11.75H4.75V19C4.75 19.6904 5.30964 20.25 6 20.25H9C9.41421 20.25 9.75 20.5858 9.75 21C9.75 21.4142 9.41421 21.75 9 21.75H6C4.48122 21.75 3.25 20.5188 3.25 19V7C3.25 5.48122 4.48122 4.25 6 4.25H8.25V3C8.25 2.58579 8.58579 2.25 9 2.25ZM17.5873 12.4697C17.8802 12.1768 18.3551 12.1768 18.648 12.4697L20.5303 14.352C20.8232 14.6449 20.8232 15.1198 20.5303 15.4127L14.4127 21.5303C14.272 21.671 14.0813 21.75 13.8824 21.75H12C11.5858 21.75 11.25 21.4142 11.25 21V19.1176C11.25 18.9187 11.329 18.728 11.4697 18.5873L16.1746 13.8824C16.1749 13.8821 16.1752 13.8818 16.1755 13.8814C16.1759 13.8811 16.1762 13.8808 16.1765 13.8805L17.5873 12.4697ZM16.7059 15.4724L12.75 19.4283V20.25H13.5717L17.5276 16.2941L16.7059 15.4724ZM18.5882 15.2335L17.7665 14.4118L18.1176 14.0607L18.9393 14.8824L18.5882 15.2335Z" fill="black"/>
</svg>
