<svg width="24" height="24" viewBox="0 0 24 24" fill="none" xmlns="http://www.w3.org/2000/svg">
<path fill-rule="evenodd" clip-rule="evenodd" d="M9 2.25C9.41421 2.25 9.75 2.58579 9.75 3V4.25H14.25V3C14.25 2.58579 14.5858 2.25 15 2.25C15.4142 2.25 15.75 2.58579 15.75 3V4.25H18C19.5188 4.25 20.75 5.48122 20.75 7V9C20.75 9.41421 20.4142 9.75 20 9.75C19.5858 9.75 19.25 9.41421 19.25 9V7C19.25 6.30964 18.6904 5.75 18 5.75H15.75V7C15.75 7.41421 15.4142 7.75 15 7.75C14.5858 7.75 14.25 7.41421 14.25 7V5.75H9.75V7C9.75 7.41421 9.41421 7.75 9 7.75C8.58579 7.75 8.25 7.41421 8.25 7V5.75H6C5.30964 5.75 4.75 6.30964 4.75 7V10.25H10C10.4142 10.25 10.75 10.5858 10.75 11C10.75 11.4142 10.4142 11.75 10 11.75H4.75V19C4.75 19.6904 5.30964 20.25 6 20.25H10C10.4142 20.25 10.75 20.5858 10.75 21C10.75 21.4142 10.4142 21.75 10 21.75H6C4.48122 21.75 3.25 20.5188 3.25 19V7C3.25 5.48122 4.48122 4.25 6 4.25H8.25V3C8.25 2.58579 8.58579 2.25 9 2.25ZM12.25 17C12.25 16.5858 12.5858 16.25 13 16.25H21C21.4142 16.25 21.75 16.5858 21.75 17C21.75 17.4142 21.4142 17.75 21 17.75H13C12.5858 17.75 12.25 17.4142 12.25 17Z" fill="black"/>
</svg>
