<svg width="24" height="24" viewBox="0 0 24 24" fill="none" xmlns="http://www.w3.org/2000/svg">
<path fill-rule="evenodd" clip-rule="evenodd" d="M9 2.25C9.41421 2.25 9.75 2.58579 9.75 3V4.25H14.25V3C14.25 2.58579 14.5858 2.25 15 2.25C15.4142 2.25 15.75 2.58579 15.75 3V4.25H18C19.5188 4.25 20.75 5.48122 20.75 7V9C20.75 9.41421 20.4142 9.75 20 9.75C19.5858 9.75 19.25 9.41421 19.25 9V7C19.25 6.30964 18.6904 5.75 18 5.75H15.75V7C15.75 7.41421 15.4142 7.75 15 7.75C14.5858 7.75 14.25 7.41421 14.25 7V5.75H9.75V7C9.75 7.41421 9.41421 7.75 9 7.75C8.58579 7.75 8.25 7.41421 8.25 7V5.75H6C5.30964 5.75 4.75 6.30964 4.75 7V10.25H9C9.41421 10.25 9.75 10.5858 9.75 11C9.75 11.4142 9.41421 11.75 9 11.75H4.75V19C4.75 19.6904 5.30964 20.25 6 20.25H8C8.41421 20.25 8.75 20.5858 8.75 21C8.75 21.4142 8.41421 21.75 8 21.75H6C4.48122 21.75 3.25 20.5188 3.25 19V7C3.25 5.48122 4.48122 4.25 6 4.25H8.25V3C8.25 2.58579 8.58579 2.25 9 2.25ZM16 11.75C15.3096 11.75 14.75 12.3096 14.75 13C14.75 13.6904 15.3096 14.25 16 14.25C16.6904 14.25 17.25 13.6904 17.25 13C17.25 12.3096 16.6904 11.75 16 11.75ZM13.25 13C13.25 11.4812 14.4812 10.25 16 10.25C17.5188 10.25 18.75 11.4812 18.75 13C18.75 14.5188 17.5188 15.75 16 15.75C14.4812 15.75 13.25 14.5188 13.25 13ZM11.25 20C11.25 18.4812 12.4812 17.25 14 17.25H18C19.5188 17.25 20.75 18.4812 20.75 20V21C20.75 21.4142 20.4142 21.75 20 21.75C19.5858 21.75 19.25 21.4142 19.25 21V20C19.25 19.3096 18.6904 18.75 18 18.75H14C13.3096 18.75 12.75 19.3096 12.75 20V21C12.75 21.4142 12.4142 21.75 12 21.75C11.5858 21.75 11.25 21.4142 11.25 21V20Z" fill="black"/>
</svg>
