<svg width="24" height="24" viewBox="0 0 24 24" fill="none" xmlns="http://www.w3.org/2000/svg">
<path fill-rule="evenodd" clip-rule="evenodd" d="M2.46967 2.46967C2.76256 2.17678 3.23744 2.17678 3.53033 2.46967L21.5303 20.4697C21.8232 20.7626 21.8232 21.2374 21.5303 21.5303C21.2374 21.8232 20.7626 21.8232 20.4697 21.5303L2.46967 3.53033C2.17678 3.23744 2.17678 2.76256 2.46967 2.46967ZM9.25 5C9.25 4.58579 9.58579 4.25 10 4.25H14.5C15.4665 4.25 16.25 5.0335 16.25 6C16.25 6.13807 16.3619 6.25 16.5 6.25H19C20.5188 6.25 21.75 7.48122 21.75 9V16C21.75 16.4142 21.4142 16.75 21 16.75C20.5858 16.75 20.25 16.4142 20.25 16V9C20.25 8.30964 19.6904 7.75 19 7.75H16.5C15.5335 7.75 14.75 6.9665 14.75 6C14.75 5.86193 14.6381 5.75 14.5 5.75H10C9.58579 5.75 9.25 5.41421 9.25 5ZM3.75 9V17C3.75 17.6904 4.30964 18.25 5 18.25H14C14.4142 18.25 14.75 18.5858 14.75 19C14.75 19.4142 14.4142 19.75 14 19.75H5C3.48122 19.75 2.25 18.5188 2.25 17V9C2.25 8.58579 2.58579 8.25 3 8.25C3.41421 8.25 3.75 8.58579 3.75 9ZM8.93305 12.6094C9.34443 12.561 9.71715 12.8553 9.76555 13.2667C9.88703 14.2991 10.7101 15.119 11.7439 15.2357C12.1555 15.2821 12.4515 15.6534 12.4051 16.065C12.3586 16.4766 11.9873 16.7726 11.5757 16.7262C9.84893 16.5313 8.47871 15.1663 8.27583 13.4419C8.22743 13.0306 8.52168 12.6578 8.93305 12.6094Z" fill="black"/>
</svg>
