<svg width="24" height="24" viewBox="0 0 24 24" fill="none" xmlns="http://www.w3.org/2000/svg">
<path fill-rule="evenodd" clip-rule="evenodd" d="M1.25 3C1.25 2.58579 1.58579 2.25 2 2.25H4.5C4.87324 2.25 5.18968 2.52445 5.24246 2.89393L5.43619 4.25H21C21.2411 4.25 21.4675 4.36589 21.6084 4.56147C21.7494 4.75704 21.7877 5.00846 21.7115 5.23717L18.7115 14.2372C18.6094 14.5434 18.3228 14.75 18 14.75H6.93619L7.15047 16.25H17C18.5188 16.25 19.75 17.4812 19.75 19C19.75 20.5188 18.5188 21.75 17 21.75C15.4812 21.75 14.25 20.5188 14.25 19C14.25 18.5499 14.3581 18.125 14.5499 17.75H11.4501C11.6419 18.125 11.75 18.5499 11.75 19C11.75 20.5188 10.5188 21.75 9 21.75C7.48122 21.75 6.25 20.5188 6.25 19C6.25 18.5499 6.35814 18.125 6.54985 17.75H6.5C6.12676 17.75 5.81032 17.4756 5.75754 17.1061L5.33087 14.1194C5.32955 14.1112 5.32837 14.1029 5.32733 14.0946L4.04515 5.11936C4.04384 5.11116 4.04266 5.10291 4.04162 5.09463L3.84953 3.75H2C1.58579 3.75 1.25 3.41421 1.25 3ZM5.65047 5.75L6.7219 13.25H17.4594L19.9594 5.75H5.65047ZM9 17.75C8.30964 17.75 7.75 18.3096 7.75 19C7.75 19.6904 8.30964 20.25 9 20.25C9.69036 20.25 10.25 19.6904 10.25 19C10.25 18.3096 9.69036 17.75 9 17.75ZM17 17.75C16.3096 17.75 15.75 18.3096 15.75 19C15.75 19.6904 16.3096 20.25 17 20.25C17.6904 20.25 18.25 19.6904 18.25 19C18.25 18.3096 17.6904 17.75 17 17.75Z" fill="black"/>
</svg>
