<svg width="24" height="24" viewBox="0 0 24 24" fill="none" xmlns="http://www.w3.org/2000/svg">
<path fill-rule="evenodd" clip-rule="evenodd" d="M8.64123 3.64124C9.53203 2.75044 10.7402 2.25 12 2.25C13.2598 2.25 14.4679 2.75045 15.3587 3.64124C16.2495 4.53204 16.75 5.74022 16.75 7L16.75 7.25H17.1597C18.59 7.25 19.7815 8.34632 19.9002 9.77163L20.5669 17.7716C20.7005 19.3749 19.4353 20.75 17.8264 20.75H6.17359C4.56473 20.75 3.29948 19.3749 3.43309 17.7716L4.09976 9.77163C4.21853 8.34632 5.41001 7.25 6.84026 7.25H7.24999L7.24999 7C7.24999 5.74022 7.75044 4.53204 8.64123 3.64124ZM7.24999 8.75L7.24999 12C7.24999 12.4142 7.58578 12.75 7.99999 12.75C8.4142 12.75 8.74999 12.4142 8.74999 12L8.74999 8.75H15.25L15.25 12C15.25 12.4142 15.5858 12.75 16 12.75C16.4142 12.75 16.75 12.4142 16.75 12L16.75 8.75H17.1597C17.8098 8.75 18.3514 9.24833 18.4054 9.89619L19.0721 17.8962C19.1328 18.625 18.5577 19.25 17.8264 19.25H6.17359C5.44229 19.25 4.86718 18.625 4.92791 17.8962L5.59458 9.89619C5.64856 9.24833 6.19015 8.75 6.84026 8.75H7.24999ZM15.25 7.25H8.74999L8.74999 7C8.74999 6.13805 9.0924 5.3114 9.70189 4.7019C10.3114 4.09241 11.138 3.75 12 3.75C12.8619 3.75 13.6886 4.09241 14.2981 4.7019C14.9076 5.3114 15.25 6.13805 15.25 7V7.25Z" fill="black"/>
</svg>
