<svg width="24" height="24" viewBox="0 0 24 24" fill="none" xmlns="http://www.w3.org/2000/svg">
<path fill-rule="evenodd" clip-rule="evenodd" d="M5.32918 2.66459C5.45622 2.4105 5.71592 2.25 6 2.25H18C18.2841 2.25 18.5438 2.4105 18.6708 2.66459L20.6708 6.66459C20.7229 6.76873 20.75 6.88357 20.75 7V18C20.75 19.5188 19.5188 20.75 18 20.75H6C4.48122 20.75 3.25 19.5188 3.25 18V7C3.25 6.88357 3.27711 6.76873 3.32918 6.66459L5.32918 2.66459ZM6.46353 3.75L5.21353 6.25H18.7865L17.5365 3.75H6.46353ZM19.25 7.75H4.75V18C4.75 18.6904 5.30964 19.25 6 19.25H18C18.6904 19.25 19.25 18.6904 19.25 18V7.75ZM9 10.25C9.41421 10.25 9.75 10.5858 9.75 11C9.75 12.2426 10.7574 13.25 12 13.25C13.2426 13.25 14.25 12.2426 14.25 11C14.25 10.5858 14.5858 10.25 15 10.25C15.4142 10.25 15.75 10.5858 15.75 11C15.75 13.0711 14.0711 14.75 12 14.75C9.92893 14.75 8.25 13.0711 8.25 11C8.25 10.5858 8.58579 10.25 9 10.25Z" fill="black"/>
</svg>
