<svg width="24" height="24" viewBox="0 0 24 24" fill="none" xmlns="http://www.w3.org/2000/svg">
<path fill-rule="evenodd" clip-rule="evenodd" d="M3.25 4C3.25 3.58579 3.58579 3.25 4 3.25H20C20.4142 3.25 20.75 3.58579 20.75 4V20C20.75 20.4142 20.4142 20.75 20 20.75H4C3.58579 20.75 3.25 20.4142 3.25 20V4ZM4.75 4.75V19.25H19.25V4.75H4.75ZM12 6.25C12.4142 6.25 12.75 6.58579 12.75 7V17C12.75 17.4142 12.4142 17.75 12 17.75C11.5858 17.75 11.25 17.4142 11.25 17L11.25 7C11.25 6.58579 11.5858 6.25 12 6.25ZM16 10.25C16.4142 10.25 16.75 10.5858 16.75 11V17C16.75 17.4142 16.4142 17.75 16 17.75C15.5858 17.75 15.25 17.4142 15.25 17V11C15.25 10.5858 15.5858 10.25 16 10.25ZM8 13.25C8.41421 13.25 8.75 13.5858 8.75 14L8.75 17C8.75 17.4142 8.41421 17.75 8 17.75C7.58579 17.75 7.25 17.4142 7.25 17L7.25 14C7.25 13.5858 7.58579 13.25 8 13.25Z" fill="black"/>
</svg>
