<svg width="24" height="24" viewBox="0 0 24 24" fill="none" xmlns="http://www.w3.org/2000/svg">
<path fill-rule="evenodd" clip-rule="evenodd" d="M12 3.75C7.44365 3.75 3.75 7.44365 3.75 12C3.75 16.5563 7.44365 20.25 12 20.25C16.5563 20.25 20.25 16.5563 20.25 12C20.25 7.44365 16.5563 3.75 12 3.75ZM2.25 12C2.25 6.61522 6.61522 2.25 12 2.25C17.3848 2.25 21.75 6.61522 21.75 12C21.75 17.3848 17.3848 21.75 12 21.75C6.61522 21.75 2.25 17.3848 2.25 12ZM6.46967 9.46967C6.76256 9.17678 7.23744 9.17678 7.53033 9.46967L12 13.9393L16.4697 9.46967C16.7626 9.17678 17.2374 9.17678 17.5303 9.46967C17.8232 9.76256 17.8232 10.2374 17.5303 10.5303L12.5303 15.5303C12.2374 15.8232 11.7626 15.8232 11.4697 15.5303L6.46967 10.5303C6.17678 10.2374 6.17678 9.76256 6.46967 9.46967Z" fill="black"/>
</svg>
