<svg width="24" height="24" viewBox="0 0 24 24" fill="none" xmlns="http://www.w3.org/2000/svg">
<path fill-rule="evenodd" clip-rule="evenodd" d="M12 3.75C7.44365 3.75 3.75 7.44365 3.75 12C3.75 16.5563 7.44365 20.25 12 20.25C16.5563 20.25 20.25 16.5563 20.25 12C20.25 7.44365 16.5563 3.75 12 3.75ZM2.25 12C2.25 6.61522 6.61522 2.25 12 2.25C17.3848 2.25 21.75 6.61522 21.75 12C21.75 17.3848 17.3848 21.75 12 21.75C6.61522 21.75 2.25 17.3848 2.25 12ZM6.46967 13.4697L11.4697 8.46967C11.7626 8.17678 12.2374 8.17678 12.5303 8.46967L17.5303 13.4697C17.8232 13.7626 17.8232 14.2374 17.5303 14.5303C17.2374 14.8232 16.7626 14.8232 16.4697 14.5303L12 10.0607L7.53033 14.5303C7.23744 14.8232 6.76256 14.8232 6.46967 14.5303C6.17678 14.2374 6.17678 13.7626 6.46967 13.4697Z" fill="black"/>
</svg>
