<svg width="24" height="24" viewBox="0 0 24 24" fill="none" xmlns="http://www.w3.org/2000/svg">
<path fill-rule="evenodd" clip-rule="evenodd" d="M12 5.75C9.65279 5.75 7.75 7.65279 7.75 10V10.309C8.65889 10.4533 9.48256 10.8555 10.1421 11.4377C10.4527 11.7118 10.4822 12.1857 10.2081 12.4963C9.93403 12.8069 9.46008 12.8364 9.14952 12.5623C8.57615 12.0562 7.82475 11.75 7 11.75C5.20507 11.75 3.75 13.2051 3.75 15C3.75 16.7949 5.20507 18.25 7 18.25C7.41421 18.25 7.75 18.5858 7.75 19C7.75 19.4142 7.41421 19.75 7 19.75C4.37665 19.75 2.25 17.6234 2.25 15C2.25 12.6318 3.98301 10.6685 6.25 10.3089V10C6.25 6.82436 8.82436 4.25 12 4.25C15.1756 4.25 17.75 6.82436 17.75 10V10.3089C20.017 10.6685 21.75 12.6318 21.75 15C21.75 17.6234 19.6234 19.75 17 19.75C16.5858 19.75 16.25 19.4142 16.25 19C16.25 18.5858 16.5858 18.25 17 18.25C18.7949 18.25 20.25 16.7949 20.25 15C20.25 13.2051 18.7949 11.75 17 11.75C16.5858 11.75 16.25 11.4142 16.25 11V10C16.25 7.65279 14.3472 5.75 12 5.75Z" fill="black"/>
</svg>
