<svg width="24" height="24" viewBox="0 0 24 24" fill="none" xmlns="http://www.w3.org/2000/svg">
<path fill-rule="evenodd" clip-rule="evenodd" d="M2.25 8C2.25 6.48122 3.48122 5.25 5 5.25H19C20.5188 5.25 21.75 6.48122 21.75 8V16C21.75 17.5188 20.5188 18.75 19 18.75H5C3.48122 18.75 2.25 17.5188 2.25 16V8ZM5 6.75C4.30964 6.75 3.75 7.30964 3.75 8V9.25H20.25V8C20.25 7.30964 19.6904 6.75 19 6.75H5ZM20.25 10.75H3.75V16C3.75 16.6904 4.30964 17.25 5 17.25H19C19.6904 17.25 20.25 16.6904 20.25 16V10.75ZM5.25 15C5.25 14.5858 5.58579 14.25 6 14.25H10C10.4142 14.25 10.75 14.5858 10.75 15C10.75 15.4142 10.4142 15.75 10 15.75H6C5.58579 15.75 5.25 15.4142 5.25 15Z" fill="black"/>
</svg>
