<svg width="24" height="24" viewBox="0 0 24 24" fill="none" xmlns="http://www.w3.org/2000/svg">
<path fill-rule="evenodd" clip-rule="evenodd" d="M3.71299 4.30711C3.99324 4.19103 4.31583 4.25519 4.53033 4.46969L8 7.93936L11.4697 4.46969C11.7626 4.1768 12.2374 4.1768 12.5303 4.46969L16 7.93936L19.4697 4.46969C19.6842 4.25519 20.0068 4.19103 20.287 4.30711C20.5673 4.4232 20.75 4.69668 20.75 5.00002V16C20.75 16.4142 20.4142 16.75 20 16.75H4C3.58579 16.75 3.25 16.4142 3.25 16V5.00002C3.25 4.69668 3.43273 4.4232 3.71299 4.30711ZM4.75 6.81068V15.25H19.25V6.81068L16.5303 9.53035C16.2374 9.82325 15.7626 9.82325 15.4697 9.53035L12 6.06068L8.53033 9.53035C8.23744 9.82325 7.76256 9.82325 7.46967 9.53035L4.75 6.81068ZM3.25 19C3.25 18.5858 3.58579 18.25 4 18.25H20C20.4142 18.25 20.75 18.5858 20.75 19C20.75 19.4142 20.4142 19.75 20 19.75H4C3.58579 19.75 3.25 19.4142 3.25 19Z" fill="black"/>
</svg>
