<svg width="24" height="24" viewBox="0 0 24 24" fill="none" xmlns="http://www.w3.org/2000/svg">
<path fill-rule="evenodd" clip-rule="evenodd" d="M6.65602 2.33351C7.0241 2.14353 7.47649 2.28791 7.66647 2.65599L12 11.0522L16.3335 2.65599C16.5235 2.28791 16.9759 2.14353 17.344 2.33351C17.7121 2.52348 17.8564 2.97588 17.6665 3.34396L12.844 12.6875L14.8632 16.5996C15.4534 15.7821 16.4146 15.25 17.5 15.25C19.2949 15.25 20.75 16.705 20.75 18.5C20.75 20.2949 19.2949 21.75 17.5 21.75C15.7699 21.75 14.3555 20.3981 14.2556 18.693L12 14.3227L9.74436 18.693C9.64447 20.3981 8.23011 21.75 6.5 21.75C4.70507 21.75 3.25 20.2949 3.25 18.5C3.25 16.705 4.70507 15.25 6.5 15.25C7.58542 15.25 8.54656 15.7821 9.13681 16.5996L11.156 12.6875L6.33353 3.34396C6.14356 2.97588 6.28794 2.52348 6.65602 2.33351ZM6.5 16.75C5.5335 16.75 4.75 17.5335 4.75 18.5C4.75 19.4665 5.5335 20.25 6.5 20.25C7.4665 20.25 8.25 19.4665 8.25 18.5C8.25 17.5335 7.4665 16.75 6.5 16.75ZM17.5 16.75C16.5335 16.75 15.75 17.5335 15.75 18.5C15.75 19.4665 16.5335 20.25 17.5 20.25C18.4665 20.25 19.25 19.4665 19.25 18.5C19.25 17.5335 18.4665 16.75 17.5 16.75Z" fill="black"/>
</svg>
