<svg width="24" height="24" viewBox="0 0 24 24" fill="none" xmlns="http://www.w3.org/2000/svg">
<path fill-rule="evenodd" clip-rule="evenodd" d="M4.75 4.75V13.25L7.25 13.25V4.74998L4.75 4.75ZM8.75 4.74998V13.7225L13.765 19.5734C14.0731 19.9329 14.5579 20.0874 15.0173 19.9726L15.0648 19.9607C15.0648 19.9607 15.0648 19.9607 15.0648 19.9607C15.9034 19.7511 16.2812 18.7739 15.8017 18.0547L13.376 14.416C13.2225 14.1859 13.2082 13.89 13.3387 13.6461C13.4693 13.4022 13.7234 13.25 14 13.25H18.5604C19.3492 13.25 19.9408 12.5283 19.7861 11.7549L18.5861 5.75485C18.4693 5.17057 17.9562 4.75 17.3604 4.75L8.75 4.74998ZM7.65505 14.75L4 14.75C3.80109 14.75 3.61032 14.671 3.46967 14.5303C3.32902 14.3897 3.25 14.1989 3.25 14V4C3.25 3.58579 3.58578 3.25 4 3.25H17.3604C18.6713 3.25 19.7999 4.17526 20.057 5.46068L21.257 11.4607C21.5973 13.1624 20.2958 14.75 18.5604 14.75H15.4014L17.0498 17.2226C18.1047 18.8049 17.2736 20.9547 15.4286 21.4159L15.3811 21.4278C14.3705 21.6804 13.304 21.3405 12.6261 20.5496L7.65505 14.75Z" fill="black"/>
</svg>
