<svg width="24" height="24" viewBox="0 0 24 24" fill="none" xmlns="http://www.w3.org/2000/svg">
<path fill-rule="evenodd" clip-rule="evenodd" d="M4.25 3C4.25 2.58579 4.58579 2.25 5 2.25H14C14.1989 2.25 14.3897 2.32902 14.5303 2.46967L19.5303 7.46967C19.671 7.61032 19.75 7.80109 19.75 8V21C19.75 21.4142 19.4142 21.75 19 21.75H5C4.58579 21.75 4.25 21.4142 4.25 21V3ZM5.75 3.75V20.25H18.25V9.75H15C14.2561 9.75 13.5749 9.38559 13.0947 8.90533C12.6144 8.42507 12.25 7.74392 12.25 7V3.75H5.75ZM13.75 3.81066V7C13.75 7.25608 13.8856 7.57493 14.1553 7.84467C14.4251 8.11441 14.7439 8.25 15 8.25H18.1893L13.75 3.81066ZM7.25 13C7.25 12.5858 7.58579 12.25 8 12.25H14C14.4142 12.25 14.75 12.5858 14.75 13C14.75 13.4142 14.4142 13.75 14 13.75H8C7.58579 13.75 7.25 13.4142 7.25 13ZM7.25 17C7.25 16.5858 7.58579 16.25 8 16.25H16C16.4142 16.25 16.75 16.5858 16.75 17C16.75 17.4142 16.4142 17.75 16 17.75H8C7.58579 17.75 7.25 17.4142 7.25 17Z" fill="black"/>
</svg>
