<svg width="24" height="24" viewBox="0 0 24 24" fill="none" xmlns="http://www.w3.org/2000/svg">
<path fill-rule="evenodd" clip-rule="evenodd" d="M9.74297 4.43342C9.14553 4.852 8.75056 5.50288 8.75096 6.55313C8.75111 6.96734 8.41545 7.30325 8.00124 7.30341C7.58702 7.30356 7.25111 6.9679 7.25096 6.55369C7.25039 5.05053 7.85495 3.9247 8.88226 3.20493C9.86911 2.51352 11.168 2.25 12.5 2.25C14.5067 2.25 15.8677 3.13092 16.6922 4.40506C17.4873 5.63382 17.75 7.17025 17.75 8.5C17.75 9.78831 17.6242 10.6787 17.2333 11.4604C16.8658 12.1954 16.2879 12.7731 15.5909 13.4698C15.5708 13.4899 15.5506 13.5101 15.5303 13.5303C14.8936 14.1671 14.4435 15.0454 14.1534 15.9737C13.8643 16.8988 13.75 17.8233 13.75 18.5C13.75 19.4204 13.4399 20.2457 12.8428 20.8428C12.2457 21.4399 11.4204 21.75 10.5 21.75C9.5695 21.75 8.70367 21.4299 8.09549 20.648C7.51319 19.8993 7.25 18.8312 7.25 17.5C7.25 17.0858 7.58579 16.75 8 16.75C8.41421 16.75 8.75 17.0858 8.75 17.5C8.75 18.6688 8.98681 19.3507 9.27951 19.727C9.54633 20.0701 9.9305 20.25 10.5 20.25C11.0796 20.25 11.5043 20.0601 11.7822 19.7822C12.0601 19.5043 12.25 19.0796 12.25 18.5C12.25 17.6767 12.3857 16.6011 12.7216 15.5263C13.0565 14.4546 13.6064 13.3329 14.4697 12.4697C15.2456 11.6938 15.6448 11.2834 15.8917 10.7896C16.1258 10.3213 16.25 9.71169 16.25 8.5C16.25 7.32975 16.0127 6.11618 15.4328 5.21994C14.8823 4.36908 13.9933 3.75 12.5 3.75C11.332 3.75 10.3809 3.98648 9.74297 4.43342ZM12.5248 7.23214C12.1906 7.15788 11.8336 7.22702 11.5303 7.53033C11.2374 7.82322 10.7626 7.82322 10.4697 7.53033C10.1768 7.23744 10.1768 6.76256 10.4697 6.46967C11.1664 5.77298 12.0594 5.59212 12.8502 5.76786C13.6179 5.93846 14.313 6.44901 14.6708 7.16459C14.9641 7.7511 15.143 8.4023 15.0567 9.09303C14.9693 9.7919 14.622 10.4386 14.0303 11.0303C13.8054 11.2553 13.5522 11.463 13.3297 11.6457C13.2734 11.6919 13.2191 11.7364 13.1676 11.7793C12.8966 12.0052 12.6623 12.2164 12.4607 12.4685C12.0832 12.9403 11.75 13.6425 11.75 15C11.75 15.4142 11.4142 15.75 11 15.75C10.5858 15.75 10.25 15.4142 10.25 15C10.25 13.3575 10.6668 12.3097 11.2893 11.5315C11.5877 11.1586 11.9159 10.8698 12.2074 10.627C12.2784 10.5678 12.3456 10.5126 12.4096 10.4599C12.6232 10.2843 12.8018 10.1375 12.9697 9.96967C13.378 9.56138 13.5307 9.2081 13.5683 8.90697C13.607 8.5977 13.5359 8.2489 13.3292 7.83541C13.187 7.55099 12.8821 7.31154 12.5248 7.23214Z" fill="black"/>
</svg>
