<svg width="24" height="24" viewBox="0 0 24 24" fill="none" xmlns="http://www.w3.org/2000/svg">
<path fill-rule="evenodd" clip-rule="evenodd" d="M16.4697 2.46967C16.7626 2.17678 17.2374 2.17678 17.5303 2.46967L21.5303 6.46967C21.8232 6.76256 21.8232 7.23744 21.5303 7.53033L12.5303 16.5303C12.3897 16.671 12.1989 16.75 12 16.75H8C7.58579 16.75 7.25 16.4142 7.25 16V12C7.25 11.8011 7.32902 11.6103 7.46967 11.4697L16.4697 2.46967ZM15.0607 6L18 8.93934L19.9393 7L17 4.06066L15.0607 6ZM16.9393 10L14 7.06066L8.75 12.3107V15.25H11.6893L16.9393 10ZM3.25 4C3.25 3.58579 3.58579 3.25 4 3.25L10 3.25C10.4142 3.25 10.75 3.58579 10.75 4C10.75 4.41421 10.4142 4.75 10 4.75L4.75 4.75L4.75 19.25L19.25 19.25V14C19.25 13.5858 19.5858 13.25 20 13.25C20.4142 13.25 20.75 13.5858 20.75 14V20C20.75 20.1989 20.671 20.3897 20.5303 20.5303C20.3897 20.671 20.1989 20.75 20 20.75L4 20.75C3.58579 20.75 3.25 20.4142 3.25 20L3.25 4Z" fill="black"/>
</svg>
