<svg width="24" height="24" viewBox="0 0 24 24" fill="none" xmlns="http://www.w3.org/2000/svg">
<path fill-rule="evenodd" clip-rule="evenodd" d="M16.4697 2.46967C16.7626 2.17678 17.2374 2.17678 17.5303 2.46967L21.5303 6.46967C21.8232 6.76256 21.8232 7.23744 21.5303 7.53033L8.53033 20.5303C8.38968 20.671 8.19891 20.75 8 20.75H4C3.58579 20.75 3.25 20.4142 3.25 20V16C3.25 15.8011 3.32902 15.6103 3.46967 15.4697L16.4697 2.46967ZM15.0607 6L18 8.93934L19.9393 7L17 4.06066L15.0607 6ZM16.9393 10L14 7.06066L4.75 16.3107V19.25H7.68934L16.9393 10Z" fill="black"/>
</svg>
