<svg width="24" height="24" viewBox="0 0 24 24" fill="none" xmlns="http://www.w3.org/2000/svg">
<path fill-rule="evenodd" clip-rule="evenodd" d="M12 3.75C7.44365 3.75 3.75 7.44365 3.75 12C3.75 16.5563 7.44365 20.25 12 20.25C16.5563 20.25 20.25 16.5563 20.25 12C20.25 7.44365 16.5563 3.75 12 3.75ZM2.25 12C2.25 6.61522 6.61522 2.25 12 2.25C17.3848 2.25 21.75 6.61522 21.75 12C21.75 17.3848 17.3848 21.75 12 21.75C6.61522 21.75 2.25 17.3848 2.25 12ZM8.25 9C8.25 8.58579 8.58579 8.25 9 8.25H9.01C9.42421 8.25 9.76 8.58579 9.76 9C9.76 9.41421 9.42421 9.75 9.01 9.75H9C8.58579 9.75 8.25 9.41421 8.25 9ZM14.25 9C14.25 8.58579 14.5858 8.25 15 8.25H15.01C15.4242 8.25 15.76 8.58579 15.76 9C15.76 9.41421 15.4242 9.75 15.01 9.75H15C14.5858 9.75 14.25 9.41421 14.25 9ZM8.59955 13.5494C8.3509 13.2185 7.88117 13.1516 7.55 13.4C7.21863 13.6485 7.15147 14.1186 7.4 14.45L8 14C7.4 14.45 7.39981 14.4497 7.4 14.45L7.40169 14.4522L7.40395 14.4552L7.41018 14.4634L7.42942 14.488C7.44525 14.508 7.4671 14.535 7.49485 14.5681C7.55031 14.6342 7.62965 14.7247 7.73195 14.8314C7.93593 15.0443 8.23476 15.3254 8.62137 15.6066C9.3917 16.1668 10.5434 16.75 12 16.75C13.4566 16.75 14.6083 16.1668 15.3786 15.6066C15.7652 15.3254 16.0641 15.0443 16.2681 14.8314C16.3704 14.7247 16.4497 14.6342 16.5051 14.5681C16.5329 14.535 16.5547 14.508 16.5706 14.488L16.5898 14.4634L16.596 14.4552L16.5983 14.4522L16.5992 14.451C16.5994 14.4508 16.6 14.45 16 14L16.6 14.45C16.8485 14.1186 16.7814 13.6485 16.45 13.4C16.1188 13.1516 15.649 13.2186 15.4003 13.5496L15.4011 13.5485L15.3945 13.5569C15.3871 13.5662 15.3743 13.5822 15.3562 13.6038C15.3198 13.6471 15.2625 13.7128 15.1851 13.7936C15.0297 13.9557 14.7973 14.1746 14.4964 14.3934C13.8917 14.8332 13.0434 15.25 12 15.25C10.9566 15.25 10.1083 14.8332 9.50363 14.3934C9.20274 14.1746 8.97032 13.9557 8.81493 13.7936C8.73754 13.7128 8.68016 13.6471 8.64382 13.6038C8.62567 13.5822 8.61285 13.5662 8.60549 13.5569L8.59886 13.5485L8.59955 13.5494Z" fill="black"/>
</svg>
