<svg width="24" height="24" viewBox="0 0 24 24" fill="none" xmlns="http://www.w3.org/2000/svg">
<path fill-rule="evenodd" clip-rule="evenodd" d="M12 3.75C7.44365 3.75 3.75 7.44365 3.75 12C3.75 16.5563 7.44365 20.25 12 20.25C16.5563 20.25 20.25 16.5563 20.25 12C20.25 7.44365 16.5563 3.75 12 3.75ZM2.25 12C2.25 6.61522 6.61522 2.25 12 2.25C17.3848 2.25 21.75 6.61522 21.75 12C21.75 17.3848 17.3848 21.75 12 21.75C6.61522 21.75 2.25 17.3848 2.25 12ZM8.25 9C8.25 8.58579 8.58579 8.25 9 8.25H9.01C9.42421 8.25 9.76 8.58579 9.76 9C9.76 9.41421 9.42421 9.75 9.01 9.75H9C8.58579 9.75 8.25 9.41421 8.25 9ZM14.25 9C14.25 8.58579 14.5858 8.25 15 8.25H15.01C15.4242 8.25 15.76 8.58579 15.76 9C15.76 9.41421 15.4242 9.75 15.01 9.75H15C14.5858 9.75 14.25 9.41421 14.25 9ZM7.25 15C7.25 14.5858 7.58579 14.25 8 14.25H16C16.4142 14.25 16.75 14.5858 16.75 15C16.75 15.4142 16.4142 15.75 16 15.75H8C7.58579 15.75 7.25 15.4142 7.25 15Z" fill="black"/>
</svg>
