<svg width="24" height="24" viewBox="0 0 24 24" fill="none" xmlns="http://www.w3.org/2000/svg">
<path fill-rule="evenodd" clip-rule="evenodd" d="M12 3.75C7.44365 3.75 3.75 7.44365 3.75 12C3.75 16.5563 7.44365 20.25 12 20.25C16.5563 20.25 20.25 16.5563 20.25 12C20.25 7.44365 16.5563 3.75 12 3.75ZM2.25 12C2.25 6.61522 6.61522 2.25 12 2.25C17.3848 2.25 21.75 6.61522 21.75 12C21.75 17.3848 17.3848 21.75 12 21.75C6.61522 21.75 2.25 17.3848 2.25 12ZM16.0659 7.93415C16.2521 8.12043 16.327 8.3908 16.2631 8.64638L14.8489 14.3032C14.7817 14.5719 14.5719 14.7818 14.3032 14.8489L8.64636 16.2632C8.39078 16.327 8.12042 16.2522 7.93413 16.0659C7.74785 15.8796 7.67296 15.6092 7.73686 15.3536L9.15107 9.69679C9.21825 9.42808 9.42806 9.21826 9.69677 9.15108L15.3536 7.73687C15.6092 7.67298 15.8796 7.74786 16.0659 7.93415ZM10.4971 10.4972L9.49524 14.5048L13.5029 13.5029L14.5048 9.49525L10.4971 10.4972Z" fill="black"/>
</svg>
