<svg width="24" height="24" viewBox="0 0 24 24" fill="none" xmlns="http://www.w3.org/2000/svg">
<path fill-rule="evenodd" clip-rule="evenodd" d="M2.86199 12C2.96527 12.1737 3.10848 12.4047 3.2904 12.6759C3.71241 13.3048 4.3379 14.142 5.1509 14.9767C6.78858 16.658 9.10671 18.25 12 18.25C14.8933 18.25 17.2114 16.658 18.8491 14.9767C19.6621 14.142 20.2876 13.3048 20.7096 12.6759C20.8915 12.4047 21.0347 12.1737 21.138 12C21.0347 11.8263 20.8915 11.5953 20.7096 11.3241C20.2876 10.6952 19.6621 9.85799 18.8491 9.02331C17.2114 7.34195 14.8933 5.75 12 5.75C9.10671 5.75 6.78858 7.34195 5.1509 9.02331C4.3379 9.85799 3.71241 10.6952 3.2904 11.3241C3.10848 11.5953 2.96527 11.8263 2.86199 12ZM22 12C22.6656 11.6543 22.6654 11.654 22.6653 11.6537L22.6639 11.6511L22.6609 11.6454L22.6509 11.6266C22.6425 11.6107 22.6304 11.5884 22.6148 11.5601C22.5837 11.5034 22.5383 11.4225 22.4788 11.3208C22.3601 11.1176 22.185 10.8308 21.9552 10.4884C21.4965 9.80479 20.8152 8.89201 19.9236 7.97669C18.1522 6.15805 15.4703 4.25 12 4.25C8.52965 4.25 5.84778 6.15805 4.07637 7.97669C3.18483 8.89201 2.5035 9.80479 2.04482 10.4884C1.81503 10.8308 1.63992 11.1176 1.52115 11.3208C1.46174 11.4225 1.41634 11.5034 1.38517 11.5601C1.36958 11.5884 1.35754 11.6107 1.34908 11.6266L1.33908 11.6454L1.33609 11.6511L1.3351 11.653C1.33495 11.6533 1.33445 11.6543 2 12L1.33445 11.6543C1.22185 11.871 1.22185 12.129 1.33445 12.3457L2 12C1.33445 12.3457 1.3343 12.3455 1.33445 12.3457L1.3351 12.347L1.33609 12.3489L1.33908 12.3546L1.34908 12.3734C1.35754 12.3893 1.36958 12.4116 1.38517 12.4399C1.41634 12.4966 1.46174 12.5775 1.52115 12.6792C1.63992 12.8824 1.81503 13.1692 2.04482 13.5116C2.5035 14.1952 3.18483 15.108 4.07637 16.0233C5.84778 17.842 8.52965 19.75 12 19.75C15.4703 19.75 18.1522 17.842 19.9236 16.0233C20.8152 15.108 21.4965 14.1952 21.9552 13.5116C22.185 13.1692 22.3601 12.8824 22.4788 12.6792C22.5383 12.5775 22.5837 12.4966 22.6148 12.4399C22.6304 12.4116 22.6425 12.3893 22.6509 12.3734L22.6609 12.3546L22.6639 12.3489L22.6649 12.347C22.6651 12.3467 22.6656 12.3457 22 12ZM22 12L22.6656 12.3457C22.7781 12.129 22.7779 11.8705 22.6653 11.6537L22 12ZM2.66523 12.3464C2.66518 12.3465 2.66518 12.3465 2.66523 12.3464ZM12 9.75C10.7574 9.75 9.75 10.7574 9.75 12C9.75 13.2426 10.7574 14.25 12 14.25C13.2426 14.25 14.25 13.2426 14.25 12C14.25 10.7574 13.2426 9.75 12 9.75ZM8.25 12C8.25 9.92893 9.92893 8.25 12 8.25C14.0711 8.25 15.75 9.92893 15.75 12C15.75 14.0711 14.0711 15.75 12 15.75C9.92893 15.75 8.25 14.0711 8.25 12ZM2.66524 11.6537C2.66519 11.6536 2.66519 11.6536 2.66524 11.6537Z" fill="black"/>
</svg>
