<svg width="24" height="24" viewBox="0 0 24 24" fill="none" xmlns="http://www.w3.org/2000/svg">
<path fill-rule="evenodd" clip-rule="evenodd" d="M2.46967 2.46967C2.76256 2.17678 3.23744 2.17678 3.53033 2.46967L21.5303 20.4697C21.8232 20.7626 21.8232 21.2374 21.5303 21.5303C21.2374 21.8232 20.7626 21.8232 20.4697 21.5303L2.46967 3.53033C2.17678 3.23744 2.17678 2.76256 2.46967 2.46967ZM12 5.75C11.6883 5.75 11.3841 5.76838 11.0872 5.80313C10.775 5.83968 10.4705 5.8944 10.1738 5.96509C9.77091 6.0611 9.36644 5.81229 9.27043 5.40936C9.17442 5.00643 9.42322 4.60195 9.82616 4.50594C10.1783 4.42204 10.5406 4.35688 10.9128 4.31331C11.2667 4.27187 11.6292 4.25 12 4.25C15.4703 4.25 18.1522 6.15805 19.9236 7.97669C20.8152 8.89201 21.4965 9.80479 21.9552 10.4884C22.185 10.8308 22.3601 11.1176 22.4788 11.3208C22.5383 11.4225 22.5837 11.5034 22.6148 11.5601C22.6304 11.5884 22.6425 11.6107 22.6509 11.6266L22.6609 11.6454L22.6639 11.6511L22.6649 11.653C22.6651 11.6533 22.6656 11.6543 22 12C22.6656 12.3457 22.6655 12.3458 22.6654 12.346L22.6642 12.3483L22.6618 12.3529L22.654 12.3677C22.6474 12.3801 22.6381 12.3974 22.6261 12.4194C22.602 12.4634 22.5672 12.5262 22.5216 12.6055C22.4305 12.7639 22.2964 12.9884 22.1205 13.2607C21.7691 13.8044 21.2479 14.5427 20.5655 15.3261C20.2934 15.6384 19.8197 15.6711 19.5074 15.399C19.195 15.1269 19.1624 14.6532 19.4345 14.3408C20.0602 13.6225 20.5391 12.9441 20.8607 12.4465C20.9727 12.2732 21.0653 12.1223 21.138 12C21.0347 11.8263 20.8915 11.5953 20.7096 11.3241C20.2876 10.6952 19.6621 9.85799 18.8491 9.02331C17.2114 7.34195 14.8933 5.75 12 5.75ZM22 12L22.6654 12.346C22.778 12.1292 22.7781 11.871 22.6656 11.6543L22 12ZM4.64712 8.44107C4.9558 8.71727 4.98214 9.19142 4.70594 9.5001C4.41153 9.82914 4.1471 10.1524 3.91364 10.4566C3.49878 10.9972 3.18343 11.4757 2.97297 11.8168C2.93193 11.8834 2.89492 11.9446 2.86199 12C2.96527 12.1737 3.10848 12.4047 3.2904 12.6759C3.71241 13.3048 4.3379 14.142 5.1509 14.9767C6.78858 16.658 9.10671 18.25 12 18.25C12.3117 18.25 12.6159 18.2316 12.9128 18.1969C13.3242 18.1487 13.6968 18.4432 13.7449 18.8546C13.7931 19.266 13.4986 19.6385 13.0872 19.6867C12.7333 19.7281 12.3708 19.75 12 19.75C8.52965 19.75 5.84778 17.842 4.07638 16.0233C3.18483 15.108 2.5035 14.1952 2.04482 13.5116C1.81503 13.1692 1.63992 12.8824 1.52115 12.6792C1.46174 12.5775 1.41634 12.4966 1.38517 12.4399C1.36958 12.4116 1.35754 12.3893 1.34908 12.3734L1.33908 12.3546L1.33609 12.3489L1.3351 12.347C1.33495 12.3467 1.33445 12.3457 2 12C1.33445 11.6543 1.33449 11.6542 1.33454 11.6541L1.33546 11.6523L1.33715 11.6491L1.34254 11.6389L1.36135 11.6037C1.37744 11.574 1.40064 11.5316 1.43088 11.478C1.49133 11.3707 1.58002 11.2179 1.69633 11.0293C1.92876 10.6526 2.27272 10.131 2.72363 9.54341C2.97759 9.21247 3.266 8.85988 3.58809 8.4999C3.86429 8.19121 4.33843 8.16488 4.64712 8.44107ZM2 12L1.33454 11.6541C1.22194 11.8708 1.22185 12.129 1.33445 12.3457L2 12ZM11.25 9C11.25 8.58579 11.5858 8.25 12 8.25C12.437 8.25 12.858 8.32505 13.2499 8.46358C14.316 8.84037 15.1596 9.68401 15.5364 10.7501C15.675 11.142 15.75 11.563 15.75 12C15.75 12.4142 15.4142 12.75 15 12.75C14.5858 12.75 14.25 12.4142 14.25 12C14.25 11.7357 14.2047 11.4836 14.1222 11.2499C13.8964 10.6112 13.3888 10.1036 12.7501 9.87784C12.5164 9.79526 12.2643 9.75 12 9.75C11.5858 9.75 11.25 9.41421 11.25 9ZM8.91738 11.7603C9.32589 11.6918 9.7126 11.9674 9.78114 12.3759C9.80276 12.5048 9.83532 12.6298 9.87783 12.7501C10.1036 13.3888 10.6112 13.8964 11.2499 14.1222C11.4836 14.2047 11.7357 14.25 12 14.25C12.4142 14.25 12.75 14.5858 12.75 15C12.75 15.4142 12.4142 15.75 12 15.75C11.563 15.75 11.142 15.675 10.7501 15.5364C9.68401 15.1596 8.84037 14.316 8.46357 13.2499C8.3924 13.0486 8.33793 12.8394 8.30181 12.6241C8.23328 12.2156 8.50888 11.8289 8.91738 11.7603Z" fill="black"/>
</svg>
