<svg width="24" height="24" viewBox="0 0 24 24" fill="none" xmlns="http://www.w3.org/2000/svg">
<path fill-rule="evenodd" clip-rule="evenodd" d="M3.25 4C3.25 3.58579 3.58579 3.25 4 3.25H20C20.3033 3.25 20.5768 3.43273 20.6929 3.71299C20.809 3.99324 20.7448 4.31583 20.5303 4.53033L16.0607 9L20.5303 13.4697C20.7448 13.6842 20.809 14.0068 20.6929 14.287C20.5768 14.5673 20.3033 14.75 20 14.75H4.75V21C4.75 21.4142 4.41421 21.75 4 21.75C3.58579 21.75 3.25 21.4142 3.25 21V4ZM4.75 13.25H18.1893L14.4697 9.53033C14.1768 9.23744 14.1768 8.76256 14.4697 8.46967L18.1893 4.75H4.75V13.25Z" fill="black"/>
</svg>
