<svg width="24" height="24" fill="none" xmlns="http://www.w3.org/2000/svg"><path d="M6.998 2.279a7.492 7.492 0 0 0-2.984.927c-.362.207-.592.398-.685.568-.065.118-.069.668-.069 8.866 0 8.668.001 8.741.08 8.876.148.251.262.304.66.304s.512-.053.66-.304c.077-.131.08-.219.092-2.581l.011-2.446.229-.121c.309-.164.952-.383 1.454-.495.368-.083.513-.093 1.314-.091.775.003.959.015 1.32.092.861.184 1.494.403 2.42.835 1.865.872 3.026 1.195 4.463 1.24 1.424.045 2.476-.166 3.617-.725.628-.308.977-.556 1.083-.769.075-.151.077-.325.089-6.175.007-3.311.001-6.114-.013-6.228-.028-.237-.132-.41-.353-.588-.127-.103-.189-.124-.362-.124-.188 0-.243.023-.557.234-.794.534-1.805.841-2.947.893-1.174.054-2.513-.252-3.88-.887-1.721-.799-2.513-1.065-3.68-1.236-.522-.077-1.508-.109-1.962-.065M9.16 3.895c.876.193 1.398.374 2.34.815 1.865.871 3.026 1.194 4.461 1.239 1.213.038 2.295-.14 3.209-.528.066-.028.07.232.07 5.134v5.163l-.093.061c-.168.11-.72.334-1.086.44-1.672.484-3.457.274-5.421-.639-1.722-.799-2.476-1.053-3.7-1.243-.663-.103-1.891-.094-2.518.019-.513.092-1.216.282-1.492.404l-.17.076V4.491l.23-.122c.426-.226 1.12-.436 1.93-.585.055-.01.478-.012.94-.004.718.011.907.028 1.3.115" fill-rule="evenodd" fill="#000"/></svg>