<svg width="24" height="24" viewBox="0 0 24 24" fill="none" xmlns="http://www.w3.org/2000/svg">
<path fill-rule="evenodd" clip-rule="evenodd" d="M11.6461 5.33875C11.89 5.20823 12.1859 5.22254 12.416 5.37596L21.416 11.376C21.6247 11.5151 21.75 11.7492 21.75 12C21.75 12.2508 21.6247 12.4849 21.416 12.624L12.416 18.624C12.1859 18.7775 11.89 18.7918 11.6461 18.6613C11.4022 18.5307 11.25 18.2766 11.25 18L11.25 15.1246L5.38587 18.6431C5.15417 18.7821 4.86561 18.7858 4.63048 18.6527C4.39534 18.5195 4.25 18.2702 4.25 18L4.25 6C4.25 5.7298 4.39535 5.48048 4.63048 5.34735C4.86561 5.21422 5.15418 5.21786 5.38587 5.35688L11.25 8.87536L11.25 6C11.25 5.7234 11.4022 5.46926 11.6461 5.33875ZM12.75 10.2138C12.7502 10.2051 12.7502 10.1964 12.75 10.1877V7.40139L19.6479 12L12.75 16.5986L12.75 13.8124C12.7502 13.8037 12.7502 13.7949 12.75 13.7862L12.75 10.2138ZM11.25 10.6246L5.75 7.32464L5.75 16.6754L11.25 13.3754V10.6246Z" fill="black"/>
</svg>
