<svg width="24" height="24" viewBox="0 0 24 24" fill="none" xmlns="http://www.w3.org/2000/svg">
<path fill-rule="evenodd" clip-rule="evenodd" d="M7.54569 4.75C5.47486 4.75 3.75 6.49882 3.75 8.71405C3.75 9.774 4.15628 10.7853 4.87128 11.5268L12 18.9195L19.1287 11.5268C19.8437 10.7853 20.25 9.774 20.25 8.71405C20.25 6.49882 18.5251 4.75 16.4543 4.75C15.4566 4.75 14.494 5.16076 13.7799 5.90131L12.5399 7.18727C12.3985 7.33386 12.2036 7.41667 12 7.41667C11.7964 7.41667 11.6015 7.33386 11.4601 7.18727L10.2201 5.90131C9.50598 5.16076 8.54338 4.75 7.54569 4.75ZM2.25 8.71405C2.25 5.72228 4.59548 3.25 7.54569 3.25C8.95917 3.25 10.309 3.83256 11.2999 4.86011L12 5.58619L12.7001 4.86011L13.225 5.36619L12.7001 4.86011C13.691 3.83256 15.0408 3.25 16.4543 3.25C19.4045 3.25 21.75 5.72228 21.75 8.71405C21.75 10.1546 21.1984 11.5414 20.2085 12.568L12.5399 20.5206C12.3985 20.6672 12.2036 20.75 12 20.75C11.7964 20.75 11.6015 20.6672 11.4601 20.5206L3.79152 12.568C2.80155 11.5414 2.25 10.1546 2.25 8.71405Z" fill="black"/>
</svg>
