<svg width="24" height="24" viewBox="0 0 24 24" fill="none" xmlns="http://www.w3.org/2000/svg">
<path fill-rule="evenodd" clip-rule="evenodd" d="M11.5061 2.43557C11.7889 2.18814 12.2111 2.18814 12.4939 2.43557L20.4939 9.43557C20.6566 9.57798 20.75 9.78373 20.75 10L20.75 20C20.75 20.1989 20.671 20.3897 20.5303 20.5303C20.3897 20.671 20.1989 20.75 20 20.75H15C14.5858 20.75 14.25 20.4142 14.25 20V16C14.25 15.4033 14.0129 14.831 13.591 14.409C13.169 13.9871 12.5967 13.75 12 13.75C11.4033 13.75 10.831 13.9871 10.409 14.409C9.98705 14.831 9.75 15.4033 9.75 16V20C9.75 20.4142 9.41421 20.75 9 20.75H4C3.58578 20.75 3.25 20.4142 3.25 20L3.24999 10C3.24999 9.78373 3.34335 9.57798 3.50611 9.43557L11.5061 2.43557ZM4.74999 10.3403L4.75 19.25H8.25V16C8.25 15.0054 8.64508 14.0516 9.34835 13.3483C10.0516 12.6451 11.0054 12.25 12 12.25C12.9946 12.25 13.9484 12.6451 14.6516 13.3483C15.3549 14.0516 15.75 15.0054 15.75 16V19.25H19.25L19.25 10.3403L12 3.99658L4.74999 10.3403Z" fill="black"/>
</svg>
