<svg width="24" height="24" viewBox="0 0 24 24" fill="none" xmlns="http://www.w3.org/2000/svg">
<path fill-rule="evenodd" clip-rule="evenodd" d="M12 2.25C12.1989 2.25 12.3897 2.32902 12.5303 2.46967L19.5303 9.46967C19.671 9.61032 19.75 9.80109 19.75 10L19.75 20C19.75 20.1989 19.671 20.3897 19.5303 20.5303C19.3897 20.671 19.1989 20.75 19 20.75H5C4.58579 20.75 4.25 20.4142 4.25 20L4.25 10C4.25 9.80109 4.32902 9.61032 4.46967 9.46967L11.4697 2.46967C11.6103 2.32902 11.8011 2.25 12 2.25ZM5.75 10.3107L5.75 19.25H18.25L18.25 10.3107L12 4.06066L5.75 10.3107ZM10.0203 11.25C9.34421 11.25 8.75 11.8263 8.75 12.5951C8.75 12.9605 8.89022 13.3057 9.13162 13.556L12 16.5306L14.8684 13.556C15.1098 13.3057 15.25 12.9605 15.25 12.5951C15.25 11.8263 14.6558 11.25 13.9797 11.25C13.6518 11.25 13.3315 11.3848 13.091 11.6343L12.5399 12.2058C12.3985 12.3524 12.2036 12.4352 12 12.4352C11.7964 12.4352 11.6015 12.3524 11.4601 12.2058L10.909 11.6343C10.6685 11.3848 10.3482 11.25 10.0203 11.25ZM7.25 12.5951C7.25 11.0498 8.46483 9.75 10.0203 9.75C10.764 9.75 11.4715 10.0566 11.9888 10.593L12 10.6047L12.0112 10.593C12.5285 10.0566 13.236 9.75 13.9797 9.75C15.5352 9.75 16.75 11.0498 16.75 12.5951C16.75 13.3411 16.4645 14.0617 15.9481 14.5972L12.5399 18.1317C12.3985 18.2783 12.2036 18.3611 12 18.3611C11.7964 18.3611 11.6015 18.2783 11.4601 18.1317L8.05185 14.5972C7.53549 14.0617 7.25 13.3411 7.25 12.5951Z" fill="black"/>
</svg>
