<svg width="24" height="24" viewBox="0 0 24 24" fill="none" xmlns="http://www.w3.org/2000/svg">
<path fill-rule="evenodd" clip-rule="evenodd" d="M12 2.25C12.4142 2.25 12.75 2.58579 12.75 3V5.18934L14.4697 3.46967C14.7626 3.17678 15.2374 3.17678 15.5303 3.46967C15.8232 3.76256 15.8232 4.23744 15.5303 4.53033L12.75 7.31066V10.7009L15.6861 9.00576L16.7038 5.20776C16.811 4.80766 17.2222 4.57022 17.6223 4.67743C18.0224 4.78463 18.2599 5.19588 18.1527 5.59598L17.5232 7.94514L19.4193 6.85047C19.778 6.64337 20.2367 6.76629 20.4438 7.12501C20.6509 7.48373 20.528 7.94242 20.1693 8.14953L18.2733 9.24415L20.6223 9.87358C21.0224 9.98078 21.2599 10.392 21.1527 10.7921C21.0455 11.1922 20.6342 11.4297 20.2341 11.3225L16.4361 10.3048L13.5 12L16.4361 13.6951L20.2341 12.6774C20.6342 12.5702 21.0455 12.8077 21.1527 13.2078C21.2599 13.6079 21.0224 14.0191 20.6223 14.1263L18.2732 14.7558L20.1693 15.8505C20.528 16.0576 20.6509 16.5163 20.4438 16.875C20.2366 17.2337 19.778 17.3566 19.4192 17.1495L17.5232 16.0548L18.1527 18.4039C18.2599 18.804 18.0224 19.2153 17.6223 19.3225C17.2222 19.4297 16.811 19.1922 16.7038 18.7921L15.6861 14.9941L12.75 13.299V16.6893L15.5303 19.4697C15.8232 19.7626 15.8232 20.2374 15.5303 20.5303C15.2374 20.8232 14.7626 20.8232 14.4697 20.5303L12.75 18.8107V21C12.75 21.4142 12.4142 21.75 12 21.75C11.5858 21.75 11.25 21.4142 11.25 21V18.8107L9.53033 20.5303C9.23744 20.8232 8.76257 20.8232 8.46967 20.5303C8.17678 20.2374 8.17678 19.7626 8.46967 19.4697L11.25 16.6893V13.299L8.31393 14.9941L7.29626 18.7921C7.18905 19.1922 6.7778 19.4297 6.3777 19.3225C5.9776 19.2153 5.74016 18.804 5.84737 18.4039L6.4768 16.0548L4.58086 17.1495C4.22214 17.3566 3.76345 17.2337 3.55633 16.875C3.34922 16.5163 3.47212 16.0576 3.83083 15.8505L5.72686 14.7558L3.3777 14.1263C2.9776 14.0191 2.74016 13.6079 2.84737 13.2078C2.95457 12.8077 3.36583 12.5702 3.76593 12.6774L7.56393 13.6951L10.5 12L7.56392 10.3048L3.76593 11.3225C3.36583 11.4297 2.95457 11.1922 2.84737 10.7921C2.74016 10.392 2.9776 9.98078 3.3777 9.87358L5.72678 9.24414L3.83079 8.14952C3.47207 7.94242 3.34916 7.48373 3.55626 7.12501C3.76336 6.76629 4.22205 6.64337 4.58078 6.85048L6.47682 7.94513L5.84737 5.59598C5.74016 5.19588 5.9776 4.78463 6.3777 4.67742C6.7778 4.57022 7.18905 4.80766 7.29626 5.20776L8.31393 9.00576L11.25 10.7009V7.31066L8.46967 4.53033C8.17678 4.23744 8.17678 3.76256 8.46967 3.46967C8.76257 3.17678 9.23744 3.17678 9.53033 3.46967L11.25 5.18934V3C11.25 2.58579 11.5858 2.25 12 2.25Z" fill="black"/>
</svg>
