<svg width="24" height="24" viewBox="0 0 24 24" fill="none" xmlns="http://www.w3.org/2000/svg">
<path fill-rule="evenodd" clip-rule="evenodd" d="M12 4.25C12.4142 4.25 12.75 4.58579 12.75 5V5.00999C12.75 5.42421 12.4142 5.75999 12 5.75999C11.5858 5.75999 11.25 5.42421 11.25 5.00999V5C11.25 4.58579 11.5858 4.25 12 4.25ZM12 7.25C12.4142 7.25 12.75 7.58579 12.75 8L12.75 19C12.75 19.4142 12.4142 19.75 12 19.75C11.5858 19.75 11.25 19.4142 11.25 19L11.25 8C11.25 7.58579 11.5858 7.25 12 7.25Z" fill="black"/>
</svg>
