<svg width="24" height="24" viewBox="0 0 24 24" fill="none" xmlns="http://www.w3.org/2000/svg">
<path fill-rule="evenodd" clip-rule="evenodd" d="M12 6.25C12.4142 6.25 12.75 6.58579 12.75 7V7.00999C12.75 7.42421 12.4142 7.75999 12 7.75999C11.5858 7.75999 11.25 7.42421 11.25 7.00999V7C11.25 6.58579 11.5858 6.25 12 6.25ZM12 9.25C12.4142 9.25 12.75 9.58579 12.75 10L12.75 17C12.75 17.4142 12.4142 17.75 12 17.75C11.5858 17.75 11.25 17.4142 11.25 17L11.25 10C11.25 9.58579 11.5858 9.25 12 9.25Z" fill="black"/>
</svg>
