<svg width="24" height="24" viewBox="0 0 24 24" fill="none" xmlns="http://www.w3.org/2000/svg">
<path fill-rule="evenodd" clip-rule="evenodd" d="M12.6261 3.45041C13.304 2.65955 14.3705 2.31956 15.3811 2.57219L15.4286 2.58408C17.2736 3.04531 18.1047 5.19508 17.0498 6.7774L15.4014 9.25001H18.5604C20.2958 9.25001 21.5973 10.8377 21.257 12.5393L20.057 18.5393C19.7999 19.8247 18.6713 20.75 17.3604 20.75H4C3.58578 20.75 3.25 20.4142 3.25 20V10C3.25 9.80109 3.32902 9.61033 3.46967 9.46968C3.61032 9.32902 3.80109 9.25001 4 9.25001L7.65505 9.25002L12.6261 3.45041ZM7.25 10.75L4.75 10.75V19.25L7.25 19.25V10.75ZM8.75 19.25L17.3604 19.25C17.9562 19.25 18.4693 18.8294 18.5861 18.2452L19.7861 12.2452C19.9408 11.4717 19.3492 10.75 18.5604 10.75H14C13.7234 10.75 13.4693 10.5978 13.3387 10.3539C13.2082 10.11 13.2225 9.81412 13.376 9.58398L15.8017 5.94535C16.2812 5.22611 15.9034 4.24895 15.0648 4.03929L15.0173 4.0274C14.5579 3.91257 14.0731 4.06711 13.765 4.42659L8.75 10.2775V19.25Z" fill="black"/>
</svg>
