<svg width="24" height="24" viewBox="0 0 24 24" fill="none" xmlns="http://www.w3.org/2000/svg">
<path fill-rule="evenodd" clip-rule="evenodd" d="M12 3.75C7.99594 3.75 4.75 6.99594 4.75 11C4.75 14.8862 7.84584 18.203 12 20.1734C16.1542 18.203 19.25 14.8862 19.25 11C19.25 6.99594 16.0041 3.75 12 3.75ZM3.25 11C3.25 6.16751 7.16751 2.25 12 2.25C16.8325 2.25 20.75 6.16751 20.75 11C20.75 15.8545 16.837 19.6337 12.3093 21.6833C12.1127 21.7722 11.8873 21.7722 11.6907 21.6833C7.163 19.6337 3.25 15.8545 3.25 11ZM12 8.75C10.7574 8.75 9.75 9.75736 9.75 11C9.75 12.2426 10.7574 13.25 12 13.25C13.2426 13.25 14.25 12.2426 14.25 11C14.25 9.75736 13.2426 8.75 12 8.75ZM8.25 11C8.25 8.92893 9.92893 7.25 12 7.25C14.0711 7.25 15.75 8.92893 15.75 11C15.75 13.0711 14.0711 14.75 12 14.75C9.92893 14.75 8.25 13.0711 8.25 11Z" fill="black"/>
</svg>
