<svg width="24" height="24" fill="none" xmlns="http://www.w3.org/2000/svg"><path d="M11.787 2.278a.659.659 0 0 0-.447.326c-.071.121-.082.224-.094.906-.014.751-.017.771-.1.786l-.574.1C9.371 4.602 8.075 5.201 7.1 6c-.376.309-1.03.991-1.303 1.36-.712.962-1.211 2.104-1.401 3.212l-.1.574c-.015.083-.035.086-.786.1-.84.015-.942.041-1.12.279-.168.226-.168.724 0 .95.178.238.28.264 1.12.279.751.014.771.017.786.1l.1.574c.342 1.989 1.575 3.855 3.324 5.03.795.533 1.922.986 2.852 1.146l.574.1c.083.015.086.035.1.786.015.84.041.942.279 1.12.226.168.724.168.95 0 .238-.178.264-.28.279-1.12.014-.751.017-.771.1-.786l.574-.1c1.201-.206 2.497-.805 3.472-1.604.376-.309 1.03-.991 1.303-1.36.712-.962 1.211-2.104 1.401-3.212l.1-.574c.015-.083.035-.086.786-.1.682-.012.785-.023.906-.094.273-.161.396-.478.327-.845a.646.646 0 0 0-.327-.475c-.121-.071-.224-.082-.906-.094-.751-.014-.771-.017-.786-.1l-.1-.574c-.342-1.989-1.575-3.855-3.324-5.03-.795-.533-1.922-.986-2.852-1.146l-.578-.101c-.089-.016-.09-.025-.092-.666-.002-.723-.032-.948-.148-1.103-.158-.213-.491-.313-.823-.248M11.24 8.52v2.72H5.793l.027-.17A6.423 6.423 0 0 1 7.044 8.2 8.16 8.16 0 0 1 8.26 6.993a6.855 6.855 0 0 1 1.8-.93c.302-.101.957-.254 1.11-.26.066-.003.07.152.07 2.717m2.2-2.596c1.79.413 3.331 1.645 4.17 3.336.258.519.478 1.218.57 1.81l.027.17H12.76V5.793l.17.027c.093.014.323.061.51.104m-2.2 9.56v2.723l-.17-.027a6.366 6.366 0 0 1-2.89-1.243 7.883 7.883 0 0 1-1.185-1.197 6.527 6.527 0 0 1-1.175-2.81l-.027-.17h5.447v2.724m6.94-2.554a6.285 6.285 0 0 1-3.44 4.68 6.692 6.692 0 0 1-1.81.57l-.17.027V12.76h5.447l-.027.17" fill-rule="evenodd" fill="#000"/></svg>