<svg width="24" height="24" fill="none" xmlns="http://www.w3.org/2000/svg"><path d="M11.48 2.279c-1.898.171-3.29 1.242-3.915 3.013-.28.793-.294.927-.314 3.035l-.019 1.907-1.246.013c-1.172.012-1.254.018-1.386.095-.206.121-.31.301-.339.589-.014.137-.02 2.517-.013 5.289.012 4.957.013 5.042.092 5.176a.652.652 0 0 0 .466.327c.096.018 3.333.034 7.194.034 3.861 0 7.098-.016 7.194-.034a.652.652 0 0 0 .466-.327c.079-.134.08-.219.092-5.176.007-2.772.001-5.152-.013-5.289-.029-.288-.133-.468-.339-.589-.132-.077-.214-.083-1.386-.095l-1.246-.013-.019-1.907c-.02-2.108-.034-2.242-.314-3.035-.564-1.6-1.822-2.681-3.428-2.948a6.926 6.926 0 0 0-1.527-.065m1.2 1.524c1.193.193 2.039.966 2.426 2.217l.112.36.013 1.93.013 1.93H8.756l.013-1.93.013-1.93.112-.36c.326-1.053.984-1.778 1.889-2.082a3.86 3.86 0 0 1 .504-.133c.303-.051 1.087-.052 1.393-.002M18.24 16v4.24H5.76v-8.48h12.48V16" fill-rule="evenodd" fill="#000"/></svg>