<svg width="24" height="24" viewBox="0 0 24 24" fill="none" xmlns="http://www.w3.org/2000/svg">
<path fill-rule="evenodd" clip-rule="evenodd" d="M14.25 4C14.25 3.58579 14.5858 3.25 15 3.25H18C19.5188 3.25 20.75 4.48122 20.75 6L20.75 18C20.75 19.5188 19.5188 20.75 18 20.75H15C14.5858 20.75 14.25 20.4142 14.25 20C14.25 19.5858 14.5858 19.25 15 19.25H18C18.6904 19.25 19.25 18.6904 19.25 18L19.25 6C19.25 5.30964 18.6904 4.75 18 4.75H15C14.5858 4.75 14.25 4.41421 14.25 4ZM10.4697 7.46967C10.7626 7.17678 11.2374 7.17678 11.5303 7.46967L15.5303 11.4697C15.8232 11.7626 15.8232 12.2374 15.5303 12.5303L11.5303 16.5303C11.2374 16.8232 10.7626 16.8232 10.4697 16.5303C10.1768 16.2374 10.1768 15.7626 10.4697 15.4697L13.1893 12.75H3C2.58579 12.75 2.25 12.4142 2.25 12C2.25 11.5858 2.58579 11.25 3 11.25H13.1893L10.4697 8.53033C10.1768 8.23744 10.1768 7.76256 10.4697 7.46967Z" fill="black"/>
</svg>
