<svg width="24" height="24" viewBox="0 0 24 24" fill="none" xmlns="http://www.w3.org/2000/svg">
<path fill-rule="evenodd" clip-rule="evenodd" d="M14.25 4C14.25 3.58579 14.5858 3.25 15 3.25H18C19.5188 3.25 20.75 4.48122 20.75 6V18C20.75 19.5188 19.5188 20.75 18 20.75H15C14.5858 20.75 14.25 20.4142 14.25 20C14.25 19.5858 14.5858 19.25 15 19.25H18C18.6904 19.25 19.25 18.6904 19.25 18V6C19.25 5.30964 18.6904 4.75 18 4.75H15C14.5858 4.75 14.25 4.41421 14.25 4ZM8.53033 7.46967C8.82322 7.76256 8.82322 8.23744 8.53033 8.53033L5.81066 11.25L16 11.25C16.4142 11.25 16.75 11.5858 16.75 12C16.75 12.4142 16.4142 12.75 16 12.75H5.81066L8.53033 15.4697C8.82322 15.7626 8.82322 16.2374 8.53033 16.5303C8.23744 16.8232 7.76256 16.8232 7.46967 16.5303L3.46967 12.5303C3.32902 12.3897 3.25 12.1989 3.25 12C3.25 11.8011 3.32902 11.6103 3.46967 11.4697L7.46967 7.46967C7.76256 7.17678 8.23744 7.17678 8.53033 7.46967Z" fill="black"/>
</svg>
