<svg width="24" height="24" viewBox="0 0 24 24" fill="none" xmlns="http://www.w3.org/2000/svg">
<path fill-rule="evenodd" clip-rule="evenodd" d="M12.0001 3.25C12.4143 3.25 12.7501 3.58579 12.7501 4V8.53648L14.25 9.28647V7.09523C14.25 6.07614 15.0762 5.25 16.0953 5.25C16.7416 5.25 17.3464 5.58916 17.6778 6.15225C20.1192 10.3002 21.0443 13.0292 21.5203 16.7414C21.7298 18.3755 20.4226 19.75 18.8254 19.75H17C15.4812 19.75 14.25 18.5188 14.25 17V10.9635L12.0001 9.83852L9.74998 10.9635L9.75003 17C9.75003 18.5188 8.51881 19.75 7.00003 19.75H5.17464C3.57746 19.75 2.27025 18.3755 2.47977 16.7414C2.95572 13.0292 3.88087 10.3002 6.32222 6.15225C6.65364 5.58916 7.25849 5.25 7.90479 5.25C8.92389 5.25 9.75003 6.07614 9.75003 7.09523L9.74999 9.28648L11.2501 8.53647V4C11.2501 3.58579 11.5858 3.25 12.0001 3.25ZM7.90479 6.75C7.78281 6.75 7.67322 6.81407 7.61493 6.9131C5.2615 10.9116 4.41423 13.4486 3.96759 16.9321C3.87941 17.6199 4.43093 18.25 5.17464 18.25H7.00003C7.69038 18.25 8.25003 17.6904 8.25003 17V7.09523C8.25003 7.09523 8.25003 7.09524 8.25003 7.09523C8.25002 6.90457 8.09546 6.75 7.90479 6.75ZM16.0953 6.75C15.9046 6.75 15.75 6.90457 15.75 7.09523V17C15.75 17.6904 16.3097 18.25 17 18.25H18.8254C19.5691 18.25 20.1206 17.6199 20.0325 16.9321C19.5858 13.4486 18.7385 10.9116 16.3851 6.9131C16.3268 6.81407 16.2172 6.75 16.0953 6.75Z" fill="black"/>
</svg>
