<svg width="24" height="24" viewBox="0 0 24 24" fill="none" xmlns="http://www.w3.org/2000/svg">
<path fill-rule="evenodd" clip-rule="evenodd" d="M2.56147 2.39157C2.75704 2.25061 3.00846 2.21226 3.23717 2.28849L9 4.20944L14.7628 2.28849C14.9168 2.23718 15.0832 2.23718 15.2372 2.28849L21.2372 4.28849C21.5434 4.39058 21.75 4.67718 21.75 5.00001V21C21.75 21.2411 21.6341 21.4675 21.4385 21.6084C21.243 21.7494 20.9915 21.7878 20.7628 21.7115L15 19.7906L9.23717 21.7115C9.08322 21.7628 8.91678 21.7628 8.76283 21.7115L2.76283 19.7115C2.45657 19.6094 2.25 19.3228 2.25 19V3.00001C2.25 2.75892 2.36589 2.53254 2.56147 2.39157ZM15.75 18.4594L20.25 19.9594V5.54058L15.75 4.04058V18.4594ZM14.25 4.04058V18.4594L9.75 19.9594V5.54058L14.25 4.04058ZM8.25 5.54058L3.75 4.04057V18.4594L8.25 19.9594V5.54058Z" fill="black"/>
</svg>
