<svg width="24" height="24" fill="none" xmlns="http://www.w3.org/2000/svg"><path d="M10.617 2.281c-.589.074-1.1.331-1.552.784-.646.645-.824 1.198-.825 2.561v.605l-1.35.019c-1.491.021-1.594.035-2.11.289A2.838 2.838 0 0 0 3.33 8.32c-.065.242-.07.609-.07 5.18s.005 4.938.07 5.18a2.838 2.838 0 0 0 1.99 1.99c.243.065.677.07 6.68.07s6.437-.005 6.68-.07a2.838 2.838 0 0 0 1.99-1.99c.065-.242.07-.609.07-5.18s-.005-4.938-.07-5.18a2.838 2.838 0 0 0-1.45-1.781c-.516-.254-.62-.268-2.104-.289l-1.345-.018-.022-.846c-.025-.938-.062-1.148-.288-1.606a2.81 2.81 0 0 0-1.241-1.241c-.515-.253-.623-.268-2.04-.281-.704-.007-1.408.004-1.563.023m2.837 1.56c.29.109.596.415.705.705.071.189.081.311.081.956v.738H9.76v-.738c0-.892.043-1.053.366-1.376.35-.35.408-.361 1.862-.364 1.16-.002 1.264.004 1.466.079m5 4c.29.109.596.415.705.705.08.214.081.292.081 4.954s-.001 4.74-.081 4.954c-.109.29-.415.596-.705.705-.215.08-.285.081-6.454.081s-6.239-.001-6.454-.081a1.342 1.342 0 0 1-.705-.705c-.08-.214-.081-.292-.081-4.954s.001-4.74.081-4.954c.106-.282.415-.596.694-.703.201-.077.331-.079 6.453-.081 6.184-.002 6.251-.001 6.466.079m-6.667 1.437a.659.659 0 0 0-.447.326c-.076.128-.081.22-.093 1.646l-.012 1.51H9.75c-1.417 0-1.492.004-1.655.082-.457.222-.457 1.094 0 1.316.163.078.238.082 1.655.082h1.485l.012 1.51c.012 1.426.017 1.518.093 1.646a.646.646 0 0 0 .475.327c.367.069.684-.054.845-.327.076-.128.081-.22.093-1.646l.012-1.51h1.485c1.417 0 1.492-.004 1.655-.082.222-.108.335-.33.335-.658s-.113-.55-.335-.658c-.163-.078-.238-.082-1.658-.082H12.76l-.002-1.39c-.002-1.457-.019-1.671-.148-1.844-.158-.213-.491-.313-.823-.248" fill-rule="evenodd" fill="#000"/></svg>