<svg width="24" height="24" viewBox="0 0 24 24" fill="none" xmlns="http://www.w3.org/2000/svg">
<path fill-rule="evenodd" clip-rule="evenodd" d="M6.25 5C6.25 4.0335 7.0335 3.25 8 3.25H16C16.9665 3.25 17.75 4.0335 17.75 5V6C17.75 6.6981 17.3412 7.30073 16.75 7.58159V8.82295L18.4597 12.2423C18.6506 12.6242 18.75 13.0452 18.75 13.4721V19C18.75 20.5188 17.5188 21.75 16 21.75H8C6.48122 21.75 5.25 20.5188 5.25 19V13.4721C5.25 13.0452 5.3494 12.6242 5.54033 12.2423L7.25 8.82295V7.58159C6.65876 7.30073 6.25 6.6981 6.25 6V5ZM8.75 7.75V9C8.75 9.11643 8.72289 9.23127 8.67082 9.33541L6.88197 12.9131C6.79518 13.0867 6.75 13.2781 6.75 13.4721V19C6.75 19.6904 7.30964 20.25 8 20.25H16C16.6904 20.25 17.25 19.6904 17.25 19V13.4721C17.25 13.2781 17.2048 13.0867 17.118 12.9131L15.3292 9.33541C15.2771 9.23127 15.25 9.11643 15.25 9V7.75H8.75ZM8 4.75C7.86193 4.75 7.75 4.86193 7.75 5V6C7.75 6.13807 7.86193 6.25 8 6.25H16C16.1381 6.25 16.25 6.13807 16.25 6V5C16.25 4.86193 16.1381 4.75 16 4.75H8ZM12 10.25C12.4142 10.25 12.75 10.5858 12.75 11V13.25H15C15.4142 13.25 15.75 13.5858 15.75 14C15.75 14.4142 15.4142 14.75 15 14.75H12.75V17C12.75 17.4142 12.4142 17.75 12 17.75C11.5858 17.75 11.25 17.4142 11.25 17V14.75H9C8.58579 14.75 8.25 14.4142 8.25 14C8.25 13.5858 8.58579 13.25 9 13.25H11.25V11C11.25 10.5858 11.5858 10.25 12 10.25Z" fill="black"/>
</svg>
