<svg width="24" height="24" fill="none" xmlns="http://www.w3.org/2000/svg"><path d="M10.84 2.281A9.243 9.243 0 0 0 3.778 6.42a9.325 9.325 0 0 0-1.438 3.82c-.092.663-.093 1.848-.003 2.5a9.375 9.375 0 0 0 1.441 3.84c1.248 1.898 3.204 3.303 5.375 3.863 1.936.5 4.219.36 5.887-.359l.363-.156 2.748.916c1.986.661 2.8.916 2.933.916.233 0 .422-.122.552-.356.184-.334.186-.324-.811-3.311l-.91-2.727.108-.212c.27-.532.558-1.622.66-2.494.062-.524.061-1.779-.001-2.26a9.328 9.328 0 0 0-1.553-4.12c-1.286-1.872-3.233-3.224-5.409-3.754a9.835 9.835 0 0 0-2.88-.245m1.715 1.541c1.764.258 3.253 1.015 4.488 2.284.644.662 1.049 1.232 1.418 1.994a7.55 7.55 0 0 1 .779 3.408c0 1.249-.237 2.365-.687 3.242-.14.273-.193.421-.193.543 0 .109.249.912.719 2.325a88.58 88.58 0 0 1 .708 2.169 88.58 88.58 0 0 1-2.169-.708c-1.456-.485-2.214-.719-2.331-.719-.131 0-.261.048-.54.198-1.293.695-3.413.887-5.107.463-1.441-.361-2.636-1.052-3.683-2.127-.644-.662-1.049-1.232-1.418-1.994a7.78 7.78 0 0 1-.56-5.26 7.838 7.838 0 0 1 1.503-3.02c.268-.327.882-.937 1.199-1.192 1.018-.819 2.36-1.395 3.739-1.605.503-.077 1.611-.077 2.135-.001m-5.463 7.021c-.454.225-.452 1.094.003 1.315.379.183.909.067 1.063-.233.113-.222.113-.628 0-.85-.154-.301-.691-.418-1.066-.232m4 0c-.22.109-.332.331-.332.657 0 .489.253.741.743.739.505-.002.737-.234.737-.739 0-.352-.103-.558-.332-.662-.232-.105-.598-.103-.816.005m4 0c-.22.109-.332.331-.332.657 0 .489.253.741.743.739.505-.002.737-.234.737-.739 0-.352-.103-.558-.332-.662-.232-.105-.598-.103-.816.005" fill-rule="evenodd" fill="#000"/></svg>