<svg width="24" height="24" fill="none" xmlns="http://www.w3.org/2000/svg"><path d="M3.787 3.279a.651.651 0 0 0-.447.325c-.079.134-.08.219-.092 6.176-.007 3.322-.001 6.152.013 6.289.029.288.133.468.339.589.132.077.214.083 1.388.095l1.249.013.011 2.227c.013 2.487-.002 2.354.301 2.604.202.167.402.219.621.161.151-.039.447-.321 2.65-2.52l2.48-2.476 3.98-.011c3.933-.011 3.982-.012 4.12-.093.206-.121.31-.301.339-.589.014-.137.02-2.967.013-6.289-.012-5.957-.013-6.042-.092-6.176a.652.652 0 0 0-.466-.327c-.213-.041-16.193-.04-16.407.002m15.453 6.72v5.239l-3.73.011c-3.045.009-3.748.021-3.83.065-.055.03-.96.912-2.01 1.96L7.76 19.18l-.002-1.6c-.001-.88-.017-1.678-.035-1.774a.652.652 0 0 0-.327-.466c-.127-.075-.221-.081-1.386-.093l-1.25-.013V4.76h14.48v5.239" fill-rule="evenodd" fill="#000"/></svg>