<svg width="24" height="24" viewBox="0 0 24 24" fill="none" xmlns="http://www.w3.org/2000/svg">
<path fill-rule="evenodd" clip-rule="evenodd" d="M1.25 7.2C1.25 6.17844 2.02994 5.25 3.11111 5.25H20.8889C21.9701 5.25 22.75 6.17844 22.75 7.2V16.8C22.75 17.8216 21.9701 18.75 20.8889 18.75H3.11111C2.02994 18.75 1.25 17.8216 1.25 16.8V7.2ZM3.11111 6.75C2.96498 6.75 2.75 6.89607 2.75 7.2V16.8C2.75 17.1039 2.96498 17.25 3.11111 17.25H20.8889C21.035 17.25 21.25 17.1039 21.25 16.8V7.2C21.25 6.89607 21.035 6.75 20.8889 6.75H3.11111ZM6 8.75C6.41421 8.75 6.75 9.08579 6.75 9.5V14.5C6.75 14.9142 6.41421 15.25 6 15.25C5.58579 15.25 5.25 14.9142 5.25 14.5V9.5C5.25 9.08579 5.58579 8.75 6 8.75ZM12 10.25C11.0335 10.25 10.25 11.0335 10.25 12C10.25 12.9665 11.0335 13.75 12 13.75C12.9665 13.75 13.75 12.9665 13.75 12C13.75 11.0335 12.9665 10.25 12 10.25ZM8.75 12C8.75 10.2051 10.2051 8.75 12 8.75C13.7949 8.75 15.25 10.2051 15.25 12C15.25 13.7949 13.7949 15.25 12 15.25C10.2051 15.25 8.75 13.7949 8.75 12ZM18 8.75C18.4142 8.75 18.75 9.08579 18.75 9.5V14.5C18.75 14.9142 18.4142 15.25 18 15.25C17.5858 15.25 17.25 14.9142 17.25 14.5V9.5C17.25 9.08579 17.5858 8.75 18 8.75Z" fill="black"/>
</svg>
