<svg width="24" height="24" viewBox="0 0 24 24" fill="none" xmlns="http://www.w3.org/2000/svg">
<path fill-rule="evenodd" clip-rule="evenodd" d="M12 2.25C12.3039 2.25 12.5778 2.43341 12.6935 2.71444L19.6935 19.7144C19.8096 19.9962 19.7436 20.3202 19.5266 20.5341C19.3095 20.748 18.9847 20.8094 18.7046 20.6894L12 17.816L5.29546 20.6894C5.01538 20.8094 4.6905 20.748 4.47349 20.5341C4.25649 20.3202 4.19049 19.9962 4.30651 19.7144L11.3065 2.71444C11.4222 2.43341 11.6961 2.25 12 2.25ZM6.39291 18.5871L11.7046 16.3106C11.8932 16.2298 12.1068 16.2298 12.2955 16.3106L17.6071 18.5871L12 4.9698L6.39291 18.5871Z" fill="black"/>
</svg>
