<svg width="24" height="24" viewBox="0 0 24 24" fill="none" xmlns="http://www.w3.org/2000/svg">
<path fill-rule="evenodd" clip-rule="evenodd" d="M9.2583 2.88874C9.31337 2.5216 9.62875 2.25 10 2.25H14C14.3712 2.25 14.6866 2.5216 14.7417 2.88874L16.1541 12.3045C18.1494 12.6429 19.5 14.5068 19.5 16.5C19.5 18.2184 18.6133 19.3242 17.4786 19.9592C16.5092 20.5017 15.364 20.705 14.4177 20.7431C13.7968 21.3684 12.9372 21.75 12 21.75C11.0628 21.75 10.2032 21.3684 9.58228 20.7431C8.63599 20.705 7.49078 20.5017 6.52136 19.9592C5.38674 19.3242 4.5 18.2184 4.5 16.5C4.5 14.5068 5.85055 12.6429 7.84593 12.3045L9.2583 2.88874ZM8.68808 19.1394C8.66952 19.062 8.65356 18.9835 8.64031 18.9039L8.5519 18.3735C8.1601 18.3487 7.85 18.0231 7.85 17.625C7.85 17.2108 8.18579 16.875 8.6 16.875H9.1625C9.16571 16.875 9.16891 16.875 9.17211 16.8751C9.53877 16.8671 9.86523 17.1293 9.9273 17.5017L10.1199 18.6573C10.175 18.9879 10.3125 19.2855 10.5094 19.5321C10.8621 19.9739 11.4032 20.25 12 20.25C12.5968 20.25 13.1379 19.9739 13.4906 19.5321C13.6875 19.2855 13.825 18.9879 13.8801 18.6573L14.0727 17.5017C14.133 17.1401 14.4459 16.875 14.8125 16.875H15.375C15.7892 16.875 16.125 17.2108 16.125 17.625C16.125 18.0144 15.8282 18.3345 15.4484 18.3715L15.3597 18.9039C15.3464 18.9835 15.3305 19.062 15.3119 19.1394C15.8186 19.0463 16.3188 18.8893 16.7461 18.6502C17.4821 18.2383 18 17.5941 18 16.5C18 14.9761 16.8793 13.75 15.5 13.75C15.1288 13.75 14.8134 13.4784 14.7583 13.1113L13.3541 3.75H10.6459L9.2417 13.1113C9.18663 13.4784 8.87125 13.75 8.5 13.75C7.12067 13.75 6 14.9761 6 16.5C6 17.5941 6.5179 18.2383 7.2539 18.6502C7.68118 18.8893 8.18143 19.0463 8.68808 19.1394Z" fill="black"/>
</svg>
