<svg width="24" height="24" fill="none" xmlns="http://www.w3.org/2000/svg"><path d="M4.459 2.28c-1.103.152-2.027 1.085-2.173 2.195-.073.548.043 2.375.216 3.425a16.921 16.921 0 0 0 3.378 7.603 16.768 16.768 0 0 0 3.78 3.464c2.189 1.442 4.625 2.325 7.316 2.653.659.08 2.205.139 2.547.097.908-.111 1.77-.814 2.08-1.697.137-.388.164-.862.146-2.499-.018-1.68-.024-1.733-.266-2.219a2.569 2.569 0 0 0-.748-.896c-.95-.715-2.752-1.247-4.234-1.249-1.029-.001-1.557.23-2.404 1.051l-.403.391-.197-.125c-1.034-.653-2.262-1.743-3.063-2.719-.384-.467-1.034-1.379-1.034-1.45 0-.026.145-.19.322-.366.537-.531.859-1.021 1.024-1.561.058-.191.072-.369.071-.898-.002-.748-.089-1.347-.316-2.173-.395-1.441-.974-2.34-1.778-2.763-.516-.271-.56-.276-2.383-.287-.902-.006-1.749.005-1.881.023m10.237.001c-.186.057-.33.225-.4.467-.144.494.057.878.504.965l.555.107c1.456.281 2.777 1.153 3.794 2.505a5.699 5.699 0 0 1 1.075 2.555c.07.441.169.675.325.767.296.175.777.117 1.014-.122.189-.19.217-.372.136-.877a7.157 7.157 0 0 0-1.172-2.951c-.948-1.414-2.276-2.476-3.82-3.056-.681-.256-1.737-.445-2.011-.36M7.98 3.854c.26.121.46.347.662.749.328.654.584 1.607.68 2.536.092.894-.02 1.129-.962 2.023-.873.829-.885.891-.346 1.763 1.113 1.798 2.521 3.303 4.186 4.471.701.491 1.357.882 1.529.91.34.055.399.018 1.13-.721.832-.841.948-.914 1.496-.938.845-.038 2.193.265 3.005.674.423.213.617.366.747.587l.113.192.012 1.649c.011 1.614.01 1.653-.075 1.849a1.19 1.19 0 0 1-.572.565c-.362.165-2.272.056-3.589-.205-3.922-.776-7.221-2.907-9.503-6.138A15.063 15.063 0 0 1 4.26 8.94a14.593 14.593 0 0 1-.487-3.481c-.023-.784-.019-.853.055-1.022.114-.258.32-.475.552-.583.199-.093.208-.093 1.8-.093s1.601 0 1.8.093m6.057 2.014c-.186.157-.275.382-.276.7-.001.256.006.276.149.426.113.119.21.174.39.223.882.241 1.27.433 1.66.823.39.39.582.779.822 1.658a.802.802 0 0 0 .217.39c.146.147.161.152.428.152.333 0 .586-.111.723-.316.12-.182.118-.478-.007-.944-.431-1.604-1.519-2.692-3.123-3.123a2.947 2.947 0 0 0-.607-.097c-.21 0-.266.016-.376.108" fill-rule="evenodd" fill="#000"/></svg>