<svg width="24" height="24" viewBox="0 0 24 24" fill="none" xmlns="http://www.w3.org/2000/svg">
<path fill-rule="evenodd" clip-rule="evenodd" d="M21.2615 12.3308C16.0782 7.13935 7.95845 7.10263 2.74111 12.3281C2.72508 12.3442 2.70833 12.3595 2.69091 12.374C2.3349 12.6711 2.31376 13.255 2.63679 13.5754L2.63896 13.5776L4.29493 15.2336L4.30794 15.2469C4.44481 15.3908 4.63002 15.4793 4.82857 15.4956C4.94614 15.5052 5.16193 15.4763 5.47294 15.3669C5.77101 15.262 6.10304 15.1022 6.43096 14.9096C7.11863 14.5056 7.64585 14.0427 7.81415 13.7834C7.90977 13.6361 7.96471 13.4178 7.97494 13.0768C7.97993 12.9105 7.97415 12.7358 7.96579 12.5426C7.96465 12.5163 7.96345 12.4894 7.96223 12.4621C7.95491 12.2982 7.94684 12.1175 7.94701 11.9458C7.94734 11.6086 8.17256 11.3132 8.49752 11.2235C10.798 10.5888 13.2261 10.5863 15.5257 11.2166C15.8518 11.306 16.0778 11.6025 16.0775 11.9407C16.0773 12.1124 16.0689 12.2932 16.0612 12.4571C16.0599 12.4844 16.0587 12.5113 16.0575 12.5375C16.0488 12.7307 16.0426 12.9055 16.0473 13.0718C16.0569 13.413 16.1114 13.6306 16.2062 13.7769C16.3731 14.0345 16.8965 14.4941 17.5809 14.8961C17.9072 15.0877 18.2377 15.2468 18.5348 15.3516C18.8446 15.4609 19.0608 15.4906 19.1797 15.4816C19.3765 15.4666 19.5616 15.3805 19.7002 15.2391L19.7054 15.2338L21.3642 13.5751C21.3642 13.575 21.3641 13.5751 21.3642 13.5751C21.6878 13.2506 21.6629 12.6696 21.3119 12.3769C21.2945 12.3623 21.2776 12.3469 21.2615 12.3308ZM22.301 11.249C16.5409 5.5028 7.5014 5.4604 1.7016 11.2463C0.691744 12.1173 0.64101 13.7072 1.57925 14.6392C1.57965 14.6396 1.58005 14.64 1.58046 14.6404L3.22832 16.2883C3.6187 16.6949 4.1444 16.9447 4.70645 16.9906C5.12752 17.025 5.57435 16.9214 5.97083 16.7818C6.38025 16.6378 6.80058 16.4321 7.19078 16.2029C7.93933 15.7631 8.71135 15.1563 9.07238 14.6C9.38939 14.1116 9.46096 13.5654 9.47427 13.1218C9.48048 12.9148 9.47412 12.7106 9.4665 12.5274C11.1433 12.1537 12.8809 12.1518 14.5567 12.5217C14.5488 12.7043 14.5421 12.9077 14.5479 13.1138C14.5603 13.5572 14.6307 14.1038 14.9473 14.5925C15.3073 15.1481 16.0763 15.7519 16.8213 16.1895C17.2097 16.4176 17.6281 16.6223 18.0358 16.7661C18.4307 16.9055 18.8749 17.0092 19.2937 16.9772C19.8519 16.9347 20.3758 16.6911 20.7684 16.2922L22.4253 14.6352C23.3561 13.7027 23.309 12.1179 22.301 11.249Z" fill="black"/>
</svg>
