<svg width="24" height="24" fill="none" xmlns="http://www.w3.org/2000/svg"><path d="M14.729 2.285c-.209.103-.435.36-.496.563-.099.329-.072.365 1.38 1.822L16.937 6l-1.324 1.33c-1.462 1.467-1.479 1.491-1.376 1.835.067.223.381.535.598.594.359.096.371.087 1.835-1.371L18 7.063l1.33 1.325c1.464 1.458 1.476 1.467 1.835 1.371.221-.06.534-.373.594-.594.096-.359.087-.371-1.371-1.835L19.063 6l1.325-1.33c1.458-1.464 1.467-1.476 1.371-1.835-.059-.217-.371-.531-.594-.598-.344-.103-.368-.086-1.835 1.376l-1.331 1.325-1.309-1.307c-1.519-1.516-1.561-1.544-1.961-1.346M4.459 2.28c-1.103.152-2.027 1.085-2.173 2.195-.073.548.043 2.375.216 3.425a16.921 16.921 0 0 0 3.378 7.603 16.768 16.768 0 0 0 3.78 3.464c2.189 1.442 4.625 2.325 7.316 2.653.659.08 2.205.139 2.547.097.908-.111 1.77-.814 2.08-1.697.137-.388.164-.862.146-2.499-.018-1.68-.024-1.733-.266-2.219a2.569 2.569 0 0 0-.748-.896c-.95-.715-2.752-1.247-4.234-1.249-1.029-.001-1.557.23-2.404 1.051l-.403.391-.197-.125c-1.034-.653-2.262-1.743-3.063-2.719-.384-.467-1.034-1.379-1.034-1.45 0-.026.145-.19.322-.366.537-.531.859-1.021 1.024-1.561.058-.191.072-.369.071-.898-.002-.748-.089-1.347-.316-2.173-.395-1.441-.974-2.34-1.778-2.763-.516-.271-.56-.276-2.383-.287-.902-.006-1.749.005-1.881.023M7.98 3.854c.26.121.46.347.662.749.328.654.584 1.607.68 2.536.092.894-.02 1.129-.962 2.023-.873.829-.885.891-.346 1.763 1.113 1.798 2.521 3.303 4.186 4.471.701.491 1.357.882 1.529.91.34.055.399.018 1.13-.721.832-.841.948-.914 1.496-.938.845-.038 2.193.265 3.005.674.423.213.617.366.747.587l.113.192.012 1.649c.011 1.614.01 1.653-.075 1.849a1.19 1.19 0 0 1-.572.565c-.362.165-2.272.056-3.589-.205-3.922-.776-7.221-2.907-9.503-6.138A15.063 15.063 0 0 1 4.26 8.94a14.593 14.593 0 0 1-.487-3.481c-.023-.784-.019-.853.055-1.022.114-.258.32-.475.552-.583.199-.093.208-.093 1.8-.093s1.601 0 1.8.093" fill-rule="evenodd" fill="#000"/></svg>