<svg width="24" height="24" viewBox="0 0 24 24" fill="none" xmlns="http://www.w3.org/2000/svg">
<path fill-rule="evenodd" clip-rule="evenodd" d="M15.6358 3.3444C15.9285 3.18178 16.2935 3.23291 16.5303 3.46969L20.5303 7.46969C20.7671 7.70647 20.8182 8.07153 20.6556 8.36425L15.6556 17.3642C15.5413 17.57 15.3371 17.7101 15.104 17.7428C14.8709 17.7754 14.6361 17.6968 14.4697 17.5303L11 14.0607L4.53036 20.5303C4.23747 20.8232 3.76259 20.8232 3.4697 20.5303C3.17681 20.2374 3.17681 19.7625 3.4697 19.4696L9.93932 13L6.46967 9.53035C6.30326 9.36394 6.22461 9.12906 6.25725 8.89599C6.28989 8.66293 6.43004 8.45869 6.63577 8.3444L15.6358 3.3444ZM11.5374 12.4768C11.5351 12.4744 11.5327 12.472 11.5304 12.4696C11.528 12.4673 11.5256 12.4649 11.5232 12.4626L8.2334 9.17276L15.8697 4.93038L19.0696 8.13032L14.8272 15.7666L11.5374 12.4768Z" fill="black"/>
</svg>
