<svg width="24" height="24" viewBox="0 0 24 24" fill="none" xmlns="http://www.w3.org/2000/svg">
<path fill-rule="evenodd" clip-rule="evenodd" d="M12 3.75C9.65279 3.75 7.75 5.65279 7.75 8C7.75 10.3472 9.65279 12.25 12 12.25C14.3472 12.25 16.25 10.3472 16.25 8C16.25 5.65279 14.3472 3.75 12 3.75ZM6.25 8C6.25 4.82436 8.82436 2.25 12 2.25C15.1756 2.25 17.75 4.82436 17.75 8C17.75 10.9214 15.5713 13.334 12.75 13.7015V21C12.75 21.4142 12.4142 21.75 12 21.75C11.5858 21.75 11.25 21.4142 11.25 21V13.7015C8.42873 13.334 6.25 10.9214 6.25 8Z" fill="black"/>
</svg>
