<svg width="24" height="24" viewBox="0 0 24 24" fill="none" xmlns="http://www.w3.org/2000/svg">
<path fill-rule="evenodd" clip-rule="evenodd" d="M8.25 3C8.25 2.58579 8.58579 2.25 9 2.25H15C15.4142 2.25 15.75 2.58579 15.75 3V3.75H19C19.4142 3.75 19.75 4.08579 19.75 4.5V21C19.75 21.4142 19.4142 21.75 19 21.75H5C4.58579 21.75 4.25 21.4142 4.25 21V4.5C4.25 4.08579 4.58579 3.75 5 3.75H8.25V3ZM8.25 5.25H5.75V20.25H18.25V5.25H15.75V6C15.75 6.41421 15.4142 6.75 15 6.75H9C8.58579 6.75 8.25 6.41421 8.25 6V5.25ZM14.25 3.75H9.75V5.25H14.25V3.75ZM15.5304 11.4697C15.8232 11.7626 15.8232 12.2374 15.5304 12.5303L11.3303 16.7304C11.1897 16.871 10.9989 16.95 10.8 16.95C10.6011 16.95 10.4103 16.871 10.2696 16.7304L8.46972 14.9303C8.17683 14.6374 8.17684 14.1626 8.46974 13.8697C8.76264 13.5768 9.23752 13.5768 9.5304 13.8697L10.8 15.1394L14.4697 11.4697C14.7626 11.1768 15.2375 11.1768 15.5304 11.4697Z" fill="black"/>
</svg>
