<svg width="24" height="24" viewBox="0 0 24 24" fill="none" xmlns="http://www.w3.org/2000/svg">
<path fill-rule="evenodd" clip-rule="evenodd" d="M7.46967 2.46967C7.76257 2.17678 8.23744 2.17678 8.53033 2.46967L10.5303 4.46967C10.8232 4.76256 10.8232 5.23744 10.5303 5.53033C10.2374 5.82322 9.76256 5.82322 9.46967 5.53033L8 4.06066L4.06061 8L5.53032 9.46966C5.82322 9.76255 5.82323 10.2374 5.53034 10.5303C5.23745 10.8232 4.76258 10.8232 4.46968 10.5303L2.46962 8.53034C2.32896 8.38969 2.24994 8.19892 2.24994 8C2.24994 7.80109 2.32896 7.61032 2.46961 7.46967L7.46967 2.46967ZM15.4696 2.46967C15.7625 2.17678 16.2374 2.17678 16.5303 2.46967L21.5303 7.46967C21.8232 7.76256 21.8232 8.23744 21.5303 8.53033L8.53027 21.5303C8.23738 21.8232 7.7625 21.8232 7.46961 21.5303L2.46961 16.5303C2.17672 16.2374 2.17672 15.7626 2.46961 15.4697L15.4696 2.46967ZM13.0606 7L16.9999 10.9393L19.9393 8L15.9999 4.06066L13.0606 7ZM15.9393 12L11.9999 8.06066L8.0606 12L11.9999 15.9393L15.9393 12ZM10.9393 17L6.99994 13.0607L4.0606 16L7.99994 19.9393L10.9393 17ZM12 9.75C12.4142 9.75 12.75 10.0858 12.75 10.5V10.51C12.75 10.9242 12.4142 11.26 12 11.26C11.5858 11.26 11.25 10.9242 11.25 10.51V10.5C11.25 10.0858 11.5858 9.75 12 9.75ZM13.5 11.75C13.9142 11.75 14.25 12.0858 14.25 12.5V12.51C14.25 12.9242 13.9142 13.26 13.5 13.26C13.0858 13.26 12.75 12.9242 12.75 12.51V12.5C12.75 12.0858 13.0858 11.75 13.5 11.75ZM11 12.25C11.4142 12.25 11.75 12.5858 11.75 13V13.01C11.75 13.4242 11.4142 13.76 11 13.76C10.5858 13.76 10.25 13.4242 10.25 13.01V13C10.25 12.5858 10.5858 12.25 11 12.25ZM18.4696 13.4697C18.7625 13.1768 19.2374 13.1768 19.5303 13.4697L21.5303 15.4697C21.8232 15.7626 21.8232 16.2374 21.5303 16.5303L16.5303 21.5303C16.2374 21.8232 15.7625 21.8232 15.4696 21.5303L13.4696 19.5303C13.1767 19.2374 13.1767 18.7626 13.4696 18.4697C13.7625 18.1768 14.2374 18.1768 14.5303 18.4697L15.9999 19.9393L19.9393 16L18.4696 14.5303C18.1767 14.2374 18.1767 13.7626 18.4696 13.4697Z" fill="black"/>
</svg>
