<svg width="24" height="24" viewBox="0 0 24 24" fill="none" xmlns="http://www.w3.org/2000/svg">
<path fill-rule="evenodd" clip-rule="evenodd" d="M12 3.25C12.4142 3.25 12.75 3.58579 12.75 4V12C12.75 12.4142 12.4142 12.75 12 12.75C11.5858 12.75 11.25 12.4142 11.25 12V4C11.25 3.58579 11.5858 3.25 12 3.25ZM8.61514 7.82563C8.85211 8.16536 8.76881 8.63287 8.42907 8.86984C6.80806 10.0005 5.75 11.8768 5.75 14C5.75 17.4518 8.54822 20.25 12 20.25C15.4518 20.25 18.25 17.4518 18.25 14C18.25 11.8768 17.1919 10.0005 15.5709 8.86984C15.2312 8.63287 15.1479 8.16536 15.3849 7.82563C15.6218 7.48589 16.0893 7.40259 16.4291 7.63956C18.435 9.03876 19.75 11.3658 19.75 14C19.75 18.2802 16.2802 21.75 12 21.75C7.71979 21.75 4.25 18.2802 4.25 14C4.25 11.3658 5.56497 9.03876 7.57093 7.63956C7.91066 7.40259 8.37817 7.48589 8.61514 7.82563Z" fill="black"/>
</svg>
