<svg width="24" height="24" viewBox="0 0 24 24" fill="none" xmlns="http://www.w3.org/2000/svg">
<path fill-rule="evenodd" clip-rule="evenodd" d="M8 3.75C5.65279 3.75 3.75 5.65279 3.75 8C3.75 10.3472 5.65279 12.25 8 12.25C10.3472 12.25 12.25 10.3472 12.25 8C12.25 5.65279 10.3472 3.75 8 3.75ZM2.25 8C2.25 4.82436 4.82436 2.25 8 2.25C11.1756 2.25 13.75 4.82436 13.75 8C13.75 10.9214 11.5713 13.334 8.75 13.7015V17C8.75 17.5967 8.98705 18.169 9.40901 18.591C9.83097 19.0129 10.4033 19.25 11 19.25C11.5967 19.25 12.169 19.0129 12.591 18.591C13.0129 18.169 13.25 17.5967 13.25 17V15.5C13.25 14.638 13.5924 13.8114 14.2019 13.2019C14.8114 12.5924 15.638 12.25 16.5 12.25C17.362 12.25 18.1886 12.5924 18.7981 13.2019C19.4076 13.8114 19.75 14.638 19.75 15.5V16.3535C20.9043 16.68 21.75 17.7412 21.75 19C21.75 20.5188 20.5188 21.75 19 21.75C17.4812 21.75 16.25 20.5188 16.25 19C16.25 17.7412 17.0957 16.68 18.25 16.3535V15.5C18.25 15.0359 18.0656 14.5908 17.7374 14.2626C17.4092 13.9344 16.9641 13.75 16.5 13.75C16.0359 13.75 15.5908 13.9344 15.2626 14.2626C14.9344 14.5908 14.75 15.0359 14.75 15.5V17C14.75 17.9946 14.3549 18.9484 13.6517 19.6517C12.9484 20.3549 11.9946 20.75 11 20.75C10.0054 20.75 9.05161 20.3549 8.34835 19.6517C7.64509 18.9484 7.25 17.9946 7.25 17V13.7015C4.42873 13.334 2.25 10.9214 2.25 8ZM8 4.75C8.41421 4.75 8.75 5.08579 8.75 5.5V7.68934L9.78033 8.71967C10.0732 9.01256 10.0732 9.48744 9.78033 9.78033C9.48744 10.0732 9.01256 10.0732 8.71967 9.78033L7.46967 8.53033C7.32902 8.38968 7.25 8.19891 7.25 8V5.5C7.25 5.08579 7.58579 4.75 8 4.75ZM19 17.75C18.3096 17.75 17.75 18.3096 17.75 19C17.75 19.6904 18.3096 20.25 19 20.25C19.6904 20.25 20.25 19.6904 20.25 19C20.25 18.3096 19.6904 17.75 19 17.75Z" fill="black"/>
</svg>
