<svg width="24" height="24" viewBox="0 0 24 24" fill="none" xmlns="http://www.w3.org/2000/svg">
<path fill-rule="evenodd" clip-rule="evenodd" d="M7.25 4C7.25 3.0335 8.0335 2.25 9 2.25H15C15.9665 2.25 16.75 3.0335 16.75 4V8.25H20C20.4142 8.25 20.75 8.58579 20.75 9V18C20.75 18.4142 20.4142 18.75 20 18.75H16.75V21C16.75 21.4142 16.4142 21.75 16 21.75H8C7.58579 21.75 7.25 21.4142 7.25 21V18.75H4C3.58579 18.75 3.25 18.4142 3.25 18V9C3.25 8.58579 3.58579 8.25 4 8.25H7.25V4ZM8.75 8.25H15.25V4C15.25 3.86193 15.1381 3.75 15 3.75H9C8.86193 3.75 8.75 3.86193 8.75 4V8.25ZM7.25 17.25V15C7.25 14.5858 7.58579 14.25 8 14.25H16C16.4142 14.25 16.75 14.5858 16.75 15V17.25H19.25V9.75H4.75V17.25H7.25ZM8.75 15.75V20.25H15.25V15.75H8.75Z" fill="black"/>
</svg>
