<svg width="24" height="24" viewBox="0 0 24 24" fill="none" xmlns="http://www.w3.org/2000/svg">
<path fill-rule="evenodd" clip-rule="evenodd" d="M12 5.75C10.4867 5.75 9.21319 6.78504 8.85236 8.18694C8.74912 8.58808 8.34023 8.82957 7.93909 8.72633C7.53795 8.62308 7.29646 8.2142 7.39971 7.81306C7.92697 5.76451 9.78568 4.25 12 4.25C14.6234 4.25 16.75 6.37665 16.75 9C16.75 10.0405 16.4451 10.8005 15.9607 11.406C15.567 11.8981 15.0575 12.275 14.6286 12.5923C14.5673 12.6377 14.5075 12.6819 14.45 12.725C13.96 13.0925 13.5561 13.4303 13.2591 13.9005C12.9711 14.3565 12.75 14.9941 12.75 16C12.75 16.4142 12.4142 16.75 12 16.75C11.5858 16.75 11.25 16.4142 11.25 16C11.25 14.7559 11.5289 13.831 11.9909 13.0995C12.4439 12.3822 13.04 11.9075 13.55 11.525C13.6165 11.4751 13.6809 11.4272 13.7432 11.3808C14.1874 11.0501 14.5263 10.7978 14.7894 10.469C15.055 10.137 15.25 9.70955 15.25 9C15.25 7.20507 13.7949 5.75 12 5.75ZM12.0001 18.24C12.4143 18.24 12.7501 18.5758 12.7501 18.99V19C12.7501 19.4142 12.4143 19.75 12.0001 19.75C11.5858 19.75 11.2501 19.4142 11.2501 19V18.99C11.2501 18.5758 11.5858 18.24 12.0001 18.24Z" fill="black"/>
</svg>
