<svg width="24" height="24" viewBox="0 0 24 24" fill="none" xmlns="http://www.w3.org/2000/svg">
<path fill-rule="evenodd" clip-rule="evenodd" d="M11.9999 7.75C10.9697 7.75 10.1272 8.3931 9.84955 9.2349C9.71983 9.62827 9.29577 9.842 8.90239 9.71227C8.50902 9.58254 8.29529 9.15848 8.42502 8.7651C8.91197 7.28855 10.3436 6.25 11.9999 6.25C14.0361 6.25 15.7499 7.83091 15.7499 9.85714C15.7499 10.6574 15.501 11.2526 15.1055 11.7235C14.7918 12.0969 14.3864 12.3821 14.0668 12.607C14.0213 12.6391 13.9774 12.6699 13.9359 12.6996C13.5695 12.9613 13.2935 13.1847 13.0937 13.4859C12.905 13.7705 12.7499 14.1797 12.7499 14.8571C12.7499 15.2714 12.4142 15.6071 11.9999 15.6071C11.5857 15.6071 11.2499 15.2714 11.2499 14.8571C11.2499 13.9275 11.4699 13.2206 11.8436 12.6569C12.2064 12.11 12.6804 11.753 13.064 11.479C13.1143 11.443 13.1626 11.4088 13.2088 11.376C13.5456 11.1369 13.7774 10.9723 13.9569 10.7587C14.1239 10.5599 14.2499 10.3069 14.2499 9.85714C14.2499 8.72746 13.2775 7.75 11.9999 7.75ZM12 16.2429C12.4142 16.2429 12.75 16.5786 12.75 16.9929V17C12.75 17.4142 12.4142 17.75 12 17.75C11.5857 17.75 11.25 17.4142 11.25 17V16.9929C11.25 16.5786 11.5857 16.2429 12 16.2429Z" fill="black"/>
</svg>
