<svg width="24" height="24" viewBox="0 0 24 24" fill="none" xmlns="http://www.w3.org/2000/svg">
<path fill-rule="evenodd" clip-rule="evenodd" d="M12 3.75C7.44365 3.75 3.75 7.44365 3.75 12C3.75 16.5563 7.44365 20.25 12 20.25C16.5563 20.25 20.25 16.5563 20.25 12C20.25 7.44365 16.5563 3.75 12 3.75ZM2.25 12C2.25 6.61522 6.61522 2.25 12 2.25C17.3848 2.25 21.75 6.61522 21.75 12C21.75 17.3848 17.3848 21.75 12 21.75C6.61522 21.75 2.25 17.3848 2.25 12ZM12 7.75C10.9698 7.75 10.1272 8.3931 9.8496 9.2349C9.71987 9.62827 9.29581 9.842 8.90243 9.71227C8.50906 9.58254 8.29533 9.15848 8.42506 8.7651C8.91201 7.28855 10.3436 6.25 12 6.25C14.0362 6.25 15.75 7.83091 15.75 9.85714C15.75 10.6574 15.5011 11.2526 15.1055 11.7235C14.7919 12.0969 14.3865 12.3821 14.0669 12.607C14.0213 12.6391 13.9775 12.6699 13.9359 12.6996C13.5696 12.9613 13.2936 13.1847 13.0938 13.4859C12.9051 13.7705 12.75 14.1797 12.75 14.8571C12.75 15.2714 12.4142 15.6071 12 15.6071C11.5858 15.6071 11.25 15.2714 11.25 14.8571C11.25 13.9275 11.4699 13.2206 11.8437 12.6569C12.2064 12.11 12.6804 11.753 13.0641 11.479C13.1144 11.443 13.1626 11.4088 13.2088 11.376C13.5456 11.1369 13.7775 10.9723 13.957 10.7587C14.1239 10.5599 14.25 10.3069 14.25 9.85714C14.25 8.72746 13.2775 7.75 12 7.75ZM12 16.2429C12.4142 16.2429 12.75 16.5786 12.75 16.9929V17C12.75 17.4142 12.4142 17.75 12 17.75C11.5858 17.75 11.25 17.4142 11.25 17V16.9929C11.25 16.5786 11.5858 16.2429 12 16.2429Z" fill="black"/>
</svg>
