<svg width="24" height="24" viewBox="0 0 24 24" fill="none" xmlns="http://www.w3.org/2000/svg">
<path fill-rule="evenodd" clip-rule="evenodd" d="M20 8.25C20.4142 8.25 20.75 8.58579 20.75 9V15C20.75 15.4142 20.4142 15.75 20 15.75H14C13.5858 15.75 13.25 15.4142 13.25 15C13.25 14.5858 13.5858 14.25 14 14.25H18.0664C16.2419 12.5874 14.5214 11.1641 12.1502 10.8305C10.3788 10.5813 8.57448 10.9145 7.00897 11.7798C5.44346 12.6452 4.20163 13.9959 3.47057 15.6283C3.30127 16.0063 2.85757 16.1756 2.47954 16.0063C2.1015 15.837 1.93228 15.3933 2.10158 15.0152C2.96556 13.086 4.43319 11.4897 6.2833 10.467C8.13342 9.44435 10.2658 9.0506 12.3592 9.3451C15.2549 9.75248 17.3589 11.5545 19.25 13.2937V9C19.25 8.58579 19.5858 8.25 20 8.25Z" fill="black"/>
</svg>
