<svg width="24" height="24" viewBox="0 0 24 24" fill="none" xmlns="http://www.w3.org/2000/svg">
<path fill-rule="evenodd" clip-rule="evenodd" d="M3.25 6C3.25 5.0335 4.0335 4.25 5 4.25H19C19.9665 4.25 20.75 5.0335 20.75 6V15C20.75 15.9665 19.9665 16.75 19 16.75H12.75V19.25H16C16.4142 19.25 16.75 19.5858 16.75 20C16.75 20.4142 16.4142 20.75 16 20.75H8C7.58579 20.75 7.25 20.4142 7.25 20C7.25 19.5858 7.58579 19.25 8 19.25H11.25V16.75H5C4.0335 16.75 3.25 15.9665 3.25 15V6ZM5 5.75C4.86193 5.75 4.75 5.86193 4.75 6V15C4.75 15.1381 4.86193 15.25 5 15.25H19C19.1381 15.25 19.25 15.1381 19.25 15V6C19.25 5.86193 19.1381 5.75 19 5.75H5ZM12.4697 6.96967C12.7626 6.67678 13.2374 6.67678 13.5303 6.96967L16.5303 9.96967C16.8232 10.2626 16.8232 10.7374 16.5303 11.0303L13.5303 14.0303C13.2374 14.3232 12.7626 14.3232 12.4697 14.0303C12.1768 13.7374 12.1768 13.2626 12.4697 12.9697L14.1893 11.25H8C7.58579 11.25 7.25 10.9142 7.25 10.5C7.25 10.0858 7.58579 9.75 8 9.75H14.1893L12.4697 8.03033C12.1768 7.73744 12.1768 7.26256 12.4697 6.96967Z" fill="black"/>
</svg>
