<svg width="24" height="24" viewBox="0 0 24 24" fill="none" xmlns="http://www.w3.org/2000/svg">
<path fill-rule="evenodd" clip-rule="evenodd" d="M2.46967 2.46967C2.76256 2.17678 3.23744 2.17678 3.53033 2.46967L21.5303 20.4697C21.8232 20.7626 21.8232 21.2374 21.5303 21.5303C21.2374 21.8232 20.7626 21.8232 20.4697 21.5303L2.46967 3.53033C2.17678 3.23744 2.17678 2.76256 2.46967 2.46967ZM9.25 5C9.25 4.58579 9.58579 4.25 10 4.25H19C19.9665 4.25 20.75 5.0335 20.75 6V15C20.75 15.4142 20.4142 15.75 20 15.75C19.5858 15.75 19.25 15.4142 19.25 15V6C19.25 5.86193 19.1381 5.75 19 5.75H10C9.58579 5.75 9.25 5.41421 9.25 5ZM4 8.25C4.41421 8.25 4.75 8.58579 4.75 9V15C4.75 15.1381 4.86193 15.25 5 15.25H12C12.4142 15.25 12.75 15.5858 12.75 16V19.25H16C16.4142 19.25 16.75 19.5858 16.75 20C16.75 20.4142 16.4142 20.75 16 20.75H8C7.58579 20.75 7.25 20.4142 7.25 20C7.25 19.5858 7.58579 19.25 8 19.25H11.25V16.75H5C4.0335 16.75 3.25 15.9665 3.25 15V9C3.25 8.58579 3.58579 8.25 4 8.25Z" fill="black"/>
</svg>
