<svg width="24" height="24" viewBox="0 0 24 24" fill="none" xmlns="http://www.w3.org/2000/svg">
<path fill-rule="evenodd" clip-rule="evenodd" d="M20.5303 3.46969C20.7444 3.68379 20.8088 4.00561 20.6935 4.28558L13.6935 21.2856C13.5785 21.5648 13.3073 21.7478 13.0054 21.75C12.7034 21.7522 12.4296 21.573 12.3106 21.2955L9.42882 14.5712L2.70456 11.6894C2.42701 11.5704 2.24786 11.2966 2.25002 10.9947C2.25218 10.6927 2.43521 10.4215 2.71444 10.3065L19.7144 3.30651C19.9944 3.19123 20.3162 3.2556 20.5303 3.46969ZM4.93621 11.0139L10.2954 13.3107C10.4725 13.3865 10.6135 13.5276 10.6894 13.7046L12.9862 19.0638L18.6211 5.37888L4.93621 11.0139Z" fill="black"/>
</svg>
