<svg width="24" height="24" viewBox="0 0 24 24" fill="none" xmlns="http://www.w3.org/2000/svg">
<path fill-rule="evenodd" clip-rule="evenodd" d="M11.4697 3.46967C11.7626 3.17678 12.2374 3.17678 12.5303 3.46967L16.5303 7.46967C16.8232 7.76256 16.8232 8.23744 16.5303 8.53033C16.2374 8.82322 15.7626 8.82322 15.4697 8.53033L12.75 5.81066L12.75 16C12.75 16.4142 12.4142 16.75 12 16.75C11.5858 16.75 11.25 16.4142 11.25 16L11.25 5.81066L8.53033 8.53033C8.23744 8.82322 7.76256 8.82322 7.46967 8.53033C7.17678 8.23744 7.17678 7.76256 7.46967 7.46967L11.4697 3.46967ZM4 12.25C4.41421 12.25 4.75 12.5858 4.75 13L4.75 18C4.75 18.6904 5.30964 19.25 6 19.25H18C18.6904 19.25 19.25 18.6904 19.25 18V13C19.25 12.5858 19.5858 12.25 20 12.25C20.4142 12.25 20.75 12.5858 20.75 13V18C20.75 19.5188 19.5188 20.75 18 20.75H6C4.48122 20.75 3.25 19.5188 3.25 18L3.25 13C3.25 12.5858 3.58579 12.25 4 12.25Z" fill="black"/>
</svg>
