<svg width="24" height="24" viewBox="0 0 24 24" fill="none" xmlns="http://www.w3.org/2000/svg">
<path fill-rule="evenodd" clip-rule="evenodd" d="M11.6646 2.32918C11.8757 2.22361 12.1243 2.22361 12.3354 2.32918L20.3354 6.32918C20.5895 6.45622 20.75 6.71592 20.75 7C20.75 9.71364 20.0265 12.9571 18.6251 15.7272C17.2292 18.4864 15.0961 20.8954 12.206 21.7211C12.0714 21.7596 11.9286 21.7596 11.794 21.7211C8.9039 20.8954 6.77079 18.4864 5.37487 15.7272C3.97347 12.9571 3.25 9.71364 3.25 7C3.25 6.71592 3.4105 6.45622 3.66459 6.32918L11.6646 2.32918ZM4.75746 7.45979C4.83397 9.84554 5.4977 12.6472 6.71334 15.0501C7.97487 17.5436 9.76996 19.4954 12 20.2161C14.23 19.4954 16.0251 17.5436 17.2867 15.0501C18.5023 12.6472 19.166 9.84554 19.2425 7.45979L12 3.83853L4.75746 7.45979ZM16.0303 8.96967C16.3232 9.26256 16.3232 9.73744 16.0303 10.0303L11.5303 14.5303C11.2374 14.8232 10.7626 14.8232 10.4697 14.5303L8.96967 13.0303C8.67678 12.7374 8.67678 12.2626 8.96967 11.9697C9.26256 11.6768 9.73744 11.6768 10.0303 11.9697L11 12.9393L14.9697 8.96967C15.2626 8.67678 15.7374 8.67678 16.0303 8.96967Z" fill="black"/>
</svg>
