<svg width="24" height="24" viewBox="0 0 24 24" fill="none" xmlns="http://www.w3.org/2000/svg">
<path fill-rule="evenodd" clip-rule="evenodd" d="M9 2.25L15 2.25C15.1989 2.25 15.3897 2.32902 15.5303 2.46967C15.671 2.61032 15.75 2.80109 15.75 3V6.25L17 6.25C17.4142 6.25 17.75 6.58579 17.75 7L17.75 17C17.75 17.1989 17.671 17.3897 17.5303 17.5303C17.3897 17.671 17.1989 17.75 17 17.75H15.75V21C15.75 21.4142 15.4142 21.75 15 21.75H9C8.58579 21.75 8.25 21.4142 8.25 21L8.25 17.75H7C6.58579 17.75 6.25 17.4142 6.25 17L6.25 7C6.25 6.80109 6.32902 6.61032 6.46967 6.46967C6.61032 6.32902 6.80109 6.25 7 6.25H8.25L8.25 3C8.25 2.58579 8.58579 2.25 9 2.25ZM9.75 6.25L14.25 6.25V3.75L9.75 3.75L9.75 6.25ZM9.75 17.75L9.75 20.25H14.25V17.75H9.75ZM7.75 7.75L7.75 12.25H8.64537L8.7802 11.7893C8.78997 11.7559 8.80206 11.7232 8.81638 11.6915C8.93603 11.4264 9.22941 11.0347 9.75 11.0347C10.2597 11.0347 10.5516 11.4102 10.6759 11.6747L11.4308 13.1845L12.2724 9.8181C12.2815 9.78177 12.2933 9.74617 12.3077 9.71161C12.442 9.38919 12.7064 9.22027 12.8968 9.13859C13.096 9.05316 13.3077 9.01998 13.4963 9.01869C13.6845 9.0174 13.8982 9.04754 14.1002 9.13238C14.2946 9.21402 14.5636 9.38553 14.6961 9.71575C14.7076 9.74436 14.7173 9.77364 14.7251 9.80343L15.3714 12.25H16.25L16.25 7.75H7.75ZM16.25 13.75H15C14.6463 13.75 14.4003 13.5626 14.2633 13.4053C14.1361 13.2591 14.0634 13.0981 14.0237 12.9993C14.0122 12.9707 14.0026 12.9414 13.9947 12.9116L13.5069 11.0648L12.7276 14.1819C12.7185 14.2182 12.7067 14.2538 12.6923 14.2884C12.556 14.6157 12.2851 14.7818 12.0956 14.8598C11.8966 14.9417 11.6864 14.9712 11.5012 14.9708C11.3156 14.9703 11.1075 14.9395 10.911 14.8593C10.729 14.785 10.4689 14.63 10.3247 14.3264L9.81349 13.304C9.76837 13.3632 9.71692 13.4203 9.659 13.4729C9.52366 13.5957 9.28805 13.75 8.97011 13.75H7.75L7.75 16.25H16.25L16.25 13.75Z" fill="black"/>
</svg>
