<svg width="24" height="24" viewBox="0 0 24 24" fill="none" xmlns="http://www.w3.org/2000/svg">
<path fill-rule="evenodd" clip-rule="evenodd" d="M5.25 5C5.25 3.48122 6.48122 2.25 8 2.25H16C17.5188 2.25 18.75 3.48122 18.75 5V19C18.75 20.5188 17.5188 21.75 16 21.75H8C6.48122 21.75 5.25 20.5188 5.25 19V5ZM8 3.75C7.30964 3.75 6.75 4.30964 6.75 5V19C6.75 19.6904 7.30964 20.25 8 20.25H16C16.6904 20.25 17.25 19.6904 17.25 19V5C17.25 4.30964 16.6904 3.75 16 3.75H8ZM12 17.25C12.4142 17.25 12.75 17.5858 12.75 18V18.01C12.75 18.4242 12.4142 18.76 12 18.76C11.5858 18.76 11.25 18.4242 11.25 18.01V18C11.25 17.5858 11.5858 17.25 12 17.25Z" fill="black"/>
</svg>
