<svg width="24" height="24" viewBox="0 0 24 24" fill="none" xmlns="http://www.w3.org/2000/svg">
<path fill-rule="evenodd" clip-rule="evenodd" d="M8.25 3C8.25 2.58579 8.58579 2.25 9 2.25H15C15.4142 2.25 15.75 2.58579 15.75 3V6.25L17 6.25C17.4142 6.25 17.75 6.58579 17.75 7L17.75 17C17.75 17.1989 17.671 17.3897 17.5303 17.5303C17.3897 17.671 17.1989 17.75 17 17.75H15.75V21C15.75 21.4142 15.4142 21.75 15 21.75H9C8.58579 21.75 8.25 21.4142 8.25 21L8.25 17.75H7C6.58579 17.75 6.25 17.4142 6.25 17V7C6.25 6.58579 6.58579 6.25 7 6.25H8.25L8.25 3ZM9.75 6.25L14.25 6.25V3.75H9.75L9.75 6.25ZM9.75 17.75L9.75 20.25H14.25V17.75H9.75ZM7.75 7.75V16.25H16.25L16.25 7.75H7.75ZM12 9.25C12.4142 9.25 12.75 9.58579 12.75 10V11.25H14C14.4142 11.25 14.75 11.5858 14.75 12C14.75 12.4142 14.4142 12.75 14 12.75H12.75V14C12.75 14.4142 12.4142 14.75 12 14.75C11.5858 14.75 11.25 14.4142 11.25 14V12.75H10C9.58579 12.75 9.25 12.4142 9.25 12C9.25 11.5858 9.58579 11.25 10 11.25H11.25V10C11.25 9.58579 11.5858 9.25 12 9.25Z" fill="black"/>
</svg>
