<svg width="24" height="24" fill="none" xmlns="http://www.w3.org/2000/svg"><path d="M8.787 2.279a.651.651 0 0 0-.447.325c-.076.129-.081.22-.092 1.882l-.013 1.745-.747.015c-.66.013-.764.024-.884.094a.652.652 0 0 0-.327.466c-.044.227-.044 10.161 0 10.388.041.21.145.359.327.466.12.07.224.081.884.094l.747.015.013 1.745c.011 1.662.016 1.753.092 1.882a.652.652 0 0 0 .466.327c.227.044 6.161.044 6.388 0a.652.652 0 0 0 .466-.327c.076-.129.081-.22.092-1.882l.013-1.745.747-.015c.66-.013.764-.024.884-.094a.652.652 0 0 0 .327-.466c.044-.227.044-10.161 0-10.388a.652.652 0 0 0-.327-.466c-.12-.07-.224-.081-.884-.094l-.747-.015-.013-1.745c-.011-1.662-.016-1.753-.092-1.882a.652.652 0 0 0-.466-.327c-.213-.041-6.193-.04-6.407.002M14.24 5v1.24H9.76V3.76h4.48V5m2 7v4.24H7.76V7.76h8.48V12m-5.989-2.939c-1.045.226-1.672 1.243-1.448 2.347.065.319.437 1.046.744 1.452.51.674 1.733 1.854 2.141 2.064A.813.813 0 0 0 12 15c.09 0 .23-.034.312-.076.408-.21 1.631-1.39 2.141-2.064.307-.406.679-1.133.744-1.452.29-1.43-.79-2.564-2.259-2.374a1.97 1.97 0 0 0-.647.184L12 9.356l-.29-.137a2.298 2.298 0 0 0-1.459-.158m.689 1.463c.088.024.25.113.36.197.261.2.372.239.684.239.293 0 .463-.06.73-.256.245-.179.475-.241.686-.184.661.178.371.971-.792 2.167-.296.304-.57.553-.608.553-.038 0-.312-.249-.608-.553-1.132-1.164-1.436-1.938-.845-2.149.189-.067.196-.068.393-.014M14.24 19v1.24H9.76v-2.48h4.48V19" fill-rule="evenodd" fill="#000"/></svg>