<svg width="24" height="24" viewBox="0 0 24 24" fill="none" xmlns="http://www.w3.org/2000/svg">
<path fill-rule="evenodd" clip-rule="evenodd" d="M13.3181 2.32082C13.5817 2.44425 13.75 2.709 13.75 3.00001V21C13.75 21.291 13.5817 21.5558 13.3181 21.6792C13.0546 21.8026 12.7434 21.7625 12.5199 21.5762L6.72846 16.75H5C3.48122 16.75 2.25 15.5188 2.25 14V10C2.25 8.48123 3.48122 7.25001 5 7.25001H6.72846L12.5199 2.42384C12.7434 2.23754 13.0546 2.19738 13.3181 2.32082ZM12.25 4.60129L7.48014 8.57618C7.34535 8.6885 7.17545 8.75001 7 8.75001H5C4.30964 8.75001 3.75 9.30965 3.75 10V14C3.75 14.6904 4.30964 15.25 5 15.25H7C7.17545 15.25 7.34535 15.3115 7.48014 15.4238L12.25 19.3987V4.60129ZM15.4697 8.46968C15.7626 8.17679 16.2374 8.17679 16.5303 8.46968C17.1959 9.13523 17.75 10.3393 17.75 12C17.75 13.6607 17.1959 14.8648 16.5303 15.5303C16.2374 15.8232 15.7626 15.8232 15.4697 15.5303C15.1768 15.2374 15.1768 14.7626 15.4697 14.4697C15.8041 14.1352 16.25 13.3393 16.25 12C16.25 10.6607 15.8041 9.86479 15.4697 9.53034C15.1768 9.23745 15.1768 8.76257 15.4697 8.46968Z" fill="black"/>
</svg>
