<svg width="24" height="24" viewBox="0 0 24 24" fill="none" xmlns="http://www.w3.org/2000/svg">
<path fill-rule="evenodd" clip-rule="evenodd" d="M13.3181 2.32082C13.5817 2.44425 13.75 2.709 13.75 3.00001V21C13.75 21.291 13.5817 21.5558 13.3181 21.6792C13.0546 21.8026 12.7434 21.7625 12.5199 21.5762L6.72846 16.75H5C3.48122 16.75 2.25 15.5188 2.25 14V10C2.25 8.48123 3.48122 7.25001 5 7.25001H6.72846L12.5199 2.42384C12.7434 2.23754 13.0546 2.19738 13.3181 2.32082ZM12.25 4.60129L7.48014 8.57618C7.34535 8.6885 7.17545 8.75001 7 8.75001H5C4.30964 8.75001 3.75 9.30965 3.75 10V14C3.75 14.6904 4.30964 15.25 5 15.25H7C7.17545 15.25 7.34535 15.3115 7.48014 15.4238L12.25 19.3987V4.60129ZM15.4697 8.46968C15.7626 8.17679 16.2374 8.17679 16.5303 8.46968L19 10.9393L21.4697 8.46968C21.7626 8.17679 22.2374 8.17679 22.5303 8.46968C22.8232 8.76257 22.8232 9.23745 22.5303 9.53034L20.0607 12L22.5303 14.4697C22.8232 14.7626 22.8232 15.2374 22.5303 15.5303C22.2374 15.8232 21.7626 15.8232 21.4697 15.5303L19 13.0607L16.5303 15.5303C16.2374 15.8232 15.7626 15.8232 15.4697 15.5303C15.1768 15.2374 15.1768 14.7626 15.4697 14.4697L17.9393 12L15.4697 9.53034C15.1768 9.23745 15.1768 8.76257 15.4697 8.46968Z" fill="black"/>
</svg>
