<svg width="24" height="24" viewBox="0 0 24 24" fill="none" xmlns="http://www.w3.org/2000/svg">
<path fill-rule="evenodd" clip-rule="evenodd" d="M13.3181 2.32082C13.5816 2.44425 13.75 2.709 13.75 3.00001V8.00001C13.75 8.41422 13.4142 8.75001 13 8.75001C12.5858 8.75001 12.25 8.41422 12.25 8.00001V4.60129L11.0801 5.57617C10.7619 5.84135 10.289 5.79836 10.0238 5.48015C9.75864 5.16194 9.80163 4.68902 10.1198 4.42384L12.5198 2.42384C12.7434 2.23754 13.0546 2.19738 13.3181 2.32082ZM2.46967 2.46968C2.76256 2.17679 3.23744 2.17679 3.53033 2.46968L21.5303 20.4697C21.8232 20.7626 21.8232 21.2374 21.5303 21.5303C21.2374 21.8232 20.7626 21.8232 20.4697 21.5303L2.46967 3.53034C2.17678 3.23745 2.17678 2.76257 2.46967 2.46968ZM3.64311 8.3508C4.00165 8.55821 4.12418 9.01701 3.91677 9.37555C3.81085 9.55865 3.75 9.77108 3.75 10V14C3.75 14.6904 4.30964 15.25 5 15.25H7C7.17545 15.25 7.34535 15.3115 7.48014 15.4238L12.25 19.3987V18C12.25 17.5858 12.5858 17.25 13 17.25C13.4142 17.25 13.75 17.5858 13.75 18V21C13.75 21.291 13.5817 21.5558 13.3181 21.6792C13.0546 21.8026 12.7434 21.7625 12.5199 21.5762L6.72846 16.75H5C3.48122 16.75 2.25 15.5188 2.25 14V10C2.25 9.50036 2.38393 9.02972 2.61836 8.62446C2.82577 8.26592 3.28456 8.1434 3.64311 8.3508Z" fill="black"/>
</svg>
