<svg width="24" height="24" viewBox="0 0 24 24" fill="none" xmlns="http://www.w3.org/2000/svg">
<path fill-rule="evenodd" clip-rule="evenodd" d="M12 2.25C12.2941 2.25 12.5611 2.4219 12.6828 2.68965L14.9994 7.7862L21.0575 8.25221C21.3425 8.27413 21.5902 8.45606 21.6963 8.72139C21.8025 8.98671 21.7487 9.28931 21.5575 9.50172L17.3244 14.2052L18.7276 19.8181C18.7987 20.1023 18.6978 20.4018 18.4693 20.585C18.2408 20.7683 17.9266 20.8018 17.6646 20.6708L12 17.8385L6.33542 20.6708C6.07345 20.8018 5.75919 20.7683 5.53072 20.585C5.30225 20.4018 5.20137 20.1023 5.27241 19.8181L6.67564 14.2052L2.44254 9.50172C2.25137 9.28931 2.19752 8.98671 2.30368 8.72139C2.40984 8.45606 2.65756 8.27413 2.94249 8.25221L9.00063 7.7862L11.3172 2.68965C11.4389 2.4219 11.7059 2.25 12 2.25ZM12 4.81246L10.1828 8.81035C10.0697 9.05922 9.8301 9.22682 9.55754 9.24779L4.57686 9.63092L8.05749 13.4983C8.22435 13.6837 8.28812 13.9399 8.22762 14.1819L7.12312 18.5999L11.6646 16.3292C11.8757 16.2236 12.1243 16.2236 12.3354 16.3292L16.8769 18.5999L15.7724 14.1819C15.7119 13.9399 15.7757 13.6837 15.9425 13.4983L19.4232 9.63092L14.4425 9.24779C14.1699 9.22682 13.9304 9.05922 13.8172 8.81035L12 4.81246Z" fill="black"/>
</svg>
