<svg width="24" height="24" viewBox="0 0 24 24" fill="none" xmlns="http://www.w3.org/2000/svg">
<path fill-rule="evenodd" clip-rule="evenodd" d="M4.72175 2.37267C5.0682 2.59971 5.16499 3.06462 4.93795 3.41106L3.78419 5.17156C3.99872 6.50284 4.43691 7.97029 5.07732 9.24405C5.76985 10.6215 6.65087 11.6787 7.64866 12.1679C7.76077 12.2229 7.88045 12.2499 7.99936 12.25C8.11867 12.2501 8.23879 12.2231 8.35129 12.1679C9.34909 11.6787 10.2301 10.6215 10.9226 9.24406C11.563 7.97029 12.0012 6.50284 12.2157 5.17155L11.062 3.41105C10.835 3.0646 10.9318 2.59969 11.2782 2.37266C11.6247 2.14562 12.0896 2.24243 12.3166 2.58888L13.6272 4.58888C13.7269 4.74088 13.7679 4.92388 13.7427 5.10385C13.5267 6.64806 13.0297 8.39227 12.2628 9.91783C11.5034 11.4282 10.4312 12.8187 9.01167 13.5147C8.92587 13.5568 8.83813 13.5933 8.74896 13.6241L8.74998 16.9997C8.74998 17.5965 8.98703 18.169 9.40899 18.591C9.83094 19.0129 10.4032 19.25 11 19.25C11.5967 19.25 12.169 19.0129 12.591 18.591C13.0129 18.169 13.25 17.5967 13.25 17V15.5C13.25 14.638 13.5924 13.8114 14.2019 13.2019C14.8114 12.5924 15.638 12.25 16.5 12.25C17.3619 12.25 18.1886 12.5924 18.7981 13.2019C19.4076 13.8114 19.75 14.638 19.75 15.5V16.3535C20.9042 16.6799 21.75 17.7412 21.75 19C21.75 20.5187 20.5188 21.75 19 21.75C17.4812 21.75 16.25 20.5187 16.25 19C16.25 17.7412 17.0957 16.6799 18.25 16.3535V15.5C18.25 15.0358 18.0656 14.5907 17.7374 14.2625C17.4092 13.9343 16.9641 13.75 16.5 13.75C16.0358 13.75 15.5907 13.9343 15.2625 14.2625C14.9344 14.5907 14.75 15.0358 14.75 15.5V17C14.75 17.9945 14.3549 18.9484 13.6516 19.6516C12.9484 20.3549 11.9945 20.75 11 20.75C10.0054 20.75 9.05159 20.3549 8.34833 19.6516C7.64512 18.9484 7.25004 17.9947 7.24998 17.0002C7.24998 17.0001 7.24998 17.0003 7.24998 17.0002L7.24896 13.6234C7.16048 13.5927 7.07342 13.5565 6.98828 13.5147C5.56877 12.8187 4.49655 11.4282 3.73716 9.91784C2.97016 8.39228 2.47316 6.64806 2.25717 5.10385C2.232 4.92387 2.27303 4.74087 2.37265 4.58886L3.68336 2.58886C3.91041 2.24242 4.37531 2.14563 4.72175 2.37267ZM19 17.75C18.3096 17.75 17.75 18.3096 17.75 19C17.75 19.6903 18.3096 20.25 19 20.25C19.6903 20.25 20.25 19.6903 20.25 19C20.25 18.3096 19.6903 17.75 19 17.75Z" fill="black"/>
</svg>
