<svg width="24" height="24" viewBox="0 0 24 24" fill="none" xmlns="http://www.w3.org/2000/svg">
<path fill-rule="evenodd" clip-rule="evenodd" d="M16.1264 2.57025C16.4193 2.27736 16.8942 2.27736 17.1871 2.57026L21.4297 6.81289C21.7226 7.10579 21.7226 7.58066 21.4297 7.87355C21.1368 8.16645 20.6619 8.16645 20.369 7.87356L18.7781 6.28258L17.7175 7.34313L19.3086 8.93423C19.6015 9.22713 19.6015 9.702 19.3086 9.99489L10.1162 19.1873C9.97558 19.3279 9.78481 19.407 9.5859 19.407C9.38699 19.407 9.19622 19.3279 9.05557 19.1873L8.87871 19.0104L7.28771 20.6014C6.99482 20.8943 6.51995 20.8943 6.22705 20.6014L5.3432 19.7176L3.75225 21.3085C3.45936 21.6014 2.98449 21.6014 2.69159 21.3085C2.3987 21.0156 2.3987 20.5407 2.69159 20.2479L4.28254 18.6569L3.39863 17.773C3.25797 17.6323 3.17896 17.4416 3.17896 17.2427C3.17896 17.0437 3.25797 16.853 3.39862 16.7123L4.98962 15.1213L4.81293 14.9446C4.52004 14.6517 4.52004 14.1769 4.81293 13.884L14.0053 4.69159C14.2982 4.3987 14.7731 4.3987 15.066 4.69159L16.6569 6.28247L17.7174 5.22192L16.1264 3.63091C15.8335 3.33802 15.8335 2.86315 16.1264 2.57025ZM16.1153 7.86225L14.5357 6.28258L6.40392 14.4143L9.5859 17.5963L17.7176 9.46456L16.1377 7.88467C16.1339 7.88102 16.1302 7.87732 16.1264 7.87357C16.1227 7.86983 16.119 7.86605 16.1153 7.86225ZM6.05028 16.182L4.98961 17.2427L5.86669 18.1197C5.869 18.122 5.87129 18.1242 5.87357 18.1265C5.87586 18.1288 5.87812 18.1311 5.88037 18.1334L6.75738 19.0104L7.81804 17.9498L6.05028 16.182Z" fill="black"/>
</svg>
