<svg width="24" height="24" viewBox="0 0 24 24" fill="none" xmlns="http://www.w3.org/2000/svg">
<path fill-rule="evenodd" clip-rule="evenodd" d="M7.46967 5.46967C7.61032 5.32902 7.80109 5.25 8 5.25H21C21.4142 5.25 21.75 5.58579 21.75 6V18C21.75 18.4142 21.4142 18.75 21 18.75H8C7.80109 18.75 7.61032 18.671 7.46967 18.5303L1.46967 12.5303C1.17678 12.2374 1.17678 11.7626 1.46967 11.4697L7.46967 5.46967ZM8.31066 6.75L3.06066 12L8.31066 17.25H20.25V6.75H8.31066ZM10 10.75C9.30964 10.75 8.75 11.3096 8.75 12C8.75 12.6904 9.30964 13.25 10 13.25C10.6904 13.25 11.25 12.6904 11.25 12C11.25 11.3096 10.6904 10.75 10 10.75ZM7.25 12C7.25 10.4812 8.48122 9.25 10 9.25C11.5188 9.25 12.75 10.4812 12.75 12C12.75 13.5188 11.5188 14.75 10 14.75C8.48122 14.75 7.25 13.5188 7.25 12Z" fill="black"/>
</svg>
