<svg width="24" height="24" viewBox="0 0 24 24" fill="none" xmlns="http://www.w3.org/2000/svg">
<path fill-rule="evenodd" clip-rule="evenodd" d="M5.38874 5.70557C4.98539 6.36102 4.75 7.33474 4.75 8.5C4.75 9.94269 5.10851 10.813 5.52713 11.8219L5.53315 11.8364C5.77053 12.4084 6.03376 13.0427 6.22761 13.8181C6.39276 14.4787 6.45656 15.3937 6.51736 16.2655L6.52139 16.3233C6.59842 17.427 6.67644 18.5025 6.89111 19.3039C6.99832 19.7041 7.12169 19.9618 7.24031 20.1072C7.33636 20.225 7.40781 20.25 7.5 20.25C7.50031 20.25 7.50069 20.25 7.50115 20.2501C7.50705 20.2506 7.52655 20.2523 7.57953 20.2034C7.65186 20.1367 7.7497 20.0051 7.86253 19.7718C8.09187 19.2974 8.28083 18.6287 8.50402 17.8273L8.51742 17.7792C8.77332 16.8601 9.07289 15.7841 9.53513 14.9392C10.0118 14.0678 10.7725 13.25 12 13.25C13.2275 13.25 13.9882 14.0678 14.4649 14.9392C14.9271 15.7841 15.2267 16.8601 15.4826 17.7792L15.496 17.8273C15.7192 18.6287 15.9081 19.2974 16.1375 19.7718C16.2503 20.0051 16.3481 20.1367 16.4205 20.2034C16.4735 20.2523 16.493 20.2506 16.4988 20.2501C16.4993 20.25 16.4997 20.25 16.5 20.25C16.5922 20.25 16.6636 20.225 16.7597 20.1072C16.8783 19.9618 17.0017 19.7041 17.1089 19.3039C17.3236 18.5025 17.4016 17.427 17.4786 16.3233L17.4826 16.2655C17.5434 15.3937 17.6072 14.4787 17.7724 13.8181C17.9662 13.0427 18.2295 12.4084 18.4668 11.8364L18.4729 11.8219C18.8915 10.813 19.25 9.94269 19.25 8.5C19.25 7.33474 19.0146 6.36102 18.6113 5.70557C18.2268 5.08081 17.7019 4.75 17 4.75C16.196 4.75 15.6913 4.93173 15.0594 5.16267C14.3127 5.43559 13.4518 5.75 12 5.75C10.5482 5.75 9.68733 5.43559 8.94061 5.16267C8.30875 4.93173 7.80403 4.75 7 4.75C6.2981 4.75 5.77322 5.08081 5.38874 5.70557ZM4.11126 4.91943C4.72678 3.91919 5.7019 3.25 7 3.25C8.07714 3.25 8.78987 3.51051 9.44215 3.74893L9.45553 3.75382L9.19807 4.45825L9.45553 3.75382L9.45659 3.75421C10.1493 4.00738 10.8131 4.25 12 4.25C13.1869 4.25 13.8507 4.00738 14.5434 3.75421L14.5445 3.75382L14.8019 4.45825L14.5445 3.75382L14.5579 3.74893C15.2101 3.51051 15.9229 3.25 17 3.25C18.2981 3.25 19.2732 3.91919 19.8887 4.91943C20.4854 5.88898 20.75 7.16526 20.75 8.5C20.75 10.248 20.2941 11.3465 19.863 12.3855L19.8583 12.3968C19.6173 12.9777 19.3927 13.5215 19.2276 14.1819C19.0984 14.6987 19.0409 15.4825 18.975 16.4277L18.9717 16.4749C18.8987 17.5212 18.814 18.7357 18.5578 19.692C18.4277 20.1778 18.2354 20.6712 17.9221 21.0552C17.5864 21.467 17.1098 21.75 16.5 21.75C15.5779 21.75 15.0689 21.0077 14.787 20.4247C14.4924 19.8154 14.2707 19.019 14.064 18.2764L14.051 18.2298C13.7787 17.2522 13.5197 16.3368 13.1489 15.659C12.7845 14.9929 12.424 14.75 12 14.75C11.576 14.75 11.2155 14.9929 10.8511 15.659C10.4803 16.3368 10.2213 17.2522 9.94903 18.2298L9.93603 18.2764C9.72928 19.019 9.50755 19.8154 9.21298 20.4247C8.93109 21.0077 8.42205 21.75 7.5 21.75C6.89019 21.75 6.41364 21.467 6.07786 21.0552C5.76464 20.6712 5.57234 20.1778 5.44219 19.692C5.18603 18.7357 5.10131 17.5212 5.02832 16.4749L5.02503 16.4277C4.95906 15.4825 4.90159 14.6987 4.77239 14.1819C4.60729 13.5215 4.38273 12.9777 4.14168 12.3968L4.13698 12.3855C3.70586 11.3465 3.25 10.248 3.25 8.5C3.25 7.16526 3.51461 5.88898 4.11126 4.91943Z" fill="black"/>
</svg>
