<svg width="24" height="24" fill="none" xmlns="http://www.w3.org/2000/svg"><path d="M10.617 2.283c-.583.069-1.098.328-1.552.782-.502.501-.721.977-.794 1.722l-.044.449-2.244.012c-2.16.012-2.248.015-2.379.092a.646.646 0 0 0-.327.475c-.069.367.054.684.327.845.12.07.224.081.885.094l.748.015.013 5.845c.013 6.513-.009 5.999.289 6.606a2.838 2.838 0 0 0 1.781 1.45c.241.065.586.07 4.68.07 4.094 0 4.439-.005 4.68-.07a2.838 2.838 0 0 0 1.781-1.45c.298-.607.276-.093.289-6.606l.013-5.845.748-.015c.661-.013.765-.024.885-.094.273-.161.396-.478.327-.845a.646.646 0 0 0-.327-.475c-.131-.077-.219-.08-2.379-.092l-2.244-.012-.044-.449c-.073-.745-.292-1.221-.794-1.722-.471-.472-.96-.71-1.606-.784-.41-.047-2.303-.045-2.712.002m2.837 1.558c.459.172.786.655.786 1.161v.238H9.76v-.238c0-.344.12-.63.366-.876.35-.35.408-.361 1.862-.364 1.16-.002 1.264.004 1.466.079m3.786 8.657c0 5.669-.001 5.742-.081 5.956-.109.29-.415.596-.705.705-.213.08-.294.081-4.454.081s-4.241-.001-4.454-.081a1.342 1.342 0 0 1-.705-.705c-.08-.214-.081-.287-.081-5.956V6.76h10.48v5.738m-7.453-3.22a.659.659 0 0 0-.447.326c-.078.133-.08.208-.08 3.396 0 3.188.002 3.263.08 3.396a.646.646 0 0 0 .475.327c.367.069.684-.054.845-.327.078-.132.08-.22.093-3.176.006-1.672.001-3.152-.014-3.289-.041-.405-.243-.62-.619-.662a1.307 1.307 0 0 0-.333.009m4 0a.659.659 0 0 0-.447.326c-.078.133-.08.208-.08 3.396 0 3.188.002 3.263.08 3.396a.646.646 0 0 0 .475.327c.367.069.684-.054.845-.327.078-.132.08-.22.093-3.176.006-1.672.001-3.152-.014-3.289-.041-.405-.243-.62-.619-.662a1.307 1.307 0 0 0-.333.009" fill-rule="evenodd" fill="#000"/></svg>