<svg width="24" height="24" viewBox="0 0 24 24" fill="none" xmlns="http://www.w3.org/2000/svg">
<path fill-rule="evenodd" clip-rule="evenodd" d="M14.25 7C14.25 6.58579 14.5858 6.25 15 6.25H21C21.4142 6.25 21.75 6.58579 21.75 7V13C21.75 13.4142 21.4142 13.75 21 13.75C20.5858 13.75 20.25 13.4142 20.25 13V8.81066L13.5303 15.5303C13.2374 15.8232 12.7626 15.8232 12.4697 15.5303L9 12.0607L3.53033 17.5303C3.23744 17.8232 2.76256 17.8232 2.46967 17.5303C2.17678 17.2374 2.17678 16.7626 2.46967 16.4697L8.46967 10.4697C8.76256 10.1768 9.23744 10.1768 9.53033 10.4697L13 13.9393L19.1893 7.75H15C14.5858 7.75 14.25 7.41421 14.25 7Z" fill="black"/>
</svg>
