<svg width="24" height="24" viewBox="0 0 24 24" fill="none" xmlns="http://www.w3.org/2000/svg">
<path fill-rule="evenodd" clip-rule="evenodd" d="M12 2.25C12.4142 2.25 12.75 2.58579 12.75 3V3.28218C14.7958 3.45811 16.724 4.34958 18.1872 5.81282C19.8281 7.45376 20.75 9.67936 20.75 12C20.75 12.2599 20.6154 12.5013 20.3943 12.638C20.1732 12.7746 19.8971 12.7871 19.6646 12.6708L18 11.8385L16.3354 12.6708C16.1243 12.7764 15.8757 12.7764 15.6646 12.6708L14 11.8385L12.75 12.4635V21C12.75 21.4142 12.4142 21.75 12 21.75C11.5858 21.75 11.25 21.4142 11.25 21V12.4635L10 11.8385L8.33541 12.6708C8.12426 12.7764 7.87574 12.7764 7.66459 12.6708L6 11.8385L4.33541 12.6708C4.10292 12.7871 3.82681 12.7746 3.6057 12.638C3.38459 12.5013 3.25 12.2599 3.25 12C3.25 9.67935 4.17187 7.45376 5.81282 5.81281C7.27605 4.34958 9.20416 3.45811 11.25 3.28218V3C11.25 2.58579 11.5858 2.25 12 2.25ZM12 11.1615L13.6646 10.3292C13.8757 10.2236 14.1243 10.2236 14.3354 10.3292L16 11.1615L17.6646 10.3292C17.8757 10.2236 18.1243 10.2236 18.3354 10.3292L19.138 10.7305C18.8799 9.27919 18.1831 7.93006 17.1265 6.87348C15.7669 5.51384 13.9228 4.75 12 4.75C10.0772 4.75 8.23312 5.51384 6.87348 6.87348C5.81689 7.93006 5.12011 9.27919 4.86198 10.7305L5.66459 10.3292C5.87574 10.2236 6.12426 10.2236 6.33541 10.3292L8 11.1615L9.66459 10.3292C9.87574 10.2236 10.1243 10.2236 10.3354 10.3292L12 11.1615Z" fill="black"/>
</svg>
