<svg width="24" height="24" viewBox="0 0 24 24" fill="none" xmlns="http://www.w3.org/2000/svg">
<path fill-rule="evenodd" clip-rule="evenodd" d="M12 2.25C12.4142 2.25 12.75 2.58579 12.75 3V3.28218C14.7958 3.45811 16.724 4.34958 18.1872 5.81282C19.8281 7.45376 20.75 9.67936 20.75 12C20.75 12.4142 20.4142 12.75 20 12.75H12.75V21C12.75 21.4142 12.4142 21.75 12 21.75C11.5858 21.75 11.25 21.4142 11.25 21V12.75L4 12.75C3.58579 12.75 3.25 12.4142 3.25 12C3.25 9.67935 4.17187 7.45376 5.81282 5.81281C7.27605 4.34958 9.20416 3.45811 11.25 3.28218V3C11.25 2.58579 11.5858 2.25 12 2.25ZM12 4.75C10.0772 4.75 8.23312 5.51384 6.87348 6.87348C5.69178 8.05517 4.96014 9.60279 4.78887 11.25L19.2111 11.25C19.0399 9.60279 18.3082 8.05517 17.1265 6.87348C15.7669 5.51384 13.9228 4.75 12 4.75Z" fill="black"/>
</svg>
