<svg width="24" height="24" viewBox="0 0 24 24" fill="none" xmlns="http://www.w3.org/2000/svg">
<path fill-rule="evenodd" clip-rule="evenodd" d="M4 8.25C4.41421 8.25 4.75 8.58579 4.75 9V13.2937C6.64106 11.5544 8.74514 9.75248 11.6408 9.3451C13.7342 9.0506 15.8666 9.44435 17.7167 10.467C19.5668 11.4897 21.0344 13.086 21.8984 15.0152C22.0677 15.3933 21.8985 15.837 21.5205 16.0063C21.1424 16.1756 20.6987 16.0063 20.5294 15.6283C19.7984 13.9959 18.5565 12.6452 16.991 11.7798C15.4255 10.9145 13.6212 10.5813 11.8498 10.8305C9.47863 11.1641 7.75813 12.5874 5.93366 14.25H10C10.4142 14.25 10.75 14.5858 10.75 15C10.75 15.4142 10.4142 15.75 10 15.75H4C3.58579 15.75 3.25 15.4142 3.25 15V9C3.25 8.58579 3.58579 8.25 4 8.25Z" fill="black"/>
</svg>
