<svg width="24" height="24" viewBox="0 0 24 24" fill="none" xmlns="http://www.w3.org/2000/svg">
<path fill-rule="evenodd" clip-rule="evenodd" d="M12 3.75C7.44365 3.75 3.75 7.44365 3.75 12C3.75 16.5563 7.44365 20.25 12 20.25C16.5563 20.25 20.25 16.5563 20.25 12C20.25 7.44365 16.5563 3.75 12 3.75ZM2.25 12C2.25 6.61522 6.61522 2.25 12 2.25C17.3848 2.25 21.75 6.61522 21.75 12C21.75 17.3848 17.3848 21.75 12 21.75C6.61522 21.75 2.25 17.3848 2.25 12ZM7 9.25C7.41421 9.25 7.75 9.58579 7.75 10V11.1616C8.76107 10.3099 9.92499 9.50747 11.398 9.30638C12.6763 9.13186 13.9795 9.36487 15.1121 9.97238C16.245 10.5801 17.1481 11.531 17.681 12.6857C17.8545 13.0618 17.6904 13.5074 17.3143 13.681C16.9382 13.8545 16.4926 13.6904 16.319 13.3143C15.9253 12.4612 15.2544 11.7509 14.4031 11.2942C13.5514 10.8374 12.5677 10.6606 11.6009 10.7926C10.5344 10.9382 9.69135 11.4994 8.79357 12.25H10C10.4142 12.25 10.75 12.5858 10.75 13C10.75 13.4142 10.4142 13.75 10 13.75H7C6.58579 13.75 6.25 13.4142 6.25 13V12.823C6.24999 12.8203 6.24999 12.8176 6.25 12.8149V10C6.25 9.58579 6.58579 9.25 7 9.25Z" fill="black"/>
</svg>
