<svg width="24" height="24" viewBox="0 0 24 24" fill="none" xmlns="http://www.w3.org/2000/svg">
<path fill-rule="evenodd" clip-rule="evenodd" d="M9 3.75C7.20507 3.75 5.75 5.20507 5.75 7C5.75 8.79493 7.20507 10.25 9 10.25C10.7949 10.25 12.25 8.79493 12.25 7C12.25 5.20507 10.7949 3.75 9 3.75ZM4.25 7C4.25 4.37665 6.37665 2.25 9 2.25C11.6234 2.25 13.75 4.37665 13.75 7C13.75 9.62335 11.6234 11.75 9 11.75C6.37665 11.75 4.25 9.62335 4.25 7ZM15.2737 2.93906C15.3769 2.53792 15.7858 2.29643 16.1869 2.39968C18.2355 2.92694 19.75 4.78565 19.75 6.99999C19.75 9.21433 18.2355 11.073 16.1869 11.6003C15.7858 11.7035 15.3769 11.4621 15.2737 11.0609C15.1704 10.6598 15.4119 10.2509 15.8131 10.1476C17.215 9.78682 18.25 8.51333 18.25 6.99999C18.25 5.48665 17.215 4.21316 15.8131 3.85233C15.4119 3.74909 15.1704 3.3402 15.2737 2.93906ZM0.25 19C0.25 16.3766 2.37665 14.25 5 14.25H13C15.6234 14.25 17.75 16.3766 17.75 19V21C17.75 21.4142 17.4142 21.75 17 21.75H1C0.585786 21.75 0.25 21.4142 0.25 21V19ZM5 15.75C3.20507 15.75 1.75 17.2051 1.75 19V20.25H16.25V19C16.25 17.2051 14.7949 15.75 13 15.75H5ZM18.25 15C18.25 14.5858 18.5858 14.25 19 14.25C21.6234 14.25 23.75 16.3766 23.75 19V21C23.75 21.4142 23.4142 21.75 23 21.75H21C20.5858 21.75 20.25 21.4142 20.25 21C20.25 20.5858 20.5858 20.25 21 20.25H22.25V19C22.25 17.2051 20.7949 15.75 19 15.75C18.5858 15.75 18.25 15.4142 18.25 15Z" fill="black"/>
</svg>
