<svg width="24" height="24" viewBox="0 0 24 24" fill="none" xmlns="http://www.w3.org/2000/svg">
<path fill-rule="evenodd" clip-rule="evenodd" d="M12 3.75C10.2051 3.75 8.75 5.20507 8.75 7C8.75 8.79493 10.2051 10.25 12 10.25C13.7949 10.25 15.25 8.79493 15.25 7C15.25 5.20507 13.7949 3.75 12 3.75ZM7.25 7C7.25 4.37665 9.37665 2.25 12 2.25C14.6234 2.25 16.75 4.37665 16.75 7C16.75 9.62335 14.6234 11.75 12 11.75C9.37665 11.75 7.25 9.62335 7.25 7ZM20 7.75C20.4142 7.75 20.75 8.08579 20.75 8.5V10.25H22.5C22.9142 10.25 23.25 10.5858 23.25 11C23.25 11.4142 22.9142 11.75 22.5 11.75H20.75V13.5C20.75 13.9142 20.4142 14.25 20 14.25C19.5858 14.25 19.25 13.9142 19.25 13.5V11.75H17.5C17.0858 11.75 16.75 11.4142 16.75 11C16.75 10.5858 17.0858 10.25 17.5 10.25H19.25V8.5C19.25 8.08579 19.5858 7.75 20 7.75ZM3.25 19C3.25 16.3766 5.37665 14.25 8 14.25H16C18.6234 14.25 20.75 16.3766 20.75 19V21C20.75 21.4142 20.4142 21.75 20 21.75H4C3.58579 21.75 3.25 21.4142 3.25 21V19ZM8 15.75C6.20507 15.75 4.75 17.2051 4.75 19V20.25H19.25V19C19.25 17.2051 17.7949 15.75 16 15.75H8Z" fill="black"/>
</svg>
