<svg width="24" height="24" viewBox="0 0 24 24" fill="none" xmlns="http://www.w3.org/2000/svg">
<path fill-rule="evenodd" clip-rule="evenodd" d="M12 3.75C10.2051 3.75 8.75 5.20507 8.75 7C8.75 8.79493 10.2051 10.25 12 10.25C13.7949 10.25 15.25 8.79493 15.25 7C15.25 5.20507 13.7949 3.75 12 3.75ZM7.25 7C7.25 4.37665 9.37665 2.25 12 2.25C14.6234 2.25 16.75 4.37665 16.75 7C16.75 9.62335 14.6234 11.75 12 11.75C9.37665 11.75 7.25 9.62335 7.25 7ZM17.4697 8.46967C17.7626 8.17678 18.2374 8.17678 18.5303 8.46967L20 9.93934L21.4697 8.46967C21.7626 8.17678 22.2374 8.17678 22.5303 8.46967C22.8232 8.76256 22.8232 9.23744 22.5303 9.53033L21.0607 11L22.5303 12.4697C22.8232 12.7626 22.8232 13.2374 22.5303 13.5303C22.2374 13.8232 21.7626 13.8232 21.4697 13.5303L20 12.0607L18.5303 13.5303C18.2374 13.8232 17.7626 13.8232 17.4697 13.5303C17.1768 13.2374 17.1768 12.7626 17.4697 12.4697L18.9393 11L17.4697 9.53033C17.1768 9.23744 17.1768 8.76256 17.4697 8.46967ZM3.25 19C3.25 16.3766 5.37665 14.25 8 14.25H16C18.6234 14.25 20.75 16.3766 20.75 19V21C20.75 21.4142 20.4142 21.75 20 21.75H4C3.58579 21.75 3.25 21.4142 3.25 21V19ZM8 15.75C6.20507 15.75 4.75 17.2051 4.75 19V20.25H19.25V19C19.25 17.2051 17.7949 15.75 16 15.75H8Z" fill="black"/>
</svg>
