<svg width="24" height="24" viewBox="0 0 24 24" fill="none" xmlns="http://www.w3.org/2000/svg">
<path fill-rule="evenodd" clip-rule="evenodd" d="M11.4697 3.46967C11.7626 3.17678 12.2374 3.17678 12.5303 3.46967L17.5303 8.46967C17.8232 8.76256 17.8232 9.23744 17.5303 9.53033C17.2374 9.82322 16.7626 9.82322 16.4697 9.53033L12 5.06066L7.53033 9.53033C7.23744 9.82322 6.76256 9.82322 6.46967 9.53033C6.17678 9.23744 6.17678 8.76256 6.46967 8.46967L11.4697 3.46967ZM6.46967 14.4697C6.76256 14.1768 7.23744 14.1768 7.53033 14.4697L12 18.9393L16.4697 14.4697C16.7626 14.1768 17.2374 14.1768 17.5303 14.4697C17.8232 14.7626 17.8232 15.2374 17.5303 15.5303L12.5303 20.5303C12.3897 20.671 12.1989 20.75 12 20.75C11.8011 20.75 11.6103 20.671 11.4697 20.5303L6.46967 15.5303C6.17678 15.2374 6.17678 14.7626 6.46967 14.4697Z" fill="black"/>
</svg>
