<svg width="24" height="24" viewBox="0 0 24 24" fill="none" xmlns="http://www.w3.org/2000/svg">
<path fill-rule="evenodd" clip-rule="evenodd" d="M1.75 7.33333C1.75 5.70284 2.96211 4.25 4.61111 4.25H19.3889C21.0379 4.25 22.25 5.70284 22.25 7.33333V16.6667C22.25 18.2972 21.0379 19.75 19.3889 19.75H4.61111C2.9621 19.75 1.75 18.2972 1.75 16.6667V7.33333ZM20.75 14.25V9.75H14C12.7574 9.75 11.75 10.7574 11.75 12C11.75 13.2426 12.7574 14.25 14 14.25H20.75ZM20.75 8.25H14C11.9289 8.25 10.25 9.92893 10.25 12C10.25 14.0711 11.9289 15.75 14 15.75H20.75V16.6667C20.75 17.6135 20.0718 18.25 19.3889 18.25H4.61111C3.92825 18.25 3.25 17.6135 3.25 16.6667V7.33333C3.25 6.3865 3.92825 5.75 4.61111 5.75H19.3889C20.0718 5.75 20.75 6.3865 20.75 7.33333V8.25ZM14 11.25C14.4142 11.25 14.75 11.5858 14.75 12V12.01C14.75 12.4242 14.4142 12.76 14 12.76C13.5858 12.76 13.25 12.4242 13.25 12.01V12C13.25 11.5858 13.5858 11.25 14 11.25Z" fill="black"/>
</svg>
