<svg width="24" height="24" viewBox="0 0 24 24" fill="none" xmlns="http://www.w3.org/2000/svg">
<path fill-rule="evenodd" clip-rule="evenodd" d="M5.25 3C5.25 2.58579 5.58579 2.25 6 2.25H9C9.41421 2.25 9.75 2.58579 9.75 3L9.75 8.25H15C15.4142 8.25 15.75 8.58579 15.75 9V12.25H18C18.4142 12.25 18.75 12.5858 18.75 13V16.878C19.6239 17.1869 20.25 18.0203 20.25 19C20.25 20.2426 19.2426 21.25 18 21.25C16.7574 21.25 15.75 20.2426 15.75 19C15.75 18.0203 16.3761 17.1869 17.25 16.878V13.75H13.7446C14.0687 14.4324 14.25 15.1956 14.25 16C14.25 18.8995 11.8995 21.25 9 21.25C6.1005 21.25 3.75 18.8995 3.75 16C3.75 13.3551 5.70578 11.1671 8.25 10.8032V3.75H6C5.58579 3.75 5.25 3.41421 5.25 3ZM9.75 10.8032C10.8813 10.9652 11.8965 11.4879 12.6742 12.25H14.25V9.75H9.75L9.75 10.8032ZM9 12.25C6.92893 12.25 5.25 13.9289 5.25 16C5.25 18.0711 6.92893 19.75 9 19.75C11.0711 19.75 12.75 18.0711 12.75 16C12.75 15.2283 12.5177 14.5132 12.1194 13.9179C12.0212 13.7711 11.9128 13.6315 11.7953 13.5002C11.1076 12.7318 10.1106 12.25 9 12.25ZM18 18.25C17.5858 18.25 17.25 18.5858 17.25 19C17.25 19.4142 17.5858 19.75 18 19.75C18.4142 19.75 18.75 19.4142 18.75 19C18.75 18.5858 18.4142 18.25 18 18.25Z" fill="black"/>
</svg>
