<svg width="24" height="24" viewBox="0 0 24 24" fill="none" xmlns="http://www.w3.org/2000/svg">
<path fill-rule="evenodd" clip-rule="evenodd" d="M12 5.75C8.63583 5.75 5.61961 7.20129 3.55847 9.50062C3.28198 9.80905 2.80782 9.83495 2.49938 9.55847C2.19095 9.28198 2.16505 8.80782 2.44153 8.49938C4.77804 5.89288 8.19601 4.25 12 4.25C15.804 4.25 19.222 5.89288 21.5585 8.49938C21.8349 8.80782 21.809 9.28198 21.5006 9.55847C21.1922 9.83495 20.718 9.80905 20.4415 9.50062C18.3804 7.20129 15.3642 5.75 12 5.75ZM12 9.75C9.53185 9.75 7.31991 10.8145 5.80847 12.5006C5.53198 12.809 5.05782 12.8349 4.74938 12.5585C4.44095 12.282 4.41505 11.8078 4.69153 11.4994C6.47834 9.50611 9.09203 8.25 12 8.25C14.908 8.25 17.5217 9.50611 19.3085 11.4994C19.5849 11.8078 19.559 12.282 19.2506 12.5585C18.9422 12.8349 18.468 12.809 18.1915 12.5006C16.6801 10.8145 14.4682 9.75 12 9.75ZM12 13.75C10.4279 13.75 9.0202 14.4277 8.05847 15.5006C7.78198 15.809 7.30782 15.8349 6.99938 15.5585C6.69095 15.282 6.66505 14.8078 6.94153 14.4994C8.17863 13.1193 9.98805 12.25 12 12.25C14.0119 12.25 15.8214 13.1193 17.0585 14.4994C17.3349 14.8078 17.309 15.282 17.0006 15.5585C16.6922 15.8349 16.218 15.809 15.9415 15.5006C14.9798 14.4277 13.5721 13.75 12 13.75ZM12 17.75C11.8619 17.75 11.75 17.8619 11.75 18C11.75 18.1381 11.8619 18.25 12 18.25C12.1381 18.25 12.25 18.1381 12.25 18C12.25 17.8619 12.1381 17.75 12 17.75ZM10.25 18C10.25 17.0335 11.0335 16.25 12 16.25C12.9665 16.25 13.75 17.0335 13.75 18C13.75 18.9665 12.9665 19.75 12 19.75C11.0335 19.75 10.25 18.9665 10.25 18Z" fill="black"/>
</svg>
