<svg width="24" height="24" viewBox="0 0 24 24" fill="none" xmlns="http://www.w3.org/2000/svg">
<path fill-rule="evenodd" clip-rule="evenodd" d="M10 3.75C6.54822 3.75 3.75 6.54822 3.75 10C3.75 13.4518 6.54822 16.25 10 16.25C11.7261 16.25 13.2876 15.5513 14.4194 14.4194C15.5513 13.2876 16.25 11.7261 16.25 10C16.25 6.54822 13.4518 3.75 10 3.75ZM2.25 10C2.25 5.71979 5.71979 2.25 10 2.25C14.2802 2.25 17.75 5.71979 17.75 10C17.75 11.8697 17.0871 13.5857 15.9848 14.9242L20.5303 19.4697C20.8232 19.7626 20.8232 20.2375 20.5303 20.5304C20.2374 20.8232 19.7626 20.8232 19.4697 20.5304L14.9242 15.9848C13.5857 17.0872 11.8697 17.75 10 17.75C5.71979 17.75 2.25 14.2802 2.25 10ZM6.25 10C6.25 9.58579 6.58579 9.25 7 9.25H13C13.4142 9.25 13.75 9.58579 13.75 10C13.75 10.4142 13.4142 10.75 13 10.75H7C6.58579 10.75 6.25 10.4142 6.25 10Z" fill="black"/>
</svg>
