<svg width="24" height="24" viewBox="0 0 24 24" fill="none" xmlns="http://www.w3.org/2000/svg">
<path fill-rule="evenodd" clip-rule="evenodd" d="M15.75 4C15.75 3.58579 16.0858 3.25 16.5 3.25C18.2949 3.25 19.75 4.70507 19.75 6.5C19.75 8.29493 18.2949 9.75 16.5 9.75H14C13.5858 9.75 13.25 9.41421 13.25 9C13.25 8.58579 13.5858 8.25 14 8.25H16.5C17.4665 8.25 18.25 7.4665 18.25 6.5C18.25 5.5335 17.4665 4.75 16.5 4.75C16.0858 4.75 15.75 4.41421 15.75 4ZM4.25 9C4.25 8.58579 4.58579 8.25 5 8.25H10C10.4142 8.25 10.75 8.58579 10.75 9C10.75 9.41421 10.4142 9.75 10 9.75H5C4.58579 9.75 4.25 9.41421 4.25 9ZM7.25 12C7.25 11.5858 7.58579 11.25 8 11.25H14C14.4142 11.25 14.75 11.5858 14.75 12C14.75 12.4142 14.4142 12.75 14 12.75H8C7.58579 12.75 7.25 12.4142 7.25 12ZM3.25 15C3.25 14.5858 3.58579 14.25 4 14.25H7C7.41421 14.25 7.75 14.5858 7.75 15C7.75 15.4142 7.41421 15.75 7 15.75H4C3.58579 15.75 3.25 15.4142 3.25 15ZM10.25 15C10.25 14.5858 10.5858 14.25 11 14.25H17C18.5188 14.25 19.75 15.4812 19.75 17C19.75 18.5188 18.5188 19.75 17 19.75C16.5858 19.75 16.25 19.4142 16.25 19C16.25 18.5858 16.5858 18.25 17 18.25C17.6904 18.25 18.25 17.6904 18.25 17C18.25 16.3096 17.6904 15.75 17 15.75H11C10.5858 15.75 10.25 15.4142 10.25 15Z" fill="black"/>
</svg>
