<svg width="24" height="24" viewBox="0 0 24 24" fill="none" xmlns="http://www.w3.org/2000/svg">
<path fill-rule="evenodd" clip-rule="evenodd" d="M12 1.75C12.4142 1.75 12.75 2.08579 12.75 2.5V6.21353C12.8721 6.17172 12.9993 6.12188 13.1409 6.06639C13.2684 6.01645 13.4075 5.96194 13.5651 5.90459C14.2419 5.65829 15.0419 5.48064 16.1623 5.82194L16.1882 5.82985L16.2136 5.83962C19.4835 7.10065 21.2214 10.6733 20.638 13.9468L20.6367 13.9544L20.6352 13.9619C20.4798 14.7412 20.2649 15.514 19.9905 16.2592C19.8473 16.6479 19.4162 16.8469 19.0275 16.7038C18.6388 16.5607 18.4397 16.1295 18.5829 15.7408C18.8282 15.0746 19.0219 14.3799 19.1626 13.6763C19.627 11.0506 18.2165 8.23509 15.6995 7.24912C14.9975 7.04094 14.549 7.14277 14.078 7.31415C13.9943 7.34462 13.9027 7.38124 13.8036 7.42086C13.3473 7.60326 12.7324 7.8491 12 7.8491C11.2677 7.8491 10.6527 7.60326 10.1964 7.42086C10.0973 7.38124 10.0057 7.34462 9.92197 7.31415C9.45101 7.14277 9.00252 7.04094 8.30052 7.24912C7.73199 7.4718 7.22119 7.78629 6.77538 8.17086C6.46175 8.44143 5.98816 8.40651 5.7176 8.09287C5.44703 7.77923 5.48195 7.30564 5.79559 7.03508C6.37354 6.53651 7.04083 6.12716 7.78645 5.83962L7.81178 5.82985L7.83775 5.82194C8.9581 5.48064 9.75812 5.65829 10.4349 5.90459C10.5925 5.96194 10.7316 6.01645 10.8591 6.06639C11.0007 6.12188 11.1279 6.17172 11.25 6.21353V2.5C11.25 2.08579 11.5858 1.75 12 1.75ZM4.06449 11.481C4.4778 11.5085 4.79057 11.8658 4.7631 12.2791C4.73209 12.7456 4.75584 13.2151 4.8374 13.6762C5.34328 16.2067 6.52069 18.5607 8.25482 19.9453C8.48982 20.133 8.687 20.2071 8.86728 20.2351C9.06052 20.2651 9.2806 20.2495 9.57596 20.1911C9.70587 20.1653 9.85916 20.1274 10.0312 20.0849C10.557 19.9548 11.2577 19.7814 12 19.7814C12.7423 19.7814 13.443 19.9548 13.9688 20.0849C14.1409 20.1274 14.2941 20.1653 14.424 20.1911C14.7194 20.2495 14.9395 20.2651 15.1327 20.2351C15.313 20.2071 15.5102 20.133 15.7452 19.9453C16.0689 19.6869 16.5408 19.7398 16.7993 20.0635C17.0577 20.3872 17.0048 20.8591 16.6811 21.1175C16.2559 21.457 15.8187 21.6465 15.3631 21.7173C14.9206 21.7861 14.5034 21.7358 14.1328 21.6625C13.8819 21.6129 13.6573 21.5571 13.4429 21.5039C12.9696 21.3865 12.5461 21.2814 12 21.2814C11.4539 21.2814 11.0304 21.3865 10.5572 21.5039C10.3427 21.5571 10.1181 21.6129 9.86717 21.6625C9.49664 21.7358 9.07946 21.7861 8.63688 21.7173C8.18132 21.6465 7.74409 21.457 7.31889 21.1175C5.2181 19.4402 3.91307 16.712 3.36482 13.9619L3.36332 13.9544L3.36198 13.9468C3.25738 13.36 3.22742 12.7661 3.2664 12.1797C3.29388 11.7664 3.65119 11.4536 4.06449 11.481Z" fill="black"/>
</svg>
