<svg width="24" height="24" viewBox="0 0 24 24" fill="none" xmlns="http://www.w3.org/2000/svg">
<path fill-rule="evenodd" clip-rule="evenodd" d="M11.713 6.30708C11.9932 6.191 12.3158 6.25516 12.5303 6.46966L16.5303 10.4697C16.8232 10.7626 16.8232 11.2374 16.5303 11.5303C16.2374 11.8232 15.7626 11.8232 15.4697 11.5303L12.75 8.81065V17C12.75 17.4142 12.4142 17.75 12 17.75C11.5858 17.75 11.25 17.4142 11.25 17V6.99999C11.25 6.69664 11.4327 6.42317 11.713 6.30708ZM10.5303 8.46966C10.8232 8.76255 10.8232 9.23743 10.5303 9.53032L8.53033 11.5303C8.23744 11.8232 7.76256 11.8232 7.46967 11.5303C7.17678 11.2374 7.17678 10.7626 7.46967 10.4697L9.46967 8.46966C9.76256 8.17677 10.2374 8.17677 10.5303 8.46966Z" fill="black"/>
</svg>
