<svg width="24" height="24" viewBox="0 0 24 24" fill="none" xmlns="http://www.w3.org/2000/svg">
<path fill-rule="evenodd" clip-rule="evenodd" d="M12 6.25C12.4142 6.25 12.75 6.58579 12.75 7L12.75 15.1893L15.4697 12.4697C15.7626 12.1768 16.2374 12.1768 16.5303 12.4697C16.8232 12.7626 16.8232 13.2374 16.5303 13.5303L12.5303 17.5303C12.3158 17.7448 11.9932 17.809 11.713 17.6929C11.4327 17.5768 11.25 17.3033 11.25 17L11.25 7C11.25 6.58579 11.5858 6.25 12 6.25ZM7.46967 12.4697C7.76256 12.1768 8.23744 12.1768 8.53033 12.4697L10.5303 14.4697C10.8232 14.7626 10.8232 15.2374 10.5303 15.5303C10.2374 15.8232 9.76256 15.8232 9.46967 15.5303L7.46967 13.5303C7.17678 13.2374 7.17678 12.7626 7.46967 12.4697Z" fill="black"/>
</svg>
