<svg width="24" height="24" viewBox="0 0 24 24" fill="none" xmlns="http://www.w3.org/2000/svg">
<path fill-rule="evenodd" clip-rule="evenodd" d="M10.5304 5.46967C10.8232 5.76256 10.8232 6.23744 10.5304 6.53033L7.53035 9.53033C7.23746 9.82322 6.76258 9.82322 6.46969 9.53033C6.1768 9.23744 6.1768 8.76256 6.46969 8.46967L9.46969 5.46967C9.76259 5.17678 10.2375 5.17678 10.5304 5.46967ZM5.81068 12.75L20 12.75C20.4142 12.75 20.75 12.4142 20.75 12C20.75 11.5858 20.4142 11.25 20 11.25L4.00002 11.25C3.69668 11.25 3.4232 11.4327 3.30711 11.713C3.19103 11.9932 3.25519 12.3158 3.46969 12.5303L9.46969 18.5303C9.76259 18.8232 10.2375 18.8232 10.5304 18.5303C10.8232 18.2374 10.8232 17.7626 10.5304 17.4697L5.81068 12.75Z" fill="black"/>
</svg>
