<svg width="24" height="24" viewBox="0 0 24 24" fill="none" xmlns="http://www.w3.org/2000/svg">
<path fill-rule="evenodd" clip-rule="evenodd" d="M11.5304 7.46967C11.8232 7.76256 11.8232 8.23744 11.5304 8.53033L9.53035 10.5303C9.23746 10.8232 8.76258 10.8232 8.46969 10.5303C8.1768 10.2374 8.1768 9.76256 8.46969 9.46967L10.4697 7.46967C10.7626 7.17678 11.2375 7.17678 11.5304 7.46967ZM8.81068 12.75L17 12.75C17.4142 12.75 17.75 12.4142 17.75 12C17.75 11.5858 17.4142 11.25 17 11.25L7.00002 11.25C6.69668 11.25 6.4232 11.4327 6.30711 11.713C6.19103 11.9932 6.25519 12.3158 6.46969 12.5303L10.4697 16.5303C10.7626 16.8232 11.2375 16.8232 11.5304 16.5303C11.8232 16.2374 11.8232 15.7626 11.5304 15.4697L8.81068 12.75Z" fill="black"/>
</svg>
