<svg width="24" height="24" viewBox="0 0 24 24" fill="none" xmlns="http://www.w3.org/2000/svg">
<path fill-rule="evenodd" clip-rule="evenodd" d="M13.4697 5.46967C13.7626 5.17678 14.2374 5.17678 14.5303 5.46967L17.5303 8.46967C17.8232 8.76256 17.8232 9.23744 17.5303 9.53033C17.2374 9.82322 16.7626 9.82322 16.4697 9.53033L13.4697 6.53033C13.1768 6.23744 13.1768 5.76256 13.4697 5.46967ZM3.25 12C3.25 11.5858 3.58579 11.25 4 11.25L20 11.25C20.3033 11.25 20.5768 11.4327 20.6929 11.713C20.809 11.9932 20.7448 12.3158 20.5303 12.5303L14.5305 18.5303C14.2376 18.8232 13.7627 18.8232 13.4698 18.5303C13.1769 18.2374 13.1769 17.7626 13.4698 17.4697L18.1894 12.75L4 12.75C3.58579 12.75 3.25 12.4142 3.25 12Z" fill="black"/>
</svg>
