<svg width="24" height="24" viewBox="0 0 24 24" fill="none" xmlns="http://www.w3.org/2000/svg">
<path fill-rule="evenodd" clip-rule="evenodd" d="M12 3.25C12.4142 3.25 12.75 3.58579 12.75 4L12.75 18.1893L17.4697 13.4697C17.7626 13.1768 18.2374 13.1768 18.5303 13.4697C18.8232 13.7626 18.8232 14.2374 18.5303 14.5303L12.5303 20.5303C12.3158 20.7448 11.9932 20.809 11.713 20.6929C11.4327 20.5768 11.25 20.3033 11.25 20L11.25 4C11.25 3.58579 11.5858 3.25 12 3.25ZM5.46967 13.4697C5.76256 13.1768 6.23744 13.1768 6.53033 13.4697L9.53033 16.4697C9.82322 16.7626 9.82322 17.2374 9.53033 17.5303C9.23744 17.8232 8.76256 17.8232 8.46967 17.5303L5.46967 14.5303C5.17678 14.2374 5.17678 13.7626 5.46967 13.4697Z" fill="black"/>
</svg>
