<svg width="24" height="24" viewBox="0 0 24 24" fill="none" xmlns="http://www.w3.org/2000/svg">
<path fill-rule="evenodd" clip-rule="evenodd" d="M11.713 3.30711C11.9932 3.19103 12.3158 3.25519 12.5303 3.46969L18.5303 9.46969C18.8232 9.76259 18.8232 10.2375 18.5303 10.5304C18.2374 10.8232 17.7626 10.8232 17.4697 10.5304L12.75 5.81068V20C12.75 20.4142 12.4142 20.75 12 20.75C11.5858 20.75 11.25 20.4142 11.25 20V4.00002C11.25 3.69668 11.4327 3.4232 11.713 3.30711ZM9.53033 6.46969C9.82322 6.76259 9.82322 7.23746 9.53033 7.53035L6.53033 10.5304C6.23744 10.8232 5.76256 10.8232 5.46967 10.5304C5.17678 10.2375 5.17678 9.76259 5.46967 9.46969L8.46967 6.46969C8.76256 6.1768 9.23744 6.1768 9.53033 6.46969Z" fill="black"/>
</svg>
