<svg width="24" height="24" viewBox="0 0 24 24" fill="none" xmlns="http://www.w3.org/2000/svg">
<path fill-rule="evenodd" clip-rule="evenodd" d="M12.4697 7.46967C12.7626 7.17678 13.2374 7.17678 13.5303 7.46967L15.5303 9.46967C15.8232 9.76256 15.8232 10.2374 15.5303 10.5303C15.2374 10.8232 14.7626 10.8232 14.4697 10.5303L12.4697 8.53033C12.1768 8.23744 12.1768 7.76256 12.4697 7.46967ZM6.25 12C6.25 11.5858 6.58579 11.25 7 11.25L17 11.25C17.3033 11.25 17.5768 11.4327 17.6929 11.713C17.809 11.9932 17.7448 12.3158 17.5303 12.5303L13.5303 16.5303C13.2374 16.8232 12.7626 16.8232 12.4697 16.5303C12.1768 16.2374 12.1768 15.7626 12.4697 15.4697L15.1893 12.75L7 12.75C6.58579 12.75 6.25 12.4142 6.25 12Z" fill="black"/>
</svg>
