<svg width="24" height="24" viewBox="0 0 24 24" fill="none" xmlns="http://www.w3.org/2000/svg">
<path fill-rule="evenodd" clip-rule="evenodd" d="M12 3.75C7.44365 3.75 3.75 7.44365 3.75 12C3.75 16.5563 7.44365 20.25 12 20.25C16.5563 20.25 20.25 16.5563 20.25 12C20.25 7.44365 16.5563 3.75 12 3.75ZM2.25 12C2.25 6.61522 6.61522 2.25 12 2.25C17.3848 2.25 21.75 6.61522 21.75 12C21.75 17.3848 17.3848 21.75 12 21.75C6.61522 21.75 2.25 17.3848 2.25 12ZM11.5303 7.46967C11.8232 7.76256 11.8232 8.23744 11.5303 8.53033L9.53033 10.5303C9.23744 10.8232 8.76256 10.8232 8.46967 10.5303C8.17678 10.2374 8.17678 9.76256 8.46967 9.46967L10.4697 7.46967C10.7626 7.17678 11.2374 7.17678 11.5303 7.46967ZM6.30709 11.713C6.42318 11.4327 6.69665 11.25 7 11.25H17C17.4142 11.25 17.75 11.5858 17.75 12C17.75 12.4142 17.4142 12.75 17 12.75H8.81066L11.5303 15.4697C11.8232 15.7626 11.8232 16.2374 11.5303 16.5303C11.2374 16.8232 10.7626 16.8232 10.4697 16.5303L6.46967 12.5303C6.25517 12.3158 6.191 11.9932 6.30709 11.713Z" fill="black"/>
</svg>
