<svg width="24" height="24" viewBox="0 0 24 24" fill="none" xmlns="http://www.w3.org/2000/svg">
<path fill-rule="evenodd" clip-rule="evenodd" d="M2.25 12C2.25 6.61522 6.61522 2.25 12 2.25C12.4142 2.25 12.75 2.58579 12.75 3C12.75 3.41421 12.4142 3.75 12 3.75C7.44365 3.75 3.75 7.44365 3.75 12C3.75 16.5563 7.44365 20.25 12 20.25C13.7538 20.25 15.3778 19.7036 16.7138 18.7717C17.0535 18.5347 17.521 18.618 17.758 18.9578C17.995 19.2975 17.9117 19.765 17.5719 20.002C15.9924 21.1038 14.0705 21.75 12 21.75C6.61522 21.75 2.25 17.3848 2.25 12ZM17.4411 4.7915C17.7174 4.48285 18.1915 4.45658 18.5002 4.73283C20.4937 6.51705 21.75 9.1123 21.75 12V13.2857C21.75 13.9406 21.5597 14.5533 21.2311 15.0689C20.6427 15.9921 19.6077 16.6071 18.4286 16.6071C17.1964 16.6071 16.1209 15.9362 15.5476 14.9396C14.7025 15.9584 13.427 16.6072 12 16.6072C9.45551 16.6072 7.39282 14.5445 7.39282 12C7.39282 9.45557 9.45551 7.39288 12 7.39288C14.5444 7.39288 16.6071 9.45556 16.6071 12C16.6071 12 16.6071 12 16.6071 12L16.6071 13.2857C16.6071 14.2916 17.4226 15.1071 18.4286 15.1071C19.074 15.1071 19.6416 14.772 19.9662 14.2628C20.1458 13.9809 20.25 13.6466 20.25 13.2857V12C20.25 9.5567 19.1888 7.36224 17.4998 5.85053C17.1912 5.57429 17.1649 5.10014 17.4411 4.7915ZM15.1071 12C15.1071 12 15.1071 12 15.1071 12C15.1071 10.284 13.716 8.89288 12 8.89288C10.2839 8.89288 8.89282 10.284 8.89282 12C8.89282 13.7161 10.2839 15.1072 12 15.1072C13.716 15.1072 15.1071 13.716 15.1071 12Z" fill="black"/>
</svg>
