<svg width="24" height="24" viewBox="0 0 24 24" fill="none" xmlns="http://www.w3.org/2000/svg">
<path fill-rule="evenodd" clip-rule="evenodd" d="M9.53034 3.46967C9.82324 3.76256 9.82324 4.23744 9.53034 4.53033L4.81067 9.25H21C21.2247 9.25 21.4376 9.35074 21.58 9.52451C21.7225 9.69827 21.7795 9.92676 21.7354 10.1471L19.7354 20.1471C19.6653 20.4977 19.3575 20.75 19 20.75H5.00001C4.5858 20.75 4.25001 20.4142 4.25001 20C4.25001 19.5858 4.5858 19.25 5.00001 19.25H18.3852L20.0852 10.75H3.91487L4.73545 14.8529C4.81668 15.2591 4.55327 15.6542 4.1471 15.7354C3.74093 15.8167 3.34581 15.5533 3.26458 15.1471L2.26458 10.1471C2.2154 9.90119 2.29236 9.64699 2.46968 9.46967L8.46968 3.46967C8.76258 3.17678 9.23745 3.17678 9.53034 3.46967ZM14.4697 3.46967C14.7626 3.17678 15.2375 3.17678 15.5303 3.46967L18.5303 6.46967C18.8232 6.76256 18.8232 7.23744 18.5303 7.53033C18.2375 7.82322 17.7626 7.82322 17.4697 7.53033L14.4697 4.53033C14.1768 4.23744 14.1768 3.76256 14.4697 3.46967Z" fill="black"/>
</svg>
