<svg width="24" height="24" viewBox="0 0 24 24" fill="none" xmlns="http://www.w3.org/2000/svg">
<path fill-rule="evenodd" clip-rule="evenodd" d="M5.25 9C5.25 5.31778 8.31779 2.25 12 2.25C13.2266 2.25 14.3842 2.59103 15.3808 3.1785C15.7377 3.38883 15.8564 3.84862 15.6461 4.20545C15.4358 4.56229 14.976 4.68105 14.6192 4.47072C13.8417 4.01244 12.9455 3.75 12 3.75C9.14621 3.75 6.75 6.14621 6.75 9C6.75 11.1134 6.22399 13.1997 5.71151 14.7372C5.51557 15.325 5.31958 15.8385 5.15157 16.25H6C6.41421 16.25 6.75 16.5858 6.75 17C6.75 17.4142 6.41421 17.75 6 17.75H4C3.74007 17.75 3.49867 17.6154 3.36201 17.3943C3.22541 17.1733 3.21294 16.8973 3.32905 16.6648L3.32957 16.6638L3.33279 16.6573L3.34734 16.6274C3.36052 16.6002 3.3805 16.5584 3.4063 16.5031C3.45792 16.3925 3.53277 16.2279 3.62314 16.0171C3.80404 15.595 4.04623 14.9896 4.28849 14.2628C4.77601 12.8003 5.25 10.8866 5.25 9ZM18 8.25C18.4142 8.25 18.75 8.58579 18.75 9C18.75 10.3778 19.2182 12.2837 19.7168 13.9044C19.9623 14.7021 20.208 15.4086 20.3923 15.9156C20.4844 16.1688 20.561 16.3718 20.6143 16.5107C20.641 16.5802 20.6618 16.6336 20.6758 16.6693L20.6915 16.7093L20.6954 16.719L20.6962 16.7211C20.6962 16.7211 20.6962 16.7211 20.6962 16.7211C20.7886 16.9522 20.7606 17.2144 20.6211 17.4205C20.4815 17.6266 20.2489 17.75 20 17.75H15.75V18C15.75 18.4925 15.653 18.9801 15.4646 19.4351C15.2761 19.89 14.9999 20.3034 14.6517 20.6517C14.3034 20.9999 13.89 21.2761 13.4351 21.4645C12.9801 21.653 12.4925 21.75 12 21.75C11.5075 21.75 11.0199 21.653 10.5649 21.4645C10.11 21.2761 9.69657 20.9999 9.34835 20.6517C9.00013 20.3034 8.72391 19.89 8.53545 19.4351C8.347 18.9801 8.25 18.4925 8.25 18V17C8.25 16.5858 8.58579 16.25 9 16.25H18.9183C18.7367 15.7438 18.5101 15.083 18.2832 14.3456C17.7818 12.7163 17.25 10.6222 17.25 9C17.25 8.58579 17.5858 8.25 18 8.25ZM14.25 17.75H9.75V18C9.75 18.2955 9.8082 18.5881 9.92127 18.861C10.0343 19.134 10.2001 19.3821 10.409 19.591C10.6179 19.7999 10.866 19.9657 11.139 20.0787C11.4119 20.1918 11.7045 20.25 12 20.25C12.2955 20.25 12.5881 20.1918 12.861 20.0787C13.134 19.9657 13.3821 19.7999 13.591 19.591C13.7999 19.3821 13.9657 19.134 14.0787 18.861C14.1918 18.5881 14.25 18.2955 14.25 18V17.75Z" fill="black"/>
</svg>
