<svg width="24" height="24" fill="none" xmlns="http://www.w3.org/2000/svg"><path d="M11.32 2.279c-1.886.131-3.672.804-5.236 1.973-.493.368-1.464 1.339-1.832 1.832a9.794 9.794 0 0 0-1.895 4.524 10.9 10.9 0 0 0 0 2.784 9.794 9.794 0 0 0 1.895 4.524c.368.493 1.339 1.464 1.832 1.832a9.768 9.768 0 0 0 4.524 1.894 10.32 10.32 0 0 0 3.804-.2 9.913 9.913 0 0 0 3.504-1.694c.493-.369 1.463-1.339 1.832-1.832a9.767 9.767 0 0 0 1.894-4.524c.105-.705.116-1.926.024-2.635a9.83 9.83 0 0 0-2.048-4.841c-.323-.407-1.035-1.133-1.252-1.277-.412-.273-.908-.062-1.112.472-.113.294-.046.421.541 1.026.789.815 1.213 1.412 1.649 2.323a7.964 7.964 0 0 1 .796 3.547c0 1.803-.552 3.47-1.631 4.926l-.262.354-5.814-5.814A4204.816 4204.816 0 0 1 6.72 5.654c0-.003.158-.123.35-.265a8.294 8.294 0 0 1 3.59-1.532c.198-.033.644-.075.99-.095.679-.038.802-.075.96-.287.106-.142.155-.433.113-.66-.092-.491-.391-.606-1.403-.536m.153 10.254 5.814 5.814-.354.262a8.255 8.255 0 0 1-9.299.39 8.679 8.679 0 0 1-2.633-2.633A8.12 8.12 0 0 1 3.76 12a8.1 8.1 0 0 1 1.629-4.93c.142-.192.262-.35.265-.35.003 0 2.622 2.616 5.819 5.813" fill-rule="evenodd" fill="#000"/></svg>