<svg width="24" height="24" fill="none" xmlns="http://www.w3.org/2000/svg"><path d="M11.5 2.718a2.7 2.7 0 0 0-.876.378c-.743.498-2.637 2.338-3.029 2.942-.196.302-.15.602.132.868.28.264.603.328.857.172.073-.046.303-.275.511-.51.756-.859 2.087-2.092 2.479-2.298a.97.97 0 0 1 .893.03c.457.265 1.867 1.588 2.573 2.417 1.245 1.46 2.201 3.088 2.714 4.624.088.264.197.605.242.759.107.365.201.51.386.598.294.14.863-.012 1.022-.273.116-.19.097-.493-.064-1.058-.777-2.728-2.835-5.707-5.431-7.863-.747-.62-1.111-.782-1.809-.806a3.61 3.61 0 0 0-.6.02M5.42 9.795c-.205.098-.299.244-.502.785-.67 1.782-.83 3.648-.455 5.3.327 1.442 1.257 2.992 2.343 3.906a8.05 8.05 0 0 0 2.177 1.343 6.11 6.11 0 0 0 1.257.406c.541.124.676.143 1.28.183a7.804 7.804 0 0 0 3.333-.518c.528-.208.704-.311.816-.477.214-.317.023-.909-.357-1.107-.17-.088-.371-.067-.724.078-.917.377-1.492.504-2.408.533-.823.027-1.397-.056-2.154-.308-1.041-.349-1.718-.766-2.489-1.536-.564-.563-.81-.895-1.129-1.523-.421-.83-.603-1.581-.635-2.62-.034-1.085.102-1.862.544-3.116.215-.609.24-.777.144-.962-.17-.328-.718-.521-1.041-.367m3.367 3.483a.654.654 0 0 0-.445.324c-.065.111-.078.201-.072.516.026 1.374.955 2.582 2.31 3.001.173.053.443.095.705.109.385.021.444.015.608-.065.235-.113.347-.328.347-.663 0-.444-.256-.74-.643-.74a1.885 1.885 0 0 1-1.33-.538c-.338-.344-.479-.681-.53-1.271-.026-.302-.124-.485-.317-.594-.148-.084-.429-.119-.633-.079m6.873 2.53c-.278.098-.393.301-.393.692 0 .413.122.609.433.698.116.033 1.044.043 3.38.034 3.505-.013 3.357-.003 3.531-.238.167-.226.173-.727.012-.966-.175-.26.004-.247-3.583-.255-2.213-.005-3.299.006-3.38.035" fill-rule="evenodd" fill="#000"/></svg>