<svg width="24" height="24" fill="none" xmlns="http://www.w3.org/2000/svg"><path d="M11.5 2.718a2.985 2.985 0 0 0-.763.301c-.39.229-1.4 1.12-2.182 1.925-.84.864-1.192 1.326-1.194 1.567-.003.336.459.769.822.769.222 0 .404-.131.771-.554.792-.912 2.116-2.158 2.579-2.426a.968.968 0 0 1 .895-.029c.411.216 1.897 1.608 2.612 2.446.789.924 1.46 1.916 2.002 2.957.326.624.468.766.768.765.383-.001.754-.238.833-.53.057-.212.023-.338-.229-.839-.992-1.983-2.608-3.978-4.49-5.545-.79-.657-1.116-.805-1.824-.828a3.696 3.696 0 0 0-.6.021M5.42 9.795c-.205.098-.299.244-.502.785-.67 1.782-.83 3.648-.455 5.3.254 1.121.897 2.362 1.69 3.263.843.957 2.195 1.827 3.467 2.232.241.076.969.245 1.22.283.782.117 1.869.092 2.666-.06.908-.174 1.99-.611 2.164-.874.212-.32.021-.911-.358-1.108-.18-.093-.37-.065-.842.127-1.483.602-2.991.661-4.445.175-1.04-.348-1.718-.766-2.488-1.535-.564-.563-.81-.895-1.129-1.523-.421-.83-.603-1.581-.635-2.62-.034-1.085.102-1.862.544-3.116.215-.609.24-.777.144-.962-.17-.328-.718-.521-1.041-.367m13.24 3.011a.587.587 0 0 0-.334.294c-.057.103-.068.302-.079 1.388l-.013 1.269-1.267.011c-1.393.013-1.428.019-1.59.26-.161.239-.155.74.012.966.161.218.206.225 1.581.238l1.27.011.002 1.149c.001.631.017 1.226.035 1.322.071.366.271.506.723.506.452 0 .652-.14.723-.506.018-.096.034-.691.035-1.322l.002-1.149 1.27-.011c1.375-.013 1.42-.02 1.581-.238.167-.226.173-.727.012-.966-.162-.241-.196-.247-1.593-.26l-1.27-.011-.002-1.149c-.001-.631-.017-1.226-.035-1.322-.04-.209-.148-.365-.307-.444-.145-.073-.597-.094-.756-.036m-9.873.472a.654.654 0 0 0-.445.324c-.065.111-.078.201-.072.516.026 1.374.955 2.582 2.31 3.001.173.053.443.095.705.109.385.021.444.015.608-.065.235-.113.347-.328.347-.663 0-.444-.256-.74-.643-.74a1.885 1.885 0 0 1-1.33-.538c-.338-.344-.479-.681-.53-1.271-.026-.302-.124-.485-.317-.594-.148-.084-.429-.119-.633-.079" fill-rule="evenodd" fill="#000"/></svg>