<svg width="24" height="24" viewBox="0 0 24 24" fill="none" xmlns="http://www.w3.org/2000/svg">
<path fill-rule="evenodd" clip-rule="evenodd" d="M2.25 3C2.25 2.58579 2.58579 2.25 3 2.25H11C11.4142 2.25 11.75 2.58579 11.75 3V4C11.75 4.41421 11.4142 4.75 11 4.75C10.5858 4.75 10.25 4.41421 10.25 4V3.75H3.75V10.5C3.75 10.9142 3.41421 11.25 3 11.25C2.58579 11.25 2.25 10.9142 2.25 10.5V3ZM7 6.25C7.41421 6.25 7.75 6.58579 7.75 7V8.25H9C9.41421 8.25 9.75 8.58579 9.75 9C9.75 9.41421 9.41421 9.75 9 9.75H7.75V11C7.75 11.4142 7.41421 11.75 7 11.75C6.58579 11.75 6.25 11.4142 6.25 11V9.75H5C4.58579 9.75 4.25 9.41421 4.25 9C4.25 8.58579 4.58579 8.25 5 8.25H6.25V7C6.25 6.58579 6.58579 6.25 7 6.25ZM11 6.75C11.4142 6.75 11.75 7.08579 11.75 7.5V15C11.75 15.4142 11.4142 15.75 11 15.75H7.75136L7.75121 17C7.75121 17 7.75121 17 7.75121 17C7.75124 17.5967 7.98829 18.1691 8.41022 18.591C8.83218 19.0129 9.40447 19.25 10.0012 19.25H11C11.5967 19.25 12.169 19.0129 12.591 18.591C13.0129 18.169 13.25 17.5967 13.25 17V14.5C13.25 13.638 13.5924 12.8114 14.2019 12.2019C14.8114 11.5924 15.638 11.25 16.5 11.25C17.362 11.25 18.1886 11.5924 18.7981 12.2019C19.4076 12.8114 19.75 13.638 19.75 14.5C19.75 14.9142 19.4142 15.25 19 15.25C18.5858 15.25 18.25 14.9142 18.25 14.5C18.25 14.0359 18.0656 13.5908 17.7374 13.2626C17.4092 12.9344 16.9641 12.75 16.5 12.75C16.0359 12.75 15.5908 12.9344 15.2626 13.2626C14.9344 13.5908 14.75 14.0359 14.75 14.5V17C14.75 17.9946 14.3549 18.9484 13.6517 19.6517C12.9484 20.3549 11.9946 20.75 11 20.75H10.0012C9.00665 20.75 8.05282 20.3549 7.34956 19.6517C6.6463 18.9484 6.25121 17.9946 6.25121 17L6.25136 15.75H3C2.58579 15.75 2.25 15.4142 2.25 15V14C2.25 13.5858 2.58579 13.25 3 13.25C3.41421 13.25 3.75 13.5858 3.75 14V14.25H10.25V7.5C10.25 7.08579 10.5858 6.75 11 6.75ZM19 17.893C18.49 18.422 18.25 19.029 18.25 19.4071C18.25 19.9709 18.6538 20.25 19 20.25C19.3462 20.25 19.75 19.9709 19.75 19.4071C19.75 19.029 19.51 18.422 19 17.893ZM18.2823 16.5133C18.6991 16.1622 19.3009 16.1622 19.7177 16.5133C20.6427 17.2925 21.25 18.4196 21.25 19.4071C21.25 20.8542 20.1187 21.75 19 21.75C17.8813 21.75 16.75 20.8542 16.75 19.4071C16.75 18.4196 17.3573 17.2925 18.2823 16.5133Z" fill="black"/>
</svg>
