<svg width="24" height="24" viewBox="0 0 24 24" fill="none" xmlns="http://www.w3.org/2000/svg">
<path fill-rule="evenodd" clip-rule="evenodd" d="M5.25 6C5.25 4.48122 6.48122 3.25 8 3.25H16C17.5188 3.25 18.75 4.48122 18.75 6V8C18.75 8.41421 18.4142 8.75 18 8.75C17.5858 8.75 17.25 8.41421 17.25 8V6C17.25 5.30964 16.6904 4.75 16 4.75H8C7.30964 4.75 6.75 5.30964 6.75 6V13C6.75 13.4142 6.41421 13.75 6 13.75C5.58579 13.75 5.25 13.4142 5.25 13V6ZM18 12.25C18.4142 12.25 18.75 12.5858 18.75 13V21C18.75 21.3033 18.5673 21.5768 18.287 21.6929C18.0068 21.809 17.6842 21.7448 17.4697 21.5303L12 16.0607L6.53033 21.5303C6.31583 21.7448 5.99324 21.809 5.71299 21.6929C5.43273 21.5768 5.25 21.3033 5.25 21V17C5.25 16.5858 5.58579 16.25 6 16.25C6.41421 16.25 6.75 16.5858 6.75 17V19.1893L11.4697 14.4697C11.7626 14.1768 12.2374 14.1768 12.5303 14.4697L17.25 19.1893V13C17.25 12.5858 17.5858 12.25 18 12.25Z" fill="black"/>
</svg>
