<svg width="24" height="24" fill="none" xmlns="http://www.w3.org/2000/svg"><path d="M8.787 2.278a.659.659 0 0 0-.447.326c-.077.132-.08.208-.08 2.396 0 2.188.003 2.264.08 2.396a.646.646 0 0 0 .475.327c.367.069.684-.054.845-.327.07-.12.081-.224.094-.883l.015-.747 1.245-.013c1.161-.012 1.255-.018 1.382-.093.273-.161.396-.478.327-.845a.646.646 0 0 0-.327-.475c-.127-.075-.221-.081-1.386-.093l-1.25-.013-.002-.627c-.002-.702-.032-.927-.148-1.081-.158-.213-.491-.313-.823-.248m6 0a.659.659 0 0 0-.447.326c-.077.132-.08.208-.08 2.396 0 2.188.003 2.264.08 2.396a.646.646 0 0 0 .475.327c.367.069.684-.054.845-.327.07-.12.081-.224.094-.886l.015-.75h1.234c1.433 0 1.517.016 1.858.351.353.348.356.363.379 1.849.019 1.208.026 1.31.1 1.436a.646.646 0 0 0 .475.327c.367.069.684-.054.845-.327.076-.129.08-.207.08-1.476-.001-1.149-.011-1.377-.071-1.6a2.832 2.832 0 0 0-1.449-1.781c-.516-.254-.619-.268-2.11-.289l-1.35-.019-.002-.625c-.002-.701-.033-.926-.148-1.08-.158-.213-.491-.313-.823-.248m-9.17 2.004c-.586.071-1.099.33-1.552.783-.483.482-.715.968-.787 1.648-.028.255-.037 2.498-.029 6.567.012 5.74.017 6.197.082 6.42a2.856 2.856 0 0 0 1.989 1.97c.231.062.469.07 2.1.07 1.768 0 1.845-.003 1.976-.08.273-.161.396-.478.327-.845a.646.646 0 0 0-.327-.475c-.129-.076-.228-.081-1.936-.1-1.719-.019-1.808-.024-1.98-.104a1.412 1.412 0 0 1-.639-.683c-.079-.211-.081-.304-.081-3.953v-3.736l2.25-.012c2.167-.012 2.255-.015 2.386-.092a.646.646 0 0 0 .327-.475c.069-.367-.054-.684-.327-.845-.131-.077-.219-.08-2.386-.092l-2.25-.012V8.5c0-2.014-.001-2.008.366-2.374.236-.237.482-.342.894-.383.304-.03.468-.104.59-.268.106-.142.155-.433.113-.66-.085-.454-.42-.616-1.106-.533m11 8.001c-.585.069-1.099.328-1.552.782-.501.501-.721.977-.794 1.719l-.044.447-.271.027c-.312.03-.489.129-.614.342-.081.138-.082.188-.082 2.9 0 2.688.002 2.764.08 2.896a.652.652 0 0 0 .466.327c.096.018 1.533.034 3.194.034s3.098-.016 3.194-.034a.652.652 0 0 0 .466-.327c.078-.132.08-.208.08-2.896 0-2.712-.001-2.762-.082-2.9-.126-.213-.302-.312-.617-.343l-.273-.027-.029-.365c-.037-.466-.106-.735-.278-1.085-.518-1.053-1.635-1.641-2.844-1.497m.837 1.558c.459.172.786.655.786 1.161v.238h-2.48v-.238c0-.344.12-.63.366-.876a1.236 1.236 0 0 1 1.328-.285M19.24 18.5v1.74h-4.48v-3.48h4.48v1.74" fill-rule="evenodd" fill="#000"/></svg>