<svg width="24" height="24" viewBox="0 0 24 24" fill="none" xmlns="http://www.w3.org/2000/svg">
<path fill-rule="evenodd" clip-rule="evenodd" d="M9 2.25C9.41421 2.25 9.75 2.58579 9.75 3V4.25H12C12.4142 4.25 12.75 4.58579 12.75 5C12.75 5.41421 12.4142 5.75 12 5.75H9.75V7C9.75 7.41421 9.41421 7.75 9 7.75C8.58579 7.75 8.25 7.41421 8.25 7V3C8.25 2.58579 8.58579 2.25 9 2.25ZM15 2.25C15.4142 2.25 15.75 2.58579 15.75 3V4.25H18C19.5188 4.25 20.75 5.48122 20.75 7V9C20.75 9.41421 20.4142 9.75 20 9.75C19.5858 9.75 19.25 9.41421 19.25 9V7C19.25 6.30964 18.6904 5.75 18 5.75H15.75V7C15.75 7.41421 15.4142 7.75 15 7.75C14.5858 7.75 14.25 7.41421 14.25 7V3C14.25 2.58579 14.5858 2.25 15 2.25ZM3.25 7C3.25 5.48122 4.48122 4.25 6 4.25C6.41421 4.25 6.75 4.58579 6.75 5C6.75 5.41421 6.41421 5.75 6 5.75C5.30964 5.75 4.75 6.30964 4.75 7V10.25H9C9.41421 10.25 9.75 10.5858 9.75 11C9.75 11.4142 9.41421 11.75 9 11.75H4.75V19C4.75 19.6904 5.30964 20.25 6 20.25H9C9.41421 20.25 9.75 20.5858 9.75 21C9.75 21.4142 9.41421 21.75 9 21.75H6C4.48122 21.75 3.25 20.5188 3.25 19V7ZM12.4697 13.4697C12.7626 13.1768 13.2374 13.1768 13.5303 13.4697L16.5 16.4393L19.4697 13.4697C19.7626 13.1768 20.2374 13.1768 20.5303 13.4697C20.8232 13.7626 20.8232 14.2374 20.5303 14.5303L17.5607 17.5L20.5303 20.4697C20.8232 20.7626 20.8232 21.2374 20.5303 21.5303C20.2374 21.8232 19.7626 21.8232 19.4697 21.5303L16.5 18.5607L13.5303 21.5303C13.2374 21.8232 12.7626 21.8232 12.4697 21.5303C12.1768 21.2374 12.1768 20.7626 12.4697 20.4697L15.4393 17.5L12.4697 14.5303C12.1768 14.2374 12.1768 13.7626 12.4697 13.4697Z" fill="black"/>
</svg>
