<svg width="24" height="24" viewBox="0 0 24 24" fill="none" xmlns="http://www.w3.org/2000/svg">
<path fill-rule="evenodd" clip-rule="evenodd" d="M9 2.25C9.41421 2.25 9.75 2.58579 9.75 3V4.25H12C12.4142 4.25 12.75 4.58579 12.75 5C12.75 5.41421 12.4142 5.75 12 5.75H9.75V7C9.75 7.41421 9.41421 7.75 9 7.75C8.58579 7.75 8.25 7.41421 8.25 7V3C8.25 2.58579 8.58579 2.25 9 2.25ZM3.25 7C3.25 5.48122 4.48122 4.25 6 4.25C6.41421 4.25 6.75 4.58579 6.75 5C6.75 5.41421 6.41421 5.75 6 5.75C5.30964 5.75 4.75 6.30964 4.75 7V10.25H15C15.4142 10.25 15.75 10.5858 15.75 11C15.75 11.4142 15.4142 11.75 15 11.75H4.75V19C4.75 19.6904 5.30964 20.25 6 20.25H8C8.41421 20.25 8.75 20.5858 8.75 21C8.75 21.4142 8.41421 21.75 8 21.75H6C4.48122 21.75 3.25 20.5188 3.25 19V7ZM14.25 5C14.25 4.58579 14.5858 4.25 15 4.25H18C19.5188 4.25 20.75 5.48122 20.75 7V9C20.75 9.41421 20.4142 9.75 20 9.75C19.5858 9.75 19.25 9.41421 19.25 9V7C19.25 6.30964 18.6904 5.75 18 5.75H15C14.5858 5.75 14.25 5.41421 14.25 5ZM20.3875 14.4697C20.6803 14.7626 20.6803 15.2374 20.3875 15.5303L14.1876 21.7302C13.8947 22.0231 13.4198 22.0231 13.1269 21.7302L10.4697 19.0731C10.1768 18.7802 10.1768 18.3054 10.4697 18.0125C10.7625 17.7196 11.2374 17.7196 11.5303 18.0124L13.6572 20.1392L19.3268 14.4697C19.6197 14.1768 20.0946 14.1768 20.3875 14.4697Z" fill="black"/>
</svg>
