<svg width="24" height="24" viewBox="0 0 24 24" fill="none" xmlns="http://www.w3.org/2000/svg">
<path fill-rule="evenodd" clip-rule="evenodd" d="M2.46967 2.46967C2.76256 2.17678 3.23744 2.17678 3.53033 2.46967L21.5303 20.4697C21.8232 20.7626 21.8232 21.2374 21.5303 21.5303C21.2374 21.8232 20.7626 21.8232 20.4697 21.5303L2.46967 3.53033C2.17678 3.23744 2.17678 2.76256 2.46967 2.46967ZM9.25 5.5C9.25 5.08579 9.58579 4.75 10 4.75H15C15.9665 4.75 16.75 5.5335 16.75 6.5V11C16.75 11.4142 16.4142 11.75 16 11.75C15.5858 11.75 15.25 11.4142 15.25 11V6.5C15.25 6.36193 15.1381 6.25 15 6.25H10C9.58579 6.25 9.25 5.91421 9.25 5.5ZM21.4205 6.37895C21.6266 6.51847 21.75 6.75113 21.75 7V17C21.75 17.4142 21.4142 17.75 21 17.75C20.5858 17.75 20.25 17.4142 20.25 17V8.10778L18.7785 8.69636C18.394 8.85019 17.9575 8.66313 17.8036 8.27854C17.6498 7.89396 17.8369 7.45748 18.2215 7.30364L20.7215 6.30364C20.9525 6.21122 21.2144 6.23943 21.4205 6.37895ZM3.75 8V11C3.75 11.4142 3.41421 11.75 3 11.75C2.58579 11.75 2.25 11.4142 2.25 11V8C2.25 7.58579 2.58579 7.25 3 7.25C3.41421 7.25 3.75 7.58579 3.75 8ZM3 15.25C3.41421 15.25 3.75 15.5858 3.75 16V17.5C3.75 17.6381 3.86193 17.75 4 17.75H14C14.4142 17.75 14.75 18.0858 14.75 18.5C14.75 18.9142 14.4142 19.25 14 19.25H4C3.0335 19.25 2.25 18.4665 2.25 17.5V16C2.25 15.5858 2.58579 15.25 3 15.25Z" fill="black"/>
</svg>
