<svg width="24" height="24" viewBox="0 0 24 24" fill="none" xmlns="http://www.w3.org/2000/svg">
<path fill-rule="evenodd" clip-rule="evenodd" d="M2.25 6.5C2.25 5.5335 3.0335 4.75 4 4.75H15C15.9665 4.75 16.75 5.5335 16.75 6.5V14.4922L20.25 15.8922V8.10777L18.7785 8.69636C18.394 8.85019 17.9575 8.66313 17.8036 8.27854C17.6498 7.89396 17.8369 7.45748 18.2215 7.30364L20.7215 6.30364C20.9525 6.21122 21.2144 6.23943 21.4205 6.37895C21.6266 6.51847 21.75 6.75113 21.75 7V17C21.75 17.2489 21.6266 17.4815 21.4205 17.6211C21.2144 17.7606 20.9525 17.7888 20.7215 17.6964L16.75 16.1078V17.5C16.75 18.4665 15.9665 19.25 15 19.25H4C3.0335 19.25 2.25 18.4665 2.25 17.5V16C2.25 15.5858 2.58579 15.25 3 15.25C3.41421 15.25 3.75 15.5858 3.75 16V17.5C3.75 17.6381 3.86193 17.75 4 17.75H15C15.1381 17.75 15.25 17.6381 15.25 17.5V15.017C15.2497 15.0055 15.2497 14.994 15.25 14.9825V6.5C15.25 6.36193 15.1381 6.25 15 6.25H4C3.86193 6.25 3.75 6.36193 3.75 6.5V11C3.75 11.4142 3.41421 11.75 3 11.75C2.58579 11.75 2.25 11.4142 2.25 11V6.5Z" fill="black"/>
</svg>
