<svg width="24" height="24" viewBox="0 0 24 24" fill="none" xmlns="http://www.w3.org/2000/svg">
<path fill-rule="evenodd" clip-rule="evenodd" d="M9.5 5.75C9.36193 5.75 9.25 5.86193 9.25 6C9.25 6.9665 8.4665 7.75 7.5 7.75H5C4.30964 7.75 3.75 8.30964 3.75 9V17C3.75 17.6904 4.30964 18.25 5 18.25C5.41421 18.25 5.75 18.5858 5.75 19C5.75 19.4142 5.41421 19.75 5 19.75C3.48122 19.75 2.25 18.5188 2.25 17V9C2.25 7.48122 3.48122 6.25 5 6.25H7.5C7.63807 6.25 7.75 6.13807 7.75 6C7.75 5.0335 8.5335 4.25 9.5 4.25H14.5C15.4665 4.25 16.25 5.0335 16.25 6C16.25 6.13807 16.3619 6.25 16.5 6.25H19C20.5188 6.25 21.75 7.48122 21.75 9C21.75 9.41421 21.4142 9.75 21 9.75C20.5858 9.75 20.25 9.41421 20.25 9C20.25 8.30964 19.6904 7.75 19 7.75H16.5C15.5335 7.75 14.75 6.9665 14.75 6C14.75 5.86193 14.6381 5.75 14.5 5.75H9.5ZM11.25 10C11.25 9.58579 11.5858 9.25 12 9.25C14.0711 9.25 15.75 10.9289 15.75 13C15.75 15.0711 14.0711 16.75 12 16.75C9.92893 16.75 8.25 15.0711 8.25 13C8.25 12.5858 8.58579 12.25 9 12.25C9.41421 12.25 9.75 12.5858 9.75 13C9.75 14.2426 10.7574 15.25 12 15.25C13.2426 15.25 14.25 14.2426 14.25 13C14.25 11.7574 13.2426 10.75 12 10.75C11.5858 10.75 11.25 10.4142 11.25 10ZM21 12.25C21.4142 12.25 21.75 12.5858 21.75 13V17C21.75 18.5188 20.5188 19.75 19 19.75H9C8.58579 19.75 8.25 19.4142 8.25 19C8.25 18.5858 8.58579 18.25 9 18.25H19C19.6904 18.25 20.25 17.6904 20.25 17V13C20.25 12.5858 20.5858 12.25 21 12.25Z" fill="black"/>
</svg>
