<svg width="24" height="24" viewBox="0 0 24 24" fill="none" xmlns="http://www.w3.org/2000/svg">
<path fill-rule="evenodd" clip-rule="evenodd" d="M11.4342 4.50518C13.6797 2.25967 17.3204 2.25967 19.5659 4.50518C21.8114 6.7507 21.8114 10.3914 19.5659 12.6369L12.4948 19.708C10.2493 21.9535 6.60861 21.9535 4.36309 19.708C2.11758 17.4625 2.11758 13.8218 4.36309 11.5763L8.96968 6.96966C9.26258 6.67677 9.73745 6.67678 10.0303 6.96968C10.3232 7.26257 10.3232 7.73745 10.0303 8.03034L9.48959 8.57105L13.3882 12.4697C13.6811 12.7626 13.6811 13.2374 13.3882 13.5303C13.0953 13.8232 12.6204 13.8232 12.3275 13.5303L8.42893 9.63171L5.42375 12.6369C3.76403 14.2966 3.76402 16.9876 5.42375 18.6473C7.08348 20.307 9.77443 20.307 11.4342 18.6473L18.5052 11.5762C20.165 9.91652 20.165 7.22557 18.5052 5.56584C16.8455 3.90611 14.1545 3.90611 12.4948 5.56584C12.2019 5.85873 11.7271 5.85873 11.4342 5.56584C11.1413 5.27295 11.1413 4.79807 11.4342 4.50518Z" fill="black"/>
</svg>
