<svg width="24" height="24" viewBox="0 0 24 24" fill="none" xmlns="http://www.w3.org/2000/svg">
<path fill-rule="evenodd" clip-rule="evenodd" d="M8.64129 3.64124C9.53209 2.75044 10.7403 2.25 12.0001 2.25C13.2598 2.25 14.468 2.75045 15.3588 3.64124C16.2496 4.53204 16.7501 5.74022 16.7501 7V7.25H17.1598C18.59 7.25 19.7815 8.34632 19.9003 9.77163L20.567 17.7716C20.7006 19.3749 19.4353 20.75 17.8265 20.75C17.4122 20.75 17.0765 20.4142 17.0765 20C17.0765 19.5858 17.4122 19.25 17.8265 19.25C18.5578 19.25 19.1329 18.625 19.0721 17.8962L18.4055 9.89619C18.3515 9.24833 17.8099 8.75 17.1598 8.75H16.7501L16.7501 12C16.7501 12.4142 16.4143 12.75 16.0001 12.75C15.5858 12.75 15.2501 12.4142 15.2501 12L15.2501 8.75H12.0001C11.5858 8.75 11.2501 8.41421 11.2501 8C11.2501 7.58579 11.5858 7.25 12.0001 7.25H15.2501V7C15.2501 6.13805 14.9076 5.3114 14.2981 4.7019C13.6887 4.09241 12.862 3.75 12.0001 3.75C11.1381 3.75 10.3114 4.09241 9.70196 4.7019C9.09246 5.3114 8.75005 6.13805 8.75005 7V12C8.75005 12.4142 8.41426 12.75 8.00005 12.75C7.58584 12.75 7.25005 12.4142 7.25005 12L7.25005 8.75H6.84032C6.19021 8.75 5.64863 9.24833 5.59464 9.89619L4.92797 17.8962C4.86724 18.625 5.44235 19.25 6.17365 19.25H13.0001C13.4143 19.25 13.7501 19.5858 13.7501 20C13.7501 20.4142 13.4143 20.75 13.0001 20.75H6.17365C4.56479 20.75 3.29954 19.3749 3.43315 17.7716L4.09982 9.77163C4.21859 8.34632 5.41007 7.25 6.84032 7.25H7.25005L7.25005 7C7.25005 5.74022 7.7505 4.53204 8.64129 3.64124Z" fill="black"/>
</svg>
