<svg width="24" height="24" viewBox="0 0 24 24" fill="none" xmlns="http://www.w3.org/2000/svg">
<path fill-rule="evenodd" clip-rule="evenodd" d="M8.64123 3.64124C9.53203 2.75044 10.7402 2.25 12 2.25C13.2598 2.25 14.4679 2.75045 15.3587 3.64124C16.2495 4.53204 16.75 5.74022 16.75 7V7.25H17.1597C18.59 7.25 19.7815 8.34632 19.9002 9.77163L20.2474 13.9377C20.2818 14.3505 19.9751 14.713 19.5623 14.7474C19.1495 14.7818 18.787 14.4751 18.7526 14.0623L18.4054 9.89619C18.3514 9.24833 17.8098 8.75 17.1597 8.75H12C11.5858 8.75 11.25 8.41421 11.25 8C11.25 7.58579 11.5858 7.25 12 7.25H15.25V7C15.25 6.13805 14.9076 5.3114 14.2981 4.7019C13.6886 4.09241 12.8619 3.75 12 3.75C11.138 3.75 10.3114 4.09241 9.70189 4.7019C9.0924 5.3114 8.74999 6.13805 8.74999 7V8C8.74999 8.41421 8.4142 8.75 7.99999 8.75H6.84026C6.19015 8.75 5.64856 9.24833 5.59458 9.89619L4.92791 17.8962C4.86718 18.625 5.44229 19.25 6.17359 19.25H17.8264C18.5577 19.25 19.1328 18.625 19.0721 17.8962C19.0377 17.4834 19.3444 17.1209 19.7572 17.0865C20.17 17.0521 20.5325 17.3588 20.5669 17.7716C20.7005 19.3749 19.4353 20.75 17.8264 20.75H6.17359C4.56473 20.75 3.29948 19.3749 3.43309 17.7716L4.09976 9.77163C4.21853 8.34632 5.41001 7.25 6.84026 7.25H7.24999V7C7.24999 5.74022 7.75044 4.53204 8.64123 3.64124ZM7.99999 10.25C8.4142 10.25 8.74999 10.5858 8.74999 11V11.01C8.74999 11.4242 8.4142 11.76 7.99999 11.76C7.58578 11.76 7.24999 11.4242 7.24999 11.01V11C7.24999 10.5858 7.58578 10.25 7.99999 10.25ZM16 10.25C16.4142 10.25 16.75 10.5858 16.75 11V11.01C16.75 11.4242 16.4142 11.76 16 11.76C15.5858 11.76 15.25 11.4242 15.25 11.01V11C15.25 10.5858 15.5858 10.25 16 10.25Z" fill="black"/>
</svg>
