<svg width="24" height="24" viewBox="0 0 24 24" fill="none" xmlns="http://www.w3.org/2000/svg">
<path fill-rule="evenodd" clip-rule="evenodd" d="M2.25 5C2.25 4.58579 2.58579 4.25 3 4.25H21C21.4142 4.25 21.75 4.58579 21.75 5V8C21.75 8.41421 21.4142 8.75 21 8.75C20.5858 8.75 20.25 8.41421 20.25 8V5.75H3.75V8C3.75 8.41421 3.41421 8.75 3 8.75C2.58579 8.75 2.25 8.41421 2.25 8V5ZM2.25 11C2.25 10.5858 2.58579 10.25 3 10.25C7.83249 10.25 11.75 14.1675 11.75 19C11.75 19.4142 11.4142 19.75 11 19.75C10.5858 19.75 10.25 19.4142 10.25 19C10.25 14.9959 7.00406 11.75 3 11.75C2.58579 11.75 2.25 11.4142 2.25 11ZM21 11.25C21.4142 11.25 21.75 11.5858 21.75 12V19C21.75 19.4142 21.4142 19.75 21 19.75H14C13.5858 19.75 13.25 19.4142 13.25 19C13.25 18.5858 13.5858 18.25 14 18.25H20.25V12C20.25 11.5858 20.5858 11.25 21 11.25ZM2.25 15C2.25 14.5858 2.58579 14.25 3 14.25C5.62335 14.25 7.75 16.3766 7.75 19C7.75 19.4142 7.41421 19.75 7 19.75C6.58579 19.75 6.25 19.4142 6.25 19C6.25 17.2051 4.79493 15.75 3 15.75C2.58579 15.75 2.25 15.4142 2.25 15ZM3 18.24C3.41421 18.24 3.75 18.5758 3.75 18.99V19C3.75 19.4142 3.41421 19.75 3 19.75C2.58579 19.75 2.25 19.4142 2.25 19V18.99C2.25 18.5758 2.58579 18.24 3 18.24Z" fill="black"/>
</svg>
