<svg width="24" height="24" viewBox="0 0 24 24" fill="none" xmlns="http://www.w3.org/2000/svg">
<path fill-rule="evenodd" clip-rule="evenodd" d="M11.25 3.78363C7.04513 4.16255 3.75 7.69647 3.75 12C3.75 16.5563 7.44365 20.25 12 20.25C14.0084 20.25 15.8483 19.5331 17.2793 18.34L11.6893 12.75H7C6.58579 12.75 6.25 12.4142 6.25 12C6.25 11.5858 6.58579 11.25 7 11.25H11.25V3.78363ZM12.75 3.78361C14.8901 3.97634 16.7942 4.98595 18.1495 6.50019C18.4257 6.80883 18.8999 6.8351 19.2085 6.55885C19.5172 6.28261 19.5434 5.80846 19.2672 5.49981C17.483 3.50633 14.8877 2.25 12 2.25C6.61522 2.25 2.25 6.61522 2.25 12C2.25 17.3848 6.61522 21.75 12 21.75C14.6922 21.75 17.1307 20.6579 18.8943 18.8943C20.6579 17.1307 21.75 14.6922 21.75 12C21.75 11.5858 21.4142 11.25 21 11.25C20.5858 11.25 20.25 11.5858 20.25 12C20.25 14.0084 19.5331 15.8483 18.34 17.2793L12.75 11.6893V3.78361Z" fill="black"/>
</svg>
