<svg width="24" height="24" viewBox="0 0 24 24" fill="none" xmlns="http://www.w3.org/2000/svg">
<path fill-rule="evenodd" clip-rule="evenodd" d="M12 3.75C7.44365 3.75 3.75 7.44365 3.75 12C3.75 16.5563 7.44365 20.25 12 20.25C16.5563 20.25 20.25 16.5563 20.25 12C20.25 7.44365 16.5563 3.75 12 3.75ZM2.25 12C2.25 6.61522 6.61522 2.25 12 2.25C17.3848 2.25 21.75 6.61522 21.75 12C21.75 17.3848 17.3848 21.75 12 21.75C6.61522 21.75 2.25 17.3848 2.25 12ZM17.5303 8.46967C17.8232 8.76256 17.8232 9.23744 17.5303 9.53033L12.5303 14.5303C12.2374 14.8232 11.7626 14.8232 11.4697 14.5303C11.1768 14.2374 11.1768 13.7626 11.4697 13.4697L16.4697 8.46967C16.7626 8.17678 17.2375 8.17678 17.5303 8.46967ZM6.46967 12.4697C6.76256 12.1768 7.23743 12.1768 7.53033 12.4697L10.5304 15.4697C10.8233 15.7626 10.8233 16.2375 10.5304 16.5303C10.2375 16.8232 9.76261 16.8232 9.46971 16.5304L6.46967 13.5303C6.17678 13.2374 6.17678 12.7626 6.46967 12.4697Z" fill="black"/>
</svg>
