<svg width="24" height="24" viewBox="0 0 24 24" fill="none" xmlns="http://www.w3.org/2000/svg">
<path fill-rule="evenodd" clip-rule="evenodd" d="M20.5303 6.46967C20.8232 6.76256 20.8232 7.23743 20.5303 7.53033L12.0304 16.0303C11.7375 16.3232 11.2626 16.3232 10.9697 16.0303C10.6768 15.7374 10.6768 15.2626 10.9697 14.9697L19.4697 6.46967C19.7626 6.17678 20.2374 6.17678 20.5303 6.46967ZM3.46966 12.4697C3.76255 12.1768 4.23742 12.1768 4.53032 12.4697L9.53043 17.4696C9.82332 17.7625 9.82333 18.2374 9.53044 18.5303C9.23755 18.8232 8.76268 18.8232 8.46978 18.5303L3.46968 13.5303C3.17678 13.2374 3.17677 12.7626 3.46966 12.4697Z" fill="black"/>
</svg>
