<svg width="24" height="24" viewBox="0 0 24 24" fill="none" xmlns="http://www.w3.org/2000/svg">
<path fill-rule="evenodd" clip-rule="evenodd" d="M17.5303 8.46967C17.8232 8.76256 17.8232 9.23744 17.5303 9.53033L12.5303 14.5303C12.2374 14.8232 11.7625 14.8232 11.4696 14.5303C11.1767 14.2374 11.1767 13.7626 11.4696 13.4697L16.4697 8.46967C16.7626 8.17678 17.2374 8.17678 17.5303 8.46967ZM6.46967 12.4697C6.76256 12.1768 7.23743 12.1768 7.53033 12.4697L10.5304 15.4697C10.8233 15.7626 10.8233 16.2375 10.5304 16.5303C10.2375 16.8232 9.76261 16.8232 9.46971 16.5304L6.46967 13.5303C6.17678 13.2374 6.17678 12.7626 6.46967 12.4697Z" fill="black"/>
</svg>
