<svg width="24" height="24" viewBox="0 0 24 24" fill="none" xmlns="http://www.w3.org/2000/svg">
<path fill-rule="evenodd" clip-rule="evenodd" d="M12 3.75C7.44365 3.75 3.75 7.44365 3.75 12C3.75 16.5563 7.44365 20.25 12 20.25C16.5563 20.25 20.25 16.5563 20.25 12C20.25 7.44365 16.5563 3.75 12 3.75ZM2.25 12C2.25 6.61522 6.61522 2.25 12 2.25C17.3848 2.25 21.75 6.61522 21.75 12C21.75 17.3848 17.3848 21.75 12 21.75C6.61522 21.75 2.25 17.3848 2.25 12ZM6.46967 9.46967C6.76256 9.17678 7.23744 9.17678 7.53033 9.46967L10.0303 11.9697C10.3232 12.2626 10.3232 12.7374 10.0303 13.0303C9.73744 13.3232 9.26256 13.3232 8.96967 13.0303L6.46967 10.5303C6.17678 10.2374 6.17678 9.76256 6.46967 9.46967ZM17.5303 9.46967C17.8232 9.76256 17.8232 10.2374 17.5303 10.5303L12.5303 15.5303C12.2374 15.8232 11.7626 15.8232 11.4697 15.5303C11.1768 15.2374 11.1768 14.7626 11.4697 14.4697L16.4697 9.46967C16.7626 9.17678 17.2374 9.17678 17.5303 9.46967Z" fill="black"/>
</svg>
