<svg width="24" height="24" viewBox="0 0 24 24" fill="none" xmlns="http://www.w3.org/2000/svg">
<path fill-rule="evenodd" clip-rule="evenodd" d="M12 3.75C7.44365 3.75 3.75 7.44365 3.75 12C3.75 16.5563 7.44365 20.25 12 20.25C16.5563 20.25 20.25 16.5563 20.25 12C20.25 7.44365 16.5563 3.75 12 3.75ZM2.25 12C2.25 6.61522 6.61522 2.25 12 2.25C17.3848 2.25 21.75 6.61522 21.75 12C21.75 17.3848 17.3848 21.75 12 21.75C6.61522 21.75 2.25 17.3848 2.25 12ZM14.5303 6.46967C14.8232 6.76256 14.8232 7.23744 14.5303 7.53033L12.0303 10.0303C11.7374 10.3232 11.2626 10.3232 10.9697 10.0303C10.6768 9.73744 10.6768 9.26256 10.9697 8.96967L13.4697 6.46967C13.7626 6.17678 14.2374 6.17678 14.5303 6.46967ZM8.46967 11.4697C8.76256 11.1768 9.23744 11.1768 9.53033 11.4697L14.5303 16.4697C14.8232 16.7626 14.8232 17.2374 14.5303 17.5303C14.2374 17.8232 13.7626 17.8232 13.4697 17.5303L8.46967 12.5303C8.17678 12.2374 8.17678 11.7626 8.46967 11.4697Z" fill="black"/>
</svg>
