<svg width="24" height="24" viewBox="0 0 24 24" fill="none" xmlns="http://www.w3.org/2000/svg">
<path fill-rule="evenodd" clip-rule="evenodd" d="M15.5303 3.46967C15.8232 3.76256 15.8232 4.23744 15.5303 4.53033L10.5303 9.53033C10.2374 9.82322 9.76256 9.82322 9.46967 9.53033C9.17678 9.23744 9.17678 8.76256 9.46967 8.46967L14.4697 3.46967C14.7626 3.17678 15.2374 3.17678 15.5303 3.46967ZM6.46967 11.4697C6.76256 11.1768 7.23744 11.1768 7.53033 11.4697L15.5303 19.4697C15.8232 19.7626 15.8232 20.2374 15.5303 20.5303C15.2374 20.8232 14.7626 20.8232 14.4697 20.5303L6.46967 12.5303C6.17678 12.2374 6.17678 11.7626 6.46967 11.4697Z" fill="black"/>
</svg>
