<svg width="24" height="24" viewBox="0 0 24 24" fill="none" xmlns="http://www.w3.org/2000/svg">
<path fill-rule="evenodd" clip-rule="evenodd" d="M8.46967 3.46967C8.76256 3.17678 9.23744 3.17678 9.53033 3.46967L14.5303 8.46967C14.8232 8.76256 14.8232 9.23744 14.5303 9.53033C14.2374 9.82322 13.7626 9.82322 13.4697 9.53033L8.46967 4.53033C8.17678 4.23744 8.17678 3.76256 8.46967 3.46967ZM17.5303 11.4697C17.8232 11.7626 17.8232 12.2374 17.5303 12.5303L9.53033 20.5303C9.23744 20.8232 8.76256 20.8232 8.46967 20.5303C8.17678 20.2374 8.17678 19.7626 8.46967 19.4697L16.4697 11.4697C16.7626 11.1768 17.2374 11.1768 17.5303 11.4697Z" fill="black"/>
</svg>
