<svg width="24" height="24" viewBox="0 0 24 24" fill="none" xmlns="http://www.w3.org/2000/svg">
<path fill-rule="evenodd" clip-rule="evenodd" d="M11.4697 6.46967C11.7626 6.17678 12.2374 6.17678 12.5303 6.46967L20.5303 14.4697C20.8232 14.7626 20.8232 15.2374 20.5303 15.5303C20.2374 15.8232 19.7626 15.8232 19.4697 15.5303L11.4697 7.53033C11.1768 7.23744 11.1768 6.76256 11.4697 6.46967ZM9.53033 9.46967C9.82322 9.76256 9.82322 10.2374 9.53033 10.5303L4.53033 15.5303C4.23744 15.8232 3.76256 15.8232 3.46967 15.5303C3.17678 15.2374 3.17678 14.7626 3.46967 14.4697L8.46967 9.46967C8.76256 9.17678 9.23744 9.17678 9.53033 9.46967Z" fill="black"/>
</svg>
