<svg width="24" height="24" viewBox="0 0 24 24" fill="none" xmlns="http://www.w3.org/2000/svg">
<path fill-rule="evenodd" clip-rule="evenodd" d="M20.5303 8.46967C20.8232 8.76256 20.8232 9.23744 20.5303 9.53033L12.5303 17.5303C12.2374 17.8232 11.7626 17.8232 11.4697 17.5303C11.1768 17.2374 11.1768 16.7626 11.4697 16.4697L19.4697 8.46967C19.7626 8.17678 20.2374 8.17678 20.5303 8.46967ZM3.46967 8.46967C3.76256 8.17678 4.23744 8.17678 4.53033 8.46967L9.53033 13.4697C9.82322 13.7626 9.82322 14.2374 9.53033 14.5303C9.23744 14.8232 8.76256 14.8232 8.46967 14.5303L3.46967 9.53033C3.17678 9.23744 3.17678 8.76256 3.46967 8.46967Z" fill="black"/>
</svg>
