<svg width="24" height="24" viewBox="0 0 24 24" fill="none" xmlns="http://www.w3.org/2000/svg">
<path fill-rule="evenodd" clip-rule="evenodd" d="M12 3.75C7.44365 3.75 3.75 7.44365 3.75 12C3.75 16.5563 7.44365 20.25 12 20.25C16.5563 20.25 20.25 16.5563 20.25 12C20.25 11.5858 20.5858 11.25 21 11.25C21.4142 11.25 21.75 11.5858 21.75 12C21.75 17.3848 17.3848 21.75 12 21.75C6.61522 21.75 2.25 17.3848 2.25 12C2.25 6.61522 6.61522 2.25 12 2.25C15.0632 2.25 17.7968 3.66347 19.583 5.87088C19.8436 6.19288 19.7938 6.66513 19.4718 6.92569C19.1498 7.18625 18.6775 7.13645 18.417 6.81445C16.9033 4.94386 14.5913 3.75 12 3.75Z" fill="black"/>
</svg>
