<svg width="24" height="24" viewBox="0 0 24 24" fill="none" xmlns="http://www.w3.org/2000/svg">
<path fill-rule="evenodd" clip-rule="evenodd" d="M11.25 5C11.25 4.58579 11.5858 4.25 12 4.25C15.1756 4.25 17.75 6.82436 17.75 10V11C17.75 11.4142 17.4142 11.75 17 11.75C16.5858 11.75 16.25 11.4142 16.25 11V10C16.25 7.65279 14.3472 5.75 12 5.75C11.5858 5.75 11.25 5.41421 11.25 5ZM8.45046 6.40034C8.78164 6.64913 8.84844 7.11928 8.59966 7.45046C8.06602 8.16084 7.75 9.04244 7.75 10V10.309C8.65889 10.4533 9.48256 10.8555 10.1421 11.4377C10.4527 11.7118 10.4822 12.1857 10.2081 12.4963C9.93403 12.8069 9.46008 12.8364 9.14952 12.5623C8.57615 12.0562 7.82475 11.75 7 11.75C5.20507 11.75 3.75 13.2051 3.75 15C3.75 16.7949 5.20507 18.25 7 18.25C7.41421 18.25 7.75 18.5858 7.75 19C7.75 19.4142 7.41421 19.75 7 19.75C4.37665 19.75 2.25 17.6234 2.25 15C2.25 12.6318 3.98301 10.6685 6.25 10.3089V10C6.25 8.70619 6.67844 7.51054 7.40034 6.54954C7.64913 6.21836 8.11928 6.15156 8.45046 6.40034ZM19.0835 11.5037C19.3576 11.1931 19.8316 11.1636 20.1421 11.4377C21.127 12.307 21.75 13.5812 21.75 15C21.75 17.6234 19.6234 19.75 17 19.75C16.5858 19.75 16.25 19.4142 16.25 19C16.25 18.5858 16.5858 18.25 17 18.25C18.7949 18.25 20.25 16.7949 20.25 15C20.25 14.0294 19.8255 13.1589 19.1495 12.5623C18.839 12.2882 18.8094 11.8143 19.0835 11.5037Z" fill="black"/>
</svg>
