<svg width="24" height="24" viewBox="0 0 24 24" fill="none" xmlns="http://www.w3.org/2000/svg">
<path fill-rule="evenodd" clip-rule="evenodd" d="M12 3.75C7.44365 3.75 3.75 7.44365 3.75 12C3.75 13.697 4.26158 15.2723 5.13881 16.5828C5.36922 16.927 5.27696 17.3928 4.93274 17.6233C4.58853 17.8537 4.1227 17.7614 3.89229 17.4172C2.85496 15.8675 2.25 14.0033 2.25 12C2.25 6.61522 6.61522 2.25 12 2.25C15.0632 2.25 17.7968 3.66347 19.583 5.87088C19.8436 6.19288 19.7938 6.66513 19.4718 6.92569C19.1498 7.18625 18.6775 7.13645 18.417 6.81445C16.9033 4.94386 14.5913 3.75 12 3.75ZM12 5.25C12.4142 5.25 12.75 5.58579 12.75 6V7.25H15C15.4142 7.25 15.75 7.58579 15.75 8C15.75 8.41421 15.4142 8.75 15 8.75H11C10.7867 8.75 10.45 8.82016 10.1882 9.00865C9.96468 9.1696 9.75 9.44444 9.75 10C9.75 10.5556 9.96468 10.8304 10.1882 10.9913C10.45 11.1798 10.7867 11.25 11 11.25H13C13.4534 11.25 14.1167 11.3798 14.6882 11.7913C15.298 12.2304 15.75 12.9556 15.75 14C15.75 15.0444 15.298 15.7696 14.6882 16.2087C14.1167 16.6202 13.4534 16.75 13 16.75H12.75V18C12.75 18.4142 12.4142 18.75 12 18.75C11.5858 18.75 11.25 18.4142 11.25 18V16.75H9C8.58579 16.75 8.25 16.4142 8.25 16C8.25 15.5858 8.58579 15.25 9 15.25H13C13.2133 15.25 13.55 15.1798 13.8118 14.9913C14.0353 14.8304 14.25 14.5556 14.25 14C14.25 13.4444 14.0353 13.1696 13.8118 13.0087C13.55 12.8202 13.2133 12.75 13 12.75H11C10.5466 12.75 9.88332 12.6202 9.31177 12.2087C8.70198 11.7696 8.25 11.0444 8.25 10C8.25 8.95556 8.70198 8.2304 9.31177 7.79135C9.88332 7.37984 10.5466 7.25 11 7.25H11.25V6C11.25 5.58579 11.5858 5.25 12 5.25ZM21 11.25C21.4142 11.25 21.75 11.5858 21.75 12C21.75 17.3848 17.3848 21.75 12 21.75C10.8757 21.75 9.79438 21.5594 8.78748 21.2081C8.39638 21.0717 8.18993 20.6441 8.32637 20.253C8.4628 19.8619 8.89045 19.6554 9.28155 19.7919C10.1318 20.0885 11.0462 20.25 12 20.25C16.5564 20.25 20.25 16.5563 20.25 12C20.25 11.5858 20.5858 11.25 21 11.25Z" fill="black"/>
</svg>
