<svg width="24" height="24" viewBox="0 0 24 24" fill="none" xmlns="http://www.w3.org/2000/svg">
<path fill-rule="evenodd" clip-rule="evenodd" d="M6 3.75C4.75736 3.75 3.75 4.75736 3.75 6C3.75 7.24264 4.75736 8.25 6 8.25H14.25V6C14.25 3.92893 15.9289 2.25 18 2.25C20.0711 2.25 21.75 3.92893 21.75 6C21.75 8.07107 20.0711 9.75 18 9.75C17.5858 9.75 17.25 9.41421 17.25 9C17.25 8.58579 17.5858 8.25 18 8.25C19.2426 8.25 20.25 7.24264 20.25 6C20.25 4.75736 19.2426 3.75 18 3.75C16.7574 3.75 15.75 4.75736 15.75 6V14.25H18C20.0711 14.25 21.75 15.9289 21.75 18C21.75 20.0711 20.0711 21.75 18 21.75C15.9289 21.75 14.25 20.0711 14.25 18V9.75H9.75V14.25H12C12.4142 14.25 12.75 14.5858 12.75 15C12.75 15.4142 12.4142 15.75 12 15.75H9.75V18C9.75 20.0711 8.07107 21.75 6 21.75C3.92893 21.75 2.25 20.0711 2.25 18C2.25 15.9289 3.92893 14.25 6 14.25L8.25 14.25V9.75H6C3.92893 9.75 2.25 8.07107 2.25 6C2.25 3.92893 3.92893 2.25 6 2.25C8.07107 2.25 9.75 3.92893 9.75 6C9.75 6.41421 9.41421 6.75 9 6.75C8.58579 6.75 8.25 6.41421 8.25 6C8.25 4.75736 7.24264 3.75 6 3.75ZM8.25 15.75L6 15.75C4.75736 15.75 3.75 16.7574 3.75 18C3.75 19.2426 4.75736 20.25 6 20.25C7.24264 20.25 8.25 19.2426 8.25 18V15.75ZM15.75 15.75V18C15.75 19.2426 16.7574 20.25 18 20.25C19.2426 20.25 20.25 19.2426 20.25 18C20.25 16.7574 19.2426 15.75 18 15.75H15.75Z" fill="black"/>
</svg>
