<svg width="24" height="24" viewBox="0 0 24 24" fill="none" xmlns="http://www.w3.org/2000/svg">
<path fill-rule="evenodd" clip-rule="evenodd" d="M12 3.75C7.44365 3.75 3.75 7.44365 3.75 12C3.75 16.5563 7.44365 20.25 12 20.25C16.5563 20.25 20.25 16.5563 20.25 12C20.25 7.44365 16.5563 3.75 12 3.75ZM2.25 12C2.25 6.61522 6.61522 2.25 12 2.25C17.3848 2.25 21.75 6.61522 21.75 12C21.75 17.3848 17.3848 21.75 12 21.75C6.61522 21.75 2.25 17.3848 2.25 12ZM7.46967 7.46967C7.76256 7.17678 8.23744 7.17678 8.53033 7.46967L10.5303 9.46967C10.8232 9.76256 10.8232 10.2374 10.5303 10.5303C10.2374 10.8232 9.76256 10.8232 9.46967 10.5303L7.46967 8.53033C7.17678 8.23744 7.17678 7.76256 7.46967 7.46967ZM16.5303 7.46967C16.8232 7.76256 16.8232 8.23744 16.5303 8.53033L13.0607 12L16.5303 15.4697C16.8232 15.7626 16.8232 16.2374 16.5303 16.5303C16.2374 16.8232 15.7626 16.8232 15.4697 16.5303L12 13.0607L8.53033 16.5303C8.23744 16.8232 7.76256 16.8232 7.46967 16.5303C7.17678 16.2374 7.17678 15.7626 7.46967 15.4697L15.4697 7.46967C15.7626 7.17678 16.2374 7.17678 16.5303 7.46967Z" fill="black"/>
</svg>
