<svg width="24" height="24" viewBox="0 0 24 24" fill="none" xmlns="http://www.w3.org/2000/svg">
<path fill-rule="evenodd" clip-rule="evenodd" d="M12 4.75C11.5858 4.75 11.25 5.08579 11.25 5.5C11.25 5.91421 11.5858 6.25 12 6.25C12.4142 6.25 12.75 5.91421 12.75 5.5C12.75 5.08579 12.4142 4.75 12 4.75ZM9.75 5.5C9.75 4.25736 10.7574 3.25 12 3.25C13.2426 3.25 14.25 4.25736 14.25 5.5C14.25 6.31782 13.8137 7.03373 13.1611 7.42764L14.5418 9.59734C14.7642 9.9468 14.6612 10.4104 14.3117 10.6327C13.9623 10.8551 13.4987 10.7521 13.2763 10.4027L12 8.39697L9.13275 12.9027C8.91036 13.2521 8.4468 13.3551 8.09734 13.1327C7.74789 12.9104 7.64487 12.4468 7.86725 12.0973L10.8389 7.42764C10.1863 7.03373 9.75 6.31782 9.75 5.5ZM3 5.75C2.58579 5.75 2.25 6.08579 2.25 6.5C2.25 6.91421 2.58579 7.25 3 7.25C3.41421 7.25 3.75 6.91421 3.75 6.5C3.75 6.08579 3.41421 5.75 3 5.75ZM0.75 6.5C0.75 5.25736 1.75736 4.25 3 4.25C4.24264 4.25 5.25 5.25736 5.25 6.5C5.25 7.18928 4.94005 7.80617 4.45193 8.2189L6.47493 9.87408C6.79551 10.1364 6.84276 10.6089 6.58047 10.9295C6.31817 11.2501 5.84566 11.2973 5.52507 11.035L4.06741 9.84238L5.63534 19.25H12C12.4142 19.25 12.75 19.5858 12.75 20C12.75 20.4142 12.4142 20.75 12 20.75H5C4.63337 20.75 4.32048 20.4849 4.2602 20.1233L2.3487 8.65429C1.42364 8.375 0.75 7.51617 0.75 6.5ZM21 5.75C20.5858 5.75 20.25 6.08579 20.25 6.5C20.25 6.91421 20.5858 7.25 21 7.25C21.4142 7.25 21.75 6.91421 21.75 6.5C21.75 6.08579 21.4142 5.75 21 5.75ZM18.75 6.5C18.75 5.25736 19.7574 4.25 21 4.25C22.2426 4.25 23.25 5.25736 23.25 6.5C23.25 7.51617 22.5764 8.375 21.6513 8.65429L19.7398 20.1233C19.6795 20.4849 19.3666 20.75 19 20.75H17C16.5858 20.75 16.25 20.4142 16.25 20C16.25 19.5858 16.5858 19.25 17 19.25H18.3647L19.9326 9.84238L15.9749 13.0805C15.6543 13.3428 15.1818 13.2955 14.9195 12.9749C14.6572 12.6543 14.7045 12.1818 15.0251 11.9195L19.5481 8.2189C19.0599 7.80617 18.75 7.18928 18.75 6.5Z" fill="black"/>
</svg>
