<svg width="24" height="24" viewBox="0 0 24 24" fill="none" xmlns="http://www.w3.org/2000/svg">
<path fill-rule="evenodd" clip-rule="evenodd" d="M3.71299 4.3071C3.99324 4.19101 4.31583 4.25518 4.53033 4.46968L6.53033 6.46968C6.82322 6.76257 6.82322 7.23744 6.53033 7.53034C6.23744 7.82323 5.76256 7.82323 5.46967 7.53034L4.75 6.81067V15.25H19.25V6.81067L16.5303 9.53034C16.2374 9.82323 15.7626 9.82323 15.4697 9.53034C15.1768 9.23744 15.1768 8.76257 15.4697 8.46968L19.4697 4.46968C19.6842 4.25518 20.0068 4.19101 20.287 4.3071C20.5673 4.42318 20.75 4.69666 20.75 5.00001V16C20.75 16.4142 20.4142 16.75 20 16.75H4C3.58579 16.75 3.25 16.4142 3.25 16V5.00001C3.25 4.69666 3.43273 4.42318 3.71299 4.3071ZM11.4697 4.46968C11.7626 4.17678 12.2374 4.17678 12.5303 4.46968L14.5303 6.46968C14.8232 6.76257 14.8232 7.23744 14.5303 7.53034C14.2374 7.82323 13.7626 7.82323 13.4697 7.53034L12 6.06067L8.53033 9.53034C8.23744 9.82323 7.76256 9.82323 7.46967 9.53034C7.17678 9.23744 7.17678 8.76257 7.46967 8.46968L11.4697 4.46968ZM3.25 19C3.25 18.5858 3.58579 18.25 4 18.25H20C20.4142 18.25 20.75 18.5858 20.75 19C20.75 19.4142 20.4142 19.75 20 19.75H4C3.58579 19.75 3.25 19.4142 3.25 19Z" fill="black"/>
</svg>
