<svg width="24" height="24" viewBox="0 0 24 24" fill="none" xmlns="http://www.w3.org/2000/svg">
<path fill-rule="evenodd" clip-rule="evenodd" d="M6.65602 2.33354C7.0241 2.14356 7.47649 2.28794 7.66647 2.65602L12 11.0522L16.3335 2.65602C16.5235 2.28794 16.9759 2.14356 17.344 2.33354C17.7121 2.52351 17.8564 2.97591 17.6665 3.34399L12.844 12.6875L15.6665 18.156C15.7214 18.2624 15.75 18.3803 15.75 18.5C15.75 19.4665 16.5335 20.25 17.5 20.25C18.4665 20.25 19.25 19.4665 19.25 18.5C19.25 17.5335 18.4665 16.75 17.5 16.75C17.0858 16.75 16.75 16.4142 16.75 16C16.75 15.5858 17.0858 15.25 17.5 15.25C19.2949 15.25 20.75 16.7051 20.75 18.5C20.75 20.2949 19.2949 21.75 17.5 21.75C15.7699 21.75 14.3555 20.3981 14.2556 18.6931L12 14.3228L9.74436 18.6931C9.64447 20.3981 8.23011 21.75 6.5 21.75C4.70507 21.75 3.25 20.2949 3.25 18.5C3.25 16.7051 4.70507 15.25 6.5 15.25C6.91421 15.25 7.25 15.5858 7.25 16C7.25 16.4142 6.91421 16.75 6.5 16.75C5.5335 16.75 4.75 17.5335 4.75 18.5C4.75 19.4665 5.5335 20.25 6.5 20.25C7.4665 20.25 8.25 19.4665 8.25 18.5C8.25 18.3803 8.27864 18.2624 8.33353 18.156L11.156 12.6875L6.33353 3.34399C6.14356 2.97591 6.28794 2.52351 6.65602 2.33354Z" fill="black"/>
</svg>
