<svg width="24" height="24" viewBox="0 0 24 24" fill="none" xmlns="http://www.w3.org/2000/svg">
<path fill-rule="evenodd" clip-rule="evenodd" d="M7.25 6C7.25 5.58579 7.58579 5.25 8 5.25H19C19.9665 5.25 20.75 6.0335 20.75 7V17C20.75 17.9665 19.9665 18.75 19 18.75H8C7.80109 18.75 7.61032 18.671 7.46967 18.5303L1.46967 12.5303C1.17678 12.2374 1.17678 11.7626 1.46967 11.4697L4.46967 8.46967C4.76256 8.17678 5.23744 8.17678 5.53033 8.46967C5.82322 8.76256 5.82322 9.23744 5.53033 9.53033L3.06066 12L8.31066 17.25H19C19.1381 17.25 19.25 17.1381 19.25 17V7C19.25 6.86193 19.1381 6.75 19 6.75H8C7.58579 6.75 7.25 6.41421 7.25 6ZM9.46991 8.46967C9.7628 8.17678 10.2377 8.17678 10.5306 8.46967L13.0001 10.9392L15.4697 8.46967C15.7626 8.17678 16.2374 8.17678 16.5303 8.46967C16.8232 8.76256 16.8232 9.23744 16.5303 9.53033L14.0608 11.9999L16.5306 14.4697C16.8235 14.7626 16.8235 15.2374 16.5306 15.5303C16.2377 15.8232 15.7628 15.8232 15.4699 15.5303L13.0001 13.0605L10.5303 15.5303C10.2374 15.8232 9.76256 15.8232 9.46967 15.5303C9.17678 15.2374 9.17678 14.7626 9.46967 14.4697L11.9395 11.9999L9.46991 9.53033C9.17701 9.23744 9.17701 8.76256 9.46991 8.46967Z" fill="black"/>
</svg>
