<svg width="24" height="24" viewBox="0 0 24 24" fill="none" xmlns="http://www.w3.org/2000/svg">
<path fill-rule="evenodd" clip-rule="evenodd" d="M4.75 4.75002V13.25H8C8.21894 13.25 8.42696 13.3457 8.56944 13.5119L13.765 19.5734C14.0731 19.9329 14.5579 20.0875 15.0173 19.9726L15.0648 19.9607C15.0648 19.9607 15.0648 19.9607 15.0648 19.9607C15.9034 19.7511 16.2812 18.7739 15.8017 18.0547L13.376 14.416C13.2225 14.1859 13.2082 13.89 13.3387 13.6461C13.4693 13.4023 13.7234 13.25 14 13.25H18.5604C19.3492 13.25 19.9408 12.5284 19.7861 11.7549L18.5861 5.75487C18.4693 5.17059 17.9562 4.75002 17.3604 4.75002C16.9462 4.75002 16.6104 4.41423 16.6104 4.00002C16.6104 3.58581 16.9462 3.25002 17.3604 3.25002C18.6713 3.25002 19.7999 4.17528 20.057 5.4607L21.257 11.4607C21.5973 13.1624 20.2958 14.75 18.5604 14.75H15.4014L17.0498 17.2226C18.1047 18.8049 17.2736 20.9547 15.4286 21.4159L15.3811 21.4278C14.3705 21.6805 13.304 21.3405 12.6261 20.5496L7.65505 14.75H4C3.58579 14.75 3.25 14.4142 3.25 14V4.00002C3.25 3.58581 3.58578 3.25002 4 3.25002L12 3.25C12.4142 3.25 12.75 3.58579 12.75 4C12.75 4.41421 12.4142 4.75 12 4.75H8.75V10C8.75 10.4142 8.41421 10.75 8 10.75C7.58579 10.75 7.25 10.4142 7.25 10V4.75L4.75 4.75002Z" fill="black"/>
</svg>
