<svg width="24" height="24" viewBox="0 0 24 24" fill="none" xmlns="http://www.w3.org/2000/svg">
<path fill-rule="evenodd" clip-rule="evenodd" d="M8.12653 2.46967C8.41942 2.17678 8.89429 2.17678 9.18719 2.46967L12.7227 6.00522C13.9103 7.19278 14.3376 8.85272 14.0046 10.3802C15.5321 10.0472 17.192 10.4745 18.3796 11.6621L21.208 14.4905L21.9151 15.1976C22.208 15.4905 22.208 15.9653 21.9151 16.2582C21.6222 16.5511 21.1473 16.5511 20.8544 16.2583L20.6777 16.0815L19.7938 16.9654C19.5009 17.2583 19.026 17.2583 18.7331 16.9654C18.4402 16.6725 18.4402 16.1976 18.7331 15.9047L19.617 15.0208L17.8492 13.253L15.5511 15.5511C15.2583 15.844 14.7834 15.844 14.4905 15.5511C14.1976 15.2582 14.1976 14.7834 14.4905 14.4905L16.7271 12.2539C15.4741 11.4798 13.8094 11.636 12.7227 12.7227C11.4535 13.9919 11.4535 16.0497 12.7227 17.3189L15.0208 19.6171L15.9046 18.7332C16.1975 18.4403 16.6724 18.4403 16.9653 18.7332C17.2582 19.0261 17.2582 19.501 16.9653 19.7938L16.0815 20.6777L16.2582 20.8544C16.5511 21.1473 16.5512 21.6221 16.2583 21.9151C15.9654 22.208 15.4905 22.208 15.1976 21.9151L11.6621 18.3796C11.662 18.3796 11.6621 18.3796 11.6621 18.3796C10.4745 17.192 10.0472 15.5321 10.3802 14.0046C8.85276 14.3376 7.19288 13.9103 6.00533 12.7227C6.00532 12.7227 6.00533 12.7227 6.00533 12.7227L3.17677 9.89429L2.46967 9.18718C2.17678 8.89429 2.17678 8.41942 2.46967 8.12652C2.76256 7.83363 3.23744 7.83363 3.53033 8.12652L3.70709 8.30329L6.00519 6.00519C6.29808 5.7123 6.77296 5.7123 7.06585 6.00519C7.35874 6.29808 7.35874 6.77296 7.06585 7.06585L4.76776 9.36393L6.53563 11.1317L7.41953 10.2478C7.71242 9.95494 8.18729 9.95494 8.48019 10.2478C8.77308 10.5407 8.77308 11.0156 8.48019 11.3085L7.6578 12.1309C8.91072 12.905 10.5754 12.7487 11.6621 11.6621C12.7487 10.5754 12.905 8.91064 12.1309 7.6577L11.3085 8.48009C11.0156 8.77298 10.5407 8.77298 10.2478 8.48009C9.95494 8.1872 9.95494 7.71233 10.2478 7.41943L11.1317 6.53555L8.12652 3.53033C7.83363 3.23743 7.83363 2.76256 8.12653 2.46967Z" fill="black"/>
</svg>
