<svg width="24" height="24" viewBox="0 0 24 24" fill="none" xmlns="http://www.w3.org/2000/svg">
<path fill-rule="evenodd" clip-rule="evenodd" d="M4.25 3C4.25 2.58579 4.58579 2.25 5 2.25H14C14.1989 2.25 14.3897 2.32902 14.5303 2.46967L19.5303 7.46967C19.671 7.61032 19.75 7.80109 19.75 8V12C19.75 12.4142 19.4142 12.75 19 12.75C18.5858 12.75 18.25 12.4142 18.25 12V9.75H15C14.2561 9.75 13.5749 9.38559 13.0947 8.90533C12.6144 8.42507 12.25 7.74392 12.25 7V3.75H5.75V5C5.75 5.41421 5.41421 5.75 5 5.75C4.58579 5.75 4.25 5.41421 4.25 5V3ZM13.75 3.81066V7C13.75 7.25608 13.8856 7.57493 14.1553 7.84467C14.4251 8.11441 14.7439 8.25 15 8.25H18.1893L13.75 3.81066ZM5 9.25C5.41421 9.25 5.75 9.58579 5.75 10V20.25H18.25V16C18.25 15.5858 18.5858 15.25 19 15.25C19.4142 15.25 19.75 15.5858 19.75 16V21C19.75 21.4142 19.4142 21.75 19 21.75H5C4.58579 21.75 4.25 21.4142 4.25 21V10C4.25 9.58579 4.58579 9.25 5 9.25ZM8.96969 10.9697C9.26258 10.6768 9.73745 10.6768 10.0303 10.9697L12 12.9393L13.9697 10.9697C14.2625 10.6768 14.7374 10.6768 15.0303 10.9697C15.3232 11.2626 15.3232 11.7374 15.0303 12.0303L13.0607 14L15.0303 15.9697C15.3232 16.2626 15.3232 16.7374 15.0303 17.0303C14.7374 17.3232 14.2626 17.3232 13.9697 17.0303L12 15.0607L10.0303 17.0303C9.73744 17.3232 9.26256 17.3232 8.96967 17.0303C8.67678 16.7374 8.67678 16.2626 8.96967 15.9697L10.9393 14L8.96968 12.0303C8.67679 11.7374 8.67679 11.2626 8.96969 10.9697Z" fill="black"/>
</svg>
