<svg width="24" height="24" viewBox="0 0 24 24" fill="none" xmlns="http://www.w3.org/2000/svg">
<path fill-rule="evenodd" clip-rule="evenodd" d="M4.25 3C4.25 2.58579 4.58579 2.25 5 2.25H14C14.1989 2.25 14.3897 2.32902 14.5303 2.46967L19.5303 7.46967C19.671 7.61032 19.75 7.80109 19.75 8V12C19.75 12.4142 19.4142 12.75 19 12.75C18.5858 12.75 18.25 12.4142 18.25 12V9.75H15C14.2561 9.75 13.5749 9.38559 13.0947 8.90533C12.6144 8.42507 12.25 7.74392 12.25 7V3.75H5.75V5C5.75 5.41421 5.41421 5.75 5 5.75C4.58579 5.75 4.25 5.41421 4.25 5V3ZM13.75 3.81066V7C13.75 7.25608 13.8856 7.57493 14.1553 7.84467C14.4251 8.11441 14.7439 8.25 15 8.25H18.1893L13.75 3.81066ZM5 9.25C5.41421 9.25 5.75 9.58579 5.75 10V20.25H18.25V16C18.25 15.5858 18.5858 15.25 19 15.25C19.4142 15.25 19.75 15.5858 19.75 16V21C19.75 21.4142 19.4142 21.75 19 21.75H5C4.58579 21.75 4.25 21.4142 4.25 21V10C4.25 9.58579 4.58579 9.25 5 9.25ZM15.5431 11.4828C15.8288 11.7827 15.8172 12.2574 15.5172 12.5431L11.3173 16.5431C11.0276 16.819 10.5724 16.819 10.2828 16.5431L8.48276 14.8288C8.18281 14.5431 8.17123 14.0684 8.4569 13.7685C8.74256 13.4685 9.21729 13.4569 9.51724 13.7426L10.8 14.9643L14.4828 11.4569C14.7827 11.1712 15.2574 11.1828 15.5431 11.4828Z" fill="black"/>
</svg>
