<svg width="24" height="24" viewBox="0 0 24 24" fill="none" xmlns="http://www.w3.org/2000/svg">
<path fill-rule="evenodd" clip-rule="evenodd" d="M12 2.25C12.4142 2.25 12.75 2.58579 12.75 3V15C12.75 15.3033 12.5673 15.5768 12.287 15.6929C12.0068 15.809 11.6842 15.7448 11.4697 15.5303L7.46967 11.5303C7.17678 11.2374 7.17678 10.7626 7.46967 10.4697C7.76256 10.1768 8.23744 10.1768 8.53033 10.4697L11.25 13.1893L11.25 3C11.25 2.58579 11.5858 2.25 12 2.25ZM16.5303 10.4697C16.8232 10.7626 16.8232 11.2374 16.5303 11.5303L15.5303 12.5303C15.2374 12.8232 14.7626 12.8232 14.4697 12.5303C14.1768 12.2374 14.1768 11.7626 14.4697 11.4697L15.4697 10.4697C15.7626 10.1768 16.2374 10.1768 16.5303 10.4697ZM4 14.25C4.41421 14.25 4.75 14.5858 4.75 15L4.75 18C4.75 18.6904 5.30964 19.25 6 19.25C6.41421 19.25 6.75 19.5858 6.75 20C6.75 20.4142 6.41421 20.75 6 20.75C4.48122 20.75 3.25 19.5188 3.25 18L3.25 15C3.25 14.5858 3.58579 14.25 4 14.25ZM20 14.25C20.4142 14.25 20.75 14.5858 20.75 15V18C20.75 19.5188 19.5188 20.75 18 20.75H10C9.58579 20.75 9.25 20.4142 9.25 20C9.25 19.5858 9.58579 19.25 10 19.25H18C18.6904 19.25 19.25 18.6904 19.25 18V15C19.25 14.5858 19.5858 14.25 20 14.25Z" fill="black"/>
</svg>
