<svg width="24" height="24" viewBox="0 0 24 24" fill="none" xmlns="http://www.w3.org/2000/svg">
<path fill-rule="evenodd" clip-rule="evenodd" d="M16.4697 2.46967C16.7626 2.17678 17.2374 2.17678 17.5303 2.46967L21.5303 6.46967C21.8232 6.76256 21.8232 7.23744 21.5303 7.53033L17.5303 11.5303C17.2374 11.8232 16.7626 11.8232 16.4697 11.5303C16.1768 11.2374 16.1768 10.7626 16.4697 10.4697L16.9393 10L14 7.06066L8.03033 13.0303C7.73744 13.3232 7.26256 13.3232 6.96967 13.0303C6.67678 12.7374 6.67678 12.2626 6.96967 11.9697L16.4697 2.46967ZM15.0607 6L18 8.93934L19.9393 7L17 4.06066L15.0607 6ZM14.5303 13.4697C14.8232 13.7626 14.8232 14.2374 14.5303 14.5303L8.53033 20.5303C8.38968 20.671 8.19891 20.75 8 20.75H4C3.58579 20.75 3.25 20.4142 3.25 20V16C3.25 15.8011 3.32902 15.6103 3.46967 15.4697L4.46967 14.4697C4.76256 14.1768 5.23744 14.1768 5.53033 14.4697C5.82322 14.7626 5.82322 15.2374 5.53033 15.5303L4.75 16.3107V19.25H7.68934L13.4697 13.4697C13.7626 13.1768 14.2374 13.1768 14.5303 13.4697ZM20.5 20.75H12C11.5858 20.75 11.25 20.4142 11.25 20C11.25 19.5858 11.5858 19.25 12 19.25H20.5C20.9142 19.25 21.25 19.5858 21.25 20C21.25 20.4142 20.9142 20.75 20.5 20.75Z" fill="black"/>
</svg>
