<svg width="24" height="24" viewBox="0 0 24 24" fill="none" xmlns="http://www.w3.org/2000/svg">
<path fill-rule="evenodd" clip-rule="evenodd" d="M3.25 4C3.25 3.58579 3.58579 3.25 4 3.25H12C12.4142 3.25 12.75 3.58579 12.75 4C12.75 4.41421 12.4142 4.75 12 4.75H4.75V10C4.75 10.4142 4.41421 10.75 4 10.75C3.58579 10.75 3.25 10.4142 3.25 10V4ZM16.25 4C16.25 3.58579 16.5858 3.25 17 3.25H20C20.4142 3.25 20.75 3.58579 20.75 4V20C20.75 20.4142 20.4142 20.75 20 20.75H14C13.5858 20.75 13.25 20.4142 13.25 20C13.25 19.5858 13.5858 19.25 14 19.25H19.25V4.75H17C16.5858 4.75 16.25 4.41421 16.25 4ZM12.4697 6.46967C12.7626 6.17678 13.2374 6.17678 13.5303 6.46967L17.5303 10.4697C17.8232 10.7626 17.8232 11.2374 17.5303 11.5303L13.5303 15.5303C13.2374 15.8232 12.7626 15.8232 12.4697 15.5303C12.1768 15.2374 12.1768 14.7626 12.4697 14.4697L12.9393 14L10 11.0607L4.75 16.3107V19.25H7.68934L9.96967 16.9697C10.2626 16.6768 10.7374 16.6768 11.0303 16.9697C11.3232 17.2626 11.3232 17.7374 11.0303 18.0303L8.53033 20.5303C8.38968 20.671 8.19891 20.75 8 20.75H4C3.58579 20.75 3.25 20.4142 3.25 20V16C3.25 15.8011 3.32902 15.6103 3.46967 15.4697L12.4697 6.46967ZM11.0607 10L14 12.9393L15.9393 11L13 8.06066L11.0607 10Z" fill="black"/>
</svg>
