<svg width="24" height="24" viewBox="0 0 24 24" fill="none" xmlns="http://www.w3.org/2000/svg">
<path fill-rule="evenodd" clip-rule="evenodd" d="M16.4697 2.46967C16.7626 2.17678 17.2374 2.17678 17.5303 2.46967L21.5303 6.46967C21.8232 6.76256 21.8232 7.23744 21.5303 7.53033L17.5303 11.5303C17.2374 11.8232 16.7626 11.8232 16.4697 11.5303C16.1768 11.2374 16.1768 10.7626 16.4697 10.4697L16.9393 10L14 7.06066L8.75 12.3107V15.25H11.6893L13.9697 12.9697C14.2626 12.6768 14.7374 12.6768 15.0303 12.9697C15.3232 13.2626 15.3232 13.7374 15.0303 14.0303L12.5303 16.5303C12.3897 16.671 12.1989 16.75 12 16.75H8C7.58579 16.75 7.25 16.4142 7.25 16V12C7.25 11.8011 7.32902 11.6103 7.46967 11.4697L16.4697 2.46967ZM15.0607 6L18 8.93934L19.9393 7L17 4.06066L15.0607 6ZM3.46967 3.46967C3.61032 3.32902 3.80109 3.25 4 3.25L10 3.25C10.4142 3.25 10.75 3.58579 10.75 4C10.75 4.41421 10.4142 4.75 10 4.75L4.75 4.75L4.75 19.25H7C7.41421 19.25 7.75 19.5858 7.75 20C7.75 20.4142 7.41421 20.75 7 20.75H4C3.80109 20.75 3.61032 20.671 3.46967 20.5303C3.32902 20.3897 3.25 20.1989 3.25 20L3.25 4C3.25 3.80109 3.32902 3.61032 3.46967 3.46967ZM20 13.25C20.4142 13.25 20.75 13.5858 20.75 14V20C20.75 20.4142 20.4142 20.75 20 20.75H12C11.5858 20.75 11.25 20.4142 11.25 20C11.25 19.5858 11.5858 19.25 12 19.25H19.25V14C19.25 13.5858 19.5858 13.25 20 13.25Z" fill="black"/>
</svg>
