<svg width="24" height="24" fill="none" xmlns="http://www.w3.org/2000/svg"><path d="M11.34 2.282a9.697 9.697 0 0 0-5.4 2.082c-.422.332-1.152 1.045-1.301 1.27a.692.692 0 0 0-.081.622c.062.161.335.407.538.485.311.118.429.058 1.041-.536.815-.789 1.392-1.201 2.283-1.628 1.192-.572 2.276-.817 3.612-.817 1.808.001 3.51.577 4.977 1.685.425.321 1.225 1.121 1.546 1.546a8.266 8.266 0 0 1 .444 9.375 8.679 8.679 0 0 1-2.633 2.633 8.27 8.27 0 0 1-8.732 0 7.744 7.744 0 0 1-1.457-1.176c-.7-.701-1.135-1.302-1.568-2.166-.52-1.038-.776-2.037-.847-3.307-.038-.679-.075-.802-.287-.96-.226-.168-.724-.168-.95 0-.231.172-.266.296-.255.907.036 1.977.729 3.943 1.982 5.619.368.493 1.339 1.464 1.832 1.832a9.768 9.768 0 0 0 4.524 1.894 10.9 10.9 0 0 0 2.784 0 9.763 9.763 0 0 0 4.524-1.894c.493-.369 1.463-1.339 1.832-1.832a9.763 9.763 0 0 0 1.894-4.524 10.32 10.32 0 0 0-.2-3.804 9.913 9.913 0 0 0-1.694-3.504c-.369-.493-1.339-1.463-1.832-1.832A9.892 9.892 0 0 0 15.1 2.766a9.764 9.764 0 0 0-3.76-.484M8.793 8.277c-.394.08-.602.445-.516.908.071.378.301.548.743.548.51 0 .72-.214.72-.733 0-.338-.085-.528-.287-.646-.138-.079-.461-.118-.66-.077m6 0c-.394.08-.602.445-.516.908.071.378.301.548.743.548.51 0 .72-.214.72-.733 0-.338-.085-.528-.287-.646-.138-.079-.461-.118-.66-.077m-3.28 5.004c-.439.04-.871.129-1.258.259-.888.298-1.894.955-2.553 1.666-.303.328-.445.55-.481.754-.051.292.288.7.667.802.265.072.445-.022.81-.424.93-1.022 2.093-1.577 3.302-1.577s2.372.555 3.302 1.577c.365.402.545.496.81.424.379-.102.718-.51.667-.802-.097-.548-1.224-1.572-2.337-2.123a5.533 5.533 0 0 0-2.929-.556" fill-rule="evenodd" fill="#000"/></svg>