<svg width="24" height="24" viewBox="0 0 24 24" fill="none" xmlns="http://www.w3.org/2000/svg">
<path fill-rule="evenodd" clip-rule="evenodd" d="M12 3.75C7.44365 3.75 3.75 7.44365 3.75 12C3.75 16.5563 7.44365 20.25 12 20.25C12.9656 20.25 13.8909 20.0844 14.7501 19.7808C15.1406 19.6427 15.5691 19.8474 15.7071 20.2379C15.8452 20.6285 15.6405 21.057 15.2499 21.195C14.2324 21.5546 13.1382 21.75 12 21.75C6.61522 21.75 2.25 17.3848 2.25 12C2.25 6.61522 6.61522 2.25 12 2.25C17.3848 2.25 21.75 6.61522 21.75 12C21.75 13.9924 21.1516 15.8473 20.1245 17.3919C19.8952 17.7369 19.4297 17.8306 19.0847 17.6012C18.7398 17.3719 18.6461 16.9064 18.8755 16.5614C19.7439 15.2552 20.25 13.6878 20.25 12C20.25 7.44365 16.5563 3.75 12 3.75ZM16.0659 7.93415C16.2522 8.12043 16.327 8.3908 16.2632 8.64638L14.8489 14.3032C14.7818 14.5719 14.5719 14.7818 14.3032 14.8489L8.64638 16.2632C8.3908 16.327 8.12043 16.2522 7.93415 16.0659C7.74786 15.8796 7.67298 15.6092 7.73687 15.3536L9.15108 9.69679C9.25155 9.29494 9.65875 9.05062 10.0606 9.15108C10.4624 9.25155 10.7068 9.65875 10.6063 10.0606L9.49525 14.5048L13.5029 13.5029L14.5048 9.49525L14.1819 9.57597C13.7801 9.67643 13.3729 9.43211 13.2724 9.03027C13.1719 8.62842 13.4163 8.22122 13.8181 8.12076L15.3536 7.73687C15.6092 7.67298 15.8796 7.74786 16.0659 7.93415Z" fill="black"/>
</svg>
