<svg width="24" height="24" viewBox="0 0 24 24" fill="none" xmlns="http://www.w3.org/2000/svg">
<path fill-rule="evenodd" clip-rule="evenodd" d="M2.46962 2.46967C2.76252 2.17678 3.23739 2.17678 3.53029 2.46967L21.5303 20.4697C21.8232 20.7626 21.8232 21.2374 21.5303 21.5303C21.2374 21.8232 20.7625 21.8232 20.4696 21.5303L2.46962 3.53033C2.17673 3.23744 2.17673 2.76256 2.46962 2.46967ZM12 5.75C11.6883 5.75 11.384 5.76838 11.0872 5.80313C10.7749 5.83968 10.4705 5.8944 10.1738 5.96509C9.77087 6.0611 9.36639 5.81229 9.27038 5.40936C9.17437 5.00643 9.42318 4.60195 9.82611 4.50594C10.1782 4.42204 10.5405 4.35688 10.9128 4.31331C11.2667 4.27187 11.6292 4.25 12 4.25C15.1393 4.25 17.6339 5.81256 19.3882 7.45204C19.6909 7.73486 19.7069 8.20946 19.4241 8.51209C19.1413 8.81472 18.6667 8.83078 18.3641 8.54796C16.7619 7.05068 14.6163 5.75 12 5.75ZM4.64707 8.44107C4.95576 8.71727 4.98209 9.19142 4.70589 9.5001C4.41149 9.82914 4.14705 10.1524 3.9136 10.4566C3.49874 10.9972 3.18338 11.4757 2.97293 11.8168C2.93188 11.8834 2.89488 11.9446 2.86194 12C2.96522 12.1737 3.10843 12.4047 3.29036 12.6759C3.71237 13.3048 4.33785 14.142 5.15085 14.9767C6.78853 16.658 9.10667 18.25 12 18.25C12.3116 18.25 12.6159 18.2316 12.9128 18.1969C13.3242 18.1487 13.6967 18.4432 13.7449 18.8546C13.793 19.266 13.4986 19.6385 13.0872 19.6867C12.7332 19.7281 12.3707 19.75 12 19.75C8.52961 19.75 5.84774 17.842 4.07633 16.0233C3.18478 15.108 2.50345 14.1952 2.04478 13.5116C1.81499 13.1692 1.63987 12.8824 1.5211 12.6792C1.46169 12.5775 1.41629 12.4966 1.38512 12.4399C1.36954 12.4116 1.3575 12.3893 1.34904 12.3734L1.33903 12.3546L1.33604 12.3489L1.33505 12.347C1.3349 12.3467 1.3344 12.3457 1.99995 12C1.3344 11.6543 1.33445 11.6542 1.33449 11.6541L1.33542 11.6523L1.33711 11.6491L1.3425 11.6389L1.3613 11.6037C1.37739 11.574 1.40059 11.5316 1.43083 11.478C1.49129 11.3707 1.57997 11.2179 1.69629 11.0293C1.92871 10.6526 2.27267 10.131 2.72359 9.54341C2.97754 9.21247 3.26595 8.85988 3.58804 8.4999C3.86424 8.19121 4.33838 8.16488 4.64707 8.44107ZM1.99995 12L1.33449 11.6541C1.2219 11.8708 1.22181 12.129 1.3344 12.3457L1.99995 12ZM11.25 9C11.25 8.58579 11.5857 8.25 12 8.25C12.4369 8.25 12.858 8.32505 13.2499 8.46358C14.3159 8.84037 15.1596 9.68401 15.5364 10.7501C15.6749 11.142 15.75 11.563 15.75 12C15.75 12.4142 15.4142 12.75 15 12.75C14.5857 12.75 14.25 12.4142 14.25 12C14.25 11.7357 14.2047 11.4836 14.1221 11.2499C13.8963 10.6112 13.3888 10.1036 12.75 9.87784C12.5164 9.79526 12.2643 9.75 12 9.75C11.5857 9.75 11.25 9.41421 11.25 9ZM22.3457 11.3344C22.7133 11.5254 22.8565 11.9782 22.6655 12.3457L22 12C22.6655 12.3457 22.6656 12.3456 22.6655 12.3457L22.665 12.3468L22.6642 12.3483L22.6618 12.3529L22.6539 12.3677C22.6474 12.3801 22.638 12.3974 22.626 12.4194C22.602 12.4634 22.5671 12.5262 22.5216 12.6055C22.4305 12.7639 22.2964 12.9884 22.1204 13.2607C21.769 13.8044 21.2479 14.5427 20.5655 15.3261C20.2934 15.6384 19.8197 15.6711 19.5073 15.399C19.195 15.1269 19.1624 14.6532 19.4344 14.3408C20.0602 13.6225 20.5391 12.9441 20.8606 12.4465C21.0211 12.1981 21.1418 11.9959 21.2213 11.8576C21.261 11.7886 21.2904 11.7356 21.3093 11.7009L21.3298 11.663L21.3341 11.6548C21.3341 11.6548 21.3341 11.6549 21.3341 11.6548M22.3457 11.3344C21.9782 11.1435 21.5251 11.2874 21.3341 11.6548ZM8.91737 11.7603C9.32587 11.6918 9.71259 11.9674 9.78112 12.3759C9.80274 12.5048 9.83531 12.6298 9.87782 12.7501C10.1036 13.3888 10.6111 13.8964 11.2499 14.1222C11.4835 14.2047 11.7357 14.25 12 14.25C12.4142 14.25 12.75 14.5858 12.75 15C12.75 15.4142 12.4142 15.75 12 15.75C11.563 15.75 11.142 15.675 10.75 15.5364C9.684 15.1596 8.84035 14.316 8.46356 13.2499C8.39238 13.0486 8.33791 12.8394 8.3018 12.6241C8.23326 12.2156 8.50886 11.8289 8.91737 11.7603Z" fill="black"/>
</svg>
