<svg width="24" height="24" viewBox="0 0 24 24" fill="none" xmlns="http://www.w3.org/2000/svg">
<path fill-rule="evenodd" clip-rule="evenodd" d="M5 4.75C4.86193 4.75 4.75 4.86193 4.75 5V9C4.75 9.41421 4.41421 9.75 4 9.75C3.58579 9.75 3.25 9.41421 3.25 9V5C3.25 4.0335 4.0335 3.25 5 3.25H9C9.41421 3.25 9.75 3.58579 9.75 4C9.75 4.41421 9.41421 4.75 9 4.75H5ZM14.25 4C14.25 3.58579 14.5858 3.25 15 3.25H19C19.9665 3.25 20.75 4.0335 20.75 5V9C20.75 9.41421 20.4142 9.75 20 9.75C19.5858 9.75 19.25 9.41421 19.25 9V5C19.25 4.86193 19.1381 4.75 19 4.75H15C14.5858 4.75 14.25 4.41421 14.25 4ZM9 7.25C9.41421 7.25 9.75 7.58579 9.75 8V10C9.75 10.4142 9.41421 10.75 9 10.75C8.58579 10.75 8.25 10.4142 8.25 10V8C8.25 7.58579 8.58579 7.25 9 7.25ZM15 7.25C15.4142 7.25 15.75 7.58579 15.75 8V10C15.75 10.4142 15.4142 10.75 15 10.75C14.5858 10.75 14.25 10.4142 14.25 10V8C14.25 7.58579 14.5858 7.25 15 7.25ZM12.5 10.25C12.9142 10.25 13.25 10.5858 13.25 11V12.5C13.25 12.7841 13.0895 13.0438 12.8354 13.1708L11.8354 13.6708C11.4649 13.8561 11.0144 13.7059 10.8292 13.3354C10.6439 12.9649 10.7941 12.5144 11.1646 12.3292L11.75 12.0365V11C11.75 10.5858 12.0858 10.25 12.5 10.25ZM4 14.25C4.41421 14.25 4.75 14.5858 4.75 15V19C4.75 19.1381 4.86193 19.25 5 19.25H9C9.41421 19.25 9.75 19.5858 9.75 20C9.75 20.4142 9.41421 20.75 9 20.75H5C4.0335 20.75 3.25 19.9665 3.25 19V15C3.25 14.5858 3.58579 14.25 4 14.25ZM20 14.25C20.4142 14.25 20.75 14.5858 20.75 15V19C20.75 19.9665 19.9665 20.75 19 20.75H15C14.5858 20.75 14.25 20.4142 14.25 20C14.25 19.5858 14.5858 19.25 15 19.25H19C19.1381 19.25 19.25 19.1381 19.25 19V15C19.25 14.5858 19.5858 14.25 20 14.25ZM9.52982 15.4692C9.52982 15.4692 9.52982 15.4692 9.52982 15.4692L9.52911 15.4685L9.52687 15.4662L9.52478 15.4642C9.52384 15.4633 9.5239 15.4634 9.52478 15.4642C9.52481 15.4642 9.52474 15.4642 9.52478 15.4642C9.52664 15.4659 9.53197 15.4709 9.54075 15.4785C9.55871 15.4942 9.59097 15.5214 9.6375 15.5562C9.73065 15.6261 9.88004 15.7265 10.0854 15.8292C10.4937 16.0333 11.1296 16.25 12 16.25C12.8704 16.25 13.5063 16.0333 13.9146 15.8292C14.12 15.7265 14.2693 15.6261 14.3625 15.5562C14.409 15.5214 14.4413 15.4942 14.4592 15.4785C14.4682 15.4707 14.4736 15.4657 14.4753 15.4641C14.4762 15.4633 14.4763 15.4632 14.4753 15.4641L14.4731 15.4662L14.4716 15.4678L14.4707 15.4687C14.7636 15.1763 15.2376 15.1769 15.5303 15.4697C15.8232 15.7626 15.8232 16.2374 15.5303 16.5303L15 16C15.5303 16.5303 15.5306 16.5301 15.5303 16.5303L15.5281 16.5326L15.5254 16.5352L15.5189 16.5415L15.5012 16.5584C15.4874 16.5714 15.4693 16.5879 15.447 16.6074C15.4025 16.6464 15.341 16.6974 15.2625 16.7563C15.1057 16.8739 14.88 17.0235 14.5854 17.1708C13.9937 17.4667 13.1296 17.75 12 17.75C10.8704 17.75 10.0063 17.4667 9.41459 17.1708C9.11996 17.0235 8.89435 16.8739 8.7375 16.7563C8.65903 16.6974 8.59754 16.6464 8.553 16.6074C8.53071 16.5879 8.51264 16.5714 8.49876 16.5584L8.48108 16.5415L8.47459 16.5352L8.47194 16.5326L8.47075 16.5314C8.47049 16.5311 8.46967 16.5303 9 16L8.46967 16.5303C8.17678 16.2374 8.17678 15.7626 8.46967 15.4697C8.76072 15.1786 9.23146 15.1768 9.52478 15.4642M9.52911 15.4685L9.52982 15.4692C9.52982 15.4692 9.52982 15.4692 9.52982 15.4692" fill="black"/>
</svg>
