<svg width="24" height="24" viewBox="0 0 24 24" fill="none" xmlns="http://www.w3.org/2000/svg">
<path fill-rule="evenodd" clip-rule="evenodd" d="M12 3.75C9.65279 3.75 7.75 5.65279 7.75 8C7.75 10.3472 9.65279 12.25 12 12.25C14.3472 12.25 16.25 10.3472 16.25 8C16.25 7.58579 16.5858 7.25 17 7.25C17.4142 7.25 17.75 7.58579 17.75 8C17.75 10.9214 15.5713 13.334 12.75 13.7015V17.25H15C15.4142 17.25 15.75 17.5858 15.75 18C15.75 18.4142 15.4142 18.75 15 18.75H12.75V21C12.75 21.4142 12.4142 21.75 12 21.75C11.5858 21.75 11.25 21.4142 11.25 21V13.7015C8.42873 13.334 6.25 10.9214 6.25 8C6.25 4.82436 8.82436 2.25 12 2.25C13.2936 2.25 14.4894 2.67806 15.4504 3.39996C15.7816 3.64873 15.8484 4.11888 15.5997 4.45007C15.3509 4.78126 14.8808 4.84808 14.5496 4.59931C13.8393 4.06583 12.9576 3.75 12 3.75ZM8.25 18C8.25 17.5858 8.58579 17.25 9 17.25H10C10.4142 17.25 10.75 17.5858 10.75 18C10.75 18.4142 10.4142 18.75 10 18.75H9C8.58579 18.75 8.25 18.4142 8.25 18Z" fill="black"/>
</svg>
