<svg width="24" height="24" viewBox="0 0 24 24" fill="none" xmlns="http://www.w3.org/2000/svg">
<path fill-rule="evenodd" clip-rule="evenodd" d="M12 3.75C11.3096 3.75 10.75 4.30964 10.75 5C10.75 5.69036 11.3096 6.25 12 6.25C12.6904 6.25 13.25 5.69036 13.25 5C13.25 4.30964 12.6904 3.75 12 3.75ZM9.25 5C9.25 3.48122 10.4812 2.25 12 2.25C13.2588 2.25 14.32 3.09575 14.6465 4.25L20 4.25C20.4142 4.25 20.75 4.58579 20.75 5C20.75 5.41421 20.4142 5.75 20 5.75L14.6465 5.75C14.32 6.90425 13.2588 7.75 12 7.75C10.4812 7.75 9.25 6.51878 9.25 5ZM3.25 5C3.25 4.58579 3.58579 4.25 4 4.25H7C7.41421 4.25 7.75 4.58579 7.75 5C7.75 5.41421 7.41421 5.75 7 5.75H4C3.58579 5.75 3.25 5.41421 3.25 5ZM18 10.75C17.3096 10.75 16.75 11.3096 16.75 12C16.75 12.6904 17.3096 13.25 18 13.25C18.6904 13.25 19.25 12.6904 19.25 12C19.25 11.3096 18.6904 10.75 18 10.75ZM15.3535 11.25C15.68 10.0957 16.7412 9.25 18 9.25C19.5188 9.25 20.75 10.4812 20.75 12C20.75 13.5188 19.5188 14.75 18 14.75C16.7412 14.75 15.68 13.9043 15.3535 12.75H10C9.58579 12.75 9.25 12.4142 9.25 12C9.25 11.5858 9.58579 11.25 10 11.25H15.3535ZM3.25 12C3.25 11.5858 3.58579 11.25 4 11.25H7C7.41421 11.25 7.75 11.5858 7.75 12C7.75 12.4142 7.41421 12.75 7 12.75H4C3.58579 12.75 3.25 12.4142 3.25 12ZM6 17.75C5.30964 17.75 4.75 18.3096 4.75 19C4.75 19.6904 5.30964 20.25 6 20.25C6.69036 20.25 7.25 19.6904 7.25 19C7.25 18.3096 6.69036 17.75 6 17.75ZM3.25 19C3.25 17.4812 4.48122 16.25 6 16.25C7.51878 16.25 8.75 17.4812 8.75 19C8.75 20.5188 7.51878 21.75 6 21.75C4.48122 21.75 3.25 20.5188 3.25 19ZM10.25 19C10.25 18.5858 10.5858 18.25 11 18.25H20C20.4142 18.25 20.75 18.5858 20.75 19C20.75 19.4142 20.4142 19.75 20 19.75H11C10.5858 19.75 10.25 19.4142 10.25 19Z" fill="black"/>
</svg>
