<svg width="24" height="24" viewBox="0 0 24 24" fill="none" xmlns="http://www.w3.org/2000/svg">
<path fill-rule="evenodd" clip-rule="evenodd" d="M5 4.75C4.30964 4.75 3.75 5.30964 3.75 6C3.75 6.69036 4.30964 7.25 5 7.25C5.69036 7.25 6.25 6.69036 6.25 6C6.25 5.30964 5.69036 4.75 5 4.75ZM2.25 6C2.25 4.48122 3.48122 3.25 5 3.25C6.51878 3.25 7.75 4.48122 7.75 6C7.75 7.51878 6.51878 8.75 5 8.75C3.48122 8.75 2.25 7.51878 2.25 6ZM12 3.25C12.4142 3.25 12.75 3.58579 12.75 4V7C12.75 7.41421 12.4142 7.75 12 7.75C11.5858 7.75 11.25 7.41421 11.25 7V4C11.25 3.58579 11.5858 3.25 12 3.25ZM19 3.25C19.4142 3.25 19.75 3.58579 19.75 4V7C19.75 7.41421 19.4142 7.75 19 7.75C18.5858 7.75 18.25 7.41421 18.25 7V4C18.25 3.58579 18.5858 3.25 19 3.25ZM12 9.25C12.4142 9.25 12.75 9.58579 12.75 10V15.3535C13.9043 15.68 14.75 16.7412 14.75 18C14.75 19.5188 13.5188 20.75 12 20.75C10.4812 20.75 9.25 19.5188 9.25 18C9.25 16.7412 10.0957 15.68 11.25 15.3535V10C11.25 9.58579 11.5858 9.25 12 9.25ZM19 10.75C18.3096 10.75 17.75 11.3096 17.75 12C17.75 12.6904 18.3096 13.25 19 13.25C19.6904 13.25 20.25 12.6904 20.25 12C20.25 11.3096 19.6904 10.75 19 10.75ZM16.25 12C16.25 10.4812 17.4812 9.25 19 9.25C20.5188 9.25 21.75 10.4812 21.75 12C21.75 13.2588 20.9043 14.32 19.75 14.6465V20C19.75 20.4142 19.4142 20.75 19 20.75C18.5858 20.75 18.25 20.4142 18.25 20V14.6465C17.0957 14.32 16.25 13.2588 16.25 12ZM5 10.25C5.41421 10.25 5.75 10.5858 5.75 11V20C5.75 20.4142 5.41421 20.75 5 20.75C4.58579 20.75 4.25 20.4142 4.25 20V11C4.25 10.5858 4.58579 10.25 5 10.25ZM12 16.75C11.3096 16.75 10.75 17.3096 10.75 18C10.75 18.6904 11.3096 19.25 12 19.25C12.6904 19.25 13.25 18.6904 13.25 18C13.25 17.3096 12.6904 16.75 12 16.75Z" fill="black"/>
</svg>
