<svg width="24" height="24" viewBox="0 0 24 24" fill="none" xmlns="http://www.w3.org/2000/svg">
<path fill-rule="evenodd" clip-rule="evenodd" d="M20.3975 3.364C20.7488 3.58354 20.8555 4.04625 20.636 4.3975L15.75 12.2151V21C15.75 21.2599 15.6154 21.5013 15.3943 21.638C15.1732 21.7746 14.8971 21.7871 14.6646 21.6708L8.66459 18.6708C8.4105 18.5438 8.25 18.2841 8.25 18V16C8.25 15.5858 8.58579 15.25 9 15.25C9.41421 15.25 9.75 15.5858 9.75 16V17.5365L14.25 19.7865V12C14.25 11.8594 14.2895 11.7217 14.364 11.6025L19.364 3.6025C19.5835 3.25125 20.0462 3.14447 20.3975 3.364ZM3.34402 3.63642C3.47619 3.39796 3.72736 3.25 4 3.25H15C15.4142 3.25 15.75 3.58579 15.75 4C15.75 4.41421 15.4142 4.75 15 4.75H5.35319L9.636 11.6025C9.85553 11.9538 9.74875 12.4165 9.3975 12.636C9.04625 12.8555 8.58353 12.7488 8.364 12.3975L3.364 4.3975C3.2195 4.1663 3.21185 3.87489 3.34402 3.63642Z" fill="black"/>
</svg>
