<svg width="24" height="24" viewBox="0 0 24 24" fill="none" xmlns="http://www.w3.org/2000/svg">
<path fill-rule="evenodd" clip-rule="evenodd" d="M11.6461 5.33875C11.89 5.20823 12.1859 5.22254 12.416 5.37596L21.416 11.376C21.6247 11.5151 21.75 11.7492 21.75 12C21.75 12.2508 21.6247 12.4849 21.416 12.624L18.416 14.624C18.0714 14.8538 17.6057 14.7607 17.376 14.416C17.1462 14.0714 17.2393 13.6057 17.584 13.376L19.6479 12L12.75 7.40139V13.7862C12.7502 13.7949 12.7502 13.8037 12.75 13.8123L12.75 16.5986L14.584 15.376C14.9286 15.1462 15.3943 15.2393 15.624 15.584C15.8538 15.9286 15.7607 16.3943 15.416 16.624L12.416 18.624C12.1859 18.7775 11.89 18.7918 11.6461 18.6613C11.4022 18.5307 11.25 18.2766 11.25 18V15.1246L5.38587 18.6431C5.15417 18.7821 4.86561 18.7858 4.63048 18.6527C4.39535 18.5195 4.25 18.2702 4.25 18L4.25 6C4.25 5.7298 4.39534 5.48048 4.63048 5.34735C4.86561 5.21422 5.15417 5.21786 5.38587 5.35688L8.88587 7.45688C9.24106 7.66999 9.35623 8.13069 9.14312 8.48587C8.93001 8.84106 8.46931 8.95623 8.11413 8.74312L5.75 7.32464L5.75 16.6754L11.25 13.3754L11.25 6C11.25 5.7234 11.4022 5.46926 11.6461 5.33875Z" fill="black"/>
</svg>
