<svg width="24" height="24" viewBox="0 0 24 24" fill="none" xmlns="http://www.w3.org/2000/svg">
<path fill-rule="evenodd" clip-rule="evenodd" d="M14.25 3.99996C14.25 3.58575 14.5858 3.24997 15 3.24997L20 3.25C20.4142 3.25001 20.75 3.58579 20.75 4V8.99999C20.75 9.4142 20.4142 9.74999 20 9.74999C19.5858 9.74999 19.25 9.4142 19.25 8.99999V4.75L15 4.74997C14.5858 4.74997 14.25 4.41418 14.25 3.99996ZM3.25004 3.99998C3.25004 3.58577 3.58582 3.24998 4.00004 3.24998H9.00002C9.41423 3.24998 9.75002 3.58577 9.75002 3.99998C9.75002 4.4142 9.41423 4.74998 9.00002 4.74998H4.75003L4.75 9.00001C4.75 9.41422 4.41421 9.75001 3.99999 9.75C3.58578 9.75 3.25 9.41421 3.25 9L3.25004 3.99998ZM4 14.25C4.41421 14.25 4.75 14.5858 4.75 15L4.75 19.25L9.00002 19.25C9.41424 19.25 9.75002 19.5858 9.75002 20C9.75002 20.4142 9.41423 20.75 9.00001 20.75L3.99999 20.75C3.58578 20.75 3.25 20.4142 3.25 20L3.25 15C3.25 14.5858 3.58579 14.25 4 14.25ZM20 14.25C20.4142 14.25 20.75 14.5858 20.75 15L20.75 20C20.75 20.4142 20.4142 20.75 20 20.75H15C14.5858 20.75 14.25 20.4142 14.25 20C14.25 19.5858 14.5858 19.25 15 19.25H19.25L19.25 15C19.25 14.5858 19.5858 14.25 20 14.25Z" fill="black"/>
</svg>
