<svg width="24" height="24" fill="none" xmlns="http://www.w3.org/2000/svg"><path d="M7.874 2.283c-.504.074-.997.36-1.46.848-.572.602-.774 1.261-.581 1.896.133.436.462.876.899 1.204l.112.084-1.552.012c-1.481.012-1.558.017-1.692.095-.206.121-.31.301-.34.589-.014.137-.02.942-.013 1.789.012 1.469.017 1.546.095 1.68.126.214.302.312.62.343l.276.027.011 4.745c.011 4.663.012 4.747.091 4.881a.652.652 0 0 0 .466.327c.227.044 14.161.044 14.388 0a.652.652 0 0 0 .466-.327c.078-.133.08-.208.08-3.436 0-3.228-.002-3.303-.08-3.436-.161-.273-.478-.396-.845-.327a.646.646 0 0 0-.475.327c-.078.132-.08.219-.092 2.926l-.011 2.79H5.76v-8.48l7.13-.002c3.922-.001 7.208-.017 7.304-.035a.652.652 0 0 0 .466-.327c.076-.129.081-.221.093-1.676.007-.847.001-1.652-.013-1.789-.03-.288-.134-.468-.34-.589-.134-.078-.211-.083-1.69-.095l-1.551-.012.191-.151c.625-.494.932-1.119.876-1.784-.06-.725-.815-1.633-1.633-1.966-.792-.322-1.683-.146-2.538.499-.585.442-1.273 1.245-1.796 2.096-.132.213-.248.389-.259.389-.011.001-.125-.171-.253-.381-.928-1.52-2.087-2.539-3.092-2.718-.35-.062-.451-.064-.781-.016m.851 1.624c.5.248 1.214 1.033 1.765 1.94.082.136.15.26.15.276 0 .039-.728-.136-1.28-.307-1.075-.333-1.874-.776-2.064-1.144-.052-.101-.052-.129.004-.245.083-.175.401-.485.6-.584.25-.125.481-.107.825.064m7.368-.066c.189.089.509.394.601.573.08.155.025.3-.189.497-.328.303-.941.607-1.744.867-.442.143-1.406.39-1.43.366a2.974 2.974 0 0 1 .212-.368c.561-.895 1.232-1.618 1.732-1.868.345-.173.557-.19.818-.067M19.24 8.58v.74H4.76V7.84h14.48v.74" fill-rule="evenodd" fill="#000"/></svg>