<svg width="24" height="24" viewBox="0 0 24 24" fill="none" xmlns="http://www.w3.org/2000/svg">
<path fill-rule="evenodd" clip-rule="evenodd" d="M9.98553 3.99758C8.36359 4.40445 6.93226 5.29158 5.85053 6.50019C5.57429 6.80883 5.10014 6.8351 4.79149 6.55885C4.48285 6.28261 4.45658 5.80846 4.73283 5.49981C6.51705 3.50633 9.1123 2.25 12 2.25C17.3848 2.25 21.75 6.61522 21.75 12C21.75 17.3848 17.3848 21.75 12 21.75C6.61522 21.75 2.25 17.3848 2.25 12V11.25H7.26998C7.4204 8.44512 8.39621 6.30361 9.37596 4.83397C9.58146 4.52573 9.78716 4.24695 9.98553 3.99758ZM12 3.99961C11.9696 4.02906 11.938 4.06014 11.9053 4.09283C11.5593 4.43885 11.0923 4.96357 10.624 5.66603C9.77404 6.94103 8.92017 8.79961 8.77243 11.25H20.2164C19.8986 7.72414 17.3626 4.83794 14.0146 3.99773C14.716 4.87953 15.5121 6.13292 16.0642 7.75888C16.1973 8.1511 15.9873 8.57701 15.5951 8.71018C15.2029 8.84335 14.777 8.63335 14.6438 8.24112C14.1137 6.68 13.3284 5.5096 12.6773 4.73119C12.4219 4.42581 12.188 4.18189 12 3.99961ZM20.2164 12.75H16.73C16.5796 15.5549 15.6038 17.6964 14.624 19.166C14.4186 19.4742 14.2129 19.7529 14.0146 20.0023C17.3626 19.1621 19.8986 16.2759 20.2164 12.75ZM12 20.0004C12.0304 19.9709 12.062 19.9399 12.0947 19.9072C12.4407 19.5611 12.9077 19.0364 13.376 18.334C14.226 17.059 15.0798 15.2004 15.2276 12.75H8.77243C8.92017 15.2004 9.77404 17.059 10.624 18.334C11.0923 19.0364 11.5593 19.5611 11.9053 19.9072C11.938 19.9399 11.9696 19.9709 12 20.0004ZM7.26998 12.75H3.78363C4.10136 16.2759 6.6374 19.1621 9.98541 20.0023C9.78708 19.7529 9.58142 19.4742 9.37596 19.166C8.39621 17.6964 7.4204 15.5549 7.26998 12.75Z" fill="black"/>
</svg>
