<svg width="24" height="24" viewBox="0 0 24 24" fill="none" xmlns="http://www.w3.org/2000/svg">
<path fill-rule="evenodd" clip-rule="evenodd" d="M2.75 3.5C2.75 3.08579 3.08579 2.75 3.5 2.75H10.5C10.9142 2.75 11.25 3.08579 11.25 3.5V10.5C11.25 10.9142 10.9142 11.25 10.5 11.25H3.5C3.08579 11.25 2.75 10.9142 2.75 10.5V3.5ZM4.25 4.25V9.75H9.75V4.25H4.25ZM12.75 3.5C12.75 3.08579 13.0858 2.75 13.5 2.75H20.5C20.9142 2.75 21.25 3.08579 21.25 3.5V10.5C21.25 10.9142 20.9142 11.25 20.5 11.25H13.5C13.0858 11.25 12.75 10.9142 12.75 10.5V9C12.75 8.58579 13.0858 8.25 13.5 8.25C13.9142 8.25 14.25 8.58579 14.25 9V9.75H19.75V4.25H14.25V5C14.25 5.41421 13.9142 5.75 13.5 5.75C13.0858 5.75 12.75 5.41421 12.75 5V3.5ZM2.75 13.5C2.75 13.0858 3.08579 12.75 3.5 12.75H5C5.41421 12.75 5.75 13.0858 5.75 13.5C5.75 13.9142 5.41421 14.25 5 14.25H4.25V19.75H9.75V14.25H9C8.58579 14.25 8.25 13.9142 8.25 13.5C8.25 13.0858 8.58579 12.75 9 12.75H10.5C10.9142 12.75 11.25 13.0858 11.25 13.5V20.5C11.25 20.9142 10.9142 21.25 10.5 21.25H3.5C3.08579 21.25 2.75 20.9142 2.75 20.5V13.5ZM12.75 13.5C12.75 13.0858 13.0858 12.75 13.5 12.75H20.5C20.9142 12.75 21.25 13.0858 21.25 13.5V20.5C21.25 20.9142 20.9142 21.25 20.5 21.25H13.5C13.0858 21.25 12.75 20.9142 12.75 20.5V13.5ZM14.25 14.25V19.75H19.75V14.25H14.25Z" fill="black"/>
</svg>
