<svg width="24" height="24" viewBox="0 0 24 24" fill="none" xmlns="http://www.w3.org/2000/svg">
<path fill-rule="evenodd" clip-rule="evenodd" d="M2.75 3.5C2.75 3.08579 3.08579 2.75 3.5 2.75H10.5C10.9142 2.75 11.25 3.08579 11.25 3.5V20.5C11.25 20.9142 10.9142 21.25 10.5 21.25H3.5C3.08579 21.25 2.75 20.9142 2.75 20.5V18C2.75 17.5858 3.08579 17.25 3.5 17.25C3.91421 17.25 4.25 17.5858 4.25 18V19.75H9.75V4.25H4.25V13C4.25 13.4142 3.91421 13.75 3.5 13.75C3.08579 13.75 2.75 13.4142 2.75 13V3.5ZM12.75 3.5C12.75 3.08579 13.0858 2.75 13.5 2.75H20.5C20.9142 2.75 21.25 3.08579 21.25 3.5V6C21.25 6.41421 20.9142 6.75 20.5 6.75C20.0858 6.75 19.75 6.41421 19.75 6V4.25H14.25V19.75H19.75V11C19.75 10.5858 20.0858 10.25 20.5 10.25C20.9142 10.25 21.25 10.5858 21.25 11V20.5C21.25 20.9142 20.9142 21.25 20.5 21.25H13.5C13.0858 21.25 12.75 20.9142 12.75 20.5V3.5Z" fill="black"/>
</svg>
