<svg width="24" height="24" viewBox="0 0 24 24" fill="none" xmlns="http://www.w3.org/2000/svg">
<path fill-rule="evenodd" clip-rule="evenodd" d="M10.25 3.5C10.25 3.08579 10.5858 2.75 11 2.75L20.5 2.75C20.9142 2.75 21.25 3.08579 21.25 3.5V10.5C21.25 10.9142 20.9142 11.25 20.5 11.25L3.5 11.25C3.30109 11.25 3.11032 11.171 2.96967 11.0303C2.82902 10.8897 2.75 10.6989 2.75 10.5L2.75 3.5C2.75 3.08579 3.08579 2.75 3.5 2.75L6 2.75C6.41421 2.75 6.75 3.08579 6.75 3.5C6.75 3.91421 6.41421 4.25 6 4.25L4.25 4.25L4.25 9.75L19.75 9.75V4.25H11C10.5858 4.25 10.25 3.91421 10.25 3.5ZM4.25 14.25L4.25 19.75H12C12.4142 19.75 12.75 20.0858 12.75 20.5C12.75 20.9142 12.4142 21.25 12 21.25H3.5C3.08579 21.25 2.75 20.9142 2.75 20.5L2.75 13.5C2.75 13.0858 3.08579 12.75 3.5 12.75L20.5 12.75C20.6989 12.75 20.8897 12.829 21.0303 12.9697C21.171 13.1103 21.25 13.3011 21.25 13.5V20.5C21.25 20.9142 20.9142 21.25 20.5 21.25H17C16.5858 21.25 16.25 20.9142 16.25 20.5C16.25 20.0858 16.5858 19.75 17 19.75H19.75V14.25L4.25 14.25Z" fill="black"/>
</svg>
