<svg width="24" height="24" viewBox="0 0 24 24" fill="none" xmlns="http://www.w3.org/2000/svg">
<path fill-rule="evenodd" clip-rule="evenodd" d="M12 2.25C12.1989 2.25 12.3897 2.32902 12.5303 2.46967L16.0303 5.96967C16.3232 6.26256 16.3232 6.73744 16.0303 7.03033C15.7374 7.32322 15.2626 7.32322 14.9697 7.03033L12 4.06066L5.75 10.3107V16C5.75 16.4142 5.41421 16.75 5 16.75C4.58579 16.75 4.25 16.4142 4.25 16V10C4.25 9.80109 4.32902 9.61032 4.46967 9.46967L11.4697 2.46967C11.6103 2.32902 11.8011 2.25 12 2.25ZM19 9.25C19.4142 9.25 19.75 9.58579 19.75 10L19.75 20C19.75 20.1989 19.671 20.3897 19.5303 20.5303C19.3897 20.671 19.1989 20.75 19 20.75H5C4.58579 20.75 4.25 20.4142 4.25 20C4.25 19.5858 4.58579 19.25 5 19.25H18.25L18.25 10C18.25 9.58579 18.5858 9.25 19 9.25ZM12 10.25C12.4142 10.25 12.75 10.5858 12.75 11V13.25H15C15.4142 13.25 15.75 13.5858 15.75 14C15.75 14.4142 15.4142 14.75 15 14.75H12.75V17C12.75 17.4142 12.4142 17.75 12 17.75C11.5858 17.75 11.25 17.4142 11.25 17V14.75H9C8.58579 14.75 8.25 14.4142 8.25 14C8.25 13.5858 8.58579 13.25 9 13.25H11.25V11C11.25 10.5858 11.5858 10.25 12 10.25Z" fill="black"/>
</svg>
