<svg width="24" height="24" viewBox="0 0 24 24" fill="none" xmlns="http://www.w3.org/2000/svg">
<path fill-rule="evenodd" clip-rule="evenodd" d="M11.4356 2.50612C11.7083 2.19439 12.1822 2.1628 12.4939 2.43556L20.4939 9.43556C20.6566 9.57798 20.75 9.78372 20.75 9.99999L20.75 20C20.75 20.1989 20.671 20.3897 20.5303 20.5303C20.3897 20.671 20.1989 20.75 20 20.75H15C14.5858 20.75 14.25 20.4142 14.25 20C14.25 19.5858 14.5858 19.25 15 19.25H19.25L19.25 10.3403L11.5061 3.56443C11.1944 3.29167 11.1628 2.81784 11.4356 2.50612ZM8.56444 6.00612C8.8372 6.31784 8.80561 6.79167 8.49388 7.06443L4.75 10.3403L4.75 19.25H8.25V16C8.25 15.0054 8.64509 14.0516 9.34835 13.3483C10.0516 12.6451 11.0054 12.25 12 12.25C12.9946 12.25 13.9484 12.6451 14.6517 13.3483C15.3549 14.0516 15.75 15.0054 15.75 16C15.75 16.4142 15.4142 16.75 15 16.75C14.5858 16.75 14.25 16.4142 14.25 16C14.25 15.4033 14.013 14.831 13.591 14.409C13.169 13.987 12.5967 13.75 12 13.75C11.4033 13.75 10.831 13.987 10.409 14.409C9.98706 14.831 9.75 15.4033 9.75 16V20C9.75 20.4142 9.41422 20.75 9 20.75H4C3.58579 20.75 3.25 20.4142 3.25 20L3.25 10C3.25 9.78372 3.34336 9.57798 3.50612 9.43556L7.50612 5.93556C7.81785 5.6628 8.29167 5.69439 8.56444 6.00612Z" fill="black"/>
</svg>
