<svg width="24" height="24" viewBox="0 0 24 24" fill="none" xmlns="http://www.w3.org/2000/svg">
<path fill-rule="evenodd" clip-rule="evenodd" d="M14.4697 6.46967C14.7626 6.17678 15.2374 6.17678 15.5303 6.46967L20.5303 11.4697C20.671 11.6103 20.75 11.8011 20.75 12C20.75 12.1989 20.671 12.3897 20.5303 12.5303L15.5303 17.5303C15.2374 17.8232 14.7626 17.8232 14.4697 17.5303C14.1768 17.2374 14.1768 16.7626 14.4697 16.4697L18.9393 12L14.4697 7.53033C14.1768 7.23744 14.1768 6.76256 14.4697 6.46967ZM9.53033 6.46967C9.82322 6.76256 9.82322 7.23744 9.53033 7.53033L7.03033 10.0303C6.73744 10.3232 6.26256 10.3232 5.96967 10.0303C5.67678 9.73744 5.67678 9.26256 5.96967 8.96967L8.46967 6.46967C8.76256 6.17678 9.23744 6.17678 9.53033 6.46967ZM3.46967 11.4697C3.76256 11.1768 4.23744 11.1768 4.53033 11.4697L9.53033 16.4697C9.82322 16.7626 9.82322 17.2374 9.53033 17.5303C9.23744 17.8232 8.76256 17.8232 8.46967 17.5303L3.46967 12.5303C3.17678 12.2374 3.17678 11.7626 3.46967 11.4697Z" fill="black"/>
</svg>
