<svg width="24" height="24" viewBox="0 0 24 24" fill="none" xmlns="http://www.w3.org/2000/svg">
<path fill-rule="evenodd" clip-rule="evenodd" d="M4.25 4C4.25 3.58579 4.58579 3.25 5 3.25H19C19.4142 3.25 19.75 3.58579 19.75 4C19.75 4.41421 19.4142 4.75 19 4.75H17.75V6.89445C17.75 7.43737 17.5893 7.96814 17.2881 8.41987L15.3636 11.3066C15.0837 11.7265 15.0837 12.2735 15.3636 12.6934L17.2881 15.5801C17.5893 16.0319 17.75 16.5626 17.75 17.1056C17.75 17.5198 17.4142 17.8556 17 17.8556C16.5858 17.8556 16.25 17.5198 16.25 17.1056C16.25 16.8588 16.1769 16.6175 16.04 16.4122L14.1155 13.5254C13.4997 12.6017 13.4997 11.3983 14.1155 10.4746L16.04 7.58782C16.1769 7.38249 16.25 7.14123 16.25 6.89445V4.75H5C4.58579 4.75 4.25 4.41421 4.25 4ZM7 6.14444C7.41421 6.14444 7.75 6.48023 7.75 6.89444C7.75 7.14122 7.82305 7.38248 7.95994 7.58781L9.88444 10.4746C10.5003 11.3983 10.5003 12.6017 9.88444 13.5254L7.95994 16.4122C7.82305 16.6175 7.75 16.8588 7.75 17.1055V19.25L19 19.25C19.4142 19.25 19.75 19.5858 19.75 20C19.75 20.4142 19.4142 20.75 19 20.75H5C4.58579 20.75 4.25 20.4142 4.25 20C4.25 19.5858 4.58578 19.25 5 19.25L6.25 19.25V17.1055C6.25 16.5626 6.4107 16.0319 6.71186 15.5801L8.63636 12.6934C8.91628 12.2735 8.91628 11.7265 8.63636 11.3066L6.71186 8.41987C6.4107 7.96813 6.25 7.43736 6.25 6.89444C6.25 6.48023 6.58579 6.14444 7 6.14444Z" fill="black"/>
</svg>
