<svg width="24" height="24" viewBox="0 0 24 24" fill="none" xmlns="http://www.w3.org/2000/svg">
<path fill-rule="evenodd" clip-rule="evenodd" d="M11.9999 2.25C12.4142 2.25 12.7499 2.58579 12.7499 3V5.18934L14.4696 3.46967C14.7625 3.17678 15.2374 3.17678 15.5303 3.46967C15.8232 3.76256 15.8232 4.23744 15.5303 4.53033L12.7499 7.31066V9C12.7499 9.41421 12.4142 9.75 11.9999 9.75C11.5857 9.75 11.2499 9.41421 11.2499 9V7.31066L8.46961 4.53033C8.17672 4.23744 8.17672 3.76256 8.46961 3.46967C8.76251 3.17678 9.23738 3.17678 9.53027 3.46967L11.2499 5.18934V3C11.2499 2.58579 11.5857 2.25 11.9999 2.25ZM17.6223 4.67743C18.0224 4.78464 18.2599 5.1959 18.1527 5.59599L17.5232 7.94513L19.4192 6.85048C19.7779 6.64338 20.2366 6.76628 20.4437 7.125C20.6508 7.48372 20.5279 7.94241 20.1692 8.14952L18.2732 9.24417L20.6223 9.87357C21.0224 9.98077 21.2599 10.392 21.1527 10.7921C21.0455 11.1922 20.6342 11.4297 20.2341 11.3225L16.436 10.3048L13.4999 12L16.436 13.6952L20.234 12.6775C20.6341 12.5703 21.0453 12.8077 21.1525 13.2078C21.2598 13.6079 21.0223 14.0192 20.6222 14.1264L18.2731 14.7558L20.1692 15.8505C20.5279 16.0576 20.6508 16.5163 20.4437 16.875C20.2366 17.2337 19.7779 17.3566 19.4192 17.1495L17.5231 16.0548L18.1525 18.404C18.2597 18.8041 18.0223 19.2153 17.6222 19.3225C17.2221 19.4297 16.8109 19.1923 16.7037 18.7922L15.686 14.9942L12.7499 13.299V16.6893L15.5303 19.4697C15.8232 19.7626 15.8232 20.2374 15.5303 20.5303C15.2374 20.8232 14.7625 20.8232 14.4696 20.5303L12.7499 18.8107V21C12.7499 21.4142 12.4142 21.75 11.9999 21.75C11.5857 21.75 11.2499 21.4142 11.2499 21V18.8107L9.53027 20.5303C9.23738 20.8232 8.76251 20.8232 8.46961 20.5303C8.17672 20.2374 8.17672 19.7626 8.46961 19.4697L11.2499 16.6893V12.433L7.56384 10.3049L3.76583 11.3225C3.36573 11.4297 2.95448 11.1923 2.84728 10.7922C2.74007 10.3921 2.97751 9.98085 3.37761 9.87364L5.72674 9.24419L3.83075 8.14952C3.47203 7.94241 3.34913 7.48371 3.55624 7.12499C3.76335 6.76628 4.22204 6.64337 4.58076 6.85048L6.47671 7.94514L5.84728 5.59604C5.74007 5.19595 5.97751 4.78469 6.37761 4.67749C6.77771 4.57028 7.18896 4.80772 7.29616 5.20782L8.31384 9.00582L11.9999 11.134L15.686 9.00581L16.7038 5.20775C16.811 4.80765 17.2222 4.57022 17.6223 4.67743ZM2.84727 13.2078C2.95448 12.8077 3.36573 12.5702 3.76583 12.6774L7.56394 13.6951L9.02691 12.8505C9.38563 12.6434 9.84432 12.7663 10.0514 13.125C10.2585 13.4837 10.1356 13.9424 9.77691 14.1495L8.31381 14.9942L7.29616 18.7921C7.18896 19.1922 6.77771 19.4297 6.37761 19.3225C5.97751 19.2153 5.74007 18.804 5.84728 18.4039L6.47669 16.0549L4.58075 17.1495C4.22203 17.3566 3.76334 17.2337 3.55623 16.875C3.34913 16.5163 3.47203 16.0576 3.83075 15.8505L5.72682 14.7558L3.37761 14.1263C2.97751 14.0191 2.74007 13.6079 2.84727 13.2078Z" fill="black"/>
</svg>
