<svg width="24" height="24" viewBox="0 0 24 24" fill="none" xmlns="http://www.w3.org/2000/svg">
<path fill-rule="evenodd" clip-rule="evenodd" d="M3.25 6C3.25 4.48122 4.48122 3.25 6 3.25H12C12.4142 3.25 12.75 3.58579 12.75 4C12.75 4.41421 12.4142 4.75 12 4.75H6C5.30964 4.75 4.75 5.30964 4.75 6V10C4.75 10.4142 4.41421 10.75 4 10.75C3.58579 10.75 3.25 10.4142 3.25 10V6ZM16.25 4C16.25 3.58579 16.5858 3.25 17 3.25H18C19.5188 3.25 20.75 4.48122 20.75 6V18C20.75 19.5188 19.5188 20.75 18 20.75H6C4.63457 20.75 3.50285 19.7556 3.287 18.4515C3.26261 18.3041 3.25 18.1533 3.25 18V15C3.25 14.5858 3.58579 14.25 4 14.25C4.41421 14.25 4.75 14.5858 4.75 15V16.5453L7.31729 13.978C7.32906 13.9662 7.34122 13.9548 7.35375 13.9439C8.28879 13.1257 9.65627 13.0361 10.6901 13.7253L11.1992 14.0647C11.6521 14.3667 12.2484 14.3408 12.6734 14.0008L15.3216 11.8822C16.2498 11.1397 17.5424 11.0815 18.5294 11.7181C18.6732 11.8109 18.787 11.9164 18.8703 11.9998L19.25 12.3795V6C19.25 5.30964 18.6904 4.75 18 4.75H17C16.5858 4.75 16.25 4.41421 16.25 4ZM19.25 14.5008L17.8097 13.0605C17.7592 13.01 17.7315 12.9885 17.7163 12.9787C17.2681 12.6896 16.6804 12.7162 16.2586 13.0535L13.6105 15.1721C12.6753 15.9202 11.3636 15.9771 10.3671 15.3128L9.85801 14.9734C9.39424 14.6642 8.78272 14.6998 8.35824 15.0584L4.87358 18.543C5.07569 18.9613 5.5046 19.25 6 19.25H18C18.6904 19.25 19.25 18.6904 19.25 18V14.5008ZM9 7.75C8.30964 7.75 7.75 8.30964 7.75 9C7.75 9.69036 8.30964 10.25 9 10.25C9.69036 10.25 10.25 9.69036 10.25 9C10.25 8.30964 9.69036 7.75 9 7.75ZM6.25 9C6.25 7.48122 7.48122 6.25 9 6.25C10.5188 6.25 11.75 7.48122 11.75 9C11.75 10.5188 10.5188 11.75 9 11.75C7.48122 11.75 6.25 10.5188 6.25 9Z" fill="black"/>
</svg>
