<svg width="24" height="24" viewBox="0 0 24 24" fill="none" xmlns="http://www.w3.org/2000/svg">
<path fill-rule="evenodd" clip-rule="evenodd" d="M12 3.75C7.44365 3.75 3.75 7.44365 3.75 12C3.75 16.5563 7.44365 20.25 12 20.25C16.5563 20.25 20.25 16.5563 20.25 12C20.25 7.44365 16.5563 3.75 12 3.75ZM2.25 12C2.25 6.61522 6.61522 2.25 12 2.25C17.3848 2.25 21.75 6.61522 21.75 12C21.75 17.3848 17.3848 21.75 12 21.75C6.61522 21.75 2.25 17.3848 2.25 12ZM12 6.25002C12.4142 6.25002 12.75 6.5858 12.75 7.00002V7.01001C12.75 7.42422 12.4142 7.76001 12 7.76001C11.5858 7.76001 11.25 7.42422 11.25 7.01001V7.00002C11.25 6.5858 11.5858 6.25002 12 6.25002ZM12 9.25C12.4142 9.25 12.75 9.58579 12.75 10L12.75 17C12.75 17.4142 12.4142 17.75 12 17.75C11.5858 17.75 11.25 17.4142 11.25 17L11.25 10C11.25 9.58579 11.5858 9.25 12 9.25Z" fill="black"/>
</svg>
