<svg width="24" height="24" viewBox="0 0 24 24" fill="none" xmlns="http://www.w3.org/2000/svg">
<path fill-rule="evenodd" clip-rule="evenodd" d="M12 6.25003C12.4142 6.25003 12.75 6.58582 12.75 7.00003V7.01002C12.75 7.42424 12.4142 7.76002 12 7.76002C11.5858 7.76002 11.25 7.42424 11.25 7.01002V7.00003C11.25 6.58582 11.5858 6.25003 12 6.25003ZM12 9.25001C12.4142 9.25001 12.75 9.5858 12.75 10L12.75 17C12.75 17.4142 12.4142 17.75 12 17.75C11.5858 17.75 11.25 17.4142 11.25 17L11.25 10C11.25 9.5858 11.5858 9.25001 12 9.25001Z" fill="black"/>
</svg>
