<svg width="24" height="24" viewBox="0 0 24 24" fill="none" xmlns="http://www.w3.org/2000/svg">
<path fill-rule="evenodd" clip-rule="evenodd" d="M21.5304 2.46967C21.8233 2.76256 21.8233 3.23744 21.5304 3.53033L19.0607 6.00003L20.5303 7.46967C20.8232 7.76256 20.8232 8.23744 20.5303 8.53033L17.5303 11.5303C17.2374 11.8232 16.7626 11.8232 16.4697 11.5303L15 10.0607L12.7044 12.3563C13.3611 13.233 13.75 14.3214 13.75 15.5C13.75 16.578 13.4238 17.5826 12.8647 18.4174C12.6342 18.7615 12.1683 18.8536 11.8242 18.6231C11.48 18.3926 11.3879 17.9268 11.6184 17.5826C12.0174 16.9869 12.25 16.2714 12.25 15.5C12.25 13.4309 10.5709 11.75 8.49878 11.75C6.4294 11.75 4.75 13.4306 4.75 15.5C4.75 17.5694 6.4294 19.25 8.49878 19.25C8.913 19.25 9.24878 19.5858 9.24878 20C9.24878 20.4142 8.913 20.75 8.49878 20.75C5.6003 20.75 3.25 18.3971 3.25 15.5C3.25 12.6029 5.6003 10.25 8.49878 10.25C9.67843 10.25 10.7671 10.6391 11.6437 11.2957L14.464 8.47544C14.4659 8.47351 14.4678 8.47158 14.4697 8.46967C14.4716 8.46776 14.4735 8.46585 14.4754 8.46396L17.464 5.47542C17.4659 5.4735 17.4678 5.47158 17.4697 5.46967C17.4716 5.46776 17.4735 5.46586 17.4754 5.46398L20.4697 2.46967C20.7626 2.17678 21.2375 2.17678 21.5304 2.46967ZM18 7.06069L16.0607 9.00003L17 9.93934L18.9393 8L18 7.06069Z" fill="black"/>
</svg>
