<svg width="24" height="24" viewBox="0 0 24 24" fill="none" xmlns="http://www.w3.org/2000/svg">
<path fill-rule="evenodd" clip-rule="evenodd" d="M3.25 6.5C3.25 5.5335 4.0335 4.75 5 4.75H12C12.4142 4.75 12.75 5.08579 12.75 5.5C12.75 5.91421 12.4142 6.25 12 6.25H5C4.86193 6.25 4.75 6.36193 4.75 6.5V15.5C4.75 15.6381 4.86193 15.75 5 15.75H19C19.1381 15.75 19.25 15.6381 19.25 15.5V6.5C19.25 6.36193 19.1381 6.25 19 6.25H16C15.5858 6.25 15.25 5.91421 15.25 5.5C15.25 5.08579 15.5858 4.75 16 4.75H19C19.9665 4.75 20.75 5.5335 20.75 6.5V15.5C20.75 15.6045 20.7408 15.7069 20.7233 15.8063C21.5994 16.0189 22.25 16.8085 22.25 17.75C22.25 18.8546 21.3546 19.75 20.25 19.75H12C11.5858 19.75 11.25 19.4142 11.25 19C11.25 18.5858 11.5858 18.25 12 18.25H20.25C20.5261 18.25 20.75 18.0261 20.75 17.75C20.75 17.4739 20.5261 17.25 20.25 17.25H3.75C3.47386 17.25 3.25 17.4739 3.25 17.75C3.25 18.0261 3.47386 18.25 3.75 18.25H7C7.41421 18.25 7.75 18.5858 7.75 19C7.75 19.4142 7.41421 19.75 7 19.75H3.75C2.64543 19.75 1.75 18.8546 1.75 17.75C1.75 16.8085 2.40058 16.0189 3.27672 15.8063C3.25916 15.7069 3.25 15.6045 3.25 15.5V6.5Z" fill="black"/>
</svg>
