<svg width="24" height="24" viewBox="0 0 24 24" fill="none" xmlns="http://www.w3.org/2000/svg">
<path fill-rule="evenodd" clip-rule="evenodd" d="M7 8.75C6.40679 8.75 5.85281 8.90825 5.37554 9.18433C5.017 9.39174 4.5582 9.26922 4.3508 8.91067C4.14339 8.55213 4.26591 8.09333 4.62446 7.88592C5.32388 7.48133 6.13606 7.25 7 7.25H9C9.41421 7.25 9.75 7.58579 9.75 8C9.75 8.41421 9.41421 8.75 9 8.75H7ZM14.25 8C14.25 7.58579 14.5858 7.25 15 7.25H17C19.6234 7.25 21.75 9.37665 21.75 12C21.75 14.6234 19.6234 16.75 17 16.75H15C14.5858 16.75 14.25 16.4142 14.25 16C14.25 15.5858 14.5858 15.25 15 15.25H17C18.7949 15.25 20.25 13.7949 20.25 12C20.25 10.2051 18.7949 8.75 17 8.75H15C14.5858 8.75 14.25 8.41421 14.25 8ZM3 11.25C3.41421 11.25 3.75 11.5858 3.75 12C3.75 13.7949 5.20507 15.25 7 15.25H9C9.41421 15.25 9.75 15.5858 9.75 16C9.75 16.4142 9.41421 16.75 9 16.75H7C4.37665 16.75 2.25 14.6234 2.25 12C2.25 11.5858 2.58579 11.25 3 11.25ZM7.25 12C7.25 11.5858 7.58579 11.25 8 11.25H16C16.4142 11.25 16.75 11.5858 16.75 12C16.75 12.4142 16.4142 12.75 16 12.75H8C7.58579 12.75 7.25 12.4142 7.25 12Z" fill="black"/>
</svg>
