<svg width="24" height="24" viewBox="0 0 24 24" fill="none" xmlns="http://www.w3.org/2000/svg">
<path fill-rule="evenodd" clip-rule="evenodd" d="M5 7.25C5.41421 7.25 5.75 7.58579 5.75 8V8.00999C5.75 8.42421 5.41421 8.75999 5 8.75999C4.58579 8.75999 4.25 8.42421 4.25 8.00999V8C4.25 7.58579 4.58579 7.25 5 7.25ZM7.25 8C7.25 7.58579 7.58579 7.25 8 7.25H13C13.4142 7.25 13.75 7.58579 13.75 8C13.75 8.41421 13.4142 8.75 13 8.75H8C7.58579 8.75 7.25 8.41421 7.25 8ZM15.25 8C15.25 7.58579 15.5858 7.25 16 7.25H19C19.4142 7.25 19.75 7.58579 19.75 8C19.75 8.41421 19.4142 8.75 19 8.75H16C15.5858 8.75 15.25 8.41421 15.25 8ZM5 11.25C5.41421 11.25 5.75 11.5858 5.75 12V12.01C5.75 12.4242 5.41421 12.76 5 12.76C4.58579 12.76 4.25 12.4242 4.25 12.01V12C4.25 11.5858 4.58579 11.25 5 11.25ZM7.25 12C7.25 11.5858 7.58579 11.25 8 11.25H19C19.4142 11.25 19.75 11.5858 19.75 12C19.75 12.4142 19.4142 12.75 19 12.75H8C7.58579 12.75 7.25 12.4142 7.25 12ZM5 15.25C5.41421 15.25 5.75 15.5858 5.75 16V16.01C5.75 16.4242 5.41421 16.76 5 16.76C4.58579 16.76 4.25 16.4242 4.25 16.01V16C4.25 15.5858 4.58579 15.25 5 15.25ZM7.25 16C7.25 15.5858 7.58579 15.25 8 15.25H10C10.4142 15.25 10.75 15.5858 10.75 16C10.75 16.4142 10.4142 16.75 10 16.75H8C7.58579 16.75 7.25 16.4142 7.25 16ZM12.25 16C12.25 15.5858 12.5858 15.25 13 15.25H19C19.4142 15.25 19.75 15.5858 19.75 16C19.75 16.4142 19.4142 16.75 19 16.75H13C12.5858 16.75 12.25 16.4142 12.25 16Z" fill="black"/>
</svg>
