<svg width="24" height="24" viewBox="0 0 24 24" fill="none" xmlns="http://www.w3.org/2000/svg">
<path fill-rule="evenodd" clip-rule="evenodd" d="M12 3.75C9.12598 3.75 6.75 6.17405 6.75 9.22222C6.75 12.2373 9.12486 14.8218 12.3187 16.3211C12.6937 16.4971 12.8549 16.9437 12.6789 17.3187C12.5029 17.6937 12.0563 17.8549 11.6813 17.6789C8.24773 16.0671 5.25 13.08 5.25 9.22222C5.25 5.39751 8.2466 2.25 12 2.25C15.7534 2.25 18.75 5.39751 18.75 9.22222C18.75 11.7615 17.4403 13.9328 15.5877 15.563C15.2767 15.8367 14.8028 15.8064 14.5292 15.4955C14.2556 15.1845 14.2858 14.7106 14.5968 14.437C16.229 13.0007 17.25 11.2097 17.25 9.22222C17.25 6.17405 14.874 3.75 12 3.75ZM12 5.75C12.4142 5.75 12.75 6.08579 12.75 6.5V8.25H14.5C14.9142 8.25 15.25 8.58579 15.25 9C15.25 9.41421 14.9142 9.75 14.5 9.75H12.75V11.5C12.75 11.9142 12.4142 12.25 12 12.25C11.5858 12.25 11.25 11.9142 11.25 11.5V6.5C11.25 6.08579 11.5858 5.75 12 5.75ZM8.75 9C8.75 8.58579 9.08579 8.25 9.5 8.25H10C10.4142 8.25 10.75 8.58579 10.75 9C10.75 9.41421 10.4142 9.75 10 9.75H9.5C9.08579 9.75 8.75 9.41421 8.75 9ZM4.79877 14.5431C5.05113 14.8715 4.98944 15.3424 4.66098 15.5947C3.99177 16.1089 3.75 16.5968 3.75 17C3.75 17.4345 4.03332 17.9694 4.81985 18.5219C5.59304 19.0651 6.74115 19.5381 8.16175 19.8519C8.56622 19.9412 8.82168 20.3415 8.73235 20.746C8.64301 21.1504 8.24271 21.4059 7.83825 21.3166C6.29542 20.9758 4.94353 20.442 3.95758 19.7493C2.98496 19.066 2.25 18.1361 2.25 17C2.25 15.9461 2.88478 15.0678 3.7471 14.4053C4.07556 14.1529 4.54641 14.2146 4.79877 14.5431ZM19.2012 14.5431C19.4536 14.2146 19.9244 14.1529 20.2529 14.4053C21.1152 15.0678 21.75 15.9461 21.75 17C21.75 17.7963 21.3838 18.4985 20.836 19.074C20.292 19.6457 19.5402 20.1264 18.6686 20.5138C16.9234 21.2894 14.5651 21.75 12 21.75C11.5858 21.75 11.25 21.4142 11.25 21C11.25 20.5858 11.5858 20.25 12 20.25C14.4055 20.25 16.5471 19.8152 18.0594 19.1431C18.8164 18.8066 19.3826 18.4254 19.7494 18.0399C20.1126 17.6584 20.25 17.3082 20.25 17C20.25 16.5968 20.0082 16.1089 19.339 15.5947C19.0106 15.3424 18.9489 14.8715 19.2012 14.5431Z" fill="black"/>
</svg>
