<svg width="24" height="24" viewBox="0 0 24 24" fill="none" xmlns="http://www.w3.org/2000/svg">
<path fill-rule="evenodd" clip-rule="evenodd" d="M12 3.75C7.99594 3.75 4.75 6.99594 4.75 11C4.75 14.982 8.00044 18.3663 12.3093 20.3167C12.6866 20.4876 12.8541 20.9319 12.6833 21.3093C12.5124 21.6866 12.0681 21.8541 11.6907 21.6833C7.163 19.6337 3.25 15.8545 3.25 11C3.25 6.16751 7.16751 2.25 12 2.25C16.8325 2.25 20.75 6.16751 20.75 11C20.75 14.2357 18.9995 17.0023 16.5192 19.0755C16.2014 19.3411 15.7284 19.2988 15.4627 18.981C15.1971 18.6632 15.2394 18.1902 15.5572 17.9245C17.8172 16.0355 19.25 13.655 19.25 11C19.25 6.99594 16.0041 3.75 12 3.75ZM11.25 8C11.25 7.58579 11.5858 7.25 12 7.25C14.0711 7.25 15.75 8.92893 15.75 11C15.75 13.0711 14.0711 14.75 12 14.75C9.92893 14.75 8.25 13.0711 8.25 11C8.25 10.5858 8.58579 10.25 9 10.25C9.41421 10.25 9.75 10.5858 9.75 11C9.75 12.2426 10.7574 13.25 12 13.25C13.2426 13.25 14.25 12.2426 14.25 11C14.25 9.75736 13.2426 8.75 12 8.75C11.5858 8.75 11.25 8.41421 11.25 8Z" fill="black"/>
</svg>
