<svg width="24" height="24" viewBox="0 0 24 24" fill="none" xmlns="http://www.w3.org/2000/svg">
<path fill-rule="evenodd" clip-rule="evenodd" d="M12 2.25C12.4142 2.25 12.75 2.58579 12.75 3V4.28582C16.4315 4.63935 19.3607 7.5685 19.7142 11.25H21C21.4142 11.25 21.75 11.5858 21.75 12C21.75 12.4142 21.4142 12.75 21 12.75H19.7141C19.5399 14.563 18.7406 16.1943 17.5357 17.4239C17.2458 17.7198 16.7709 17.7246 16.4751 17.4347C16.1792 17.1448 16.1744 16.6699 16.4643 16.3741C17.405 15.4141 18.0378 14.1539 18.2055 12.75H12.75V21C12.75 21.4142 12.4142 21.75 12 21.75C11.5858 21.75 11.25 21.4142 11.25 21V19.7142C7.5685 19.3607 4.63935 16.4315 4.28582 12.75H3C2.58579 12.75 2.25 12.4142 2.25 12C2.25 11.5858 2.58579 11.25 3 11.25H4.28586C4.46543 9.38145 5.3089 7.70607 6.57609 6.46432C6.87194 6.17441 7.34679 6.17923 7.6367 6.47507C7.92661 6.77092 7.92179 7.24577 7.62594 7.53568C6.63556 8.50618 5.96754 9.80174 5.79449 11.25H11.25V3C11.25 2.58579 11.5858 2.25 12 2.25ZM12.75 5.79454V11.25H18.2055C17.8644 8.39773 15.6023 6.13565 12.75 5.79454ZM11.25 12.75H5.79454C6.13565 15.6023 8.39773 17.8644 11.25 18.2055V12.75Z" fill="black"/>
</svg>
