<svg width="24" height="24" viewBox="0 0 24 24" fill="none" xmlns="http://www.w3.org/2000/svg">
<path fill-rule="evenodd" clip-rule="evenodd" d="M9.40865 4.93823C8.92016 5.61668 8.75 6.45335 8.75 7V10.25H15.25V7C15.25 6.45335 15.0798 5.61668 14.5913 4.93823C14.1304 4.29802 13.3556 3.75 12 3.75C10.6444 3.75 9.8696 4.29802 9.40865 4.93823ZM16.75 10.25V7C16.75 6.21332 16.5202 5.04998 15.8087 4.06177C15.0696 3.03532 13.8444 2.25 12 2.25C10.1556 2.25 8.9304 3.03532 8.19135 4.06177C7.47984 5.04998 7.25 6.21332 7.25 7V10.25H5C4.58579 10.25 4.25 10.5858 4.25 11V21C4.25 21.4142 4.58579 21.75 5 21.75H12C12.4142 21.75 12.75 21.4142 12.75 21C12.75 20.5858 12.4142 20.25 12 20.25H5.75V11.75H18.25V20.25H17C16.5858 20.25 16.25 20.5858 16.25 21C16.25 21.4142 16.5858 21.75 17 21.75H19C19.4142 21.75 19.75 21.4142 19.75 21V11C19.75 10.5858 19.4142 10.25 19 10.25H16.75Z" fill="black"/>
</svg>
