<svg width="24" height="24" viewBox="0 0 24 24" fill="none" xmlns="http://www.w3.org/2000/svg">
<path fill-rule="evenodd" clip-rule="evenodd" d="M9.40865 4.93823C8.92016 5.61668 8.75 6.45335 8.75 7V10.25H19C19.4142 10.25 19.75 10.5858 19.75 11V21C19.75 21.4142 19.4142 21.75 19 21.75H17C16.5858 21.75 16.25 21.4142 16.25 21C16.25 20.5858 16.5858 20.25 17 20.25H18.25V11.75H5.75V20.25H12C12.4142 20.25 12.75 20.5858 12.75 21C12.75 21.4142 12.4142 21.75 12 21.75H5C4.58579 21.75 4.25 21.4142 4.25 21V11C4.25 10.5858 4.58579 10.25 5 10.25H7.25V7C7.25 6.21332 7.47984 5.04998 8.19135 4.06177C8.9304 3.03532 10.1556 2.25 12 2.25C14.2215 2.25 15.5181 3.38547 16.1723 4.65685C16.3618 5.02517 16.2169 5.47738 15.8486 5.6669C15.4802 5.85641 15.028 5.71146 14.8385 5.34315C14.4125 4.51517 13.5991 3.75 12 3.75C10.6444 3.75 9.8696 4.29802 9.40865 4.93823Z" fill="black"/>
</svg>
