<svg width="24" height="24" viewBox="0 0 24 24" fill="none" xmlns="http://www.w3.org/2000/svg">
<path fill-rule="evenodd" clip-rule="evenodd" d="M14.25 4C14.25 3.58579 14.5858 3.25 15 3.25H18C19.5188 3.25 20.75 4.48122 20.75 6V14C20.75 14.4142 20.4142 14.75 20 14.75C19.5858 14.75 19.25 14.4142 19.25 14V6C19.25 5.30964 18.6904 4.75 18 4.75H15C14.5858 4.75 14.25 4.41421 14.25 4ZM7.53035 7.46967C7.82325 7.76256 7.82325 8.23744 7.53035 8.53033L4.81068 11.25L15 11.25C15.4142 11.25 15.75 11.5858 15.75 12C15.75 12.4142 15.4142 12.75 15 12.75H3.00002C2.69668 12.75 2.4232 12.5673 2.30711 12.287C2.19103 12.0068 2.25519 11.6842 2.46969 11.4697L6.46969 7.46967C6.76259 7.17678 7.23746 7.17678 7.53035 7.46967ZM5.46969 14.4697C5.76258 14.1768 6.23746 14.1768 6.53035 14.4697L7.53035 15.4697C7.82325 15.7626 7.82325 16.2374 7.53035 16.5303C7.23746 16.8232 6.76259 16.8232 6.46969 16.5303L5.46969 15.5303C5.1768 15.2374 5.1768 14.7626 5.46969 14.4697ZM20 17.25C20.4142 17.25 20.75 17.5858 20.75 18C20.75 19.5188 19.5188 20.75 18 20.75H15C14.5858 20.75 14.25 20.4142 14.25 20C14.25 19.5858 14.5858 19.25 15 19.25H18C18.6904 19.25 19.25 18.6904 19.25 18C19.25 17.5858 19.5858 17.25 20 17.25Z" fill="black"/>
</svg>
