<svg width="24" height="24" viewBox="0 0 24 24" fill="none" xmlns="http://www.w3.org/2000/svg">
<path fill-rule="evenodd" clip-rule="evenodd" d="M12 3.25C12.4142 3.25 12.75 3.58579 12.75 4V8.53648L14.25 9.28648V7.09523C14.25 6.07614 15.0761 5.25 16.0952 5.25C16.7415 5.25 17.3464 5.58916 17.6778 6.15225C17.7914 6.34528 17.9018 6.53529 18.009 6.72253C18.2148 7.08198 18.0903 7.54024 17.7309 7.74607C17.3714 7.95191 16.9132 7.82738 16.7073 7.46793C16.6032 7.28611 16.4958 7.10126 16.3851 6.9131C16.3268 6.81407 16.2172 6.75 16.0952 6.75C15.9046 6.75 15.75 6.90457 15.75 7.09523V10.4875C15.7501 10.4962 15.7501 10.5049 15.75 10.5136V17C15.75 17.6904 16.3096 18.25 17 18.25H18.8254C19.5691 18.25 20.1206 17.6199 20.0324 16.9321C19.7452 14.6922 19.2932 12.8585 18.4023 10.7976C18.2379 10.4174 18.4129 9.97594 18.7931 9.81158C19.1733 9.64721 19.6147 9.82218 19.7791 10.2024C20.7351 12.4139 21.2185 14.3875 21.5203 16.7414C21.7298 18.3755 20.4226 19.75 18.8254 19.75H17C15.4812 19.75 14.25 18.5188 14.25 17V10.9635L12 9.83853L9.74999 10.9635V17C9.74999 18.5188 8.51878 19.75 6.99999 19.75H5.17461C3.57743 19.75 2.27022 18.3755 2.47974 16.7414C2.53242 16.3305 2.90818 16.0402 3.31903 16.0929C3.72988 16.1455 4.02024 16.5213 3.96756 16.9321C3.87938 17.6199 4.4309 18.25 5.17461 18.25H6.99999C7.69035 18.25 8.24999 17.6904 8.24999 17V10.5185C8.24971 10.5065 8.24971 10.4946 8.24999 10.4826V7.09523C8.24999 6.90457 8.09543 6.75 7.90476 6.75C7.78278 6.75 7.67319 6.81407 7.6149 6.9131C6.15317 9.39661 5.28022 11.3055 4.71946 13.2117C4.60256 13.609 4.18565 13.8364 3.78828 13.7195C3.3909 13.6026 3.16353 13.1857 3.28043 12.7883C3.88704 10.7263 4.82178 8.70149 6.32219 6.15225C6.65361 5.58916 7.25846 5.25 7.90476 5.25C8.92386 5.25 9.74999 6.07614 9.74999 7.09523V9.28646L11.25 8.53647V4C11.25 3.58579 11.5858 3.25 12 3.25Z" fill="black"/>
</svg>
