<svg width="24" height="24" viewBox="0 0 24 24" fill="none" xmlns="http://www.w3.org/2000/svg">
<path fill-rule="evenodd" clip-rule="evenodd" d="M2.76256 4.76256C3.07843 4.4467 3.51696 4.25 4 4.25H20C20.483 4.25 20.9216 4.4467 21.2374 4.76256C21.5533 5.07843 21.75 5.51696 21.75 6V18C21.75 18.9665 20.9665 19.75 20 19.75H18C17.5858 19.75 17.25 19.4142 17.25 19C17.25 18.5858 17.5858 18.25 18 18.25H20C20.1381 18.25 20.25 18.1381 20.25 18V6.81065L13.9445 13.1161C12.8706 14.19 11.1294 14.19 10.0554 13.1161L7.46967 10.5303C7.17678 10.2374 7.17678 9.76256 7.46967 9.46967C7.76256 9.17678 8.23744 9.17678 8.53033 9.46967L11.1161 12.0554C11.6042 12.5436 12.3957 12.5436 12.8838 12.0554L13.4142 12.5857L12.8838 12.0554L19.1893 5.75H4.81062L5.53034 6.46974C5.82323 6.76264 5.82322 7.23751 5.53032 7.5304C5.23742 7.82329 4.76255 7.82328 4.46966 7.53038L3.75 6.8107V18C3.75 18.1381 3.86193 18.25 4 18.25H14C14.4142 18.25 14.75 18.5858 14.75 19C14.75 19.4142 14.4142 19.75 14 19.75H4C3.0335 19.75 2.25 18.9665 2.25 18V6C2.25 5.51696 2.4467 5.07843 2.76256 4.76256Z" fill="black"/>
</svg>
