<svg width="24" height="24" viewBox="0 0 24 24" fill="none" xmlns="http://www.w3.org/2000/svg">
<path fill-rule="evenodd" clip-rule="evenodd" d="M11.713 2.30711C11.9932 2.19103 12.3158 2.25519 12.5303 2.46969L16.5303 6.46969C16.8232 6.76259 16.8232 7.23746 16.5303 7.53035C16.2374 7.82325 15.7626 7.82325 15.4697 7.53035L12.75 4.81068V10.2986C13.7543 10.4295 14.6782 10.8199 15.4504 11.4C15.7816 11.6487 15.8484 12.1189 15.5997 12.4501C15.3509 12.7813 14.8808 12.8481 14.5496 12.5993C13.8393 12.0658 12.9576 11.75 12 11.75C9.65279 11.75 7.75 13.6528 7.75 16C7.75 18.3472 9.65279 20.25 12 20.25C14.3472 20.25 16.25 18.3472 16.25 16C16.25 15.5858 16.5858 15.25 17 15.25C17.4142 15.25 17.75 15.5858 17.75 16C17.75 19.1757 15.1756 21.75 12 21.75C8.82436 21.75 6.25 19.1757 6.25 16C6.25 13.0786 8.42873 10.666 11.25 10.2985V3.00002C11.25 2.69668 11.4327 2.4232 11.713 2.30711ZM10.5303 4.46969C10.8232 4.76259 10.8232 5.23746 10.5303 5.53035L8.53033 7.53035C8.23744 7.82325 7.76256 7.82325 7.46967 7.53035C7.17678 7.23746 7.17678 6.76259 7.46967 6.46969L9.46967 4.46969C9.76256 4.1768 10.2374 4.1768 10.5303 4.46969Z" fill="black"/>
</svg>
