<svg width="24" height="24" viewBox="0 0 24 24" fill="none" xmlns="http://www.w3.org/2000/svg">
<path fill-rule="evenodd" clip-rule="evenodd" d="M2.56147 2.39157C2.75704 2.25061 3.00846 2.21226 3.23717 2.28849L9.23717 4.28849C9.54343 4.39058 9.75 4.67718 9.75 5.00001V19.9594L14.25 18.4594V4.04058L12.2372 4.71152C11.8442 4.8425 11.4195 4.63013 11.2885 4.23718C11.1575 3.84422 11.3699 3.41948 11.7628 3.28849L14.7628 2.28849C14.9168 2.23718 15.0832 2.23718 15.2372 2.28849L21.2372 4.28849C21.5434 4.39058 21.75 4.67718 21.75 5.00001V21C21.75 21.4142 21.4142 21.75 21 21.75C20.5858 21.75 20.25 21.4142 20.25 21V5.54058L15.75 4.04058V18.4594L18.2372 19.2885C18.6301 19.4195 18.8425 19.8442 18.7115 20.2372C18.5805 20.6301 18.1558 20.8425 17.7628 20.7115L15 19.7906L9.23717 21.7115C9.00846 21.7878 8.75704 21.7494 8.56147 21.6084C8.36589 21.4675 8.25 21.2411 8.25 21V5.54058L3.75 4.04057V18.4594L6.23717 19.2885C6.63013 19.4195 6.8425 19.8442 6.71151 20.2372C6.58053 20.6301 6.15579 20.8425 5.76283 20.7115L2.76283 19.7115C2.45657 19.6094 2.25 19.3228 2.25 19V3.00001C2.25 2.75892 2.36589 2.53254 2.56147 2.39157Z" fill="black"/>
</svg>
