<svg width="24" height="24" viewBox="0 0 24 24" fill="none" xmlns="http://www.w3.org/2000/svg">
<path fill-rule="evenodd" clip-rule="evenodd" d="M8.25 5C8.25 3.48122 9.48122 2.25 11 2.25H13C14.5188 2.25 15.75 3.48122 15.75 5V6.25H18C19.5188 6.25 20.75 7.48122 20.75 9V13C20.75 13.4142 20.4142 13.75 20 13.75C19.5858 13.75 19.25 13.4142 19.25 13V9C19.25 8.30964 18.6904 7.75 18 7.75H6C5.30964 7.75 4.75 8.30964 4.75 9V18C4.75 18.6904 5.30964 19.25 6 19.25H18C18.6904 19.25 19.25 18.6904 19.25 18V17C19.25 16.5858 19.5858 16.25 20 16.25C20.4142 16.25 20.75 16.5858 20.75 17V18C20.75 19.5188 19.5188 20.75 18 20.75H6C4.48122 20.75 3.25 19.5188 3.25 18V9C3.25 7.48122 4.48122 6.25 6 6.25H8.25V5ZM9.75 6.25H14.25V5C14.25 4.30964 13.6904 3.75 13 3.75H11C10.3096 3.75 9.75 4.30964 9.75 5V6.25ZM12 9.25C12.4142 9.25 12.75 9.58579 12.75 10V12.75H15.5C15.9142 12.75 16.25 13.0858 16.25 13.5C16.25 13.9142 15.9142 14.25 15.5 14.25H12.75V17C12.75 17.4142 12.4142 17.75 12 17.75C11.5858 17.75 11.25 17.4142 11.25 17V10C11.25 9.58579 11.5858 9.25 12 9.25ZM7.75 13.5C7.75 13.0858 8.08579 12.75 8.5 12.75H10C10.4142 12.75 10.75 13.0858 10.75 13.5C10.75 13.9142 10.4142 14.25 10 14.25H8.5C8.08579 14.25 7.75 13.9142 7.75 13.5Z" fill="black"/>
</svg>
