<svg width="24" height="24" viewBox="0 0 24 24" fill="none" xmlns="http://www.w3.org/2000/svg">
<path fill-rule="evenodd" clip-rule="evenodd" d="M3.25 7C3.25 6.58579 3.58579 6.25 4 6.25H12C12.4142 6.25 12.75 6.58579 12.75 7C12.75 7.41421 12.4142 7.75 12 7.75H4C3.58579 7.75 3.25 7.41421 3.25 7ZM15.25 7C15.25 6.58579 15.5858 6.25 16 6.25H20C20.4142 6.25 20.75 6.58579 20.75 7C20.75 7.41421 20.4142 7.75 20 7.75H16C15.5858 7.75 15.25 7.41421 15.25 7ZM3.25 12C3.25 11.5858 3.58579 11.25 4 11.25H20C20.4142 11.25 20.75 11.5858 20.75 12C20.75 12.4142 20.4142 12.75 20 12.75H4C3.58579 12.75 3.25 12.4142 3.25 12ZM3.25 17C3.25 16.5858 3.58579 16.25 4 16.25H8C8.41421 16.25 8.75 16.5858 8.75 17C8.75 17.4142 8.41421 17.75 8 17.75H4C3.58579 17.75 3.25 17.4142 3.25 17ZM11.25 17C11.25 16.5858 11.5858 16.25 12 16.25H20C20.4142 16.25 20.75 16.5858 20.75 17C20.75 17.4142 20.4142 17.75 20 17.75H12C11.5858 17.75 11.25 17.4142 11.25 17Z" fill="black"/>
</svg>
