<svg width="24" height="24" viewBox="0 0 24 24" fill="none" xmlns="http://www.w3.org/2000/svg">
<path fill-rule="evenodd" clip-rule="evenodd" d="M11.5 3.75C7.21979 3.75 3.75 7.21979 3.75 11.5C3.75 15.7802 7.21979 19.25 11.5 19.25C12.7033 19.25 13.5678 19.0408 14.1159 18.8441C14.3907 18.7455 14.5879 18.6493 14.71 18.5826C14.771 18.5492 14.8133 18.5232 14.8372 18.5078C14.8491 18.5002 14.8564 18.4952 14.8592 18.4933L14.8576 18.4944L14.8559 18.4957L14.8548 18.4965L14.8543 18.4969M14.8596 18.493C14.8595 18.4931 14.8593 18.4932 14.8592 18.4933L14.8599 18.4928L14.8604 18.4924C14.8605 18.4923 14.8603 18.4925 14.8596 18.493ZM14.8596 18.493C15.1921 18.2516 15.6577 18.3228 15.9028 18.6537C16.1493 18.9866 16.0792 19.4563 15.7464 19.7028L15.3204 19.1276C15.7463 19.7028 15.746 19.703 15.7457 19.7032L15.7451 19.7037L15.7437 19.7047L15.7406 19.707L15.7331 19.7125L15.7123 19.727C15.696 19.7383 15.6747 19.7527 15.6483 19.7696C15.5956 19.8035 15.5228 19.8477 15.4295 19.8987C15.2429 20.0008 14.9747 20.1296 14.6226 20.2559C13.917 20.5092 12.8814 20.75 11.5 20.75C6.39137 20.75 2.25 16.6086 2.25 11.5C2.25 6.39137 6.39137 2.25 11.5 2.25C11.9142 2.25 12.25 2.58579 12.25 3C12.25 3.41421 11.9142 3.75 11.5 3.75M16.4284 4.53347C16.6966 4.21778 17.1699 4.17926 17.4856 4.44743C19.4816 6.14298 20.75 8.67374 20.75 11.5C20.75 12.8417 20.5082 13.876 20.2573 14.5871C20.1373 14.9271 20.0155 15.1924 19.9177 15.3814L21.7116 20.7629C21.8014 21.0324 21.7313 21.3295 21.5304 21.5304C21.3295 21.7313 21.0324 21.8014 20.7629 21.7116L17.7628 20.7115C17.3699 20.5806 17.1575 20.1558 17.2885 19.7629C17.4195 19.3699 17.8442 19.1575 18.2372 19.2885L19.8142 19.8142L18.3885 15.5372C18.3145 15.315 18.3485 15.0711 18.4802 14.8778C18.4799 14.8783 18.4798 14.8784 18.48 14.8782L18.481 14.8766L18.4815 14.8759M18.482 14.8751L18.4815 14.8759C18.4841 14.8719 18.4897 14.863 18.4981 14.8494C18.5147 14.822 18.5419 14.7754 18.5764 14.7096C18.6453 14.5781 18.7431 14.3704 18.8428 14.0879C19.0418 13.524 19.25 12.6583 19.25 11.5C19.25 9.13242 18.1893 7.01336 16.5144 5.59063C16.1988 5.32247 16.1602 4.84916 16.4284 4.53347M18.483 14.8737C18.483 14.8737 18.483 14.8737 18.483 14.8737L18.4828 14.874C18.4829 14.8739 18.483 14.8738 18.483 14.8737ZM7.25 9.5C7.25 9.08579 7.58579 8.75 8 8.75H15C15.4142 8.75 15.75 9.08579 15.75 9.5C15.75 9.91421 15.4142 10.25 15 10.25H8C7.58579 10.25 7.25 9.91421 7.25 9.5ZM7.25 13.5C7.25 13.0858 7.58579 12.75 8 12.75H13C13.4142 12.75 13.75 13.0858 13.75 13.5C13.75 13.9142 13.4142 14.25 13 14.25H8C7.58579 14.25 7.25 13.9142 7.25 13.5Z" fill="black"/>
</svg>
