<svg width="24" height="24" viewBox="0 0 24 24" fill="none" xmlns="http://www.w3.org/2000/svg">
<path fill-rule="evenodd" clip-rule="evenodd" d="M3.25 4C3.25 3.58579 3.58579 3.25 4 3.25H20C20.4142 3.25 20.75 3.58579 20.75 4V6C20.75 6.41421 20.4142 6.75 20 6.75C19.5858 6.75 19.25 6.41421 19.25 6V4.75H4.75V15.25H7C7.41421 15.25 7.75 15.5858 7.75 16C7.75 16.4142 7.41421 16.75 7 16.75H4C3.58579 16.75 3.25 16.4142 3.25 16V4ZM7.25 10C7.25 9.58579 7.58579 9.25 8 9.25H8.01C8.42421 9.25 8.76 9.58579 8.76 10C8.76 10.4142 8.42421 10.75 8.01 10.75H8C7.58579 10.75 7.25 10.4142 7.25 10ZM11.25 10C11.25 9.58579 11.5858 9.25 12 9.25H12.01C12.4242 9.25 12.76 9.58579 12.76 10C12.76 10.4142 12.4242 10.75 12.01 10.75H12C11.5858 10.75 11.25 10.4142 11.25 10ZM15.25 10C15.25 9.58579 15.5858 9.25 16 9.25H16.01C16.4242 9.25 16.76 9.58579 16.76 10C16.76 10.4142 16.4242 10.75 16.01 10.75H16C15.5858 10.75 15.25 10.4142 15.25 10ZM20 9.25C20.4142 9.25 20.75 9.58579 20.75 10V16C20.75 16.4142 20.4142 16.75 20 16.75H12.3107L7.53033 21.5303C7.31583 21.7448 6.99324 21.809 6.71299 21.6929C6.43273 21.5768 6.25 21.3033 6.25 21V18.5C6.25 18.0858 6.58579 17.75 7 17.75C7.41421 17.75 7.75 18.0858 7.75 18.5V19.1893L11.4697 15.4697C11.6103 15.329 11.8011 15.25 12 15.25H19.25V10C19.25 9.58579 19.5858 9.25 20 9.25Z" fill="black"/>
</svg>
