<svg width="24" height="24" viewBox="0 0 24 24" fill="none" xmlns="http://www.w3.org/2000/svg">
<path fill-rule="evenodd" clip-rule="evenodd" d="M8.25 6C8.25 3.92893 9.92893 2.25 12 2.25C14.0711 2.25 15.75 3.92893 15.75 6C15.75 6.41421 15.4142 6.75 15 6.75C14.5858 6.75 14.25 6.41421 14.25 6C14.25 4.75736 13.2426 3.75 12 3.75C10.7574 3.75 9.75 4.75736 9.75 6V12C9.75 13.2426 10.7574 14.25 12 14.25C13.2426 14.25 14.25 13.2426 14.25 12V9C14.25 8.58579 14.5858 8.25 15 8.25C15.4142 8.25 15.75 8.58579 15.75 9V12C15.75 14.0711 14.0711 15.75 12 15.75C9.92893 15.75 8.25 14.0711 8.25 12V6ZM6 11.25C6.41421 11.25 6.75 11.5858 6.75 12C6.75 13.8254 7.68095 15.4336 9.09746 16.3755C9.44239 16.6048 9.53609 17.0703 9.30675 17.4153C9.07742 17.7602 8.61188 17.8539 8.26695 17.6245C6.45006 16.4165 5.25 14.3486 5.25 12C5.25 11.5858 5.58579 11.25 6 11.25ZM18 11.25C18.4142 11.25 18.75 11.5858 18.75 12C18.75 15.4744 16.125 18.3357 12.75 18.7088V20.25H15C15.4142 20.25 15.75 20.5858 15.75 21C15.75 21.4142 15.4142 21.75 15 21.75H9C8.58579 21.75 8.25 21.4142 8.25 21C8.25 20.5858 8.58579 20.25 9 20.25H11.25V18C11.25 17.5858 11.5858 17.25 12 17.25C14.8995 17.25 17.25 14.8995 17.25 12C17.25 11.5858 17.5858 11.25 18 11.25Z" fill="black"/>
</svg>
