<svg width="24" height="24" viewBox="0 0 24 24" fill="none" xmlns="http://www.w3.org/2000/svg">
<path fill-rule="evenodd" clip-rule="evenodd" d="M2.46967 2.46967C2.76256 2.17678 3.23744 2.17678 3.53033 2.46967L21.5303 20.4697C21.8232 20.7626 21.8232 21.2374 21.5303 21.5303C21.2374 21.8232 20.7626 21.8232 20.4697 21.5303L2.46967 3.53033C2.17678 3.23744 2.17678 2.76256 2.46967 2.46967ZM8.75216 4.12446C9.39942 3.00553 10.611 2.25 12 2.25C14.0711 2.25 15.75 3.92893 15.75 6C15.75 6.41421 15.4142 6.75 15 6.75C14.5858 6.75 14.25 6.41421 14.25 6C14.25 4.75736 13.2427 3.75 12 3.75C11.1681 3.75 10.4407 4.20106 10.0506 4.87554C9.84316 5.23409 9.38437 5.35661 9.02582 5.1492C8.66728 4.9418 8.54476 4.483 8.75216 4.12446ZM15 8.25C15.4142 8.24999 15.75 8.58577 15.75 8.99998L15.75 9.99998C15.75 10.4142 15.4143 10.75 15 10.75C14.5858 10.75 14.25 10.4142 14.25 10L14.25 9.00002C14.25 8.5858 14.5858 8.25001 15 8.25ZM6 11.25C6.41421 11.25 6.75 11.5858 6.75 12C6.75 13.8254 7.68096 15.4336 9.09746 16.3755C9.44239 16.6048 9.53609 17.0703 9.30676 17.4153C9.07742 17.7602 8.61188 17.8539 8.26695 17.6245C6.45006 16.4165 5.25 14.3486 5.25 12C5.25 11.5858 5.58579 11.25 6 11.25ZM18 11.25C18.4142 11.25 18.75 11.5858 18.75 12C18.75 12.3825 18.7181 12.758 18.6567 13.1241C18.5882 13.5326 18.2015 13.8082 17.793 13.7397C17.3845 13.6711 17.1089 13.2844 17.1774 12.8759C17.2251 12.5915 17.25 12.299 17.25 12C17.25 11.5858 17.5858 11.25 18 11.25ZM13.7397 17.7929C13.8082 18.2015 13.5326 18.5882 13.1241 18.6567C13.0004 18.6774 12.8757 18.6948 12.75 18.7087V20.25H15C15.4142 20.25 15.75 20.5858 15.75 21C15.75 21.4142 15.4142 21.75 15 21.75H9C8.58579 21.75 8.25 21.4142 8.25 21C8.25 20.5858 8.58579 20.25 9 20.25H11.25V18C11.25 17.5858 11.5858 17.25 12 17.25C12.299 17.25 12.5915 17.2251 12.8759 17.1774C13.2844 17.1088 13.6711 17.3844 13.7397 17.7929Z" fill="black"/>
</svg>
