<svg width="24" height="24" viewBox="0 0 24 24" fill="none" xmlns="http://www.w3.org/2000/svg">
<path fill-rule="evenodd" clip-rule="evenodd" d="M7 11.25L12 11.25C12.4142 11.25 12.75 11.5858 12.75 12C12.75 12.4142 12.4142 12.75 12 12.75L7 12.75C6.58579 12.75 6.25 12.4142 6.25 12C6.25 11.5858 6.58579 11.25 7 11.25ZM14.5 11.25L17 11.25C17.4142 11.25 17.75 11.5858 17.75 12C17.75 12.4142 17.4142 12.75 17 12.75L14.5 12.75C14.0858 12.75 13.75 12.4142 13.75 12C13.75 11.5858 14.0858 11.25 14.5 11.25Z" fill="black"/>
</svg>
