<svg width="24" height="24" viewBox="0 0 24 24" fill="none" xmlns="http://www.w3.org/2000/svg">
<path fill-rule="evenodd" clip-rule="evenodd" d="M1.25 7C1.25 6.0335 2.0335 5.25 3 5.25H13C13.4142 5.25 13.75 5.58579 13.75 6C13.75 6.41421 13.4142 6.75 13 6.75H3C2.86193 6.75 2.75 6.86193 2.75 7V17C2.75 17.1381 2.86193 17.25 3 17.25H6C6.41421 17.25 6.75 17.5858 6.75 18C6.75 18.4142 6.41421 18.75 6 18.75H3C2.0335 18.75 1.25 17.9665 1.25 17V7ZM17.25 6C17.25 5.58579 17.5858 5.25 18 5.25H21C21.9665 5.25 22.75 6.0335 22.75 7V17C22.75 17.9665 21.9665 18.75 21 18.75H10C9.58579 18.75 9.25 18.4142 9.25 18C9.25 17.5858 9.58579 17.25 10 17.25H21C21.1381 17.25 21.25 17.1381 21.25 17V7C21.25 6.86193 21.1381 6.75 21 6.75H18C17.5858 6.75 17.25 6.41421 17.25 6ZM6 8.75C6.41421 8.75 6.75 9.08579 6.75 9.5V14.5C6.75 14.9142 6.41421 15.25 6 15.25C5.58579 15.25 5.25 14.9142 5.25 14.5V9.5C5.25 9.08579 5.58579 8.75 6 8.75ZM12 10.25C11.0335 10.25 10.25 11.0335 10.25 12C10.25 12.9665 11.0335 13.75 12 13.75C12.9665 13.75 13.75 12.9665 13.75 12C13.75 11.0335 12.9665 10.25 12 10.25ZM8.75 12C8.75 10.2051 10.2051 8.75 12 8.75C13.7949 8.75 15.25 10.2051 15.25 12C15.25 13.7949 13.7949 15.25 12 15.25C10.2051 15.25 8.75 13.7949 8.75 12ZM18 8.75C18.4142 8.75 18.75 9.08579 18.75 9.5V14.5C18.75 14.9142 18.4142 15.25 18 15.25C17.5858 15.25 17.25 14.9142 17.25 14.5V9.5C17.25 9.08579 17.5858 8.75 18 8.75Z" fill="black"/>
</svg>
