<svg width="24" height="24" viewBox="0 0 24 24" fill="none" xmlns="http://www.w3.org/2000/svg">
<path fill-rule="evenodd" clip-rule="evenodd" d="M10.3119 2.70166C10.4336 2.42087 10.7138 2.24222 11.0197 2.25026C16.4073 2.39187 20.75 6.68572 20.75 12C20.75 12.4142 20.4142 12.75 20 12.75C19.5858 12.75 19.25 12.4142 19.25 12C19.25 8.12072 16.4876 4.84328 12.7348 3.97295C14.6008 6.90245 14.3371 10.4049 12.7631 13.1399C11.1971 15.8611 8.29336 17.8987 4.80779 17.9272C6.4034 19.362 8.66009 20.25 11 20.25C13.6539 20.25 15.932 19.0764 17.4174 17.244C17.6782 16.9222 18.1505 16.8728 18.4723 17.1336C18.7941 17.3945 18.8435 17.8668 18.5826 18.1885C16.817 20.3667 14.1134 21.75 11 21.75C7.54799 21.75 4.193 20.0791 2.38048 17.4227C2.20842 17.1706 2.20636 16.8393 2.37528 16.585C2.54419 16.3307 2.85037 16.2042 3.14951 16.2651C6.76047 16.9996 9.88152 15.1399 11.463 12.3917C13.0422 9.64764 13.0298 6.12418 10.4662 3.52685C10.2512 3.30903 10.1902 2.98244 10.3119 2.70166Z" fill="black"/>
</svg>
