<svg width="24" height="24" viewBox="0 0 24 24" fill="none" xmlns="http://www.w3.org/2000/svg">
<path fill-rule="evenodd" clip-rule="evenodd" d="M12 2.25C12.3039 2.25 12.5778 2.43341 12.6935 2.71444L19.6935 19.7144C19.8096 19.9962 19.7436 20.3202 19.5266 20.5341C19.3095 20.748 18.9847 20.8094 18.7046 20.6894L11.7046 17.6894C11.3239 17.5262 11.1475 17.0853 11.3107 16.7046C11.4738 16.3238 11.9147 16.1475 12.2955 16.3106L17.6071 18.5871L12 4.9698L6.39291 18.5871L8.20458 17.8106C8.58531 17.6475 9.02622 17.8238 9.18938 18.2046C9.35255 18.5853 9.17618 19.0262 8.79546 19.1894L5.29546 20.6894C5.01538 20.8094 4.6905 20.748 4.47349 20.5341C4.25649 20.3202 4.19049 19.9962 4.30651 19.7144L11.3065 2.71444C11.4222 2.43341 11.6961 2.25 12 2.25Z" fill="black"/>
</svg>
