<svg width="24" height="24" viewBox="0 0 24 24" fill="none" xmlns="http://www.w3.org/2000/svg">
<path fill-rule="evenodd" clip-rule="evenodd" d="M20.2869 3.30708C20.5672 3.42316 20.7499 3.69663 20.7499 3.99998L20.75 9.99999C20.75 10.4142 20.4143 10.75 20 10.75C19.5858 10.75 19.25 10.4142 19.25 10L19.25 5.81062L10.5303 14.5303C10.2374 14.8232 9.7625 14.8232 9.46961 14.5303C9.17672 14.2374 9.17672 13.7626 9.46961 13.4697L19.4696 3.46966C19.6841 3.25516 20.0067 3.191 20.2869 3.30708ZM14 3.25009L17 3.24999C17.4142 3.24998 17.75 3.58576 17.75 3.99997C17.75 4.41419 17.4142 4.74998 17 4.74999L14 4.75009C13.5858 4.7501 13.25 4.41432 13.25 4.00011C13.25 3.5859 13.5858 3.2501 14 3.25009ZM3.25 4.00001C3.25 3.5858 3.58579 3.25001 4 3.25001H10C10.4142 3.25001 10.75 3.5858 10.75 4.00001C10.75 4.41422 10.4142 4.75001 10 4.75001H4.75V19.25L7 19.25C7.41421 19.25 7.75 19.5858 7.75 20C7.75 20.4142 7.41422 20.75 7 20.75L4 20.75C3.80109 20.75 3.61032 20.671 3.46967 20.5303C3.32902 20.3897 3.25 20.1989 3.25 20V4.00001ZM20 13.25C20.4142 13.25 20.75 13.5858 20.75 14V20C20.75 20.1989 20.671 20.3897 20.5303 20.5303C20.3897 20.671 20.1989 20.75 20 20.75L12 20.75C11.5858 20.75 11.25 20.4142 11.25 20C11.25 19.5858 11.5858 19.25 12 19.25L19.25 19.25V14C19.25 13.5858 19.5858 13.25 20 13.25Z" fill="black"/>
</svg>
