<svg width="24" height="24" viewBox="0 0 24 24" fill="none" xmlns="http://www.w3.org/2000/svg">
<path fill-rule="evenodd" clip-rule="evenodd" d="M4.63048 5.34735C4.86561 5.21422 5.15417 5.21786 5.38587 5.35688L15.3859 11.3569C15.6118 11.4924 15.75 11.7366 15.75 12C15.75 12.2634 15.6118 12.5076 15.3859 12.6431L8.7192 16.6431C8.36402 16.8562 7.90332 16.7411 7.69021 16.3859C7.4771 16.0307 7.59228 15.57 7.94746 15.3569L13.5423 12L5.75 7.32464V18C5.75 18.4142 5.41421 18.75 5 18.75C4.58579 18.75 4.25 18.4142 4.25 18V6C4.25 5.7298 4.39534 5.48048 4.63048 5.34735ZM19 5.25C19.4142 5.25 19.75 5.58579 19.75 6V18C19.75 18.4142 19.4142 18.75 19 18.75C18.5858 18.75 18.25 18.4142 18.25 18V6C18.25 5.58579 18.5858 5.25 19 5.25Z" fill="black"/>
</svg>
