<svg width="24" height="24" viewBox="0 0 24 24" fill="none" xmlns="http://www.w3.org/2000/svg">
<path fill-rule="evenodd" clip-rule="evenodd" d="M3.25 5C3.25 4.0335 4.0335 3.25 5 3.25H7C7.41421 3.25 7.75 3.58579 7.75 4C7.75 4.41421 7.41421 4.75 7 4.75H5C4.86193 4.75 4.75 4.86193 4.75 5V8C4.75 8.13807 4.86193 8.25 5 8.25H19C19.1381 8.25 19.25 8.13807 19.25 8V5C19.25 4.86193 19.1381 4.75 19 4.75H12C11.5858 4.75 11.25 4.41421 11.25 4C11.25 3.58579 11.5858 3.25 12 3.25H19C19.9665 3.25 20.75 4.0335 20.75 5V8C20.75 8.9665 19.9665 9.75 19 9.75H5.75V19.25H18.25V13C18.25 12.5858 18.5858 12.25 19 12.25C19.4142 12.25 19.75 12.5858 19.75 13V20C19.75 20.4142 19.4142 20.75 19 20.75H5C4.58579 20.75 4.25 20.4142 4.25 20V9.58159C3.65876 9.30073 3.25 8.6981 3.25 8V5ZM9.25 13C9.25 12.5858 9.58579 12.25 10 12.25H14C14.4142 12.25 14.75 12.5858 14.75 13C14.75 13.4142 14.4142 13.75 14 13.75H10C9.58579 13.75 9.25 13.4142 9.25 13Z" fill="black"/>
</svg>
