<svg width="24" height="24" viewBox="0 0 24 24" fill="none" xmlns="http://www.w3.org/2000/svg">
<path fill-rule="evenodd" clip-rule="evenodd" d="M9 5.25C9.41421 5.25 9.75 5.58579 9.75 6V18C9.75 18.4142 9.41421 18.75 9 18.75C8.58579 18.75 8.25 18.4142 8.25 18V6C8.25 5.58579 8.58579 5.25 9 5.25ZM15 5.25C15.4142 5.25 15.75 5.58579 15.75 6V12C15.75 12.4142 15.4142 12.75 15 12.75C14.5858 12.75 14.25 12.4142 14.25 12V6C14.25 5.58579 14.5858 5.25 15 5.25ZM15 15.25C15.4142 15.25 15.75 15.5858 15.75 16V18C15.75 18.4142 15.4142 18.75 15 18.75C14.5858 18.75 14.25 18.4142 14.25 18V16C14.25 15.5858 14.5858 15.25 15 15.25Z" fill="black"/>
</svg>
