<svg width="24" height="24" viewBox="0 0 24 24" fill="none" xmlns="http://www.w3.org/2000/svg">
<path fill-rule="evenodd" clip-rule="evenodd" d="M17.5253 9.67713C12.6916 7.37488 6.82938 8.23347 2.74111 12.3281C2.72508 12.3442 2.70833 12.3595 2.69091 12.374C2.3349 12.6711 2.31376 13.255 2.63679 13.5754L2.63896 13.5776L4.29493 15.2336L4.30794 15.2469C4.44481 15.3908 4.63002 15.4793 4.82857 15.4956C4.94614 15.5052 5.16193 15.4763 5.47294 15.3669C5.77101 15.262 6.10304 15.1022 6.43096 14.9096C7.11863 14.5056 7.64585 14.0427 7.81415 13.7834C7.90977 13.6361 7.96471 13.4179 7.97494 13.0768C7.97993 12.9105 7.97415 12.7358 7.96579 12.5426C7.96465 12.5163 7.96345 12.4895 7.96223 12.4621C7.95491 12.2982 7.94684 12.1175 7.94701 11.9458C7.94742 11.5315 8.28354 11.1961 8.69775 11.1965C9.11197 11.1969 9.44742 11.533 9.44701 11.9472C9.44688 12.0819 9.45316 12.2237 9.46052 12.3897C9.46178 12.4183 9.46308 12.4476 9.46439 12.4777C9.47285 12.6733 9.48105 12.8959 9.47427 13.1218C9.46096 13.5654 9.38939 14.1116 9.07238 14.6C8.71135 15.1563 7.93933 15.7631 7.19078 16.2029C6.80058 16.4321 6.38025 16.6378 5.97083 16.7818C5.57435 16.9214 5.12752 17.025 4.70645 16.9906C4.1444 16.9447 3.6187 16.6949 3.22832 16.2883L1.58046 14.6404C1.58005 14.64 1.57965 14.6396 1.57925 14.6392C0.64101 13.7072 0.691744 12.1173 1.7016 11.2463C6.24232 6.71649 12.777 5.75413 18.1703 8.32289C18.5443 8.501 18.703 8.94855 18.5249 9.32251C18.3468 9.69647 17.8993 9.85524 17.5253 9.67713ZM12.2523 11.4752C12.2846 11.0623 12.6455 10.7537 13.0585 10.786C13.8894 10.851 14.7155 10.9946 15.5257 11.2166C15.8518 11.306 16.0778 11.6026 16.0775 11.9407C16.0773 12.1124 16.0689 12.2932 16.0612 12.4571C16.0599 12.4844 16.0587 12.5113 16.0575 12.5375C16.0488 12.7308 16.0426 12.9055 16.0473 13.0718C16.0569 13.413 16.1114 13.6306 16.2062 13.7769C16.3731 14.0345 16.8965 14.4941 17.5809 14.8961C17.9072 15.0877 18.2377 15.2468 18.5348 15.3516C18.8446 15.4609 19.0608 15.4906 19.1797 15.4816C19.3765 15.4666 19.5616 15.3805 19.7002 15.2391L19.7054 15.2338L21.3642 13.5751C21.3642 13.575 21.3641 13.5752 21.3642 13.5751C21.6878 13.2506 21.6629 12.6696 21.3119 12.3769C20.9938 12.1116 20.951 11.6387 21.2163 11.3206C21.4816 11.0025 21.9545 10.9597 22.2726 11.2249C23.3081 12.0884 23.3652 13.6936 22.4258 14.6347L20.7683 16.2922C20.3758 16.6912 19.8519 16.9347 19.2937 16.9772C18.8749 17.0092 18.4307 16.9055 18.0358 16.7662C17.6281 16.6223 17.2097 16.4176 16.8213 16.1895C16.0763 15.7519 15.3073 15.1481 14.9473 14.5925C14.6307 14.1038 14.5603 13.5572 14.5479 13.1138C14.5421 12.9077 14.5488 12.7043 14.5567 12.5217C14.0233 12.4039 13.4835 12.3239 12.9415 12.2815C12.5285 12.2492 12.22 11.8882 12.2523 11.4752Z" fill="black"/>
</svg>
