<svg width="24" height="24" viewBox="0 0 24 24" fill="none" xmlns="http://www.w3.org/2000/svg">
<path fill-rule="evenodd" clip-rule="evenodd" d="M15.6358 3.3444C15.9285 3.18178 16.2935 3.23291 16.5303 3.46969L20.5303 7.46969C20.7671 7.70647 20.8182 8.07153 20.6556 8.36425L19.6556 10.1642C19.4545 10.5263 18.9979 10.6568 18.6358 10.4556C18.2737 10.2545 18.1432 9.79787 18.3444 9.43578L19.0696 8.13032L15.8697 4.93038L8.2334 9.17276L11.5245 12.4639C11.5265 12.4658 11.5284 12.4677 11.5303 12.4696C11.5323 12.4716 11.5342 12.4735 11.5361 12.4755L14.8272 15.7666L16.3444 13.0358C16.5455 12.6737 17.0021 12.5432 17.3642 12.7444C17.7263 12.9456 17.8568 13.4022 17.6556 13.7642L15.6556 17.3642C15.5413 17.57 15.3371 17.7101 15.104 17.7428C14.8709 17.7754 14.6361 17.6968 14.4697 17.5303L11 14.0606L4.53033 20.5303C4.23744 20.8232 3.76256 20.8232 3.46967 20.5303C3.17678 20.2374 3.17678 19.7625 3.46967 19.4696L9.93931 13L6.46967 9.53035C6.30326 9.36394 6.22461 9.12906 6.25725 8.89599C6.28989 8.66293 6.43004 8.45869 6.63577 8.3444L15.6358 3.3444Z" fill="black"/>
</svg>
