<svg width="24" height="24" viewBox="0 0 24 24" fill="none" xmlns="http://www.w3.org/2000/svg">
<path fill-rule="evenodd" clip-rule="evenodd" d="M12 3.75C9.65279 3.75 7.75 5.65279 7.75 8C7.75 10.3472 9.65279 12.25 12 12.25C14.3472 12.25 16.25 10.3472 16.25 8C16.25 5.65279 14.3472 3.75 12 3.75ZM6.25 8C6.25 4.82436 8.82436 2.25 12 2.25C15.1756 2.25 17.75 4.82436 17.75 8C17.75 11.1756 15.1756 13.75 12 13.75C8.82436 13.75 6.25 11.1756 6.25 8ZM12 15.25C12.4142 15.25 12.75 15.5858 12.75 16V21C12.75 21.4142 12.4142 21.75 12 21.75C11.5858 21.75 11.25 21.4142 11.25 21V16C11.25 15.5858 11.5858 15.25 12 15.25Z" fill="black"/>
</svg>
