<svg width="24" height="24" viewBox="0 0 24 24" fill="none" xmlns="http://www.w3.org/2000/svg">
<path fill-rule="evenodd" clip-rule="evenodd" d="M8.25 3C8.25 2.58579 8.58579 2.25 9 2.25H15C15.4142 2.25 15.75 2.58579 15.75 3V3.75H19C19.4142 3.75 19.75 4.08579 19.75 4.5V8C19.75 8.41421 19.4142 8.75 19 8.75C18.5858 8.75 18.25 8.41421 18.25 8V5.25H15.75V6C15.75 6.41421 15.4142 6.75 15 6.75H9C8.58579 6.75 8.25 6.41421 8.25 6V5.25H5.75V14C5.75 14.4142 5.41421 14.75 5 14.75C4.58579 14.75 4.25 14.4142 4.25 14V4.5C4.25 4.08579 4.58579 3.75 5 3.75H8.25V3ZM9.75 5.25H14.25V3.75H9.75V5.25ZM15.5303 11.4697C15.8232 11.7626 15.8232 12.2374 15.5303 12.5303L11.3303 16.7304C11.1896 16.871 10.9989 16.95 10.7999 16.95C10.601 16.95 10.4103 16.871 10.2696 16.7304L8.46969 14.9303C8.1768 14.6374 8.17681 14.1626 8.46971 13.8697C8.76261 13.5768 9.23749 13.5768 9.53037 13.8697L10.8 15.1394L14.4697 11.4697C14.7626 11.1768 15.2374 11.1768 15.5303 11.4697ZM19 12.25C19.4142 12.25 19.75 12.5858 19.75 13V21C19.75 21.4142 19.4142 21.75 19 21.75H5C4.58579 21.75 4.25 21.4142 4.25 21V18C4.25 17.5858 4.58579 17.25 5 17.25C5.41421 17.25 5.75 17.5858 5.75 18V20.25H18.25V13C18.25 12.5858 18.5858 12.25 19 12.25Z" fill="black"/>
</svg>
