<svg width="24" height="24" viewBox="0 0 24 24" fill="none" xmlns="http://www.w3.org/2000/svg">
<path fill-rule="evenodd" clip-rule="evenodd" d="M7.46973 2.46967C7.76263 2.17678 8.2375 2.17678 8.53039 2.46967L10.5304 4.46967C10.8233 4.76256 10.8233 5.23744 10.5304 5.53033C10.2375 5.82322 9.76262 5.82322 9.46973 5.53033L8.00006 4.06066L4.06066 8L5.53033 9.46967C5.82322 9.76256 5.82322 10.2374 5.53033 10.5303C5.23744 10.8232 4.76256 10.8232 4.46967 10.5303L2.46967 8.53033C2.32902 8.38968 2.25 8.19891 2.25 8C2.25 7.80108 2.32902 7.61032 2.46967 7.46967L7.46973 2.46967ZM15.4697 2.46967C15.7626 2.17678 16.2374 2.17678 16.5303 2.46967L21.5303 7.46967C21.8232 7.76256 21.8232 8.23744 21.5303 8.53033L20.5303 9.53033C20.2374 9.82322 19.7626 9.82322 19.4697 9.53033C19.1768 9.23744 19.1768 8.76256 19.4697 8.46967L19.9393 8L16 4.06066L13.0607 7L17 10.9393L17.4697 10.4697C17.7626 10.1768 18.2374 10.1768 18.5303 10.4697C18.8232 10.7626 18.8232 11.2374 18.5303 11.5303L8.53033 21.5303C8.23744 21.8232 7.76256 21.8232 7.46967 21.5303L2.46967 16.5303C2.17678 16.2374 2.17678 15.7626 2.46967 15.4697L3.46967 14.4697C3.76256 14.1768 4.23744 14.1768 4.53033 14.4697C4.82322 14.7626 4.82322 15.2374 4.53033 15.5303L4.06066 16L8 19.9393L10.9393 17L7 13.0607L6.53033 13.5303C6.23744 13.8232 5.76256 13.8232 5.46967 13.5303C5.17678 13.2374 5.17678 12.7626 5.46967 12.4697L15.4697 2.46967ZM8.06066 12L12 15.9393L15.9393 12L12 8.06066L8.06066 12ZM18.4697 13.4697C18.7626 13.1768 19.2374 13.1768 19.5303 13.4697L21.5303 15.4697C21.8232 15.7626 21.8232 16.2374 21.5303 16.5303L16.5303 21.5303C16.2374 21.8232 15.7626 21.8232 15.4697 21.5303L13.4697 19.5303C13.1768 19.2374 13.1768 18.7626 13.4697 18.4697C13.7626 18.1768 14.2374 18.1768 14.5303 18.4697L16 19.9393L19.9393 16L18.4697 14.5303C18.1768 14.2374 18.1768 13.7626 18.4697 13.4697Z" fill="black"/>
</svg>
