<svg width="24" height="24" viewBox="0 0 24 24" fill="none" xmlns="http://www.w3.org/2000/svg">
<path fill-rule="evenodd" clip-rule="evenodd" d="M7.63048 5.34735C7.86561 5.21422 8.15417 5.21786 8.38587 5.35688L18.3859 11.3569C18.6118 11.4924 18.75 11.7366 18.75 12C18.75 12.2634 18.6118 12.5076 18.3859 12.6431L11.7192 16.6431C11.364 16.8562 10.9033 16.7411 10.6902 16.3859C10.4771 16.0307 10.5923 15.57 10.9475 15.3569L16.5423 12L8.75 7.32464V18C8.75 18.4142 8.41421 18.75 8 18.75C7.58579 18.75 7.25 18.4142 7.25 18V6C7.25 5.7298 7.39534 5.48048 7.63048 5.34735Z" fill="black"/>
</svg>
