<svg width="24" height="24" viewBox="0 0 24 24" fill="none" xmlns="http://www.w3.org/2000/svg">
<path fill-rule="evenodd" clip-rule="evenodd" d="M12 3.25C12.4142 3.25 12.75 3.58579 12.75 4V12C12.75 12.4142 12.4142 12.75 12 12.75C11.5858 12.75 11.25 12.4142 11.25 12V4C11.25 3.58579 11.5858 3.25 12 3.25ZM8.61514 7.82561C8.85211 8.16534 8.76881 8.63285 8.42907 8.86982C6.80806 10.0005 5.75 11.8768 5.75 14C5.75 14.4142 5.41421 14.75 5 14.75C4.58579 14.75 4.25 14.4142 4.25 14C4.25 11.3657 5.56497 9.03874 7.57093 7.63955C7.91066 7.40257 8.37817 7.48588 8.61514 7.82561ZM15.3849 7.82563C15.6218 7.48589 16.0893 7.40259 16.4291 7.63956C18.435 9.03876 19.75 11.3658 19.75 14C19.75 18.2802 16.2802 21.75 12 21.75C9.8886 21.75 7.97313 20.9047 6.57609 19.5357C6.28024 19.2458 6.27542 18.7709 6.56533 18.4751C6.85524 18.1792 7.33009 18.1744 7.62594 18.4643C8.75397 19.5697 10.2968 20.25 12 20.25C15.4518 20.25 18.25 17.4518 18.25 14C18.25 11.8768 17.1919 10.0005 15.5709 8.86984C15.2312 8.63287 15.1479 8.16536 15.3849 7.82563Z" fill="black"/>
</svg>
