<svg width="24" height="24" viewBox="0 0 24 24" fill="none" xmlns="http://www.w3.org/2000/svg">
<path fill-rule="evenodd" clip-rule="evenodd" d="M19.3695 5.34735C19.6047 5.48048 19.75 5.7298 19.75 6V18C19.75 18.4142 19.4142 18.75 19 18.75C18.5858 18.75 18.25 18.4142 18.25 18V7.32464L10.4577 12L16.0525 15.3569C16.4077 15.57 16.5229 16.0307 16.3098 16.3859C16.0967 16.7411 15.636 16.8562 15.2808 16.6431L8.61413 12.6431C8.38822 12.5076 8.25 12.2634 8.25 12C8.25 11.7366 8.38822 11.4924 8.61413 11.3569L18.6141 5.35688C18.8458 5.21786 19.1344 5.21422 19.3695 5.34735ZM5 5.25C5.41421 5.25 5.75 5.58579 5.75 6L5.75 18C5.75 18.4142 5.41421 18.75 5 18.75C4.58579 18.75 4.25 18.4142 4.25 18L4.25 6C4.25 5.58579 4.58579 5.25 5 5.25Z" fill="black"/>
</svg>
