<svg width="24" height="24" viewBox="0 0 24 24" fill="none" xmlns="http://www.w3.org/2000/svg">
<path fill-rule="evenodd" clip-rule="evenodd" d="M12 7.75C10.9698 7.75 10.1272 8.3931 9.84959 9.2349C9.71986 9.62827 9.2958 9.842 8.90242 9.71227C8.50905 9.58254 8.29532 9.15848 8.42505 8.7651C8.912 7.28855 10.3436 6.25 12 6.25C12.4327 6.25 12.8501 6.32077 13.2394 6.45182C13.632 6.58399 13.8431 7.00936 13.7109 7.40193C13.5787 7.79449 13.1534 8.00558 12.7608 7.87342C12.5244 7.79384 12.2686 7.75 12 7.75ZM14.6276 8.28773C15.021 8.158 15.4451 8.37173 15.5748 8.7651C15.6886 9.11024 15.7499 9.47741 15.7499 9.85714C15.7499 10.6574 15.5009 11.2526 15.1054 11.7235C14.7917 12.0969 14.3863 12.3821 14.0668 12.607C14.0212 12.6391 13.9774 12.6699 13.9358 12.6996C13.5695 12.9613 13.2934 13.1847 13.0937 13.4859C12.9049 13.7705 12.7499 14.1797 12.7499 14.8571C12.7499 15.2714 12.4141 15.6071 11.9999 15.6071C11.5857 15.6071 11.2499 15.2714 11.2499 14.8571C11.2499 13.9275 11.4698 13.2206 11.8436 12.6569C12.2063 12.11 12.6803 11.753 13.0639 11.479C13.1143 11.443 13.1625 11.4088 13.2087 11.376C13.5455 11.1369 13.7774 10.9723 13.9568 10.7587C14.1238 10.5599 14.2499 10.3069 14.2499 9.85714C14.2499 9.63961 14.2149 9.43092 14.1503 9.2349C14.0205 8.84152 14.2343 8.41746 14.6276 8.28773ZM12 16.2429C12.4142 16.2429 12.75 16.5786 12.75 16.9929V17C12.75 17.4142 12.4142 17.75 12 17.75C11.5858 17.75 11.25 17.4142 11.25 17V16.9929C11.25 16.5786 11.5858 16.2429 12 16.2429Z" fill="black"/>
</svg>
