<svg width="24" height="24" viewBox="0 0 24 24" fill="none" xmlns="http://www.w3.org/2000/svg">
<path fill-rule="evenodd" clip-rule="evenodd" d="M12 5.75C10.4866 5.75 9.21313 6.78504 8.8523 8.18694C8.74906 8.58808 8.34017 8.82957 7.93903 8.72633C7.53789 8.62308 7.2964 8.2142 7.39965 7.81306C7.92691 5.76451 9.78562 4.25 12 4.25C12.8639 4.25 13.6761 4.48134 14.3756 4.88595C14.7341 5.09336 14.8566 5.55216 14.6492 5.9107C14.4418 6.26925 13.983 6.39176 13.6244 6.18435C13.1472 5.90826 12.5932 5.75 12 5.75ZM15.687 7.27367C16.0881 7.17043 16.497 7.41192 16.6003 7.81306C16.6981 8.19323 16.75 8.59111 16.75 9C16.75 10.0405 16.445 10.8005 15.9606 11.406C15.5669 11.8981 15.0574 12.275 14.6286 12.5923C14.5672 12.6377 14.5075 12.6819 14.45 12.725C13.96 13.0925 13.5561 13.4303 13.2591 13.9005C12.9711 14.3565 12.75 14.9941 12.75 16C12.75 16.4142 12.4142 16.75 12 16.75C11.5858 16.75 11.25 16.4142 11.25 16C11.25 14.7559 11.5289 13.831 11.9909 13.0995C12.4439 12.3822 13.0399 11.9075 13.55 11.525C13.6165 11.4751 13.6809 11.4272 13.7432 11.3808C14.1873 11.0501 14.5263 10.7978 14.7893 10.469C15.0549 10.137 15.25 9.70955 15.25 9C15.25 8.71829 15.2143 8.44601 15.1476 8.18694C15.0444 7.7858 15.2859 7.37692 15.687 7.27367ZM12 18.24C12.4142 18.24 12.75 18.5758 12.75 18.99V19C12.75 19.4142 12.4142 19.75 12 19.75C11.5858 19.75 11.25 19.4142 11.25 19V18.99C11.25 18.5758 11.5858 18.24 12 18.24Z" fill="black"/>
</svg>
