<svg width="24" height="24" viewBox="0 0 24 24" fill="none" xmlns="http://www.w3.org/2000/svg">
<path fill-rule="evenodd" clip-rule="evenodd" d="M12 3.75C7.44365 3.75 3.75 7.44365 3.75 12C3.75 16.5563 7.44365 20.25 12 20.25C16.5563 20.25 20.25 16.5563 20.25 12C20.25 7.44365 16.5563 3.75 12 3.75ZM2.25 12C2.25 6.61522 6.61522 2.25 12 2.25C17.3848 2.25 21.75 6.61522 21.75 12C21.75 17.3848 17.3848 21.75 12 21.75C6.61522 21.75 2.25 17.3848 2.25 12ZM11.9999 7.75C10.9697 7.75 10.1271 8.3931 9.84947 9.2349C9.71974 9.62827 9.29569 9.842 8.90231 9.71227C8.50894 9.58254 8.29521 9.15848 8.42494 8.7651C8.91189 7.28855 10.3435 6.25 11.9999 6.25C12.4326 6.25 12.85 6.32077 13.2393 6.45182C13.6319 6.58399 13.843 7.00936 13.7108 7.40193C13.5786 7.79449 13.1533 8.00558 12.7607 7.87342C12.5243 7.79384 12.2685 7.75 11.9999 7.75ZM14.6275 8.28773C15.0209 8.158 15.445 8.37173 15.5747 8.7651C15.6885 9.11024 15.7498 9.47741 15.7498 9.85714C15.7498 10.6574 15.5008 11.2526 15.1053 11.7235C14.7916 12.0969 14.3862 12.3821 14.0666 12.607C14.0211 12.6391 13.9773 12.6699 13.9357 12.6996C13.5693 12.9613 13.2933 13.1847 13.0936 13.4859C12.9048 13.7705 12.7498 14.1797 12.7498 14.8571C12.7498 15.2714 12.414 15.6071 11.9998 15.6071C11.5855 15.6071 11.2498 15.2714 11.2498 14.8571C11.2498 13.9275 11.4697 13.2206 11.8435 12.6569C12.2062 12.11 12.6802 11.753 13.0638 11.479C13.1141 11.443 13.1624 11.4088 13.2086 11.376C13.5454 11.1369 13.7773 10.9723 13.9567 10.7587C14.1237 10.5599 14.2498 10.3069 14.2498 9.85714C14.2498 9.63961 14.2148 9.43092 14.1501 9.2349C14.0204 8.84152 14.2341 8.41746 14.6275 8.28773ZM12 16.2429C12.4142 16.2429 12.75 16.5786 12.75 16.9929V17C12.75 17.4142 12.4142 17.75 12 17.75C11.5858 17.75 11.25 17.4142 11.25 17V16.9929C11.25 16.5786 11.5858 16.2429 12 16.2429Z" fill="black"/>
</svg>
