<svg width="24" height="24" viewBox="0 0 24 24" fill="none" xmlns="http://www.w3.org/2000/svg">
<path fill-rule="evenodd" clip-rule="evenodd" d="M17 9.25C17.4142 9.25 17.75 9.58579 17.75 10V12.8124C17.75 12.8169 17.75 12.8214 17.75 12.8258V13C17.75 13.4142 17.4142 13.75 17 13.75H14C13.5858 13.75 13.25 13.4142 13.25 13C13.25 12.5858 13.5858 12.25 14 12.25H15.0745C14.0923 11.5066 13.1501 10.9417 11.9582 10.7938C10.8638 10.658 9.75268 10.8406 8.79535 11.3074C7.83855 11.774 7.09854 12.4928 6.66874 13.3395C6.48124 13.7088 6.02983 13.8563 5.66048 13.6688C5.29114 13.4813 5.14372 13.0299 5.33122 12.6605C5.92068 11.4993 6.91206 10.557 8.1379 9.95919C9.36321 9.36167 10.7677 9.13452 12.143 9.3052C13.8055 9.51153 15.1059 10.3651 16.25 11.2566V10C16.25 9.58579 16.5858 9.25 17 9.25Z" fill="black"/>
</svg>
