<svg width="24" height="24" viewBox="0 0 24 24" fill="none" xmlns="http://www.w3.org/2000/svg">
<path fill-rule="evenodd" clip-rule="evenodd" d="M6.00003 6.25C6.41424 6.25 6.75003 6.58579 6.75003 7V8.25662C7.89408 7.36505 9.19449 6.51153 10.8571 6.3052C12.2323 6.13452 13.6368 6.36167 14.8621 6.95919C16.088 7.55695 17.0793 8.49934 17.6688 9.66051C17.8563 10.0299 17.7089 10.4813 17.3395 10.6688C16.9702 10.8563 16.5188 10.7088 16.3313 10.3395C15.9015 9.49285 15.1615 8.774 14.2047 8.30743C13.2473 7.8406 12.1362 7.65795 11.0418 7.79378C9.84996 7.94169 8.90769 8.50656 7.92555 9.25H9.00003C9.41424 9.25 9.75003 9.58579 9.75003 10C9.75003 10.4142 9.41424 10.75 9.00003 10.75H6.00003C5.58582 10.75 5.25003 10.4142 5.25003 10V9.82584C5.24999 9.82135 5.24999 9.81686 5.25003 9.81237V7C5.25003 6.58579 5.58582 6.25 6.00003 6.25ZM6.66054 13.3312C7.02988 13.1437 7.48129 13.2912 7.66879 13.6605C8.09859 14.5072 8.8386 15.226 9.7954 15.6926C10.7527 16.1594 11.8639 16.342 12.9583 16.2062C14.1501 16.0583 15.0924 15.4934 16.0745 14.75H15C14.5858 14.75 14.25 14.4142 14.25 14C14.25 13.5858 14.5858 13.25 15 13.25H18C18.4142 13.25 18.75 13.5858 18.75 14V14.1742C18.7501 14.1786 18.7501 14.1831 18.75 14.1876V17C18.75 17.4142 18.4142 17.75 18 17.75C17.5858 17.75 17.25 17.4142 17.25 17V15.7434C16.106 16.6349 14.8056 17.4885 13.143 17.6948C11.7678 17.8655 10.3633 17.6383 9.13795 17.0408C7.91211 16.443 6.92073 15.5007 6.33127 14.3395C6.14377 13.9701 6.29119 13.5187 6.66054 13.3312Z" fill="black"/>
</svg>
