<svg width="24" height="24" viewBox="0 0 24 24" fill="none" xmlns="http://www.w3.org/2000/svg">
<path fill-rule="evenodd" clip-rule="evenodd" d="M12 3.75C7.44365 3.75 3.75 7.44365 3.75 12C3.75 16.5563 7.44365 20.25 12 20.25C16.5563 20.25 20.25 16.5563 20.25 12C20.25 7.44365 16.5563 3.75 12 3.75ZM2.25 12C2.25 6.61522 6.61522 2.25 12 2.25C17.3848 2.25 21.75 6.61522 21.75 12C21.75 17.3848 17.3848 21.75 12 21.75C6.61522 21.75 2.25 17.3848 2.25 12ZM7 7.25C7.41421 7.25 7.75 7.58579 7.75 8V8.7429L7.93727 8.60058C8.79113 7.88434 9.87955 7.43261 11.0358 7.29486C12.1991 7.15625 13.3887 7.34032 14.4291 7.82739C15.4698 8.31458 16.3207 9.0869 16.8297 10.0494C17.0233 10.4156 16.8834 10.8694 16.5173 11.063C16.1511 11.2566 15.6973 11.1168 15.5037 10.7506C15.1632 10.1068 14.5713 9.55018 13.7931 9.1859C13.0147 8.82149 12.1079 8.67773 11.2132 8.78432C10.3826 8.88329 9.62195 9.19076 9.02545 9.65H9.5C9.91421 9.65 10.25 9.98579 10.25 10.4C10.25 10.8142 9.91421 11.15 9.5 11.15H7C6.58579 11.15 6.25 10.8142 6.25 10.4V10.2633C6.24995 10.2581 6.24995 10.2528 6.25 10.2476V8C6.25 7.58579 6.58579 7.25 7 7.25ZM7.48272 12.937C7.84888 12.7434 8.30269 12.8832 8.49632 13.2494C8.83674 13.8932 9.42868 14.4498 10.2068 14.8141C10.9853 15.1785 11.8921 15.3223 12.7868 15.2157C13.6174 15.1167 14.378 14.8092 14.9745 14.35H14.5C14.0858 14.35 13.75 14.0142 13.75 13.6C13.75 13.1858 14.0858 12.85 14.5 12.85H17C17.4142 12.85 17.75 13.1858 17.75 13.6V13.7391C17.75 13.7427 17.75 13.7464 17.75 13.75V16C17.75 16.4142 17.4142 16.75 17 16.75C16.5858 16.75 16.25 16.4142 16.25 16V15.2571L16.0627 15.3994C15.2089 16.1157 14.1204 16.5674 12.9642 16.7051C11.8009 16.8438 10.6113 16.6597 9.57087 16.1726C8.53016 15.6854 7.67927 14.9131 7.1703 13.9506C6.97667 13.5844 7.11655 13.1306 7.48272 12.937Z" fill="black"/>
</svg>
