<svg width="24" height="24" viewBox="0 0 24 24" fill="none" xmlns="http://www.w3.org/2000/svg">
<path fill-rule="evenodd" clip-rule="evenodd" d="M10.5303 8.46967C10.8232 8.76256 10.8232 9.23744 10.5303 9.53033L9.03033 11.0303C8.73744 11.3232 8.26256 11.3232 7.96967 11.0303C7.67678 10.7374 7.67678 10.2626 7.96967 9.96967L9.46967 8.46967C9.76256 8.17678 10.2374 8.17678 10.5303 8.46967ZM13.4697 8.46967C13.7626 8.17678 14.2374 8.17678 14.5303 8.46967L17.5303 11.4697C17.8232 11.7626 17.8232 12.2374 17.5303 12.5303L14.5303 15.5303C14.2374 15.8232 13.7626 15.8232 13.4697 15.5303C13.1768 15.2374 13.1768 14.7626 13.4697 14.4697L15.9393 12L13.4697 9.53033C13.1768 9.23744 13.1768 8.76256 13.4697 8.46967ZM6.46967 11.4697C6.76256 11.1768 7.23744 11.1768 7.53033 11.4697L10.5303 14.4697C10.8232 14.7626 10.8232 15.2374 10.5303 15.5303C10.2374 15.8232 9.76256 15.8232 9.46967 15.5303L6.46967 12.5303C6.17678 12.2374 6.17678 11.7626 6.46967 11.4697Z" fill="black"/>
</svg>
