<svg width="24" height="24" viewBox="0 0 24 24" fill="none" xmlns="http://www.w3.org/2000/svg">
<path fill-rule="evenodd" clip-rule="evenodd" d="M12.3539 5.33875C12.5978 5.46926 12.75 5.7234 12.75 6L12.75 13.3754L18.25 16.6754V7.32464L15.8859 8.74312C15.5307 8.95623 15.07 8.84106 14.8569 8.48587C14.6438 8.13069 14.7589 7.66999 15.1141 7.45688L18.6141 5.35688C18.8458 5.21786 19.1344 5.21422 19.3695 5.34735C19.6047 5.48048 19.75 5.7298 19.75 6V18C19.75 18.2702 19.6047 18.5195 19.3695 18.6527C19.1344 18.7858 18.8458 18.7821 18.6141 18.6431L12.75 15.1246V18C12.75 18.2766 12.5978 18.5307 12.3539 18.6613C12.11 18.7918 11.8141 18.7775 11.584 18.624L8.58397 16.624C8.23933 16.3943 8.1462 15.9286 8.37596 15.584C8.60573 15.2393 9.07138 15.1462 9.41603 15.376L11.25 16.5986V13.8123C11.2498 13.8036 11.2498 13.795 11.25 13.7863L11.25 7.40139L4.35208 12L6.41603 13.376C6.76067 13.6057 6.8538 14.0714 6.62404 14.416C6.39427 14.7607 5.92862 14.8538 5.58397 14.624L2.58397 12.624C2.37533 12.4849 2.25 12.2508 2.25 12C2.25 11.7492 2.37533 11.5151 2.58397 11.376L11.584 5.37596C11.8141 5.22254 12.11 5.20823 12.3539 5.33875Z" fill="black"/>
</svg>
