<svg width="24" height="24" viewBox="0 0 24 24" fill="none" xmlns="http://www.w3.org/2000/svg">
<path fill-rule="evenodd" clip-rule="evenodd" d="M3 1.25C3.41421 1.25 3.75 1.58579 3.75 2V6.29374C5.64108 4.55447 7.74518 2.75248 10.6409 2.3451C12.7343 2.0506 14.8666 2.44435 16.7168 3.46704C18.5669 4.48973 20.0345 6.08596 20.8985 8.01523C21.7625 9.94449 21.976 12.1023 21.5069 14.1635C21.0378 16.2246 19.9115 18.0775 18.2978 19.443C16.684 20.8084 14.6701 21.6124 12.5596 21.7339C10.4491 21.8553 8.35632 21.2877 6.59653 20.1164C4.83673 18.9451 3.50528 17.2336 2.8028 15.2399C2.66515 14.8492 2.87027 14.4209 3.26094 14.2833C3.65161 14.1456 4.0799 14.3507 4.21755 14.7414C4.81195 16.4284 5.93856 17.8766 7.42764 18.8677C8.91672 19.8588 10.6876 20.3391 12.4734 20.2364C14.2593 20.1336 15.9634 19.4532 17.3289 18.2979C18.6944 17.1425 19.6474 15.5746 20.0443 13.8306C20.4412 12.0865 20.2605 10.2607 19.5295 8.6283C18.7984 6.99586 17.5566 5.64519 15.9911 4.77983C14.4256 3.91446 12.6212 3.58127 10.8499 3.83047C8.47867 4.16406 6.75817 5.58745 4.93368 7.25H9C9.41421 7.25 9.75 7.58579 9.75 8C9.75 8.41421 9.41421 8.75 9 8.75H3C2.58579 8.75 2.25 8.41421 2.25 8V2C2.25 1.58579 2.58579 1.25 3 1.25Z" fill="black"/>
</svg>
