<svg width="24" height="24" viewBox="0 0 24 24" fill="none" xmlns="http://www.w3.org/2000/svg">
<path fill-rule="evenodd" clip-rule="evenodd" d="M12 3.75C7.44365 3.75 3.75 7.44365 3.75 12C3.75 16.5563 7.44365 20.25 12 20.25C16.5563 20.25 20.25 16.5563 20.25 12C20.25 7.44365 16.5563 3.75 12 3.75ZM2.25 12C2.25 6.61522 6.61522 2.25 12 2.25C17.3848 2.25 21.75 6.61522 21.75 12C21.75 17.3848 17.3848 21.75 12 21.75C6.61522 21.75 2.25 17.3848 2.25 12ZM8 6.25C8.41421 6.25 8.75 6.58579 8.75 7V8.49706C8.89557 8.38968 9.04539 8.28287 9.19892 8.18035C9.79973 7.7791 10.4985 7.41442 11.3379 7.29633C12.3577 7.15286 13.3966 7.34468 14.2979 7.84291C15.1992 8.34114 15.9142 9.11879 16.3352 10.0587C16.7561 10.9986 16.8601 12.0498 16.6316 13.054C16.403 14.0582 15.8543 14.9609 15.0681 15.6261C14.2819 16.2913 13.3008 16.683 12.2727 16.7422C11.2445 16.8013 10.2249 16.5248 9.36758 15.9541C8.51024 15.3835 7.86159 14.5497 7.51935 13.5784C7.3817 13.1877 7.58682 12.7595 7.97749 12.6218C8.36816 12.4842 8.79645 12.6893 8.9341 13.0799C9.16826 13.7445 9.61207 14.315 10.1987 14.7054C10.7853 15.0959 11.4829 15.2851 12.1865 15.2446C12.89 15.2041 13.5613 14.9361 14.0993 14.481C14.6372 14.0258 15.0126 13.4082 15.169 12.7211C15.3253 12.0341 15.2542 11.3148 14.9662 10.6718C14.6782 10.0287 14.189 9.4966 13.5722 9.1557C12.9555 8.81479 12.2447 8.68353 11.5469 8.7817C11.1191 8.84188 10.7207 9.00726 10.3128 9.25H11C11.4142 9.25 11.75 9.58579 11.75 10C11.75 10.4142 11.4142 10.75 11 10.75H8C7.58579 10.75 7.25 10.4142 7.25 10V7C7.25 6.58579 7.58579 6.25 8 6.25Z" fill="black"/>
</svg>
