<svg width="24" height="24" viewBox="0 0 24 24" fill="none" xmlns="http://www.w3.org/2000/svg">
<path fill-rule="evenodd" clip-rule="evenodd" d="M6 4.75C5.30964 4.75 4.75 5.30964 4.75 6V8C4.75 8.41421 4.41421 8.75 4 8.75C3.58579 8.75 3.25 8.41421 3.25 8V6C3.25 4.48122 4.48122 3.25 6 3.25H14.1716C14.9009 3.25 15.6004 3.53973 16.1161 4.05546L19.9445 7.88388C20.4603 8.39961 20.75 9.09908 20.75 9.82843V12C20.75 12.4142 20.4142 12.75 20 12.75C19.5858 12.75 19.25 12.4142 19.25 12V9.82843C19.25 9.49691 19.1183 9.17896 18.8839 8.94454L15.0555 5.11612C14.821 4.8817 14.5031 4.75 14.1716 4.75H6ZM4 12.25C4.41421 12.25 4.75 12.5858 4.75 13V18C4.75 18.6904 5.30964 19.25 6 19.25H8.25V15C8.25 14.5858 8.58579 14.25 9 14.25H15C15.4142 14.25 15.75 14.5858 15.75 15V19.25H18C18.6904 19.25 19.25 18.6904 19.25 18V16C19.25 15.5858 19.5858 15.25 20 15.25C20.4142 15.25 20.75 15.5858 20.75 16V18C20.75 19.5188 19.5188 20.75 18 20.75H6C4.48122 20.75 3.25 19.5188 3.25 18V13C3.25 12.5858 3.58579 12.25 4 12.25ZM9.75 19.25H14.25V15.75H9.75V19.25Z" fill="black"/>
</svg>
