<svg width="24" height="24" viewBox="0 0 24 24" fill="none" xmlns="http://www.w3.org/2000/svg">
<path fill-rule="evenodd" clip-rule="evenodd" d="M3.25 6C3.25 5.0335 4.0335 4.25 5 4.25H19C19.9665 4.25 20.75 5.0335 20.75 6C20.75 6.41421 20.4142 6.75 20 6.75C19.5858 6.75 19.25 6.41421 19.25 6C19.25 5.86193 19.1381 5.75 19 5.75H5C4.86193 5.75 4.75 5.86193 4.75 6V15C4.75 15.1381 4.86193 15.25 5 15.25H19C19.1381 15.25 19.25 15.1381 19.25 15V10C19.25 9.58579 19.5858 9.25 20 9.25C20.4142 9.25 20.75 9.58579 20.75 10V15C20.75 15.9665 19.9665 16.75 19 16.75H12.75V19.25H16C16.4142 19.25 16.75 19.5858 16.75 20C16.75 20.4142 16.4142 20.75 16 20.75H8C7.58579 20.75 7.25 20.4142 7.25 20C7.25 19.5858 7.58579 19.25 8 19.25H11.25V16.75H5C4.0335 16.75 3.25 15.9665 3.25 15V6Z" fill="black"/>
</svg>
