<svg width="24" height="24" viewBox="0 0 24 24" fill="none" xmlns="http://www.w3.org/2000/svg">
<path fill-rule="evenodd" clip-rule="evenodd" d="M10.5 3.75C6.77208 3.75 3.75 6.77208 3.75 10.5C3.75 14.2279 6.77208 17.25 10.5 17.25C12.0858 17.25 13.2768 16.7539 14.0698 16.2637C14.4675 16.0178 14.7647 15.7735 14.959 15.5947C15.056 15.5054 15.1268 15.433 15.1711 15.3855C15.1933 15.3618 15.2088 15.3444 15.2175 15.3344L15.2257 15.325L15.2251 15.3257L15.2245 15.3264L15.2241 15.3269C15.3584 15.1636 15.5554 15.0646 15.7666 15.0542C15.978 15.0438 16.184 15.1233 16.3337 15.273L20.5304 19.4697C20.8233 19.7626 20.8233 20.2374 20.5304 20.5303C20.2375 20.8232 19.7626 20.8232 19.4697 20.5303L15.7962 16.8568C15.5571 17.0616 15.2444 17.3011 14.8586 17.5396C13.8749 18.1477 12.4142 18.75 10.5 18.75C5.94365 18.75 2.25 15.0563 2.25 10.5C2.25 5.94365 5.94365 2.25 10.5 2.25C15.0563 2.25 18.75 5.94365 18.75 10.5C18.75 11.0641 18.6933 11.6157 18.585 12.1492C18.5026 12.5551 18.1067 12.8174 17.7008 12.735C17.2948 12.6526 17.0326 12.2567 17.115 11.8508C17.2034 11.415 17.25 10.9633 17.25 10.5C17.25 6.77208 14.2279 3.75 10.5 3.75Z" fill="black"/>
</svg>
