<svg width="24" height="24" viewBox="0 0 24 24" fill="none" xmlns="http://www.w3.org/2000/svg">
<path fill-rule="evenodd" clip-rule="evenodd" d="M20.5303 3.46968C20.7444 3.68377 20.8088 4.0056 20.6935 4.28557L13.6935 21.2856C13.5785 21.5648 13.3073 21.7478 13.0054 21.75C12.7034 21.7521 12.4296 21.573 12.3106 21.2954L9.31064 14.2954C9.14747 13.9147 9.32384 13.4738 9.70456 13.3106C10.0853 13.1475 10.5262 13.3238 10.6894 13.7046L12.9862 19.0638L18.6211 5.37886L4.93621 11.0138L6.79544 11.8106C7.17616 11.9738 7.35253 12.4147 7.18936 12.7954C7.02619 13.1762 6.58528 13.3525 6.20456 13.1894L2.70456 11.6894C2.42701 11.5704 2.24786 11.2966 2.25002 10.9946C2.25218 10.6927 2.43521 10.4215 2.71444 10.3065L19.7144 3.3065C19.9944 3.19122 20.3162 3.25558 20.5303 3.46968Z" fill="black"/>
</svg>
