<svg width="24" height="24" viewBox="0 0 24 24" fill="none" xmlns="http://www.w3.org/2000/svg">
<path fill-rule="evenodd" clip-rule="evenodd" d="M20.5303 3.46968C20.7444 3.68377 20.8088 4.0056 20.6935 4.28557L13.6935 21.2856C13.5785 21.5648 13.3073 21.7478 13.0054 21.75C12.7034 21.7521 12.4296 21.573 12.3106 21.2954L9.42882 14.5712L2.70456 11.6894C2.42701 11.5704 2.24786 11.2966 2.25002 10.9946C2.25218 10.6927 2.43521 10.4215 2.71444 10.3065L6.71444 8.65944C7.09745 8.50173 7.5358 8.68437 7.69351 9.06738C7.85122 9.4504 7.66858 9.88874 7.28556 10.0465L4.93621 11.0138L9.82872 13.1106L16.818 6.12133L12.2856 7.98763C11.9025 8.14534 11.4642 7.9627 11.3065 7.57969C11.1488 7.19667 11.3314 6.75833 11.7144 6.60062L19.7144 3.3065C19.9944 3.19122 20.3162 3.25558 20.5303 3.46968ZM17.8787 7.18199L12.9862 19.0638L10.8894 14.1713L17.8787 7.18199Z" fill="black"/>
</svg>
