<svg width="24" height="24" viewBox="0 0 24 24" fill="none" xmlns="http://www.w3.org/2000/svg">
<path fill-rule="evenodd" clip-rule="evenodd" d="M11.713 2.30708C11.9932 2.191 12.3158 2.25516 12.5303 2.46966L16.5303 6.46966C16.8232 6.76255 16.8232 7.23743 16.5303 7.53032C16.2374 7.82322 15.7626 7.82322 15.4697 7.53032L12.75 4.81065L12.75 15C12.75 15.4142 12.4142 15.75 12 15.75C11.5858 15.75 11.25 15.4142 11.25 15L11.25 2.99999C11.25 2.69664 11.4327 2.42317 11.713 2.30708ZM9.53033 5.46966C9.82322 5.76255 9.82322 6.23743 9.53033 6.53032L8.53033 7.53032C8.23744 7.82322 7.76256 7.82322 7.46967 7.53032C7.17678 7.23743 7.17678 6.76256 7.46967 6.46966L8.46967 5.46966C8.76256 5.17677 9.23744 5.17677 9.53033 5.46966ZM4 12.25C4.41421 12.25 4.75 12.5858 4.75 13L4.75 18C4.75 18.6903 5.30964 19.25 6 19.25C6.41421 19.25 6.75 19.5858 6.75 20C6.75 20.4142 6.41421 20.75 6 20.75C4.48122 20.75 3.25 19.5188 3.25 18L3.25 13C3.25 12.5858 3.58579 12.25 4 12.25ZM20 12.25C20.4142 12.25 20.75 12.5858 20.75 13V18C20.75 19.5188 19.5188 20.75 18 20.75H10C9.58579 20.75 9.25 20.4142 9.25 20C9.25 19.5858 9.58579 19.25 10 19.25H18C18.6904 19.25 19.25 18.6903 19.25 18V13C19.25 12.5858 19.5858 12.25 20 12.25Z" fill="black"/>
</svg>
