<svg width="24" height="24" viewBox="0 0 24 24" fill="none" xmlns="http://www.w3.org/2000/svg">
<path fill-rule="evenodd" clip-rule="evenodd" d="M11.3292 2.66459C11.5144 2.2941 11.9649 2.14393 12.3354 2.32918L20.3354 6.32918C20.5895 6.45622 20.75 6.71592 20.75 7C20.75 9.71364 20.0265 12.9571 18.6251 15.7272C17.2292 18.4864 15.0961 20.8954 12.206 21.7211C12.0714 21.7596 11.9286 21.7596 11.794 21.7211C8.9039 20.8954 6.77079 18.4864 5.37487 15.7272C3.97347 12.9571 3.25 9.71364 3.25 7C3.25 6.71592 3.4105 6.45622 3.66459 6.32918L7.66459 4.32918C8.03507 4.14393 8.48558 4.2941 8.67082 4.66459C8.85606 5.03507 8.70589 5.48557 8.33541 5.67082L4.75746 7.45979C4.83397 9.84553 5.4977 12.6472 6.71334 15.0501C7.97487 17.5436 9.76996 19.4954 12 20.2161C14.23 19.4954 16.0251 17.5436 17.2867 15.0501C18.5023 12.6472 19.166 9.84553 19.2425 7.45979L11.6646 3.67082C11.2941 3.48557 11.1439 3.03507 11.3292 2.66459Z" fill="black"/>
</svg>
