<svg width="24" height="24" viewBox="0 0 24 24" fill="none" xmlns="http://www.w3.org/2000/svg">
<path fill-rule="evenodd" clip-rule="evenodd" d="M8.25 3C8.25 2.58579 8.58579 2.25 9 2.25H15C15.4142 2.25 15.75 2.58579 15.75 3V6.25L17 6.25C17.4142 6.25 17.75 6.58579 17.75 7L17.75 17C17.75 17.1989 17.671 17.3897 17.5303 17.5303C17.3897 17.671 17.1989 17.75 17 17.75H15.75V21C15.75 21.4142 15.4142 21.75 15 21.75H9C8.58579 21.75 8.25 21.4142 8.25 21L8.25 17.75H7C6.58579 17.75 6.25 17.4142 6.25 17V11.5C6.25 11.0858 6.58579 10.75 7 10.75C7.41421 10.75 7.75 11.0858 7.75 11.5V16.25H16.25L16.25 7.75H7.75V8C7.75 8.41421 7.41421 8.75 7 8.75C6.58579 8.75 6.25 8.41421 6.25 8V7C6.25 6.58579 6.58579 6.25 7 6.25H8.25L8.25 3ZM9.75 6.25L14.25 6.25V3.75H9.75L9.75 6.25ZM9.75 17.75L9.75 20.25H14.25V17.75H9.75ZM10.3707 10.6187C10.3179 10.6667 10.25 10.762 10.25 10.9744C10.25 11.0991 10.3169 11.3256 10.5243 11.6533C10.7214 11.9647 10.9966 12.2914 11.2908 12.5977C11.5409 12.858 11.7929 13.0913 12 13.2733C12.2071 13.0913 12.4591 12.858 12.7092 12.5977C13.0034 12.2914 13.2786 11.9647 13.4757 11.6533C13.6831 11.3256 13.75 11.0991 13.75 10.9744C13.75 10.766 13.6824 10.6701 13.6271 10.6201C13.5612 10.5604 13.4363 10.5 13.2373 10.5C13.0538 10.5 12.9028 10.5597 12.813 10.6315L12.6685 10.7471C12.4593 10.9145 12.2131 10.977 12 10.977C11.7932 10.977 11.5552 10.9181 11.3501 10.7616C11.3499 10.7616 11.3502 10.7616 11.3501 10.7616L11.349 10.7611L11.3317 10.7472M12 9.36876C11.6374 9.12275 11.198 9 10.7627 9C10.2614 9 9.75329 9.15278 9.36166 9.50882C8.95987 9.8741 8.75 10.3911 8.75 10.9744C8.75 11.5232 8.99565 12.0429 9.25693 12.4557C9.52857 12.8847 9.87844 13.2927 10.2092 13.637C10.5428 13.9842 10.8737 14.2839 11.1199 14.4959C11.2436 14.6024 11.3471 14.6878 11.4205 14.7473C11.4573 14.7771 11.4866 14.8004 11.5072 14.8167L11.5315 14.8358L11.5385 14.8412L11.5407 14.8429L11.5417 14.8437C11.5418 14.8438 11.5419 14.8438 12 14.25L11.5417 14.8437C11.8116 15.0519 12.1882 15.0521 12.4581 14.8438L12 14.25C12.4581 14.8438 12.458 14.8439 12.4581 14.8438L12.4593 14.8429L12.4615 14.8412L12.4685 14.8358L12.4928 14.8167C12.5134 14.8004 12.5427 14.7771 12.5795 14.7473C12.6529 14.6878 12.7564 14.6024 12.8801 14.4959C13.1263 14.2839 13.4572 13.9842 13.7908 13.637C14.1216 13.2927 14.4714 12.8847 14.7431 12.4557C15.0044 12.0429 15.25 11.5232 15.25 10.9744C15.25 10.387 15.0349 9.87072 14.6332 9.50748C14.2421 9.15385 13.7357 9 13.2373 9C12.802 9 12.3627 9.12275 12 9.36876ZM12.2686 9.57581C12.2105 9.52938 12.1522 9.50355 12.1002 9.49006C12.0626 9.48032 12.0284 9.47701 12 9.47701C11.9716 9.47701 11.9374 9.48032 11.8998 9.49006C11.8479 9.50354 11.7896 9.52931 11.7316 9.57564L11.8759 9.46022M12.2686 9.57581C12.2686 9.57581 12.2686 9.57581 12.2545 9.59344C12.2648 9.59207 12.2753 9.5908 12.2858 9.58962L12.2686 9.57581Z" fill="black"/>
</svg>
