<svg width="24" height="24" viewBox="0 0 24 24" fill="none" xmlns="http://www.w3.org/2000/svg">
<path fill-rule="evenodd" clip-rule="evenodd" d="M9 2.25L15 2.25C15.1989 2.25 15.3897 2.32902 15.5303 2.46967C15.671 2.61032 15.75 2.80109 15.75 3V6.25L17 6.25C17.4142 6.25 17.75 6.58579 17.75 7L17.75 17C17.75 17.1989 17.671 17.3897 17.5303 17.5303C17.3897 17.671 17.1989 17.75 17 17.75H15.75V21C15.75 21.4142 15.4142 21.75 15 21.75H9C8.58579 21.75 8.25 21.4142 8.25 21L8.25 17.75H7C6.58579 17.75 6.25 17.4142 6.25 17V11.5C6.25 11.0858 6.58579 10.75 7 10.75C7.41421 10.75 7.75 11.0858 7.75 11.5V12.2014H8.70301L8.89247 11.7816C9.07585 11.3752 9.46441 11.1247 9.89055 11.1247C10.3167 11.1247 10.7052 11.3752 10.8886 11.7816L11.2693 12.6252L12.3887 9.93791C12.5669 9.51005 12.9686 9.24658 13.4086 9.25003C13.8483 9.25349 14.2454 9.52278 14.4176 9.95212L15.3199 12.2014H16.25L16.25 7.75H7.75V8C7.75 8.41421 7.41421 8.75 7 8.75C6.58579 8.75 6.25 8.41421 6.25 8L6.25 7C6.25 6.80109 6.32902 6.61032 6.46967 6.46967C6.61032 6.32902 6.80109 6.25 7 6.25H8.25L8.25 3C8.25 2.58579 8.58579 2.25 9 2.25ZM9.75 6.25L14.25 6.25V3.75L9.75 3.75V6.25ZM16.25 13.7014H15.0411C14.561 13.7014 14.1807 13.3907 14.0237 12.9993L13.3932 11.4274L12.2957 14.0621C12.122 14.4792 11.734 14.7424 11.3026 14.7498C10.8707 14.7573 10.4728 14.5068 10.2861 14.0932L9.88296 13.1998C9.69141 13.4923 9.36301 13.7014 8.97011 13.7014H7.75V16.25H16.25V13.7014ZM9.75 17.75L9.75 20.25H14.25V17.75H9.75Z" fill="black"/>
</svg>
