<svg width="24" height="24" viewBox="0 0 24 24" fill="none" xmlns="http://www.w3.org/2000/svg">
<path fill-rule="evenodd" clip-rule="evenodd" d="M13.3181 2.3208C13.5817 2.44424 13.75 2.70898 13.75 2.99999V21C13.75 21.291 13.5817 21.5558 13.3181 21.6792C13.0546 21.8026 12.7434 21.7625 12.5199 21.5762L9.51986 19.0762C9.20165 18.811 9.15866 18.3381 9.42383 18.0199C9.68901 17.7016 10.1619 17.6587 10.4801 17.9238L12.25 19.3987V4.60127L7.48014 8.57616C7.34535 8.68848 7.17545 8.74999 7 8.74999H5C4.30964 8.74999 3.75 9.30964 3.75 9.99999V14C3.75 14.6904 4.30964 15.25 5 15.25H7C7.41421 15.25 7.75 15.5858 7.75 16C7.75 16.4142 7.41421 16.75 7 16.75H5C3.48122 16.75 2.25 15.5188 2.25 14V9.99999C2.25 8.48121 3.48122 7.24999 5 7.24999H6.72846L12.5199 2.42383C12.7434 2.23753 13.0546 2.19737 13.3181 2.3208ZM15.4697 8.46966C15.7626 8.17677 16.2374 8.17677 16.5303 8.46966L19 10.9393L21.4697 8.46966C21.7626 8.17677 22.2374 8.17677 22.5303 8.46966C22.8232 8.76256 22.8232 9.23743 22.5303 9.53032L20.0607 12L22.5303 14.4697C22.8232 14.7626 22.8232 15.2374 22.5303 15.5303C22.2374 15.8232 21.7626 15.8232 21.4697 15.5303L19 13.0607L16.5303 15.5303C16.2374 15.8232 15.7626 15.8232 15.4697 15.5303C15.1768 15.2374 15.1768 14.7626 15.4697 14.4697L17.9393 12L15.4697 9.53032C15.1768 9.23743 15.1768 8.76256 15.4697 8.46966Z" fill="black"/>
</svg>
