<svg width="24" height="24" viewBox="0 0 24 24" fill="none" xmlns="http://www.w3.org/2000/svg">
<path fill-rule="evenodd" clip-rule="evenodd" d="M13.3181 2.3208C13.5817 2.44424 13.75 2.70898 13.75 2.99999V21C13.75 21.291 13.5817 21.5558 13.3181 21.6792C13.0546 21.8026 12.7434 21.7625 12.5199 21.5762L9.51986 19.0762C9.20165 18.811 9.15866 18.3381 9.42383 18.0199C9.68901 17.7016 10.1619 17.6587 10.4801 17.9238L12.25 19.3987V4.60127L7.48014 8.57616C7.34535 8.68848 7.17545 8.74999 7 8.74999H5C4.30964 8.74999 3.75 9.30964 3.75 9.99999V14C3.75 14.6904 4.30964 15.25 5 15.25H7C7.41421 15.25 7.75 15.5858 7.75 16C7.75 16.4142 7.41421 16.75 7 16.75H5C3.48122 16.75 2.25 15.5188 2.25 14V9.99999C2.25 8.48121 3.48122 7.24999 5 7.24999H6.72846L12.5199 2.42383C12.7434 2.23753 13.0546 2.19737 13.3181 2.3208ZM18.4697 5.46966C18.7626 5.17677 19.2374 5.17677 19.5303 5.46966C21.242 7.18129 21.75 9.93114 21.75 12C21.75 12.4142 21.4142 12.75 21 12.75C20.5858 12.75 20.25 12.4142 20.25 12C20.25 10.0688 19.758 7.8187 18.4697 6.53032C18.1768 6.23743 18.1768 5.76256 18.4697 5.46966ZM15.4697 8.46965C15.7626 8.17675 16.2374 8.17676 16.5303 8.46965C17.1959 9.1352 17.75 10.3393 17.75 12C17.75 13.6607 17.1959 14.8648 16.5303 15.5303C16.2374 15.8232 15.7626 15.8232 15.4697 15.5303C15.1768 15.2374 15.1768 14.7625 15.4697 14.4697C15.8041 14.1352 16.25 13.3393 16.25 12C16.25 10.6607 15.8041 9.86476 15.4697 9.53031C15.1768 9.23741 15.1768 8.76254 15.4697 8.46965ZM20.8123 14.2763C21.212 14.385 21.448 14.7971 21.3393 15.1968C21.0101 16.4074 20.4462 17.6145 19.5303 18.5303C19.2374 18.8232 18.7626 18.8232 18.4697 18.5303C18.1768 18.2374 18.1768 17.7626 18.4697 17.4697C19.1418 16.7975 19.6055 15.8563 19.8918 14.8032C20.0005 14.4035 20.4126 14.1676 20.8123 14.2763Z" fill="black"/>
</svg>
