<svg width="24" height="24" viewBox="0 0 24 24" fill="none" xmlns="http://www.w3.org/2000/svg">
<path fill-rule="evenodd" clip-rule="evenodd" d="M13.3181 2.3208C13.5817 2.44424 13.75 2.70898 13.75 2.99999V7.99999C13.75 8.41421 13.4142 8.74999 13 8.74999C12.5858 8.74999 12.25 8.41421 12.25 7.99999V4.60128L11.0801 5.57616C10.7619 5.84133 10.289 5.79834 10.0238 5.48013C9.75867 5.16192 9.80166 4.689 10.1199 4.42383L12.5199 2.42383C12.7434 2.23753 13.0546 2.19737 13.3181 2.3208ZM2.46967 2.46966C2.76256 2.17677 3.23744 2.17677 3.53033 2.46966L21.5303 20.4697C21.8232 20.7626 21.8232 21.2374 21.5303 21.5303C21.2374 21.8232 20.7626 21.8232 20.4697 21.5303L2.46967 3.53032C2.17678 3.23743 2.17678 2.76256 2.46967 2.46966ZM3.64311 8.35079C4.00165 8.5582 4.12418 9.01699 3.91677 9.37554C3.81085 9.55863 3.75 9.77107 3.75 9.99999V14C3.75 14.6904 4.30964 15.25 5 15.25H7C7.41421 15.25 7.75 15.5858 7.75 16C7.75 16.4142 7.41421 16.75 7 16.75H5C3.48122 16.75 2.25 15.5188 2.25 14V9.99999C2.25 9.50034 2.38393 9.0297 2.61836 8.62445C2.82577 8.2659 3.28456 8.14338 3.64311 8.35079ZM13 17.25C13.4142 17.25 13.75 17.5858 13.75 18V21C13.75 21.291 13.5817 21.5558 13.3181 21.6792C13.0546 21.8026 12.7434 21.7625 12.5199 21.5762L9.51986 19.0762C9.20165 18.811 9.15866 18.3381 9.42383 18.0199C9.68901 17.7016 10.1619 17.6587 10.4801 17.9238L12.25 19.3987V18C12.25 17.5858 12.5858 17.25 13 17.25Z" fill="black"/>
</svg>
