<svg width="24" height="24" viewBox="0 0 24 24" fill="none" xmlns="http://www.w3.org/2000/svg">
<path fill-rule="evenodd" clip-rule="evenodd" d="M12 2.25C12.4142 2.25 12.75 2.58579 12.75 3C12.75 7.55635 16.4437 11.25 21 11.25C21.4142 11.25 21.75 11.5858 21.75 12C21.75 12.4142 21.4142 12.75 21 12.75C16.4437 12.75 12.75 16.4437 12.75 21C12.75 21.4142 12.4142 21.75 12 21.75C11.5858 21.75 11.25 21.4142 11.25 21C11.25 16.4437 7.55635 12.75 3 12.75C2.58579 12.75 2.25 12.4142 2.25 12C2.25 11.5858 2.58579 11.25 3 11.25C5.4433 11.25 7.63776 10.1888 9.14947 8.49981C9.42571 8.19117 9.89986 8.1649 10.2085 8.44115C10.5171 8.71739 10.5434 9.19154 10.2672 9.50019C9.30546 10.5747 8.10812 11.435 6.75636 11.9999C9.12023 12.9877 11.0122 14.8796 12 17.2434C12.9878 14.8796 14.8796 12.9878 17.2434 12C13.7235 10.5291 11.25 7.05339 11.25 3C11.25 2.58579 11.5858 2.25 12 2.25Z" fill="black"/>
</svg>
