<svg width="24" height="24" viewBox="0 0 24 24" fill="none" xmlns="http://www.w3.org/2000/svg">
<path fill-rule="evenodd" clip-rule="evenodd" d="M11.6897 2.31723C12.0667 2.14582 12.5114 2.31256 12.6828 2.68965L14.9994 7.7862L21.0575 8.25221C21.3425 8.27413 21.5902 8.45606 21.6963 8.72139C21.8025 8.98671 21.7487 9.28931 21.5575 9.50172L17.3244 14.2052L18.7276 19.8181C18.7987 20.1023 18.6978 20.4018 18.4693 20.585C18.2408 20.7683 17.9266 20.8018 17.6646 20.6708L14.6646 19.1708C14.2941 18.9856 14.144 18.5351 14.3292 18.1646C14.5144 17.7941 14.9649 17.6439 15.3354 17.8292L16.8769 18.5999L15.7724 14.1819C15.7119 13.9399 15.7757 13.6837 15.9425 13.4983L19.4232 9.63092L14.4425 9.24779C14.1699 9.22682 13.9304 9.05922 13.8172 8.81035L11.3172 3.31035C11.1458 2.93327 11.3126 2.48863 11.6897 2.31723ZM10.9467 5.31723C11.3238 5.48863 11.4906 5.93327 11.3192 6.31035L10.1828 8.81035C10.0697 9.05922 9.8301 9.22682 9.55754 9.24779L4.57686 9.63092L8.05749 13.4983C8.22435 13.6837 8.28812 13.9399 8.22762 14.1819L7.12312 18.5999L11.6646 16.3292C12.0351 16.1439 12.4856 16.2941 12.6708 16.6646C12.8561 17.0351 12.7059 17.4856 12.3354 17.6708L6.33542 20.6708C6.07345 20.8018 5.75919 20.7683 5.53072 20.585C5.30225 20.4018 5.20137 20.1023 5.27241 19.8181L6.67564 14.2052L2.44254 9.50172C2.25137 9.28931 2.19752 8.98671 2.30368 8.72139C2.40984 8.45606 2.65756 8.27413 2.94249 8.25221L9.00063 7.7862L9.9536 5.68965C10.125 5.31256 10.5696 5.14582 10.9467 5.31723Z" fill="black"/>
</svg>
