<svg width="24" height="24" viewBox="0 0 24 24" fill="none" xmlns="http://www.w3.org/2000/svg">
<path fill-rule="evenodd" clip-rule="evenodd" d="M4.72175 2.37273C5.0682 2.59978 5.16499 3.06468 4.93795 3.41112L3.78324 5.17308C3.90874 5.99555 4.11369 7.04806 4.35785 7.75527C4.49303 8.1468 4.28521 8.57379 3.89367 8.70896C3.50214 8.84414 3.07515 8.63632 2.93998 8.24478C2.61794 7.312 2.37876 5.97323 2.25717 5.10391C2.232 4.92393 2.27303 4.74093 2.37265 4.58892L3.68336 2.58892C3.91041 2.24248 4.37531 2.14569 4.72175 2.37273ZM11.2782 2.37272C11.6247 2.14569 12.0896 2.24249 12.3166 2.58894L13.6272 4.58894C13.7269 4.74094 13.7679 4.92394 13.7427 5.10391C13.5267 6.64812 13.0297 8.39233 12.2628 9.91789C11.5034 11.4283 10.4312 12.8188 9.01167 13.5148C8.92587 13.5569 8.83813 13.5933 8.74896 13.6241L8.74998 16.9998C8.74998 17.5965 8.98703 18.1691 9.40899 18.591C9.83094 19.013 10.4032 19.25 11 19.25C11.5967 19.25 12.169 19.013 12.591 18.591C13.0129 18.1691 13.25 17.5968 13.25 17V15.5C13.25 14.6381 13.5924 13.8114 14.2019 13.2019C14.8114 12.5924 15.638 12.25 16.5 12.25C17.3619 12.25 18.1886 12.5924 18.7981 13.2019C19.4076 13.8114 19.75 14.6381 19.75 15.5V16.3535C20.9042 16.68 21.75 17.7412 21.75 19C21.75 20.5188 20.5188 21.75 19 21.75C17.4812 21.75 16.25 20.5188 16.25 19C16.25 17.7412 17.0957 16.68 18.25 16.3535V15.5C18.25 15.0359 18.0656 14.5908 17.7374 14.2626C17.4092 13.9344 16.9641 13.75 16.5 13.75C16.0358 13.75 15.5907 13.9344 15.2625 14.2626C14.9344 14.5908 14.75 15.0359 14.75 15.5V17C14.75 17.9946 14.3549 18.9484 13.6516 19.6517C12.9484 20.3549 11.9945 20.75 11 20.75C10.0054 20.75 9.05159 20.3549 8.34833 19.6517C7.64512 18.9485 7.25004 17.9947 7.24998 17.0003C7.24998 17.0002 7.24998 17.0003 7.24998 17.0003L7.24896 13.6234C7.16048 13.5928 7.07342 13.5566 6.98828 13.5148C6.19553 13.1261 5.51049 12.5494 4.92969 11.8695C4.66065 11.5546 4.69785 11.0812 5.01279 10.8121C5.32772 10.5431 5.80114 10.5803 6.07019 10.8952C6.54708 11.4535 7.07599 11.8872 7.64866 12.168C7.76077 12.223 7.88045 12.2499 7.99936 12.25C8.11867 12.2501 8.23879 12.2232 8.35129 12.168C9.34909 11.6787 10.2301 10.6216 10.9226 9.24412C11.563 7.97035 12.0012 6.5029 12.2157 5.17161L11.062 3.41111C10.835 3.06466 10.9318 2.59976 11.2782 2.37272ZM19 17.75C18.3096 17.75 17.75 18.3097 17.75 19C17.75 19.6904 18.3096 20.25 19 20.25C19.6903 20.25 20.25 19.6904 20.25 19C20.25 18.3097 19.6903 17.75 19 17.75Z" fill="black"/>
</svg>
