<svg width="24" height="24" viewBox="0 0 24 24" fill="none" xmlns="http://www.w3.org/2000/svg">
<path fill-rule="evenodd" clip-rule="evenodd" d="M5.25 6C5.25 5.58579 5.58579 5.25 6 5.25H9C9.41421 5.25 9.75 5.58579 9.75 6C9.75 6.41421 9.41421 6.75 9 6.75H6.75V17.25H17.25V15C17.25 14.5858 17.5858 14.25 18 14.25C18.4142 14.25 18.75 14.5858 18.75 15V18C18.75 18.4142 18.4142 18.75 18 18.75H6C5.58579 18.75 5.25 18.4142 5.25 18V6ZM12.25 6C12.25 5.58579 12.5858 5.25 13 5.25H18C18.4142 5.25 18.75 5.58579 18.75 6V11C18.75 11.4142 18.4142 11.75 18 11.75C17.5858 11.75 17.25 11.4142 17.25 11V6.75H13C12.5858 6.75 12.25 6.41421 12.25 6Z" fill="black"/>
</svg>
