<svg width="24" height="24" viewBox="0 0 24 24" fill="none" xmlns="http://www.w3.org/2000/svg">
<path fill-rule="evenodd" clip-rule="evenodd" d="M8.25 5C8.25 3.48122 9.48122 2.25 11 2.25H13C14.5188 2.25 15.75 3.48122 15.75 5V5.25H18C19.5188 5.25 20.75 6.48122 20.75 8C20.75 8.41421 20.4142 8.75 20 8.75C19.5858 8.75 19.25 8.41421 19.25 8C19.25 7.30964 18.6904 6.75 18 6.75H6C5.30964 6.75 4.75 7.30964 4.75 8V12C4.75 12.6904 5.30964 13.25 6 13.25H11.25V12C11.25 11.5858 11.5858 11.25 12 11.25C12.4142 11.25 12.75 11.5858 12.75 12V13.25H18C18.6904 13.25 19.25 12.6904 19.25 12V11C19.25 10.5858 19.5858 10.25 20 10.25C20.4142 10.25 20.75 10.5858 20.75 11V18C20.75 19.5188 19.5188 20.75 18 20.75H6C4.48122 20.75 3.25 19.5188 3.25 18V17C3.25 16.5858 3.58579 16.25 4 16.25C4.41421 16.25 4.75 16.5858 4.75 17V18C4.75 18.6904 5.30964 19.25 6 19.25H18C18.6904 19.25 19.25 18.6904 19.25 18V14.4501C18.875 14.6419 18.4501 14.75 18 14.75H12.75V16C12.75 16.4142 12.4142 16.75 12 16.75C11.5858 16.75 11.25 16.4142 11.25 16V14.75H6C4.48122 14.75 3.25 13.5188 3.25 12V8C3.25 6.48122 4.48122 5.25 6 5.25H8.25V5ZM9.75 5.25H14.25V5C14.25 4.30964 13.6904 3.75 13 3.75H11C10.3096 3.75 9.75 4.30964 9.75 5V5.25Z" fill="black"/>
</svg>
