<svg width="24" height="24" viewBox="0 0 24 24" fill="none" xmlns="http://www.w3.org/2000/svg">
<path fill-rule="evenodd" clip-rule="evenodd" d="M16.1264 2.57025C16.4193 2.27736 16.8942 2.27736 17.1871 2.57026L21.4297 6.81289C21.7226 7.10579 21.7226 7.58066 21.4297 7.87355C21.1368 8.16645 20.6619 8.16645 20.369 7.87356L18.7781 6.28258L17.7175 7.3431L19.3086 8.93417C19.6015 9.22707 19.6015 9.70194 19.3086 9.99483L17.7732 11.5303C17.4803 11.8232 17.0054 11.8232 16.7125 11.5303C16.4196 11.2374 16.4196 10.7625 16.7125 10.4696L17.7176 9.4645L16.1391 7.88596C16.1348 7.88189 16.1306 7.87776 16.1264 7.87357C16.1222 7.86938 16.1181 7.86516 16.114 7.8609L14.5356 6.28252L10.4698 10.3484C10.1769 10.6413 9.70202 10.6413 9.40912 10.3484C9.11623 10.0555 9.11623 9.58062 9.40912 9.28773L14.0053 4.69153C14.2982 4.39864 14.7731 4.39864 15.066 4.69153L16.6569 6.28244L17.7174 5.22192L16.1264 3.63091C15.8335 3.33802 15.8335 2.86315 16.1264 2.57025ZM7.2879 12.4697C7.5808 12.7626 7.5808 13.2374 7.2879 13.5303L6.40392 14.4143L9.5859 17.5963L14.4697 12.7125C14.7626 12.4196 15.2374 12.4196 15.5303 12.7125C15.8232 13.0054 15.8232 13.4803 15.5303 13.7732L10.1162 19.1873C9.97558 19.3279 9.78481 19.407 9.5859 19.407C9.38699 19.407 9.19622 19.3279 9.05557 19.1873L8.87874 19.0104L7.28771 20.6015C6.99482 20.8944 6.51995 20.8944 6.22705 20.6015L5.34317 19.7176L3.75225 21.3085C3.45936 21.6014 2.98449 21.6014 2.69159 21.3085C2.3987 21.0156 2.3987 20.5407 2.69159 20.2479L4.28251 18.6569L3.39863 17.773C3.25797 17.6324 3.17896 17.4416 3.17896 17.2427C3.17896 17.0438 3.25797 16.853 3.39862 16.7124L4.98965 15.1214L4.81293 14.9446C4.52004 14.6517 4.52004 14.1769 4.81293 13.884L6.22724 12.4697C6.52014 12.1768 6.99501 12.1768 7.2879 12.4697ZM6.05028 16.1821L4.98961 17.2427L5.86457 18.1177C5.86759 18.1206 5.87059 18.1235 5.87357 18.1265C5.87656 18.1295 5.87951 18.1325 5.88243 18.1355L6.75738 19.0105L7.81804 17.9498L6.05028 16.1821Z" fill="black"/>
</svg>
