<svg width="24" height="24" viewBox="0 0 24 24" fill="none" xmlns="http://www.w3.org/2000/svg">
<path fill-rule="evenodd" clip-rule="evenodd" d="M7.46967 5.46967C7.61032 5.32902 7.80109 5.25 8 5.25H13C13.4142 5.25 13.75 5.58579 13.75 6C13.75 6.41421 13.4142 6.75 13 6.75H8.31066L3.06066 12L5.53033 14.4697C5.82322 14.7626 5.82322 15.2374 5.53033 15.5303C5.23744 15.8232 4.76256 15.8232 4.46967 15.5303L1.46967 12.5303C1.17678 12.2374 1.17678 11.7626 1.46967 11.4697L7.46967 5.46967ZM17.25 6C17.25 5.58579 17.5858 5.25 18 5.25H21C21.4142 5.25 21.75 5.58579 21.75 6V18C21.75 18.4142 21.4142 18.75 21 18.75H8C7.58579 18.75 7.25 18.4142 7.25 18C7.25 17.5858 7.58579 17.25 8 17.25H20.25V6.75H18C17.5858 6.75 17.25 6.41421 17.25 6ZM10 10.75C9.30964 10.75 8.75 11.3096 8.75 12C8.75 12.6904 9.30964 13.25 10 13.25C10.6904 13.25 11.25 12.6904 11.25 12C11.25 11.3096 10.6904 10.75 10 10.75ZM7.25 12C7.25 10.4812 8.48122 9.25 10 9.25C11.5188 9.25 12.75 10.4812 12.75 12C12.75 13.5188 11.5188 14.75 10 14.75C8.48122 14.75 7.25 13.5188 7.25 12Z" fill="black"/>
</svg>
