<svg width="24" height="24" viewBox="0 0 24 24" fill="none" xmlns="http://www.w3.org/2000/svg">
<path fill-rule="evenodd" clip-rule="evenodd" d="M16.4697 2.46967C16.7626 2.17678 17.2374 2.17678 17.5303 2.46967L21.5303 6.46967C21.8232 6.76256 21.8232 7.23744 21.5303 7.53033L9.53033 19.5303C9.40706 19.6536 9.24469 19.7301 9.07113 19.7466L4.394 20.1922L3.52234 21.0382C3.2251 21.3267 2.75028 21.3196 2.4618 21.0223C2.17332 20.7251 2.18042 20.2503 2.47766 19.9618L3.37382 19.092L4.26603 14.8458C4.29596 14.7033 4.36672 14.5726 4.46967 14.4697L9.64964 9.2897C9.94253 8.99681 10.4174 8.99681 10.7103 9.2897C11.0032 9.58259 11.0032 10.0575 10.7103 10.3504L5.6881 15.3726L5.00423 18.6273L8.66038 18.279L9.93934 17L8.46967 15.5303C8.17678 15.2374 8.17678 14.7626 8.46967 14.4697C8.76256 14.1768 9.23744 14.1768 9.53033 14.4697L11 15.9393L12.4393 14.5L10.9697 13.0303C10.6768 12.7374 10.6768 12.2626 10.9697 11.9697C11.2626 11.6768 11.7374 11.6768 12.0303 11.9697L13.5 13.4393L14.9393 12L13.4697 10.5303C13.1768 10.2374 13.1768 9.76256 13.4697 9.46967C13.7626 9.17678 14.2374 9.17678 14.5303 9.46967L16 10.9393L17.4393 9.5L15.9697 8.03033C15.6768 7.73744 15.6768 7.26256 15.9697 6.96967C16.2626 6.67678 16.7374 6.67678 17.0303 6.96967L18.5 8.43934L19.9393 7L17 4.06066L14.0303 7.03033C13.7374 7.32322 13.2626 7.32322 12.9697 7.03033C12.6768 6.73744 12.6768 6.26256 12.9697 5.96967L16.4697 2.46967Z" fill="black"/>
</svg>
