<svg width="24" height="24" viewBox="0 0 24 24" fill="none" xmlns="http://www.w3.org/2000/svg">
<path fill-rule="evenodd" clip-rule="evenodd" d="M5.38874 5.70557C4.98539 6.36102 4.75 7.33474 4.75 8.5C4.75 9.94269 5.10851 10.813 5.52713 11.8219L5.53315 11.8364C5.77053 12.4084 6.03376 13.0427 6.22761 13.8181C6.31034 14.149 6.36526 14.5295 6.40713 14.9201C6.45128 15.3319 6.15319 15.7016 5.74134 15.7457C5.32948 15.7899 4.95982 15.4918 4.91567 15.0799C4.87653 14.7148 4.83035 14.4137 4.77239 14.1819C4.60729 13.5215 4.38273 12.9777 4.14168 12.3968L4.13698 12.3855C3.70586 11.3465 3.25 10.248 3.25 8.5C3.25 7.16526 3.51461 5.88898 4.11126 4.91943C4.72678 3.91919 5.7019 3.25 7 3.25C8.07714 3.25 8.78987 3.51051 9.44215 3.74893L9.45553 3.75382L9.19807 4.45825L9.45553 3.75382L9.45659 3.75421C10.1493 4.00738 10.8131 4.25 12 4.25C13.1869 4.25 13.8507 4.00738 14.5434 3.75421L14.5445 3.75382L14.8019 4.45825L14.5445 3.75382L14.5579 3.74893C15.2101 3.51051 15.9229 3.25 17 3.25C18.2981 3.25 19.2732 3.91919 19.8887 4.91943C20.4854 5.88898 20.75 7.16526 20.75 8.5C20.75 8.91421 20.4142 9.25 20 9.25C19.5858 9.25 19.25 8.91421 19.25 8.5C19.25 7.33474 19.0146 6.36102 18.6113 5.70557C18.2268 5.08081 17.7019 4.75 17 4.75C16.196 4.75 15.6913 4.93173 15.0594 5.16267C14.3127 5.43559 13.4518 5.75 12 5.75C10.5482 5.75 9.68733 5.43559 8.94061 5.16267C8.30875 4.93173 7.80403 4.75 7 4.75C6.2981 4.75 5.77322 5.08081 5.38874 5.70557ZM19.4531 11.4166C19.8357 11.5753 20.0171 12.0142 19.8583 12.3968C19.6173 12.9777 19.3927 13.5215 19.2276 14.1819C19.0984 14.6987 19.041 15.4825 18.975 16.4277L18.9717 16.4749C18.8987 17.5212 18.814 18.7357 18.5578 19.692C18.4277 20.1778 18.2354 20.6712 17.9222 21.0552C17.5864 21.467 17.1098 21.75 16.5 21.75C15.578 21.75 15.0689 21.0077 14.787 20.4247C14.4925 19.8154 14.2707 19.019 14.064 18.2764L14.051 18.2298C13.7787 17.2522 13.5197 16.3368 13.1489 15.659C12.7845 14.9929 12.424 14.75 12 14.75C11.576 14.75 11.2155 14.9929 10.8511 15.659C10.4804 16.3368 10.2213 17.2522 9.94905 18.2298L9.93606 18.2764C9.72931 19.019 9.50758 19.8154 9.21301 20.4247C8.93112 21.0077 8.42208 21.75 7.50003 21.75C6.76811 21.75 6.24943 21.3473 5.91915 20.8364C5.60933 20.3571 5.43265 19.7433 5.31719 19.1412C5.23918 18.7344 5.50572 18.3414 5.91252 18.2634C6.31932 18.1854 6.71234 18.4519 6.79035 18.8587C6.8944 19.4013 7.02725 19.7875 7.17887 20.0221C7.31004 20.225 7.40474 20.25 7.50003 20.25C7.50033 20.25 7.50071 20.25 7.50118 20.2501C7.50707 20.2506 7.52657 20.2523 7.57956 20.2034C7.65189 20.1367 7.74973 20.0051 7.86256 19.7717C8.0919 19.2974 8.28085 18.6287 8.50405 17.8273L8.51744 17.7792C8.77335 16.8601 9.07292 15.7841 9.53516 14.9392C10.0118 14.0678 10.7725 13.25 12 13.25C13.2275 13.25 13.9882 14.0678 14.4649 14.9392C14.9271 15.7841 15.2267 16.8601 15.4826 17.7792L15.496 17.8273C15.7192 18.6287 15.9082 19.2974 16.1375 19.7717C16.2503 20.0051 16.3482 20.1367 16.4205 20.2034C16.4735 20.2523 16.493 20.2506 16.4989 20.2501C16.4993 20.25 16.4997 20.25 16.5 20.25C16.5922 20.25 16.6637 20.225 16.7597 20.1072C16.8783 19.9618 17.0017 19.7041 17.1089 19.3039C17.3236 18.5025 17.4016 17.4269 17.4786 16.3233L17.4827 16.2655C17.5435 15.3937 17.6073 14.4787 17.7724 13.8181C17.9663 13.0427 18.2295 12.4084 18.4669 11.8364L18.4729 11.8219C18.6317 11.4393 19.0705 11.2578 19.4531 11.4166Z" fill="black"/>
</svg>
