<svg width="24" height="24" viewBox="0 0 24 24" fill="none" xmlns="http://www.w3.org/2000/svg">
<path fill-rule="evenodd" clip-rule="evenodd" d="M8.25 5C8.25 3.48122 9.48122 2.25 11 2.25H13C14.5188 2.25 15.75 3.48122 15.75 5V5.25H20C20.4142 5.25 20.75 5.58579 20.75 6C20.75 6.41421 20.4142 6.75 20 6.75H18.75V14C18.75 14.4142 18.4142 14.75 18 14.75C17.5858 14.75 17.25 14.4142 17.25 14V6.75H6.75V9C6.75 9.41421 6.41421 9.75 6 9.75C5.58579 9.75 5.25 9.41421 5.25 9V6.75H4C3.58579 6.75 3.25 6.41421 3.25 6C3.25 5.58579 3.58579 5.25 4 5.25H8.25V5ZM9.75 5.25H14.25V5C14.25 4.30964 13.6904 3.75 13 3.75H11C10.3096 3.75 9.75 4.30964 9.75 5V5.25ZM10 9.25C10.4142 9.25 10.75 9.58579 10.75 10V16C10.75 16.4142 10.4142 16.75 10 16.75C9.58579 16.75 9.25 16.4142 9.25 16V10C9.25 9.58579 9.58579 9.25 10 9.25ZM14 9.25C14.4142 9.25 14.75 9.58579 14.75 10V16C14.75 16.4142 14.4142 16.75 14 16.75C13.5858 16.75 13.25 16.4142 13.25 16V10C13.25 9.58579 13.5858 9.25 14 9.25ZM6 12.25C6.41421 12.25 6.75 12.5858 6.75 13V18C6.75 18.6904 7.30964 19.25 8 19.25H16C16.6904 19.25 17.25 18.6904 17.25 18C17.25 17.5858 17.5858 17.25 18 17.25C18.4142 17.25 18.75 17.5858 18.75 18C18.75 19.5188 17.5188 20.75 16 20.75H8C6.48122 20.75 5.25 19.5188 5.25 18V13C5.25 12.5858 5.58579 12.25 6 12.25Z" fill="black"/>
</svg>
