<svg width="24" height="24" viewBox="0 0 24 24" fill="none" xmlns="http://www.w3.org/2000/svg">
<path fill-rule="evenodd" clip-rule="evenodd" d="M2.46967 6.46967C2.76256 6.17678 3.23744 6.17678 3.53033 6.46967L9 11.9393L12.4697 8.46967C12.7626 8.17678 13.2374 8.17678 13.5303 8.46967L21.5303 16.4697C21.7448 16.6842 21.809 17.0068 21.6929 17.287C21.5768 17.5673 21.3033 17.75 21 17.75H15C14.5858 17.75 14.25 17.4142 14.25 17C14.25 16.5858 14.5858 16.25 15 16.25H19.1893L13 10.0607L9.53033 13.5303C9.23744 13.8232 8.76256 13.8232 8.46967 13.5303L2.46967 7.53033C2.17678 7.23744 2.17678 6.76256 2.46967 6.46967ZM20.25 11C20.25 10.5858 20.5858 10.25 21 10.25C21.4142 10.25 21.75 10.5858 21.75 11V14C21.75 14.4142 21.4142 14.75 21 14.75C20.5858 14.75 20.25 14.4142 20.25 14V11Z" fill="black"/>
</svg>
