<svg width="24" height="24" viewBox="0 0 24 24" fill="none" xmlns="http://www.w3.org/2000/svg">
<path fill-rule="evenodd" clip-rule="evenodd" d="M21.287 6.30708C21.5673 6.42317 21.75 6.69664 21.75 6.99999V13C21.75 13.4142 21.4142 13.75 21 13.75C20.5858 13.75 20.25 13.4142 20.25 13V8.81065L13.5303 15.5303C13.2374 15.8232 12.7626 15.8232 12.4697 15.5303L9 12.0607L3.53033 17.5303C3.23744 17.8232 2.76256 17.8232 2.46967 17.5303C2.17678 17.2374 2.17678 16.7626 2.46967 16.4697L8.46967 10.4697C8.76256 10.1768 9.23744 10.1768 9.53033 10.4697L13 13.9393L20.4697 6.46966C20.6842 6.25516 21.0068 6.191 21.287 6.30708ZM14.25 6.99999C14.25 6.58578 14.5858 6.24999 15 6.24999H18C18.4142 6.24999 18.75 6.58578 18.75 6.99999C18.75 7.4142 18.4142 7.74999 18 7.74999H15C14.5858 7.74999 14.25 7.4142 14.25 6.99999Z" fill="black"/>
</svg>
