<svg width="24" height="24" viewBox="0 0 24 24" fill="none" xmlns="http://www.w3.org/2000/svg">
<path fill-rule="evenodd" clip-rule="evenodd" d="M12 2.25C12.4142 2.25 12.75 2.58579 12.75 3V3.28218C13.6243 3.35737 14.4771 3.56323 15.2813 3.88853C15.6652 4.04387 15.8506 4.48107 15.6953 4.86505C15.5399 5.24904 15.1027 5.4344 14.7187 5.27907C13.863 4.93291 12.941 4.75 12 4.75C10.0772 4.75 8.23312 5.51384 6.87348 6.87348C5.69178 8.05517 4.96014 9.60279 4.78887 11.25L19.2111 11.25C19.0399 9.60279 18.3082 8.05517 17.1265 6.87348C16.8336 6.58058 16.8336 6.10571 17.1265 5.81282C17.4194 5.51992 17.8943 5.51992 18.1872 5.81282C19.8281 7.45376 20.75 9.67936 20.75 12C20.75 12.1989 20.671 12.3897 20.5303 12.5303C20.3897 12.671 20.1989 12.75 20 12.75L4 12.75C3.58579 12.75 3.25 12.4142 3.25 12C3.25 9.67935 4.17187 7.45376 5.81282 5.81281C7.27605 4.34958 9.20416 3.45811 11.25 3.28218V3C11.25 2.58579 11.5858 2.25 12 2.25ZM12 14.25C12.4142 14.25 12.75 14.5858 12.75 15V21C12.75 21.4142 12.4142 21.75 12 21.75C11.5858 21.75 11.25 21.4142 11.25 21V15C11.25 14.5858 11.5858 14.25 12 14.25Z" fill="black"/>
</svg>
