<svg width="24" height="24" viewBox="0 0 24 24" fill="none" xmlns="http://www.w3.org/2000/svg">
<path fill-rule="evenodd" clip-rule="evenodd" d="M11.25 4C11.25 3.58579 11.5858 3.25 12 3.25C15.1756 3.25 17.75 5.82436 17.75 9V9.30888C20.017 9.66846 21.75 11.6318 21.75 14C21.75 15.7518 20.7998 17.3253 19.3755 18.1492C19.017 18.3566 18.5582 18.2341 18.3508 17.8755C18.1434 17.517 18.2659 17.0582 18.6245 16.8508C19.5914 16.2915 20.25 15.2093 20.25 14C20.25 12.2051 18.7949 10.75 17 10.75C16.5858 10.75 16.25 10.4142 16.25 10V9C16.25 6.65279 14.3472 4.75 12 4.75C11.5858 4.75 11.25 4.41421 11.25 4ZM8.45007 5.40033C8.78126 5.64909 8.84808 6.11924 8.59931 6.45043C8.06583 7.16067 7.75 8.04237 7.75 9V9.30899C7.99743 9.34828 8.23877 9.40672 8.47237 9.48282C8.86621 9.61112 9.08147 10.0344 8.95317 10.4282C8.82487 10.8221 8.40159 11.0374 8.00775 10.9091C7.69143 10.806 7.353 10.75 7 10.75C5.20507 10.75 3.75 12.2051 3.75 14C3.75 15.2093 4.40861 16.2915 5.37554 16.8508C5.73409 17.0582 5.85661 17.517 5.6492 17.8755C5.4418 18.2341 4.983 18.3566 4.62446 18.1492C3.20018 17.3253 2.25 15.7518 2.25 14C2.25 11.6318 3.98301 9.66846 6.25 9.30888V9C6.25 7.70642 6.67806 6.51065 7.39996 5.54957C7.64873 5.21838 8.11888 5.15156 8.45007 5.40033ZM8.46967 14.4697L11.4697 11.4697C11.7626 11.1768 12.2374 11.1768 12.5303 11.4697L15.5303 14.4697C15.8232 14.7626 15.8232 15.2374 15.5303 15.5303C15.2374 15.8232 14.7626 15.8232 14.4697 15.5303L12.75 13.8107V21C12.75 21.4142 12.4142 21.75 12 21.75C11.5858 21.75 11.25 21.4142 11.25 21V13.8107L9.53033 15.5303C9.23744 15.8232 8.76256 15.8232 8.46967 15.5303C8.17678 15.2374 8.17678 14.7626 8.46967 14.4697Z" fill="black"/>
</svg>
