<svg width="24" height="24" viewBox="0 0 24 24" fill="none" xmlns="http://www.w3.org/2000/svg">
<path fill-rule="evenodd" clip-rule="evenodd" d="M12 3.75C10.2051 3.75 8.75 5.20507 8.75 7C8.75 8.79493 10.2051 10.25 12 10.25C13.7949 10.25 15.25 8.79493 15.25 7C15.25 6.40679 15.0918 5.85281 14.8157 5.37554C14.6083 5.017 14.7308 4.5582 15.0893 4.3508C15.4479 4.14339 15.9067 4.26591 16.1141 4.62446C16.5187 5.32388 16.75 6.13606 16.75 7C16.75 9.62335 14.6234 11.75 12 11.75C9.37665 11.75 7.25 9.62335 7.25 7C7.25 4.37665 9.37665 2.25 12 2.25C12.4142 2.25 12.75 2.58579 12.75 3C12.75 3.41421 12.4142 3.75 12 3.75ZM18.9327 9.46691C18.8502 9.5581 18.75 9.74702 18.75 10.102C18.75 10.5606 19.1206 11.0533 19.7334 11.5092C20.0148 11.7186 20.3007 11.885 20.5187 11.9996C20.5368 12.0091 20.5544 12.0182 20.5714 12.027C20.5884 12.0182 20.606 12.0091 20.6242 11.9996C20.8421 11.885 21.1281 11.7186 21.4094 11.5092C22.0222 11.0533 22.3929 10.5606 22.3929 10.102C22.3929 9.75047 22.2921 9.56114 22.2077 9.4684C22.1263 9.37889 22.0092 9.32141 21.8441 9.32141C21.6918 9.32141 21.5499 9.38041 21.4485 9.47899L21.2999 9.62349C20.8965 10.0157 20.2464 10.0157 19.843 9.62349L19.6943 9.47899C19.5929 9.38041 19.451 9.32141 19.2988 9.32141C19.1266 9.32141 19.0111 9.38023 18.9327 9.46691ZM20.5714 12.8571C20.283 13.5494 20.2828 13.5493 20.2826 13.5493L20.2821 13.5491L20.281 13.5486L20.278 13.5474L20.2694 13.5437L20.2414 13.5315C20.2181 13.5213 20.1857 13.5069 20.1456 13.4883C20.0654 13.4511 19.9536 13.3972 19.8206 13.3272C19.5564 13.1883 19.1995 12.9816 18.838 12.7127C18.1651 12.212 17.25 11.327 17.25 10.102C17.25 9.46206 17.4356 8.88571 17.8206 8.46033C18.2097 8.03045 18.7436 7.82141 19.2988 7.82141C19.7607 7.82141 20.2094 7.97484 20.5714 8.25675C20.9334 7.97484 21.3821 7.82141 21.8441 7.82141C22.3963 7.82141 22.9286 8.03179 23.3172 8.45885C23.7028 8.88267 23.8929 9.45862 23.8929 10.102C23.8929 11.327 22.9778 12.212 22.3049 12.7127C21.9434 12.9816 21.5864 13.1883 21.3223 13.3272C21.1892 13.3972 21.0774 13.4511 20.9973 13.4883C20.9571 13.5069 20.9248 13.5213 20.9015 13.5315L20.8735 13.5437L20.8648 13.5474L20.8619 13.5486L20.8608 13.5491L20.8603 13.5493C20.8601 13.5493 20.8599 13.5494 20.5714 12.8571ZM20.5714 12.8571L20.8599 13.5494C20.6753 13.6264 20.4676 13.6264 20.283 13.5494L20.5714 12.8571ZM3.25 19C3.25 16.3766 5.37665 14.25 8 14.25C8.41421 14.25 8.75 14.5858 8.75 15C8.75 15.4142 8.41421 15.75 8 15.75C6.20507 15.75 4.75 17.2051 4.75 19V20.25H19.25V19C19.25 17.2051 17.7949 15.75 16 15.75H12C11.5858 15.75 11.25 15.4142 11.25 15C11.25 14.5858 11.5858 14.25 12 14.25H16C18.6234 14.25 20.75 16.3766 20.75 19V21C20.75 21.4142 20.4142 21.75 20 21.75H4C3.58579 21.75 3.25 21.4142 3.25 21V19Z" fill="black"/>
</svg>
