<svg width="24" height="24" viewBox="0 0 24 24" fill="none" xmlns="http://www.w3.org/2000/svg">
<path fill-rule="evenodd" clip-rule="evenodd" d="M12 3.75C10.2051 3.75 8.75 5.20507 8.75 7C8.75 8.79493 10.2051 10.25 12 10.25C13.7949 10.25 15.25 8.79493 15.25 7C15.25 6.40679 15.0918 5.85281 14.8157 5.37554C14.6083 5.017 14.7308 4.5582 15.0893 4.3508C15.4479 4.14339 15.9067 4.26591 16.1141 4.62446C16.5187 5.32388 16.75 6.13606 16.75 7C16.75 9.62335 14.6234 11.75 12 11.75C9.37665 11.75 7.25 9.62335 7.25 7C7.25 4.37665 9.37665 2.25 12 2.25C12.4142 2.25 12.75 2.58579 12.75 3C12.75 3.41421 12.4142 3.75 12 3.75ZM20.9531 6.75C20.3622 6.75 19.8751 7.12845 19.714 7.62951C19.5873 8.02386 19.1648 8.24078 18.7705 8.11402C18.3761 7.98726 18.1592 7.56483 18.286 7.17049C18.6466 6.0487 19.7111 5.25 20.9531 5.25C22.4813 5.25 23.75 6.46494 23.75 8C23.75 8.54962 23.5967 8.99755 23.2769 9.34206C23.006 9.63385 22.6598 9.79248 22.4474 9.88983C22.4378 9.89424 22.4284 9.89853 22.4194 9.90269C22.1674 10.0186 22.0413 10.082 21.944 10.173C21.874 10.2384 21.7855 10.3508 21.7397 10.6241C21.6711 11.0326 21.2844 11.3082 20.8759 11.2397C20.4674 11.1711 20.1918 10.7844 20.2603 10.3759C20.3557 9.80757 20.5879 9.3875 20.9194 9.07746C21.2077 8.80778 21.5428 8.65433 21.7581 8.55572C21.77 8.5503 21.7814 8.54505 21.7925 8.53995C22.0482 8.42232 22.1299 8.37285 22.1776 8.32148C22.1779 8.32109 22.1784 8.32065 22.1788 8.32016C22.1926 8.30571 22.25 8.2454 22.25 8C22.25 7.32592 21.6858 6.75 20.9531 6.75ZM20.9531 12.245C21.3673 12.245 21.7031 12.5808 21.7031 12.995V13C21.7031 13.4142 21.3673 13.75 20.9531 13.75C20.5389 13.75 20.2031 13.4142 20.2031 13V12.995C20.2031 12.5808 20.5389 12.245 20.9531 12.245ZM3.25 19C3.25 16.3766 5.37665 14.25 8 14.25C8.41421 14.25 8.75 14.5858 8.75 15C8.75 15.4142 8.41421 15.75 8 15.75C6.20507 15.75 4.75 17.2051 4.75 19V20.25H19.25V19C19.25 17.2051 17.7949 15.75 16 15.75H12C11.5858 15.75 11.25 15.4142 11.25 15C11.25 14.5858 11.5858 14.25 12 14.25H16C18.6234 14.25 20.75 16.3766 20.75 19V21C20.75 21.4142 20.4142 21.75 20 21.75H4C3.58579 21.75 3.25 21.4142 3.25 21V19Z" fill="black"/>
</svg>
