<svg width="24" height="24" viewBox="0 0 24 24" fill="none" xmlns="http://www.w3.org/2000/svg">
<path fill-rule="evenodd" clip-rule="evenodd" d="M12 5.75C10.7574 5.75 9.75 6.75736 9.75 8C9.75 9.24264 10.7574 10.25 12 10.25C13.2426 10.25 14.25 9.24264 14.25 8C14.25 6.75736 13.2426 5.75 12 5.75ZM8.25 8C8.25 5.92893 9.92893 4.25 12 4.25C14.0711 4.25 15.75 5.92893 15.75 8C15.75 10.0711 14.0711 11.75 12 11.75C9.92893 11.75 8.25 10.0711 8.25 8ZM6.70713 4.92077C6.84516 5.3113 6.64047 5.73979 6.24993 5.87783C5.37503 6.18706 4.75 7.0215 4.75 7.99999C4.75 8.97849 5.37503 9.81292 6.24993 10.1222C6.64047 10.2602 6.84516 10.6887 6.70713 11.0792C6.5691 11.4698 6.1406 11.6745 5.75007 11.5364C4.29459 11.022 3.25 9.63394 3.25 7.99999C3.25 6.36605 4.29459 4.97801 5.75007 4.46357C6.1406 4.32554 6.5691 4.53023 6.70713 4.92077ZM17.2929 4.92077C17.4309 4.53023 17.8594 4.32554 18.2499 4.46357C19.7054 4.97801 20.75 6.36605 20.75 7.99999C20.75 9.63394 19.7054 11.022 18.2499 11.5364C17.8594 11.6745 17.4309 11.4698 17.2929 11.0792C17.1548 10.6887 17.3595 10.2602 17.7501 10.1222C18.625 9.81292 19.25 8.97849 19.25 7.99999C19.25 7.0215 18.625 6.18706 17.7501 5.87783C17.3595 5.73979 17.1548 5.3113 17.2929 4.92077ZM5.25 18C5.25 15.3766 7.37665 13.25 10 13.25H14C16.6234 13.25 18.75 15.3766 18.75 18V19C18.75 19.4142 18.4142 19.75 18 19.75H6C5.58579 19.75 5.25 19.4142 5.25 19V18ZM10 14.75C8.20507 14.75 6.75 16.2051 6.75 18V18.25H17.25V18C17.25 16.2051 15.7949 14.75 14 14.75H10ZM4.72633 13.9391C4.82957 14.3402 4.58808 14.7491 4.18694 14.8524C2.78504 15.2132 1.75 16.4867 1.75 18V18.25H3C3.41421 18.25 3.75 18.5858 3.75 19C3.75 19.4142 3.41421 19.75 3 19.75H1C0.585786 19.75 0.25 19.4142 0.25 19V18C0.25 15.7857 1.76451 13.927 3.81306 13.3997C4.2142 13.2964 4.62308 13.5379 4.72633 13.9391ZM19.2737 13.9391C19.3769 13.5379 19.7858 13.2964 20.1869 13.3997C22.2355 13.927 23.75 15.7857 23.75 18V19C23.75 19.4142 23.4142 19.75 23 19.75H21C20.5858 19.75 20.25 19.4142 20.25 19C20.25 18.5858 20.5858 18.25 21 18.25H22.25V18C22.25 16.4867 21.215 15.2132 19.8131 14.8524C19.4119 14.7491 19.1704 14.3402 19.2737 13.9391Z" fill="black"/>
</svg>
