<svg width="24" height="24" viewBox="0 0 24 24" fill="none" xmlns="http://www.w3.org/2000/svg">
<path fill-rule="evenodd" clip-rule="evenodd" d="M12 3.75C9.88655 3.75 7.96026 4.54373 6.50019 5.85053C6.19154 6.12678 5.71739 6.10051 5.44115 5.79187C5.1649 5.48322 5.19117 5.00907 5.49981 4.73283C7.22428 3.1894 9.50333 2.25 12 2.25C17.3848 2.25 21.75 6.61522 21.75 12C21.75 17.3848 17.3848 21.75 12 21.75C6.61522 21.75 2.25 17.3848 2.25 12C2.25 11.2564 2.33338 10.5313 2.49161 9.83403C2.58327 9.43009 2.98504 9.17693 3.38898 9.26859C3.79293 9.36025 4.04608 9.76202 3.95442 10.166C3.82074 10.7551 3.75 11.3688 3.75 12C3.75 13.9341 4.41556 15.7128 5.53014 17.1195C5.69144 16.6551 5.91931 16.2065 6.20564 15.8086C6.81988 14.9551 7.77252 14.25 9 14.25C9.00001 14.25 8.99999 14.25 9 14.25H11C11.4142 14.25 11.75 14.5858 11.75 15C11.75 15.4142 11.4142 15.75 11 15.75H9C8.3992 15.75 7.85183 16.0891 7.42315 16.6848C7.062 17.1867 6.83429 17.8102 6.76926 18.3801C8.19286 19.5486 10.0145 20.25 12 20.25C13.9855 20.25 15.8071 19.5486 17.2307 18.3801C17.1657 17.8102 16.938 17.1867 16.5769 16.6848C16.1482 16.0891 15.6008 15.75 15 15.75C14.5858 15.75 14.25 15.4142 14.25 15C14.25 14.5858 14.5858 14.25 15 14.25C16.2275 14.25 17.1801 14.9551 17.7944 15.8086C18.0807 16.2065 18.3086 16.6551 18.4699 17.1195C19.5844 15.7128 20.25 13.9341 20.25 12C20.25 7.44365 16.5563 3.75 12 3.75ZM12 6.75C10.7574 6.75 9.75 7.75736 9.75 9C9.75 10.2426 10.7574 11.25 12 11.25C13.2426 11.25 14.25 10.2426 14.25 9C14.25 7.75736 13.2426 6.75 12 6.75ZM8.25 9C8.25 6.92893 9.92893 5.25 12 5.25C14.0711 5.25 15.75 6.92893 15.75 9C15.75 11.0711 14.0711 12.75 12 12.75C9.92893 12.75 8.25 11.0711 8.25 9Z" fill="black"/>
</svg>
