<svg width="24" height="24" viewBox="0 0 24 24" fill="none" xmlns="http://www.w3.org/2000/svg">
<path fill-rule="evenodd" clip-rule="evenodd" d="M9 3.75C7.20507 3.75 5.75 5.20507 5.75 7C5.75 8.79493 7.20507 10.25 9 10.25C10.7949 10.25 12.25 8.79493 12.25 7C12.25 6.40679 12.0918 5.85281 11.8157 5.37554C11.6083 5.017 11.7308 4.5582 12.0893 4.3508C12.4479 4.14339 12.9067 4.26591 13.1141 4.62446C13.5187 5.32388 13.75 6.13606 13.75 7C13.75 9.62335 11.6234 11.75 9 11.75C6.37665 11.75 4.25 9.62335 4.25 7C4.25 4.37665 6.37665 2.25 9 2.25C9.41421 2.25 9.75 2.58579 9.75 3C9.75 3.41421 9.41421 3.75 9 3.75ZM15.2737 2.93908C15.3769 2.53794 15.7858 2.29645 16.1869 2.39969C18.2355 2.92695 19.75 4.78567 19.75 7C19.75 9.21434 18.2355 11.0731 16.1869 11.6003C15.7858 11.7036 15.3769 11.4621 15.2737 11.0609C15.1704 10.6598 15.4119 10.2509 15.8131 10.1477C17.215 9.78683 18.25 8.51335 18.25 7C18.25 5.48666 17.215 4.21318 15.8131 3.85235C15.4119 3.7491 15.1704 3.34022 15.2737 2.93908ZM0.25 19C0.25 16.3766 2.37665 14.25 5 14.25C5.41421 14.25 5.75 14.5858 5.75 15C5.75 15.4142 5.41421 15.75 5 15.75C3.20507 15.75 1.75 17.2051 1.75 19V20.25H16.25V19C16.25 17.2051 14.7949 15.75 13 15.75H9C8.58579 15.75 8.25 15.4142 8.25 15C8.25 14.5858 8.58579 14.25 9 14.25H13C15.6234 14.25 17.75 16.3766 17.75 19V21C17.75 21.4142 17.4142 21.75 17 21.75H1C0.585786 21.75 0.25 21.4142 0.25 21V19ZM18.25 15C18.25 14.5858 18.5858 14.25 19 14.25C21.6234 14.25 23.75 16.3766 23.75 19V21C23.75 21.4142 23.4142 21.75 23 21.75H21C20.5858 21.75 20.25 21.4142 20.25 21C20.25 20.5858 20.5858 20.25 21 20.25H22.25V19C22.25 17.2051 20.7949 15.75 19 15.75C18.5858 15.75 18.25 15.4142 18.25 15Z" fill="black"/>
</svg>
