<svg width="24" height="24" viewBox="0 0 24 24" fill="none" xmlns="http://www.w3.org/2000/svg">
<path fill-rule="evenodd" clip-rule="evenodd" d="M12 1.75C12.4142 1.75 12.75 2.08579 12.75 2.5V4.28582C13.6194 4.36931 14.4468 4.59643 15.2083 4.94317L16.1006 3.39771C16.3077 3.03899 16.7663 2.91608 17.1251 3.12319C17.4838 3.33029 17.6067 3.78899 17.3996 4.14771L16.5067 5.69431C18.2792 6.9634 19.4944 8.96132 19.7142 11.25H21.5C21.9142 11.25 22.25 11.5858 22.25 12C22.25 12.4142 21.9142 12.75 21.5 12.75H19.7142C19.6307 13.6194 19.4036 14.4468 19.0568 15.2082L20.6023 16.1005C20.961 16.3076 21.0839 16.7663 20.8768 17.125C20.6697 17.4837 20.211 17.6066 19.8523 17.3995L18.3057 16.5066C17.809 17.2005 17.2005 17.8089 16.5067 18.3057L17.3996 19.8523C17.6067 20.211 17.4838 20.6697 17.1251 20.8768C16.7663 21.0839 16.3076 20.961 16.1005 20.6023L15.2083 19.0568C14.4468 19.4036 13.6194 19.6307 12.75 19.7142V21.5C12.75 21.9142 12.4142 22.25 12 22.25C11.5858 22.25 11.25 21.9142 11.25 21.5V19.7142C8.9613 19.4944 6.96336 18.2792 5.69427 16.5066L4.14771 17.3995C3.78899 17.6066 3.33029 17.4837 3.12319 17.125C2.91608 16.7663 3.03899 16.3076 3.39771 16.1005L4.94315 15.2082C4.49799 14.2306 4.25 13.1443 4.25 12C4.25 10.8557 4.49799 9.76937 4.94316 8.79175L3.39777 7.89952C3.03905 7.69241 2.91614 7.23372 3.12325 6.875C3.33035 6.51628 3.78905 6.39337 4.14777 6.60048L5.69429 7.49337C6.96338 5.72081 8.96131 4.5056 11.25 4.28582V2.5C11.25 2.08579 11.5858 1.75 12 1.75ZM6.56732 8.90776C6.57423 8.89707 6.58091 8.88615 6.58735 8.875C6.59357 8.86422 6.5995 8.85335 6.60513 8.8424C7.69034 6.99227 9.7001 5.75 12 5.75C13.1255 5.75 14.1815 6.04749 15.0937 6.56813C15.1039 6.57473 15.1144 6.58112 15.1251 6.58729C15.1354 6.59324 15.1458 6.59892 15.1562 6.60432C17.0071 7.68935 18.25 9.69953 18.25 12C18.25 13.125 17.9527 14.1806 17.4325 15.0926C17.4257 15.1031 17.419 15.114 17.4127 15.125C17.4065 15.1357 17.4007 15.1464 17.3951 15.1573C16.8532 16.0812 16.0808 16.8535 15.1568 17.3953C15.1462 17.4008 15.1356 17.4066 15.1251 17.4127C15.1142 17.419 15.1035 17.4255 15.0931 17.4322C14.181 17.9526 13.1252 18.25 12 18.25C9.69975 18.25 7.68973 17.0074 6.60463 15.1567C6.59913 15.1461 6.59335 15.1355 6.58729 15.125C6.58101 15.1141 6.57451 15.1035 6.56778 15.093C6.04736 14.181 5.75 13.1252 5.75 12C5.75 10.8751 6.04718 9.81961 6.56732 8.90776ZM6.87494 3.12319C7.23366 2.91608 7.69235 3.03899 7.89946 3.39771L8.26266 4.02679C8.46977 4.38551 8.34686 4.8442 7.98814 5.05131C7.62942 5.25841 7.17073 5.13551 6.96362 4.77679L6.60042 4.14771C6.39331 3.78899 6.51622 3.33029 6.87494 3.12319ZM20.8768 6.875C21.0839 7.23372 20.961 7.69241 20.6023 7.89952L19.8749 8.31944C19.5162 8.52654 19.0575 8.40364 18.8504 8.04492C18.6433 7.6862 18.7662 7.22751 19.1249 7.0204L19.8523 6.60048C20.211 6.39337 20.6697 6.51628 20.8768 6.875ZM13 8.75C12.3096 8.75 11.75 9.30964 11.75 10C11.75 10.4142 11.4142 10.75 11 10.75C10.5858 10.75 10.25 10.4142 10.25 10C10.25 8.48122 11.4812 7.25 13 7.25C14.5188 7.25 15.75 8.48122 15.75 10C15.75 11.5188 14.5188 12.75 13 12.75C12.5858 12.75 12.25 12.4142 12.25 12C12.25 11.5858 12.5858 11.25 13 11.25C13.6904 11.25 14.25 10.6904 14.25 10C14.25 9.30964 13.6904 8.75 13 8.75ZM8 10.25C8.41421 10.25 8.75 10.5858 8.75 11V11.01C8.75 11.4242 8.41421 11.76 8 11.76C7.58579 11.76 7.25 11.4242 7.25 11.01V11C7.25 10.5858 7.58579 10.25 8 10.25ZM1.75 12C1.75 11.5858 2.08579 11.25 2.5 11.25H3C3.41421 11.25 3.75 11.5858 3.75 12C3.75 12.4142 3.41421 12.75 3 12.75H2.5C2.08579 12.75 1.75 12.4142 1.75 12ZM10 14.75C9.86193 14.75 9.75 14.8619 9.75 15C9.75 15.1381 9.86193 15.25 10 15.25C10.1381 15.25 10.25 15.1381 10.25 15C10.25 14.8844 10.2762 14.7749 10.3229 14.6771C10.2251 14.7239 10.1156 14.75 10 14.75ZM10.6771 14.3229C10.7239 14.2251 10.75 14.1156 10.75 14C10.75 13.5858 10.4142 13.25 10 13.25C9.0335 13.25 8.25 14.0335 8.25 15C8.25 15.9665 9.0335 16.75 10 16.75C10.9665 16.75 11.75 15.9665 11.75 15C11.75 14.5858 11.4142 14.25 11 14.25C10.8844 14.25 10.7749 14.2762 10.6771 14.3229ZM15 14.25C15.4142 14.25 15.75 14.5858 15.75 15V15.01C15.75 15.4242 15.4142 15.76 15 15.76C14.5858 15.76 14.25 15.4242 14.25 15.01V15C14.25 14.5858 14.5858 14.25 15 14.25ZM8.04486 18.8504C8.40358 19.0575 8.52648 19.5162 8.31938 19.8749L7.89946 20.6023C7.69235 20.961 7.23366 21.0839 6.87494 20.8768C6.51622 20.6697 6.39331 20.211 6.60042 19.8523L7.02034 19.1249C7.22745 18.7662 7.68614 18.6433 8.04486 18.8504Z" fill="black"/>
</svg>
