<svg width="24" height="24" viewBox="0 0 24 24" fill="none" xmlns="http://www.w3.org/2000/svg">
<path fill-rule="evenodd" clip-rule="evenodd" d="M1.75 7.33333C1.75 5.70284 2.96211 4.25 4.61111 4.25H12C12.4142 4.25 12.75 4.58579 12.75 5C12.75 5.41421 12.4142 5.75 12 5.75H4.61111C3.92825 5.75 3.25 6.3865 3.25 7.33333V16.6667C3.25 17.6135 3.92825 18.25 4.61111 18.25H8C8.41421 18.25 8.75 18.5858 8.75 19C8.75 19.4142 8.41421 19.75 8 19.75H4.61111C2.9621 19.75 1.75 18.2972 1.75 16.6667V7.33333ZM16.25 5C16.25 4.58579 16.5858 4.25 17 4.25H19.3889C21.0379 4.25 22.25 5.70284 22.25 7.33333V16.6667C22.25 18.2972 21.0379 19.75 19.3889 19.75H12C11.5858 19.75 11.25 19.4142 11.25 19C11.25 18.5858 11.5858 18.25 12 18.25H19.3889C20.0718 18.25 20.75 17.6135 20.75 16.6667V15.75H14C11.9289 15.75 10.25 14.0711 10.25 12C10.25 9.92893 11.9289 8.25 14 8.25H20.75V7.33333C20.75 6.3865 20.0718 5.75 19.3889 5.75H17C16.5858 5.75 16.25 5.41421 16.25 5ZM20.75 9.75H14C12.7574 9.75 11.75 10.7574 11.75 12C11.75 13.2426 12.7574 14.25 14 14.25H20.75V9.75ZM14 11.25C14.4142 11.25 14.75 11.5858 14.75 12V12.01C14.75 12.4242 14.4142 12.76 14 12.76C13.5858 12.76 13.25 12.4242 13.25 12.01V12C13.25 11.5858 13.5858 11.25 14 11.25Z" fill="black"/>
</svg>
