<svg width="24" height="24" viewBox="0 0 24 24" fill="none" xmlns="http://www.w3.org/2000/svg">
<path fill-rule="evenodd" clip-rule="evenodd" d="M9 2.25C9.41421 2.25 9.75 2.58579 9.75 3V5C9.75 5.41421 9.41421 5.75 9 5.75C8.58579 5.75 8.25 5.41421 8.25 5V3C8.25 2.58579 8.58579 2.25 9 2.25ZM14.1516 3.84833C14.4445 4.14123 14.4445 4.6161 14.1516 4.90899L12.0303 7.03031C11.7374 7.32321 11.2626 7.32321 10.9697 7.03031C10.6768 6.73742 10.6768 6.26255 10.9697 5.96965L13.091 3.84833C13.3839 3.55544 13.8588 3.55544 14.1516 3.84833ZM3.84839 3.84836C4.14129 3.55547 4.61616 3.55547 4.90905 3.84836L7.03037 5.96968C7.32327 6.26258 7.32327 6.73745 7.03037 7.03034C6.73748 7.32324 6.26261 7.32324 5.96971 7.03034L3.84839 4.90902C3.5555 4.61613 3.5555 4.14126 3.84839 3.84836ZM2.25 9C2.25 8.58579 2.58579 8.25 3 8.25H5C5.41421 8.25 5.75 8.58579 5.75 9C5.75 9.41421 5.41421 9.75 5 9.75H3C2.58579 9.75 2.25 9.41421 2.25 9ZM12.25 9C12.25 8.58579 12.5858 8.25 13 8.25H15C15.4142 8.25 15.75 8.58579 15.75 9C15.75 9.41421 15.4142 9.75 15 9.75H13C12.5858 9.75 12.25 9.41421 12.25 9ZM7.03037 10.9697C7.32327 11.2626 7.32327 11.7375 7.03037 12.0304L4.90905 14.1517C4.61616 14.4446 4.14129 14.4446 3.84839 14.1517C3.5555 13.8588 3.5555 13.3839 3.84839 13.091L5.96971 10.9697C6.26261 10.6768 6.73748 10.6768 7.03037 10.9697ZM11.4697 11.4696C11.7626 11.1767 12.2374 11.1767 12.5303 11.4696L20.5303 19.4697C20.8232 19.7625 20.8232 20.2374 20.5303 20.5303C20.2375 20.8232 19.7626 20.8232 19.4697 20.5303L11.4697 12.5303C11.1768 12.2374 11.1768 11.7625 11.4697 11.4696ZM9 12.25C9.41421 12.25 9.75 12.5858 9.75 13V15C9.75 15.4142 9.41421 15.75 9 15.75C8.58579 15.75 8.25 15.4142 8.25 15V13C8.25 12.5858 8.58579 12.25 9 12.25Z" fill="black"/>
</svg>
