<svg width="24" height="24" viewBox="0 0 24 24" fill="none" xmlns="http://www.w3.org/2000/svg">
<path fill-rule="evenodd" clip-rule="evenodd" d="M11.5787 2.37952C11.833 2.20683 12.167 2.20683 12.4213 2.37952C14.9759 4.11409 16.9461 6.36027 18.1964 8.63925C18.3957 9.0024 18.2628 9.4583 17.8996 9.65754C17.5365 9.85678 17.0806 9.7239 16.8813 9.36075C15.8143 7.41588 14.1538 5.47218 12 3.91564C7.98795 6.81432 5.75 11.0018 5.75 14C5.75 17.9357 8.92415 20.25 12 20.25C15.0759 20.25 18.25 17.9358 18.25 14C18.25 13.5858 18.5858 13.25 19 13.25C19.4142 13.25 19.75 13.5858 19.75 14C19.75 18.9008 15.7607 21.75 12 21.75C8.2393 21.75 4.25 18.9008 4.25 14C4.25 10.265 7.0185 5.47588 11.5787 2.37952ZM9 13.25C9.41421 13.25 9.75 13.5858 9.75 14C9.75 14.9665 10.5335 15.75 11.5 15.75C11.9142 15.75 12.25 16.0858 12.25 16.5C12.25 16.9142 11.9142 17.25 11.5 17.25C9.70507 17.25 8.25 15.7949 8.25 14C8.25 13.5858 8.58579 13.25 9 13.25Z" fill="black"/>
</svg>
