<svg width="24" height="24" viewBox="0 0 24 24" fill="none" xmlns="http://www.w3.org/2000/svg">
<path fill-rule="evenodd" clip-rule="evenodd" d="M12 5.75C8.63583 5.75 5.61962 7.20129 3.55847 9.50062C3.28199 9.80905 2.80782 9.83495 2.49939 9.55847C2.19096 9.28198 2.16506 8.80782 2.44154 8.49938C4.77805 5.89288 8.19602 4.25 12 4.25C13.4875 4.25 14.9171 4.50133 16.2465 4.96398C16.6377 5.10012 16.8445 5.52762 16.7083 5.91882C16.5722 6.31002 16.1447 6.51679 15.7535 6.38064C14.5807 5.97249 13.3176 5.75 12 5.75ZM18.388 6.78393C18.6274 6.44592 19.0955 6.36599 19.4335 6.6054C20.212 7.15681 20.9249 7.79262 21.5585 8.49938C21.835 8.80782 21.8091 9.28198 21.5006 9.55847C21.1922 9.83495 20.718 9.80905 20.4415 9.50062C19.8828 8.87731 19.2537 8.31622 18.5665 7.82946C18.2285 7.59004 18.1486 7.12195 18.388 6.78393ZM12 9.75C9.53185 9.75 7.31991 10.8145 5.80847 12.5006C5.53199 12.809 5.05782 12.8349 4.74939 12.5585C4.44096 12.282 4.41506 11.8078 4.69154 11.4994C6.47834 9.50611 9.09204 8.25 12 8.25C14.908 8.25 17.5217 9.50611 19.3085 11.4994C19.585 11.8078 19.5591 12.282 19.2506 12.5585C18.9422 12.8349 18.468 12.809 18.1915 12.5006C16.6801 10.8145 14.4682 9.75 12 9.75ZM12 13.75C11.743 13.75 11.4908 13.7681 11.2444 13.8029C10.8343 13.8609 10.4548 13.5755 10.3968 13.1653C10.3388 12.7552 10.6242 12.3757 11.0344 12.3177C11.3501 12.2731 11.6726 12.25 12 12.25C14.012 12.25 15.8214 13.1193 17.0585 14.4994C17.335 14.8078 17.3091 15.282 17.0006 15.5585C16.6922 15.8349 16.218 15.809 15.9415 15.5006C14.9798 14.4277 13.5721 13.75 12 13.75ZM8.73364 13.8961C8.99685 14.2159 8.95094 14.6886 8.6311 14.9518C8.42632 15.1203 8.23486 15.3039 8.05847 15.5006C7.78199 15.809 7.30782 15.8349 6.99939 15.5585C6.69096 15.282 6.66506 14.8078 6.94154 14.4994C7.16857 14.2461 7.41479 14.0101 7.67795 13.7936C7.99778 13.5304 8.47043 13.5763 8.73364 13.8961ZM12 17.75C11.8619 17.75 11.75 17.8619 11.75 18C11.75 18.1381 11.8619 18.25 12 18.25C12.1381 18.25 12.25 18.1381 12.25 18C12.25 17.8619 12.1381 17.75 12 17.75ZM10.25 18C10.25 17.0335 11.0335 16.25 12 16.25C12.9665 16.25 13.75 17.0335 13.75 18C13.75 18.9665 12.9665 19.75 12 19.75C11.0335 19.75 10.25 18.9665 10.25 18Z" fill="black"/>
</svg>
