<svg width="24" height="24" viewBox="0 0 24 24" fill="none" xmlns="http://www.w3.org/2000/svg">
<path fill-rule="evenodd" clip-rule="evenodd" d="M9.25 4C9.25 3.0335 10.0335 2.25 11 2.25C11.4142 2.25 11.75 2.58579 11.75 3C11.75 3.41421 11.4142 3.75 11 3.75C10.8619 3.75 10.75 3.86193 10.75 4V5.25H20.25V4C20.25 3.86193 20.1381 3.75 20 3.75H15C14.5858 3.75 14.25 3.41421 14.25 3C14.25 2.58579 14.5858 2.25 15 2.25H20C20.9665 2.25 21.75 3.0335 21.75 4V11C21.75 11.9665 20.9665 12.75 20 12.75C19.5858 12.75 19.25 12.4142 19.25 12C19.25 11.5858 19.5858 11.25 20 11.25C20.1381 11.25 20.25 11.1381 20.25 11V6.75H10.75V8.25H16C16.9665 8.25 17.75 9.0335 17.75 10V19C17.75 19.9665 16.9665 20.75 16 20.75H9C8.58579 20.75 8.25 20.4142 8.25 20C8.25 19.5858 8.58579 19.25 9 19.25H16C16.1381 19.25 16.25 19.1381 16.25 19V12.75H3.75V19C3.75 19.1381 3.86193 19.25 4 19.25C4.41421 19.25 4.75 19.5858 4.75 20C4.75 20.4142 4.41421 20.75 4 20.75C3.0335 20.75 2.25 19.9665 2.25 19V10C2.25 9.0335 3.0335 8.25 4 8.25H9.25V4ZM4 9.75C3.86193 9.75 3.75 9.86193 3.75 10V11.25H16.25V10C16.25 9.86193 16.1381 9.75 16 9.75H4Z" fill="black"/>
</svg>
