<svg width="24" height="24" viewBox="0 0 24 24" fill="none" xmlns="http://www.w3.org/2000/svg">
<path fill-rule="evenodd" clip-rule="evenodd" d="M10 3.75C6.54822 3.75 3.75 6.54822 3.75 10C3.75 10.4142 3.41421 10.75 3 10.75C2.58579 10.75 2.25 10.4142 2.25 10C2.25 5.71979 5.71979 2.25 10 2.25C14.2802 2.25 17.75 5.71979 17.75 10C17.75 11.8697 17.0871 13.5857 15.9848 14.9241L20.5303 19.4697C20.8232 19.7626 20.8232 20.2374 20.5303 20.5303C20.2374 20.8232 19.7625 20.8232 19.4696 20.5303L14.9241 15.9848C13.5857 17.0871 11.8697 17.75 10 17.75C7.8886 17.75 5.97313 16.9047 4.57609 15.5357C4.28024 15.2458 4.27543 14.7709 4.56534 14.4751C4.85524 14.1792 5.33009 14.1744 5.62594 14.4643C6.75397 15.5697 8.29679 16.25 10 16.25C11.7261 16.25 13.2875 15.5513 14.4194 14.4194C15.5512 13.2875 16.25 11.7261 16.25 10C16.25 6.54822 13.4518 3.75 10 3.75ZM10 6.25C10.4142 6.25 10.75 6.58579 10.75 7V9.25H13C13.4142 9.25 13.75 9.58579 13.75 10C13.75 10.4142 13.4142 10.75 13 10.75H10.75V13C10.75 13.4142 10.4142 13.75 10 13.75C9.58579 13.75 9.25 13.4142 9.25 13V10.75H7C6.58579 10.75 6.25 10.4142 6.25 10C6.25 9.58579 6.58579 9.25 7 9.25H9.25V7C9.25 6.58579 9.58579 6.25 10 6.25Z" fill="black"/>
</svg>
